<svg id="Слой_1" data-name="Слой 1" xmlns="http://www.w3.org/2000/svg" viewBox="0 0 67.59 68.96"><title>a0</title><path d="M48.73,31.82a47.79,47.79,0,0,1-.79,9.07A20.78,20.78,0,0,1,45.34,48a12.76,12.76,0,0,1-4.75,4.57,14.82,14.82,0,0,1-7.24,1.62,14.81,14.81,0,0,1-6.86-1.45A11.29,11.29,0,0,1,22,48.42a20.17,20.17,0,0,1-2.42-6.94A55.52,55.52,0,0,1,18.87,32a47.06,47.06,0,0,1,.8-9.06,21.24,21.24,0,0,1,2.6-7.08A12.66,12.66,0,0,1,27,11.31a14.71,14.71,0,0,1,7.2-1.61,14.73,14.73,0,0,1,6.89,1.45,11.16,11.16,0,0,1,4.49,4.27A19.89,19.89,0,0,1,48,22.36,55.37,55.37,0,0,1,48.73,31.82Zm-5.87.4q0-3.24-.24-5.81a34,34,0,0,0-.68-4.54,14.65,14.65,0,0,0-1.17-3.38,8,8,0,0,0-1.72-2.34,6.11,6.11,0,0,0-2.28-1.33,9.29,9.29,0,0,0-2.89-.42,7.41,7.41,0,0,0-4.6,1.33,9,9,0,0,0-2.79,3.67,19.52,19.52,0,0,0-1.39,5.48,59.13,59.13,0,0,0-.36,6.74,58,58,0,0,0,.5,8.22,18.09,18.09,0,0,0,1.58,5.52,7.27,7.27,0,0,0,2.77,3.11,8.17,8.17,0,0,0,4.09,1,8.4,8.4,0,0,0,3.29-.6,6.86,6.86,0,0,0,2.43-1.72,9.49,9.49,0,0,0,1.69-2.68A19.36,19.36,0,0,0,42.16,41a32.63,32.63,0,0,0,.55-4.12Q42.86,34.62,42.86,32.22Z"/></svg>