<svg id="Слой_1" data-name="Слой 1" xmlns="http://www.w3.org/2000/svg" viewBox="0 0 67.59 68.96"><title>a2</title><path d="M49,54.29l-1.5,0-2.6-.1-3-.12c-1,0-2-.07-2.88-.07s-1.93,0-3.29.07-2.73.07-4.13.09L28,54.19l-2,0a1.79,1.79,0,0,1-.72-.37c-.35-.25-.53-.48-.53-.69a.73.73,0,0,1,.19-.56c.12-.13.27-.27.44-.44L35.51,41.4a30,30,0,0,0,5.11-7.26A18.25,18.25,0,0,0,42.52,26a6.83,6.83,0,0,0-1.75-4.91,5.8,5.8,0,0,0-4.38-1.85,8.23,8.23,0,0,0-4.54,1.35,11.44,11.44,0,0,0-3.41,3.34,3.08,3.08,0,0,1-.62.69,1.25,1.25,0,0,1-.82.32c-.21,0-.4-.17-.59-.5a2.55,2.55,0,0,1-.28-1.26A4.49,4.49,0,0,1,27.07,21a14.09,14.09,0,0,1,2.62-2.85,16,16,0,0,1,4-2.44,12.59,12.59,0,0,1,5-1A10.28,10.28,0,0,1,44.09,16a8.93,8.93,0,0,1,3.44,3.69,11.74,11.74,0,0,1,.53,9,21.25,21.25,0,0,1-1.72,3.88A22.64,22.64,0,0,1,44,36.08c-.54.66-1.32,1.52-2.34,2.56s-2.11,2.14-3.26,3.29-2.24,2.23-3.28,3.25-1.89,1.87-2.54,2.54a5.74,5.74,0,0,0-1,1.12c0,.17.29.29.88.38.75.08,1.59.14,2.53.19s2,.06,3,.06,2.24,0,3.35-.06,2.18-.11,3.22-.19a16.91,16.91,0,0,0,2.69-.38A3.68,3.68,0,0,0,49,47.9,7.79,7.79,0,0,0,50.41,46a9.2,9.2,0,0,1,.69-.87,1.22,1.22,0,0,1,.94-.5.49.49,0,0,1,.5.31,1.14,1.14,0,0,1,.06.63c-.13.5-.33,1.16-.63,2s-.58,1.72-.87,2.66-.52,1.82-.69,2.66A1.52,1.52,0,0,1,49.82,54,1.75,1.75,0,0,1,49,54.29Z"/></svg>