<svg id="Слой_1" data-name="Слой 1" xmlns="http://www.w3.org/2000/svg" viewBox="0 0 67.59 68.96"><title>a3</title><path d="M38.64,45.38c0-7.11-6.35-9.43-14.28-9.43h-1V30.28h.82c8.68,0,13.19-2.39,13.19-8.2C37.34,16.82,33,14,27.71,14c-6.63,0-10.25,4-10.8,9.63H10.49c.75-8.75,7-14.83,17.35-14.83,8.54,0,16.06,3.49,16.06,12.57,0,5.13-2.87,9.37-8.06,11.48,7.38,2.4,9.43,7.18,9.43,12.44,0,10-8.41,14.83-17.9,14.83-11.76,0-16.88-7.25-17.63-15.51h6.42c.75,6.08,4.24,10.31,11.27,10.31C34,54.94,38.64,51.6,38.64,45.38Z"/></svg>