<svg id="Слой_1" data-name="Слой 1" xmlns="http://www.w3.org/2000/svg" viewBox="0 0 67.59 68.96"><title>a4</title><path d="M29.12,56.52a1.9,1.9,0,0,1-.79-.21.69.69,0,0,1-.44-.68.61.61,0,0,1,.41-.55,2.82,2.82,0,0,1,.82-.27c2.14-.27,3.55-.73,4.23-1.37a3.36,3.36,0,0,0,1-2.6V44.49q0-.35-.48-.48a3.59,3.59,0,0,0-.55-.13c-1.86,0-3.61,0-5.22.1l-5.09.2q-2.67.1-6.29.17a.63.63,0,0,1-.48-.24.65.65,0,0,1-.2-.44.28.28,0,0,1,.06-.2c.6-.73,1-1.25,1.3-1.54l.69-.75a9.56,9.56,0,0,0,.68-.93l18-25.89a10.49,10.49,0,0,1,1-1.27,1.58,1.58,0,0,1,1.06-.65h1.43c.23,0,.19.32-.13,1L21.74,39.91a2.23,2.23,0,0,0-.14.38c0,.16,0,.24.14.24H33.56a1.1,1.1,0,0,0,.55-.17c.18-.12.27-.24.27-.38V29.39a3.43,3.43,0,0,1,.1-1,1,1,0,0,1,.51-.48,6.78,6.78,0,0,1,2.19-.71A11.89,11.89,0,0,1,38.82,27c.5,0,.8.36.89,1.09a28.89,28.89,0,0,1,.14,3.28v8.81c0,.28.11.41.34.41.5,0,1,.07,1.43.07h1.3l1.95,0c.66,0,1.35-.06,2.08-.1q.75,0,.75.54a2.67,2.67,0,0,1-.3,1.17,6.22,6.22,0,0,1-.65,1c-.23.27-.39.41-.48.41l-1.64,0c-.59,0-1.16,0-1.71,0s-.8,0-1.16,0a7.9,7.9,0,0,0-1,.1,3.34,3.34,0,0,0-.58.2c-.2.1-.31.16-.31.21v6.42a3.35,3.35,0,0,0,.93,2.73,10.63,10.63,0,0,0,3.65,1.51,2,2,0,0,1,.82.34.75.75,0,0,1,.41.61.67.67,0,0,1-.3.52,1.16,1.16,0,0,1-.72.24c-1.28,0-2.29,0-3-.11l-2.09-.17c-.64,0-1.5-.07-2.59-.07s-2.07,0-2.77.07l-2.15.17C31.33,56.48,30.35,56.52,29.12,56.52Z"/></svg>