<svg id="Слой_1" data-name="Слой 1" xmlns="http://www.w3.org/2000/svg" viewBox="0 0 67.59 68.96"><title>a5</title><path d="M46.51,8.27h2.32c0,.69,0,1.58-.07,2.67s-.13,2.21-.27,3.35-.3,2.22-.48,3.24a16.17,16.17,0,0,1-.55,2.36H28.74l-1.23,9.77h5.67a21.38,21.38,0,0,1,6.7,1A14.44,14.44,0,0,1,45,33.52a12.71,12.71,0,0,1,3.28,4.58,15.41,15.41,0,0,1,1.17,6.18A15.76,15.76,0,0,1,48,51.22a15.09,15.09,0,0,1-4,5.13A18.21,18.21,0,0,1,38,59.56a23.39,23.39,0,0,1-7.38,1.13,20,20,0,0,1-7.24-1.27,19.89,19.89,0,0,1-5.26-2.84L21,49.82h2c.32.32.68.73,1.09,1.23l1.3,1.57c.46.55.89,1.09,1.3,1.64l1.09,1.44a9.24,9.24,0,0,0,1.27.41,7.11,7.11,0,0,0,1.54.13,10.26,10.26,0,0,0,3.82-.71,8.66,8.66,0,0,0,3-2,9.55,9.55,0,0,0,2-3.11,10.36,10.36,0,0,0,.75-4,9.21,9.21,0,0,0-.92-4.2,8.32,8.32,0,0,0-2.5-3,10.68,10.68,0,0,0-3.69-1.74,16.58,16.58,0,0,0-4.44-.59L22.73,37,25.46,12H43.3Z"/></svg>