<svg id="Слой_1" data-name="Слой 1" xmlns="http://www.w3.org/2000/svg" viewBox="0 0 67.59 68.96"><title>a8</title><path d="M7.79,45.41c0-5.6,3.35-9.56,8.81-11.89l-.06-.2c-4.92-2.33-7-6.15-7-10,0-7,5.94-11.82,13.73-11.82,8.61,0,12.92,5.4,12.92,10.93,0,3.76-1.85,7.79-7.32,10.39V33c5.54,2.19,9,6.09,9,11.48,0,7.72-6.63,12.92-15.1,12.92C13.39,57.44,7.79,51.9,7.79,45.41Zm23.92-.27c0-5.4-3.76-8-9.78-9.7-5.19,1.5-8,4.92-8,9.15-.21,4.51,3.21,8.48,8.88,8.48C28.22,53.07,31.71,49.72,31.71,45.14ZM15.17,22.93c0,4.44,3.35,6.83,8.47,8.2,3.83-1.3,6.77-4,6.77-8.06,0-3.55-2.12-7.24-7.52-7.24C17.9,15.83,15.17,19.11,15.17,22.93Z"/></svg>