<svg id="Слой_1" data-name="Слой 1" xmlns="http://www.w3.org/2000/svg" viewBox="0 0 67.59 68.96"><title>a9</title><path d="M17.43,55.13a1.06,1.06,0,0,1-.69-.16.42.42,0,0,1-.19-.34.51.51,0,0,1,.28-.47,1.27,1.27,0,0,1,.6-.15,10,10,0,0,0,4.35-1.23,25.84,25.84,0,0,0,5-3.31,30.3,30.3,0,0,0,4.54-4.66,31.23,31.23,0,0,0,3.22-5.14,22.09,22.09,0,0,0,1.79-5.16,27.64,27.64,0,0,0,.56-5.66,14.71,14.71,0,0,0-.72-4.51,17.21,17.21,0,0,0-1.94-4.13,10.71,10.71,0,0,0-2.82-3,5.63,5.63,0,0,0-3.28-1.13,5.31,5.31,0,0,0-3.38,1.09,6.92,6.92,0,0,0-2.07,2.7A7.88,7.88,0,0,0,22,23a8.24,8.24,0,0,0,.91,3.69,8.51,8.51,0,0,0,2.41,3,5.09,5.09,0,0,0,3.13,1.16,6.12,6.12,0,0,0,2.88-.53c.63-.36,1.33-.72,2.13-1.1.16-.08.3,0,.4.19a.48.48,0,0,1,0,.5A4.5,4.5,0,0,1,33,31.13a13.31,13.31,0,0,1-1.13,1,12.11,12.11,0,0,1-1.38.81,12.51,12.51,0,0,1-2.06.88,7.32,7.32,0,0,1-2.32.38,9.52,9.52,0,0,1-7.48-3.85,6.79,6.79,0,0,1-1.28-4A10.84,10.84,0,0,1,18.24,22a14,14,0,0,1,2.66-4A13.36,13.36,0,0,1,25,15a11.94,11.94,0,0,1,5.19-1.12,8.81,8.81,0,0,1,4.42,1.22,14.15,14.15,0,0,1,3.87,3.25,16.24,16.24,0,0,1,2.73,4.6,14.32,14.32,0,0,1,1,5.26,23.37,23.37,0,0,1-1.06,7.16,25.61,25.61,0,0,1-3.07,6.29,50.71,50.71,0,0,1-4.88,6.14A20,20,0,0,1,29.44,51a28,28,0,0,1-4.19,2.32,22,22,0,0,1-4.16,1.37A17.77,17.77,0,0,1,17.43,55.13Z"/></svg>