<svg id="Слой_1" data-name="Слой 1" xmlns="http://www.w3.org/2000/svg" viewBox="0 0 400 400"><defs><style>.cls-1,.cls-2{fill:#fff;stroke:#000;stroke-width:3px;}.cls-1{stroke-miterlimit:10;}.cls-2{stroke-linecap:round;stroke-linejoin:round;}.cls-3{fill:#608b70;}.cls-4{fill:#c1362d;}</style></defs><title>g1</title><path class="cls-1" d="M370.72,381.45H34V42s119.18,96,169.76,96S370.72,42,370.72,42Z"/><path class="cls-1" d="M216.63,211.43C212,208,204.2,208.09,199,209.61c-7.42,2.19-7,6.64-16.13,12.69-8.54,5.64-11.6,3.53-19.07,8.46-8.7,5.73-8.73,11.34-14.66,18.72-2.95,3.67-13.66,14.71-30.07,18.13-9.76,2-12.5-.6-18.33,2.41-8.86,4.58-13.47,16.31-9.53,24.77,3.13,6.73,9.26,6.2,23.46,15.71,11.25,7.52,21.89,14.64,24.2,24.77,3.13,13.67-8.1,16.46-3.66,20,4,3.22,15.76,4.78,25.66-1.92,10.76-7.29,9.4-11.53,18.33-15.71,14.72-6.89,31.48-1.47,32.27-1.21,10.65,3.6,16.21,10.63,19.79,15.11,8.33,10.4,4.77,14.44,11,18.72,10.84,7.46,32.67,2.87,46.2-4.83,3.23-1.84,10.87-6.29,16.13-14.5,13.11-20.45-8.46-33.12-8.8-74.3-.12-14.27,2.37-25.64-6.6-31.42-7.53-4.85-15.42-.8-22.73-6-11.89-8.51-3.56-28.17-8.8-29.6-2.4-.65-5.66,6.74-17.6,18.13-2.88,2.75-5.74,5.23-8.8,4.83-1.74-.23-3.34-1.37-6.6-6.65C218.93,216.58,220.19,214.06,216.63,211.43Z"/><line class="cls-2" x1="199.24" y1="275.55" x2="216.64" y2="258.78"/><line class="cls-2" x1="205.77" y1="259.4" x2="217.57" y2="309.1"/><line class="cls-2" x1="199.24" y1="278.04" x2="220.98" y2="291.7"/><line class="cls-2" x1="203.9" y1="299.16" x2="218.81" y2="277.1"/><path d="M135,165.06a4.33,4.33,0,0,1-.13-1.06,4.06,4.06,0,0,1,.13-1l7.83,0a8.34,8.34,0,0,0-1.94-5.44,6.18,6.18,0,0,0-4.69-1.8,5.31,5.31,0,0,0-1.41.15,1.76,1.76,0,0,0-.73.36l-1.43,3.28h-.72c0-.23-.07-.51-.11-.83s-.07-.66-.09-1-.05-.73-.06-1.12,0-.76,0-1.11a3.26,3.26,0,0,1,1-.53,11.12,11.12,0,0,1,1.2-.34,8.83,8.83,0,0,1,1.27-.18q.66-.06,1.23-.06a12.91,12.91,0,0,1,3.89.55,7.28,7.28,0,0,1,2.89,1.73,7.45,7.45,0,0,1,1.8,3,14,14,0,0,1,.62,4.42,11.73,11.73,0,0,1-.75,4.43,8.59,8.59,0,0,1-2,3,7.91,7.91,0,0,1-2.85,1.74,9.82,9.82,0,0,1-3.32.57,16.27,16.27,0,0,1-3-.23,8.15,8.15,0,0,1-2.14-.69c0-.28,0-.63.06-1s.06-.82.1-1.24.07-.84.12-1.25.08-.79.12-1.13h.7l1.4,3.93a2.76,2.76,0,0,0,1,.2c.47,0,.93,0,1.38,0a5.8,5.8,0,0,0,2.36-.51,6,6,0,0,0,2.07-1.53,7.87,7.87,0,0,0,1.48-2.56,10.23,10.23,0,0,0,.57-3.58Z"/><path d="M152.91,173.59a.87.87,0,0,1-.36-.76c0-.57.39-.86,1.16-.86h.56c1,0,1.91-.66,2.65-2a16.5,16.5,0,0,0,1.7-4.91,29.8,29.8,0,0,0,.57-5.68,2.6,2.6,0,0,0-.53-1.82,3,3,0,0,0-2.13-.57c-.05,0-.08-.06-.08-.17s0-.16.08-.16h12.86c.05,0,.08.06.08.16s0,.17-.08.17a6.13,6.13,0,0,0-1.51.14,1,1,0,0,0-.66.53,3.09,3.09,0,0,0-.17,1.18v12.46a3.19,3.19,0,0,0,.17,1.19,1,1,0,0,0,.66.53,6.24,6.24,0,0,0,1.51.13c.05,0,.08.06.08.16s0,.17-.08.17c-.56,0-1,0-1.32,0l-1.85,0-1.91,0q-.5,0-1.32,0c-.06,0-.08-.06-.08-.17s0-.16.08-.16a6.17,6.17,0,0,0,1.52-.13.94.94,0,0,0,.64-.53,3,3,0,0,0,.18-1.19V159a4.35,4.35,0,0,0-.11-1.21.6.6,0,0,0-.48-.38,9.76,9.76,0,0,0-1.54-.08h-1.37a4,4,0,0,0-1.21.14,1,1,0,0,0-.59.57,3.71,3.71,0,0,0-.19,1.39,37.23,37.23,0,0,1-.55,6.08,19.27,19.27,0,0,1-1.88,5.84q-1.33,2.5-3.54,2.5A1.73,1.73,0,0,1,152.91,173.59Z"/><path d="M176.21,173.51a13.7,13.7,0,0,0,.79-1.8c.85-2.26,1.38-5,3-6.63a3.92,3.92,0,0,1,1.64-1V164a4.9,4.9,0,0,1-4.38-4.88,5.05,5.05,0,0,1,1.82-4,9,9,0,0,1,5.67-1.53,25.64,25.64,0,0,1,4.73.41v19.54h-2.55v-8.58h-1.88a3.71,3.71,0,0,0-2.85,1c-1.35,1.38-1.91,4.29-2.62,6.17a11.82,11.82,0,0,1-.64,1.44Zm10.72-17.75a12.79,12.79,0,0,0-2.41-.23c-2.53,0-4.67,1-4.67,3.7,0,2.38,2.11,3.76,4.9,3.76.86,0,1.68,0,2.18,0Z"/><path d="M211,173.64a1.74,1.74,0,0,1-.56-.07c-.15,0-.22-.12-.22-.23s.3-.37.89-.48a3.42,3.42,0,0,0,1.56-.62,1.67,1.67,0,0,0,.54-1.4v-12.1a2.12,2.12,0,0,0-.41-1.43,2,2,0,0,0-1.39-.54,1.48,1.48,0,0,1-.68-.2.42.42,0,0,1-.21-.33c0-.11.07-.19.21-.23a1.8,1.8,0,0,1,.57-.07h1.89l.91,0c.34,0,.63,0,.88,0l.85-.07c.31,0,.73,0,1.25,0a9.63,9.63,0,0,1,4.7.9,3.3,3.3,0,0,1,1.54,3.11,3.81,3.81,0,0,1-.31,1.6,3.27,3.27,0,0,1-.6,1,5.07,5.07,0,0,1-.78.66,6.94,6.94,0,0,1-1,.5c-.08,0-.11.06-.11.12a.16.16,0,0,0,.11.15,11.2,11.2,0,0,1,1.27.48,6,6,0,0,1,1.24.77,3.4,3.4,0,0,1,.94,1.24,4.58,4.58,0,0,1,.37,1.95,4.85,4.85,0,0,1-.48,2.34,3.86,3.86,0,0,1-1.11,1.32,12.63,12.63,0,0,1-1.21.75,7.75,7.75,0,0,1-1.94.67,12.51,12.51,0,0,1-2.64.24c-.23,0-.58,0-1-.05s-1-.05-1.51-.05-.86,0-1.19,0l-1,.07C211.94,173.63,211.5,173.64,211,173.64Zm5.54-10.11a8.35,8.35,0,0,0,1.58-.17,5.69,5.69,0,0,0,1.68-.61,2.79,2.79,0,0,0,.75-.78,3,3,0,0,0,.46-1.78,4.66,4.66,0,0,0-.3-1.6,2.78,2.78,0,0,0-1.13-1.39,4.54,4.54,0,0,0-2.5-.56,2.45,2.45,0,0,0-1.44.29,1.19,1.19,0,0,0-.33.92v4.68c0,.47.15.75.45.85A2.63,2.63,0,0,0,216.52,163.53Zm.89,9a4.66,4.66,0,0,0,2.21-.54,4.37,4.37,0,0,0,1.64-1.46,3.72,3.72,0,0,0,.62-2.09,3.8,3.8,0,0,0-.35-1.73,4.31,4.31,0,0,0-.81-1.12,3.85,3.85,0,0,0-.83-.62,5.38,5.38,0,0,0-1.11-.44,7,7,0,0,0-2-.23,1.67,1.67,0,0,0-1.2.35,1,1,0,0,0-.33.62v5.35a1.75,1.75,0,0,0,.55,1.52A2.68,2.68,0,0,0,217.41,172.51Z"/><path d="M251.51,173.33q0,.18-.12.18c-.37,0-.95,0-1.73-.06s-1.35-.06-1.7-.06-1,0-1.65.06-1.11.06-1.44.06q-.12,0-.12-.18t.12-.18a4.67,4.67,0,0,0,1.59-.2.72.72,0,0,0,.5-.71,3.65,3.65,0,0,0-.38-1.26l-3.38-7.2h-5.55l-2.53,6a4.58,4.58,0,0,0-.41,1.64c0,1.16,1,1.73,2.88,1.73.1,0,.14.06.14.18s0,.18-.14.18q-.53,0-1.53-.06c-.74,0-1.39-.06-1.94-.06s-1.1,0-1.76.06-1.08.06-1.47.06q-.15,0-.15-.18t.15-.18a2.9,2.9,0,0,0,1.4-.31,3.07,3.07,0,0,0,1.08-1.08,14.46,14.46,0,0,0,1.13-2.25l6.2-14.63a.26.26,0,0,1,.21-.08c.09,0,.15,0,.17.08l6.93,14.6a11.76,11.76,0,0,0,1.71,2.92,2.22,2.22,0,0,0,1.67.75Q251.51,173.15,251.51,173.33Zm-13.6-10.16h5l-2.64-5.58Z"/><path d="M277.5,154.46V155a4.06,4.06,0,0,0-1.3.2,1,1,0,0,0-.61.65,5.1,5.1,0,0,0-.16,1.46v13.34a5.25,5.25,0,0,0,.16,1.46,1,1,0,0,0,.61.64,5,5,0,0,0,1.3.22v.54c-.41,0-1-.06-1.69-.07l-2.29,0-2.08,0c-.71,0-1.3,0-1.76.07V173a5.11,5.11,0,0,0,1.33-.22.93.93,0,0,0,.59-.64,5.32,5.32,0,0,0,.15-1.46V157.31a2.91,2.91,0,0,0-.41-1.89,2.57,2.57,0,0,0-1.77-.42h-3.31a2.59,2.59,0,0,0-1.78.42,2.93,2.93,0,0,0-.4,1.89v13.34a4.89,4.89,0,0,0,.16,1.46,1,1,0,0,0,.61.64,4.92,4.92,0,0,0,1.3.22v.54c-.45,0-1-.06-1.72-.07l-2.13,0-2.26,0c-.69,0-1.27,0-1.72.07V173a5,5,0,0,0,1.33-.22.92.92,0,0,0,.6-.64,5.32,5.32,0,0,0,.15-1.46V157.31a5.18,5.18,0,0,0-.15-1.46,1,1,0,0,0-.6-.65,4.08,4.08,0,0,0-1.33-.2v-.54c.45,0,1,0,1.72,0s1.46,0,2.26,0c1.06,0,2.11,0,3.15,0s1.88,0,2.5,0,1.46,0,2.48,0,2.05,0,3.09,0c.81,0,1.57,0,2.29,0S277.09,154.48,277.5,154.46Z"/><path class="cls-3" d="M228.35,269.16A4.15,4.15,0,1,1,222.6,268a4.15,4.15,0,0,1,5.75,1.13"/><path class="cls-3" d="M203.51,302.71a4.15,4.15,0,1,1-5.76-1.13,4.15,4.15,0,0,1,5.76,1.13"/><polygon class="cls-4" points="194.91 280.58 190.97 281.22 188.45 278.13 189.87 274.4 193.81 273.77 196.32 276.86 194.91 280.58"/><polygon class="cls-4" points="223.17 257.91 219.24 258.55 216.72 255.46 218.13 251.73 222.07 251.1 224.59 254.19 223.17 257.91"/><polygon class="cls-4" points="229.38 297.05 225.45 297.68 222.93 294.59 224.35 290.87 228.28 290.23 230.8 293.32 229.38 297.05"/><path d="M127.43,203.59V189h-4.2v-2.53c2.8-.08,4.17-.27,5.08-2.39h2.83v19.5Z"/><path d="M140.34,204.43a.52.52,0,0,1-.3-.07.22.22,0,0,1-.08-.15.21.21,0,0,1,.12-.2.48.48,0,0,1,.26-.07,4.32,4.32,0,0,0,1.87-.52,11.29,11.29,0,0,0,2.15-1.43,12.71,12.71,0,0,0,1.95-2,13,13,0,0,0,1.38-2.21,9.59,9.59,0,0,0,.77-2.22,11.78,11.78,0,0,0,.24-2.43,6.24,6.24,0,0,0-.31-1.94,6.85,6.85,0,0,0-.83-1.77,4.74,4.74,0,0,0-1.21-1.3,2.44,2.44,0,0,0-1.41-.48,2.3,2.3,0,0,0-1.46.47,2.87,2.87,0,0,0-.88,1.16,3.35,3.35,0,0,0-.3,1.36,3.51,3.51,0,0,0,.39,1.58,3.65,3.65,0,0,0,1,1.28,2.19,2.19,0,0,0,1.34.5,2.62,2.62,0,0,0,1.24-.23c.27-.15.57-.31.91-.47.08,0,.13,0,.18.08s0,.16,0,.21a1.9,1.9,0,0,1-.4.53,5.31,5.31,0,0,1-.49.42,6.11,6.11,0,0,1-.59.35,6.46,6.46,0,0,1-.88.37,3.12,3.12,0,0,1-1,.16,3.85,3.85,0,0,1-1.79-.44,4,4,0,0,1-1.43-1.21,3,3,0,0,1-.55-1.74,4.7,4.7,0,0,1,.41-1.85,6.08,6.08,0,0,1,1.14-1.74,5.63,5.63,0,0,1,1.76-1.27,5.07,5.07,0,0,1,2.24-.49,3.81,3.81,0,0,1,1.89.53,5.93,5.93,0,0,1,1.67,1.39,7.29,7.29,0,0,1,1.17,2,6.13,6.13,0,0,1,.43,2.26,9.8,9.8,0,0,1-.46,3.08,10.78,10.78,0,0,1-1.32,2.71,22,22,0,0,1-2.09,2.63,8.58,8.58,0,0,1-1.62,1.4,12.35,12.35,0,0,1-1.8,1,9.6,9.6,0,0,1-1.79.59A8,8,0,0,1,140.34,204.43Z"/><path d="M158.63,204.43a.55.55,0,0,1-.3-.07.22.22,0,0,1-.08-.15.21.21,0,0,1,.12-.2.51.51,0,0,1,.26-.07,4.32,4.32,0,0,0,1.87-.52,11,11,0,0,0,2.15-1.43,12.71,12.71,0,0,0,1.95-2,13.11,13.11,0,0,0,1.39-2.21,9.56,9.56,0,0,0,.76-2.22,11.12,11.12,0,0,0,.25-2.43,6.55,6.55,0,0,0-.31-1.94,7.22,7.22,0,0,0-.84-1.77,4.74,4.74,0,0,0-1.21-1.3,2.42,2.42,0,0,0-1.41-.48,2.27,2.27,0,0,0-1.45.47,2.9,2.9,0,0,0-.89,1.16,3.35,3.35,0,0,0-.3,1.36,3.51,3.51,0,0,0,.39,1.58,3.65,3.65,0,0,0,1,1.28,2.19,2.19,0,0,0,1.34.5,2.62,2.62,0,0,0,1.24-.23c.27-.15.58-.31.92-.47.07,0,.13,0,.17.08a.21.21,0,0,1,0,.21,2,2,0,0,1-.41.53q-.27.25-.48.42c-.13.09-.33.2-.59.35a6.61,6.61,0,0,1-.89.37,3.12,3.12,0,0,1-1,.16,3.88,3.88,0,0,1-1.79-.44,4,4,0,0,1-1.42-1.21,2.88,2.88,0,0,1-.55-1.74,4.68,4.68,0,0,1,.4-1.85,6.08,6.08,0,0,1,1.14-1.74,5.67,5.67,0,0,1,1.77-1.27,5,5,0,0,1,2.23-.49,3.78,3.78,0,0,1,1.89.53,5.93,5.93,0,0,1,1.67,1.39,6.81,6.81,0,0,1,1.17,2,6.13,6.13,0,0,1,.43,2.26,10.1,10.1,0,0,1-.45,3.08,11.5,11.5,0,0,1-1.32,2.71,23.21,23.21,0,0,1-2.1,2.63,8.28,8.28,0,0,1-1.62,1.4,12.35,12.35,0,0,1-1.8,1,9.36,9.36,0,0,1-1.79.59A7.86,7.86,0,0,1,158.63,204.43Z"/><path d="M186.69,203.67H186l-1.11,0-1.31-.06-1.24,0-1.41,0-1.77.05-1.56,0-.85,0a.73.73,0,0,1-.31-.17c-.15-.1-.23-.2-.23-.29a.33.33,0,0,1,.08-.24c0-.06.12-.12.19-.19l4.36-4.63a13,13,0,0,0,2.19-3.12,7.79,7.79,0,0,0,.82-3.5,2.94,2.94,0,0,0-.75-2.11,2.5,2.5,0,0,0-1.89-.79,3.5,3.5,0,0,0-1.95.58,4.67,4.67,0,0,0-1.46,1.44,1.45,1.45,0,0,1-.27.29.56.56,0,0,1-.35.14c-.09,0-.18-.08-.26-.22a1.08,1.08,0,0,1-.12-.54,1.94,1.94,0,0,1,.41-1,5.72,5.72,0,0,1,1.13-1.23,6.75,6.75,0,0,1,1.72-1.05,5.47,5.47,0,0,1,2.15-.43,4.45,4.45,0,0,1,2.31.58,3.84,3.84,0,0,1,1.48,1.59,5,5,0,0,1,.51,2.3,5.13,5.13,0,0,1-.28,1.59,9.56,9.56,0,0,1-1.76,3.14c-.23.29-.57.66-1,1.11l-1.4,1.41-1.41,1.4-1.09,1.09a2.39,2.39,0,0,0-.42.48c0,.07.13.13.38.16s.69.07,1.09.08.84,0,1.3,0,1,0,1.44,0,.94,0,1.39-.08a6.6,6.6,0,0,0,1.15-.16,1.53,1.53,0,0,0,.74-.4,3.51,3.51,0,0,0,.61-.84,3.49,3.49,0,0,1,.3-.37.55.55,0,0,1,.4-.22.2.2,0,0,1,.21.14.42.42,0,0,1,0,.27,8.47,8.47,0,0,1-.27.86c-.12.36-.25.74-.37,1.14a10.22,10.22,0,0,0-.3,1.14.65.65,0,0,1-.26.5A.67.67,0,0,1,186.69,203.67Z"/><path d="M194.81,199a.14.14,0,0,1-.16-.16,3.85,3.85,0,0,1,.12-.94c.08-.33.19-.5.31-.52l2.58-.36c.86-.12,1.72-.22,2.59-.31a.33.33,0,0,1,.14,0,.13.13,0,0,1,.07.12,3.71,3.71,0,0,1-.12,1c-.08.29-.23.46-.44.5l-2.47.36C196.6,198.83,195.73,198.93,194.81,199Z"/><path d="M218.19,203.67h-.65l-1.11,0-1.31-.06-1.24,0-1.41,0-1.77.05-1.56,0-.85,0a.8.8,0,0,1-.31-.17c-.15-.1-.23-.2-.23-.29a.33.33,0,0,1,.08-.24l.19-.19,4.36-4.63a13,13,0,0,0,2.19-3.12,7.79,7.79,0,0,0,.82-3.5,2.94,2.94,0,0,0-.75-2.11,2.48,2.48,0,0,0-1.89-.79,3.53,3.53,0,0,0-1.95.58,4.67,4.67,0,0,0-1.46,1.44,1.45,1.45,0,0,1-.27.29.56.56,0,0,1-.35.14c-.09,0-.18-.08-.26-.22a1.08,1.08,0,0,1-.12-.54,1.94,1.94,0,0,1,.41-1,6,6,0,0,1,1.13-1.23,6.75,6.75,0,0,1,1.72-1.05,5.47,5.47,0,0,1,2.15-.43,4.45,4.45,0,0,1,2.31.58,3.84,3.84,0,0,1,1.48,1.59,5,5,0,0,1,.51,2.3,5.13,5.13,0,0,1-.28,1.59,9.56,9.56,0,0,1-1.76,3.14c-.23.29-.57.66-1,1.11l-1.4,1.41-1.41,1.4-1.09,1.09a2.39,2.39,0,0,0-.42.48c0,.07.13.13.38.16s.69.07,1.09.08.84,0,1.3,0,1,0,1.44,0,.94,0,1.39-.08a6.89,6.89,0,0,0,1.16-.16,1.63,1.63,0,0,0,.74-.4,3.8,3.8,0,0,0,.6-.84,3.49,3.49,0,0,1,.3-.37.55.55,0,0,1,.4-.22.2.2,0,0,1,.21.14.42.42,0,0,1,0,.27,8.47,8.47,0,0,1-.27.86c-.12.36-.25.74-.37,1.14a10.22,10.22,0,0,0-.3,1.14.65.65,0,0,1-.26.5A.67.67,0,0,1,218.19,203.67Z"/><path d="M239.24,194.27a20.45,20.45,0,0,1-.34,3.9,8.77,8.77,0,0,1-1.12,3,5.43,5.43,0,0,1-2,2,6.41,6.41,0,0,1-3.11.69,6.28,6.28,0,0,1-2.95-.62,4.87,4.87,0,0,1-1.93-1.84,8.56,8.56,0,0,1-1-3,24.4,24.4,0,0,1-.31-4.06,20.41,20.41,0,0,1,.35-3.9,9.11,9.11,0,0,1,1.12-3,5.37,5.37,0,0,1,2-2,6.29,6.29,0,0,1,3.1-.7,6.42,6.42,0,0,1,3,.62,4.87,4.87,0,0,1,1.93,1.84,8.44,8.44,0,0,1,1,3A23.49,23.49,0,0,1,239.24,194.27Zm-2.52.17c0-.93,0-1.76-.11-2.49a13.5,13.5,0,0,0-.29-1.95,6.72,6.72,0,0,0-.5-1.46,3.38,3.38,0,0,0-.74-1,2.58,2.58,0,0,0-1-.58,4,4,0,0,0-1.24-.18,3.13,3.13,0,0,0-2,.58,3.77,3.77,0,0,0-1.2,1.57,8.57,8.57,0,0,0-.6,2.36,26.18,26.18,0,0,0-.15,2.89,25.3,25.3,0,0,0,.21,3.54,8,8,0,0,0,.68,2.37,3.15,3.15,0,0,0,1.19,1.34,3.58,3.58,0,0,0,1.76.41,3.41,3.41,0,0,0,1.41-.26,2.88,2.88,0,0,0,1-.73,4.33,4.33,0,0,0,.73-1.16,7.88,7.88,0,0,0,.45-1.49,11.82,11.82,0,0,0,.24-1.77C236.69,195.79,236.72,195.13,236.72,194.44Z"/><path d="M259.5,181.42h1q0,.44,0,1.14t-.12,1.44c-.06.49-.13,1-.21,1.4a7.9,7.9,0,0,1-.23,1h-8.05l-.53,4.2h2.44a9,9,0,0,1,2.88.43,6.13,6.13,0,0,1,2.2,1.23,5.39,5.39,0,0,1,1.41,2,6.7,6.7,0,0,1,.5,2.65,6.84,6.84,0,0,1-.63,3,6.53,6.53,0,0,1-1.72,2.2,7.69,7.69,0,0,1-2.56,1.38,10.08,10.08,0,0,1-3.17.48,8.9,8.9,0,0,1-5.37-1.76l1.23-2.91h.85a6.93,6.93,0,0,1,.47.53l.56.68c.2.23.38.47.56.7s.33.44.47.62a3.79,3.79,0,0,0,.54.18,3,3,0,0,0,.66.06,4.48,4.48,0,0,0,1.65-.31,3.81,3.81,0,0,0,1.3-.87,4,4,0,0,0,.87-1.34,4.34,4.34,0,0,0,.32-1.71,4,4,0,0,0-.39-1.81,3.62,3.62,0,0,0-1.07-1.28,4.87,4.87,0,0,0-1.59-.75,7.46,7.46,0,0,0-1.91-.25l-2.55,0L250.45,183h7.67Z"/><path d="M282,181.42h1c0,.29,0,.67,0,1.14s-.06.95-.12,1.44-.13,1-.21,1.4a7.9,7.9,0,0,1-.23,1h-8.05l-.53,4.2h2.44a9,9,0,0,1,2.88.43,6.13,6.13,0,0,1,2.2,1.23,5.39,5.39,0,0,1,1.41,2,6.7,6.7,0,0,1,.5,2.65,6.84,6.84,0,0,1-.63,3,6.53,6.53,0,0,1-1.72,2.2,7.79,7.79,0,0,1-2.56,1.38,10.12,10.12,0,0,1-3.17.48,8.64,8.64,0,0,1-3.11-.54,8.45,8.45,0,0,1-2.26-1.22l1.23-2.91h.85a6.93,6.93,0,0,1,.47.53l.56.68c.2.23.38.47.56.7s.33.44.47.62a3.42,3.42,0,0,0,.54.18,3,3,0,0,0,.66.06,4.48,4.48,0,0,0,1.65-.31,3.81,3.81,0,0,0,1.3-.87,4,4,0,0,0,.87-1.34,4.34,4.34,0,0,0,.32-1.71,4,4,0,0,0-.39-1.81,3.54,3.54,0,0,0-1.08-1.28,4.82,4.82,0,0,0-1.58-.75,7.46,7.46,0,0,0-1.91-.25l-2.56,0L272.92,183h7.67Z"/></svg>