<svg id="Слой_1" data-name="Слой 1" xmlns="http://www.w3.org/2000/svg" viewBox="0 0 400 400"><defs><style>.cls-1,.cls-2{fill:#fff;stroke:#000;stroke-width:3px;}.cls-1{stroke-miterlimit:10;}.cls-2{stroke-linecap:round;stroke-linejoin:round;}.cls-3{fill:#608b70;}.cls-4{fill:#b8ad99;}.cls-5{fill:#c1362d;}</style></defs><title>g15</title><path class="cls-1" d="M350.92,391H67.4s-50.12-252.15,0-306.3,239-59.56,283.52,0S350.92,391,350.92,391Z"/><path class="cls-1" d="M213.34,201.92c-4.83-3.66-13-3.58-18.36-1.94-7.75,2.35-7.29,7.11-16.84,13.59-8.91,6.05-12.1,3.79-19.89,9.06-9.08,6.14-9.12,12.15-15.31,20.06-3.07,3.93-14.25,15.75-31.37,19.42-10.19,2.18-13-.64-19.13,2.59-9.25,4.9-14.07,17.47-10,26.53,3.27,7.21,9.66,6.64,24.49,16.83,11.73,8.05,22.83,15.68,25.25,26.53,3.26,14.65-8.46,17.64-3.83,21.47,4.19,3.46,16.46,5.13,26.79-2.06,11.22-7.8,9.81-12.35,19.13-16.82,15.36-7.38,32.85-1.58,33.67-1.3,11.12,3.86,16.92,11.39,20.66,16.18,8.69,11.15,5,15.47,11.48,20.07,11.31,8,34.09,3.07,48.21-5.18,3.37-2,11.34-6.74,16.83-15.53,13.69-21.92-8.83-35.49-9.18-79.6-.12-15.29,2.47-27.47-6.89-33.66-7.85-5.19-16.09-.86-23.72-6.47-12.41-9.12-3.72-30.18-9.18-31.71-2.51-.7-5.91,7.22-18.37,19.42-3,2.94-6,5.61-9.18,5.17-1.82-.25-3.49-1.47-6.89-7.12C215.75,207.45,217.07,204.74,213.34,201.92Z"/><path class="cls-2" d="M275.34,338.15a5.93,5.93,0,0,1-9.79,6.68"/><path class="cls-2" d="M255.47,276.44a6.64,6.64,0,0,1-12.73-2.31"/><path class="cls-2" d="M242.74,258.29A6.65,6.65,0,0,1,255.48,256"/><path class="cls-2" d="M164.64,256.64a17.69,17.69,0,0,1,16.28-7.83c8.7.85,13,8,13.46,8.77"/><path class="cls-2" d="M194.07,261.88a17.69,17.69,0,0,1-16.28,7.83c-8.7-.84-13-8-13.46-8.77"/><path class="cls-1" d="M199.8,259a20.34,20.34,0,1,1-20.33-20.34A20.34,20.34,0,0,1,199.8,259Z"/><path class="cls-1" d="M157.65,289.6a17.14,17.14,0,0,1,11.78,5.25,16.68,16.68,0,0,1,5.19,11.73,18,18,0,0,1-4.26,11.23"/><path class="cls-1" d="M157.64,323.55c-8.37-.2-13.16-6.46-13.75-7.28a16.61,16.61,0,0,1,.48-20.28"/><rect class="cls-1" x="231.44" y="247.89" width="36.83" height="36.83"/><path class="cls-2" d="M290,323.21c3.94,5.94-2.78,17.32-15,25.42s-25.33,9.85-29.26,3.91,2.78-17.32,15-25.42S286.08,317.27,290,323.21Z"/><line class="cls-2" x1="218.11" y1="238.62" x2="208.62" y2="328.02"/><path class="cls-3" d="M275.7,329.41a4.93,4.93,0,1,1-6.85-1.29,4.92,4.92,0,0,1,6.85,1.29"/><polygon class="cls-4" points="259.24 337.22 259.45 333.88 261.23 336.71 263.54 334.29 263.09 337.6 266.41 337.23 263.93 339.48 266.72 341.33 263.38 341.45 264.32 344.67 261.68 342.61 260.34 345.68 259.63 342.41 256.63 343.9 258.2 340.94 254.94 340.15 258.04 338.89 256.06 336.19 259.24 337.22"/><path d="M275.32,338.17s0,0,0,0h0s0,0,0,0h0"/><path d="M265.57,344.82s0,0,0,0a0,0,0,0,0,0,0h0s0,0,0,0"/><path class="cls-3" d="M261.94,266.24a5.55,5.55,0,1,1-5.54-5.54,5.54,5.54,0,0,1,5.54,5.54"/><polygon class="cls-4" points="241.71 263.06 244.02 260.09 243.88 263.85 247.56 263.06 245.03 265.85 248.36 267.61 244.63 268.13 246.05 271.62 242.86 269.61 241.71 273.2 240.55 269.61 237.36 271.62 238.78 268.13 235.05 267.61 238.38 265.85 235.85 263.06 239.53 263.85 239.4 260.09 241.71 263.06"/><path d="M253,275.9a2.54,2.54,0,1,1,1.79,3.1,2.54,2.54,0,0,1-1.79-3.1"/><path d="M242.76,274.12l0,0a0,0,0,0,0,0,0l0,0s0,0,0,0"/><path d="M253,256.48a2.54,2.54,0,1,0,1.81-3.1,2.53,2.53,0,0,0-1.81,3.1"/><polygon class="cls-4" points="179.52 254.86 182.42 251.14 182.24 255.85 186.85 254.86 183.69 258.36 187.86 260.56 183.19 261.2 184.96 265.57 180.97 263.06 179.52 267.55 178.08 263.06 174.09 265.57 175.86 261.2 171.19 260.56 175.36 258.36 172.2 254.86 176.8 255.85 176.63 251.14 179.52 254.86"/><path d="M171,312.2a.34.34,0,0,1,.28.39l-.8,5.1,5-1.43a.34.34,0,0,1,.42.23.35.35,0,0,1-.23.42l-5.48,1.57a.3.3,0,0,1-.31-.07.31.31,0,0,1-.11-.3l.88-5.63a.34.34,0,0,1,.08-.17.35.35,0,0,1,.31-.11"/><polygon points="157.62 323.52 157.61 323.53 157.64 323.55 157.61 323.57 157.61 323.58 157.65 323.55 157.62 323.52"/><path d="M143.94,301.62a.33.33,0,0,1-.29-.38l.63-5.13-4.92,1.6a.34.34,0,0,1-.2-.65l5.41-1.75a.34.34,0,0,1,.44.36l-.69,5.65a.37.37,0,0,1-.08.18.36.36,0,0,1-.3.12"/><polygon class="cls-4" points="151.9 303.77 153.84 301.26 153.73 304.43 156.83 303.77 154.7 306.12 157.5 307.6 154.36 308.04 155.56 310.97 152.87 309.29 151.9 312.3 150.92 309.29 148.24 310.97 149.43 308.04 146.29 307.6 149.09 306.12 146.97 303.77 150.07 304.43 149.95 301.26 151.9 303.77"/><polygon class="cls-5" points="166.38 302.21 168.9 306.59 166.38 310.97 161.32 310.97 158.79 306.59 161.32 302.21 166.38 302.21"/><path d="M117,145.57h-6.7v-.79a10.69,10.69,0,0,1,1.09-.36l1.11-.29V131.87l.11-3.19h-.22l-.9,2.92-5.58,14h-.71l-5.31-14-1-3.19h-.25l0,3.46v12.26a9.77,9.77,0,0,1,1,.27c.35.11.69.24,1,.38v.79H95v-.79q.52-.21,1.08-.39a11,11,0,0,1,1.13-.29V128a8.92,8.92,0,0,1-1.13-.29,11.07,11.07,0,0,1-1.1-.39v-.79h5.58L105.34,139l.93,2.81h0l.92-2.86,4.91-12.4H117v.79a9.56,9.56,0,0,1-1,.39,7.92,7.92,0,0,1-1.06.29v16.19a9.87,9.87,0,0,1,1.07.26,7.45,7.45,0,0,1,1,.36Z"/><path d="M129.35,145.57h-6v-.79a10.72,10.72,0,0,1,2-.65l6.9-18H133l6.89,18c.36.07.72.15,1.08.25a3.88,3.88,0,0,1,1,.4v.79h-7v-.79c.36-.14.74-.27,1.12-.38s.75-.2,1.12-.27l-1.85-5h-6.48l-1.78,5a10.29,10.29,0,0,1,2.34.65Zm0-7.84h5.47L132.67,132l-.51-2.34h-.06l-.68,2.39Z"/><path d="M153,144.13a8.36,8.36,0,0,1,1.39.26q.66.18,1.23.39v.79h-7.47v-.79a5.37,5.37,0,0,1,1.12-.4c.38-.1.75-.18,1.12-.25V128a8.14,8.14,0,0,1-1.18-.29,10.38,10.38,0,0,1-1.06-.39v-.79h2.45c.73,0,1.52,0,2.38-.11s1.67-.11,2.45-.11a11.93,11.93,0,0,1,2.61.29,6.32,6.32,0,0,1,2.28,1,5.05,5.05,0,0,1,1.61,1.81,5.83,5.83,0,0,1,.61,2.82,5.62,5.62,0,0,1-.63,2.75,5.4,5.4,0,0,1-1.67,1.88,7.33,7.33,0,0,1-2.39,1.08,11.44,11.44,0,0,1-2.75.34h-.42l-.62,0-.62,0-.44,0Zm1.86-16.43c-.44,0-.8,0-1.07,0a5.17,5.17,0,0,0-.79.1v8.83a1.2,1.2,0,0,0,.4.07l.54,0,.56,0h.44a6.27,6.27,0,0,0,1.8-.26,3.94,3.94,0,0,0,1.48-.83,4,4,0,0,0,1-1.44,5.15,5.15,0,0,0,.38-2.1,4.24,4.24,0,0,0-1.26-3.35A5.11,5.11,0,0,0,154.86,127.7Z"/><path d="M176.74,145.57h-6.9v-.79a8.56,8.56,0,0,1,2.24-.65V128l-1.12-.3a11.35,11.35,0,0,1-1.12-.38v-.79h6.9v.79a6.46,6.46,0,0,1-.93.38,10.5,10.5,0,0,1-1.12.3V139.8l-.3,2,1.31-2.16,8-11.08V128c-.41-.09-.81-.19-1.18-.31a10,10,0,0,1-1-.36v-.78h6.92v.79a7.76,7.76,0,0,1-1.06.38c-.39.11-.78.21-1.18.3v16.16a9.27,9.27,0,0,1,2.24.65v.79h-6.92v-.79c.29-.12.61-.25,1-.36a7.33,7.33,0,0,1,1.12-.29v-11.8l.27-2-1.2,2-8.09,11.2v.6a9.74,9.74,0,0,1,1.18.27,7.67,7.67,0,0,1,1,.38Z"/><path d="M211.18,126.5v.79a8.23,8.23,0,0,1-1,.37A10,10,0,0,1,209,128v16.16a7.11,7.11,0,0,1,2.23.65v.79H204v-.79a7.6,7.6,0,0,1,2.37-.65v-6.57h-2.75c-.4.66-.76,1.3-1.08,1.94s-.64,1.26-1,1.88-.67,1.21-1,1.8a15,15,0,0,1-1.26,1.71l-.92.68h-3.44v-.68l1.31-.65q.87-.93,1.56-1.83c.45-.6.87-1.18,1.25-1.74s.75-1.12,1.1-1.66.72-1.08,1.08-1.61a6.94,6.94,0,0,1-1.53-.68,5.14,5.14,0,0,1-1.28-1.09,5.36,5.36,0,0,1-.87-1.54,5.8,5.8,0,0,1-.33-2,4.85,4.85,0,0,1,.66-2.58,5.39,5.39,0,0,1,1.71-1.75,7.58,7.58,0,0,1,2.42-1,11.91,11.91,0,0,1,2.73-.31c.37,0,.82,0,1.35,0s1.09,0,1.65,0Zm-6.73,9.86c.33,0,.66,0,1,0a3.41,3.41,0,0,0,.87-.15V128a3.9,3.9,0,0,0-.78-.11l-.88,0a5.21,5.21,0,0,0-3.34,1,3.89,3.89,0,0,0-1.24,3.23,4.4,4.4,0,0,0,1.08,3.17A4.29,4.29,0,0,0,204.45,136.36Z"/><path d="M241.54,124.72v1.78c4.23.18,8.45,2.74,8.45,9.05s-4.22,8.71-8.48,8.95v1.88H239V144.5c-4.19-.26-8.45-2.5-8.45-8.83,0-6.58,4.64-8.93,8.51-9.17v-1.78Zm-2.5,3.66c-2.62.14-5.8,2-5.8,7.17,0,4.79,2.86,6.81,5.8,7.11Zm2.47,14.28c2.89-.24,5.8-2.17,5.8-7.14,0-5.15-2.91-7-5.8-7.14Z"/><path d="M265.51,126.28v.55a4.11,4.11,0,0,0-1.36.2,1,1,0,0,0-.63.65,5.34,5.34,0,0,0-.16,1.49v13.52a5.33,5.33,0,0,0,.16,1.47,1,1,0,0,0,.63.65,5.38,5.38,0,0,0,1.36.22v.54q-.64,0-1.65-.06l-2,0-2.13,0c-.67,0-1.21,0-1.63.06V145a5.66,5.66,0,0,0,1.38-.22,1,1,0,0,0,.63-.65,5.41,5.41,0,0,0,.15-1.47V129.17a5.42,5.42,0,0,0-.15-1.49,1,1,0,0,0-.63-.65,4.29,4.29,0,0,0-1.38-.2v-.55l1.63.06,2.13,0,2,0Zm7.2,1.69q0,.57,0,1.17l-10.3,15.45,0-1Zm4.79-1.69v.55a4.11,4.11,0,0,0-1.36.2,1,1,0,0,0-.63.65,5.34,5.34,0,0,0-.16,1.49v13.52a5.33,5.33,0,0,0,.16,1.47,1,1,0,0,0,.63.65,5.38,5.38,0,0,0,1.36.22v.54c-.4,0-.93,0-1.6-.06l-2.16,0-2,0q-1,0-1.68.06V145a5.48,5.48,0,0,0,1.37-.22,1,1,0,0,0,.62-.65,4.91,4.91,0,0,0,.17-1.47V129.17a4.92,4.92,0,0,0-.17-1.49,1,1,0,0,0-.62-.65,4.18,4.18,0,0,0-1.37-.2v-.55l1.68.06,2,0,2.16,0Z"/><path d="M285.32,145.71a1.85,1.85,0,0,1-.57-.07c-.14,0-.22-.12-.22-.23s.3-.38.9-.49a3.57,3.57,0,0,0,1.58-.63,1.68,1.68,0,0,0,.55-1.41V130.61a2.15,2.15,0,0,0-.41-1.44,2,2,0,0,0-1.42-.54,1.6,1.6,0,0,1-.68-.21.43.43,0,0,1-.22-.34c0-.11.08-.19.22-.23a1.85,1.85,0,0,1,.57-.07h1.92l.92,0c.34,0,.64,0,.9,0l.85-.07c.32,0,.75,0,1.27,0a9.83,9.83,0,0,1,4.76.91,3.35,3.35,0,0,1,1.56,3.15,3.87,3.87,0,0,1-.31,1.62,3.41,3.41,0,0,1-.61,1,5.08,5.08,0,0,1-.79.66,5.58,5.58,0,0,1-1,.51c-.07,0-.11.06-.11.12a.16.16,0,0,0,.11.15,11.72,11.72,0,0,1,1.3.49,5.66,5.66,0,0,1,1.25.78,3.46,3.46,0,0,1,.95,1.25,4.57,4.57,0,0,1,.37,2,4.93,4.93,0,0,1-.48,2.37,3.66,3.66,0,0,1-1.13,1.33,10.44,10.44,0,0,1-1.22.77,8.5,8.5,0,0,1-2,.68,13,13,0,0,1-2.68.24c-.23,0-.59,0-1.06-.05s-1-.06-1.52-.06-.88,0-1.2,0l-1,.07C286.29,145.7,285.85,145.71,285.32,145.71Zm5.62-10.25a8.4,8.4,0,0,0,1.59-.16,5.77,5.77,0,0,0,1.7-.63,2.71,2.71,0,0,0,.77-.79,2.94,2.94,0,0,0,.46-1.79,4.82,4.82,0,0,0-.3-1.63,2.88,2.88,0,0,0-1.14-1.4,4.59,4.59,0,0,0-2.54-.57,2.41,2.41,0,0,0-1.46.3,1.19,1.19,0,0,0-.34.92v4.75c0,.47.16.75.47.85A2.35,2.35,0,0,0,290.94,135.46Zm.9,9.11a4.75,4.75,0,0,0,2.23-.55,4.48,4.48,0,0,0,1.66-1.48,3.72,3.72,0,0,0,.63-2.12,3.92,3.92,0,0,0-.35-1.75,4,4,0,0,0-.82-1.13,3.76,3.76,0,0,0-.85-.63,4.62,4.62,0,0,0-1.11-.45,6.88,6.88,0,0,0-2-.23,1.71,1.71,0,0,0-1.22.35,1,1,0,0,0-.34.63v5.42a1.79,1.79,0,0,0,.56,1.54A2.78,2.78,0,0,0,291.84,144.57Z"/><path d="M326.38,145.4c0,.11,0,.17-.12.17-.38,0-1,0-1.76-.06s-1.37,0-1.72,0-1,0-1.67,0-1.12.06-1.46.06c-.08,0-.12-.06-.12-.17s0-.18.12-.18a4.51,4.51,0,0,0,1.61-.21.73.73,0,0,0,.51-.72,3.54,3.54,0,0,0-.39-1.27L318,135.73h-5.63l-2.56,6.07a4.72,4.72,0,0,0-.41,1.66c0,1.17,1,1.76,2.91,1.76q.15,0,.15.18c0,.11-.05.17-.15.17-.35,0-.87,0-1.54-.06s-1.41,0-2,0-1.11,0-1.78,0-1.09.06-1.49.06c-.1,0-.15-.06-.15-.17s.05-.18.15-.18a2.88,2.88,0,0,0,1.41-.32,3,3,0,0,0,1.1-1.1,14.17,14.17,0,0,0,1.15-2.27l6.28-14.82a.23.23,0,0,1,.21-.09c.09,0,.15,0,.17.09l7,14.79a12.17,12.17,0,0,0,1.72,3,2.28,2.28,0,0,0,1.7.76Q326.38,145.22,326.38,145.4ZM312.6,135.1h5.06L315,129.45Z"/><path d="M133.28,171.17V156.4H129v-2.57c2.83-.08,4.22-.27,5.15-2.42H137v19.76Z"/><path d="M146.36,172a.44.44,0,0,1-.3-.07.17.17,0,0,1-.08-.15.21.21,0,0,1,.12-.2.48.48,0,0,1,.26-.07,4.46,4.46,0,0,0,1.89-.53,11.53,11.53,0,0,0,2.18-1.44,13.56,13.56,0,0,0,2-2,13.39,13.39,0,0,0,1.4-2.24,10.17,10.17,0,0,0,.78-2.25,12.08,12.08,0,0,0,.24-2.46,6.32,6.32,0,0,0-.31-2,7.1,7.1,0,0,0-.85-1.8,4.67,4.67,0,0,0-1.22-1.31A2.45,2.45,0,0,0,151,155a2.31,2.31,0,0,0-1.48.48,3,3,0,0,0-.89,1.17,3.43,3.43,0,0,0-.3,1.37,3.6,3.6,0,0,0,.39,1.61,3.52,3.52,0,0,0,1,1.29,2.2,2.2,0,0,0,1.36.51,2.72,2.72,0,0,0,1.26-.23c.27-.16.58-.32.92-.48.08,0,.13,0,.18.08a.2.2,0,0,1,0,.22,1.77,1.77,0,0,1-.41.53,4.11,4.11,0,0,1-.49.42,4,4,0,0,1-.6.36,6.61,6.61,0,0,1-.89.38,3.18,3.18,0,0,1-1,.16,4.16,4.16,0,0,1-3.26-1.67,3,3,0,0,1-.56-1.76,4.8,4.8,0,0,1,.41-1.88,6,6,0,0,1,1.16-1.76,5.77,5.77,0,0,1,1.78-1.29,5.2,5.2,0,0,1,2.27-.49,3.82,3.82,0,0,1,1.92.53,6.27,6.27,0,0,1,1.69,1.42,6.9,6.9,0,0,1,1.18,2,6.25,6.25,0,0,1,.44,2.29,10.1,10.1,0,0,1-.47,3.12,11,11,0,0,1-1.33,2.74,21.8,21.8,0,0,1-2.13,2.67,8.74,8.74,0,0,1-1.63,1.41,11.81,11.81,0,0,1-1.83,1,9.59,9.59,0,0,1-1.81.6A7.43,7.43,0,0,1,146.36,172Z"/><path d="M164.89,172a.44.44,0,0,1-.3-.07.17.17,0,0,1-.08-.15.21.21,0,0,1,.12-.2.48.48,0,0,1,.26-.07,4.46,4.46,0,0,0,1.89-.53,11.53,11.53,0,0,0,2.18-1.44,13.56,13.56,0,0,0,2-2,13.39,13.39,0,0,0,1.4-2.24,10.17,10.17,0,0,0,.78-2.25,12.08,12.08,0,0,0,.24-2.46,6.32,6.32,0,0,0-.31-2,7.1,7.1,0,0,0-.85-1.8A4.67,4.67,0,0,0,171,155.5a2.45,2.45,0,0,0-1.43-.49,2.29,2.29,0,0,0-1.48.48,3,3,0,0,0-.89,1.17,3.43,3.43,0,0,0-.3,1.37,3.6,3.6,0,0,0,.39,1.61,3.52,3.52,0,0,0,1,1.29,2.2,2.2,0,0,0,1.36.51,2.72,2.72,0,0,0,1.26-.23c.27-.16.58-.32.92-.48.08,0,.13,0,.18.08s.05.17,0,.22a1.77,1.77,0,0,1-.41.53,4.11,4.11,0,0,1-.49.42,4,4,0,0,1-.6.36,6.61,6.61,0,0,1-.89.38,3.18,3.18,0,0,1-1,.16,4.12,4.12,0,0,1-3.26-1.67,3,3,0,0,1-.56-1.76,4.8,4.8,0,0,1,.41-1.88,6,6,0,0,1,1.16-1.76,5.77,5.77,0,0,1,1.78-1.29,5.2,5.2,0,0,1,2.27-.49,3.82,3.82,0,0,1,1.92.53,6.27,6.27,0,0,1,1.69,1.42,6.9,6.9,0,0,1,1.18,2,6.25,6.25,0,0,1,.44,2.29,10.1,10.1,0,0,1-.47,3.12,11,11,0,0,1-1.33,2.74,21.8,21.8,0,0,1-2.13,2.67,8.74,8.74,0,0,1-1.63,1.41,11.81,11.81,0,0,1-1.83,1,9.59,9.59,0,0,1-1.81.6A7.43,7.43,0,0,1,164.89,172Z"/><path d="M188.18,171.55a5.39,5.39,0,0,1-2.35-.53,4.66,4.66,0,0,1-1.79-1.49,3.7,3.7,0,0,1-.68-2.2,3.33,3.33,0,0,1,.63-2.05,5.78,5.78,0,0,1,1.48-1.4c.58-.37,1.09-.69,1.54-.94.13-.07.18-.13.14-.17l-.22-.19-1.54-1.35a5.37,5.37,0,0,1-1.17-1.44,3.93,3.93,0,0,1-.45-1.95,2.92,2.92,0,0,1,.74-1.93,5.13,5.13,0,0,1,1.88-1.39,5.53,5.53,0,0,1,2.34-.52,5,5,0,0,1,2.08.45,4.12,4.12,0,0,1,1.63,1.27,3.12,3.12,0,0,1,.62,1.93,2.46,2.46,0,0,1-.49,1.6,8.74,8.74,0,0,1-.95,1l-.68.56-.77.58c-.23.17-.35.28-.35.34s.07.14.22.23a22,22,0,0,1,1.82,1.39,5.78,5.78,0,0,1,1.24,1.47,3.71,3.71,0,0,1,.45,1.86,4.17,4.17,0,0,1-.79,2.51,5.65,5.65,0,0,1-2,1.71A5.58,5.58,0,0,1,188.18,171.55Zm.39-.79a2.6,2.6,0,0,0,2-.89,3,3,0,0,0,.8-2.08,3.07,3.07,0,0,0-.47-1.61,7,7,0,0,0-1.22-1.43,14.14,14.14,0,0,0-1.52-1.21,2.86,2.86,0,0,0-.29-.21.59.59,0,0,0-.26-.07.66.66,0,0,0-.32.17,5.51,5.51,0,0,0-1.31,1.43,4,4,0,0,0-.44,2,4.83,4.83,0,0,0,.36,1.84,3.66,3.66,0,0,0,1,1.46A2.48,2.48,0,0,0,188.57,170.76Zm.87-9.35a3.72,3.72,0,0,0,1.24-1.74,7.76,7.76,0,0,0,.28-2.21,3.32,3.32,0,0,0-.58-2,2,2,0,0,0-1.79-.84,2.51,2.51,0,0,0-1.25.36,3.08,3.08,0,0,0-1.05,1,2.29,2.29,0,0,0-.42,1.34,3,3,0,0,0,.39,1.63,4.38,4.38,0,0,0,1.12,1.11q.72.5,1.68,1.29a.67.67,0,0,0,.19.1A.21.21,0,0,0,189.44,161.41Z"/><path d="M201.07,166.53a.14.14,0,0,1-.16-.16,3.93,3.93,0,0,1,.12-1c.08-.33.19-.5.32-.52l2.61-.37c.87-.12,1.75-.22,2.62-.31a.28.28,0,0,1,.15,0,.15.15,0,0,1,.07.12,3.35,3.35,0,0,1-.13,1c-.08.3-.23.47-.45.5l-2.49.37C202.89,166.34,202,166.44,201.07,166.53Z"/><path d="M224.75,171.25h-.65l-1.13-.05-1.32-.05-1.26,0-1.43,0-1.8,0-1.58,0h-.85a.74.74,0,0,1-.32-.16c-.15-.11-.23-.21-.23-.3a.37.37,0,0,1,.08-.25,1.69,1.69,0,0,0,.19-.19l4.42-4.68a13.37,13.37,0,0,0,2.22-3.17,7.93,7.93,0,0,0,.83-3.54,3,3,0,0,0-.76-2.14,2.55,2.55,0,0,0-1.91-.8,3.53,3.53,0,0,0-2,.59,4.88,4.88,0,0,0-1.48,1.45,1.93,1.93,0,0,1-.27.3.56.56,0,0,1-.36.14c-.09,0-.18-.07-.26-.22a1.11,1.11,0,0,1-.12-.54,2,2,0,0,1,.41-1,6.09,6.09,0,0,1,1.14-1.24,6.69,6.69,0,0,1,1.75-1.06,5.44,5.44,0,0,1,2.18-.44,4.47,4.47,0,0,1,2.34.59,3.92,3.92,0,0,1,1.5,1.6,5.09,5.09,0,0,1,.23,3.94,9.07,9.07,0,0,1-.75,1.69,9.67,9.67,0,0,1-1,1.5c-.24.29-.58.66-1,1.12l-1.41,1.43-1.43,1.41q-.69.67-1.11,1.11a2.28,2.28,0,0,0-.42.49c0,.07.13.12.38.16s.7.07,1.11.08.84,0,1.32,0,1,0,1.46,0,.94,0,1.4-.08a8.07,8.07,0,0,0,1.17-.16,1.63,1.63,0,0,0,.75-.41,3.51,3.51,0,0,0,.61-.84,3.45,3.45,0,0,1,.3-.39.57.57,0,0,1,.41-.21.21.21,0,0,1,.22.13.63.63,0,0,1,0,.27c-.06.22-.15.51-.28.88s-.25.74-.38,1.15a10.49,10.49,0,0,0-.3,1.16.65.65,0,0,1-.26.51A.7.7,0,0,1,224.75,171.25Z"/><path d="M246.08,161.72a21.89,21.89,0,0,1-.34,4,9.08,9.08,0,0,1-1.14,3.07,5.56,5.56,0,0,1-2.07,2,7.42,7.42,0,0,1-6.14.07,4.84,4.84,0,0,1-1.95-1.86,8.59,8.59,0,0,1-1.05-3,24,24,0,0,1-.32-4.12,20.84,20.84,0,0,1,.35-3.94,9.19,9.19,0,0,1,1.14-3.08,5.46,5.46,0,0,1,2.06-2,7.38,7.38,0,0,1,6.14-.08,5,5,0,0,1,2,1.86,8.45,8.45,0,0,1,1,3A23.82,23.82,0,0,1,246.08,161.72Zm-2.56.18c0-.94,0-1.78-.1-2.53a16,16,0,0,0-.3-2,6.3,6.3,0,0,0-.51-1.47,3.65,3.65,0,0,0-.75-1,2.75,2.75,0,0,0-1-.58,4.08,4.08,0,0,0-1.26-.18,3.21,3.21,0,0,0-2,.58,3.91,3.91,0,0,0-1.22,1.6,8.72,8.72,0,0,0-.6,2.38,24.6,24.6,0,0,0-.16,2.94,24.29,24.29,0,0,0,.22,3.58,7.62,7.62,0,0,0,.69,2.4,3.09,3.09,0,0,0,1.21,1.35,3.49,3.49,0,0,0,1.77.42,3.59,3.59,0,0,0,1.44-.26,2.93,2.93,0,0,0,1.06-.75,4.09,4.09,0,0,0,.73-1.16,8,8,0,0,0,.46-1.52,11.92,11.92,0,0,0,.24-1.79C243.5,163.27,243.52,162.6,243.52,161.9Z"/><path d="M264.78,171.25h-.66l-1.13-.05-1.32-.05-1.25,0-1.43,0-1.8,0-1.58,0h-.86a.67.67,0,0,1-.31-.16q-.24-.17-.24-.3a.33.33,0,0,1,.09-.25l.19-.19,4.41-4.68a12.82,12.82,0,0,0,2.22-3.17,7.8,7.8,0,0,0,.83-3.54,3,3,0,0,0-.76-2.14,2.54,2.54,0,0,0-1.91-.8,3.48,3.48,0,0,0-2,.59,4.91,4.91,0,0,0-1.49,1.45,1.27,1.27,0,0,1-.27.3.56.56,0,0,1-.36.14c-.09,0-.17-.07-.25-.22a1,1,0,0,1-.13-.54,2,2,0,0,1,.41-1,6.17,6.17,0,0,1,1.15-1.24,6.79,6.79,0,0,1,1.74-1.06,5.44,5.44,0,0,1,2.18-.44,4.47,4.47,0,0,1,2.34.59,3.79,3.79,0,0,1,1.5,1.6,5.06,5.06,0,0,1,.52,2.33,5.23,5.23,0,0,1-.29,1.61,10,10,0,0,1-1.78,3.19c-.24.29-.58.66-1,1.12l-1.42,1.43-1.43,1.41-1.1,1.11a2.18,2.18,0,0,0-.43.49c0,.07.13.12.39.16s.69.07,1.1.08.85,0,1.32,0,1,0,1.46,0,.95,0,1.4-.08a8.07,8.07,0,0,0,1.17-.16,1.63,1.63,0,0,0,.75-.41,3.52,3.52,0,0,0,.62-.84,3.45,3.45,0,0,1,.3-.39.53.53,0,0,1,.4-.21.21.21,0,0,1,.22.13.42.42,0,0,1,0,.27c-.06.22-.15.51-.27.88s-.26.74-.38,1.15a10.49,10.49,0,0,0-.3,1.16.71.71,0,0,1-.26.51A.73.73,0,0,1,264.78,171.25Z"/><path d="M276.3,171.17V156.4h-4.25v-2.57c2.84-.08,4.23-.27,5.15-2.42h2.86v19.76Z"/></svg>