<svg id="Слой_1" data-name="Слой 1" xmlns="http://www.w3.org/2000/svg" viewBox="0 0 400 400"><defs><style>.cls-1,.cls-2,.cls-3{fill:#fff;}.cls-1,.cls-2{stroke:#000;stroke-width:3px;}.cls-1{stroke-miterlimit:10;}.cls-2{stroke-linecap:round;stroke-linejoin:round;}.cls-4{fill:#c1362d;}</style></defs><title>g17</title><path class="cls-1" d="M374.5,386.84H39V42s118.78,97.52,169.19,97.52S374.5,42,374.5,42Z"/><path class="cls-1" d="M227.52,280.38c0,10.92-3.53,19.77-7.88,19.77s-7.87-8.85-7.87-19.77,3.53-19.77,7.87-19.77S227.52,269.46,227.52,280.38Z"/><line class="cls-2" x1="255.79" y1="252.52" x2="255.79" y2="296.67"/><path class="cls-1" d="M146.08,223.84c8.59-3.41,12.89-5.11,18-4.69,16.34,1.34,19.3,17.87,38.47,22.52,4.11,1,10.51.5,23.3-.48,21.61-1.67,24-4.6,35.33-4.19,8.62.31,27.27,1,34.8,12.23,9.54,14.26-8.24,31.46,1.86,48.32,7,11.73,20.29,11.24,20.25,18.58,0,7.51-14,16.36-26.46,15.23-10.48-.95-13-8.29-22.66-9.89-6.81-1.13-17.11.58-31.65,14.47,8.27,21.85,8.16,28.67,5.8,30.11-5.53,3.36-20.32-24.86-49-29.21-14.78-2.25-27.66,2.71-32.71,5-22.61,10.23-29.2,30.64-34.82,28.36-5.78-2.34-4.33-26.08-.88-42.3,2.55-12,6.92-23.34,1.1-30.25-2.49-3-5-3-7-6.76-3.56-6.76,1.89-11.84-.36-17.26-4-9.54-25.77-5.91-27-11.53-.68-3.1,5.54-5.93,17.84-14.19C130.87,234.08,132.42,229.26,146.08,223.84Z"/><path class="cls-3" d="M227.52,280.38c0,10.92-3.53,19.77-7.88,19.77s-7.87-8.85-7.87-19.77,3.53-19.77,7.87-19.77,7.88,8.85,7.88,19.77"/><line class="cls-2" x1="176.28" y1="287.5" x2="143.42" y2="335.39"/><path class="cls-2" d="M143.05,241.61a11.9,11.9,0,0,1,12.49-.45c5.27,3.16,5.6,9.23,5.62,9.75,0,.75.13,6.62-4,9.27a42.31,42.31,0,0,1-5.78,2.5c-6.18,2.4-10,4-12.23,8.1a12.44,12.44,0,0,0-1,8.45,12.06,12.06,0,0,0,9.36,9.28,11.11,11.11,0,0,0,6.19-.42c5.77-2.12,7.23-8,7.34-8.52.17-.74,1.2-5.64-1.91-9.48a10.2,10.2,0,0,0-2.95-2.45"/><path class="cls-2" d="M188.25,305.89a29.45,29.45,0,0,1,10.94-19.8,29,29,0,0,1,18.34-5.92"/><line class="cls-2" x1="244.01" y1="269.43" x2="266.91" y2="269.43"/><path d="M184.08,169.51a4.48,4.48,0,0,1,1.43,3.35,5.08,5.08,0,0,1-.8,2.79,5.75,5.75,0,0,1-2.19,1.95,6.74,6.74,0,0,1-3.1.71q-.93,0-2-.09l-1-.05q-.55,0-1.26,0l-2,0-1.48,0c-.06,0-.09-.05-.09-.17s0-.18.09-.18a5,5,0,0,0,1.5-.16,1.07,1.07,0,0,0,.68-.56,3,3,0,0,0,.21-1.29V162.34a3.34,3.34,0,0,0-.19-1.28,1.05,1.05,0,0,0-.67-.56,5,5,0,0,0-1.5-.17s-.06-.05-.06-.17,0-.17.06-.17l1.45,0q1.29.06,2,.06c.53,0,1.1,0,1.72-.08l.78-.06c.3,0,.62,0,1,0a6.08,6.08,0,0,1,3.82,1,3.37,3.37,0,0,1,1.31,2.78,3.89,3.89,0,0,1-.9,2.52,5.61,5.61,0,0,1-2.54,1.71A6,6,0,0,1,184.08,169.51Zm-7.07-9a1,1,0,0,0-.52.57,3.78,3.78,0,0,0-.16,1.29v5.54l1.28,0a3.64,3.64,0,0,0,2.89-1.11,4.29,4.29,0,0,0,1-2.91,3.84,3.84,0,0,0-.83-2.61,3.24,3.24,0,0,0-2.55-1A3,3,0,0,0,177,160.54Zm5,16.11a4.37,4.37,0,0,0,1-3.09,5.08,5.08,0,0,0-1.22-3.55,4.54,4.54,0,0,0-3.47-1.37,18.69,18.69,0,0,0-2,.06v7.13a2.63,2.63,0,0,0,.2,1.13,1.29,1.29,0,0,0,.76.58,5.33,5.33,0,0,0,1.66.19A4,4,0,0,0,182,176.65Z"/><path d="M193.49,178.33a1.21,1.21,0,0,1-.54-.1.29.29,0,0,1-.21-.28.39.39,0,0,1,.21-.34,3,3,0,0,1,.59-.27,4.32,4.32,0,0,0,1.31-.64,3,3,0,0,0,1-1.31c.48-1.08.92-2.12,1.33-3.11s.8-2,1.18-2.92l1.14-3c.39-1,.79-2.11,1.2-3.27a9,9,0,0,0,.35-1,3.77,3.77,0,0,0,.13-.73c.24-.06.45-.11.65-.18a3.31,3.31,0,0,0,.63-.28,1.12,1.12,0,0,0,.5-.46,2.87,2.87,0,0,1,.28-.44.34.34,0,0,1,.12,0s.08,0,.12.09a1.48,1.48,0,0,1,.12.29l.09.35c.41,1.3.83,2.62,1.27,4l1.29,3.94c.43,1.28.83,2.47,1.21,3.56s.69,2,1,2.87a3.85,3.85,0,0,0,.69,1.35,2.81,2.81,0,0,0,.85.69,4,4,0,0,0,1,.33,1.55,1.55,0,0,1,.6.24.5.5,0,0,1,.2.38c0,.1-.07.18-.2.22a1.41,1.41,0,0,1-.49.07c-.29,0-.66,0-1.12,0l-1.44-.07-1.37,0H206l-1.16,0-.94,0a1.25,1.25,0,0,1-.52-.09.28.28,0,0,1-.2-.26.39.39,0,0,1,.24-.34,1.76,1.76,0,0,1,.56-.19,3.21,3.21,0,0,0,1.32-.48.86.86,0,0,0,.33-.85,6.88,6.88,0,0,0-.19-1.14c-.1-.45-.23-.93-.37-1.44s-.28-1-.4-1.4a.38.38,0,0,0-.19-.27,1.54,1.54,0,0,0-.45,0h-4.94a.36.36,0,0,0-.24.09,1.13,1.13,0,0,0-.21.36c-.05.22-.14.49-.25.82s-.23.67-.34,1-.2.7-.28,1a4.52,4.52,0,0,0-.14.68,1.15,1.15,0,0,0,.33,1.06,3.05,3.05,0,0,0,1.24.6c.53.14.8.32.8.53a.25.25,0,0,1-.2.25,1.52,1.52,0,0,1-.52.07l-1.17,0-1.42,0a14.71,14.71,0,0,0-1.65.08C194.47,178.3,194,178.33,193.49,178.33Zm6.32-7.71h3.9c.25,0,.37-.05.37-.14a.53.53,0,0,0,0-.13,1.23,1.23,0,0,1,0-.16l-2-6.32c-.09-.29-.16-.43-.21-.43s-.1.13-.19.4l-2.32,6.35a.7.7,0,0,0-.05.21.18.18,0,0,0,.14.18A2,2,0,0,0,199.81,170.62Z"/><path d="M226.79,158.93a6.89,6.89,0,0,1,2.89.52,10.2,10.2,0,0,1,2,1.21c.35.27.62.3.81.1a2.79,2.79,0,0,0,.39-1.46h.61c0,.66-.06,1.46-.08,2.4s0,2.19,0,3.74h-.61c-.12-.77-.24-1.37-.35-1.83a5.64,5.64,0,0,0-.38-1.16,5,5,0,0,0-.6-1,4.77,4.77,0,0,0-2.08-1.59,7.17,7.17,0,0,0-2.65-.49,4.46,4.46,0,0,0-2.36.65,5.73,5.73,0,0,0-1.81,1.88,10.07,10.07,0,0,0-1.18,3,17.08,17.08,0,0,0-.41,3.89,15.64,15.64,0,0,0,.45,4,9.34,9.34,0,0,0,1.27,2.9,5.55,5.55,0,0,0,1.92,1.77,5,5,0,0,0,2.39.6,7.27,7.27,0,0,0,2.51-.48,4.16,4.16,0,0,0,2.05-1.54,4.69,4.69,0,0,0,.82-1.68,20.43,20.43,0,0,0,.41-2.54h.61c0,1.62,0,2.92,0,3.91s0,1.82.08,2.49h-.61a3,3,0,0,0-.36-1.44c-.17-.19-.45-.17-.84.08a13.69,13.69,0,0,1-2.1,1.22,6.8,6.8,0,0,1-2.84.52,8.39,8.39,0,0,1-4.44-1.15,7.65,7.65,0,0,1-3-3.31,11.65,11.65,0,0,1-1.06-5.2,11.78,11.78,0,0,1,1.1-5.23,8.59,8.59,0,0,1,3-3.5A7.84,7.84,0,0,1,226.79,158.93Z"/><path d="M253,168.78l0,.45h-2.88a1.72,1.72,0,0,0-1.3.49,3.49,3.49,0,0,0-.73,1.34,13.31,13.31,0,0,0-.45,2l-.48,2.67a3.25,3.25,0,0,1-1.23,2.26,4.19,4.19,0,0,1-2.35.62,4.92,4.92,0,0,1-2-.36,4.11,4.11,0,0,1-1.52-1.19l.37-.32a2.64,2.64,0,0,0,.49.44,1.11,1.11,0,0,0,.58.17.87.87,0,0,0,.77-.42,4.84,4.84,0,0,0,.48-1.5l.56-2.75a3.55,3.55,0,0,1,1.57-2.45,9,9,0,0,1,3.53-1c.33-.05.67-.1,1-.13l1.35-.12Q251.63,168.83,253,168.78Zm5.26-9.48v.54a3.59,3.59,0,0,0-1.28.2.92.92,0,0,0-.57.64,5.1,5.1,0,0,0-.15,1.45v13.24a5.16,5.16,0,0,0,.15,1.44.9.9,0,0,0,.57.64,4.73,4.73,0,0,0,1.28.21v.53q-.68,0-1.8-.06l-2.42,0-2.21,0c-.75,0-1.35,0-1.82.06v-.53a4.8,4.8,0,0,0,1.27-.21.93.93,0,0,0,.59-.64,5.16,5.16,0,0,0,.15-1.44V162.13a3.72,3.72,0,0,0-.31-1.84,1.58,1.58,0,0,0-1.35-.45,2.83,2.83,0,0,0-2.56,1.14,5.86,5.86,0,0,0-.75,3.21,8.17,8.17,0,0,0,.3,2.28,2.92,2.92,0,0,0,1.12,1.62,4,4,0,0,0,2.4.61h2.29v.53h-2.56a13.14,13.14,0,0,1-4.88-.72,4.76,4.76,0,0,1-2.42-1.9,4.9,4.9,0,0,1-.68-2.48,4.06,4.06,0,0,1,1.83-3.55,10,10,0,0,1,5.56-1.25l1.7,0,2.49,0,2.26,0Z"/><polygon class="cls-4" points="149.59 247.91 147.75 246.04 150.34 246.48 150.13 243.86 151.83 245.86 153.35 243.72 153.37 246.35 155.92 245.68 154.24 247.71 156.61 248.84 154.03 249.31 155.12 251.7 152.84 250.4 152.14 252.93 151.22 250.47 149.06 251.96 149.94 249.49 147.33 249.24 149.59 247.91"/><polygon class="cls-4" points="143.08 252.51 147.15 253.34 148.47 257.28 145.72 260.39 141.65 259.57 140.33 255.63 143.08 252.51"/><path d="M142.6,205.35H142l-1.11,0-1.29-.06-1.23,0-1.4,0-1.76,0-1.55,0h-.84a.72.72,0,0,1-.31-.16c-.15-.1-.22-.2-.22-.29a.29.29,0,0,1,.08-.24l.18-.19,4.33-4.59a12.74,12.74,0,0,0,2.17-3.09,7.79,7.79,0,0,0,.81-3.47,2.93,2.93,0,0,0-.74-2.1,2.48,2.48,0,0,0-1.87-.78,3.51,3.51,0,0,0-1.93.57,4.75,4.75,0,0,0-1.46,1.43,1.45,1.45,0,0,1-.27.29.5.5,0,0,1-.34.13c-.09,0-.18-.07-.26-.21a1.07,1.07,0,0,1-.12-.53,2,2,0,0,1,.4-1,6.15,6.15,0,0,1,1.12-1.21,6.56,6.56,0,0,1,1.71-1,5.25,5.25,0,0,1,2.14-.43,4.4,4.4,0,0,1,2.29.57,3.86,3.86,0,0,1,1.47,1.58,4.94,4.94,0,0,1,.51,2.28,5.27,5.27,0,0,1-.28,1.57,9.79,9.79,0,0,1-.74,1.66,9.68,9.68,0,0,1-1,1.46c-.23.29-.57.65-1,1.1l-1.39,1.4-1.4,1.39q-.68.65-1.08,1.08a1.91,1.91,0,0,0-.41.48c0,.07.12.12.37.16l1.08.08c.4,0,.83,0,1.29,0s1,0,1.43,0l1.38-.08a7.57,7.57,0,0,0,1.14-.16,1.67,1.67,0,0,0,.74-.4,3.71,3.71,0,0,0,.6-.83,3.51,3.51,0,0,1,.29-.37.55.55,0,0,1,.4-.22.2.2,0,0,1,.21.14.4.4,0,0,1,0,.26,7.75,7.75,0,0,1-.27.86c-.12.35-.25.73-.37,1.13s-.22.78-.29,1.14a.63.63,0,0,1-.26.49A.67.67,0,0,1,142.6,205.35Z"/><path d="M163.48,196a20.84,20.84,0,0,1-.33,3.87,9.15,9.15,0,0,1-1.11,3,5.49,5.49,0,0,1-2,1.95,7.23,7.23,0,0,1-6,.07,4.86,4.86,0,0,1-1.92-1.82,8.73,8.73,0,0,1-1-3,24.1,24.1,0,0,1-.3-4,20,20,0,0,1,.34-3.86,9.13,9.13,0,0,1,1.11-3,5.32,5.32,0,0,1,2-1.95,7.23,7.23,0,0,1,6-.07,4.77,4.77,0,0,1,1.91,1.82,8.32,8.32,0,0,1,1,3A23.09,23.09,0,0,1,163.48,196Zm-2.5.17c0-.92,0-1.74-.1-2.47a15,15,0,0,0-.3-1.94,6.06,6.06,0,0,0-.49-1.44,3.52,3.52,0,0,0-.74-1,2.57,2.57,0,0,0-1-.57,4.3,4.3,0,0,0-1.23-.17,3.15,3.15,0,0,0-2,.57,3.72,3.72,0,0,0-1.19,1.56,8,8,0,0,0-.59,2.33,23.69,23.69,0,0,0-.16,2.88,24.79,24.79,0,0,0,.21,3.5,7.92,7.92,0,0,0,.68,2.36,3,3,0,0,0,1.18,1.32,3.4,3.4,0,0,0,1.74.41,3.62,3.62,0,0,0,1.41-.25,2.92,2.92,0,0,0,1-.74,3.83,3.83,0,0,0,.72-1.14,8.57,8.57,0,0,0,.46-1.48,13,13,0,0,0,.23-1.76C161,197.53,161,196.88,161,196.19Z"/><path d="M184.07,196a20.84,20.84,0,0,1-.33,3.87,8.73,8.73,0,0,1-1.11,3,5.42,5.42,0,0,1-2,1.95,7.23,7.23,0,0,1-6,.07,4.77,4.77,0,0,1-1.91-1.82,8.52,8.52,0,0,1-1-3,23,23,0,0,1-.31-4,20.84,20.84,0,0,1,.34-3.86,9.13,9.13,0,0,1,1.11-3,5.39,5.39,0,0,1,2-1.95,7.23,7.23,0,0,1,6-.07,4.79,4.79,0,0,1,1.92,1.82,8.73,8.73,0,0,1,1,3A24.18,24.18,0,0,1,184.07,196Zm-2.5.17c0-.92,0-1.74-.1-2.47a15.14,15.14,0,0,0-.29-1.94,6.53,6.53,0,0,0-.5-1.44,3.49,3.49,0,0,0-.73-1,2.69,2.69,0,0,0-1-.57,4.2,4.2,0,0,0-1.23-.17,3.17,3.17,0,0,0-2,.57,3.8,3.8,0,0,0-1.19,1.56,8.36,8.36,0,0,0-.59,2.33,26,26,0,0,0-.15,2.88,24.79,24.79,0,0,0,.21,3.5,7.93,7.93,0,0,0,.67,2.36,3,3,0,0,0,1.19,1.32,3.37,3.37,0,0,0,1.74.41,3.57,3.57,0,0,0,1.4-.25,3,3,0,0,0,1-.74,3.83,3.83,0,0,0,.72-1.14,7.78,7.78,0,0,0,.45-1.48,14.68,14.68,0,0,0,.24-1.76C181.55,197.53,181.57,196.88,181.57,196.19Z"/><path d="M204.67,196a20,20,0,0,1-.34,3.87,8.73,8.73,0,0,1-1.11,3,5.39,5.39,0,0,1-2,1.95,6.36,6.36,0,0,1-3.09.69,6.28,6.28,0,0,1-2.92-.62,4.79,4.79,0,0,1-1.92-1.82,8.73,8.73,0,0,1-1-3,24.1,24.1,0,0,1-.3-4,20,20,0,0,1,.34-3.86,8.7,8.7,0,0,1,1.11-3,5.32,5.32,0,0,1,2-1.95,7.23,7.23,0,0,1,6-.07,4.77,4.77,0,0,1,1.91,1.82,8.52,8.52,0,0,1,1,3A23.09,23.09,0,0,1,204.67,196Zm-2.51.17c0-.92,0-1.74-.1-2.47a13.56,13.56,0,0,0-.29-1.94,6,6,0,0,0-.5-1.44,3.32,3.32,0,0,0-.73-1,2.65,2.65,0,0,0-1-.57,4.3,4.3,0,0,0-1.23-.17,3.2,3.2,0,0,0-2,.57,3.78,3.78,0,0,0-1.18,1.56,8,8,0,0,0-.59,2.33,23.69,23.69,0,0,0-.16,2.88,24.79,24.79,0,0,0,.21,3.5,7.63,7.63,0,0,0,.68,2.36,3,3,0,0,0,1.18,1.32,3.4,3.4,0,0,0,1.74.41,3.57,3.57,0,0,0,1.4-.25,2.87,2.87,0,0,0,1-.74,3.83,3.83,0,0,0,.72-1.14,8.57,8.57,0,0,0,.46-1.48,13,13,0,0,0,.23-1.76C202.14,197.53,202.16,196.88,202.16,196.19Z"/><path d="M212.44,200.73a.14.14,0,0,1-.16-.16,3.83,3.83,0,0,1,.12-.93c.08-.32.18-.49.31-.51l2.56-.36c.85-.11,1.7-.22,2.56-.31a.33.33,0,0,1,.14,0,.14.14,0,0,1,.07.13,3.56,3.56,0,0,1-.12.94c-.08.3-.23.46-.44.5l-2.44.36C214.21,200.54,213.34,200.64,212.44,200.73Z"/><path d="M235.63,205.35H235l-1.1,0-1.3-.06-1.22,0-1.4,0-1.77,0-1.54,0h-.84a.67.67,0,0,1-.31-.16c-.15-.1-.23-.2-.23-.29a.33.33,0,0,1,.08-.24l.19-.19,4.32-4.59a12.78,12.78,0,0,0,2.18-3.09,7.79,7.79,0,0,0,.81-3.47,2.94,2.94,0,0,0-.75-2.1,2.48,2.48,0,0,0-1.86-.78,3.54,3.54,0,0,0-1.94.57,4.71,4.71,0,0,0-1.45,1.43,1.45,1.45,0,0,1-.27.29.53.53,0,0,1-.35.13c-.09,0-.17-.07-.25-.21a1.07,1.07,0,0,1-.12-.53,1.9,1.9,0,0,1,.4-1,6.15,6.15,0,0,1,1.12-1.21,6.56,6.56,0,0,1,1.71-1,5.23,5.23,0,0,1,2.13-.43,4.43,4.43,0,0,1,2.3.57,3.77,3.77,0,0,1,1.46,1.58,5,5,0,0,1,.23,3.85,9.21,9.21,0,0,1-1.75,3.12c-.23.29-.56.65-1,1.1l-1.38,1.4-1.41,1.39q-.66.65-1.08,1.08a2.22,2.22,0,0,0-.41.48c0,.07.12.12.37.16l1.08.08c.41,0,.84,0,1.3,0s.95,0,1.43,0l1.37-.08a7.94,7.94,0,0,0,1.15-.16,1.63,1.63,0,0,0,.73-.4,3.18,3.18,0,0,0,.6-.83,2.71,2.71,0,0,1,.3-.37.53.53,0,0,1,.4-.22.22.22,0,0,1,.21.14.48.48,0,0,1,0,.26c-.06.22-.15.5-.27.86s-.25.73-.37,1.13a9.68,9.68,0,0,0-.3,1.14.63.63,0,0,1-.25.49A.7.7,0,0,1,235.63,205.35Z"/><path d="M256.51,196a20.8,20.8,0,0,1-.34,3.87,8.73,8.73,0,0,1-1.11,3,5.39,5.39,0,0,1-2,1.95,7.25,7.25,0,0,1-6,.07,4.77,4.77,0,0,1-1.91-1.82,8.52,8.52,0,0,1-1-3,24,24,0,0,1-.31-4,20,20,0,0,1,.35-3.86,8.7,8.7,0,0,1,1.11-3,5.32,5.32,0,0,1,2-1.95,6.25,6.25,0,0,1,3.07-.69,6.39,6.39,0,0,1,2.94.62,4.77,4.77,0,0,1,1.91,1.82,8.52,8.52,0,0,1,1,3A24.11,24.11,0,0,1,256.51,196Zm-2.51.17c0-.92,0-1.74-.1-2.47a13.56,13.56,0,0,0-.29-1.94,6,6,0,0,0-.5-1.44,3.32,3.32,0,0,0-.73-1,2.65,2.65,0,0,0-1-.57,4.3,4.3,0,0,0-1.23-.17,3.18,3.18,0,0,0-2,.57,3.8,3.8,0,0,0-1.19,1.56,8.72,8.72,0,0,0-.59,2.33,26,26,0,0,0-.15,2.88,24.79,24.79,0,0,0,.21,3.5,7.63,7.63,0,0,0,.68,2.36,3,3,0,0,0,1.18,1.32,3.4,3.4,0,0,0,1.74.41,3.57,3.57,0,0,0,1.4-.25,3,3,0,0,0,1-.74,3.83,3.83,0,0,0,.72-1.14,7.78,7.78,0,0,0,.45-1.48,11.51,11.51,0,0,0,.24-1.76C254,197.53,254,196.88,254,196.19Z"/><path d="M267.45,191.34h-1q-.18-.43-.39-1c-.15-.38-.3-.79-.45-1.22s-.31-.85-.44-1.27a11.37,11.37,0,0,1-.32-1.15,9.32,9.32,0,0,1,2.6-1.51,10.31,10.31,0,0,1,3.87-.64,8.42,8.42,0,0,1,2.76.4,5.36,5.36,0,0,1,1.94,1.14,4.68,4.68,0,0,1,1.14,1.69,5.85,5.85,0,0,1,.36,2.07,7.3,7.3,0,0,1-.81,3.36,15.9,15.9,0,0,1-2,3,25.87,25.87,0,0,1-2.57,2.56l-2.47,2.14-1.52,1V202l1.78-.18h5l1.43-3.26h1c.06.47.12,1,.19,1.63s.13,1.25.19,1.88.1,1.23.14,1.81.06,1,.06,1.38H264.6v-1.86l1.71-1.56c.65-.6,1.3-1.25,2-2s1.31-1.46,2-2.25a24.07,24.07,0,0,0,1.72-2.44,13.22,13.22,0,0,0,1.21-2.52,7.51,7.51,0,0,0,.45-2.5,3.89,3.89,0,0,0-.86-2.61,3,3,0,0,0-2.43-1,6,6,0,0,0-.89.05,6.56,6.56,0,0,0-.89.21Z"/><path d="M287.42,206.1a.49.49,0,0,1-.29-.07.18.18,0,0,1-.09-.15.21.21,0,0,1,.13-.2.54.54,0,0,1,.25-.06,4.39,4.39,0,0,0,1.85-.52,10.86,10.86,0,0,0,2.14-1.42,12.53,12.53,0,0,0,1.93-2,13.07,13.07,0,0,0,1.38-2.18,10,10,0,0,0,.76-2.21,11.59,11.59,0,0,0,.24-2.41,6.42,6.42,0,0,0-.31-1.92,7,7,0,0,0-.83-1.76,4.35,4.35,0,0,0-1.2-1.28,2.39,2.39,0,0,0-1.4-.48,2.24,2.24,0,0,0-1.44.46,3,3,0,0,0-.88,1.15,3.29,3.29,0,0,0-.29,1.35,3.69,3.69,0,0,0,1.41,2.84,2.15,2.15,0,0,0,1.34.49,2.55,2.55,0,0,0,1.22-.22c.27-.15.57-.31.91-.47.07,0,.13,0,.17.08a.21.21,0,0,1,0,.21,1.91,1.91,0,0,1-.4.52q-.27.25-.48.42a5.67,5.67,0,0,1-.59.34,5.42,5.42,0,0,1-.88.38,3.31,3.31,0,0,1-1,.16,3.89,3.89,0,0,1-1.77-.44,4,4,0,0,1-1.42-1.2,2.9,2.9,0,0,1-.54-1.72,4.56,4.56,0,0,1,.4-1.84,5.8,5.8,0,0,1,1.13-1.73,5.72,5.72,0,0,1,1.75-1.26,5.07,5.07,0,0,1,2.21-.48,3.74,3.74,0,0,1,1.88.52,6,6,0,0,1,1.66,1.38,7.15,7.15,0,0,1,1.16,2,6.24,6.24,0,0,1,.43,2.25,9.9,9.9,0,0,1-.46,3.05,10.73,10.73,0,0,1-1.31,2.68,21.06,21.06,0,0,1-2.08,2.62,8.83,8.83,0,0,1-1.6,1.39,10.83,10.83,0,0,1-1.79,1,8.55,8.55,0,0,1-1.77.59A7.86,7.86,0,0,1,287.42,206.1Z"/></svg>