<svg id="Слой_1" data-name="Слой 1" xmlns="http://www.w3.org/2000/svg" viewBox="0 0 400 400"><defs><style>.cls-1,.cls-2{fill:#fff;stroke:#000;stroke-width:3px;}.cls-1{stroke-miterlimit:10;}.cls-2{stroke-linecap:round;stroke-linejoin:round;}.cls-3{font-size:34.43px;font-family:Cormorant-Regular, Cormorant;letter-spacing:0.2em;}.cls-4{font-size:31.53px;font-family:PlayfairDisplay-SemiBold, Playfair Display;font-weight:700;letter-spacing:0.2em;}.cls-5{font-family:Consolas, Consolas;}.cls-6{fill:#b8ad99;}.cls-7{fill:#608b70;}</style></defs><title>g2</title><path class="cls-1" d="M352.13,381.45H50.07s-53.4-244.36,0-296.84,254.6-57.72,302.06,0S352.13,381.45,352.13,381.45Z"/><path class="cls-1" d="M214.8,155.11c-5.7-4.31-15.3-4.22-21.67-2.29-9.14,2.77-8.6,8.4-19.87,16-10.52,7.14-14.28,4.47-23.48,10.7-10.72,7.24-10.76,14.34-18.06,23.67-3.64,4.64-16.82,18.59-37,22.92-12,2.57-15.39-.75-22.58,3C61.19,235,55.51,249.82,60.37,260.52c3.86,8.51,11.4,7.84,28.9,19.86,13.84,9.51,27,18.51,29.8,31.32,3.85,17.29-10,20.82-4.51,25.33,4.93,4.09,19.41,6.06,31.6-2.42,13.26-9.21,11.59-14.58,22.58-19.86,18.14-8.71,38.78-1.86,39.74-1.53,13.13,4.55,20,13.44,24.39,19.1,10.26,13.15,5.87,18.26,13.55,23.68,13.34,9.42,40.23,3.62,56.9-6.11,4-2.33,13.38-8,19.87-18.34,16.15-25.86-10.43-41.88-10.84-93.94-.15-18.05,2.92-32.42-8.13-39.72-9.27-6.13-19-1-28-7.64-14.65-10.77-4.39-35.62-10.84-37.43-2.95-.83-7,8.52-21.67,22.92-3.55,3.47-7.07,6.62-10.84,6.11-2.14-.29-4.12-1.74-8.13-8.4C217.64,161.64,219.2,158.44,214.8,155.11Z"/><polyline class="cls-1" points="204.38 274.43 195.13 255.39 185.87 274.43"/><path class="cls-2" d="M229.3,268.72c-.36-7.17,1.62-10,3.29-11.26,5.53-4.26,15.25,2.56,20.18-1.88,2.23-2,2.42-5.4,2.34-7.51"/><path class="cls-2" d="M227.9,244.32c1.07,2.31,3,5.57,6.57,7,5.71,2.38,10.35-2.13,15-.47,3.07,1.09,6.63,5,8,18.3"/><path class="cls-2" d="M238.22,270.13c4-2.06,5.5-4.38,6.1-6.1,2.39-6.88-5.93-13.1-3.75-20.65a12.45,12.45,0,0,1,5.16-6.57"/><polygon class="cls-1" points="117.08 271.34 140.7 229.25 163.37 271.34 117.08 271.34"/><text class="cls-3" transform="translate(163.18 102.82)">С<tspan class="cls-4" x="29.92" y="0">Я</tspan><tspan class="cls-5" x="57.76" y="0">О</tspan></text><polygon class="cls-6" points="193.12 233.54 195.24 227 197.34 233.54 203.16 229.9 200.57 236.26 207.38 237.21 201.3 240.42 205.9 245.52 199.19 244.07 199.43 250.94 195.22 245.51 190.99 250.93 191.25 244.06 184.53 245.5 189.15 240.4 183.08 237.18 189.88 236.25 187.3 229.88 193.12 233.54"/><path class="cls-7" d="M251.53,242.54a3.13,3.13,0,1,1-4.35-.85,3.14,3.14,0,0,1,4.35.85"/><path class="cls-7" d="M150,258.21a10,10,0,1,1-10-10,10,10,0,0,1,10,10"/><polygon points="149.03 298.63 149.03 298.64 149.06 298.67 149.03 298.69 149.03 298.7 149.07 298.67 149.03 298.63"/><path d="M109.58,137.42v-17.1h-4.92v-3c3.28-.1,4.89-.32,6-2.81h3.31v22.87Z"/><path d="M124.71,138.4a.54.54,0,0,1-.34-.08.22.22,0,0,1-.1-.18.25.25,0,0,1,.14-.23.67.67,0,0,1,.3-.08,5.17,5.17,0,0,0,2.2-.62,12.76,12.76,0,0,0,2.52-1.67,14.48,14.48,0,0,0,2.28-2.35,15,15,0,0,0,1.63-2.58,11.29,11.29,0,0,0,.9-2.6,13.81,13.81,0,0,0,.28-2.86,7.52,7.52,0,0,0-.36-2.27,8.64,8.64,0,0,0-1-2.08,5.43,5.43,0,0,0-1.42-1.51,2.84,2.84,0,0,0-1.65-.57,2.64,2.64,0,0,0-1.71.55,3.47,3.47,0,0,0-1,1.36,4,4,0,0,0-.34,1.59,4.17,4.17,0,0,0,.45,1.86,4.29,4.29,0,0,0,1.22,1.5,2.53,2.53,0,0,0,1.57.58,3,3,0,0,0,1.45-.27c.32-.17.68-.36,1.08-.55.08,0,.15,0,.2.1a.25.25,0,0,1,0,.25,2.38,2.38,0,0,1-.48.61,6.71,6.71,0,0,1-.56.49,6.26,6.26,0,0,1-.7.41,5.81,5.81,0,0,1-1,.44,3.59,3.59,0,0,1-1.17.19,4.52,4.52,0,0,1-2.09-.52,4.44,4.44,0,0,1-1.67-1.42,3.39,3.39,0,0,1-.65-2,5.64,5.64,0,0,1,.47-2.18,7.15,7.15,0,0,1,1.34-2,6.79,6.79,0,0,1,2.07-1.5,6,6,0,0,1,2.62-.57,4.5,4.5,0,0,1,2.22.62,7.19,7.19,0,0,1,1.95,1.64,8.2,8.2,0,0,1,1.38,2.32,7.33,7.33,0,0,1,.5,2.65,11.62,11.62,0,0,1-.54,3.61,12.49,12.49,0,0,1-1.54,3.16,24.84,24.84,0,0,1-2.46,3.1,10.5,10.5,0,0,1-1.89,1.64,14.2,14.2,0,0,1-2.11,1.16,11,11,0,0,1-2.1.7A9.35,9.35,0,0,1,124.71,138.4Z"/><path d="M145.32,131.74c0-2.82,1.68-4.82,4.44-6l0-.1a5.54,5.54,0,0,1-3.54-5c0-3.55,3-6,6.92-6,4.33,0,6.5,2.71,6.5,5.5,0,1.9-.93,3.93-3.68,5.24v.1c2.79,1.1,4.51,3.06,4.51,5.78,0,3.89-3.34,6.51-7.61,6.51C148.14,137.8,145.32,135,145.32,131.74Zm12.05-.14c0-2.72-1.9-4-4.93-4.89-2.61.76-4,2.48-4,4.62s1.61,4.26,4.47,4.26S157.37,133.91,157.37,131.6ZM149,120.41c0,2.24,1.69,3.45,4.27,4.13,1.93-.65,3.41-2,3.41-4.06a3.48,3.48,0,0,0-3.79-3.65A3.56,3.56,0,0,0,149,120.41Z"/><path d="M169.86,131.74c0-2.82,1.69-4.82,4.44-6l0-.1a5.55,5.55,0,0,1-3.55-5c0-3.55,3-6,6.92-6,4.34,0,6.51,2.71,6.51,5.5,0,1.9-.93,3.93-3.68,5.24v.1c2.79,1.1,4.51,3.06,4.51,5.78,0,3.89-3.34,6.51-7.61,6.51C172.69,137.8,169.86,135,169.86,131.74Zm12-.14c0-2.72-1.89-4-4.92-4.89-2.62.76-4,2.48-4,4.62s1.62,4.26,4.48,4.26S181.91,133.91,181.91,131.6Zm-8.33-11.19c0,2.24,1.69,3.45,4.27,4.13,1.93-.65,3.41-2,3.41-4.06a3.48,3.48,0,0,0-3.79-3.65A3.56,3.56,0,0,0,173.58,120.41Z"/><path d="M194.24,132.06a.17.17,0,0,1-.19-.19,4.22,4.22,0,0,1,.15-1.1q.13-.57.36-.6l3-.43q1.51-.21,3-.36a.31.31,0,0,1,.18.05.14.14,0,0,1,.07.14,4,4,0,0,1-.14,1.12c-.09.34-.27.54-.52.58l-2.88.43C196.34,131.83,195.31,132,194.24,132.06Z"/><path d="M221.64,137.51h-.75l-1.31-.05-1.53-.06-1.45,0-1.66,0-2.08,0-1.83,0h-1a.86.86,0,0,1-.36-.19c-.18-.12-.27-.24-.27-.34a.42.42,0,0,1,.09-.29l.22-.22,5.11-5.42a14.83,14.83,0,0,0,2.57-3.66,9.18,9.18,0,0,0,1-4.1,3.43,3.43,0,0,0-.88-2.47,2.91,2.91,0,0,0-2.21-.93,4.13,4.13,0,0,0-2.28.67,5.78,5.78,0,0,0-1.72,1.69,1.5,1.5,0,0,1-.32.35.63.63,0,0,1-.41.15c-.1,0-.2-.08-.29-.25a1.22,1.22,0,0,1-.15-.63,2.29,2.29,0,0,1,.48-1.12,6.85,6.85,0,0,1,1.32-1.43,7.62,7.62,0,0,1,2-1.23,6.24,6.24,0,0,1,2.52-.51,5.19,5.19,0,0,1,2.71.68,4.46,4.46,0,0,1,1.74,1.86,5.89,5.89,0,0,1,.6,2.7,6,6,0,0,1-.33,1.86,11.28,11.28,0,0,1-.87,1.95,12.16,12.16,0,0,1-1.2,1.74c-.27.33-.67.77-1.18,1.29l-1.64,1.66-1.66,1.64-1.28,1.27a2.92,2.92,0,0,0-.48.57c0,.08.14.15.44.19s.8.07,1.27.09,1,0,1.53,0,1.13,0,1.69,0,1.1-.05,1.63-.09a8.71,8.71,0,0,0,1.35-.19,1.85,1.85,0,0,0,.87-.47,4.07,4.07,0,0,0,.71-1,4.44,4.44,0,0,1,.34-.44.64.64,0,0,1,.48-.25.25.25,0,0,1,.25.15.59.59,0,0,1,0,.32c-.06.25-.17.59-.31,1s-.3.87-.45,1.34-.26.92-.34,1.34a.73.73,0,0,1-.7.72Z"/><path d="M246.32,126.49a23.78,23.78,0,0,1-.4,4.57,10.42,10.42,0,0,1-1.31,3.56,6.42,6.42,0,0,1-2.39,2.3,7.43,7.43,0,0,1-3.65.82,7.54,7.54,0,0,1-3.46-.73,5.76,5.76,0,0,1-2.26-2.15,10.37,10.37,0,0,1-1.22-3.5,28.18,28.18,0,0,1-.36-4.77,23.78,23.78,0,0,1,.41-4.56,10.69,10.69,0,0,1,1.31-3.57,6.35,6.35,0,0,1,2.39-2.3,8.57,8.57,0,0,1,7.1-.08,5.62,5.62,0,0,1,2.26,2.15,10.08,10.08,0,0,1,1.22,3.5A28.05,28.05,0,0,1,246.32,126.49Zm-3,.2c0-1.08,0-2.06-.12-2.92a18.07,18.07,0,0,0-.34-2.29,7.33,7.33,0,0,0-.59-1.7,4,4,0,0,0-.87-1.18,3,3,0,0,0-1.15-.67,4.66,4.66,0,0,0-1.45-.21,3.74,3.74,0,0,0-2.32.67,4.52,4.52,0,0,0-1.41,1.85,9.61,9.61,0,0,0-.69,2.76,27.69,27.69,0,0,0-.19,3.39,30.26,30.26,0,0,0,.25,4.15,9.41,9.41,0,0,0,.8,2.78,3.64,3.64,0,0,0,1.4,1.56,4,4,0,0,0,2.06.49,4.22,4.22,0,0,0,1.65-.3,3.49,3.49,0,0,0,1.23-.87,4.85,4.85,0,0,0,.85-1.35,10.28,10.28,0,0,0,.54-1.75,15.68,15.68,0,0,0,.27-2.08C243.33,128.28,243.36,127.5,243.36,126.69Z"/><path d="M255.67,131.74c0-2.82,1.69-4.82,4.44-6l0-.1a5.55,5.55,0,0,1-3.55-5c0-3.55,3-6,6.92-6,4.34,0,6.51,2.71,6.51,5.5,0,1.9-.93,3.93-3.69,5.24v.1c2.79,1.1,4.51,3.06,4.51,5.78,0,3.89-3.33,6.51-7.6,6.51C258.5,137.8,255.67,135,255.67,131.74Zm12.05-.14c0-2.72-1.89-4-4.92-4.89-2.62.76-4,2.48-4,4.62s1.62,4.26,4.48,4.26C266,135.59,267.72,133.91,267.72,131.6Zm-8.33-11.19c0,2.24,1.69,3.45,4.27,4.13,1.93-.65,3.41-2,3.41-4.06a3.48,3.48,0,0,0-3.79-3.65A3.56,3.56,0,0,0,259.39,120.41Z"/><path d="M294.61,111.42h1.17q0,.52,0,1.35c0,.55-.07,1.11-.14,1.68s-.15,1.12-.24,1.64a7.56,7.56,0,0,1-.28,1.19h-9.43L285,122.2h2.86a10.79,10.79,0,0,1,3.37.5,7.22,7.22,0,0,1,2.58,1.45,6.38,6.38,0,0,1,1.66,2.3,8.64,8.64,0,0,1-.16,6.61,7.54,7.54,0,0,1-2,2.59,9,9,0,0,1-3,1.61,11.74,11.74,0,0,1-3.72.57,10.21,10.21,0,0,1-3.65-.63,10.64,10.64,0,0,1-2.65-1.43l1.45-3.41h1c.16.16.34.37.55.62l.65.79c.23.27.45.55.66.83l.55.72a5.27,5.27,0,0,0,.64.21,3.93,3.93,0,0,0,.77.06,5.14,5.14,0,0,0,1.93-.36,4.49,4.49,0,0,0,1.53-1,5.19,5.19,0,0,0,1-1.57,5.25,5.25,0,0,0,.37-2,4.6,4.6,0,0,0-.46-2.12,4.18,4.18,0,0,0-1.26-1.5,5.62,5.62,0,0,0-1.86-.88,8.57,8.57,0,0,0-2.23-.29l-3,0L284,113.32h9Z"/></svg>