<svg id="Слой_1" data-name="Слой 1" xmlns="http://www.w3.org/2000/svg" viewBox="0 0 400 400"><defs><style>.cls-1{fill:#fff;stroke:#000;stroke-miterlimit:10;stroke-width:3px;}.cls-2{fill:#c1362d;}.cls-3{fill:#b8ad99;}</style></defs><title>g24</title><path class="cls-1" d="M334.21,382H44.11V201.57S266.58-8.58,334.21,41.8C395.43,87.4,334.21,382,334.21,382Z"/><path class="cls-1" d="M276.31,300.83c12.84-14.05,42.15,1.4,48.91-10.07,4-6.87-5.73-13.61-1.84-28.46,2.29-8.78,7.15-11.91,5.21-17S320.92,241,313,234.78c-10.3-8-6.87-14.13-14.35-18.37-10.73-6.08-20.12,5.23-35.35-.78-5.81-2.29-4.58-4-13.73-8.89-7.87-4.21-16.25-8.69-25-8-13.71,1.1-26,14.81-29.22,28.53-3.67,15.6,5.44,26.74-.27,31.31-5.41,4.33-17.81-2.31-21.45-4.26-11.64-6.24-13.31-12.72-24.83-23-8.9-7.93-16.74-14.93-28.27-17.52-15.24-3.43-19.58,4.75-42.82,2-7.21-.85-10.26-2-12.85.08-6.33,5.18-3,24.56,7.54,37.22,9.19,11,18.32,10.25,23.75,22.45,2.49,5.58,2.14,9.23,6.27,13,4.77,4.35,9.37,3.24,17.45,5.52,12.09,3.41,20,11,23.69,14.56,10.42,10,5.9,13.68,15.73,23.65,10.93,11.09,19.87,10,24.27,20.1,3.33,7.65,1,14.75,2.54,15,1.91.36,3.27-11.36,11.31-23.79,2.61-4,8.77-13.3,20.46-19.17,3.84-1.93,17.15-8.62,24.6-3.33,4.78,3.4,4.11,9.58,8.66,10.92.92.27,4.2,1,10.14-4.06C272.64,318.35,269.46,308.32,276.31,300.83Z"/><path class="cls-1" d="M143.92,257.65a17.41,17.41,0,1,1-17.4-17.41A17.41,17.41,0,0,1,143.92,257.65Z"/><polygon class="cls-1" points="254.31 234.45 264.98 222.63 264.17 238.53 280.08 237.72 268.25 248.39 280.08 259.06 264.17 258.25 264.98 274.16 254.31 262.34 243.64 274.16 244.45 258.25 228.54 259.06 240.36 248.39 228.54 237.72 244.45 238.53 243.64 222.63 254.31 234.45"/><polyline class="cls-1" points="132.64 272.2 126.78 250.77 120.91 272.2"/><polygon class="cls-2" points="258.27 241.69 262.21 248.52 258.27 255.35 250.38 255.35 246.44 248.52 250.38 241.69 258.27 241.69"/><polygon class="cls-3" points="126.16 246.33 126.89 244.08 127.61 246.33 129.62 245.07 128.73 247.26 131.07 247.59 128.98 248.69 130.56 250.45 128.25 249.95 128.34 252.31 126.89 250.44 125.43 252.31 125.52 249.95 123.21 250.44 124.8 248.69 122.71 247.58 125.05 247.26 124.16 245.07 126.16 246.33"/><path d="M184.43,111.48v1.41c3.32.14,6.65,2.15,6.65,7.11s-3.33,6.86-6.67,7v1.47h-2v-1.47c-3.3-.21-6.65-2-6.65-7,0-5.17,3.65-7,6.7-7.2v-1.41Zm-2,2.88c-2.06.12-4.56,1.55-4.56,5.64,0,3.77,2.25,5.36,4.56,5.6Zm1.95,11.24c2.27-.19,4.56-1.71,4.56-5.62s-2.29-5.5-4.56-5.62Z"/><path d="M203.28,112.71v.43a3.77,3.77,0,0,0-1.07.16.82.82,0,0,0-.49.52,3.75,3.75,0,0,0-.13,1.17v10.63a3.8,3.8,0,0,0,.13,1.16.78.78,0,0,0,.49.51,4.1,4.1,0,0,0,1.07.17v.43c-.34,0-.77,0-1.29,0h-3.28c-.52,0-1,0-1.28,0v-.43a4.19,4.19,0,0,0,1.08-.17.77.77,0,0,0,.5-.51,4.22,4.22,0,0,0,.12-1.16V115a4.16,4.16,0,0,0-.12-1.17.81.81,0,0,0-.5-.52,3.86,3.86,0,0,0-1.08-.16v-.43l1.28.05,1.68,0,1.6,0Zm5.66,1.33c0,.3,0,.61,0,.93l-8.1,12.15,0-.82Zm3.77-1.33v.43a3.77,3.77,0,0,0-1.07.16.84.84,0,0,0-.49.52A3.75,3.75,0,0,0,211,115v10.63a3.8,3.8,0,0,0,.13,1.16.8.8,0,0,0,.49.51,4.1,4.1,0,0,0,1.07.17v.43c-.31,0-.73,0-1.26,0h-3.27c-.53,0-1,0-1.32,0v-.43a4,4,0,0,0,1.07-.17.79.79,0,0,0,.5-.51,4.15,4.15,0,0,0,.13-1.16V115a4.08,4.08,0,0,0-.13-1.17.83.83,0,0,0-.5-.52,3.71,3.71,0,0,0-1.07-.16v-.43l1.32.05,1.58,0,1.69,0Z"/><path d="M219.46,128.19a1.64,1.64,0,0,1-1.13-.35,1.28,1.28,0,0,1-.22-1.56.5.5,0,0,1,.37-.23,6.32,6.32,0,0,0,.73.17,5.73,5.73,0,0,0,1,.08,1.31,1.31,0,0,0,1-.52,4.66,4.66,0,0,0,.82-1.72,17.23,17.23,0,0,0,.54-3.18c.13-1.33.2-3,.2-4.93a1.4,1.4,0,0,0-.28-.93,2,2,0,0,0-1.09-.46c-.48-.09-.71-.23-.71-.43s0-.15.17-.18a1.36,1.36,0,0,1,.45-.06l.54,0,.71,0,.79,0h6.49l.64,0c.23,0,.54,0,.92,0a1.47,1.47,0,0,1,.46.06c.11,0,.17.09.17.18a.31.31,0,0,1-.17.26,1.63,1.63,0,0,1-.54.17,2.47,2.47,0,0,0-1.16.47,1.37,1.37,0,0,0-.36,1.07v9.69a1.28,1.28,0,0,0,.45,1.09,2.9,2.9,0,0,0,1.24.5,2,2,0,0,1,.54.15.25.25,0,0,1,.17.23c0,.09-.06.15-.17.18a1.44,1.44,0,0,1-.45.06,8.5,8.5,0,0,1-1,0l-.72,0-.83,0-.93,0-.82,0a9.66,9.66,0,0,1-1,0,1.44,1.44,0,0,1-.45-.06c-.11,0-.17-.09-.17-.18s.24-.3.71-.38a2.46,2.46,0,0,0,1.24-.55,1.37,1.37,0,0,0,.43-1.06V116a2.08,2.08,0,0,0-.14-.87.53.53,0,0,0-.54-.33h-3a.53.53,0,0,0-.48.22,1.41,1.41,0,0,0-.14.73,40.49,40.49,0,0,1-.32,5.53,18,18,0,0,1-.83,3.61,7.25,7.25,0,0,1-1.08,2.1,3.16,3.16,0,0,1-1.12,1A2.31,2.31,0,0,1,219.46,128.19Z"/><path d="M250.47,127.75c0,.09,0,.14-.05.14l-1.17,0-1.62,0-1.63,0-1.15,0s0,0,0-.14,0-.14,0-.14a5.21,5.21,0,0,0,1.31-.12.79.79,0,0,0,.56-.45,2.81,2.81,0,0,0,.14-1.05v-5.68a3.27,3.27,0,0,0-1.34.34,3.83,3.83,0,0,0-1.2,1,17.76,17.76,0,0,0-1.48,2.26c-.77,1.31-1.35,2.25-1.75,2.81a3.69,3.69,0,0,1-.84,1,1.32,1.32,0,0,1-.64.14H237.2s-.07,0-.07-.14,0-.14.07-.14a2.9,2.9,0,0,0,2.1-1,16.54,16.54,0,0,0,2.16-3.17,10.24,10.24,0,0,1,1.63-2.25,3.79,3.79,0,0,1,1.74-.93,5.46,5.46,0,0,1-3.1-1.11,3,3,0,0,1-1.07-2.4,3.27,3.27,0,0,1,.55-1.88,3.66,3.66,0,0,1,1.52-1.27,5,5,0,0,1,2.19-.46c.36,0,.77,0,1.24.07l.66,0c.25,0,.52,0,.81,0s.94,0,1.6,0l1.19,0s.05,0,.05.14,0,.14-.05.14a5.18,5.18,0,0,0-1.33.13.85.85,0,0,0-.57.46,2.87,2.87,0,0,0-.14,1V126a2.56,2.56,0,0,0,.16,1.05.81.81,0,0,0,.56.45,5.14,5.14,0,0,0,1.32.12S250.47,127.66,250.47,127.75Zm-7.26-8.8a3.62,3.62,0,0,0,2.79,1c.2,0,.49,0,.86,0v-4.72a1.49,1.49,0,0,0-.56-1.33,2.46,2.46,0,0,0-1.4-.38c-1.77,0-2.65.9-2.65,2.71A3.86,3.86,0,0,0,243.21,119Z"/><path d="M273.67,112.65l5.2,13.44a2.65,2.65,0,0,0,.7,1.06,1.3,1.3,0,0,0,.7.31v.43c-.37,0-.82,0-1.34,0h-3.36c-.54,0-1,0-1.33,0v-.43a2.13,2.13,0,0,0,1.4-.37c.2-.23.15-.7-.13-1.43l-3.77-10.18.38-.47-3.43,8.89a6,6,0,0,0-.53,2.18,1.16,1.16,0,0,0,.51,1.06,2.77,2.77,0,0,0,1.39.32v.43c-.45,0-.89,0-1.32,0h-2.18a5.38,5.38,0,0,0-.74,0v-.43a2,2,0,0,0,.93-.56,4.35,4.35,0,0,0,.89-1.56l4.91-12.69a5,5,0,0,0,.56,0A5.06,5.06,0,0,0,273.67,112.65Zm1.86,9.07v.43h-6.39l.22-.43Z"/><path d="M295.47,117.43a5.28,5.28,0,0,1-.36,2,4.07,4.07,0,0,1-1.05,1.52,4.55,4.55,0,0,1-1.66,1,7.2,7.2,0,0,1-2.36.35h-1.68v5.32a.23.23,0,0,1-.06.16.29.29,0,0,1-.16.11,1.37,1.37,0,0,1-.29.07,3.23,3.23,0,0,1-.48,0,3,3,0,0,1-.47,0,1.33,1.33,0,0,1-.3-.07.29.29,0,0,1-.16-.11.28.28,0,0,1-.05-.16V114a.78.78,0,0,1,.24-.65.84.84,0,0,1,.54-.2h3.16c.32,0,.63,0,.92,0s.64.09,1,.17a4.31,4.31,0,0,1,1.22.5,3.8,3.8,0,0,1,1.06.88,3.9,3.9,0,0,1,.67,1.22A4.62,4.62,0,0,1,295.47,117.43Zm-2.06.16a3.08,3.08,0,0,0-.34-1.5,2.38,2.38,0,0,0-.83-.91,3,3,0,0,0-1-.37,6.23,6.23,0,0,0-1-.08h-1.81v5.93h1.77a4.22,4.22,0,0,0,1.48-.23,2.69,2.69,0,0,0,1-.64,2.63,2.63,0,0,0,.61-1A3.45,3.45,0,0,0,293.41,117.59Z"/><path d="M303,126.08a4.69,4.69,0,0,0,.69.14,4.42,4.42,0,0,0,.61,0,2.34,2.34,0,0,0,.85-.15,2,2,0,0,0,.76-.48,3.93,3.93,0,0,0,.69-.92,10.54,10.54,0,0,0,.66-1.41L301.85,113h2.34l2.95,5.75,1.07,2.19h0l.8-2.07,2.3-5.87h2.15L309,124.05c-.23.56-.48,1.09-.74,1.58a6.16,6.16,0,0,1-.9,1.29,3.77,3.77,0,0,1-1.16.86,3.42,3.42,0,0,1-1.51.32,6.15,6.15,0,0,1-.84-.06,5.17,5.17,0,0,1-.93-.22Z"/><path d="M327.45,128.43v-2c-4.78-.07-7.65-3.18-7.65-7.11s2.87-7.1,7.65-7.21V110H329v2.16c4.77.11,7.65,3.13,7.65,7.25,0,3.91-2.88,7-7.65,7.07v2Zm0-14.87c-3.44.07-6,2.18-6,5.81s2.58,5.62,6,5.69Zm1.57,11.5c3.46-.07,6-2.2,6-5.69s-2.55-5.74-6-5.81Z"/><path d="M199.6,153.18h-.51l-.89,0-1,0-1,0-1.12,0c-.47,0-.94,0-1.42,0l-1.24,0h-.68a.71.71,0,0,1-.24-.13q-.18-.14-.18-.24a.27.27,0,0,1,.06-.19l.15-.15,3.47-3.69a10.28,10.28,0,0,0,1.75-2.48,6.34,6.34,0,0,0,.65-2.79,2.33,2.33,0,0,0-.6-1.68,2,2,0,0,0-1.5-.64,2.79,2.79,0,0,0-1.55.47,3.86,3.86,0,0,0-1.17,1.14,1,1,0,0,1-.22.24.4.4,0,0,1-.27.11q-.1,0-.21-.18a.87.87,0,0,1-.09-.42,1.52,1.52,0,0,1,.32-.77,4.66,4.66,0,0,1,.9-1,5.28,5.28,0,0,1,1.37-.84,4.25,4.25,0,0,1,1.71-.34,3.53,3.53,0,0,1,1.85.46,3.08,3.08,0,0,1,1.18,1.27,4,4,0,0,1,.4,1.83,4,4,0,0,1-.22,1.26,7.49,7.49,0,0,1-.59,1.33,7.68,7.68,0,0,1-.81,1.18c-.19.23-.46.52-.81.88L196,148.94l-1.13,1.12q-.54.52-.87.87a2,2,0,0,0-.33.38c0,.06.1.1.3.13l.87.07,1,0,1.15,0,1.1-.07a5.61,5.61,0,0,0,.92-.13,1.18,1.18,0,0,0,.59-.32,2.82,2.82,0,0,0,.48-.66,2.61,2.61,0,0,1,.24-.3.41.41,0,0,1,.32-.17.16.16,0,0,1,.17.1.34.34,0,0,1,0,.22,6.68,6.68,0,0,1-.21.68c-.1.29-.2.59-.3.91s-.18.63-.24.91a.51.51,0,0,1-.2.4A.53.53,0,0,1,199.6,153.18Z"/><path d="M216.37,145.69a16.42,16.42,0,0,1-.27,3.1,6.81,6.81,0,0,1-.89,2.42,4.38,4.38,0,0,1-1.63,1.57,5,5,0,0,1-2.47.55,4.92,4.92,0,0,1-2.35-.5,3.86,3.86,0,0,1-1.54-1.46,6.94,6.94,0,0,1-.83-2.38,19.48,19.48,0,0,1-.24-3.24,16.57,16.57,0,0,1,.27-3.1,7.21,7.21,0,0,1,.89-2.42,4.35,4.35,0,0,1,1.62-1.57,5.82,5.82,0,0,1,4.83,0,3.86,3.86,0,0,1,1.54,1.46,6.94,6.94,0,0,1,.83,2.38A19.48,19.48,0,0,1,216.37,145.69Zm-2,.13c0-.74,0-1.4-.08-2a11.91,11.91,0,0,0-.23-1.55,5.06,5.06,0,0,0-.4-1.16,2.92,2.92,0,0,0-.59-.8,2.21,2.21,0,0,0-.78-.46,3.43,3.43,0,0,0-1-.14,2.53,2.53,0,0,0-1.58.46,3,3,0,0,0-1,1.25,6.63,6.63,0,0,0-.48,1.88,20.83,20.83,0,0,0-.12,2.31,18.8,18.8,0,0,0,.17,2.81,6.07,6.07,0,0,0,.54,1.9,2.48,2.48,0,0,0,.95,1.06,3.12,3.12,0,0,0,2.52.12,2.17,2.17,0,0,0,.84-.59,3.36,3.36,0,0,0,.58-.92,6.29,6.29,0,0,0,.36-1.18,10,10,0,0,0,.19-1.41C214.34,146.9,214.36,146.37,214.36,145.82Z"/><path d="M232.92,145.69a16.42,16.42,0,0,1-.27,3.1,7,7,0,0,1-.9,2.42,4.35,4.35,0,0,1-1.62,1.57,5.08,5.08,0,0,1-2.48.55,4.92,4.92,0,0,1-2.35-.5,3.86,3.86,0,0,1-1.54-1.46,6.94,6.94,0,0,1-.83-2.38,19.48,19.48,0,0,1-.24-3.24,16.57,16.57,0,0,1,.27-3.1,7.43,7.43,0,0,1,.89-2.42,4.38,4.38,0,0,1,1.63-1.57,5.8,5.8,0,0,1,4.82,0,3.86,3.86,0,0,1,1.54,1.46,6.74,6.74,0,0,1,.83,2.38A19.4,19.4,0,0,1,232.92,145.69Zm-2,.13c0-.74,0-1.4-.08-2a11.91,11.91,0,0,0-.23-1.55,5.06,5.06,0,0,0-.4-1.16,2.73,2.73,0,0,0-.59-.8,2.21,2.21,0,0,0-.78-.46,3.33,3.33,0,0,0-1-.14,2.53,2.53,0,0,0-1.58.46,3,3,0,0,0-.95,1.25,6.63,6.63,0,0,0-.47,1.88,18.58,18.58,0,0,0-.13,2.31,20.24,20.24,0,0,0,.17,2.81,6.35,6.35,0,0,0,.54,1.9,2.54,2.54,0,0,0,1,1.06,2.79,2.79,0,0,0,1.4.33,2.85,2.85,0,0,0,1.13-.21,2.22,2.22,0,0,0,.83-.59,3.14,3.14,0,0,0,.58-.92,6.29,6.29,0,0,0,.36-1.18,8.73,8.73,0,0,0,.19-1.41C230.89,146.9,230.9,146.37,230.9,145.82Z"/><path d="M243.32,153.18a.6.6,0,0,1-.27-.07.23.23,0,0,1-.15-.23.22.22,0,0,1,.14-.19,1,1,0,0,1,.28-.09,2.81,2.81,0,0,0,1.45-.47,1.13,1.13,0,0,0,.35-.89v-2.18c0-.07-.05-.13-.16-.16l-.19-.05c-.64,0-1.23,0-1.79,0l-1.74.07-2.15.06a.23.23,0,0,1-.17-.08.31.31,0,0,1-.07-.16.09.09,0,0,1,0-.07c.2-.25.35-.42.44-.52l.23-.26a2.91,2.91,0,0,0,.24-.32l6.18-8.87a3,3,0,0,1,.34-.43.51.51,0,0,1,.36-.22h.49c.08,0,.06.11,0,.33l-6.32,9.08a.68.68,0,0,0,0,.13c0,.05,0,.08,0,.08h4.05a.33.33,0,0,0,.19-.06c.06,0,.09-.08.09-.13v-3.63a1.22,1.22,0,0,1,0-.35.3.3,0,0,1,.17-.16,2.29,2.29,0,0,1,.75-.25,4.63,4.63,0,0,1,.56-.06c.18,0,.28.13.31.38a9.92,9.92,0,0,1,.05,1.12v3c0,.09,0,.14.11.14a4.18,4.18,0,0,0,.49,0h1.12l.71,0c.17,0,.26.06.26.18a.89.89,0,0,1-.11.4,1.62,1.62,0,0,1-.22.35c-.08.1-.13.14-.16.14h-1.55l-.33,0a.73.73,0,0,0-.19.07c-.08,0-.11.05-.11.07v2.2a1.18,1.18,0,0,0,.31.93,3.61,3.61,0,0,0,1.26.52.61.61,0,0,1,.28.12.26.26,0,0,1,.14.21.22.22,0,0,1-.11.17.35.35,0,0,1-.24.08c-.44,0-.79,0-1,0l-.72-.06c-.22,0-.51,0-.89,0s-.7,0-.94,0l-.74.06C244.08,153.17,243.74,153.18,243.32,153.18Z"/><path d="M255.07,149.47c-.09,0-.13,0-.13-.13a2.87,2.87,0,0,1,.1-.75c.06-.26.14-.39.25-.41l2-.29c.69-.09,1.37-.17,2.06-.24a.27.27,0,0,1,.12,0,.11.11,0,0,1,.05.1,2.68,2.68,0,0,1-.1.76c-.06.23-.18.37-.35.39l-2,.29C256.5,149.32,255.8,149.4,255.07,149.47Z"/><path d="M273.7,153.18h-.52l-.89,0-1,0-1,0-1.13,0q-.69,0-1.41,0l-1.25,0h-.67a.72.72,0,0,1-.25-.13q-.18-.14-.18-.24a.27.27,0,0,1,.06-.19l.15-.15,3.48-3.69a10.23,10.23,0,0,0,1.74-2.48,6.22,6.22,0,0,0,.66-2.79,2.33,2.33,0,0,0-.6-1.68,2,2,0,0,0-1.5-.64,2.83,2.83,0,0,0-1.56.47,3.86,3.86,0,0,0-1.17,1.14.79.79,0,0,1-.21.24.45.45,0,0,1-.28.11c-.07,0-.14-.06-.2-.18a.77.77,0,0,1-.1-.42,1.62,1.62,0,0,1,.32-.77,5.28,5.28,0,0,1,.9-1,5.64,5.64,0,0,1,1.37-.84,4.26,4.26,0,0,1,1.72-.34,3.49,3.49,0,0,1,1.84.46,3,3,0,0,1,1.18,1.27,4,4,0,0,1,.41,1.83,4.06,4.06,0,0,1-.23,1.26,6.83,6.83,0,0,1-.59,1.33,7.68,7.68,0,0,1-.81,1.18c-.19.23-.45.52-.8.88L270,148.94l-1.12,1.12q-.54.52-.87.87a2,2,0,0,0-.33.38c0,.06.1.1.3.13l.86.07,1,0,1.15,0,1.1-.07a5.59,5.59,0,0,0,.93-.13,1.19,1.19,0,0,0,.58-.32,2.83,2.83,0,0,0,.49-.66,1.72,1.72,0,0,1,.23-.3.41.41,0,0,1,.32-.17.17.17,0,0,1,.18.1.55.55,0,0,1,0,.22c0,.17-.12.4-.22.68s-.2.59-.3.91a7.59,7.59,0,0,0-.23.91.52.52,0,0,1-.21.4A.48.48,0,0,1,273.7,153.18Z"/><path d="M290.47,145.69a16.42,16.42,0,0,1-.27,3.1,7.21,7.21,0,0,1-.89,2.42,4.46,4.46,0,0,1-1.63,1.57,5.08,5.08,0,0,1-2.48.55,5,5,0,0,1-2.35-.5,3.92,3.92,0,0,1-1.54-1.46,6.94,6.94,0,0,1-.82-2.38,18.39,18.39,0,0,1-.25-3.24,16.57,16.57,0,0,1,.27-3.1,7.44,7.44,0,0,1,.9-2.42,4.35,4.35,0,0,1,1.62-1.57,5,5,0,0,1,2.47-.55,5.12,5.12,0,0,1,2.36.5,3.9,3.9,0,0,1,1.53,1.46,6.74,6.74,0,0,1,.83,2.38A18.39,18.39,0,0,1,290.47,145.69Zm-2,.13c0-.74,0-1.4-.08-2a11.81,11.81,0,0,0-.24-1.55,4.63,4.63,0,0,0-.4-1.16,2.73,2.73,0,0,0-.59-.8,2.12,2.12,0,0,0-.78-.46,3.33,3.33,0,0,0-1-.14,2.5,2.5,0,0,0-1.57.46,3,3,0,0,0-1,1.25,6.63,6.63,0,0,0-.47,1.88,18.58,18.58,0,0,0-.13,2.31,20.24,20.24,0,0,0,.17,2.81,6.33,6.33,0,0,0,.55,1.9,2.46,2.46,0,0,0,.94,1.06,3.14,3.14,0,0,0,2.53.12,2.22,2.22,0,0,0,.83-.59,3,3,0,0,0,.58-.92,6.29,6.29,0,0,0,.37-1.18,11.72,11.72,0,0,0,.19-1.41C288.44,146.9,288.46,146.37,288.46,145.82Z"/><path d="M306.4,148.36c0-2.43-2.18-3.23-4.89-3.23h-.35v-1.94h.28c3,0,4.52-.82,4.52-2.81,0-1.8-1.5-2.76-3.31-2.76a3.41,3.41,0,0,0-3.69,3.3h-2.2c.25-3,2.38-5.08,5.94-5.08,2.93,0,5.5,1.19,5.5,4.31a4.14,4.14,0,0,1-2.76,3.93,4.11,4.11,0,0,1,3.23,4.26c0,3.42-2.88,5.08-6.13,5.08-4,0-5.78-2.48-6-5.32h2.2a3.61,3.61,0,0,0,3.86,3.54C304.81,151.64,306.4,150.49,306.4,148.36Z"/><path d="M317.72,153.11V141.49h-3.34v-2c2.23-.07,3.32-.22,4.05-1.91h2.25v15.54Z"/></svg>