<svg id="Слой_1" data-name="Слой 1" xmlns="http://www.w3.org/2000/svg" viewBox="0 0 400 400"><defs><style>.cls-1,.cls-2{fill:#fff;stroke:#000;stroke-width:3px;}.cls-1{stroke-miterlimit:10;}.cls-2{stroke-linecap:round;stroke-linejoin:round;}.cls-3{fill:#608b70;}.cls-4{fill:#b8ad99;}</style></defs><title>g26</title><path class="cls-1" d="M340.66,39.82c70.63,15.63-10,346.18-10,346.18h-279C23.4,145.79,25.81,68.88,45.27,56.85c21.26-13.15,56.63,50.2,87.53,25.54,18.72-15,17.68-47.76,32.82-51.08,23.53-5.16,39.59,71.14,62,65.26,15.53-4.07,16.08-42.86,34.65-51.07,15.32-6.78,32.19,12,43.76,28.37C306,73.87,318.81,35,340.66,39.82Z"/><path class="cls-1" d="M268.64,189.61c-4-12.2-26.72-19.78-44.85-15.49-17.9,4.25-15.85,16.44-36.68,26.09-24.68,11.44-41,.57-53,14.68-.81.94-9.91,12-5.71,22,2.16,5.15,9.86,4.4,11.41,9.78,1.1,3.79-2,5.21-1.63,9.78.52,7,8,8.27,11.42,15.5s1.56,17.93-4.08,22.82c-9.08,7.89-29.19,1.54-39.13-9.78-8.13-9.26-4.74-16.48-13.86-24.46C83.08,252.27,69,250.89,67.26,254c-1.32,2.41,5.48,6.06,11.42,16.31,5.67,9.77,3.92,14.13,8.15,29.35,5,17.78,7.51,27,15.49,32.61,11.21,7.88,20.79,0,30.17,9,7.11,6.79,4.6,14.19,12.22,18.75,5.67,3.39,12,2.27,19.57.82,11.59-2.23,26.64-4,32.61-14.68,4.22-7.56,1.38-14.76,4.08-15.49,3.26-.88,11.47,8.55,10.6,17.94-1,11-13.92,16-12.23,20.38,1.19,3.11,8.46,3,20.38,2.45,25.37-1.23,38.06-1.84,44-4.08,4.23-1.59,21.24-8,31.8-23.64,21.49-31.87,7-88.34-17.94-107.62-3.72-2.88-10.54-7.14-13-15.49C260.62,207.48,271.94,199.72,268.64,189.61Z"/><path class="cls-2" d="M217.1,264.21a10.31,10.31,0,0,1-20.24-3.83"/><path class="cls-2" d="M253.5,263.88c-2.47,12.14-24.71,17.87-49.69,12.8s-43.22-19-40.76-31.15,24.71-17.87,49.68-12.8S256,251.75,253.5,263.88Z"/><path d="M116.08,132.18h-7.83v-.9a13.41,13.41,0,0,1,2.54-.74V112.2a8.14,8.14,0,0,1-2.54-.77v-.9h7.83v.9a6.82,6.82,0,0,1-1.11.46c-.4.12-.8.23-1.21.31v8.07h9.71V112.2c-.43-.1-.84-.22-1.22-.34a9.66,9.66,0,0,1-1.1-.43v-.9H129v.9a5.83,5.83,0,0,1-1.23.48c-.44.11-.88.21-1.31.29v18.34a11.26,11.26,0,0,1,1.36.31,8.55,8.55,0,0,1,1.18.43v.9h-7.83v-.9a11,11,0,0,1,2.32-.74v-8.66h-9.71v8.66a10.22,10.22,0,0,1,1.21.31,9.14,9.14,0,0,1,1.11.43Z"/><path d="M157.8,132c0,.13,0,.19-.13.19-.39,0-1,0-1.82-.06s-1.42-.07-1.8-.07-1,0-1.73.07-1.16.06-1.51.06c-.08,0-.13-.06-.13-.19s0-.18.13-.18a4.81,4.81,0,0,0,1.67-.22.75.75,0,0,0,.52-.74,3.68,3.68,0,0,0-.4-1.33L149,121.94H143.2l-2.66,6.31a4.75,4.75,0,0,0-.43,1.73q0,1.83,3,1.83.15,0,.15.18c0,.13,0,.19-.15.19-.37,0-.91,0-1.61-.06s-1.46-.07-2-.07-1.16,0-1.86.07-1.13.06-1.54.06c-.11,0-.16-.06-.16-.19s0-.18.16-.18a3.07,3.07,0,0,0,1.47-.33,3.33,3.33,0,0,0,1.14-1.14,15.11,15.11,0,0,0,1.19-2.37l6.53-15.4a.23.23,0,0,1,.21-.09c.11,0,.17,0,.19.09l7.3,15.37a12.7,12.7,0,0,0,1.79,3.08,2.37,2.37,0,0,0,1.76.79C157.76,131.81,157.8,131.87,157.8,132Zm-14.32-10.7h5.26L146,115.42Z"/><path d="M182.42,131.43a14.38,14.38,0,0,1-6,1.09c-6.41,0-11.24-4.06-11.24-11.52,0-7.12,4.83-12,11.88-12a12.18,12.18,0,0,1,5.41,1l-.71,2.4a10.76,10.76,0,0,0-4.6-.95c-5.33,0-8.88,3.41-8.88,9.39,0,5.57,3.21,9.15,8.75,9.15a11.63,11.63,0,0,0,4.79-1Z"/><path d="M209.12,110.28c-.08.87-.14,1.71-.17,2.52s0,1.44,0,1.87,0,.93,0,1.37,0,.8.06,1.11h-.71a17,17,0,0,0-.82-3.65,3.68,3.68,0,0,0-1.47-1.92,5.33,5.33,0,0,0-2.75-.59h-1.33v17.63a5.51,5.51,0,0,0,.23,1.86,1.31,1.31,0,0,0,.93.82,9.49,9.49,0,0,0,2,.26v.62c-.58,0-1.32-.07-2.22-.08l-2.79,0-2.8,0c-.87,0-1.58,0-2.12.08v-.62a9.4,9.4,0,0,0,2-.26,1.36,1.36,0,0,0,.92-.82,5.18,5.18,0,0,0,.25-1.86V111H197a5.33,5.33,0,0,0-2.72.59,3.57,3.57,0,0,0-1.49,1.92,17.78,17.78,0,0,0-.8,3.65h-.71a10.65,10.65,0,0,0,.08-1.11c0-.44,0-.89,0-1.37s0-1,0-1.87-.09-1.65-.17-2.52l2.9.06c1.05,0,2.11,0,3.19,0H203c1.05,0,2.11,0,3.19,0Z"/><path d="M218,132.67a6.76,6.76,0,0,1-1.22-.09,2,2,0,0,1-.79-.31.66.66,0,0,1-.16-.17.46.46,0,0,1-.06-.23.39.39,0,0,1,.09-.26.28.28,0,0,1,.22-.11,3,3,0,0,0,1.47-.45,6.55,6.55,0,0,0,1.62-1.38,15.09,15.09,0,0,0,1.7-2.35,16,16,0,0,1,2.12-2.83,5,5,0,0,1,2.43-1.53c.08,0,.11,0,.08-.09s-.14-.07-.33-.09a4.87,4.87,0,0,1-2.46-.93,5.7,5.7,0,0,1-1.65-1.95,5,5,0,0,1-.59-2.26,5.18,5.18,0,0,1,1.05-3.4,5.85,5.85,0,0,1,2.82-1.82,12.46,12.46,0,0,1,3.86-.56c.46,0,.86,0,1.23,0l1.06.1a8.16,8.16,0,0,0,1.15.07l1.11,0c.29,0,.6,0,.93,0s.77,0,1.33,0a2.35,2.35,0,0,1,.65.08c.16,0,.24.14.24.26,0,.29-.34.5-1,.62a3.57,3.57,0,0,0-1.67.68,2,2,0,0,0-.52,1.55v14a1.83,1.83,0,0,0,.65,1.57,4.3,4.3,0,0,0,1.79.72c.68.12,1,.31,1,.55s-.08.21-.25.26a2,2,0,0,1-.65.08c-.55,0-1,0-1.37,0s-.71-.06-1-.08-.73,0-1.2,0-1,0-1.35,0-.77,0-1.17.08-.89,0-1.44,0a2,2,0,0,1-.65-.08c-.17-.05-.25-.13-.25-.26a.37.37,0,0,1,.25-.34,3,3,0,0,1,.77-.21,5.1,5.1,0,0,0,1.32-.44,2,2,0,0,0,.82-.74,2.17,2.17,0,0,0,.27-1.11v-5.23c0-.51-.07-.8-.23-.87a3.42,3.42,0,0,0-1-.09,1.6,1.6,0,0,0-.88.28c-.3.19-.63.37-1,.56a6,6,0,0,0-2.13,2l-2,2.94a22,22,0,0,1-1.44,1.9,7.69,7.69,0,0,1-1.62,1.44A3.49,3.49,0,0,1,218,132.67Zm9.89-10.79a5.86,5.86,0,0,0,1.69-.2.93.93,0,0,0,.63-1v-5.5a2.15,2.15,0,0,0-.69-1.79,2.68,2.68,0,0,0-1.75-.56,4.74,4.74,0,0,0-2.27.56,4.64,4.64,0,0,0-1.72,1.5,3.74,3.74,0,0,0-.65,2.18,4.87,4.87,0,0,0,1.22,3.68A5,5,0,0,0,227.92,121.88Z"/><path d="M260.4,111a8.17,8.17,0,0,1,2.63.87.85.85,0,0,1,.39.29,1.81,1.81,0,0,1,.12.52l.37,3.79c0,.06-.06.1-.17.11s-.18,0-.2-.08a6.37,6.37,0,0,0-2.75-3.83,9.39,9.39,0,0,0-5-1.23,8.66,8.66,0,0,0-4.49,1.13,7.58,7.58,0,0,0-3,3.19,10.33,10.33,0,0,0-1,4.76,13.06,13.06,0,0,0,1.3,5.81,10.82,10.82,0,0,0,3.51,4.22,8.15,8.15,0,0,0,4.77,1.55,6.88,6.88,0,0,0,4.23-1.33,8.28,8.28,0,0,0,2.73-4.11c0-.06.05-.1.14-.1a.37.37,0,0,1,.18,0c.06,0,.09,0,.09.1l-.48,3.81a1.36,1.36,0,0,1-.15.53.89.89,0,0,1-.39.25,16.2,16.2,0,0,1-6.41,1.28,12.93,12.93,0,0,1-6.77-1.63,10.37,10.37,0,0,1-4-4.17,11.62,11.62,0,0,1-1.29-5.34,9.48,9.48,0,0,1,1.73-5.57,11.41,11.41,0,0,1,4.55-3.82,14,14,0,0,1,6.08-1.35A17.58,17.58,0,0,1,260.4,111Z"/><path d="M286.68,121.26l-.06.53h-3.34a2.23,2.23,0,0,0-1.61.55,3.6,3.6,0,0,0-.9,1.55c-.21.66-.4,1.42-.59,2.29l-.59,3.09a4,4,0,0,1-1.36,2.65,4.26,4.26,0,0,1-2.5.69,4.68,4.68,0,0,1-2.15-.45,4.82,4.82,0,0,1-1.62-1.41l.43-.37a5.49,5.49,0,0,0,.63.64,1.18,1.18,0,0,0,.73.23,1,1,0,0,0,.93-.51,7.27,7.27,0,0,0,.59-1.81l.65-3.18a4.23,4.23,0,0,1,1.68-2.83,8.81,8.81,0,0,1,3.73-1.23q.59-.09,1.17-.15l1.56-.14C284.71,121.35,285.58,121.3,286.68,121.26Zm5.75-11v.62a4.81,4.81,0,0,0-1.5.23,1.19,1.19,0,0,0-.7.75,5.74,5.74,0,0,0-.18,1.68V128.9a5.87,5.87,0,0,0,.17,1.67,1.05,1.05,0,0,0,.69.74,5.6,5.6,0,0,0,1.52.25v.62c-.5,0-1.15-.07-2-.08l-2.61,0-2.41,0c-.8,0-1.47,0-2,.08v-.62a5.47,5.47,0,0,0,1.53-.25,1.06,1.06,0,0,0,.68-.74,6.26,6.26,0,0,0,.17-1.67V113.56a3.92,3.92,0,0,0-.39-2.13c-.25-.35-.8-.53-1.65-.53a3.8,3.8,0,0,0-3.31,1.33,6.19,6.19,0,0,0-1,3.68,9.28,9.28,0,0,0,.37,2.68,3.46,3.46,0,0,0,1.39,1.88,5.24,5.24,0,0,0,3,.7h2.66v.62h-3a13.6,13.6,0,0,1-5.41-.88,5.5,5.5,0,0,1-2.7-2.26,5.75,5.75,0,0,1-.76-2.83,4.72,4.72,0,0,1,2-4q2-1.48,6.15-1.49l1.95,0c.91,0,1.86,0,2.85,0,.8,0,1.61,0,2.42,0Z"/><path d="M317.42,121.26a16.24,16.24,0,0,1-.69,5,10.25,10.25,0,0,1-1.84,3.48,7.45,7.45,0,0,1-2.72,2.05,8.37,8.37,0,0,1-3.29.66,8.18,8.18,0,0,1-3.62-.75,6.76,6.76,0,0,1-2.56-2.16,10.06,10.06,0,0,1-1.51-3.46,19.46,19.46,0,0,1-.49-4.59,16.12,16.12,0,0,1,.68-5,10.2,10.2,0,0,1,1.83-3.49,7.39,7.39,0,0,1,2.71-2,8.17,8.17,0,0,1,3.29-.67,8.08,8.08,0,0,1,3.62.76,7,7,0,0,1,2.56,2.17,9.69,9.69,0,0,1,1.52,3.44A18.71,18.71,0,0,1,317.42,121.26Zm-3.05.22a19.46,19.46,0,0,0-.29-3.47,8.62,8.62,0,0,0-.93-2.72,4.85,4.85,0,0,0-1.66-1.76,4.56,4.56,0,0,0-2.45-.63,4.21,4.21,0,0,0-2.38.67,5.22,5.22,0,0,0-1.64,1.81,9.27,9.27,0,0,0-1,2.69,16.38,16.38,0,0,0-.31,3.28,18.65,18.65,0,0,0,.3,3.48,8.56,8.56,0,0,0,.93,2.71,4.7,4.7,0,0,0,1.64,1.75,4.47,4.47,0,0,0,2.42.63,4.19,4.19,0,0,0,2.39-.67,5.28,5.28,0,0,0,1.66-1.81,9.31,9.31,0,0,0,1-2.68A16.29,16.29,0,0,0,314.37,121.48Z"/><path class="cls-3" d="M228.29,253.91a8.57,8.57,0,1,1-6.83-10,8.56,8.56,0,0,1,6.83,10"/><polygon class="cls-4" points="198.47 243.28 202.83 239.43 201.54 245.1 207.36 244.96 202.72 248.47 207.27 252.1 201.46 251.81 202.61 257.52 198.34 253.56 195.56 258.67 194.83 252.9 189.42 255.02 192.57 250.13 187.06 248.28 192.62 246.56 189.58 241.6 194.94 243.85 195.81 238.1 198.47 243.28"/><path d="M217.06,264.19a0,0,0,0,1,.05,0,0,0,0,0,1,0,.05,0,0,0,0,1,0,0,0,0,0,0,1,0-.06"/><path d="M196.91,260.39a0,0,0,1,0-.09,0s0,.05,0,.05a.07.07,0,0,0,0,0"/><path d="M131,166.89h-.74l-1.28,0-1.5-.06-1.43,0-1.62,0-2,0-1.8,0h-1a.86.86,0,0,1-.36-.19c-.17-.12-.26-.23-.26-.34a.37.37,0,0,1,.09-.27l.22-.22,5-5.32a14.61,14.61,0,0,0,2.52-3.59,8.92,8.92,0,0,0,.94-4,3.33,3.33,0,0,0-.86-2.42,2.87,2.87,0,0,0-2.17-.92,4,4,0,0,0-2.24.67,5.51,5.51,0,0,0-1.68,1.65,1.67,1.67,0,0,1-.31.34.61.61,0,0,1-.41.16c-.1,0-.2-.08-.29-.25a1.26,1.26,0,0,1-.14-.62,2.27,2.27,0,0,1,.47-1.1,6.82,6.82,0,0,1,1.29-1.4,7.76,7.76,0,0,1,2-1.21,6.2,6.2,0,0,1,2.48-.49,5.15,5.15,0,0,1,2.66.66,4.35,4.35,0,0,1,1.7,1.83,5.75,5.75,0,0,1,.26,4.46,10.91,10.91,0,0,1-.85,1.92,11.09,11.09,0,0,1-1.17,1.7c-.27.33-.66.76-1.16,1.27l-1.61,1.62c-.57.57-1.11,1.11-1.63,1.61l-1.25,1.25a2.72,2.72,0,0,0-.48.56c0,.08.15.15.44.19s.78.07,1.25.09,1,0,1.5,0,1.11,0,1.65,0,1.08,0,1.6-.09a8.25,8.25,0,0,0,1.32-.19,1.86,1.86,0,0,0,.85-.46,4.11,4.11,0,0,0,.7-1,4.47,4.47,0,0,1,.34-.43.6.6,0,0,1,.46-.25.24.24,0,0,1,.25.15.56.56,0,0,1,0,.31,9.27,9.27,0,0,1-.31,1c-.14.41-.29.85-.43,1.32a13.41,13.41,0,0,0-.34,1.31.74.74,0,0,1-.29.57A.77.77,0,0,1,131,166.89Z"/><path d="M155.18,156.08a23.91,23.91,0,0,1-.39,4.49,10,10,0,0,1-1.28,3.48,6.21,6.21,0,0,1-2.35,2.26,8.38,8.38,0,0,1-7,.08,5.55,5.55,0,0,1-2.22-2.11,9.7,9.7,0,0,1-1.19-3.42,27.15,27.15,0,0,1-.36-4.68,23.84,23.84,0,0,1,.4-4.48,10.3,10.3,0,0,1,1.29-3.49,6.19,6.19,0,0,1,2.34-2.26,8.35,8.35,0,0,1,7-.08,5.55,5.55,0,0,1,2.22,2.11,10,10,0,0,1,1.2,3.43A28.14,28.14,0,0,1,155.18,156.08Zm-2.9.2c0-1.07,0-2-.12-2.87a17.32,17.32,0,0,0-.33-2.24,7.55,7.55,0,0,0-.58-1.67,4,4,0,0,0-.85-1.16,3.14,3.14,0,0,0-1.13-.66,4.54,4.54,0,0,0-1.43-.2,3.72,3.72,0,0,0-2.27.65,4.52,4.52,0,0,0-1.38,1.82,9.7,9.7,0,0,0-.68,2.7,32.84,32.84,0,0,0,.06,7.4,9.15,9.15,0,0,0,.79,2.73,3.5,3.5,0,0,0,1.37,1.53,4,4,0,0,0,2,.48,4.11,4.11,0,0,0,1.62-.3,3.32,3.32,0,0,0,1.2-.85,4.57,4.57,0,0,0,.84-1.33,8.81,8.81,0,0,0,.52-1.71,15.22,15.22,0,0,0,.28-2C152.25,157.83,152.28,157.07,152.28,156.28Z"/><path d="M179.05,156.08a23.91,23.91,0,0,1-.39,4.49,10.24,10.24,0,0,1-1.29,3.48,6.18,6.18,0,0,1-2.34,2.26,8.38,8.38,0,0,1-7,.08,5.49,5.49,0,0,1-2.22-2.11,9.7,9.7,0,0,1-1.19-3.42,27.15,27.15,0,0,1-.36-4.68,23,23,0,0,1,.4-4.48,10.51,10.51,0,0,1,1.28-3.49,6.33,6.33,0,0,1,2.34-2.26,7.36,7.36,0,0,1,3.57-.8,7.28,7.28,0,0,1,3.4.72A5.55,5.55,0,0,1,177.5,148a9.75,9.75,0,0,1,1.19,3.43A27,27,0,0,1,179.05,156.08Zm-2.9.2c0-1.07,0-2-.12-2.87a17.2,17.2,0,0,0-.34-2.24,7.56,7.56,0,0,0-.57-1.67,4,4,0,0,0-.85-1.16,3.14,3.14,0,0,0-1.13-.66,4.58,4.58,0,0,0-1.43-.2,3.72,3.72,0,0,0-2.27.65,4.35,4.35,0,0,0-1.38,1.82,9.36,9.36,0,0,0-.68,2.7,26.92,26.92,0,0,0-.19,3.33,29.12,29.12,0,0,0,.25,4.07,9.48,9.48,0,0,0,.78,2.73,3.62,3.62,0,0,0,1.37,1.53,4,4,0,0,0,2,.48,4.12,4.12,0,0,0,1.63-.3,3.5,3.5,0,0,0,1.2-.85,4.77,4.77,0,0,0,.83-1.33,8.8,8.8,0,0,0,.53-1.71,15.27,15.27,0,0,0,.27-2C176.12,157.83,176.15,157.07,176.15,156.28Z"/><path d="M194.06,166.9a.93.93,0,0,1-.39-.1.35.35,0,0,1-.21-.34.3.3,0,0,1,.2-.27,1.25,1.25,0,0,1,.4-.13,4,4,0,0,0,2.1-.68,1.68,1.68,0,0,0,.5-1.28V161c0-.12-.08-.19-.23-.24l-.27-.07c-.93,0-1.79,0-2.59,0l-2.51.11c-.88,0-1.92.06-3.11.08a.31.31,0,0,1-.24-.12.39.39,0,0,1-.1-.22.12.12,0,0,1,0-.1c.29-.36.5-.61.64-.76l.34-.37a3.31,3.31,0,0,0,.33-.46l8.92-12.79a5.15,5.15,0,0,1,.49-.63.77.77,0,0,1,.52-.32h.71c.11,0,.09.16-.07.47l-9.11,13.11a.52.52,0,0,0-.07.18c0,.08,0,.12.07.12h5.84a.48.48,0,0,0,.27-.09.21.21,0,0,0,.13-.18V153.5a1.83,1.83,0,0,1,.05-.51.51.51,0,0,1,.26-.24,3,3,0,0,1,1.08-.35,6,6,0,0,1,.81-.09c.24,0,.39.18.44.54a16,16,0,0,1,.06,1.62v4.36c0,.13.06.2.17.2a6,6,0,0,0,.71,0h.64l1,0,1-.05c.24,0,.37.09.37.27a1.18,1.18,0,0,1-.16.57,2.23,2.23,0,0,1-.32.51c-.11.13-.19.2-.23.2h-.81c-.3,0-.58,0-.85,0a5.24,5.24,0,0,0-.57,0,3,3,0,0,0-.47.05,1.25,1.25,0,0,0-.29.1c-.1,0-.15.08-.15.1V164a1.66,1.66,0,0,0,.45,1.35,5.46,5.46,0,0,0,1.81.75,1.06,1.06,0,0,1,.41.16.41.41,0,0,1,.2.31.33.33,0,0,1-.15.25.58.58,0,0,1-.36.12c-.63,0-1.13,0-1.5-.05l-1-.09c-.32,0-.74,0-1.28,0s-1,0-1.37,0l-1.07.09C195.15,166.88,194.67,166.9,194.06,166.9Z"/><path d="M211,161.54c-.13,0-.19-.06-.19-.18a4.66,4.66,0,0,1,.14-1.09c.09-.37.21-.56.36-.58,1-.15,2-.29,3-.42s2-.25,3-.36a.31.31,0,0,1,.17.05.16.16,0,0,1,.08.14,4.3,4.3,0,0,1-.14,1.1q-.13.51-.51.57l-2.83.42C213.07,161.32,212.07,161.44,211,161.54Z"/><path d="M237.89,166.89h-.74l-1.29,0-1.5-.06-1.42,0-1.62,0-2,0-1.8,0h-1a.86.86,0,0,1-.36-.19c-.17-.12-.26-.23-.26-.34a.37.37,0,0,1,.09-.27l.22-.22,5-5.32a14.61,14.61,0,0,0,2.52-3.59,8.92,8.92,0,0,0,.94-4,3.38,3.38,0,0,0-.86-2.42,2.87,2.87,0,0,0-2.17-.92,4,4,0,0,0-2.24.67,5.66,5.66,0,0,0-1.69,1.65,1.38,1.38,0,0,1-.3.34.61.61,0,0,1-.41.16c-.1,0-.2-.08-.29-.25a1.26,1.26,0,0,1-.14-.62,2.27,2.27,0,0,1,.47-1.1,6.82,6.82,0,0,1,1.29-1.4,7.76,7.76,0,0,1,2-1.21,6.2,6.2,0,0,1,2.48-.49,5.15,5.15,0,0,1,2.66.66,4.35,4.35,0,0,1,1.7,1.83,5.75,5.75,0,0,1,.26,4.46,10.91,10.91,0,0,1-.85,1.92,10.47,10.47,0,0,1-1.18,1.7,15.35,15.35,0,0,1-1.16,1.27c-.5.52-1,1.06-1.6,1.62s-1.11,1.11-1.63,1.61l-1.25,1.25a2.72,2.72,0,0,0-.48.56c0,.08.15.15.43.19s.79.07,1.26.09,1,0,1.5,0,1.1,0,1.65,0,1.08,0,1.59-.09a8.23,8.23,0,0,0,1.33-.19,1.86,1.86,0,0,0,.85-.46,4.11,4.11,0,0,0,.7-1,4.47,4.47,0,0,1,.34-.43.6.6,0,0,1,.46-.25.24.24,0,0,1,.25.15.56.56,0,0,1,0,.31,9.27,9.27,0,0,1-.31,1c-.14.41-.29.85-.43,1.32a13.41,13.41,0,0,0-.34,1.31.74.74,0,0,1-.29.57A.77.77,0,0,1,237.89,166.89Z"/><path d="M262.09,156.08a23.91,23.91,0,0,1-.39,4.49,10.24,10.24,0,0,1-1.28,3.48,6.28,6.28,0,0,1-2.35,2.26,8.38,8.38,0,0,1-7,.08,5.49,5.49,0,0,1-2.22-2.11,9.7,9.7,0,0,1-1.19-3.42,27.15,27.15,0,0,1-.36-4.68,23.84,23.84,0,0,1,.4-4.48,10.3,10.3,0,0,1,1.29-3.49,6.19,6.19,0,0,1,2.34-2.26,8.35,8.35,0,0,1,7-.08,5.55,5.55,0,0,1,2.22,2.11,10,10,0,0,1,1.2,3.43A28.14,28.14,0,0,1,262.09,156.08Zm-2.9.2c0-1.07,0-2-.12-2.87a15.64,15.64,0,0,0-.34-2.24,7.08,7.08,0,0,0-.57-1.67,4,4,0,0,0-.85-1.16,3.14,3.14,0,0,0-1.13-.66,4.54,4.54,0,0,0-1.43-.2,3.72,3.72,0,0,0-2.27.65A4.43,4.43,0,0,0,251.1,150a9.7,9.7,0,0,0-.68,2.7,32.84,32.84,0,0,0,.06,7.4,9.15,9.15,0,0,0,.79,2.73,3.54,3.54,0,0,0,1.36,1.53,4,4,0,0,0,2,.48,4.12,4.12,0,0,0,1.63-.3,3.32,3.32,0,0,0,1.2-.85,4.55,4.55,0,0,0,.83-1.33,8.8,8.8,0,0,0,.53-1.71,15.27,15.27,0,0,0,.27-2C259.16,157.83,259.19,157.07,259.19,156.28Z"/><path d="M285.07,159.94c0-3.51-3.14-4.66-7.05-4.66h-.51v-2.8h.41c4.28,0,6.51-1.18,6.51-4,0-2.6-2.16-4-4.76-4a4.93,4.93,0,0,0-5.33,4.77h-3.18c.37-4.33,3.45-7.33,8.58-7.33,4.22,0,7.93,1.72,7.93,6.21a6,6,0,0,1-4,5.67c3.65,1.19,4.66,3.55,4.66,6.15,0,4.93-4.15,7.33-8.85,7.33-5.81,0-8.34-3.58-8.71-7.67H274c.38,3,2.1,5.1,5.58,5.1C282.78,164.67,285.07,163,285.07,159.94Z"/><path d="M301.41,166.8V150h-4.82v-2.91c3.21-.09,4.79-.31,5.84-2.75h3.25V166.8Z"/></svg>