<svg id="Слой_1" data-name="Слой 1" xmlns="http://www.w3.org/2000/svg" viewBox="0 0 400 400"><defs><style>.cls-1,.cls-2{fill:#fff;stroke:#000;stroke-width:3px;}.cls-1{stroke-miterlimit:10;}.cls-2{stroke-linecap:round;stroke-linejoin:round;}.cls-3{fill:#c1362d;}.cls-4{fill:#608b70;}</style></defs><title>g28</title><path class="cls-1" d="M371.64,386H34.78V30.66S154,131.15,204.63,131.15s167-100.49,167-100.49Z"/><path class="cls-1" d="M139.56,208.72c9.42-3.74,14.13-5.61,19.77-5.14,17.9,1.46,21.15,19.58,42.15,24.67,4.51,1.09,11.51.55,25.53-.53,23.68-1.82,26.34-5,38.71-4.59,9.44.35,29.88,1.09,38.12,13.41,10.46,15.62-9,34.46,2.05,52.94,7.69,12.85,22.23,12.31,22.18,20.36-.05,8.23-15.3,17.92-29,16.68-11.48-1-14.2-9.08-24.82-10.84-7.46-1.23-18.76.64-34.68,15.86,9,23.93,8.94,31.41,6.36,33-6.07,3.69-22.27-27.23-53.66-32-16.19-2.46-30.31,3-35.84,5.47-24.77,11.21-32,33.57-38.15,31.07-6.33-2.56-4.74-28.58-1-46.34,2.8-13.15,7.59-25.57,1.21-33.14-2.73-3.24-5.54-3.25-7.72-7.41-3.9-7.41,2.07-13-.4-18.92-4.33-10.45-28.23-6.47-29.59-12.63-.75-3.39,6.07-6.49,19.55-15.54C122.9,219.94,124.6,214.65,139.56,208.72Z"/><line class="cls-2" x1="172.65" y1="278.46" x2="136.65" y2="330.94"/><path class="cls-2" d="M136.25,228.18a13,13,0,0,1,13.68-.48c5.78,3.45,6.14,10.1,6.16,10.67,0,.82.14,7.26-4.35,10.16a44.06,44.06,0,0,1-6.34,2.74c-6.76,2.64-11,4.42-13.4,8.88a13.57,13.57,0,0,0-1,9.25,13.42,13.42,0,0,0,3.69,6.69,13.58,13.58,0,0,0,6.56,3.48,12.14,12.14,0,0,0,6.79-.46c6.32-2.32,7.91-8.78,8-9.34.18-.8,1.31-6.17-2.1-10.38a11,11,0,0,0-3.23-2.68"/><path class="cls-1" d="M228.79,270.66c0,12-3.86,21.66-8.62,21.66s-8.63-9.69-8.63-21.66S215.41,249,220.17,249,228.79,258.7,228.79,270.66Z"/><path class="cls-2" d="M185.77,298.62c.22-2.15,1.68-13.74,12-21.7a31.86,31.86,0,0,1,20.09-6.49"/><line class="cls-2" x1="259.77" y1="240.13" x2="259.77" y2="288.51"/><line class="cls-2" x1="246.86" y1="258.67" x2="271.95" y2="258.67"/><path d="M175.88,168.45V161h.68c2.85,0,3.67-4.07,3.89-10.58l.2-6.6h13.82V161h2.68v7.42h-3.52V164.3H179.41v4.15ZM190.44,161V147.12h-5.9l-.17,4.32c-.22,5.24-1.35,7.87-2.93,9.59Z"/><path d="M220.35,144.32c-.07.72-.13,1.41-.15,2.08s0,1.18,0,1.54,0,.87,0,1.27,0,.74.06,1h-.65a17,17,0,0,0-.54-3.12,2.72,2.72,0,0,0-1.18-1.65,5.26,5.26,0,0,0-2.63-.51h-1.52V161a5.15,5.15,0,0,0,.21,1.69,1.22,1.22,0,0,0,.83.76,7.73,7.73,0,0,0,1.81.26v.56c-.49,0-1.11-.06-1.86-.07H210c-.75,0-1.34,0-1.79.07v-.56a7.54,7.54,0,0,0,1.8-.26,1.2,1.2,0,0,0,.83-.76,5.1,5.1,0,0,0,.22-1.69V145h-1.53a5.28,5.28,0,0,0-2.61.51,2.75,2.75,0,0,0-1.2,1.65,18,18,0,0,0-.53,3.12h-.65a10,10,0,0,0,.07-1c0-.4,0-.82,0-1.27s0-.87,0-1.54-.08-1.36-.16-2.08l2.59.06c.93,0,1.86,0,2.8,0H215l2.8,0Z"/><polygon class="cls-3" points="143.42 235.09 141.4 233.04 144.24 233.52 144 230.65 145.87 232.84 147.54 230.5 147.56 233.38 150.34 232.65 148.51 234.87 151.11 236.1 148.28 236.62 149.47 239.24 146.97 237.82 146.21 240.59 145.21 237.89 142.83 239.53 143.8 236.82 140.93 236.54 143.42 235.09"/><polygon class="cls-3" points="136.28 240.13 140.74 241.04 142.19 245.35 139.18 248.76 134.72 247.86 133.27 243.55 136.28 240.13"/><path class="cls-4" d="M190.28,297.4a4.68,4.68,0,1,1-6.5-1.27,4.69,4.69,0,0,1,6.5,1.27"/><path d="M122.54,190.46l-.68,0-1.17,0-1.37-.06-1.3,0-1.48,0-1.86,0-1.64,0-.88,0a.82.82,0,0,1-.33-.17c-.16-.11-.24-.22-.24-.31a.32.32,0,0,1,.09-.25l.19-.2,4.57-4.86a13,13,0,0,0,2.3-3.27,8.11,8.11,0,0,0,.86-3.67,3.05,3.05,0,0,0-.79-2.21,2.57,2.57,0,0,0-2-.83,3.77,3.77,0,0,0-2,.6,5.13,5.13,0,0,0-1.53,1.51,1.41,1.41,0,0,1-.29.31.51.51,0,0,1-.36.14c-.1,0-.19-.07-.27-.22a1.09,1.09,0,0,1-.13-.57,2,2,0,0,1,.43-1,6.22,6.22,0,0,1,1.18-1.28,6.88,6.88,0,0,1,1.81-1.1,5.58,5.58,0,0,1,2.25-.45,4.71,4.71,0,0,1,2.43.6,4,4,0,0,1,1.55,1.67,5.24,5.24,0,0,1,.24,4.07,9.4,9.4,0,0,1-.77,1.75,9.8,9.8,0,0,1-1.08,1.56c-.24.3-.59.68-1,1.15s-1,1-1.47,1.48l-1.48,1.47-1.15,1.14a2.24,2.24,0,0,0-.43.51c0,.08.13.13.39.17s.72.07,1.14.09l1.37,0,1.51,0c.5,0,1,0,1.46-.09a7.29,7.29,0,0,0,1.21-.17,1.65,1.65,0,0,0,.78-.42,3.93,3.93,0,0,0,.63-.88,3.71,3.71,0,0,1,.31-.39.56.56,0,0,1,.42-.23.23.23,0,0,1,.23.14.49.49,0,0,1,0,.29c-.06.22-.15.52-.28.9s-.27.78-.4,1.2a10.65,10.65,0,0,0-.31,1.2.69.69,0,0,1-.27.52A.8.8,0,0,1,122.54,190.46Z"/><path d="M144.62,180.59a22.47,22.47,0,0,1-.35,4.1,9.43,9.43,0,0,1-1.18,3.18,5.79,5.79,0,0,1-2.14,2.06,7.63,7.63,0,0,1-6.36.07,5,5,0,0,1-2-1.92,9.15,9.15,0,0,1-1.09-3.13,24.69,24.69,0,0,1-.32-4.27,21.51,21.51,0,0,1,.36-4.08,9.62,9.62,0,0,1,1.17-3.19,5.64,5.64,0,0,1,2.14-2.06,6.59,6.59,0,0,1,3.25-.73,6.71,6.71,0,0,1,3.1.65,5.15,5.15,0,0,1,2,1.93,9.15,9.15,0,0,1,1.09,3.13A25.69,25.69,0,0,1,144.62,180.59Zm-2.65.18c0-1,0-1.84-.1-2.61a16.28,16.28,0,0,0-.31-2,6.83,6.83,0,0,0-.53-1.53,3.66,3.66,0,0,0-.77-1.05,2.69,2.69,0,0,0-1-.6,4.08,4.08,0,0,0-1.3-.19,3.36,3.36,0,0,0-2.08.6,4.12,4.12,0,0,0-1.26,1.66,8.85,8.85,0,0,0-.62,2.46,26.39,26.39,0,0,0-.17,3,25.87,25.87,0,0,0,.23,3.71,8.33,8.33,0,0,0,.71,2.49,3.32,3.32,0,0,0,1.25,1.4,3.67,3.67,0,0,0,1.85.44,3.79,3.79,0,0,0,1.48-.27,3.16,3.16,0,0,0,1.1-.78,4.54,4.54,0,0,0,.76-1.21,8.4,8.4,0,0,0,.48-1.56,12.91,12.91,0,0,0,.24-1.86C142,182.19,142,181.5,142,180.77Z"/><path d="M166.4,180.59a21.58,21.58,0,0,1-.36,4.1,9.22,9.22,0,0,1-1.17,3.18,5.86,5.86,0,0,1-2.14,2.06,6.67,6.67,0,0,1-3.27.73,6.6,6.6,0,0,1-3.09-.66,5,5,0,0,1-2-1.92,8.94,8.94,0,0,1-1.09-3.13,24.62,24.62,0,0,1-.33-4.27,21.51,21.51,0,0,1,.36-4.08,9.85,9.85,0,0,1,1.18-3.19,5.68,5.68,0,0,1,2.13-2.06,6.64,6.64,0,0,1,3.25-.73,6.75,6.75,0,0,1,3.11.65,5.06,5.06,0,0,1,2,1.93,8.94,8.94,0,0,1,1.09,3.13A24.58,24.58,0,0,1,166.4,180.59Zm-2.65.18c0-1,0-1.84-.11-2.61a16.42,16.42,0,0,0-.3-2,7.37,7.37,0,0,0-.53-1.53,3.69,3.69,0,0,0-.78-1.05,2.61,2.61,0,0,0-1-.6,4,4,0,0,0-1.3-.19,3.35,3.35,0,0,0-2.07.6,4.12,4.12,0,0,0-1.26,1.66,8.52,8.52,0,0,0-.62,2.46,26.39,26.39,0,0,0-.17,3,25.87,25.87,0,0,0,.23,3.71,8.33,8.33,0,0,0,.71,2.49,3.26,3.26,0,0,0,1.25,1.4,3.66,3.66,0,0,0,1.84.44,3.76,3.76,0,0,0,1.48-.27,3,3,0,0,0,1.1-.78,4.09,4.09,0,0,0,.76-1.21,8.4,8.4,0,0,0,.48-1.56,12.87,12.87,0,0,0,.25-1.86C163.73,182.19,163.75,181.5,163.75,180.77Z"/><path d="M188.17,180.59a21.61,21.61,0,0,1-.35,4.1,9.65,9.65,0,0,1-1.17,3.18,5.82,5.82,0,0,1-2.15,2.06,7.6,7.6,0,0,1-6.35.07,5.05,5.05,0,0,1-2-1.92A9.15,9.15,0,0,1,175,185a25.73,25.73,0,0,1-.32-4.27,21.51,21.51,0,0,1,.36-4.08,9.62,9.62,0,0,1,1.17-3.19,5.78,5.78,0,0,1,2.14-2.06,6.62,6.62,0,0,1,3.25-.73,6.78,6.78,0,0,1,3.11.65,5.12,5.12,0,0,1,2,1.93,9.15,9.15,0,0,1,1.09,3.13A24.65,24.65,0,0,1,188.17,180.59Zm-2.64.18c0-1,0-1.84-.11-2.61a14.64,14.64,0,0,0-.31-2,6.84,6.84,0,0,0-.52-1.53,3.88,3.88,0,0,0-.78-1.05,2.61,2.61,0,0,0-1-.6,4.08,4.08,0,0,0-1.3-.19,3.4,3.4,0,0,0-2.08.6,4,4,0,0,0-1.25,1.66,8.51,8.51,0,0,0-.63,2.46,26.47,26.47,0,0,0-.16,3,26,26,0,0,0,.22,3.71,8,8,0,0,0,.72,2.49,3.19,3.19,0,0,0,1.25,1.4,3.63,3.63,0,0,0,1.84.44,3.79,3.79,0,0,0,1.48-.27,3.07,3.07,0,0,0,1.1-.78,4.3,4.3,0,0,0,.76-1.21,8.4,8.4,0,0,0,.48-1.56,14.43,14.43,0,0,0,.25-1.86C185.5,182.19,185.53,181.5,185.53,180.77Z"/><path d="M196.39,185.58a.15.15,0,0,1-.17-.17,3.85,3.85,0,0,1,.13-1c.08-.34.19-.52.32-.54l2.71-.38c.91-.12,1.81-.23,2.71-.32a.29.29,0,0,1,.16,0,.16.16,0,0,1,.07.13,4,4,0,0,1-.13,1,.61.61,0,0,1-.47.52l-2.58.38C198.27,185.37,197.35,185.48,196.39,185.58Z"/><path d="M220.91,190.46l-.68,0-1.17,0-1.37-.06-1.29,0-1.48,0-1.87,0-1.63,0-.89,0a.82.82,0,0,1-.33-.17c-.16-.11-.24-.22-.24-.31a.32.32,0,0,1,.09-.25,1.88,1.88,0,0,1,.2-.2l4.57-4.86a13.3,13.3,0,0,0,2.3-3.27,8.24,8.24,0,0,0,.86-3.67,3.1,3.1,0,0,0-.79-2.21,2.61,2.61,0,0,0-2-.83,3.74,3.74,0,0,0-2,.6,5.16,5.16,0,0,0-1.54,1.51,1.64,1.64,0,0,1-.28.31.55.55,0,0,1-.37.14c-.1,0-.18-.07-.27-.22a1.2,1.2,0,0,1-.13-.57,2.08,2.08,0,0,1,.43-1,6.22,6.22,0,0,1,1.18-1.28,6.88,6.88,0,0,1,1.81-1.1,5.63,5.63,0,0,1,2.26-.45,4.65,4.65,0,0,1,2.42.6,4,4,0,0,1,1.55,1.67,5.24,5.24,0,0,1,.24,4.07,8.78,8.78,0,0,1-.77,1.75,10.46,10.46,0,0,1-1.07,1.56c-.25.3-.6.68-1.06,1.15s-.95,1-1.47,1.48l-1.48,1.47-1.14,1.14a2.15,2.15,0,0,0-.44.51c0,.08.13.13.39.17s.72.07,1.15.09l1.37,0,1.51,0c.49,0,1,0,1.45-.09a7.13,7.13,0,0,0,1.21-.17,1.65,1.65,0,0,0,.78-.42,3.64,3.64,0,0,0,.63-.88c.08-.11.18-.24.31-.39a.58.58,0,0,1,.43-.23.22.22,0,0,1,.22.14.49.49,0,0,1,0,.29c-.06.22-.15.52-.28.9s-.27.78-.4,1.2-.23.82-.31,1.2a.66.66,0,0,1-.27.52A.76.76,0,0,1,220.91,190.46Z"/><path d="M243,180.59a22.47,22.47,0,0,1-.35,4.1,9.43,9.43,0,0,1-1.18,3.18,5.79,5.79,0,0,1-2.14,2.06,6.63,6.63,0,0,1-3.26.73A6.54,6.54,0,0,1,233,190a5,5,0,0,1-2-1.92,9.15,9.15,0,0,1-1.09-3.13,25.73,25.73,0,0,1-.32-4.27,21.51,21.51,0,0,1,.36-4.08,9.62,9.62,0,0,1,1.17-3.19,5.71,5.71,0,0,1,2.14-2.06,6.59,6.59,0,0,1,3.25-.73,6.71,6.71,0,0,1,3.1.65,5.08,5.08,0,0,1,2,1.93,9.15,9.15,0,0,1,1.09,3.13A25.69,25.69,0,0,1,243,180.59Zm-2.65.18c0-1,0-1.84-.1-2.61a14.64,14.64,0,0,0-.31-2,6.83,6.83,0,0,0-.53-1.53,3.66,3.66,0,0,0-.77-1.05,2.69,2.69,0,0,0-1-.6,4.08,4.08,0,0,0-1.3-.19,3.36,3.36,0,0,0-2.08.6A4,4,0,0,0,233,175a8.51,8.51,0,0,0-.63,2.46,26.47,26.47,0,0,0-.16,3,26,26,0,0,0,.22,3.71,8,8,0,0,0,.72,2.49,3.24,3.24,0,0,0,1.24,1.4,3.7,3.7,0,0,0,1.85.44,3.79,3.79,0,0,0,1.48-.27,3.07,3.07,0,0,0,1.1-.78,4.3,4.3,0,0,0,.76-1.21,8.4,8.4,0,0,0,.48-1.56,14.43,14.43,0,0,0,.25-1.86C240.32,182.19,240.34,181.5,240.34,180.77Z"/><path d="M263,172.26a10.09,10.09,0,0,0-2,.12,8.14,8.14,0,0,0-7,7.12h.09a6,6,0,0,1,4.84-2.31c3.54,0,6,2.55,6,6.47,0,3.66-2.5,7.05-6.66,7.05s-7.08-3.33-7.08-8.53a12.59,12.59,0,0,1,3.39-9,10.92,10.92,0,0,1,6.41-3,13.27,13.27,0,0,1,2-.15Zm-.77,11.55c0-2.86-1.64-4.59-4.13-4.59a4.47,4.47,0,0,0-3.88,2.46,2.28,2.28,0,0,0-.31,1.21c.06,3.29,1.57,5.73,4.4,5.73C260.7,188.62,262.27,186.67,262.27,183.81Z"/><path d="M285,172.26a10,10,0,0,0-2,.12,8.14,8.14,0,0,0-7,7.12h.09a6,6,0,0,1,4.84-2.31c3.54,0,6,2.55,6,6.47,0,3.66-2.5,7.05-6.66,7.05s-7.08-3.33-7.08-8.53a12.59,12.59,0,0,1,3.38-9,11,11,0,0,1,6.41-3,13.36,13.36,0,0,1,2-.15Zm-.77,11.55c0-2.86-1.63-4.59-4.12-4.59a4.48,4.48,0,0,0-3.89,2.46,2.38,2.38,0,0,0-.3,1.21c.06,3.29,1.57,5.73,4.4,5.73C282.66,188.62,284.23,186.67,284.23,183.81Z"/></svg>