<svg id="Слой_1" data-name="Слой 1" xmlns="http://www.w3.org/2000/svg" viewBox="0 0 400 400"><defs><style>.cls-1,.cls-2{fill:#fff;stroke:#000;stroke-width:3px;}.cls-1{stroke-miterlimit:10;}.cls-2{stroke-linecap:round;stroke-linejoin:round;}.cls-3{fill:#608b70;}.cls-4{fill:#b8ad99;}</style></defs><title>g3</title><path class="cls-1" d="M353.83,57.39c70.12,14.63-10,324.06-10,324.06H66.9C38.85,156.59,41.25,84.59,60.57,73.33c21.1-12.31,56.22,47,86.89,23.9,18.59-14,17.56-44.7,32.58-47.81,23.37-4.83,39.31,66.6,61.55,61.09,15.41-3.81,16-40.13,34.4-47.81C291.2,56.36,308,74,319.43,89.26,319.43,89.26,332.13,52.86,353.83,57.39Z"/><path class="cls-1" d="M302.1,268.73c18.08-11.67,26.41-44.19,16.21-54.15-3.67-3.6-7.82-2.35-10.65-7.06-3.35-5.59.82-10.09-1.87-16.07-.89-2-2.77-4.65-16-10.12-12.49-5.14-18.73-7.72-24.95-7.84-2.88-.06-19.94-.41-27.15,10.11-3.66,5.35-1,8-3.83,23.52-2.17,11.9-3.26,17.85-8.1,23-8.87,9.47-22.48,8.28-23.07,8.22-5.29-.55-8.4-2.51-17.69-8.4-19.31-12.24-29.05-18.39-33.13-19.41-14.08-3.53-26.88,3.23-30.35,4.92-1.08.53-.25.19-14.75,10.68-10.92,7.9-13.1,9.36-15.5,13C89.79,241.28,84,250,87.56,257.37c2.88,6.08,11,9.2,13,7.35,2.32-2.12-4.6-9.67-1.63-14.11,2.47-3.69,10-2.69,18-1.65,8.65,1.15,13,1.72,16.67,4.92,5.19,4.52,3.14,8.72,8.5,20.72,3.63,8.1,6.29,14,12.22,17.8,8.05,5.1,12.82.25,21.87,5.56,7.71,4.52,11.07,12,12.15,14.44,4.57,10.2.11,14,2.84,23.86,3.79,13.65,17.44,24.68,31.21,27.33,6.41,1.23,11.25.34,18.84-1.06,10.22-1.88,22.38-4.11,31-14,6.23-7.14,7.95-15.26,9.45-22.36,2.29-10.81-.45-11,1.47-23.81,1.36-9.07,3.63-22.92,14.33-30.88C299.5,270,299.84,270.19,302.1,268.73Z"/><path class="cls-2" d="M241.48,318.85a9.23,9.23,0,0,1-18.18-1.76"/><path class="cls-2" d="M223.3,295.15a9.23,9.23,0,0,1,18.18-1.78"/><rect class="cls-1" x="207.64" y="280.73" width="51.05" height="51.05"/><polyline class="cls-2" points="247.66 246.2 247.66 212.13 278.83 212.13 288.58 212.13"/><polyline class="cls-2" points="288.58 219.85 288.58 253.05 247.66 253.05"/><path class="cls-3" d="M249.92,306.17a7.69,7.69,0,1,1-7.68-7.68,7.69,7.69,0,0,1,7.68,7.68"/><polygon class="cls-4" points="221.87 301.76 225.08 297.65 224.88 302.86 229.98 301.76 226.49 305.63 231.1 308.07 225.93 308.79 227.89 313.62 223.47 310.85 221.87 315.81 220.27 310.85 215.85 313.62 217.82 308.79 212.65 308.07 217.26 305.63 213.76 301.76 218.86 302.86 218.67 297.65 221.87 301.76"/><polygon class="cls-4" points="265.95 228.4 267.86 222.49 269.76 228.4 275.03 225.11 272.68 230.86 278.83 231.71 273.34 234.61 277.5 239.22 271.43 237.91 271.65 244.12 267.85 239.21 264.03 244.11 264.26 237.9 258.19 239.2 262.36 234.6 256.88 231.69 263.03 230.85 260.7 225.09 265.95 228.4"/><path d="M175.87,140.57a.87.87,0,0,1-.34-.75c0-.61.37-.91,1.1-.91h.52a2.82,2.82,0,0,0,2.37-1.74,14.47,14.47,0,0,0,1.5-4.35,27.3,27.3,0,0,0,.5-5.11A2.48,2.48,0,0,0,181,126a2.62,2.62,0,0,0-1.93-.53s-.07,0-.07-.15,0-.15.07-.15h12s.05,0,.05.15,0,.15-.05.15a4.94,4.94,0,0,0-1.34.13.89.89,0,0,0-.58.48,2.66,2.66,0,0,0-.16,1.08v11.37a2.71,2.71,0,0,0,.16,1.09.84.84,0,0,0,.58.48,4.94,4.94,0,0,0,1.34.13s.05,0,.05.14,0,.15-.05.15l-1.25,0-1.74,0-1.82,0-1.28,0s0-.05,0-.15,0-.14,0-.14a4.78,4.78,0,0,0,1.35-.13.82.82,0,0,0,.57-.46,3,3,0,0,0,.15-1.11v-11.2a4.26,4.26,0,0,0-.09-1.1.5.5,0,0,0-.39-.34,6.36,6.36,0,0,0-1.24-.08H184a3.49,3.49,0,0,0-1.11.13.9.9,0,0,0-.54.51,3.44,3.44,0,0,0-.17,1.25,35.5,35.5,0,0,1-.48,5.55,16.86,16.86,0,0,1-1.68,5.29,3.6,3.6,0,0,1-3.19,2.28A1.54,1.54,0,0,1,175.87,140.57Z"/><path d="M197.41,140.64a1.18,1.18,0,0,1-.45-.07.27.27,0,0,1-.18-.24A.33.33,0,0,1,197,140a2.53,2.53,0,0,1,.49-.23,3.53,3.53,0,0,0,1.1-.54,2.51,2.51,0,0,0,.81-1.1c.41-.91.78-1.79,1.13-2.62s.67-1.65,1-2.46l1-2.51c.33-.86.67-1.78,1-2.75.13-.35.23-.64.29-.87a3.26,3.26,0,0,0,.11-.62,3.84,3.84,0,0,0,.54-.15,3.35,3.35,0,0,0,.54-.23,1,1,0,0,0,.42-.4,2.8,2.8,0,0,1,.23-.37l.1,0s.07,0,.1.08a1,1,0,0,1,.11.25c0,.09,0,.18.07.29.35,1.09.7,2.21,1.07,3.34s.73,2.24,1.09,3.32.7,2.08,1,3l.81,2.42a3.21,3.21,0,0,0,.58,1.13,2.31,2.31,0,0,0,.72.59,3.52,3.52,0,0,0,.83.28,1.11,1.11,0,0,1,.51.2.4.4,0,0,1,.17.31.22.22,0,0,1-.17.2,1.61,1.61,0,0,1-.42.05l-.94,0-1.22-.06-1.14,0h-.95l-1,0c-.3,0-.57,0-.8,0a.89.89,0,0,1-.43-.08c-.12-.05-.17-.12-.17-.21a.31.31,0,0,1,.2-.29,1.3,1.3,0,0,1,.47-.16,2.56,2.56,0,0,0,1.11-.4.72.72,0,0,0,.29-.72,6.35,6.35,0,0,0-.16-1c-.09-.38-.2-.79-.32-1.21l-.33-1.18a.32.32,0,0,0-.16-.23,1.17,1.17,0,0,0-.38,0h-4.16a.28.28,0,0,0-.21.08.78.78,0,0,0-.18.3,5.43,5.43,0,0,1-.21.68c-.1.28-.19.57-.28.88s-.17.59-.24.86a5.43,5.43,0,0,0-.12.57,1,1,0,0,0,.28.89,2.34,2.34,0,0,0,1,.5c.45.12.67.27.67.45a.22.22,0,0,1-.17.22,1.36,1.36,0,0,1-.44.05c-.28,0-.61,0-1,0l-1.19,0a12.56,12.56,0,0,0-1.39.07C198.24,140.62,197.81,140.64,197.41,140.64Zm5.33-6.5H206c.21,0,.31,0,.31-.11a.37.37,0,0,0,0-.11s0-.08,0-.14l-1.66-5.33q-.12-.36-.18-.36s-.09.12-.16.34l-2,5.35a.65.65,0,0,0,0,.18.14.14,0,0,0,.12.15A1.42,1.42,0,0,0,202.74,134.14Z"/><path d="M218.07,140.53v-.45a4.62,4.62,0,0,0,1.16-.18.82.82,0,0,0,.53-.54,4,4,0,0,0,.14-1.21V127a4,4,0,0,0-.14-1.22.84.84,0,0,0-.53-.54,3.6,3.6,0,0,0-1.16-.17v-.45l1.24,0c.51,0,1.06,0,1.64,0s1.05,0,1.56,0l1.3,0v.45a3.6,3.6,0,0,0-1.16.17.84.84,0,0,0-.53.54A4.08,4.08,0,0,0,222,127v11.16a4.09,4.09,0,0,0,.13,1.21.82.82,0,0,0,.53.54,4.62,4.62,0,0,0,1.16.18v.45c-.35,0-.78-.05-1.3-.06h-3.2C218.8,140.48,218.39,140.5,218.07,140.53Zm3.13-7.78v-.45h8.88v.45Zm6.27,7.78v-.45a4.62,4.62,0,0,0,1.16-.18.82.82,0,0,0,.53-.54,4,4,0,0,0,.14-1.21V127a4,4,0,0,0-.14-1.22.84.84,0,0,0-.53-.54,3.6,3.6,0,0,0-1.16-.17v-.45l1.31,0,1.55,0c.59,0,1.13,0,1.64,0l1.24,0v.45a3.6,3.6,0,0,0-1.16.17.84.84,0,0,0-.53.54,4.08,4.08,0,0,0-.13,1.22v11.16a4.09,4.09,0,0,0,.13,1.21.82.82,0,0,0,.53.54,4.62,4.62,0,0,0,1.16.18v.45c-.32,0-.73-.05-1.24-.06h-3.19C228.25,140.48,227.82,140.5,227.47,140.53Z"/><path d="M245.91,124.5l5.49,14.14a2.4,2.4,0,0,0,.77,1.14,1.53,1.53,0,0,0,.78.3v.45c-.3,0-.66-.05-1.1-.06h-2.94c-.51,0-.93,0-1.24.06v-.45a2.21,2.21,0,0,0,1.46-.39c.21-.23.16-.73-.13-1.5L244.81,127l.36-.3-3.91,10.17a5,5,0,0,0-.45,1.9,1.09,1.09,0,0,0,.52,1,3,3,0,0,0,1.44.31v.45q-.63,0-1.32-.06h-2.23c-.26,0-.5,0-.73.06v-.45a2.23,2.23,0,0,0,.93-.53,3.65,3.65,0,0,0,.85-1.42l5.28-13.63h.36Zm2.75,9.55v.45H242l.22-.45Z"/><path d="M150.84,164.4V152.21h-3.51v-2.12c2.34-.06,3.49-.22,4.26-2H154V164.4Z"/><path d="M161.64,165.09a.41.41,0,0,1-.25-.05.19.19,0,0,1-.07-.12.18.18,0,0,1,.1-.17.43.43,0,0,1,.22-.06,3.64,3.64,0,0,0,1.56-.44,9.47,9.47,0,0,0,1.8-1.19,10.36,10.36,0,0,0,1.63-1.68,10.9,10.9,0,0,0,1.16-1.84,8.36,8.36,0,0,0,.64-1.86,10.05,10.05,0,0,0,.2-2,5.38,5.38,0,0,0-.26-1.62,6.08,6.08,0,0,0-.69-1.48,3.92,3.92,0,0,0-1-1.08,2,2,0,0,0-1.18-.41,1.84,1.84,0,0,0-1.21.4,2.39,2.39,0,0,0-.74,1,2.76,2.76,0,0,0-.25,1.14,3.19,3.19,0,0,0,1.19,2.39,1.82,1.82,0,0,0,1.13.42,2.12,2.12,0,0,0,1-.19l.76-.4c.06,0,.11,0,.15.07s0,.14,0,.18a1.49,1.49,0,0,1-.34.44,5.24,5.24,0,0,1-.4.35c-.1.07-.27.17-.49.29a5.13,5.13,0,0,1-.75.32,2.57,2.57,0,0,1-.83.13,3.19,3.19,0,0,1-1.49-.37,3.38,3.38,0,0,1-1.2-1,2.48,2.48,0,0,1-.46-1.45,4,4,0,0,1,.34-1.55,5.06,5.06,0,0,1,1-1.46,4.77,4.77,0,0,1,1.47-1.06,4.3,4.3,0,0,1,1.87-.41,3.2,3.2,0,0,1,1.58.44,5.14,5.14,0,0,1,1.4,1.17,5.93,5.93,0,0,1,1,1.65,5.2,5.2,0,0,1,.36,1.89,8.21,8.21,0,0,1-.38,2.58,9.08,9.08,0,0,1-1.1,2.26,18.21,18.21,0,0,1-1.76,2.2,7.08,7.08,0,0,1-1.34,1.17,9.79,9.79,0,0,1-1.51.83,7.77,7.77,0,0,1-1.5.5A6.5,6.5,0,0,1,161.64,165.09Z"/><path d="M176.93,165.09a.41.41,0,0,1-.25-.05.17.17,0,0,1-.06-.12.17.17,0,0,1,.1-.17.39.39,0,0,1,.21-.06,3.64,3.64,0,0,0,1.56-.44,8.88,8.88,0,0,0,1.8-1.19,10.36,10.36,0,0,0,1.63-1.68,10.9,10.9,0,0,0,1.16-1.84,7.88,7.88,0,0,0,.64-1.86,9.38,9.38,0,0,0,.2-2,5.36,5.36,0,0,0-.25-1.62,6.5,6.5,0,0,0-.7-1.48,3.89,3.89,0,0,0-1-1.08,2.06,2.06,0,0,0-1.18-.41,1.87,1.87,0,0,0-1.22.4,2.39,2.39,0,0,0-.74,1,2.76,2.76,0,0,0-.25,1.14,2.87,2.87,0,0,0,.33,1.32,3,3,0,0,0,.86,1.07,1.82,1.82,0,0,0,1.13.42,2.12,2.12,0,0,0,1-.19c.23-.13.48-.26.77-.4.06,0,.11,0,.14.07s0,.14,0,.18a1.68,1.68,0,0,1-.34.44,5.19,5.19,0,0,1-.41.35c-.1.07-.27.17-.49.29a5,5,0,0,1-.74.32,2.63,2.63,0,0,1-.84.13,3.22,3.22,0,0,1-1.49-.37,3.26,3.26,0,0,1-1.19-1,2.41,2.41,0,0,1-.46-1.45,4,4,0,0,1,.33-1.55,5.27,5.27,0,0,1,1-1.46,4.77,4.77,0,0,1,1.47-1.06,4.3,4.3,0,0,1,1.87-.41,3.17,3.17,0,0,1,1.58.44,5,5,0,0,1,1.4,1.17,6,6,0,0,1,1,1.65,5.2,5.2,0,0,1,.36,1.89,8.21,8.21,0,0,1-.39,2.58,9.08,9.08,0,0,1-1.1,2.26,18.08,18.08,0,0,1-1.75,2.2,7.46,7.46,0,0,1-1.35,1.17,9.79,9.79,0,0,1-1.51.83,7.91,7.91,0,0,1-1.49.5A6.67,6.67,0,0,1,176.93,165.09Z"/><path d="M201.89,145.86h.83c0,.24,0,.56,0,1s0,.79-.1,1.2-.11.8-.17,1.17a6.19,6.19,0,0,1-.2.84H195.5l-.44,3.51h2a7.62,7.62,0,0,1,2.41.36,5.24,5.24,0,0,1,1.84,1,4.58,4.58,0,0,1,1.18,1.65,6.22,6.22,0,0,1-.11,4.71,5.56,5.56,0,0,1-1.44,1.84,6.59,6.59,0,0,1-2.14,1.16,8.41,8.41,0,0,1-2.65.4,7.24,7.24,0,0,1-2.6-.45,6.91,6.91,0,0,1-1.89-1l1-2.43h.71a3.64,3.64,0,0,1,.39.44l.47.56.47.59.39.52.45.15a2.75,2.75,0,0,0,.56,0,3.63,3.63,0,0,0,1.37-.26,3.08,3.08,0,0,0,1.09-.73,3.4,3.4,0,0,0,.73-1.11,3.77,3.77,0,0,0,.27-1.44,3.29,3.29,0,0,0-.33-1.51,3,3,0,0,0-.9-1.07,4,4,0,0,0-1.32-.62,6,6,0,0,0-1.6-.21l-2.14,0,1-9h6.4Z"/><path d="M210.29,160.57c-.09,0-.14,0-.14-.13a3.64,3.64,0,0,1,.1-.79c.07-.27.16-.41.26-.43l2.16-.3c.72-.1,1.44-.18,2.16-.26a.2.2,0,0,1,.13,0,.11.11,0,0,1,0,.1,3,3,0,0,1-.1.8c-.07.24-.19.38-.37.41l-2.06.31C211.78,160.41,211.05,160.5,210.29,160.57Z"/><path d="M229.83,164.46h-.54l-.93,0-1.09,0-1,0-1.18,0-1.48,0-1.31,0h-.71a.57.57,0,0,1-.25-.13c-.13-.09-.2-.17-.2-.25a.28.28,0,0,1,.07-.2l.16-.16,3.64-3.87a10.6,10.6,0,0,0,1.84-2.61,6.62,6.62,0,0,0,.68-2.92,2.49,2.49,0,0,0-.63-1.77,2.08,2.08,0,0,0-1.57-.66,3,3,0,0,0-1.63.48,4.18,4.18,0,0,0-1.23,1.21,1,1,0,0,1-.22.24.44.44,0,0,1-.3.12q-.1,0-.21-.18a.88.88,0,0,1-.1-.45,1.58,1.58,0,0,1,.34-.8,4.85,4.85,0,0,1,.94-1,5.72,5.72,0,0,1,1.44-.88,4.49,4.49,0,0,1,1.8-.36,3.71,3.71,0,0,1,1.93.48,3.24,3.24,0,0,1,1.24,1.33,4.11,4.11,0,0,1,.43,1.92,4.21,4.21,0,0,1-.24,1.33,7.48,7.48,0,0,1-.62,1.39,8,8,0,0,1-.85,1.24c-.2.24-.48.55-.84.92L226,160l-1.18,1.17-.92.91a1.8,1.8,0,0,0-.34.41c0,.06.1.1.31.13s.57.06.91.07.7,0,1.09,0,.81,0,1.21,0,.78,0,1.15-.07a6,6,0,0,0,1-.13,1.31,1.31,0,0,0,.62-.34,3,3,0,0,0,.51-.7,2.4,2.4,0,0,1,.24-.31.46.46,0,0,1,.34-.18.18.18,0,0,1,.18.11.37.37,0,0,1,0,.23c0,.18-.12.42-.22.72s-.21.61-.32,1a8.41,8.41,0,0,0-.24,1,.56.56,0,0,1-.22.41A.53.53,0,0,1,229.83,164.46Z"/><path d="M247.43,156.6a18.29,18.29,0,0,1-.28,3.27,7.44,7.44,0,0,1-.94,2.53A4.41,4.41,0,0,1,244.5,164a6,6,0,0,1-5.06.06,4,4,0,0,1-1.61-1.53,7.16,7.16,0,0,1-.87-2.49,19.19,19.19,0,0,1-.26-3.4,16.47,16.47,0,0,1,.29-3.26,7.62,7.62,0,0,1,.93-2.54,4.46,4.46,0,0,1,1.7-1.64,6,6,0,0,1,5.07-.06,4,4,0,0,1,1.61,1.53,7.14,7.14,0,0,1,.87,2.5A20.06,20.06,0,0,1,247.43,156.6Zm-2.11.15c0-.78,0-1.47-.08-2.09A12.8,12.8,0,0,0,245,153a5.6,5.6,0,0,0-.42-1.22A2.87,2.87,0,0,0,244,151a2,2,0,0,0-.82-.47,3.35,3.35,0,0,0-1-.15,2.59,2.59,0,0,0-1.65.48,3.12,3.12,0,0,0-1,1.31,6.84,6.84,0,0,0-.5,2,20.44,20.44,0,0,0-.13,2.42,20.66,20.66,0,0,0,.18,3,6.49,6.49,0,0,0,.57,2,2.61,2.61,0,0,0,1,1.12,3,3,0,0,0,1.47.34,3.07,3.07,0,0,0,1.18-.21,2.47,2.47,0,0,0,.88-.62,3.56,3.56,0,0,0,.6-1,7.32,7.32,0,0,0,.39-1.25,10.85,10.85,0,0,0,.19-1.48C245.3,157.88,245.32,157.32,245.32,156.75Z"/><path d="M264.14,159.41c0-2.55-2.28-3.38-5.13-3.38h-.37v-2h.3c3.11,0,4.73-.86,4.73-3,0-1.89-1.57-2.9-3.46-2.9a3.59,3.59,0,0,0-3.88,3.47H254c.27-3.15,2.5-5.33,6.23-5.33,3.07,0,5.77,1.25,5.77,4.52a4.33,4.33,0,0,1-2.9,4.12,4.31,4.31,0,0,1,3.39,4.47c0,3.58-3,5.33-6.43,5.33-4.22,0-6.06-2.61-6.33-5.58h2.3a3.8,3.8,0,0,0,4.06,3.71C262.47,162.85,264.14,161.65,264.14,159.41Z"/><path d="M276,164.4V152.21h-3.51v-2.12c2.34-.06,3.48-.22,4.25-2h2.36V164.4Z"/></svg>