<svg id="Слой_1" data-name="Слой 1" xmlns="http://www.w3.org/2000/svg" viewBox="0 0 400 400"><defs><style>.cls-1,.cls-2{fill:#fff;stroke:#000;stroke-width:3px;}.cls-1{stroke-miterlimit:10;}.cls-2{stroke-linecap:round;stroke-linejoin:round;}.cls-3{fill:#608b70;}.cls-4{fill:#b8ad99;}</style></defs><title>g44</title><path class="cls-1" d="M351.83,386H50.05s-53.35-256.76,0-311.9,254.36-60.64,301.78,0S351.83,386,351.83,386Z"/><path class="cls-1" d="M214.61,165c-5.65-4.28-15.16-4.18-21.48-2.27-9.06,2.74-8.52,8.31-19.68,15.89C163,185.68,159.3,183,150.18,189.2c-10.62,7.18-10.65,14.21-17.89,23.46-3.6,4.6-16.67,18.42-36.69,22.7-11.91,2.55-15.26-.74-22.37,3-10.82,5.73-16.44,20.43-11.63,31,3.82,8.42,11.29,7.77,28.63,19.67,13.72,9.43,26.7,18.34,29.53,31,3.82,17.14-9.89,20.63-4.47,25.1,4.89,4,19.23,6,31.31-2.4,13.13-9.13,11.48-14.44,22.37-19.67,18-8.63,38.42-1.85,39.38-1.52,13,4.51,19.79,13.32,24.15,18.92,10.17,13,5.82,18.09,13.43,23.46,13.22,9.34,39.86,3.59,56.37-6.05,3.95-2.31,13.26-7.88,19.69-18.17,16-25.62-10.33-41.49-10.74-93.07-.14-17.88,2.89-32.12-8.06-39.36-9.18-6.07-18.81-1-27.73-7.56-14.52-10.67-4.35-35.29-10.74-37.08-2.93-.82-6.91,8.43-21.48,22.7-3.51,3.44-7,6.56-10.74,6.05-2.12-.29-4.08-1.72-8.05-8.32C217.42,171.45,219,168.28,214.61,165Z"/><path class="cls-2" d="M287.1,324.29a6.94,6.94,0,0,1-11.45,7.81"/><path class="cls-2" d="M157.66,229a20.66,20.66,0,0,1,19-9.15c10.17,1,15.25,9.4,15.74,10.25"/><path class="cls-2" d="M192.07,235.1a20.69,20.69,0,0,1-19,9.15c-10.17-1-15.25-9.4-15.74-10.25"/><path class="cls-1" d="M198.77,231.68A23.78,23.78,0,1,1,175,207.9,23.77,23.77,0,0,1,198.77,231.68Z"/><path class="cls-2" d="M304.26,306.82c4.6,6.94-3.26,20.25-17.55,29.72s-29.61,11.52-34.21,4.57,3.25-20.25,17.55-29.72S299.66,299.87,304.26,306.82Z"/><path d="M126.4,64.05V66c4.53.19,9.06,2.93,9.06,9.7s-4.53,9.35-9.1,9.6v2h-2.68v-2c-4.5-.28-9.06-2.68-9.06-9.47,0-7,5-9.58,9.13-9.83V64.05ZM123.72,68c-2.81.16-6.23,2.1-6.23,7.69,0,5.14,3.07,7.3,6.23,7.62Zm2.64,15.31c3.1-.25,6.22-2.33,6.22-7.65,0-5.52-3.12-7.5-6.22-7.66Z"/><path d="M152.11,65.73v.59a4.74,4.74,0,0,0-1.47.21,1.13,1.13,0,0,0-.67.71,5.55,5.55,0,0,0-.17,1.59V83.32A5.62,5.62,0,0,0,150,84.9a1,1,0,0,0,.67.7,5.64,5.64,0,0,0,1.47.24v.58c-.47,0-1.06-.06-1.77-.07l-2.18,0-2.29,0c-.71,0-1.29,0-1.74.07v-.58a5.72,5.72,0,0,0,1.47-.24,1,1,0,0,0,.68-.7,6.11,6.11,0,0,0,.16-1.58V68.83a6,6,0,0,0-.16-1.59,1.09,1.09,0,0,0-.68-.71,4.79,4.79,0,0,0-1.47-.21v-.59l1.74.06c.71,0,1.47,0,2.29,0s1.47,0,2.18,0Zm7.71,1.81q0,.61,0,1.26l-11,16.57,0-1.11ZM165,65.73v.59a4.67,4.67,0,0,0-1.46.21,1.13,1.13,0,0,0-.67.71,5.21,5.21,0,0,0-.17,1.59V83.32a5.27,5.27,0,0,0,.17,1.58,1,1,0,0,0,.67.7,5.55,5.55,0,0,0,1.46.24v.58c-.42,0-1-.06-1.72-.07l-2.31,0-2.15,0c-.73,0-1.33,0-1.79.07v-.58a5.55,5.55,0,0,0,1.46-.24,1,1,0,0,0,.67-.7,5.27,5.27,0,0,0,.17-1.58V68.83a5.21,5.21,0,0,0-.17-1.59,1.13,1.13,0,0,0-.67-.71,4.67,4.67,0,0,0-1.46-.21v-.59l1.79.06,2.15,0q1.23,0,2.31,0Z"/><path d="M179.52,87.21a2.12,2.12,0,0,1-.62-.07c-.15,0-.23-.14-.23-.25s.32-.41,1-.53a10.7,10.7,0,0,0,1.7-.42c.39-.15.58-.51.58-1.1V84.2a10.19,10.19,0,0,1-4.4-1,7.85,7.85,0,0,1-3.2-2.72,7.39,7.39,0,0,1-1.19-4.22,6.79,6.79,0,0,1,1.18-4,7.8,7.8,0,0,1,3.19-2.63,10.18,10.18,0,0,1,4.42-.94V68a.79.79,0,0,0-.42-.7,4.84,4.84,0,0,0-1.54-.47c-.64-.12-1-.31-1-.58s.08-.2.23-.25a2.07,2.07,0,0,1,.62-.08c.52,0,1,0,1.3,0l1,.05h2.19l.88-.05c.31,0,.73,0,1.25,0a2.07,2.07,0,0,1,.62.08c.15,0,.23.13.23.25a.44.44,0,0,1-.23.35,2.41,2.41,0,0,1-.73.23,5.8,5.8,0,0,0-1.58.47.79.79,0,0,0-.5.7v.7a11.7,11.7,0,0,1,3.38.48,8.91,8.91,0,0,1,2.82,1.42,6.75,6.75,0,0,1,1.92,2.27,6.32,6.32,0,0,1,.71,3,8.32,8.32,0,0,1-.68,3.4A7.29,7.29,0,0,1,190.52,82a8.67,8.67,0,0,1-2.82,1.67,10,10,0,0,1-3.45.58v.64a1.18,1.18,0,0,0,.28.87,1.63,1.63,0,0,0,.79.39c.34.08.75.17,1.24.26a2.85,2.85,0,0,1,.73.21.33.33,0,0,1,.23.32c0,.11-.07.2-.23.25a2.09,2.09,0,0,1-.61.07c-.53,0-1,0-1.3,0l-1-.08q-.48,0-1.14,0c-.49,0-.91,0-1.27,0l-1.11.08C180.5,87.2,180,87.21,179.52,87.21Zm2.39-4V69.65a6.35,6.35,0,0,0-3.24.79,5.37,5.37,0,0,0-2.12,2.16,6.35,6.35,0,0,0-.75,3.1,10.81,10.81,0,0,0,.38,2.9A7.39,7.39,0,0,0,177.34,81a5.28,5.28,0,0,0,1.91,1.64A5.76,5.76,0,0,0,181.91,83.24Zm2.34.05a5.66,5.66,0,0,0,5.41-3.37,8.33,8.33,0,0,0,.73-3.52,7.85,7.85,0,0,0-.72-3.38,6,6,0,0,0-2.07-2.45,5.79,5.79,0,0,0-3.35-.92Z"/><path d="M206.49,85.42a9.48,9.48,0,0,1-3.58-3.77,10.87,10.87,0,0,1-1.26-5.18,9.58,9.58,0,0,1,1.66-5.64,10.48,10.48,0,0,1,4.26-3.52,12.69,12.69,0,0,1,5.31-1.18,9.9,9.9,0,0,1,5.33,1.42,9.56,9.56,0,0,1,3.53,3.75A10.42,10.42,0,0,1,223,76.24a9.79,9.79,0,0,1-1.53,5.33,11.05,11.05,0,0,1-4.11,3.83,11.34,11.34,0,0,1-5.56,1.4A10.1,10.1,0,0,1,206.49,85.42Zm10.3-.34A7.23,7.23,0,0,0,219.54,82a10.88,10.88,0,0,0,1-4.85,12.1,12.1,0,0,0-1.12-5.33,8.37,8.37,0,0,0-7.88-5,6.88,6.88,0,0,0-5.48,2.27,9.12,9.12,0,0,0-2,6.22,13.21,13.21,0,0,0,1.11,5.47,9.35,9.35,0,0,0,3.13,3.89,7.69,7.69,0,0,0,4.56,1.42A7.41,7.41,0,0,0,216.79,85.08Z"/><path d="M239.42,65.73v.61a3.2,3.2,0,0,0-1.2.19,1.16,1.16,0,0,0-.62.68,4.43,4.43,0,0,0-.17,1.38v5.53a7.36,7.36,0,0,0,.2,1.81,1.85,1.85,0,0,0,.87,1.15,3.79,3.79,0,0,0,2,.4,14.1,14.1,0,0,0,2.41-.19,10.4,10.4,0,0,0,1.88-.48v.52a13.77,13.77,0,0,1-2.33.72,14.39,14.39,0,0,1-3.25.36,9.37,9.37,0,0,1-2.35-.27,6.55,6.55,0,0,1-1.77-.75,3.29,3.29,0,0,1-1.28-1.58,6.93,6.93,0,0,1-.36-2.45V68.59a4.11,4.11,0,0,0-.18-1.38,1.19,1.19,0,0,0-.66-.68,3.77,3.77,0,0,0-1.32-.19v-.61l1.84.07c.8,0,1.59,0,2.37,0s1.51,0,2.24,0Zm11.6,0v.59a4.5,4.5,0,0,0-1.43.21,1.06,1.06,0,0,0-.66.71,5.63,5.63,0,0,0-.16,1.59V83.32a5.69,5.69,0,0,0,.16,1.58,1,1,0,0,0,.66.7,5.36,5.36,0,0,0,1.43.24v.58c-.55,0-1.2-.06-2-.07l-2.37,0-2.79,0c-.9,0-1.64,0-2.2.07v-.61a8.66,8.66,0,0,0,1.94-.21,1.24,1.24,0,0,0,.89-.73,4.41,4.41,0,0,0,.23-1.66V68.83a5.63,5.63,0,0,0-.16-1.59,1.06,1.06,0,0,0-.64-.71,4.5,4.5,0,0,0-1.45-.21v-.59l1.86.06c.77,0,1.59,0,2.47,0s1.55,0,2.31,0Z"/><path d="M274,86a.35.35,0,0,1-.07.23.39.39,0,0,1-.21.16,1.49,1.49,0,0,1-.41.09,5.92,5.92,0,0,1-.65,0,7,7,0,0,1-.73,0,1.61,1.61,0,0,1-.43-.12.57.57,0,0,1-.25-.2.92.92,0,0,1-.14-.28L269.3,81a8.69,8.69,0,0,0-.83-1.7,4.83,4.83,0,0,0-1-1.16,4,4,0,0,0-1.33-.67,5.87,5.87,0,0,0-1.69-.22H263.3V86a.37.37,0,0,1-.06.21.34.34,0,0,1-.22.15,2.23,2.23,0,0,1-.41.1,6.95,6.95,0,0,1-1.29,0,2.61,2.61,0,0,1-.42-.1.4.4,0,0,1-.22-.15.37.37,0,0,1-.06-.21V66.65a.36.36,0,0,1,.06-.2.45.45,0,0,1,.22-.15,1.9,1.9,0,0,1,.42-.09,5.22,5.22,0,0,1,1.29,0,1.68,1.68,0,0,1,.41.09.38.38,0,0,1,.22.15.36.36,0,0,1,.06.2v8.24h1.12a5.38,5.38,0,0,0,1.64-.22A3.65,3.65,0,0,0,267.3,74a4.39,4.39,0,0,0,.95-1.15A9.34,9.34,0,0,0,269,71.2l1.53-4.39a1,1,0,0,1,.12-.28.59.59,0,0,1,.23-.21,1.41,1.41,0,0,1,.43-.11,4.61,4.61,0,0,1,.71,0,5.86,5.86,0,0,1,.66,0,1.61,1.61,0,0,1,.39.09.33.33,0,0,1,.2.16.48.48,0,0,1,0,.22,1.37,1.37,0,0,1-.05.38l-.15.49-1.6,4.19a13.83,13.83,0,0,1-.71,1.64,6.65,6.65,0,0,1-.8,1.17,4.45,4.45,0,0,1-.95.81,5.09,5.09,0,0,1-1.16.51v0a7.48,7.48,0,0,1,1.3.61,5.77,5.77,0,0,1,1.06.87,6.34,6.34,0,0,1,.88,1.24,13.59,13.59,0,0,1,.8,1.73l1.9,4.8c.1.27.16.46.19.57A1.68,1.68,0,0,1,274,86Z"/><path d="M299,86.42h-3L294.6,82h-8.48l-1.43,4.44h-2.88l6.76-20.36h3.8ZM293.8,79.5l-3.44-10.89L286.92,79.5Z"/><path class="cls-3" d="M287.53,314.06a5.77,5.77,0,1,1-8-1.51,5.78,5.78,0,0,1,8,1.51"/><polygon class="cls-4" points="268.28 323.19 268.52 319.29 270.61 322.6 273.31 319.76 272.77 323.64 276.66 323.2 273.76 325.83 277.02 328 273.11 328.15 274.22 331.9 271.13 329.5 269.56 333.09 268.73 329.26 265.23 331 267.06 327.54 263.25 326.62 266.88 325.14 264.55 322 268.28 323.19"/><path d="M287.07,324.3a0,0,0,0,1,0,0s0,0,0,0,0,0,0,0a0,0,0,0,1,0,0"/><path d="M275.67,332.08a0,0,0,0,0,0,0,0,0,0,0,0,0,.05h0a0,0,0,0,0,0,0"/><polygon class="cls-4" points="175.06 226.89 178.45 222.54 178.24 228.05 183.63 226.89 179.93 230.98 184.81 233.55 179.35 234.31 181.42 239.41 176.75 236.49 175.06 241.73 173.37 236.49 168.7 239.41 170.78 234.31 165.32 233.55 170.19 230.98 166.49 226.89 171.88 228.05 171.68 222.54 175.06 226.89"/><path d="M122.56,116.79V101H118V98.21c3-.09,4.53-.3,5.52-2.6h3.07v21.18Z"/><path d="M136.58,117.7a.51.51,0,0,1-.32-.08.19.19,0,0,1-.09-.16.25.25,0,0,1,.14-.22.64.64,0,0,1,.27-.07,4.76,4.76,0,0,0,2-.57,12.07,12.07,0,0,0,2.33-1.55,14,14,0,0,0,2.12-2.17,14.75,14.75,0,0,0,1.51-2.4,10.58,10.58,0,0,0,.83-2.41,13.16,13.16,0,0,0,.26-2.65,7,7,0,0,0-.33-2.1,8.16,8.16,0,0,0-.91-1.93,5.2,5.2,0,0,0-1.31-1.4,2.66,2.66,0,0,0-1.54-.53A2.47,2.47,0,0,0,140,100a3.13,3.13,0,0,0-1,1.26,3.63,3.63,0,0,0-.32,1.48,3.83,3.83,0,0,0,.42,1.72,3.87,3.87,0,0,0,1.13,1.39,2.34,2.34,0,0,0,1.46.54,2.75,2.75,0,0,0,1.34-.25,10.25,10.25,0,0,1,1-.51c.07,0,.14,0,.18.09a.22.22,0,0,1,0,.23,2,2,0,0,1-.44.57,4.56,4.56,0,0,1-.52.45,5.68,5.68,0,0,1-.65.38,5.23,5.23,0,0,1-1,.41,3.31,3.31,0,0,1-1.08.18,4.18,4.18,0,0,1-2-.49,4.09,4.09,0,0,1-1.54-1.31,3.08,3.08,0,0,1-.6-1.88,5.1,5.1,0,0,1,.43-2,6.75,6.75,0,0,1,1.25-1.89,6.2,6.2,0,0,1,1.91-1.38,5.46,5.46,0,0,1,2.42-.53,4.17,4.17,0,0,1,2.07.57,6.82,6.82,0,0,1,1.81,1.52,7.58,7.58,0,0,1,1.27,2.15,6.71,6.71,0,0,1,.47,2.45,10.89,10.89,0,0,1-.5,3.35,11.86,11.86,0,0,1-1.43,2.93,25.06,25.06,0,0,1-2.28,2.87,9.43,9.43,0,0,1-1.76,1.52,12.55,12.55,0,0,1-1.95,1.08,9.86,9.86,0,0,1-2,.64A8,8,0,0,1,136.58,117.7Z"/><path d="M156.46,117.7a.53.53,0,0,1-.33-.08.21.21,0,0,1-.08-.16.24.24,0,0,1,.13-.22.64.64,0,0,1,.28-.07,4.72,4.72,0,0,0,2-.57,11.49,11.49,0,0,0,2.33-1.55,13.86,13.86,0,0,0,3.63-4.57,10.12,10.12,0,0,0,.83-2.41,12.47,12.47,0,0,0,.26-2.65,7,7,0,0,0-.33-2.1,8.16,8.16,0,0,0-.91-1.93A5.2,5.2,0,0,0,163,100a2.66,2.66,0,0,0-1.54-.53,2.47,2.47,0,0,0-1.58.51,3.22,3.22,0,0,0-1,1.26,3.66,3.66,0,0,0,.1,3.2,3.87,3.87,0,0,0,1.13,1.39,2.34,2.34,0,0,0,1.46.54,2.75,2.75,0,0,0,1.34-.25c.29-.17.63-.34,1-.51.07,0,.14,0,.19.09a.24.24,0,0,1,0,.23,2,2,0,0,1-.44.57,4.56,4.56,0,0,1-.52.45,4.9,4.9,0,0,1-.65.38,5.23,5.23,0,0,1-1,.41,3.31,3.31,0,0,1-1.08.18,4.21,4.21,0,0,1-2-.49,4.09,4.09,0,0,1-1.54-1.31,3.14,3.14,0,0,1-.6-1.88,5.1,5.1,0,0,1,.43-2,6.75,6.75,0,0,1,1.25-1.89A6.2,6.2,0,0,1,160,98.94a5.47,5.47,0,0,1,2.43-.53,4.16,4.16,0,0,1,2.06.57,6.82,6.82,0,0,1,1.81,1.52,7.58,7.58,0,0,1,1.27,2.15,6.71,6.71,0,0,1,.47,2.45,10.89,10.89,0,0,1-.5,3.35,11.86,11.86,0,0,1-1.43,2.93,25.06,25.06,0,0,1-2.28,2.87,9.7,9.7,0,0,1-1.75,1.52,13.12,13.12,0,0,1-2,1.08,9.78,9.78,0,0,1-1.94.64A8.1,8.1,0,0,1,156.46,117.7Z"/><path d="M175.55,111.53c0-2.62,1.56-4.47,4.12-5.56l0-.09a5.13,5.13,0,0,1-3.28-4.66c0-3.29,2.77-5.52,6.41-5.52,4,0,6,2.52,6,5.11,0,1.75-.86,3.63-3.41,4.85v.09c2.58,1,4.18,2.84,4.18,5.36,0,3.61-3.1,6-7.06,6C178.17,117.14,175.55,114.56,175.55,111.53Zm11.17-.13c0-2.52-1.76-3.73-4.57-4.53-2.42.7-3.73,2.3-3.73,4.27a3.83,3.83,0,0,0,4.15,4C185.09,115.1,186.72,113.54,186.72,111.4ZM179,101c0,2.07,1.57,3.19,4,3.83,1.79-.61,3.16-1.88,3.16-3.77a3.22,3.22,0,0,0-3.51-3.38A3.3,3.3,0,0,0,179,101Z"/><path d="M198.14,111.82a.15.15,0,0,1-.17-.17,4.08,4.08,0,0,1,.13-1c.08-.36.2-.54.33-.56l2.81-.4c.93-.12,1.87-.23,2.8-.33a.33.33,0,0,1,.17,0,.17.17,0,0,1,.07.13,4.29,4.29,0,0,1-.13,1c-.09.32-.25.5-.49.54l-2.67.4C200.08,111.61,199.13,111.73,198.14,111.82Z"/><path d="M223.54,116.88l-.71,0-1.21,0-1.42-.06-1.34,0-1.53,0-1.93,0-1.7,0-.92,0a.76.76,0,0,1-.33-.18c-.17-.11-.25-.22-.25-.32a.36.36,0,0,1,.09-.26l.2-.21,4.73-5a13.76,13.76,0,0,0,2.39-3.39,8.55,8.55,0,0,0,.89-3.8,3.21,3.21,0,0,0-.82-2.29,2.71,2.71,0,0,0-2.05-.87,3.86,3.86,0,0,0-2.12.63,5.29,5.29,0,0,0-1.59,1.57,1.71,1.71,0,0,1-.29.32.58.58,0,0,1-.38.14c-.1,0-.19-.07-.28-.23a1.17,1.17,0,0,1-.13-.59,2.13,2.13,0,0,1,.44-1,6.46,6.46,0,0,1,1.23-1.33,7.18,7.18,0,0,1,1.87-1.14,5.84,5.84,0,0,1,2.33-.47,4.81,4.81,0,0,1,2.52.63,4.15,4.15,0,0,1,1.6,1.72,5.47,5.47,0,0,1,.25,4.23,10,10,0,0,1-.8,1.81,10.92,10.92,0,0,1-1.11,1.61,16.1,16.1,0,0,1-1.1,1.19l-1.52,1.54L217,112.63c-.49.47-.88.87-1.19,1.18a2.45,2.45,0,0,0-.45.53c0,.07.14.13.41.17s.75.07,1.18.09.92,0,1.42,0,1.05,0,1.57,0,1,0,1.5-.09a9,9,0,0,0,1.26-.17,1.8,1.8,0,0,0,.8-.44,3.89,3.89,0,0,0,.66-.91c.08-.11.18-.25.32-.41a.6.6,0,0,1,.44-.23.22.22,0,0,1,.23.15.48.48,0,0,1,0,.29c-.06.23-.16.54-.29.93s-.27.81-.41,1.24a12.13,12.13,0,0,0-.32,1.25.71.71,0,0,1-.28.54A.88.88,0,0,1,223.54,116.88Z"/><path d="M246.4,106.66a23,23,0,0,1-.36,4.24,9.77,9.77,0,0,1-1.22,3.3,5.82,5.82,0,0,1-2.22,2.13,7.88,7.88,0,0,1-6.58.08,5.28,5.28,0,0,1-2.1-2,9.48,9.48,0,0,1-1.13-3.25,26.26,26.26,0,0,1-.33-4.41,22.13,22.13,0,0,1,.37-4.23,10,10,0,0,1,1.22-3.31,5.94,5.94,0,0,1,2.21-2.13,7.88,7.88,0,0,1,6.58-.08,5.24,5.24,0,0,1,2.1,2,9.15,9.15,0,0,1,1.13,3.24A26.26,26.26,0,0,1,246.4,106.66Zm-2.74.19c0-1,0-1.91-.11-2.71a15.66,15.66,0,0,0-.32-2.12,7.11,7.11,0,0,0-.54-1.58,3.85,3.85,0,0,0-.8-1.09,2.89,2.89,0,0,0-1.07-.62,4.35,4.35,0,0,0-1.35-.2,3.51,3.51,0,0,0-2.15.62,4.25,4.25,0,0,0-1.3,1.72,9.14,9.14,0,0,0-.65,2.55,28.25,28.25,0,0,0-.17,3.15,26,26,0,0,0,.24,3.84,8.26,8.26,0,0,0,.74,2.58,3.29,3.29,0,0,0,1.29,1.45,3.78,3.78,0,0,0,1.91.45,3.83,3.83,0,0,0,1.53-.28,3.27,3.27,0,0,0,1.14-.8,4.43,4.43,0,0,0,.79-1.26,8.58,8.58,0,0,0,.49-1.62,13.5,13.5,0,0,0,.26-1.92C243.64,108.32,243.66,107.6,243.66,106.85Z"/><path d="M255.07,111.53c0-2.62,1.57-4.47,4.12-5.56l0-.09a5.14,5.14,0,0,1-3.29-4.66c0-3.29,2.78-5.52,6.41-5.52,4,0,6,2.52,6,5.11,0,1.75-.86,3.63-3.41,4.85v.09c2.58,1,4.18,2.84,4.18,5.36,0,3.61-3.1,6-7.05,6C257.69,117.14,255.07,114.56,255.07,111.53Zm11.17-.13c0-2.52-1.76-3.73-4.56-4.53-2.43.7-3.74,2.3-3.74,4.27a3.84,3.84,0,0,0,4.15,4C264.61,115.1,266.24,113.54,266.24,111.4ZM258.52,101c0,2.07,1.56,3.19,4,3.83,1.79-.61,3.16-1.88,3.16-3.77a3.22,3.22,0,0,0-3.51-3.38A3.29,3.29,0,0,0,258.52,101Z"/><path d="M291.16,92.7h1.08c0,.32,0,.73,0,1.25s-.06,1-.13,1.56-.13,1-.22,1.51a8.76,8.76,0,0,1-.25,1.11h-8.75l-.57,4.56h2.65a9.83,9.83,0,0,1,3.12.46,6.83,6.83,0,0,1,2.4,1.34,6,6,0,0,1,1.53,2.14,7.27,7.27,0,0,1,.54,2.89,7.4,7.4,0,0,1-.68,3.23,7,7,0,0,1-1.87,2.4,8.45,8.45,0,0,1-2.78,1.5,10.92,10.92,0,0,1-3.44.52,9.16,9.16,0,0,1-3.38-.59,9,9,0,0,1-2.46-1.32l1.34-3.16h.92q.22.23.51.57l.61.74c.21.25.41.51.61.76s.36.48.51.67a4.57,4.57,0,0,0,.59.2,3.45,3.45,0,0,0,.72.06,4.59,4.59,0,0,0,1.78-.34,4,4,0,0,0,1.42-.94,4.28,4.28,0,0,0,.94-1.45,4.69,4.69,0,0,0,.35-1.87,4.25,4.25,0,0,0-.43-2,3.8,3.8,0,0,0-1.16-1.38,5.08,5.08,0,0,0-1.72-.82,7.91,7.91,0,0,0-2.08-.27l-2.77,0,1.27-11.64h8.33Z"/></svg>