<svg id="Слой_1" data-name="Слой 1" xmlns="http://www.w3.org/2000/svg" viewBox="0 0 400 400"><defs><style>.cls-1{fill:#fff;stroke:#000;stroke-miterlimit:10;stroke-width:3px;}.cls-2{fill:#b8ad99;}.cls-3{fill:#c1362d;}</style></defs><title>g48</title><path class="cls-1" d="M345.15,43.56C416.79,58.85,335,382,335,382H52C23.37,147.16,25.81,72,45.55,60.21c21.56-12.85,57.44,49.08,88.77,25,19-14.61,17.94-46.68,33.29-49.93,23.87-5.05,40.16,69.55,62.88,63.8,15.75-4,16.31-41.91,35.14-49.93,15.54-6.62,32.65,11.76,44.38,27.74C310,76.85,323,38.83,345.15,43.56Z"/><path class="cls-1" d="M279.71,184.45c-3.95-12.07-26.43-19.57-44.36-15.32-17.72,4.2-15.69,16.26-36.3,25.81-24.42,11.32-40.58.57-52.43,14.52-.8.94-9.81,11.84-5.65,21.78,2.13,5.09,9.75,4.35,11.29,9.68,1.09,3.74-1.95,5.15-1.61,9.68.51,6.93,7.94,8.18,11.29,15.32s1.55,17.75-4,22.59c-9,7.8-28.88,1.52-38.72-9.68-8-9.16-4.68-16.31-13.71-24.2-9.35-8.18-23.3-9.54-25-6.45-1.31,2.38,5.42,6,11.3,16.13,5.61,9.68,3.88,14,8.06,29,4.89,17.6,7.43,26.71,15.33,32.27,11.09,7.8,20.56,0,29.84,8.87,7.05,6.72,4.56,14,12.1,18.55,5.6,3.36,11.86,2.25,19.36.81,11.47-2.2,26.36-3.92,32.27-14.52,4.17-7.49,1.36-14.61,4-15.33,3.23-.87,11.35,8.46,10.49,17.75-1,10.87-13.77,15.78-12.1,20.16,1.17,3.08,8.37,3,20.17,2.42,25.1-1.21,37.65-1.81,43.55-4,4.18-1.57,21-7.9,31.46-23.39,21.26-31.53,6.89-87.4-17.75-106.48-3.68-2.85-10.42-7.07-12.9-15.32C271.78,202.14,283,194.45,279.71,184.45Z"/><polygon class="cls-1" points="191.89 314.64 213.82 275.57 234.87 314.64 191.89 314.64"/><path class="cls-1" d="M227.7,212.11a21.66,21.66,0,0,1,14.89,6.64c1.44,1.45,6.56,6.63,6.56,14.81A22.73,22.73,0,0,1,243.6,248"/><path class="cls-1" d="M227.69,255c-10.58-.26-16.63-8.17-17.37-9.2a21,21,0,0,1,.76-25.83"/><polygon class="cls-1" points="260.76 277.94 268.76 269.08 268.15 281.01 280.07 280.4 271.21 288.4 280.07 296.4 268.15 295.79 268.76 307.71 260.76 298.85 252.76 307.71 253.37 295.79 241.44 296.4 250.31 288.4 241.44 280.4 253.37 281.01 252.76 269.08 260.76 277.94"/><path d="M244.26,242.59a.32.32,0,0,1,.27.37l-.83,4.88,4.77-1.32a.33.33,0,0,1,.17.63l-5.26,1.44a.3.3,0,0,1-.3-.07.31.31,0,0,1-.1-.29l.91-5.38a.3.3,0,0,1,.08-.16.31.31,0,0,1,.29-.1"/><polygon points="209.37 267.74 209.37 267.74 209.39 267.77 209.37 267.79 209.37 267.79 209.4 267.77 209.37 267.74"/><path d="M210.61,225.37a.32.32,0,0,1-.28-.36l.66-4.91-4.72,1.48a.32.32,0,1,1-.2-.61l5.21-1.63a.3.3,0,0,1,.3.06.3.3,0,0,1,.11.29l-.72,5.4a.33.33,0,0,1-.07.17.32.32,0,0,1-.29.11"/><polygon class="cls-2" points="220.43 230.01 222.89 226.85 222.75 230.85 226.66 230.01 223.97 232.98 227.52 234.86 223.55 235.41 225.06 239.12 221.66 236.99 220.43 240.8 219.2 236.99 215.81 239.12 217.32 235.41 213.35 234.86 216.89 232.98 214.2 230.01 218.12 230.85 217.97 226.85 220.43 230.01"/><polygon class="cls-3" points="238.73 228.05 241.93 233.59 238.73 239.12 232.34 239.12 229.15 233.59 232.34 228.05 238.73 228.05"/><polygon class="cls-3" points="263.73 283.38 266.68 288.5 263.73 293.61 257.82 293.61 254.86 288.5 257.82 283.38 263.73 283.38"/><path d="M117.11,111.22v.58a4.89,4.89,0,0,0-1.44.21,1.08,1.08,0,0,0-.66.69,5.11,5.11,0,0,0-.17,1.57v14.27a5,5,0,0,0,.17,1.55,1,1,0,0,0,.66.7,6,6,0,0,0,1.44.23v.57c-.46,0-1-.06-1.74-.07l-2.15,0-2.25,0c-.7,0-1.27,0-1.72.07V131a6,6,0,0,0,1.47-.23,1,1,0,0,0,.65-.7,5.85,5.85,0,0,0,.16-1.55V114.27a5.91,5.91,0,0,0-.16-1.57,1.08,1.08,0,0,0-.66-.69,5,5,0,0,0-1.46-.21v-.58l1.72.06q1.05,0,2.25,0c.73,0,1.45,0,2.15,0Zm-.63,9.52a14.58,14.58,0,0,1,3.23.33,5.49,5.49,0,0,1,2.45,1.21,4.64,4.64,0,0,1,1.36,2.58l.84,3.71a7.85,7.85,0,0,0,.56,1.77.94.94,0,0,0,.88.5,1.34,1.34,0,0,0,.76-.27,4.31,4.31,0,0,0,.65-.68l.4.32a4.92,4.92,0,0,1-1.35,1.31,3.67,3.67,0,0,1-2,.47,3.59,3.59,0,0,1-2.08-.6,3.87,3.87,0,0,1-1.28-2.5l-.78-3.86a10.68,10.68,0,0,0-.62-2,2.63,2.63,0,0,0-1.11-1.28,4.3,4.3,0,0,0-2.18-.45h-2v-.55Zm-1.67.55v-.55a4.21,4.21,0,0,0,2.1-.56,6.57,6.57,0,0,0,1.64-1.42l2.39-3a7.12,7.12,0,0,0,1.29-2.12,1.28,1.28,0,0,0-.14-1.33,2.28,2.28,0,0,0-1.62-.49v-.58l1.82.06c.59,0,1.2,0,1.81,0,1.07,0,1.92,0,2.53-.09v.58a5,5,0,0,0-1.81.66A7.08,7.08,0,0,0,123,114.1l-5.81,7.19Z"/><path d="M135.7,131.73a2,2,0,0,1-.61-.07c-.15,0-.23-.13-.23-.24s.32-.4.95-.52a3.22,3.22,0,0,0,1.61-.66,1.91,1.91,0,0,0,.52-1.5v-13a2.05,2.05,0,0,0-.42-1.46,2.84,2.84,0,0,0-1.51-.64,1.9,1.9,0,0,1-.72-.23.41.41,0,0,1-.23-.34c0-.12.08-.2.23-.24a2,2,0,0,1,.61-.08c.73,0,1.34,0,1.85,0l1.5,0H143l1.94,0,1.65,0,.8,0a.94.94,0,0,1,.31.06c.12,0,.19.11.2.2.1.54.2,1.07.29,1.6a7.49,7.49,0,0,1,.15,1.37.4.4,0,0,1-.13.34.49.49,0,0,1-.28.09.25.25,0,0,1-.2-.08.51.51,0,0,1-.11-.21l-.29-.94a1.58,1.58,0,0,0-.35-.64,1.88,1.88,0,0,0-.89-.62,3.22,3.22,0,0,0-1-.16h-3.77a1.35,1.35,0,0,0-.64.26.77.77,0,0,0-.4.66v6.1a.67.67,0,0,0,.16.45.45.45,0,0,0,.36.18h2.85a1.69,1.69,0,0,0,1.15-.3,2.38,2.38,0,0,0,.52-1.11q.16-.63.51-.63a.39.39,0,0,1,.25.12.41.41,0,0,1,.13.34c0,.08,0,.25,0,.52s0,.55,0,.83,0,.51,0,.66,0,.45,0,.77,0,.62,0,.9,0,.47,0,.55a1.25,1.25,0,0,1,0,.35.2.2,0,0,1-.22.14c-.29,0-.51-.31-.66-.92a2.42,2.42,0,0,0-.46-1,1.12,1.12,0,0,0-.87-.32h-2.67a1.67,1.67,0,0,0-.73.13c-.17.09-.25.3-.25.62v5.53a2,2,0,0,0,.46,1.51,2.1,2.1,0,0,0,1.44.41h2.13a9.52,9.52,0,0,0,1.54-.1,2.68,2.68,0,0,0,1.08-.39,3.24,3.24,0,0,0,.82-.83,13.6,13.6,0,0,0,.82-1.38.88.88,0,0,1,.2-.29.28.28,0,0,1,.26-.09.48.48,0,0,1,.23.13.41.41,0,0,1,.08.28,4.48,4.48,0,0,1-.14.9c-.1.44-.22.88-.36,1.34a10,10,0,0,1-.39,1.1c-.06.13-.11.25-.16.34a.23.23,0,0,1-.24.14l-2.56,0-2.25-.06-2.08-.06c-.68,0-1.39,0-2.12,0-.42,0-.78,0-1.09.05l-.95.08C136.63,131.72,136.21,131.73,135.7,131.73Z"/><path d="M173.37,131.4c0,.13,0,.19-.06.19-.67,0-1.2,0-1.57,0l-2.17,0-2.2,0c-.38,0-.89,0-1.54,0,0,0-.06-.06-.06-.19s0-.19.06-.19a7.48,7.48,0,0,0,1.76-.15,1,1,0,0,0,.75-.62,3.75,3.75,0,0,0,.19-1.39v-7.64a4.5,4.5,0,0,0-1.8.46,5.27,5.27,0,0,0-1.61,1.41,24.11,24.11,0,0,0-2,3q-1.55,2.64-2.34,3.77a5.33,5.33,0,0,1-1.13,1.32,1.7,1.7,0,0,1-.87.19h-3.23c-.07,0-.1-.06-.1-.19s0-.19.1-.19a3.86,3.86,0,0,0,2.82-1.27,22.19,22.19,0,0,0,2.9-4.26,13.24,13.24,0,0,1,2.19-3,5.07,5.07,0,0,1,2.33-1.26,7.15,7.15,0,0,1-4.16-1.49,4,4,0,0,1-1.43-3.22,4.33,4.33,0,0,1,.74-2.51,4.86,4.86,0,0,1,2-1.72,6.92,6.92,0,0,1,2.93-.61,15.12,15.12,0,0,1,1.67.1l.88.06c.33,0,.7,0,1.1,0s1.26,0,2.14-.06l1.6,0s.06.06.06.18,0,.19-.06.19a6.38,6.38,0,0,0-1.79.18,1.12,1.12,0,0,0-.76.61,3.83,3.83,0,0,0-.19,1.38v14.55a3.49,3.49,0,0,0,.21,1.39,1.1,1.1,0,0,0,.75.62,7.5,7.5,0,0,0,1.78.15S173.37,131.28,173.37,131.4Zm-9.74-11.81a4.88,4.88,0,0,0,3.74,1.38c.27,0,.66,0,1.16-.06v-6.35a2,2,0,0,0-.75-1.77,3.22,3.22,0,0,0-1.89-.52c-2.36,0-3.55,1.22-3.55,3.64A5.18,5.18,0,0,0,163.63,119.59Z"/><path d="M205.52,110.82a7.38,7.38,0,0,1,3.12.56,10.25,10.25,0,0,1,2.17,1.31c.39.29.68.32.88.1a3.1,3.1,0,0,0,.42-1.57h.66c0,.73-.07,1.62-.09,2.68s0,2.44,0,4.17H212c-.11-.86-.24-1.59-.37-2.17a5.88,5.88,0,0,0-.56-1.52,4.93,4.93,0,0,0-1-1.2,4.68,4.68,0,0,0-1.86-1.28,6.17,6.17,0,0,0-2.26-.42,4.31,4.31,0,0,0-2.6.79,6.24,6.24,0,0,0-1.85,2.16,11.65,11.65,0,0,0-1.09,3.18,19.74,19.74,0,0,0-.36,3.85,18.41,18.41,0,0,0,.39,3.9,11,11,0,0,0,1.15,3.14,6,6,0,0,0,1.9,2.08,4.68,4.68,0,0,0,2.63.75,6.44,6.44,0,0,0,2.19-.4,4.26,4.26,0,0,0,1.84-1.24,4.38,4.38,0,0,0,1.3-2.06,18.16,18.16,0,0,0,.54-3.17h.66q0,2.7,0,4.35c0,1.11,0,2,.09,2.78h-.66a3.27,3.27,0,0,0-.39-1.55c-.18-.21-.49-.18-.91.08a14.46,14.46,0,0,1-2.26,1.31,7.09,7.09,0,0,1-3.06.56,10.44,10.44,0,0,1-5.15-1.23,8.59,8.59,0,0,1-3.44-3.57,12,12,0,0,1-1.22-5.61,11.91,11.91,0,0,1,1.27-5.64,9.4,9.4,0,0,1,3.48-3.77A9.56,9.56,0,0,1,205.52,110.82Z"/><path d="M233.93,130.5a3.48,3.48,0,0,1,0,.49.85.85,0,0,1-.11.34.58.58,0,0,1-.17.2.43.43,0,0,1-.22.06h-9.53a1.08,1.08,0,0,1-.67-.24,1,1,0,0,1-.31-.83v-17.7a1,1,0,0,1,.31-.84,1.08,1.08,0,0,1,.67-.24h9.42a.43.43,0,0,1,.22.06.41.41,0,0,1,.16.2,1.34,1.34,0,0,1,.1.35,2.51,2.51,0,0,1,0,.51,2.27,2.27,0,0,1,0,.48,1.25,1.25,0,0,1-.1.34.38.38,0,0,1-.16.19.35.35,0,0,1-.22.06h-7.76v6.23h6.65a.45.45,0,0,1,.23.07.79.79,0,0,1,.17.19,1.28,1.28,0,0,1,.09.34,2.51,2.51,0,0,1,0,.51,2.17,2.17,0,0,1,0,.47,1.2,1.2,0,0,1-.09.33.46.46,0,0,1-.17.17.43.43,0,0,1-.23.05h-6.65v7.11h7.87a.43.43,0,0,1,.22.06.53.53,0,0,1,.17.19.8.8,0,0,1,.11.34A3.68,3.68,0,0,1,233.93,130.5Z"/><path d="M257.93,131.59H254.5l-7.5-9.83v9.83h-2.73v-20H247v9.31l7.34-9.31h3.24l-7.91,9.53Z"/><path d="M286.45,124.27c-1,4.56-4.24,7.73-9.65,7.73-6.53,0-10.11-4.93-10.11-11.81s3.67-11.79,10.21-11.79c5.15,0,8.45,3.11,9.45,7.73h-2.2a7.17,7.17,0,0,0-7.32-5.71c-4.49,0-7.91,3.48-7.91,9.77,0,6.06,3.23,9.8,7.91,9.8a7.18,7.18,0,0,0,7.42-5.72Z"/><path d="M300.39,124.93l11.38-15.64h3.29v22.3h-4.3v-15.3l-11.22,15.3h-3.45v-22.3h4.3Z"/><path d="M134.64,160.18l-.69,0-1.2,0-1.39-.06L130,160l-1.52,0-1.89,0-1.67,0-.91,0a.76.76,0,0,1-.33-.18c-.16-.11-.25-.22-.25-.31a.34.34,0,0,1,.09-.26l.2-.2,4.66-4.95a13.79,13.79,0,0,0,2.35-3.34,8.42,8.42,0,0,0,.88-3.74,3.15,3.15,0,0,0-.81-2.26,2.69,2.69,0,0,0-2-.85,3.81,3.81,0,0,0-2.09.62,5.36,5.36,0,0,0-1.57,1.54,1.24,1.24,0,0,1-.29.32.59.59,0,0,1-.37.14c-.09,0-.19-.07-.27-.23a1.09,1.09,0,0,1-.13-.57,2,2,0,0,1,.43-1,6.28,6.28,0,0,1,1.21-1.31,7.14,7.14,0,0,1,1.84-1.13,5.87,5.87,0,0,1,2.3-.46,4.8,4.8,0,0,1,2.48.62,4.18,4.18,0,0,1,1.58,1.7,5.43,5.43,0,0,1,.55,2.46,5.58,5.58,0,0,1-.31,1.7,9.39,9.39,0,0,1-.79,1.78,10,10,0,0,1-1.09,1.58c-.25.31-.61.7-1.08,1.18s-1,1-1.5,1.51-1,1-1.51,1.5-.87.86-1.16,1.17a2.38,2.38,0,0,0-.45.51c0,.08.14.14.4.18l1.17.08c.43,0,.9,0,1.39,0s1,0,1.54,0l1.49-.08a7.26,7.26,0,0,0,1.23-.18,1.66,1.66,0,0,0,.79-.43,3.73,3.73,0,0,0,.65-.89,3.09,3.09,0,0,1,.32-.4.55.55,0,0,1,.43-.23.22.22,0,0,1,.23.14.49.49,0,0,1,0,.29c-.06.23-.15.54-.29.92s-.27.79-.4,1.22a11.68,11.68,0,0,0-.32,1.22.73.73,0,0,1-.27.54A.88.88,0,0,1,134.64,160.18Z"/><path d="M157.15,150.12a22.34,22.34,0,0,1-.36,4.17,9.76,9.76,0,0,1-1.19,3.25,6,6,0,0,1-2.19,2.1,6.89,6.89,0,0,1-3.33.74,6.67,6.67,0,0,1-3.15-.67,5.1,5.1,0,0,1-2.06-2,9,9,0,0,1-1.12-3.19,25.52,25.52,0,0,1-.33-4.35,22.27,22.27,0,0,1,.37-4.16,10,10,0,0,1,1.2-3.26,5.85,5.85,0,0,1,2.18-2.1,6.83,6.83,0,0,1,3.31-.74,6.76,6.76,0,0,1,3.17.67,5.17,5.17,0,0,1,2.06,2,9.21,9.21,0,0,1,1.11,3.19A25.52,25.52,0,0,1,157.15,150.12Zm-2.7.18c0-1,0-1.88-.1-2.67a17,17,0,0,0-.32-2.08,7.47,7.47,0,0,0-.53-1.56,3.86,3.86,0,0,0-.79-1.07,2.91,2.91,0,0,0-1.06-.62,4.47,4.47,0,0,0-1.32-.19,3.42,3.42,0,0,0-2.12.62,4.07,4.07,0,0,0-1.28,1.68,9.28,9.28,0,0,0-.64,2.52,31.42,31.42,0,0,0,.06,6.88,8.66,8.66,0,0,0,.73,2.54,3.31,3.31,0,0,0,1.28,1.42,3.66,3.66,0,0,0,1.88.45,3.77,3.77,0,0,0,1.51-.28,3.13,3.13,0,0,0,1.12-.79,4.22,4.22,0,0,0,.77-1.23,7.9,7.9,0,0,0,.49-1.6,13.11,13.11,0,0,0,.25-1.89C154.43,151.75,154.45,151,154.45,150.3Z"/><path d="M179.36,150.12a22.34,22.34,0,0,1-.36,4.17,9.55,9.55,0,0,1-1.2,3.25,5.85,5.85,0,0,1-2.18,2.1,6.89,6.89,0,0,1-3.33.74,6.67,6.67,0,0,1-3.15-.67,5.06,5.06,0,0,1-2.07-2,9.21,9.21,0,0,1-1.11-3.19,25.52,25.52,0,0,1-.33-4.35,21.46,21.46,0,0,1,.37-4.16,9.53,9.53,0,0,1,1.2-3.26,5.83,5.83,0,0,1,2.17-2.1,6.88,6.88,0,0,1,3.32-.74,6.69,6.69,0,0,1,3.16.67,5.13,5.13,0,0,1,2.07,2,9.21,9.21,0,0,1,1.11,3.19A25.52,25.52,0,0,1,179.36,150.12Zm-2.7.18c0-1,0-1.88-.11-2.67a15.36,15.36,0,0,0-.31-2.08,6.92,6.92,0,0,0-.54-1.56,3.68,3.68,0,0,0-.79-1.07,3,3,0,0,0-1-.62,4.54,4.54,0,0,0-1.33-.19,3.39,3.39,0,0,0-2.11.62,4.07,4.07,0,0,0-1.28,1.68,8.61,8.61,0,0,0-.64,2.52,27.21,27.21,0,0,0-.17,3.1,26.93,26.93,0,0,0,.23,3.78,8.36,8.36,0,0,0,.73,2.54,3.29,3.29,0,0,0,1.27,1.42,4.18,4.18,0,0,0,3.39.17,3,3,0,0,0,1.12-.79,4.46,4.46,0,0,0,.78-1.23,9.42,9.42,0,0,0,.49-1.6,14.68,14.68,0,0,0,.25-1.89C176.64,151.75,176.66,151,176.66,150.3Z"/><path d="M201.56,150.12a22.34,22.34,0,0,1-.36,4.17,9.55,9.55,0,0,1-1.19,3.25,6,6,0,0,1-2.19,2.1,6.89,6.89,0,0,1-3.33.74,6.7,6.7,0,0,1-3.15-.67,5.1,5.1,0,0,1-2.06-2,9.21,9.21,0,0,1-1.11-3.19,25.52,25.52,0,0,1-.33-4.35,22.31,22.31,0,0,1,.36-4.16,10,10,0,0,1,1.2-3.26,5.85,5.85,0,0,1,2.18-2.1,6.83,6.83,0,0,1,3.31-.74,6.73,6.73,0,0,1,3.17.67,5.17,5.17,0,0,1,2.06,2,9.42,9.42,0,0,1,1.12,3.19A25.59,25.59,0,0,1,201.56,150.12Zm-2.69.18c0-1,0-1.88-.11-2.67a15.25,15.25,0,0,0-.32-2.08,6.94,6.94,0,0,0-.53-1.56,3.86,3.86,0,0,0-.79-1.07,3,3,0,0,0-1.05-.62,4.59,4.59,0,0,0-1.33-.19,3.42,3.42,0,0,0-2.12.62,4.07,4.07,0,0,0-1.28,1.68,9.28,9.28,0,0,0-.64,2.52,27.3,27.3,0,0,0-.16,3.1,25.49,25.49,0,0,0,.23,3.78,8.38,8.38,0,0,0,.72,2.54,3.31,3.31,0,0,0,1.28,1.42,3.66,3.66,0,0,0,1.88.45,3.77,3.77,0,0,0,1.51-.28,3,3,0,0,0,1.12-.79,4.22,4.22,0,0,0,.77-1.23,7.9,7.9,0,0,0,.49-1.6,13.06,13.06,0,0,0,.26-1.89C198.84,151.75,198.87,151,198.87,150.3Z"/><path d="M209.94,155.2a.15.15,0,0,1-.17-.17,4.44,4.44,0,0,1,.13-1c.09-.35.2-.53.33-.55l2.76-.39,2.77-.33a.33.33,0,0,1,.16.05.16.16,0,0,1,.07.13,4.19,4.19,0,0,1-.13,1c-.09.31-.25.49-.48.53l-2.63.39C211.86,155,210.92,155.1,209.94,155.2Z"/><path d="M235,160.18l-.69,0-1.2,0-1.39-.06-1.33,0-1.51,0-1.9,0-1.67,0-.9,0A.76.76,0,0,1,224,160c-.17-.11-.25-.22-.25-.31a.34.34,0,0,1,.09-.26l.2-.2,4.66-4.95a13.79,13.79,0,0,0,2.35-3.34,8.41,8.41,0,0,0,.87-3.74,3.18,3.18,0,0,0-.8-2.26,2.69,2.69,0,0,0-2-.85,3.8,3.8,0,0,0-2.08.62,5.24,5.24,0,0,0-1.57,1.54,1.45,1.45,0,0,1-.29.32.59.59,0,0,1-.37.14c-.1,0-.19-.07-.28-.23a1.2,1.2,0,0,1-.12-.57,2,2,0,0,1,.43-1,6,6,0,0,1,1.21-1.31,7,7,0,0,1,1.84-1.13,5.83,5.83,0,0,1,2.3-.46,4.74,4.74,0,0,1,2.47.62,4.2,4.2,0,0,1,1.59,1.7,5.43,5.43,0,0,1,.54,2.46,5.55,5.55,0,0,1-.3,1.7,9.39,9.39,0,0,1-.79,1.78,10.75,10.75,0,0,1-1.09,1.58c-.25.31-.61.7-1.08,1.18s-1,1-1.5,1.51l-1.51,1.5c-.48.47-.87.86-1.16,1.17a2.38,2.38,0,0,0-.45.51c0,.08.13.14.4.18l1.17.08c.43,0,.89,0,1.39,0s1,0,1.54,0l1.48-.08a7.41,7.41,0,0,0,1.24-.18,1.66,1.66,0,0,0,.79-.43,3.73,3.73,0,0,0,.65-.89,3.09,3.09,0,0,1,.32-.4.54.54,0,0,1,.43-.23.22.22,0,0,1,.23.14.49.49,0,0,1,0,.29c-.06.23-.16.54-.29.92s-.27.79-.4,1.22a11.68,11.68,0,0,0-.32,1.22.73.73,0,0,1-.27.54A.88.88,0,0,1,235,160.18Z"/><path d="M257.46,150.12a22.34,22.34,0,0,1-.36,4.17,9.76,9.76,0,0,1-1.19,3.25,6,6,0,0,1-2.19,2.1,6.89,6.89,0,0,1-3.33.74,6.67,6.67,0,0,1-3.15-.67,5.12,5.12,0,0,1-2.07-2,9.21,9.21,0,0,1-1.11-3.19,25.52,25.52,0,0,1-.33-4.35,22.27,22.27,0,0,1,.37-4.16,10,10,0,0,1,1.2-3.26,5.85,5.85,0,0,1,2.18-2.1,6.83,6.83,0,0,1,3.31-.74,6.76,6.76,0,0,1,3.17.67,5.17,5.17,0,0,1,2.06,2,9.21,9.21,0,0,1,1.11,3.19A25.52,25.52,0,0,1,257.46,150.12Zm-2.7.18c0-1,0-1.88-.1-2.67a17,17,0,0,0-.32-2.08,6.92,6.92,0,0,0-.54-1.56,3.68,3.68,0,0,0-.79-1.07,2.79,2.79,0,0,0-1-.62,4.47,4.47,0,0,0-1.32-.19,3.42,3.42,0,0,0-2.12.62,4.07,4.07,0,0,0-1.28,1.68,8.93,8.93,0,0,0-.64,2.52,27.21,27.21,0,0,0-.17,3.1,26.93,26.93,0,0,0,.23,3.78,8.66,8.66,0,0,0,.73,2.54,3.25,3.25,0,0,0,1.28,1.42,3.65,3.65,0,0,0,1.87.45,3.7,3.7,0,0,0,1.51-.28,3,3,0,0,0,1.12-.79,4,4,0,0,0,.78-1.23,8.6,8.6,0,0,0,.49-1.6,13.11,13.11,0,0,0,.25-1.89C254.74,151.75,254.76,151,254.76,150.3Z"/><path d="M277.9,141.62a9.74,9.74,0,0,0-2.07.12,8.3,8.3,0,0,0-7.1,7.26h.09a6.1,6.1,0,0,1,4.94-2.36c3.61,0,6.16,2.61,6.16,6.6,0,3.74-2.55,7.2-6.79,7.2s-7.23-3.4-7.23-8.71a12.83,12.83,0,0,1,3.46-9.2,11.11,11.11,0,0,1,6.53-3,14.19,14.19,0,0,1,2-.16Zm-.78,11.78c0-2.92-1.67-4.68-4.21-4.68a4.53,4.53,0,0,0-4,2.51,2.33,2.33,0,0,0-.31,1.23c.06,3.36,1.6,5.84,4.49,5.84C275.52,158.3,277.12,156.32,277.12,153.4Z"/><path d="M300.3,141.62a9.71,9.71,0,0,0-2.07.12,8.3,8.3,0,0,0-7.1,7.26h.09a6.1,6.1,0,0,1,4.94-2.36c3.61,0,6.15,2.61,6.15,6.6,0,3.74-2.54,7.2-6.78,7.2s-7.23-3.4-7.23-8.71a12.83,12.83,0,0,1,3.46-9.2,11.08,11.08,0,0,1,6.53-3,14.19,14.19,0,0,1,2-.16Zm-.78,11.78c0-2.92-1.67-4.68-4.21-4.68a4.53,4.53,0,0,0-4,2.51,2.33,2.33,0,0,0-.32,1.23c.07,3.36,1.61,5.84,4.5,5.84C297.91,158.3,299.52,156.32,299.52,153.4Z"/></svg>