<svg id="Слой_1" data-name="Слой 1" xmlns="http://www.w3.org/2000/svg" viewBox="0 0 400 400"><defs><style>.cls-1,.cls-2{fill:#fff;stroke:#000;stroke-width:3px;}.cls-1{stroke-miterlimit:10;}.cls-2{stroke-linecap:round;stroke-linejoin:round;}.cls-3{fill:#b8ad99;}.cls-4{fill:#c1362d;}.cls-5{font-size:33.66px;font-family:PTSerif-Bold, PT Serif;letter-spacing:0.2em;}.cls-6{font-weight:700;}.cls-10,.cls-7{font-family:MyriadPro-Regular, Myriad Pro;}.cls-7{letter-spacing:0.2em;}.cls-8,.cls-9{font-size:30.83px;letter-spacing:0.2em;}.cls-8{font-family:PTSerif-Regular, PT Serif;}.cls-9{font-family:Cormorant-Regular, Cormorant;}</style></defs><title>g51</title><path class="cls-1" d="M359.07,42.74C430.71,58.33,348.9,388,348.9,388H66C37.29,148.43,39.73,71.72,59.47,59.72,81,46.61,116.91,109.79,148.24,85.19c19-14.91,17.94-47.63,33.29-50.94,23.87-5.15,40.16,71,62.88,65.09,15.75-4.06,16.31-42.75,35.14-50.94,15.54-6.76,32.65,12,44.38,28.3C323.93,76.7,336.91,37.92,359.07,42.74Z"/><path class="cls-1" d="M323.93,315.43c10-6.45,11.6-27.21,4.61-32.25-3.38-2.43-6.32.59-10.94-1.72-7.68-3.84-11.85-18.27-6.91-26.49,4.44-7.39,12.54-3.6,23.61-12.09.72-.56,16.13-12.65,13.81-24.19-2-10-15.18-8.92-22.45-24.19-3.05-6.39-2.93-11.19-6.33-12.09-4.1-1.08-10.54,4.2-12.1,10.37-2.14,8.5,6.7,12.05,6.91,21.3.29,12.33-15,22-29.37,31.1-12.73,8-19.64,12.43-28.79,11.52-12.2-1.22-14-10.4-28.22-17.85-16.49-8.64-33.34-6.41-51.25-4-18.87,2.5-33.63,4.46-46.64,16.13-19.65,17.62-21.2,44.72-21.31,47.22-.84,19.7,7.93,28.58,1.15,39.15-7.29,11.38-24.18,11.62-23.61,15.55.41,2.81,9.26,4.1,15.55,3.46,2.27-.23,12.34-1.53,17.85-9.22,1.36-1.88.92-2,4-9.21,3.55-8.17,4.47-8.75,6.34-13.24,5.35-12.83,2.49-19,6.91-21.31,3.87-2,9.37,1,12.09,3.46,6.66,6.05,6.39,17.71,1.73,21.88-3.2,2.86-7.53,1.35-9.21,4.6-1.57,3,.83,7,1.15,7.49,2.63,4.2,8.33,6.27,13.24,5.76,8.42-.87,10.33-8.85,16.7-8.64,4.42.15,7,4.11,10.94,8.64,5.15,5.93,18.14,20.91,31.1,22.46s18-11.31,31.09-9.22c9.13,1.46,11.72,13.45,17.28,12.1,3.75-.91,3.3-5.92,8.64-8.64,3.88-2,7.83-1.22,13.82,0,12.31,2.52,13.07,6.44,19,5.76,7.45-.86,13.23-7.86,15.55-13.82,1-2.58,3.37-8.66.58-13.25-3.47-5.7-11.42-3.41-13.82-8.64-1.78-3.86.71-9.18,3.45-12.09C314.48,316.56,318.91,318.68,323.93,315.43Z"/><path class="cls-2" d="M167.59,278.86a28.16,28.16,0,0,1,25.91-12.45c13.84,1.34,20.75,12.79,21.42,13.95"/><path class="cls-2" d="M214.42,287.21a28.16,28.16,0,0,1-25.91,12.45c-13.84-1.34-20.75-12.79-21.42-14"/><path class="cls-1" d="M223.55,282.56a32.37,32.37,0,1,1-32.37-32.37A32.36,32.36,0,0,1,223.55,282.56Z"/><path class="cls-1" d="M265.33,288.42c10.38.16,17,6.56,18.75,8.36s8.27,8.35,8.27,18.65a28.51,28.51,0,0,1-6.79,17.88"/><path class="cls-1" d="M265.32,342.45c-13.32-.33-20.93-10.28-21.87-11.59a26.41,26.41,0,0,1,.76-32.27"/><polygon class="cls-3" points="191.28 276.03 195.88 270.11 195.6 277.61 202.94 276.03 197.91 281.59 204.54 285.1 197.11 286.13 199.93 293.08 193.58 289.09 191.28 296.23 188.97 289.09 182.62 293.08 185.45 286.13 178.02 285.1 184.65 281.59 179.62 276.03 186.95 277.61 186.67 270.11 191.28 276.03"/><path d="M286.55,324.38a.54.54,0,0,1,.44.62l-1.27,8.12,7.9-2.28a.54.54,0,1,1,.29,1l-8.71,2.51a.54.54,0,0,1-.5-.11.56.56,0,0,1-.18-.49l1.41-8.95a.49.49,0,0,1,.13-.27.55.55,0,0,1,.49-.18"/><polygon points="265.29 342.4 265.28 342.41 265.32 342.45 265.28 342.48 265.28 342.49 265.33 342.45 265.29 342.4"/><path d="M243.52,307.54a.53.53,0,0,1-.46-.6l1-8.16-7.82,2.54a.54.54,0,0,1-.33-1l8.62-2.8a.52.52,0,0,1,.51.1.52.52,0,0,1,.19.48l-1.11,9a.47.47,0,0,1-.12.28.51.51,0,0,1-.48.19"/><polygon class="cls-3" points="256.19 310.96 259.28 306.98 259.1 312.02 264.03 310.96 260.65 314.7 265.11 317.06 260.11 317.76 262.01 322.43 257.74 319.75 256.19 324.55 254.64 319.75 250.36 322.43 252.26 317.76 247.27 317.06 251.73 314.7 248.34 310.96 253.28 312.02 253.09 306.98 256.19 310.96"/><polygon class="cls-4" points="279.23 308.5 283.25 315.46 279.23 322.43 271.18 322.43 267.16 315.46 271.18 308.5 279.23 308.5"/><text class="cls-5" transform="translate(144.74 149.95)"><tspan class="cls-6">А</tspan><tspan class="cls-7" x="31.27" y="0">Я</tspan><tspan class="cls-8" x="56.29" y="0">К</tspan><tspan class="cls-9" x="82.37" y="0">С</tspan><tspan class="cls-10" x="109.16" y="0">А</tspan></text><path d="M122.86,177.75l-.74,0-1.28,0-1.49-.06-1.42,0-1.62,0-2,0-1.78,0-1,0a.79.79,0,0,1-.35-.19c-.18-.12-.26-.23-.26-.34a.37.37,0,0,1,.09-.27l.22-.22,5-5.3a14.25,14.25,0,0,0,2.51-3.58,8.91,8.91,0,0,0,.94-4,3.37,3.37,0,0,0-.86-2.42,2.88,2.88,0,0,0-2.16-.91,4,4,0,0,0-2.23.67,5.51,5.51,0,0,0-1.68,1.65,2.45,2.45,0,0,1-.31.34.62.62,0,0,1-.4.15c-.11,0-.2-.08-.3-.25a1.25,1.25,0,0,1-.13-.61,2.19,2.19,0,0,1,.46-1.1,7.12,7.12,0,0,1,1.29-1.4,8,8,0,0,1,2-1.2,6.11,6.11,0,0,1,2.46-.5,5.09,5.09,0,0,1,2.65.67,4.33,4.33,0,0,1,1.7,1.82,5.72,5.72,0,0,1,.26,4.45,9.86,9.86,0,0,1-.85,1.91,11.6,11.6,0,0,1-1.17,1.7c-.26.33-.65.75-1.15,1.26s-1,1.06-1.61,1.62-1.1,1.1-1.62,1.6-.93.92-1.24,1.25a2.72,2.72,0,0,0-.48.56c0,.08.14.14.43.18s.79.07,1.25.09,1,0,1.49,0,1.11,0,1.65,0,1.08-.05,1.59-.09a8.4,8.4,0,0,0,1.33-.18,1.75,1.75,0,0,0,.84-.47,3.83,3.83,0,0,0,.7-.95,3.3,3.3,0,0,1,.34-.43.59.59,0,0,1,.46-.25.25.25,0,0,1,.25.16.52.52,0,0,1,0,.3c-.06.25-.17.58-.31,1s-.29.85-.43,1.31a11.06,11.06,0,0,0-.34,1.31.74.74,0,0,1-.29.57A.88.88,0,0,1,122.86,177.75Z"/><path d="M147,167a23.54,23.54,0,0,1-.39,4.47,10.24,10.24,0,0,1-1.28,3.48,6.3,6.3,0,0,1-2.34,2.25,7.36,7.36,0,0,1-3.57.8,7.22,7.22,0,0,1-3.38-.72,5.5,5.5,0,0,1-2.21-2.1,9.77,9.77,0,0,1-1.19-3.42,26.9,26.9,0,0,1-.35-4.66,23.66,23.66,0,0,1,.39-4.46,10.51,10.51,0,0,1,1.28-3.49,6.16,6.16,0,0,1,2.34-2.25,8.41,8.41,0,0,1,6.94-.08,5.57,5.57,0,0,1,2.21,2.1,9.77,9.77,0,0,1,1.19,3.42A27,27,0,0,1,147,167Zm-2.9.2c0-1.06,0-2-.11-2.86a17.47,17.47,0,0,0-.34-2.24,7.65,7.65,0,0,0-.57-1.66,4,4,0,0,0-.85-1.15,2.93,2.93,0,0,0-1.13-.66,4.46,4.46,0,0,0-1.42-.21,3.66,3.66,0,0,0-2.27.66,4.47,4.47,0,0,0-1.37,1.81,9.62,9.62,0,0,0-.68,2.69,28.79,28.79,0,0,0-.18,3.32,27.62,27.62,0,0,0,.25,4.06,8.73,8.73,0,0,0,.78,2.72,3.46,3.46,0,0,0,1.36,1.52,3.94,3.94,0,0,0,2,.48,4.22,4.22,0,0,0,1.62-.29,3.32,3.32,0,0,0,1.2-.85,4.63,4.63,0,0,0,.83-1.32,9.26,9.26,0,0,0,.53-1.71,15.12,15.12,0,0,0,.27-2C144.07,168.72,144.09,168,144.09,167.17Z"/><path d="M170.78,167a24.44,24.44,0,0,1-.38,4.47,10.24,10.24,0,0,1-1.29,3.48,6.16,6.16,0,0,1-2.34,2.25,7.31,7.31,0,0,1-3.57.8,7.18,7.18,0,0,1-3.37-.72,5.38,5.38,0,0,1-2.21-2.1,10,10,0,0,1-1.2-3.42,27.93,27.93,0,0,1-.35-4.66,23.66,23.66,0,0,1,.39-4.46,10.74,10.74,0,0,1,1.29-3.49,6.2,6.2,0,0,1,2.33-2.25,8.43,8.43,0,0,1,6.95-.08,5.64,5.64,0,0,1,2.21,2.1,10,10,0,0,1,1.19,3.42A28.1,28.1,0,0,1,170.78,167Zm-2.89.2c0-1.06,0-2-.12-2.86a17.58,17.58,0,0,0-.33-2.24,7.14,7.14,0,0,0-.58-1.66,3.78,3.78,0,0,0-.85-1.15,2.89,2.89,0,0,0-1.12-.66,4.51,4.51,0,0,0-1.42-.21,3.66,3.66,0,0,0-2.27.66,4.38,4.38,0,0,0-1.37,1.81,9.28,9.28,0,0,0-.69,2.69,28.79,28.79,0,0,0-.18,3.32,27.62,27.62,0,0,0,.25,4.06,8.73,8.73,0,0,0,.78,2.72,3.52,3.52,0,0,0,1.36,1.52,4,4,0,0,0,2,.48,4.29,4.29,0,0,0,1.62-.29,3.5,3.5,0,0,0,1.2-.85,4.86,4.86,0,0,0,.83-1.32,9.26,9.26,0,0,0,.52-1.71,13.66,13.66,0,0,0,.27-2C167.86,168.72,167.89,168,167.89,167.17Z"/><path d="M194.58,167a23.54,23.54,0,0,1-.39,4.47,10.24,10.24,0,0,1-1.28,3.48,6.3,6.3,0,0,1-2.34,2.25,7.36,7.36,0,0,1-3.57.8,7.22,7.22,0,0,1-3.38-.72,5.5,5.5,0,0,1-2.21-2.1,9.77,9.77,0,0,1-1.19-3.42,26.9,26.9,0,0,1-.35-4.66,23.66,23.66,0,0,1,.39-4.46,10.51,10.51,0,0,1,1.28-3.49,6.16,6.16,0,0,1,2.34-2.25,8.41,8.41,0,0,1,6.94-.08,5.57,5.57,0,0,1,2.21,2.1,9.77,9.77,0,0,1,1.19,3.42A27,27,0,0,1,194.58,167Zm-2.9.2c0-1.06,0-2-.11-2.86a17.47,17.47,0,0,0-.34-2.24,7.65,7.65,0,0,0-.57-1.66,4,4,0,0,0-.85-1.15,2.93,2.93,0,0,0-1.13-.66,4.46,4.46,0,0,0-1.42-.21,3.66,3.66,0,0,0-2.27.66,4.47,4.47,0,0,0-1.37,1.81,9.62,9.62,0,0,0-.68,2.69,28.79,28.79,0,0,0-.18,3.32,29.24,29.24,0,0,0,.24,4.06,9,9,0,0,0,.79,2.72,3.46,3.46,0,0,0,1.36,1.52,3.94,3.94,0,0,0,2,.48,4.22,4.22,0,0,0,1.62-.29,3.32,3.32,0,0,0,1.2-.85,4.63,4.63,0,0,0,.83-1.32,9.26,9.26,0,0,0,.53-1.71,15.12,15.12,0,0,0,.27-2C191.66,168.72,191.68,168,191.68,167.17Z"/><path d="M203.56,172.42a.17.17,0,0,1-.19-.19,4.57,4.57,0,0,1,.14-1.08c.09-.37.21-.56.35-.58l3-.42,3-.36a.31.31,0,0,1,.17.05.16.16,0,0,1,.08.14,4.3,4.3,0,0,1-.14,1.1.69.69,0,0,1-.51.57l-2.82.41C205.61,172.2,204.6,172.31,203.56,172.42Z"/><path d="M230.35,177.75l-.74,0-1.28,0-1.5-.06-1.42,0-1.61,0-2,0-1.79,0-1,0a.79.79,0,0,1-.35-.19c-.18-.12-.27-.23-.27-.34a.37.37,0,0,1,.1-.27l.21-.22,5-5.3a14.51,14.51,0,0,0,2.51-3.58,8.91,8.91,0,0,0,.94-4,3.41,3.41,0,0,0-.86-2.42,2.89,2.89,0,0,0-2.16-.91,4.11,4.11,0,0,0-2.24.67,5.75,5.75,0,0,0-1.68,1.65,1.88,1.88,0,0,1-.3.34.64.64,0,0,1-.4.15c-.11,0-.21-.08-.3-.25a1.25,1.25,0,0,1-.14-.61,2.23,2.23,0,0,1,.47-1.1,6.82,6.82,0,0,1,1.29-1.4,8,8,0,0,1,2-1.2,6.16,6.16,0,0,1,2.47-.5,5.09,5.09,0,0,1,2.65.67,4.33,4.33,0,0,1,1.7,1.82,5.75,5.75,0,0,1,.58,2.63,6,6,0,0,1-.32,1.82,10.5,10.5,0,0,1-.85,1.91,11.6,11.6,0,0,1-1.17,1.7c-.27.33-.65.75-1.16,1.26s-1,1.06-1.6,1.62-1.1,1.1-1.62,1.6l-1.25,1.25a2.47,2.47,0,0,0-.47.56c0,.08.14.14.43.18s.78.07,1.25.09,1,0,1.49,0,1.11,0,1.65,0,1.07-.05,1.59-.09a8.25,8.25,0,0,0,1.32-.18,1.78,1.78,0,0,0,.85-.47,3.83,3.83,0,0,0,.7-.95,4.18,4.18,0,0,1,.33-.43.62.62,0,0,1,.47-.25.23.23,0,0,1,.24.16.4.4,0,0,1,0,.3q-.09.38-.3,1c-.15.41-.29.85-.44,1.31A13.23,13.23,0,0,0,231,177a.75.75,0,0,1-.3.57A.81.81,0,0,1,230.35,177.75Z"/><path d="M254.47,167a24.44,24.44,0,0,1-.38,4.47,10.45,10.45,0,0,1-1.28,3.48,6.26,6.26,0,0,1-2.35,2.25,7.29,7.29,0,0,1-3.56.8,7.19,7.19,0,0,1-3.38-.72,5.44,5.44,0,0,1-2.21-2.1,9.77,9.77,0,0,1-1.19-3.42,26.83,26.83,0,0,1-.36-4.66,22.83,22.83,0,0,1,.4-4.46,10.51,10.51,0,0,1,1.28-3.49,6.2,6.2,0,0,1,2.33-2.25,8.43,8.43,0,0,1,6.95-.08,5.64,5.64,0,0,1,2.21,2.1,10,10,0,0,1,1.19,3.42A27.06,27.06,0,0,1,254.47,167Zm-2.89.2c0-1.06,0-2-.11-2.86a17.47,17.47,0,0,0-.34-2.24,7.14,7.14,0,0,0-.58-1.66,3.76,3.76,0,0,0-.84-1.15,3,3,0,0,0-1.13-.66,4.46,4.46,0,0,0-1.42-.21,3.66,3.66,0,0,0-2.27.66,4.38,4.38,0,0,0-1.37,1.81,9.29,9.29,0,0,0-.68,2.69,28.79,28.79,0,0,0-.18,3.32,29.24,29.24,0,0,0,.24,4.06,9.31,9.31,0,0,0,.78,2.72,3.47,3.47,0,0,0,1.37,1.52,3.94,3.94,0,0,0,2,.48,4.29,4.29,0,0,0,1.62-.29,3.32,3.32,0,0,0,1.2-.85,4.86,4.86,0,0,0,.83-1.32,10.09,10.09,0,0,0,.53-1.71,15.12,15.12,0,0,0,.27-2C251.56,168.72,251.58,168,251.58,167.17Z"/><path d="M276.38,157.86a10.59,10.59,0,0,0-2.22.14,8.88,8.88,0,0,0-7.61,7.78h.1a6.49,6.49,0,0,1,5.28-2.53c3.87,0,6.6,2.79,6.6,7.07,0,4-2.73,7.71-7.27,7.71s-7.74-3.64-7.74-9.33a13.77,13.77,0,0,1,3.7-9.86,12,12,0,0,1,7-3.23,13.68,13.68,0,0,1,2.16-.17Zm-.84,12.63c0-3.13-1.79-5-4.52-5a4.87,4.87,0,0,0-4.24,2.7,2.51,2.51,0,0,0-.33,1.31c.06,3.6,1.71,6.26,4.81,6.26C273.82,175.74,275.54,173.62,275.54,170.49Z"/><path d="M300.38,157.86a10.59,10.59,0,0,0-2.22.14,8.88,8.88,0,0,0-7.61,7.78h.1a6.49,6.49,0,0,1,5.29-2.53c3.87,0,6.59,2.79,6.59,7.07,0,4-2.72,7.71-7.27,7.71s-7.74-3.64-7.74-9.33a13.77,13.77,0,0,1,3.7-9.86,12,12,0,0,1,7-3.23,13.68,13.68,0,0,1,2.16-.17Zm-.84,12.63c0-3.13-1.79-5-4.51-5a4.85,4.85,0,0,0-4.24,2.7,2.42,2.42,0,0,0-.34,1.31c.07,3.6,1.72,6.26,4.81,6.26C297.82,175.74,299.54,173.62,299.54,170.49Z"/></svg>