<svg id="Слой_1" data-name="Слой 1" xmlns="http://www.w3.org/2000/svg" viewBox="0 0 400 400"><defs><style>.cls-1,.cls-2{fill:#fff;stroke:#000;stroke-width:3px;}.cls-1{stroke-miterlimit:10;}.cls-2{stroke-linecap:round;stroke-linejoin:round;}.cls-3{fill:#b8ad99;}.cls-4{fill:#608b70;}.cls-5{fill:#c1362d;}</style></defs><title>g52</title><path class="cls-1" d="M370.72,388H47.29V38.58S161.78,137.4,210.37,137.4,370.72,38.58,370.72,38.58Z"/><path class="cls-1" d="M220.63,221.24c-4.5-3.31-12.07-3.24-17.1-1.76-7.21,2.13-6.78,6.45-15.66,12.32-8.3,5.49-11.27,3.44-18.52,8.22-8.45,5.57-8.48,11-14.24,18.19a53.93,53.93,0,0,1-29.21,17.6c-9.48,2-12.14-.58-17.8,2.35-8.61,4.44-13.09,15.84-9.26,24,3,6.54,9,6,22.79,15.26,10.92,7.31,21.25,14.22,23.5,24.06,3,13.28-7.87,16-3.56,19.46,3.9,3.14,15.32,4.65,24.93-1.86,10.45-7.08,9.13-11.2,17.8-15.26,14.3-6.69,30.58-1.43,31.34-1.17,10.35,3.49,15.75,10.32,19.23,14.67,8.09,10.1,4.63,14,10.68,18.19,10.53,7.24,31.73,2.78,44.87-4.7,3.15-1.78,10.56-6.11,15.67-14.08,12.74-19.87-8.22-32.17-8.55-72.17-.11-13.86,2.31-24.9-6.41-30.51-7.31-4.71-15-.78-22.07-5.87-11.56-8.27-3.46-27.36-8.55-28.75-2.33-.63-5.5,6.55-17.09,17.61-2.8,2.67-5.58,5.08-8.55,4.69-1.69-.22-3.25-1.33-6.41-6.45C222.86,226.25,224.09,223.8,220.63,221.24Z"/><polygon class="cls-1" points="238.03 285.57 255.66 254.15 272.59 285.57 238.03 285.57"/><path class="cls-2" d="M158.9,279.19c3.44,5.3,7.87,10.47,12.21,9.86,6.85-1,7-15.46,15.11-17.45,7.75-1.91,13.62,9.89,20.69,8,3.14-.84,7.11-4.53,9.44-18.6"/><path class="cls-1" d="M231.45,311.64a13.1,13.1,0,1,1-13.09-13.09A13.09,13.09,0,0,1,231.45,311.64Z"/><rect class="cls-1" x="159.53" y="306.78" width="27.78" height="27.78"/><polygon class="cls-1" points="270.79 322.92 277.63 315.33 277.11 325.54 287.32 325.01 279.73 331.86 287.32 338.71 277.11 338.19 277.63 348.4 270.79 340.81 263.94 348.4 264.46 338.19 254.25 338.71 261.84 331.86 254.25 325.01 264.46 325.54 263.94 315.33 270.79 322.92"/><polyline class="cls-1" points="222.97 322.59 218.55 306.47 214.14 322.59"/><polygon class="cls-3" points="255.39 271.42 257.73 268.42 257.59 272.22 261.31 271.42 258.76 274.25 262.13 276.03 258.35 276.55 259.79 280.08 256.56 278.05 255.39 281.68 254.22 278.05 251 280.08 252.43 276.55 248.66 276.03 252.03 274.25 249.47 271.42 253.2 272.22 253.06 268.42 255.39 271.42"/><path class="cls-4" d="M168.86,313.22a3.31,3.31,0,1,1-3.31-3.31,3.31,3.31,0,0,1,3.31,3.31"/><path class="cls-4" d="M176.51,313.22a3.31,3.31,0,1,1-3.3-3.31,3.3,3.3,0,0,1,3.3,3.31"/><path class="cls-4" d="M184.17,313.22a3.31,3.31,0,1,1-3.31-3.31,3.31,3.31,0,0,1,3.31,3.31"/><path class="cls-4" d="M168.86,328.53a3.31,3.31,0,1,1-3.31-3.31,3.31,3.31,0,0,1,3.31,3.31"/><path class="cls-4" d="M176.51,328.53a3.31,3.31,0,1,1-3.3-3.31,3.31,3.31,0,0,1,3.3,3.31"/><path class="cls-4" d="M184.17,328.53a3.31,3.31,0,1,1-3.31-3.31,3.31,3.31,0,0,1,3.31,3.31"/><path class="cls-4" d="M168.86,320.87a3.31,3.31,0,1,1-3.31-3.3,3.31,3.31,0,0,1,3.31,3.3"/><path class="cls-4" d="M184.17,320.87a3.31,3.31,0,1,1-3.31-3.3,3.31,3.31,0,0,1,3.31,3.3"/><polygon class="cls-3" points="173.31 318.75 174.66 317.01 174.58 319.21 176.73 318.75 175.26 320.38 177.2 321.4 175.02 321.71 175.85 323.74 173.99 322.57 173.31 324.67 172.64 322.57 170.78 323.74 171.6 321.71 169.43 321.4 171.37 320.38 169.9 318.75 172.04 319.21 171.96 317.01 173.31 318.75"/><polygon class="cls-5" points="273.33 327.56 275.86 331.95 273.33 336.33 268.27 336.33 265.74 331.95 268.27 327.56 273.33 327.56"/><polygon class="cls-3" points="218.09 303.12 218.64 301.43 219.18 303.13 220.69 302.18 220.02 303.83 221.78 304.07 220.21 304.9 221.4 306.22 219.66 305.85 219.72 307.63 218.63 306.22 217.54 307.62 217.61 305.85 215.87 306.22 217.06 304.9 215.49 304.07 217.25 303.83 216.59 302.18 218.09 303.12"/><path d="M175.82,156.37h4.24l8,21.35h-4.57l-1.5-4.33h-8.31l-1.5,4.33h-4.3ZM174.88,170h5.89l-2.94-8.42Z"/><path d="M217.43,177.53c0,.13,0,.19-.1.19-.68,0-1.23,0-1.64,0l-2.31,0-2.54,0c-.37,0-.87,0-1.51,0-.07,0-.1-.06-.1-.19s0-.19.1-.19a7.75,7.75,0,0,0,1.8-.16,1.11,1.11,0,0,0,.77-.63,4,4,0,0,0,.19-1.43v-7.49h-11.7v7.49a4,4,0,0,0,.19,1.43,1.11,1.11,0,0,0,.77.63,7.75,7.75,0,0,0,1.8.16s.07.06.07.19,0,.19-.07.19c-.68,0-1.23,0-1.64,0l-2.47,0-2.28,0q-.62,0-1.68,0s-.06-.06-.06-.19,0-.19.06-.19a7.36,7.36,0,0,0,1.76-.16,1.15,1.15,0,0,0,.77-.63,3.68,3.68,0,0,0,.21-1.43V160.23a3.76,3.76,0,0,0-.2-1.41,1.11,1.11,0,0,0-.74-.63,6,6,0,0,0-1.73-.18c-.07,0-.1-.06-.1-.19s0-.19.1-.19l1.64,0q1.35.06,2.25.06c.68,0,1.52,0,2.51-.06l1.6,0s.07.06.07.19,0,.19-.07.19a5.83,5.83,0,0,0-1.76.2,1.18,1.18,0,0,0-.79.66,3.64,3.64,0,0,0-.21,1.43v6.59h11.7V160.3a3.64,3.64,0,0,0-.21-1.43,1.17,1.17,0,0,0-.77-.66,5.85,5.85,0,0,0-1.78-.2c-.07,0-.1-.06-.1-.19s0-.19.1-.19l1.51,0c1,0,1.83.06,2.54.06s1.37,0,2.31-.06l1.64,0c.07,0,.1.06.1.19s0,.19-.1.19a6,6,0,0,0-1.73.18,1.19,1.19,0,0,0-.76.63,3.53,3.53,0,0,0-.21,1.41v14.89a3.68,3.68,0,0,0,.21,1.43,1.14,1.14,0,0,0,.76.63,7,7,0,0,0,1.73.16C217.4,177.34,217.43,177.4,217.43,177.53Z"/><path d="M227.13,178.19a6.15,6.15,0,0,1-1.41-.13,2.9,2.9,0,0,1-.89-.34.66.66,0,0,1-.16-.17.44.44,0,0,1-.07-.24.44.44,0,0,1,.1-.28.3.3,0,0,1,.25-.13,2.92,2.92,0,0,0,1.53-.46A6.09,6.09,0,0,0,228,175.1a17.26,17.26,0,0,0,1.5-2.15,16.05,16.05,0,0,1,1.93-2.63,4.72,4.72,0,0,1,2.31-1.52q.12-.06.09-.12s-.12-.07-.3-.09a4.85,4.85,0,0,1-2.32-.91,5,5,0,0,1-1.54-1.78,5.15,5.15,0,0,1,.42-5.26,5.34,5.34,0,0,1,2.62-1.72,12.26,12.26,0,0,1,3.77-.54c.53,0,1,0,1.35,0l1.06.1a9.47,9.47,0,0,0,1.12.06c.43,0,.82,0,1.16,0l1.09-.06c.39,0,.82,0,1.31,0a1.47,1.47,0,0,1,.55.09.31.31,0,0,1,.22.3c0,.27-.29.47-.85.59a3.21,3.21,0,0,0-1.58.66,1.9,1.9,0,0,0-.46,1.43v13.31a1.79,1.79,0,0,0,.53,1.44,3.6,3.6,0,0,0,1.62.65c.61.12.92.3.92.56s-.09.23-.25.29a1.82,1.82,0,0,1-.61.09c-.57,0-1,0-1.43,0l-1.07-.09c-.34,0-.72-.05-1.15-.05s-.86,0-1.24,0l-1.19.09c-.42,0-.91.06-1.46.06a1.57,1.57,0,0,1-.6-.1c-.17-.07-.25-.16-.25-.28a.39.39,0,0,1,.23-.36,3.57,3.57,0,0,1,.68-.2,5.1,5.1,0,0,0,1.21-.43,1.69,1.69,0,0,0,.69-.66,2.08,2.08,0,0,0,.22-1l0-5.24c0-.4-.06-.62-.19-.68a2.18,2.18,0,0,0-.78-.09,1.34,1.34,0,0,0-.68.21l-.73.44a6.34,6.34,0,0,0-1.92,2c-.59.94-1.2,1.89-1.82,2.85a19,19,0,0,1-1.4,1.87,6.8,6.8,0,0,1-1.65,1.41A3.84,3.84,0,0,1,227.13,178.19Zm9.31-10.39a3.53,3.53,0,0,0,1.35-.21.86.86,0,0,0,.5-.91v-5.27a1.82,1.82,0,0,0-.56-1.5,2.21,2.21,0,0,0-1.5-.47,4.09,4.09,0,0,0-2,.48,3.74,3.74,0,0,0-1.43,1.39,4.22,4.22,0,0,0-.53,2.16,4.47,4.47,0,0,0,1.05,3.25A4.1,4.1,0,0,0,236.44,167.8Z"/><path d="M130.8,207.79h-.71l-1.22-.05-1.43-.06-1.35,0-1.55,0-1.94.05-1.71,0H120a.82.82,0,0,1-.33-.18c-.17-.11-.25-.22-.25-.32a.34.34,0,0,1,.08-.26l.21-.21,4.77-5.07a13.72,13.72,0,0,0,2.4-3.41,8.55,8.55,0,0,0,.9-3.83,3.22,3.22,0,0,0-.83-2.31,2.71,2.71,0,0,0-2.06-.87,3.9,3.9,0,0,0-2.13.63,5.51,5.51,0,0,0-1.61,1.58,1.26,1.26,0,0,1-.29.32.59.59,0,0,1-.38.15c-.1,0-.2-.08-.28-.24a1.13,1.13,0,0,1-.14-.58,2.09,2.09,0,0,1,.45-1,6.49,6.49,0,0,1,1.23-1.34,7.62,7.62,0,0,1,1.89-1.15,5.91,5.91,0,0,1,2.35-.47,4.91,4.91,0,0,1,2.54.63,4.28,4.28,0,0,1,1.61,1.74,5.43,5.43,0,0,1,.56,2.52,5.79,5.79,0,0,1-.3,1.74,10.53,10.53,0,0,1-.81,1.82,11.32,11.32,0,0,1-1.12,1.62c-.26.32-.63.72-1.11,1.21L125.78,202c-.54.54-1,1.05-1.55,1.53L123,204.7a2.45,2.45,0,0,0-.45.53c0,.08.13.14.41.18s.75.07,1.19.08.92,0,1.43,0,1,0,1.57,0,1,0,1.52-.08a7.84,7.84,0,0,0,1.27-.18,1.89,1.89,0,0,0,.81-.44,4.2,4.2,0,0,0,.66-.91c.08-.12.19-.26.32-.42a.62.62,0,0,1,.44-.23.24.24,0,0,1,.24.14.52.52,0,0,1,0,.3c-.06.23-.16.55-.29.94s-.28.81-.42,1.25-.24.86-.32,1.25a.71.71,0,0,1-.28.55A.75.75,0,0,1,130.8,207.79Z"/><path d="M153.85,197.5a23.34,23.34,0,0,1-.37,4.27,9.89,9.89,0,0,1-1.23,3.32,6,6,0,0,1-2.23,2.15,8,8,0,0,1-6.64.08,5.36,5.36,0,0,1-2.11-2,9.6,9.6,0,0,1-1.14-3.27,26.6,26.6,0,0,1-.34-4.45,22.42,22.42,0,0,1,.38-4.26A9.94,9.94,0,0,1,141.4,190a5.9,5.9,0,0,1,2.23-2.15,6.91,6.91,0,0,1,3.39-.76,7.06,7.06,0,0,1,3.24.68,5.36,5.36,0,0,1,2.11,2,9.6,9.6,0,0,1,1.14,3.27A26.6,26.6,0,0,1,153.85,197.5Zm-2.77.19c0-1,0-1.93-.11-2.74a16.08,16.08,0,0,0-.32-2.13,6.56,6.56,0,0,0-.55-1.59,3.57,3.57,0,0,0-.81-1.1,2.83,2.83,0,0,0-1.07-.63,4.46,4.46,0,0,0-1.36-.2,3.51,3.51,0,0,0-2.17.63,4.23,4.23,0,0,0-1.31,1.73,9.2,9.2,0,0,0-.65,2.57,28.62,28.62,0,0,0-.17,3.17,28.12,28.12,0,0,0,.23,3.87,8.58,8.58,0,0,0,.75,2.6,3.35,3.35,0,0,0,1.3,1.46,3.75,3.75,0,0,0,1.93.46,3.88,3.88,0,0,0,1.54-.29,3.1,3.1,0,0,0,1.15-.8,4.48,4.48,0,0,0,.79-1.27,8.2,8.2,0,0,0,.5-1.63,12.47,12.47,0,0,0,.26-1.94C151.06,199.17,151.08,198.44,151.08,197.69Z"/><path d="M176.57,197.5a22.49,22.49,0,0,1-.37,4.27,9.67,9.67,0,0,1-1.22,3.32,6,6,0,0,1-2.24,2.15,8,8,0,0,1-6.63.08,5.36,5.36,0,0,1-2.11-2,9.19,9.19,0,0,1-1.14-3.27,25.58,25.58,0,0,1-.34-4.45,22.42,22.42,0,0,1,.38-4.26,10.16,10.16,0,0,1,1.22-3.33,6,6,0,0,1,2.23-2.15,6.91,6.91,0,0,1,3.39-.76,7.07,7.07,0,0,1,3.25.68,5.42,5.42,0,0,1,2.11,2,9.6,9.6,0,0,1,1.14,3.27A26.68,26.68,0,0,1,176.57,197.5Zm-2.76.19c0-1,0-1.93-.11-2.74a16.08,16.08,0,0,0-.32-2.13,7,7,0,0,0-.55-1.59,3.93,3.93,0,0,0-.81-1.1,2.83,2.83,0,0,0-1.07-.63,4.46,4.46,0,0,0-1.36-.2,3.51,3.51,0,0,0-2.17.63,4.23,4.23,0,0,0-1.31,1.73,8.87,8.87,0,0,0-.65,2.57,31.23,31.23,0,0,0,.06,7,8.58,8.58,0,0,0,.75,2.6,3.35,3.35,0,0,0,1.3,1.46,3.74,3.74,0,0,0,1.92.46,3.93,3.93,0,0,0,1.55-.29,3.18,3.18,0,0,0,1.15-.8,4.72,4.72,0,0,0,.79-1.27,8.92,8.92,0,0,0,.5-1.63,13.8,13.8,0,0,0,.26-1.94C173.79,199.17,173.81,198.44,173.81,197.69Z"/><path d="M199.3,197.5a22.49,22.49,0,0,1-.37,4.27,9.67,9.67,0,0,1-1.22,3.32,6,6,0,0,1-2.24,2.15,8,8,0,0,1-6.63.08,5.29,5.29,0,0,1-2.11-2,9.19,9.19,0,0,1-1.14-3.27,25.58,25.58,0,0,1-.34-4.45,22.42,22.42,0,0,1,.38-4.26,10.16,10.16,0,0,1,1.22-3.33,6,6,0,0,1,2.23-2.15,6.91,6.91,0,0,1,3.39-.76,7,7,0,0,1,3.24.68,5.38,5.38,0,0,1,2.12,2,9.39,9.39,0,0,1,1.13,3.27A25.58,25.58,0,0,1,199.3,197.5Zm-2.76.19c0-1,0-1.93-.11-2.74a17.92,17.92,0,0,0-.32-2.13,7.54,7.54,0,0,0-.55-1.59,3.93,3.93,0,0,0-.81-1.1,2.87,2.87,0,0,0-1.08-.63,4.37,4.37,0,0,0-1.36-.2,3.46,3.46,0,0,0-2.16.63,4.15,4.15,0,0,0-1.31,1.73,8.87,8.87,0,0,0-.65,2.57,29.74,29.74,0,0,0,.06,7,8.6,8.6,0,0,0,.74,2.6,3.36,3.36,0,0,0,1.31,1.46,3.74,3.74,0,0,0,1.92.46,3.93,3.93,0,0,0,1.55-.29,3.15,3.15,0,0,0,1.14-.8,4.51,4.51,0,0,0,.8-1.27,8.92,8.92,0,0,0,.5-1.63,15.45,15.45,0,0,0,.26-1.94C196.51,199.17,196.54,198.44,196.54,197.69Z"/><path d="M207.88,202.7a.16.16,0,0,1-.18-.18,4.15,4.15,0,0,1,.13-1c.09-.35.2-.54.34-.56l2.83-.4c.94-.12,1.88-.24,2.83-.34a.33.33,0,0,1,.16.05.14.14,0,0,1,.07.13,4,4,0,0,1-.13,1c-.09.32-.25.5-.49.54l-2.69.4C209.84,202.49,208.88,202.6,207.88,202.7Z"/><path d="M233.47,207.79h-.71l-1.22-.05-1.43-.06-1.35,0-1.55,0-1.94.05-1.71,0h-.93a.84.84,0,0,1-.34-.18c-.16-.11-.25-.22-.25-.32a.34.34,0,0,1,.09-.26l.21-.21,4.77-5.07a13.72,13.72,0,0,0,2.4-3.41,8.55,8.55,0,0,0,.9-3.83,3.22,3.22,0,0,0-.83-2.31,2.73,2.73,0,0,0-2.06-.87,3.9,3.9,0,0,0-2.14.63,5.48,5.48,0,0,0-1.6,1.58,1.3,1.3,0,0,1-.3.32.55.55,0,0,1-.38.15c-.1,0-.19-.08-.28-.24a1.13,1.13,0,0,1-.13-.58,2.15,2.15,0,0,1,.44-1,6.86,6.86,0,0,1,1.24-1.34,7.74,7.74,0,0,1,1.88-1.15,6,6,0,0,1,2.36-.47,4.87,4.87,0,0,1,2.53.63,4.24,4.24,0,0,1,1.62,1.74,5.55,5.55,0,0,1,.25,4.26,9.2,9.2,0,0,1-.81,1.82,9.9,9.9,0,0,1-1.12,1.62,15.71,15.71,0,0,1-1.1,1.21L228.45,202l-1.55,1.53c-.49.48-.89.88-1.19,1.19a2.34,2.34,0,0,0-.46.53c0,.08.14.14.41.18s.76.07,1.2.08.91,0,1.43,0,1.05,0,1.57,0,1,0,1.52-.08a7.53,7.53,0,0,0,1.26-.18,1.78,1.78,0,0,0,.81-.44,3.9,3.9,0,0,0,.67-.91,2.93,2.93,0,0,1,.32-.42.6.6,0,0,1,.44-.23.24.24,0,0,1,.24.14.52.52,0,0,1,0,.3c-.06.23-.16.55-.3.94s-.27.81-.41,1.25a10,10,0,0,0-.32,1.25.68.68,0,0,1-.65.68Z"/><path d="M256.51,197.5a22.49,22.49,0,0,1-.37,4.27,9.67,9.67,0,0,1-1.22,3.32,6,6,0,0,1-2.24,2.15,8,8,0,0,1-6.63.08,5.29,5.29,0,0,1-2.11-2A9.19,9.19,0,0,1,242.8,202a25.58,25.58,0,0,1-.34-4.45,22.42,22.42,0,0,1,.38-4.26,10.16,10.16,0,0,1,1.22-3.33,6,6,0,0,1,2.23-2.15,6.91,6.91,0,0,1,3.39-.76,7.07,7.07,0,0,1,3.25.68,5.42,5.42,0,0,1,2.11,2,9.6,9.6,0,0,1,1.14,3.27A26.68,26.68,0,0,1,256.51,197.5Zm-2.76.19c0-1,0-1.93-.11-2.74a16.08,16.08,0,0,0-.32-2.13,7,7,0,0,0-.55-1.59,3.93,3.93,0,0,0-.81-1.1,2.8,2.8,0,0,0-1.08-.63,4.35,4.35,0,0,0-1.35-.2,3.49,3.49,0,0,0-2.17.63,4.15,4.15,0,0,0-1.31,1.73,8.87,8.87,0,0,0-.65,2.57,29.74,29.74,0,0,0,.06,7,8.58,8.58,0,0,0,.75,2.6,3.35,3.35,0,0,0,1.3,1.46,3.74,3.74,0,0,0,1.92.46,3.93,3.93,0,0,0,1.55-.29,3.06,3.06,0,0,0,1.14-.8,4.51,4.51,0,0,0,.8-1.27,8.92,8.92,0,0,0,.5-1.63,13.8,13.8,0,0,0,.26-1.94C253.73,199.17,253.75,198.44,253.75,197.69Z"/><path d="M276.72,207.79H276l-1.22-.05-1.43-.06-1.35,0-1.55,0-1.94.05-1.71,0h-.93a.82.82,0,0,1-.33-.18c-.17-.11-.26-.22-.26-.32a.34.34,0,0,1,.09-.26l.21-.21,4.77-5.07a13.72,13.72,0,0,0,2.4-3.41,8.55,8.55,0,0,0,.9-3.83,3.22,3.22,0,0,0-.83-2.31,2.71,2.71,0,0,0-2.06-.87,3.87,3.87,0,0,0-2.13.63,5.4,5.4,0,0,0-1.61,1.58,1.26,1.26,0,0,1-.29.32.6.6,0,0,1-.39.15c-.09,0-.19-.08-.27-.24a1.13,1.13,0,0,1-.14-.58,2.15,2.15,0,0,1,.44-1,6.86,6.86,0,0,1,1.24-1.34,7.62,7.62,0,0,1,1.89-1.15,5.91,5.91,0,0,1,2.35-.47,4.85,4.85,0,0,1,2.53.63,4.24,4.24,0,0,1,1.62,1.74,5.43,5.43,0,0,1,.56,2.52,5.52,5.52,0,0,1-.31,1.74,9.2,9.2,0,0,1-.81,1.82,10.51,10.51,0,0,1-1.11,1.62c-.26.32-.63.72-1.11,1.21L271.7,202l-1.55,1.53L269,204.7a2.72,2.72,0,0,0-.46.53q0,.12.42.18c.35,0,.75.07,1.19.08s.92,0,1.43,0,1,0,1.57,0,1,0,1.52-.08a7.84,7.84,0,0,0,1.27-.18,1.89,1.89,0,0,0,.81-.44,4.2,4.2,0,0,0,.66-.91c.08-.12.19-.26.32-.42a.62.62,0,0,1,.44-.23.24.24,0,0,1,.24.14.52.52,0,0,1,0,.3c-.06.23-.16.55-.3.94s-.27.81-.41,1.25-.24.86-.32,1.25a.71.71,0,0,1-.28.55A.75.75,0,0,1,276.72,207.79Z"/><path d="M289.18,207.7v-16h-4.6V189c3.07-.09,4.57-.29,5.57-2.62h3.09V207.7Z"/></svg>