<svg id="Слой_1" data-name="Слой 1" xmlns="http://www.w3.org/2000/svg" viewBox="0 0 400 400"><defs><style>.cls-1{fill:#fff;stroke:#000;stroke-miterlimit:10;stroke-width:3px;}.cls-2{fill:#b8ad99;}.cls-3{fill:#c1362d;}</style></defs><title>g55</title><path class="cls-1" d="M338.49,391H30.61V217.49s236.1-202,307.88-153.61C403.46,107.72,338.49,391,338.49,391Z"/><path class="cls-1" d="M277.5,311.4c12.4-13.56,40.7,1.35,47.23-9.72,3.9-6.63-5.53-13.14-1.79-27.47,2.22-8.49,6.91-11.5,5-16.44s-7.4-4.17-15.08-10.13C303,239.91,306.26,234,299,229.9c-10.36-5.87-19.43,5-34.13-.75-5.6-2.22-4.42-3.85-13.26-8.58-7.59-4.07-15.68-8.4-24.1-7.73-13.24,1.06-25.09,14.3-28.21,27.54-3.54,15.07,5.26,25.82-.26,30.23-5.23,4.19-17.2-2.23-20.72-4.11-11.23-6-12.84-12.28-24-22.2-8.58-7.67-16.16-14.42-27.28-16.92-14.72-3.31-18.92,4.58-41.35,1.93-7-.82-9.91-2-12.41.08-6.11,5-2.93,23.71,7.28,35.93,8.88,10.62,17.69,9.9,22.94,21.68,2.4,5.38,2.06,8.91,6.05,12.54,4.61,4.19,9,3.13,16.85,5.33,11.67,3.29,19.28,10.61,22.87,14.05,10.06,9.67,5.7,13.21,15.19,22.84,10.54,10.71,19.18,9.63,23.43,19.4,3.21,7.39,1,14.24,2.45,14.52,1.84.35,3.15-11,10.92-23,2.51-3.89,8.47-12.85,19.75-18.52,3.71-1.86,16.56-8.32,23.75-3.2,4.62,3.28,4,9.24,8.37,10.54.88.26,4.05.94,9.79-3.93C274,328.32,270.89,318.63,277.5,311.4Z"/><polygon class="cls-1" points="113.85 286.5 136.84 245.53 158.92 286.5 113.85 286.5"/><polygon class="cls-1" points="284.12 258.7 293.87 247.9 293.13 262.43 307.66 261.69 296.86 271.44 307.66 281.19 293.13 280.45 293.87 294.98 284.12 284.18 274.37 294.98 275.12 280.45 260.58 281.19 271.38 271.44 260.58 261.69 275.12 262.43 274.37 247.9 284.12 258.7"/><path class="cls-1" d="M242.58,290.4a16.84,16.84,0,1,1-16.84-16.84A16.84,16.84,0,0,1,242.58,290.4Z"/><polygon class="cls-2" points="136.49 268.06 139.54 264.14 139.36 269.1 144.21 268.06 140.88 271.74 145.27 274.06 140.35 274.75 142.22 279.35 138.01 276.7 136.49 281.43 134.97 276.7 130.76 279.35 132.63 274.75 127.71 274.06 132.1 271.74 128.77 268.06 133.63 269.1 133.44 264.14 136.49 268.06"/><polygon class="cls-3" points="287.74 265.32 291.34 271.56 287.74 277.8 280.54 277.8 276.93 271.56 280.54 265.32 287.74 265.32"/><polygon class="cls-2" points="233.91 236.87 235.74 228.29 239.27 236.32 246.19 230.92 243.73 239.34 252.5 239.65 245.2 244.52 251.72 250.39 243 249.44 244.22 258.13 238.16 251.79 233.51 259.23 232.93 250.47 224.59 253.18 229.78 246.11 221.64 242.82 230.16 240.74 226.05 232.99 233.91 236.87"/><polygon class="cls-2" points="180.73 305.65 182.55 297.07 186.09 305.1 193 299.7 190.55 308.12 199.31 308.43 192.02 313.3 198.54 319.17 189.82 318.21 191.04 326.9 184.97 320.56 180.32 328 179.75 319.25 171.41 321.96 176.59 314.89 168.46 311.6 176.98 309.51 172.86 301.77 180.73 305.65"/><polygon class="cls-3" points="230.56 281.63 235.62 290.39 230.56 299.14 220.46 299.14 215.4 290.39 220.46 281.63 230.56 281.63"/><path d="M189.05,152.89c0,.1,0,.15-.05.15-.53,0-1,0-1.27,0l-1.68,0-1.84,0c-.3,0-.73,0-1.27,0,0,0,0,0,0-.15s0-.15,0-.15a5.43,5.43,0,0,0,1.34-.12.82.82,0,0,0,.57-.48,2.92,2.92,0,0,0,.15-1.08V139.91a4.26,4.26,0,0,0-.09-1.1.49.49,0,0,0-.38-.34,6.24,6.24,0,0,0-1.22-.07h-5a7.42,7.42,0,0,0-1.31.07.49.49,0,0,0-.41.34,4.26,4.26,0,0,0-.09,1.1v11.15a3,3,0,0,0,.15,1.1.83.83,0,0,0,.56.46,5.24,5.24,0,0,0,1.32.12s.07,0,.07.15,0,.15-.07.15c-.52,0-.94,0-1.25,0l-1.83,0-1.71,0c-.31,0-.73,0-1.27,0,0,0-.05,0-.05-.15s0-.15.05-.15a5.34,5.34,0,0,0,1.33-.12.85.85,0,0,0,.59-.48,2.88,2.88,0,0,0,.16-1.08V140a3.61,3.61,0,0,0-.15-1.17,1,1,0,0,0-.59-.61,3.28,3.28,0,0,0-1.29-.2s-.07,0-.07-.14,0-.15.07-.15q.81,0,1.56,0c2.19,0,4.44,0,6.77,0,2.09,0,4.52,0,7.31-.07H189s.05.05.05.15,0,.14-.05.14a3.45,3.45,0,0,0-1.32.2,1,1,0,0,0-.59.61,3.32,3.32,0,0,0-.16,1.17v11a2.69,2.69,0,0,0,.16,1.08.84.84,0,0,0,.58.48,5.39,5.39,0,0,0,1.33.12S189.05,152.79,189.05,152.89Z"/><path d="M195.28,153.15a1.17,1.17,0,0,1-.45-.08.24.24,0,0,1-.17-.24.33.33,0,0,1,.17-.29,2.72,2.72,0,0,1,.5-.22,3.47,3.47,0,0,0,1.09-.54,2.51,2.51,0,0,0,.81-1.1c.4-.9.77-1.77,1.12-2.6s.67-1.65,1-2.45.64-1.64,1-2.5.66-1.77,1-2.74a6.68,6.68,0,0,0,.29-.86,4.45,4.45,0,0,0,.12-.62c.19,0,.37-.09.53-.14a3.1,3.1,0,0,0,.54-.24.91.91,0,0,0,.41-.39,4.09,4.09,0,0,1,.24-.37l.1,0s.07,0,.1.08a.64.64,0,0,1,.1.24c0,.09.05.19.08.29.34,1.09.7,2.2,1.06,3.33L206,145c.36,1.07.69,2.07,1,3s.58,1.72.8,2.4a3.58,3.58,0,0,0,.58,1.13,2.36,2.36,0,0,0,.72.58,3.12,3.12,0,0,0,.83.28,1.23,1.23,0,0,1,.5.21.38.38,0,0,1,.17.31c0,.09-.06.15-.17.19a1.22,1.22,0,0,1-.41.06c-.24,0-.55,0-.94,0l-1.21-.05-1.14,0h-.94c-.35,0-.67,0-1,0l-.79,0a1.08,1.08,0,0,1-.44-.08c-.11,0-.17-.12-.17-.21a.32.32,0,0,1,.21-.29,1.3,1.3,0,0,1,.47-.16,2.7,2.7,0,0,0,1.1-.4.69.69,0,0,0,.28-.72,5.2,5.2,0,0,0-.15-.95c-.09-.38-.2-.79-.32-1.21l-.33-1.17a.3.3,0,0,0-.16-.23,1.13,1.13,0,0,0-.38,0H200a.29.29,0,0,0-.2.07.93.93,0,0,0-.18.31c0,.18-.12.4-.21.68s-.19.57-.28.87-.17.59-.24.85a5.43,5.43,0,0,0-.12.57,1,1,0,0,0,.28.89,2.46,2.46,0,0,0,1,.5c.45.12.67.27.67.45a.21.21,0,0,1-.17.21,1.27,1.27,0,0,1-.43.06l-1,0c-.37,0-.77,0-1.18,0s-.94,0-1.39.07A11.48,11.48,0,0,1,195.28,153.15Zm5.31-6.47h3.26c.21,0,.32,0,.32-.11s0-.08,0-.11l0-.14-1.65-5.3q-.12-.36-.18-.36s-.08.11-.16.33l-1.95,5.33a.65.65,0,0,0,0,.18.16.16,0,0,0,.12.15A1.42,1.42,0,0,0,200.59,146.68Z"/><path d="M230.92,137.19v.45a4,4,0,0,0-1.16.16.85.85,0,0,0-.52.54,4,4,0,0,0-.14,1.22v11.1a4,4,0,0,0,.14,1.21.8.8,0,0,0,.52.54,4.62,4.62,0,0,0,1.16.18V153c-.32,0-.73,0-1.24-.06h-3.17c-.53,0-1,0-1.3.06v-.45a4.6,4.6,0,0,0,1.15-.18.82.82,0,0,0,.53-.54,4.09,4.09,0,0,0,.13-1.21v-11.1a2.5,2.5,0,0,0-.33-1.58,2.2,2.2,0,0,0-1.48-.34h-3.65a2.2,2.2,0,0,0-1.48.34,2.5,2.5,0,0,0-.33,1.58v11.1a4.09,4.09,0,0,0,.13,1.21.82.82,0,0,0,.53.54,4.52,4.52,0,0,0,1.15.18V153q-.51,0-1.29-.06h-3.19q-.75,0-1.23.06v-.45a4.52,4.52,0,0,0,1.15-.18.8.8,0,0,0,.53-.54,4,4,0,0,0,.14-1.21v-11.1a4,4,0,0,0-.14-1.22.84.84,0,0,0-.53-.54,3.88,3.88,0,0,0-1.15-.16v-.45l1.23,0c.51,0,1,0,1.64,0,.88,0,1.75,0,2.62,0l2.08,0,2.06,0c.85,0,1.7,0,2.57,0,.58,0,1.13,0,1.63,0Z"/><path d="M244.57,137.14l5.44,14a2.57,2.57,0,0,0,.7,1.1,1.45,1.45,0,0,0,.71.33V153c-.45,0-1,0-1.58-.06h-3.77c-.61,0-1.1,0-1.46.06v-.45a2.18,2.18,0,0,0,1.45-.39c.2-.24.15-.73-.15-1.49l-3.8-10.41.4-.58-3.4,8.86a7.54,7.54,0,0,0-.62,2.51,1.22,1.22,0,0,0,.55,1.15,3.3,3.3,0,0,0,1.43.35V153l-1.41-.06h-2.29c-.29,0-.55,0-.77.06v-.45a1.86,1.86,0,0,0,1-.61,5.2,5.2,0,0,0,1-1.74l5.1-13.1q.36,0,.78,0C244.07,137.17,244.33,137.16,244.57,137.14Zm1.56,9.45V147h-6.67l.23-.45Z"/><path d="M277,137.19c-.06.57-.1,1.11-.12,1.64s0,.94,0,1.22,0,.7,0,1,0,.59,0,.83h-.51a14.13,14.13,0,0,0-.43-2.47,2.15,2.15,0,0,0-.94-1.31,4.14,4.14,0,0,0-2.08-.41h-.52a4.12,4.12,0,0,0-1.15.13.77.77,0,0,0-.53.51,4.44,4.44,0,0,0-.13,1.22v11.1a3.34,3.34,0,0,0,.17,1.21.92.92,0,0,0,.66.54,7,7,0,0,0,1.43.18V153c-.39,0-.88,0-1.48-.06H268q-.76,0-1.23.06v-.45a4.6,4.6,0,0,0,1.15-.18.82.82,0,0,0,.53-.54,4.46,4.46,0,0,0,.13-1.21v-11.1a4.44,4.44,0,0,0-.13-1.22.86.86,0,0,0-.53-.54,3.94,3.94,0,0,0-1.15-.16v-.45l2.35,0,2.36,0h1.78l1.89,0C275.82,137.24,276.45,137.22,277,137.19Z"/><path d="M290,135.31c4.32,0,7.35,1,7.35,5.36S294.3,146,290,146h-3.06v7h-2.49V135.31Zm-3.06,2.11v6.42h3.25c2.62,0,4.62-.26,4.62-3.17s-2-3.25-4.62-3.25Z"/><path d="M304.2,153.16a1.86,1.86,0,0,1-.52-.06c-.13,0-.19-.11-.19-.21s.27-.34.8-.44a1.86,1.86,0,0,0,1.2-.56,2.31,2.31,0,0,0,.27-1.27V139.57a2.91,2.91,0,0,0-.18-1.21c-.12-.24-.5-.41-1.11-.53s-.81-.26-.81-.48.06-.17.19-.21a1.9,1.9,0,0,1,.52-.06c.44,0,.78,0,1,0l.69,0h1.65l.71,0c.25,0,.6,0,1,0a1.78,1.78,0,0,1,.51.06c.13,0,.19.11.19.21a.34.34,0,0,1-.19.29,1.69,1.69,0,0,1-.61.19,2.36,2.36,0,0,0-1.29.6,1.68,1.68,0,0,0-.37,1.14v9.26c0,.17,0,.27.07.32s.11,0,.2-.05l9.45-9.41a.57.57,0,0,0,.2-.39v-.1a1.18,1.18,0,0,0-.43-.89,2.65,2.65,0,0,0-1.16-.48c-.54-.09-.81-.26-.81-.48s.07-.17.2-.21a1.78,1.78,0,0,1,.51-.06c.44,0,.8,0,1.09,0l.82,0h1.62l.59,0c.22,0,.55,0,1,0a1.78,1.78,0,0,1,.51.06c.13,0,.2.11.2.21a.35.35,0,0,1-.2.29,1.62,1.62,0,0,1-.61.19c-.6.12-1,.31-1.12.59a2.37,2.37,0,0,0-.22,1.12v11.05a2.62,2.62,0,0,0,.24,1.3,1.71,1.71,0,0,0,1.15.56,2.2,2.2,0,0,1,.61.17.29.29,0,0,1,.2.27c0,.1-.07.17-.2.21a1.78,1.78,0,0,1-.51.06,9.51,9.51,0,0,1-1,0l-.71-.06c-.22,0-.5,0-.84,0s-.63,0-.85,0l-.72.06a9.84,9.84,0,0,1-1.05,0,1.78,1.78,0,0,1-.51-.06c-.13,0-.2-.11-.2-.21s.27-.34.81-.44a2.89,2.89,0,0,0,1.21-.47,1.17,1.17,0,0,0,.43-1v-9.73c0-.28-.08-.33-.25-.17l-9.48,9.43a.74.74,0,0,0-.16.2,1.5,1.5,0,0,0,0,.27,1.1,1.1,0,0,0,.54,1,4.69,4.69,0,0,0,1.37.44,2.31,2.31,0,0,1,.61.17.28.28,0,0,1,.19.27c0,.1-.06.17-.19.21a1.81,1.81,0,0,1-.52.06,10.72,10.72,0,0,1-1.08,0l-.82-.06c-.26,0-.58,0-1,0s-.63,0-.86,0l-.76.06A10.17,10.17,0,0,1,304.2,153.16Z"/><path d="M329.59,137.57a5.76,5.76,0,0,1-2-.71v-.93h13.13c0,.37,0,.79,0,1.24s-.07.92-.12,1.37-.11.9-.17,1.32-.13.81-.2,1.15h-1l-1.52-3.49h-4.4v5.57l.54-.06c.21,0,.43-.05.65-.06l.66,0h.57a10.13,10.13,0,0,1,2.37.27,5.78,5.78,0,0,1,2,.86,4.45,4.45,0,0,1,1.35,1.56,4.9,4.9,0,0,1,.5,2.29,4.77,4.77,0,0,1-.53,2.28,4.66,4.66,0,0,1-1.44,1.62,6.71,6.71,0,0,1-2.18,1,10.62,10.62,0,0,1-2.72.33h-.61l-1.1,0-1.22,0h-4.48v-.93a7.16,7.16,0,0,1,1-.46,5.09,5.09,0,0,1,1-.25Zm5,6.94q-.39,0-.75,0a3.9,3.9,0,0,0-.62.11v6.77a1.53,1.53,0,0,0,.31.05l.43,0h.76a2.86,2.86,0,0,0,2.26-.93,3.85,3.85,0,0,0,.81-2.61,4,4,0,0,0-.75-2.55A3,3,0,0,0,334.62,144.51Z"/><path d="M197.83,183.74V171.61h-3.49V169.5c2.33-.07,3.47-.22,4.23-2h2.35v16.23Z"/><path d="M208.58,184.43a.47.47,0,0,1-.25-.05.16.16,0,0,1-.07-.13.19.19,0,0,1,.1-.17.54.54,0,0,1,.22-.05,3.64,3.64,0,0,0,1.55-.44,9,9,0,0,0,1.79-1.18,10.22,10.22,0,0,0,1.62-1.67,10.9,10.9,0,0,0,1.16-1.84,7.7,7.7,0,0,0,.63-1.84,9.44,9.44,0,0,0,.21-2,5.31,5.31,0,0,0-.26-1.61,5.76,5.76,0,0,0-.7-1.48,4,4,0,0,0-1-1.07,2,2,0,0,0-1.18-.4,1.89,1.89,0,0,0-1.21.39,2.46,2.46,0,0,0-.73,1,2.75,2.75,0,0,0-.25,1.13,3,3,0,0,0,.32,1.32,3.11,3.11,0,0,0,.86,1.06,1.82,1.82,0,0,0,1.12.42,2.21,2.21,0,0,0,1-.19c.23-.13.48-.26.76-.39q.09,0,.15.06c0,.08,0,.14,0,.18a1.63,1.63,0,0,1-.33.44,5.19,5.19,0,0,1-.41.35c-.1.07-.27.17-.49.29a4.57,4.57,0,0,1-.74.31,2.57,2.57,0,0,1-.83.13,3.25,3.25,0,0,1-1.49-.37,3.19,3.19,0,0,1-1.18-1,2.41,2.41,0,0,1-.46-1.45,3.8,3.8,0,0,1,.34-1.54,4.93,4.93,0,0,1,.95-1.44,4.88,4.88,0,0,1,1.46-1.07,4.29,4.29,0,0,1,1.86-.4,3.2,3.2,0,0,1,1.58.44,5.24,5.24,0,0,1,1.39,1.16,5.79,5.79,0,0,1,1,1.65,5.07,5.07,0,0,1,.36,1.88,8.43,8.43,0,0,1-.38,2.56,9.37,9.37,0,0,1-1.1,2.25,18.82,18.82,0,0,1-1.75,2.19,7.08,7.08,0,0,1-1.34,1.17,10,10,0,0,1-1.5.82,7.46,7.46,0,0,1-1.49.5A6.49,6.49,0,0,1,208.58,184.43Z"/><path d="M223.79,184.43a.43.43,0,0,1-.24-.05.16.16,0,0,1-.07-.13.19.19,0,0,1,.1-.17.54.54,0,0,1,.21-.05,3.64,3.64,0,0,0,1.56-.44,9,9,0,0,0,1.79-1.18,10.22,10.22,0,0,0,1.62-1.67,10.9,10.9,0,0,0,1.16-1.84,7.7,7.7,0,0,0,.63-1.84,9.44,9.44,0,0,0,.21-2,5.31,5.31,0,0,0-.26-1.61,6.11,6.11,0,0,0-.7-1.48,4,4,0,0,0-1-1.07,2,2,0,0,0-1.18-.4,1.89,1.89,0,0,0-1.21.39,2.49,2.49,0,0,0-.74,1,2.91,2.91,0,0,0-.24,1.13,3,3,0,0,0,.32,1.32,3.11,3.11,0,0,0,.86,1.06,1.82,1.82,0,0,0,1.12.42,2.21,2.21,0,0,0,1-.19c.23-.13.48-.26.76-.39q.09,0,.15.06c0,.08,0,.14,0,.18a1.63,1.63,0,0,1-.33.44,5.19,5.19,0,0,1-.41.35c-.1.07-.27.17-.49.29a4.57,4.57,0,0,1-.74.31,2.57,2.57,0,0,1-.83.13,3.25,3.25,0,0,1-1.49-.37,3.19,3.19,0,0,1-1.18-1,2.41,2.41,0,0,1-.46-1.45,3.8,3.8,0,0,1,.34-1.54,4.93,4.93,0,0,1,.95-1.44,4.88,4.88,0,0,1,1.46-1.07,4.29,4.29,0,0,1,1.86-.4,3.2,3.2,0,0,1,1.58.44,5.24,5.24,0,0,1,1.39,1.16,5.79,5.79,0,0,1,1,1.65,5.07,5.07,0,0,1,.36,1.88,8.43,8.43,0,0,1-.38,2.56,9.37,9.37,0,0,1-1.1,2.25,18.82,18.82,0,0,1-1.75,2.19,7.08,7.08,0,0,1-1.34,1.17,10,10,0,0,1-1.5.82,7.68,7.68,0,0,1-1.49.5A6.5,6.5,0,0,1,223.79,184.43Z"/><path d="M242.93,184.05a4.39,4.39,0,0,1-1.93-.43,3.83,3.83,0,0,1-1.47-1.22,3.09,3.09,0,0,1-.56-1.82,2.79,2.79,0,0,1,.51-1.68,4.93,4.93,0,0,1,1.22-1.15c.47-.3.9-.56,1.27-.77.1-.06.14-.1.11-.14l-.18-.15-1.26-1.11a4.57,4.57,0,0,1-1-1.19,3.29,3.29,0,0,1-.36-1.6,2.43,2.43,0,0,1,.6-1.59,4.49,4.49,0,0,1,1.54-1.14,4.7,4.7,0,0,1,1.93-.42,4,4,0,0,1,1.71.37,3.28,3.28,0,0,1,1.33,1,2.51,2.51,0,0,1,.52,1.59,2.05,2.05,0,0,1-.41,1.31,7.21,7.21,0,0,1-.78.84c-.21.17-.39.33-.56.45l-.62.49q-.3.2-.3.27c0,.06.06.12.18.2a14,14,0,0,1,1.5,1.14,4.42,4.42,0,0,1,1,1.21,3,3,0,0,1,.37,1.52,3.46,3.46,0,0,1-.65,2.06,4.7,4.7,0,0,1-1.65,1.41A4.65,4.65,0,0,1,242.93,184.05Zm.31-.65a2.12,2.12,0,0,0,1.65-.73,2.45,2.45,0,0,0,.66-1.71,2.47,2.47,0,0,0-.39-1.32,5.19,5.19,0,0,0-1-1.17,11.65,11.65,0,0,0-1.25-1l-.24-.17a.46.46,0,0,0-.21-.05.53.53,0,0,0-.27.13,4.59,4.59,0,0,0-1.07,1.18,3.2,3.2,0,0,0-.36,1.66,4.15,4.15,0,0,0,.29,1.52,3,3,0,0,0,.85,1.19A2,2,0,0,0,243.24,183.4Zm.72-7.67a3.06,3.06,0,0,0,1-1.44,6.17,6.17,0,0,0,.23-1.81,2.72,2.72,0,0,0-.48-1.62,1.66,1.66,0,0,0-1.46-.69,2,2,0,0,0-1,.3,2.47,2.47,0,0,0-.86.78,1.8,1.8,0,0,0-.35,1.1,2.48,2.48,0,0,0,.32,1.34,3.44,3.44,0,0,0,.92.9c.4.28.86.64,1.38,1.07l.15.08A.18.18,0,0,0,244,175.73Z"/><path d="M253.52,179.93c-.09,0-.14,0-.14-.13a3.55,3.55,0,0,1,.1-.78c.07-.27.16-.41.26-.43l2.15-.3c.72-.1,1.43-.18,2.15-.26a.24.24,0,0,1,.12,0,.13.13,0,0,1,.06.11,3.35,3.35,0,0,1-.1.79c-.07.25-.19.38-.37.41l-2.05.31C255,179.77,254.28,179.86,253.52,179.93Z"/><path d="M273,183.81l-.54,0-.93,0-1.08,0-1,0-1.18,0-1.48,0-1.29,0h-.71a.64.64,0,0,1-.26-.13c-.12-.09-.19-.17-.19-.25a.3.3,0,0,1,.07-.2l.16-.16,3.62-3.85A10.72,10.72,0,0,0,270,176.6a6.61,6.61,0,0,0,.68-2.91,2.45,2.45,0,0,0-.63-1.76,2.07,2.07,0,0,0-1.56-.66,3,3,0,0,0-1.63.48,4.11,4.11,0,0,0-1.22,1.2,1.27,1.27,0,0,1-.22.25.48.48,0,0,1-.29.11q-.12,0-.21-.18a.88.88,0,0,1-.1-.45,1.61,1.61,0,0,1,.33-.79,4.85,4.85,0,0,1,.94-1,5.46,5.46,0,0,1,1.43-.87,4.47,4.47,0,0,1,1.79-.36,3.71,3.71,0,0,1,1.93.48,3.13,3.13,0,0,1,1.23,1.32,4.23,4.23,0,0,1,.43,1.91,4.11,4.11,0,0,1-.24,1.32,7.48,7.48,0,0,1-.62,1.39,7.25,7.25,0,0,1-.85,1.23,11.24,11.24,0,0,1-.84.92l-1.16,1.17c-.41.42-.8.8-1.17,1.17s-.68.67-.91.91a1.87,1.87,0,0,0-.35.4c0,.06.11.1.32.13l.9.07,1.09,0,1.2,0,1.15-.07a6,6,0,0,0,1-.13,1.35,1.35,0,0,0,.62-.34,2.93,2.93,0,0,0,.5-.69,2,2,0,0,1,.25-.31.43.43,0,0,1,.33-.18.17.17,0,0,1,.18.11.34.34,0,0,1,0,.22c0,.18-.12.42-.22.72s-.21.61-.31,1a7.9,7.9,0,0,0-.25.95.56.56,0,0,1-.21.42A.73.73,0,0,1,273,183.81Z"/><path d="M290.48,176a17.11,17.11,0,0,1-.28,3.25,7.3,7.3,0,0,1-.93,2.52,4.53,4.53,0,0,1-1.7,1.64,6.15,6.15,0,0,1-5,.06,4.14,4.14,0,0,1-1.61-1.53,7.23,7.23,0,0,1-.86-2.48,20.06,20.06,0,0,1-.26-3.39,17.2,17.2,0,0,1,.29-3.24,7.65,7.65,0,0,1,.93-2.53,4.55,4.55,0,0,1,1.69-1.63,6.08,6.08,0,0,1,5.05-.06,4,4,0,0,1,1.6,1.53,7.24,7.24,0,0,1,.87,2.48A20,20,0,0,1,290.48,176Zm-2.1.15c0-.78,0-1.47-.08-2.08a12.62,12.62,0,0,0-.25-1.62,5.13,5.13,0,0,0-.41-1.22,3.16,3.16,0,0,0-.62-.83,2.19,2.19,0,0,0-.82-.48,3.28,3.28,0,0,0-1-.15,2.64,2.64,0,0,0-1.64.48,3.17,3.17,0,0,0-1,1.31,7.11,7.11,0,0,0-.5,2,22.62,22.62,0,0,0-.13,2.41,20.46,20.46,0,0,0,.18,2.94,6.49,6.49,0,0,0,.57,2,2.58,2.58,0,0,0,1,1.11,2.89,2.89,0,0,0,1.46.34,3.07,3.07,0,0,0,1.18-.21,2.67,2.67,0,0,0,.87-.62,3.27,3.27,0,0,0,.6-1,6,6,0,0,0,.38-1.24,10.44,10.44,0,0,0,.2-1.47C288.36,177.25,288.38,176.7,288.38,176.13Z"/><path d="M305.84,183.81l-.54,0-.92,0-1.09,0-1,0-1.17,0-1.48,0-1.3,0h-.7a.54.54,0,0,1-.26-.13c-.13-.09-.19-.17-.19-.25a.3.3,0,0,1,.06-.2l.16-.16,3.63-3.85a10.41,10.41,0,0,0,1.82-2.59,6.47,6.47,0,0,0,.68-2.91,2.44,2.44,0,0,0-.62-1.76,2.08,2.08,0,0,0-1.57-.66,3,3,0,0,0-1.62.48,4,4,0,0,0-1.22,1.2,1.34,1.34,0,0,1-.23.25.44.44,0,0,1-.29.11q-.1,0-.21-.18a.88.88,0,0,1-.1-.45,1.55,1.55,0,0,1,.34-.79,4.59,4.59,0,0,1,.94-1,5.46,5.46,0,0,1,1.43-.87,4.44,4.44,0,0,1,1.79-.36,3.67,3.67,0,0,1,1.92.48,3.13,3.13,0,0,1,1.23,1.32,4.1,4.1,0,0,1,.43,1.91,4.37,4.37,0,0,1-.23,1.32,8.2,8.2,0,0,1-.62,1.39,7.87,7.87,0,0,1-.85,1.23c-.2.24-.47.55-.84.92L302,179.38c-.41.42-.81.8-1.18,1.17l-.91.91a1.65,1.65,0,0,0-.34.4c0,.06.1.1.31.13l.91.07,1.08,0,1.2,0,1.15-.07a6,6,0,0,0,1-.13,1.32,1.32,0,0,0,.61-.34,2.68,2.68,0,0,0,.5-.69,2.83,2.83,0,0,1,.25-.31.45.45,0,0,1,.34-.18.17.17,0,0,1,.18.11.42.42,0,0,1,0,.22c-.05.18-.12.42-.23.72s-.21.61-.31,1-.19.65-.25.95a.56.56,0,0,1-.21.42A.63.63,0,0,1,305.84,183.81Z"/><path d="M315.31,183.74V171.61h-3.49V169.5c2.33-.07,3.47-.22,4.23-2h2.35v16.23Z"/></svg>