<svg id="Слой_1" data-name="Слой 1" xmlns="http://www.w3.org/2000/svg" viewBox="0 0 400 400"><defs><style>.cls-1,.cls-2{fill:#fff;stroke:#000;stroke-width:3px;}.cls-1{stroke-miterlimit:10;}.cls-2{stroke-linecap:round;stroke-linejoin:round;}.cls-3{fill:#c1362d;}.cls-4{fill:#608b70;}.cls-5{fill:#b8ad99;}</style></defs><title>g56</title><path class="cls-1" d="M367,386.84H43.56V42s114.49,97.52,163.08,97.52S367,42,367,42Z"/><path class="cls-1" d="M151.72,223.18c8.34-3.31,12.51-5,17.51-4.55,15.85,1.3,18.73,17.34,37.32,21.85,4,1,10.2.49,22.61-.47,21-1.62,23.32-4.46,34.28-4.06,8.36.3,26.46,1,33.76,11.87,9.26,13.84-8,30.52,1.81,46.88,6.81,11.38,19.69,10.9,19.65,18S305.11,328.6,293,327.5c-10.18-.92-12.58-8-22-9.6-6.61-1.09-16.61.57-30.71,14.05,8,21.19,7.92,27.81,5.63,29.21-5.37,3.26-19.72-24.12-47.51-28.35-14.35-2.18-26.85,2.63-31.75,4.85-21.93,9.92-28.32,29.72-33.78,27.51s-4.19-25.3-.85-41c2.47-11.64,6.72-22.64,1.07-29.34-2.42-2.87-4.91-2.88-6.84-6.56-3.46-6.57,1.83-11.49-.35-16.75-3.84-9.26-25-5.74-26.21-11.19-.66-3,5.38-5.75,17.31-13.77C137,233.12,138.47,228.44,151.72,223.18Z"/><path class="cls-2" d="M267.67,298.05c-3.28,8.74-27.57,7.71-54.24-2.3s-45.64-25.22-42.36-34,27.56-7.71,54.24,2.3S271,289.31,267.67,298.05Z"/><polygon class="cls-3" points="153.52 246.84 160.23 258.46 153.52 270.08 140.1 270.08 133.39 258.46 140.1 246.84 153.52 246.84"/><polygon class="cls-4" points="218.25 278.11 222.23 275.67 220.43 279.97 225.04 280.66 220.9 282.8 223.99 286.29 219.44 285.26 219.57 289.93 216.74 286.22 213.84 289.87 214.06 285.21 209.49 286.14 212.65 282.71 208.55 280.49 213.18 279.9 211.47 275.56 215.39 278.08 216.87 273.66 218.25 278.11"/><polygon class="cls-3" points="196.88 270.09 200.86 267.65 199.06 271.95 203.67 272.63 199.53 274.78 202.62 278.27 198.07 277.24 198.19 281.9 195.37 278.19 192.47 281.85 192.69 277.19 188.12 278.12 191.28 274.69 187.18 272.47 191.8 271.88 190.09 267.54 194.02 270.06 195.49 265.63 196.88 270.09"/><polygon class="cls-5" points="244.44 281.73 250.68 277.9 247.85 284.65 255.09 285.72 248.59 289.08 253.44 294.55 246.31 292.94 246.5 300.25 242.07 294.44 237.53 300.16 237.87 292.86 230.71 294.32 235.66 288.95 229.23 285.47 236.49 284.54 233.8 277.74 239.96 281.69 242.27 274.75 244.44 281.73"/><path d="M278.08,258.71a4.92,4.92,0,1,1-4.92-4.91,4.91,4.91,0,0,1,4.92,4.91"/><path d="M106.39,155.33v.49a3.69,3.69,0,0,0-1.18.18.94.94,0,0,0-.56.59,4.81,4.81,0,0,0-.14,1.34v12.15a4.74,4.74,0,0,0,.14,1.32.92.92,0,0,0,.56.59,4.3,4.3,0,0,0,1.18.19v.49c-.37,0-.89,0-1.54-.06h-4c-.65,0-1.18,0-1.61.06v-.49a4.5,4.5,0,0,0,1.22-.19.87.87,0,0,0,.54-.59,4.82,4.82,0,0,0,.13-1.32V157.93a2.66,2.66,0,0,0-.37-1.73,2.35,2.35,0,0,0-1.61-.38h-3a2.35,2.35,0,0,0-1.61.38,2.66,2.66,0,0,0-.37,1.73v12.15a4.33,4.33,0,0,0,.15,1.32.88.88,0,0,0,.55.59,4.31,4.31,0,0,0,1.19.19v.49c-.41,0-.94,0-1.57-.06h-4c-.63,0-1.16,0-1.56.06v-.49a4.49,4.49,0,0,0,1.21-.19.87.87,0,0,0,.54-.59,4.82,4.82,0,0,0,.13-1.32V157.93a4.89,4.89,0,0,0-.13-1.34.89.89,0,0,0-.54-.59,3.86,3.86,0,0,0-1.21-.18v-.49l1.56,0,2.06,0c1,0,1.92,0,2.87,0s1.71,0,2.28,0,1.32,0,2.25,0,1.87,0,2.82,0l2.08,0Z"/><path d="M126.19,164a13,13,0,0,1-.54,4,8.2,8.2,0,0,1-1.46,2.76,5.81,5.81,0,0,1-2.16,1.62,7,7,0,0,1-5.47-.06,5.35,5.35,0,0,1-2-1.72,7.9,7.9,0,0,1-1.19-2.74,15.51,15.51,0,0,1-.39-3.64,12.87,12.87,0,0,1,.53-3.94,7.85,7.85,0,0,1,1.46-2.76,5.7,5.7,0,0,1,2.15-1.62,6.33,6.33,0,0,1,2.6-.53,6.41,6.41,0,0,1,2.86.6,5.35,5.35,0,0,1,2,1.72,7.63,7.63,0,0,1,1.21,2.72A14.86,14.86,0,0,1,126.19,164Zm-2.42.17a14.63,14.63,0,0,0-.23-2.75,6.8,6.8,0,0,0-.73-2.15,3.79,3.79,0,0,0-1.32-1.4,3.61,3.61,0,0,0-1.94-.49,3.29,3.29,0,0,0-1.88.52,4.21,4.21,0,0,0-1.3,1.44,7.53,7.53,0,0,0-.76,2.13,12.65,12.65,0,0,0-.25,2.59,14.81,14.81,0,0,0,.24,2.77,7,7,0,0,0,.73,2.14,3.87,3.87,0,0,0,1.3,1.39,3.61,3.61,0,0,0,1.92.5,3.36,3.36,0,0,0,1.9-.53,4.24,4.24,0,0,0,1.31-1.44,7.46,7.46,0,0,0,.77-2.12A13.43,13.43,0,0,0,123.77,164.2Z"/><path d="M133.27,172.67V171h.38c2.49,0,3.48-3.91,4-12.6l.3-5.14h11.13v19.39h-1.8V154.94h-7.67l-.24,4.39c-.56,9.71-2.17,13.34-5.46,13.34Z"/><path d="M162.67,167l9.69-13.32h2.81v19H171.5v-13l-9.55,13H159v-19h3.66Z"/><path d="M184.34,172.81a1.28,1.28,0,0,1-.56-.1c-.14-.06-.21-.14-.21-.25s.28-.32.85-.43a2.09,2.09,0,0,0,1.33-.61,2.49,2.49,0,0,0,.3-1.39V157.94a3,3,0,0,0-.2-1.33c-.13-.26-.54-.45-1.21-.57s-.89-.27-.89-.49a.29.29,0,0,1,.19-.25,1.42,1.42,0,0,1,.59-.09l1.12,0,.75,0,.88,0,.93,0,.77,0,1.14,0c.52,0,.78.11.78.34a.34.34,0,0,1-.22.3,2.81,2.81,0,0,1-.67.19,2.38,2.38,0,0,0-1.4.65,1.8,1.8,0,0,0-.42,1.25v5.27a.2.2,0,0,0,.14.2,1.2,1.2,0,0,0,.24,0h9.92c.13,0,.19-.11.19-.32v-5.22a1.89,1.89,0,0,0-.37-1.2,2.17,2.17,0,0,0-1.4-.67,2.85,2.85,0,0,1-.66-.19.32.32,0,0,1-.22-.3c0-.23.26-.34.78-.34l1.19,0,.89,0,1,0,.75,0,.61,0,1.07,0a1.46,1.46,0,0,1,.58.09.29.29,0,0,1,.2.25c0,.22-.29.38-.88.49s-1.06.34-1.21.64a3,3,0,0,0-.21,1.23V170a3,3,0,0,0,.25,1.42,1.8,1.8,0,0,0,1.25.61c.57.11.85.25.85.43s-.07.19-.21.25a1.28,1.28,0,0,1-.56.1c-.48,0-.86,0-1.13,0l-.74-.07c-.24,0-.54,0-.91,0s-.69,0-.93,0l-.79.07c-.28,0-.66,0-1.15,0a1.28,1.28,0,0,1-.56-.1c-.14-.06-.21-.14-.21-.25a.28.28,0,0,1,.2-.27,4.67,4.67,0,0,1,.65-.16,2.57,2.57,0,0,0,1.36-.63,1.72,1.72,0,0,0,.49-1.32V164.6c0-.09,0-.14-.13-.14H188.33c-.09,0-.14.1-.14.3v5.08a1.94,1.94,0,0,0,.62,1.43,2.79,2.79,0,0,0,1.52.76,4.53,4.53,0,0,1,.66.16.29.29,0,0,1,.2.27c0,.11-.07.19-.21.25a1.32,1.32,0,0,1-.57.1c-.48,0-.87,0-1.19,0l-.89-.07q-.44,0-1.05,0c-.37,0-.69,0-.95,0l-.82.07C185.21,172.79,184.82,172.81,184.34,172.81Z"/><path d="M216.92,153.28h3.16l7.3,19.39h-2.94l-1.52-4.19H214l-1.5,4.19h-2.78Zm-2.08,12.87h7.22L218.42,156Z"/><path d="M245.68,163a10.22,10.22,0,0,1,.6-3.41,9.37,9.37,0,0,1,1.76-3,8.93,8.93,0,0,1,2.83-2.18,8.46,8.46,0,0,1,3.83-.84,8,8,0,0,1,4.34,1.14,7,7,0,0,1,2.66,3l-1.47.91a5.59,5.59,0,0,0-1.11-1.58,6,6,0,0,0-1.4-1,6.07,6.07,0,0,0-1.55-.58,7.87,7.87,0,0,0-1.58-.17,6.26,6.26,0,0,0-3,.7,7,7,0,0,0-2.21,1.81A7.91,7.91,0,0,0,248,160.3a9.34,9.34,0,0,0-.46,2.85,8.55,8.55,0,0,0,.55,3,8.68,8.68,0,0,0,1.5,2.56,7,7,0,0,0,2.25,1.76,6.1,6.1,0,0,0,2.82.66,7.28,7.28,0,0,0,1.64-.2,6.34,6.34,0,0,0,1.64-.64,6.94,6.94,0,0,0,1.45-1.1,5.84,5.84,0,0,0,1.13-1.59l1.55.8a5.91,5.91,0,0,1-1.28,1.89,8.53,8.53,0,0,1-1.85,1.37,9.29,9.29,0,0,1-2.15.86,8.78,8.78,0,0,1-2.24.29A7.59,7.59,0,0,1,251,172a9.43,9.43,0,0,1-2.81-2.23,10.23,10.23,0,0,1-1.83-3.13A10.08,10.08,0,0,1,245.68,163Z"/><path d="M269.44,172.75a1,1,0,0,1-.49-.09.31.31,0,0,1-.16-.28.3.3,0,0,1,.23-.31l.52-.17a2.55,2.55,0,0,0,1.09-.75,2.51,2.51,0,0,0,.57-1.36c.11-.82.22-1.84.34-3s.23-2.49.36-3.87.23-2.72.32-4.06c0-.11,0-.24,0-.4v-.51a1.75,1.75,0,0,0-.14-.76,1.14,1.14,0,0,0-.5-.47,3.75,3.75,0,0,0-.69-.36,5.92,5.92,0,0,0-.81-.26,1.37,1.37,0,0,1-.5-.21.41.41,0,0,1-.19-.35.31.31,0,0,1,.21-.32,1.56,1.56,0,0,1,.51-.08l1,0,1.3,0,1.44,0,1.35,0a.6.6,0,0,1,.4.15.69.69,0,0,1,.25.33c.12.34.24.67.34,1l.35,1,3.93,9.39a.22.22,0,0,0,.15.12q.09,0,.15-.12l3.82-8.88c.13-.63.23-1.14.31-1.53s.16-.7.23-.94a.42.42,0,0,1,.43-.34h1.15q1.13-.06,2.34-.18c.81-.08,1.45-.12,1.91-.12a1,1,0,0,1,.47.1.31.31,0,0,1,.2.3.38.38,0,0,1-.18.35,1.66,1.66,0,0,1-.44.19,2.39,2.39,0,0,0-.37.15l-.38.17a2.82,2.82,0,0,0-1,.74,1.94,1.94,0,0,0-.28,1.32c0,1.28.08,2.41.14,3.37s.1,1.86.14,2.68.1,1.67.16,2.55.13,1.91.21,3.09a1.48,1.48,0,0,0,.57,1.11,3.53,3.53,0,0,0,1.38.63,1.56,1.56,0,0,1,.45.19.35.35,0,0,1,.19.34.33.33,0,0,1-.16.3.72.72,0,0,1-.4.1c-.39,0-.84,0-1.35,0l-1.5-.06-1.27,0-1.19,0-1.33.06c-.44,0-.87,0-1.28,0a1,1,0,0,1-.43-.09.3.3,0,0,1-.19-.28.44.44,0,0,1,.19-.37,1.12,1.12,0,0,1,.46-.19,2.77,2.77,0,0,0,1.36-.55,1.52,1.52,0,0,0,.35-1.19c0-1.11-.1-2.21-.13-3.3s-.07-2.18-.1-3.24-.07-2.09-.12-3.09c0-.12,0-.18-.09-.17s-.12.07-.18.2l-5.11,12.14c-.08.25-.22.36-.4.32a.46.46,0,0,1-.37-.27c-.88-2.06-1.79-4.11-2.74-6.12s-1.84-4-2.64-6c-.05-.16-.14-.22-.25-.18a.37.37,0,0,0-.2.36c-.06.9-.1,1.87-.14,2.93s-.05,2.13-.05,3.21v3a1.63,1.63,0,0,0,.48,1.22,3.21,3.21,0,0,0,1.53.71,1.85,1.85,0,0,1,.5.17.38.38,0,0,1,.24.36.33.33,0,0,1-.21.3,1,1,0,0,1-.45.1,11.05,11.05,0,0,1-1.13,0l-.72-.05h-.88l-1.21,0-1.07.06Z"/><path d="M311.91,157.89c0-1.06-.18-1.74-.52-2a3.54,3.54,0,0,0-2.08-.42V155H317v.49a3.3,3.3,0,0,0-2.1.52,3.51,3.51,0,0,0-.46,2.22v11.26a3.51,3.51,0,0,0,.46,2.22,3.3,3.3,0,0,0,2.1.52v.48h-7.66v-.48a3.3,3.3,0,0,0,2.14-.53,3.52,3.52,0,0,0,.46-2.21V159.29l-8.22,10.52a5.81,5.81,0,0,0,.15,1.53,1.12,1.12,0,0,0,.64.6,5.21,5.21,0,0,0,1.78.25v.48h-7.64v-.48a3.31,3.31,0,0,0,2.11-.52,3.53,3.53,0,0,0,.45-2.22V158.19a3.53,3.53,0,0,0-.45-2.22,3.31,3.31,0,0,0-2.11-.52V155h7.64v.49a3.29,3.29,0,0,0-2.11.52,3.45,3.45,0,0,0-.46,2.22v10.2Z"/><path d="M335.65,156.74a2.63,2.63,0,0,1,0,.43.92.92,0,0,1-.08.29.42.42,0,0,1-.15.17.38.38,0,0,1-.19.05h-4.75v14.65a.36.36,0,0,1-.05.19.39.39,0,0,1-.19.12,1.71,1.71,0,0,1-.34.08,4.88,4.88,0,0,1-1.08,0,1.67,1.67,0,0,1-.35-.08.39.39,0,0,1-.19-.12.36.36,0,0,1-.05-.19V157.68h-4.75a.38.38,0,0,1-.19-.05.4.4,0,0,1-.14-.17,1.3,1.3,0,0,1-.08-.29,1.8,1.8,0,0,1,0-.43,1.94,1.94,0,0,1,0-.44,1.41,1.41,0,0,1,.08-.3.35.35,0,0,1,.14-.17.31.31,0,0,1,.19-.06H335.2a.31.31,0,0,1,.19.06.36.36,0,0,1,.15.17,1,1,0,0,1,.08.3A2.85,2.85,0,0,1,335.65,156.74Z"/><path d="M135.3,201.61V188.33h-3.82V186c2.54-.07,3.79-.25,4.63-2.18h2.57v17.76Z"/><path d="M147.06,202.37a.45.45,0,0,1-.27-.06.17.17,0,0,1-.08-.13.21.21,0,0,1,.11-.19.5.5,0,0,1,.24-.06,4.06,4.06,0,0,0,1.7-.47,10.71,10.71,0,0,0,2-1.3,12.32,12.32,0,0,0,1.78-1.83,11.82,11.82,0,0,0,1.26-2,8.64,8.64,0,0,0,.7-2,11.14,11.14,0,0,0,.22-2.22,5.74,5.74,0,0,0-.29-1.76,6.34,6.34,0,0,0-.76-1.62,4,4,0,0,0-1.1-1.17,2.13,2.13,0,0,0-1.28-.44,2.09,2.09,0,0,0-1.33.42,2.71,2.71,0,0,0-.81,1.06,3.07,3.07,0,0,0-.26,1.24,3.15,3.15,0,0,0,.35,1.44,3.5,3.5,0,0,0,.94,1.17,2,2,0,0,0,1.23.45,2.39,2.39,0,0,0,1.13-.21c.24-.14.52-.28.83-.43.06,0,.12,0,.16.07a.2.2,0,0,1,0,.2,1.72,1.72,0,0,1-.37.48c-.16.15-.31.28-.44.38a4.5,4.5,0,0,1-.54.32,5.06,5.06,0,0,1-.81.34,2.74,2.74,0,0,1-.9.15,3.55,3.55,0,0,1-1.63-.41,3.48,3.48,0,0,1-1.3-1.1,2.61,2.61,0,0,1-.5-1.58,4.16,4.16,0,0,1,.37-1.69,5.45,5.45,0,0,1,2.64-2.75,4.75,4.75,0,0,1,2-.44,3.45,3.45,0,0,1,1.73.48A5.4,5.4,0,0,1,155.3,188a6.5,6.5,0,0,1,1.07,1.8,5.61,5.61,0,0,1,.39,2.05,9,9,0,0,1-.42,2.81,10,10,0,0,1-1.2,2.46,18.72,18.72,0,0,1-1.91,2.4,7.77,7.77,0,0,1-1.47,1.28,10.62,10.62,0,0,1-1.64.9,8,8,0,0,1-1.63.54A6.5,6.5,0,0,1,147.06,202.37Z"/><path d="M163.72,202.37a.45.45,0,0,1-.27-.06.17.17,0,0,1-.08-.13.21.21,0,0,1,.11-.19.5.5,0,0,1,.24-.06,4.06,4.06,0,0,0,1.7-.47,10.71,10.71,0,0,0,2-1.3,12.32,12.32,0,0,0,1.78-1.83,11.82,11.82,0,0,0,1.26-2,8.64,8.64,0,0,0,.7-2,11.14,11.14,0,0,0,.22-2.22,5.74,5.74,0,0,0-.29-1.76,6.34,6.34,0,0,0-.76-1.62,4,4,0,0,0-1.1-1.17,2.13,2.13,0,0,0-1.28-.44,2.09,2.09,0,0,0-1.33.42,2.71,2.71,0,0,0-.81,1.06,3.08,3.08,0,0,0-.27,1.24,3.16,3.16,0,0,0,.36,1.44,3.5,3.5,0,0,0,.94,1.17,2,2,0,0,0,1.23.45,2.39,2.39,0,0,0,1.13-.21c.24-.14.52-.28.83-.43.06,0,.12,0,.16.07a.2.2,0,0,1,0,.2,1.72,1.72,0,0,1-.37.48c-.16.15-.31.28-.44.38a4.5,4.5,0,0,1-.54.32,5.06,5.06,0,0,1-.81.34,2.74,2.74,0,0,1-.9.15,3.55,3.55,0,0,1-1.63-.41,3.48,3.48,0,0,1-1.3-1.1,2.61,2.61,0,0,1-.5-1.58,4.32,4.32,0,0,1,.36-1.69,5.58,5.58,0,0,1,1.05-1.58,5.25,5.25,0,0,1,1.6-1.17,4.75,4.75,0,0,1,2-.44,3.45,3.45,0,0,1,1.73.48A5.55,5.55,0,0,1,172,188a6.5,6.5,0,0,1,1.07,1.8,5.61,5.61,0,0,1,.39,2.05,9,9,0,0,1-.42,2.81,10,10,0,0,1-1.2,2.46,18.72,18.72,0,0,1-1.91,2.4,7.77,7.77,0,0,1-1.47,1.28,10.62,10.62,0,0,1-1.64.9,8,8,0,0,1-1.63.54A6.5,6.5,0,0,1,163.72,202.37Z"/><path d="M180.38,202.37a.45.45,0,0,1-.27-.06.17.17,0,0,1-.08-.13.21.21,0,0,1,.11-.19.5.5,0,0,1,.24-.06,4.06,4.06,0,0,0,1.7-.47,10.71,10.71,0,0,0,2-1.3,12.32,12.32,0,0,0,1.78-1.83,11.82,11.82,0,0,0,1.26-2,8.64,8.64,0,0,0,.7-2,11.14,11.14,0,0,0,.22-2.22,5.74,5.74,0,0,0-.29-1.76,6.34,6.34,0,0,0-.76-1.62,4,4,0,0,0-1.1-1.17,2.13,2.13,0,0,0-1.28-.44,2.09,2.09,0,0,0-1.33.42,2.71,2.71,0,0,0-.81,1.06,3.07,3.07,0,0,0-.26,1.24,3.15,3.15,0,0,0,.35,1.44,3.5,3.5,0,0,0,.94,1.17,2,2,0,0,0,1.23.45,2.39,2.39,0,0,0,1.13-.21c.24-.14.52-.28.83-.43.06,0,.12,0,.16.07a.2.2,0,0,1,0,.2,1.72,1.72,0,0,1-.37.48c-.16.15-.31.28-.44.38a4.5,4.5,0,0,1-.54.32,5.06,5.06,0,0,1-.81.34,2.74,2.74,0,0,1-.9.15,3.55,3.55,0,0,1-1.63-.41,3.48,3.48,0,0,1-1.3-1.1,2.61,2.61,0,0,1-.5-1.58,4.32,4.32,0,0,1,.36-1.69,5.58,5.58,0,0,1,1.05-1.58,5.38,5.38,0,0,1,1.6-1.17,4.75,4.75,0,0,1,2-.44,3.45,3.45,0,0,1,1.73.48,5.4,5.4,0,0,1,1.52,1.28,6.5,6.5,0,0,1,1.07,1.8,5.61,5.61,0,0,1,.39,2.05,9,9,0,0,1-.42,2.81,10,10,0,0,1-1.2,2.46,18.72,18.72,0,0,1-1.91,2.4,7.77,7.77,0,0,1-1.47,1.28,10.62,10.62,0,0,1-1.64.9,8,8,0,0,1-1.63.54A6.5,6.5,0,0,1,180.38,202.37Z"/><path d="M196.25,197.45a.13.13,0,0,1-.15-.15,3.3,3.3,0,0,1,.12-.86c.07-.29.16-.44.28-.46.78-.11,1.56-.23,2.35-.33s1.57-.2,2.35-.28a.35.35,0,0,1,.14,0,.13.13,0,0,1,.06.11,3.45,3.45,0,0,1-.11.87c-.08.27-.21.42-.41.46l-2.24.33C197.88,197.27,197.08,197.37,196.25,197.45Z"/><path d="M217.54,201.69H217l-1,0-1.19,0c-.41,0-.79,0-1.13,0s-.75,0-1.28,0l-1.62,0-1.42,0h-.77a.77.77,0,0,1-.29-.14c-.14-.1-.2-.19-.2-.27a.29.29,0,0,1,.07-.22l.17-.18,4-4.21a11.73,11.73,0,0,0,2-2.84,7.24,7.24,0,0,0,.74-3.19,2.7,2.7,0,0,0-.68-1.92,2.28,2.28,0,0,0-1.72-.72,3.21,3.21,0,0,0-1.77.52,4.44,4.44,0,0,0-1.34,1.32,1.94,1.94,0,0,1-.24.27.51.51,0,0,1-.32.12c-.08,0-.16-.07-.23-.2a.91.91,0,0,1-.12-.49,1.85,1.85,0,0,1,.37-.87,5.49,5.49,0,0,1,1-1.11,6.1,6.1,0,0,1,1.57-1,4.9,4.9,0,0,1,2-.39,4.05,4.05,0,0,1,2.11.53,3.51,3.51,0,0,1,1.34,1.44,4.57,4.57,0,0,1,.47,2.1,4.68,4.68,0,0,1-.26,1.44,8.18,8.18,0,0,1-.67,1.52,9.47,9.47,0,0,1-.93,1.35c-.22.26-.52.59-.92,1l-1.28,1.29c-.44.45-.87.87-1.28,1.27s-.74.73-1,1-.38.4-.38.44.11.11.34.14.62.06,1,.08l1.19,0,1.31,0c.43,0,.85,0,1.26-.08a7.24,7.24,0,0,0,1.06-.14,1.52,1.52,0,0,0,.67-.37,3,3,0,0,0,.55-.76c.07-.1.16-.21.27-.34a.5.5,0,0,1,.37-.2.18.18,0,0,1,.19.12.43.43,0,0,1,0,.25c-.05.19-.13.45-.25.78s-.23.68-.34,1-.2.72-.27,1a.61.61,0,0,1-.23.46A.68.68,0,0,1,217.54,201.69Z"/><path d="M227.91,201.61V188.33h-3.83V186c2.55-.07,3.8-.25,4.63-2.18h2.58v17.76Z"/><path d="M250.65,193.12a19.46,19.46,0,0,1-.3,3.56,8.34,8.34,0,0,1-1,2.76,5.06,5.06,0,0,1-1.86,1.79,5.85,5.85,0,0,1-2.84.63,5.74,5.74,0,0,1-2.68-.57,4.34,4.34,0,0,1-1.76-1.67,7.93,7.93,0,0,1-.95-2.71,22.62,22.62,0,0,1-.28-3.71,18.4,18.4,0,0,1,.32-3.54,8.32,8.32,0,0,1,1-2.77,4.89,4.89,0,0,1,1.85-1.79,5.71,5.71,0,0,1,2.82-.64,5.8,5.8,0,0,1,2.7.57,4.48,4.48,0,0,1,1.76,1.67,7.85,7.85,0,0,1,.94,2.72A21.53,21.53,0,0,1,250.65,193.12Zm-2.29.16c0-.84,0-1.6-.1-2.27a15.12,15.12,0,0,0-.26-1.78,5.81,5.81,0,0,0-.46-1.32,3.26,3.26,0,0,0-.67-.92,2.47,2.47,0,0,0-.9-.52,3.59,3.59,0,0,0-1.13-.16,2.89,2.89,0,0,0-1.8.52,3.52,3.52,0,0,0-1.09,1.43,7.36,7.36,0,0,0-.54,2.15,21.85,21.85,0,0,0-.15,2.64,22.59,22.59,0,0,0,.2,3.22,7.23,7.23,0,0,0,.62,2.16,2.8,2.8,0,0,0,1.08,1.21,3.21,3.21,0,0,0,1.6.38,3.41,3.41,0,0,0,1.29-.23,2.71,2.71,0,0,0,.95-.68,3.48,3.48,0,0,0,.66-1.05,6.57,6.57,0,0,0,.42-1.36,10.79,10.79,0,0,0,.22-1.61C248.34,194.51,248.36,193.91,248.36,193.28Z"/><path d="M269.56,193.12a19.46,19.46,0,0,1-.3,3.56,8.34,8.34,0,0,1-1,2.76,5.06,5.06,0,0,1-1.86,1.79,5.87,5.87,0,0,1-2.84.63,5.71,5.71,0,0,1-2.68-.57,4.28,4.28,0,0,1-1.76-1.67,7.93,7.93,0,0,1-1-2.71,22.62,22.62,0,0,1-.28-3.71,18.4,18.4,0,0,1,.32-3.54,8.1,8.1,0,0,1,1-2.77,4.91,4.91,0,0,1,1.86-1.79,5.71,5.71,0,0,1,2.82-.64,5.8,5.8,0,0,1,2.7.57,4.45,4.45,0,0,1,1.75,1.67,7.85,7.85,0,0,1,.95,2.72A21.53,21.53,0,0,1,269.56,193.12Zm-2.3.16c0-.84,0-1.6-.09-2.27a13.18,13.18,0,0,0-.27-1.78,5.82,5.82,0,0,0-.45-1.32,3.1,3.1,0,0,0-.68-.92,2.43,2.43,0,0,0-.89-.52,3.63,3.63,0,0,0-1.13-.16,2.89,2.89,0,0,0-1.8.52,3.52,3.52,0,0,0-1.09,1.43,7.68,7.68,0,0,0-.55,2.15,24.2,24.2,0,0,0-.14,2.64,22.59,22.59,0,0,0,.2,3.22,7,7,0,0,0,.62,2.16,2.8,2.8,0,0,0,1.08,1.21,3.18,3.18,0,0,0,1.6.38,3.41,3.41,0,0,0,1.29-.23,2.71,2.71,0,0,0,1-.68,3.48,3.48,0,0,0,.66-1.05,7.24,7.24,0,0,0,.42-1.36,10.84,10.84,0,0,0,.21-1.61C267.24,194.51,267.26,193.91,267.26,193.28Z"/></svg>