<svg id="Слой_1" data-name="Слой 1" xmlns="http://www.w3.org/2000/svg" viewBox="0 0 400 400"><defs><style>.cls-1,.cls-2{fill:#fff;stroke:#000;stroke-width:3px;}.cls-1{stroke-miterlimit:10;}.cls-2{stroke-linecap:round;stroke-linejoin:round;}.cls-3{fill:#c1362d;}</style></defs><title>g60</title><path class="cls-1" d="M370.39,378h-320V38L234,104.17c81.52,29.38,136.36,110.68,136.36,202.15Z"/><path class="cls-1" d="M287.48,306.27c11.86-13,38.91,1.3,45.16-9.29,3.73-6.34-5.29-12.57-1.71-26.27,2.12-8.11,6.61-11,4.81-15.72s-7.08-4-14.42-9.69c-9.51-7.38-6.34-13.05-13.24-17-9.91-5.61-18.58,4.83-32.64-.72-5.36-2.12-4.22-3.68-12.67-8.2-7.27-3.89-15-8-23.06-7.39-12.65,1-24,13.67-27,26.33-3.39,14.41,5,24.69-.25,28.91-5,4-16.44-2.13-19.81-3.93-10.74-5.76-12.28-11.75-22.92-21.23-8.21-7.33-15.45-13.79-26.09-16.18-14.07-3.16-18.08,4.38-39.54,1.85-6.65-.78-9.47-1.89-11.86.07-5.84,4.78-2.81,22.67,7,34.36,8.49,10.16,16.91,9.47,21.93,20.73,2.3,5.15,2,8.52,5.79,12,4.41,4,8.65,3,16.11,5.1,11.16,3.14,18.44,10.14,21.87,13.44,9.62,9.24,5.45,12.63,14.52,21.83,10.09,10.24,18.34,9.21,22.41,18.55,3.07,7.07.94,13.62,2.34,13.89,1.76.33,3-10.49,10.44-22,2.41-3.71,8.1-12.28,18.89-17.7,3.54-1.78,15.84-8,22.71-3.07,4.42,3.14,3.8,8.84,8,10.08.85.25,3.87.9,9.36-3.75C284.09,322.45,281.16,313.19,287.48,306.27Z"/><path class="cls-2" d="M296.37,265.26a36.88,36.88,0,0,1-36.88,36.88A33.19,33.19,0,0,1,226.3,269a29.87,29.87,0,0,1,29.87-29.87A26.88,26.88,0,0,1,283.05,266a24.19,24.19,0,0,1-24.19,24.2,21.78,21.78,0,0,1-21.78-21.78,19.6,19.6,0,0,1,19.6-19.59,17.63,17.63,0,0,1,17.64,17.63,15.88,15.88,0,0,1-15.88,15.88A14.28,14.28,0,0,1,244.16,268"/><polygon class="cls-3" points="260.63 261.45 264.03 267.34 260.63 273.23 253.83 273.23 250.43 267.34 253.83 261.45 260.63 261.45"/><path d="M111.16,120.12v.58a5.1,5.1,0,0,0-1.49.22,1.12,1.12,0,0,0-.69.7,5.55,5.55,0,0,0-.17,1.59v14.42a3.3,3.3,0,0,0,.42,2.05,2.7,2.7,0,0,0,1.88.45H112c-.08.69-.13,1.37-.16,2s0,1.17,0,1.51a14.78,14.78,0,0,0,.09,1.83h-.67a11.23,11.23,0,0,0-.62-2.83,2.77,2.77,0,0,0-1.28-1.51,5.07,5.07,0,0,0-2.34-.45H99.1a5.07,5.07,0,0,0-2.34.45,2.72,2.72,0,0,0-1.27,1.51,13.17,13.17,0,0,0-.64,2.83h-.67a14.78,14.78,0,0,0,.09-1.83c0-.34,0-.85,0-1.51s-.08-1.34-.16-2h9a2.81,2.81,0,0,0,1.92-.45,3.2,3.2,0,0,0,.44-2.05V123.21a3.1,3.1,0,0,0-.46-2,2.5,2.5,0,0,0-1.78-.46h-.38a3.7,3.7,0,0,0-1.34.19,1.06,1.06,0,0,0-.59.73,8.27,8.27,0,0,0-.25,1.59c-.12,1.31-.23,2.76-.34,4.33s-.26,3.12-.46,4.66a26,26,0,0,1-.9,4.23,8.24,8.24,0,0,1-1.65,3.09,3.49,3.49,0,0,1-2.73,1.16v-.55a2.89,2.89,0,0,0,2.24-1,7.23,7.23,0,0,0,1.45-2.71,24.78,24.78,0,0,0,.89-3.92c.22-1.46.39-3,.51-4.57s.22-3.16.32-4.71a2.85,2.85,0,0,0-.35-2,3.16,3.16,0,0,0-2-.51v-.58l1.46.06,1.54,0c.44,0,.88,0,1.29,0s.84,0,1.27,0c.73,0,1.4,0,2,0s1.32,0,2.16,0h1.32l1.36,0Z"/><path d="M120.24,140.85a2,2,0,0,1-.61-.07c-.16-.05-.24-.13-.24-.25s.32-.4,1-.52a2.17,2.17,0,0,0,1.43-.67,2.76,2.76,0,0,0,.32-1.51V124.69a3.47,3.47,0,0,0-.22-1.44q-.22-.42-1.32-.63c-.64-.11-1-.31-1-.58,0-.11.07-.2.23-.25a2.43,2.43,0,0,1,.61-.07c.52,0,.93,0,1.22,0s.56,0,.81,0l1,0,1,0c.26,0,.54,0,.84,0s.71,0,1.24,0a2.5,2.5,0,0,1,.61.07c.15,0,.23.14.23.25a.42.42,0,0,1-.23.35,2,2,0,0,1-.73.23,2.67,2.67,0,0,0-1.53.72,2,2,0,0,0-.45,1.35v11a.52.52,0,0,0,.09.37c.06.06.13,0,.23-.05L136,124.83a.65.65,0,0,0,.24-.46v-.12a1.39,1.39,0,0,0-.51-1.06,3.16,3.16,0,0,0-1.38-.57c-.64-.11-1-.31-1-.58,0-.11.07-.2.23-.25a2.43,2.43,0,0,1,.61-.07q.78,0,1.29,0c.34,0,.67,0,1,0l1.1,0,.83,0c.21,0,.44,0,.7,0s.65,0,1.18,0a2.5,2.5,0,0,1,.61.07c.15,0,.23.14.23.25a.42.42,0,0,1-.23.35,2,2,0,0,1-.73.23,1.84,1.84,0,0,0-1.34.7,3,3,0,0,0-.26,1.34V137.8a3.07,3.07,0,0,0,.29,1.54,2,2,0,0,0,1.37.67,3.42,3.42,0,0,1,.73.2.37.37,0,0,1,.23.32c0,.12-.08.2-.23.25a2.12,2.12,0,0,1-.62.07c-.52,0-.93,0-1.23,0l-.84-.07c-.27,0-.6,0-1,0s-.74,0-1,0l-.86.07c-.31,0-.72,0-1.25,0a2.09,2.09,0,0,1-.61-.07c-.15-.05-.23-.13-.23-.25s.32-.4,1-.52a3.58,3.58,0,0,0,1.44-.55,1.42,1.42,0,0,0,.51-1.22V126.67c0-.33-.1-.4-.29-.21l-11.29,11.22a.85.85,0,0,0-.18.24,1.64,1.64,0,0,0,0,.32,1.3,1.3,0,0,0,.64,1.25,5.58,5.58,0,0,0,1.63.52,3.42,3.42,0,0,1,.73.2.37.37,0,0,1,.23.32c0,.12-.08.2-.23.25a2.09,2.09,0,0,1-.61.07c-.53,0-1,0-1.3,0l-1-.07q-.46,0-1.14,0c-.4,0-.75,0-1,0l-.9.07C121.18,140.84,120.76,140.85,120.24,140.85Z"/><path d="M148.16,140.8a1,1,0,0,1-.43-.89c0-.67.46-1,1.37-1h.66c1.21,0,2.25-.78,3.13-2.33a19.3,19.3,0,0,0,2-5.8,34.23,34.23,0,0,0,.68-6.7,3.09,3.09,0,0,0-.63-2.14,3.47,3.47,0,0,0-2.51-.68c-.06,0-.1-.07-.1-.19s0-.19.1-.19H167.6c.07,0,.1.06.1.19s0,.19-.1.19a6.86,6.86,0,0,0-1.77.17,1.22,1.22,0,0,0-.78.62,3.48,3.48,0,0,0-.21,1.4v14.7a3.6,3.6,0,0,0,.21,1.41,1.14,1.14,0,0,0,.78.62,7.46,7.46,0,0,0,1.77.16c.07,0,.1.06.1.19s0,.19-.1.19c-.65,0-1.17,0-1.55,0l-2.19,0-2.26,0c-.38,0-.89,0-1.55,0-.06,0-.1-.07-.1-.19s0-.19.1-.19a7.42,7.42,0,0,0,1.79-.16,1.1,1.1,0,0,0,.76-.62,3.6,3.6,0,0,0,.21-1.41V123.57a4.84,4.84,0,0,0-.13-1.43.7.7,0,0,0-.57-.45,11.3,11.3,0,0,0-1.81-.09h-1.62a4.6,4.6,0,0,0-1.42.16,1.12,1.12,0,0,0-.7.68,4.37,4.37,0,0,0-.23,1.63,43.72,43.72,0,0,1-.65,7.18,22.23,22.23,0,0,1-2.22,6.89c-1.05,2-2.44,3-4.17,3A2,2,0,0,1,148.16,140.8Z"/><path d="M184.64,120.12v.58a4.61,4.61,0,0,0-1.41.22,1.12,1.12,0,0,0-.66.7,5.55,5.55,0,0,0-.17,1.59v14.42a5.59,5.59,0,0,0,.17,1.57,1.06,1.06,0,0,0,.66.69,5.19,5.19,0,0,0,1.41.24v.58c-.49,0-1.11-.06-1.86-.07l-2.3,0-2.44,0c-.76,0-1.38,0-1.86.07v-.58a5.21,5.21,0,0,0,1.43-.24,1,1,0,0,0,.64-.69,5.66,5.66,0,0,0,.16-1.57V123.21a5.63,5.63,0,0,0-.16-1.59,1,1,0,0,0-.64-.7,4.64,4.64,0,0,0-1.43-.22v-.58l1.86.06c.75,0,1.57,0,2.44,0s1.54,0,2.3,0Zm3,10v.58h-7v-.58Zm7.44-10.41A9.41,9.41,0,0,1,200,121a8.49,8.49,0,0,1,3.29,3.59,12.59,12.59,0,0,1,1.17,5.68,12.79,12.79,0,0,1-1.2,5.7,9.39,9.39,0,0,1-3.33,3.81,8.84,8.84,0,0,1-4.89,1.37,9.53,9.53,0,0,1-4.91-1.25,8.57,8.57,0,0,1-3.3-3.61,14.07,14.07,0,0,1,0-11.37,9.43,9.43,0,0,1,3.35-3.81A8.75,8.75,0,0,1,195.1,119.72Zm-.11.52a3.48,3.48,0,0,0-2.69,1.31,9.06,9.06,0,0,0-1.79,3.6,19.79,19.79,0,0,0-.64,5.32,17.57,17.57,0,0,0,.73,5.37,8.83,8.83,0,0,0,1.93,3.52,3.66,3.66,0,0,0,2.66,1.23,3.49,3.49,0,0,0,2.72-1.31,9,9,0,0,0,1.77-3.62,20.22,20.22,0,0,0,.63-5.3,18.17,18.17,0,0,0-.71-5.38,8.84,8.84,0,0,0-1.91-3.51A3.67,3.67,0,0,0,195,120.24Z"/><path d="M227.69,140.29a.41.41,0,0,1-.06.23.51.51,0,0,1-.21.16,1.68,1.68,0,0,1-.41.09,6,6,0,0,1-.65,0,4.81,4.81,0,0,1-.73,0,1.41,1.41,0,0,1-.43-.11.74.74,0,0,1-.25-.2.91.91,0,0,1-.13-.28l-1.84-4.9a8.87,8.87,0,0,0-.83-1.69,4.65,4.65,0,0,0-1-1.16,3.83,3.83,0,0,0-1.32-.67,5.84,5.84,0,0,0-1.68-.22H217v8.77a.38.38,0,0,1-.06.22.53.53,0,0,1-.22.15,1.68,1.68,0,0,1-.41.09,5.14,5.14,0,0,1-1.28,0,1.67,1.67,0,0,1-.42-.09.53.53,0,0,1-.22-.15.38.38,0,0,1-.06-.22V121a.34.34,0,0,1,.06-.2.4.4,0,0,1,.22-.15,1.67,1.67,0,0,1,.42-.09,5.14,5.14,0,0,1,1.28,0,1.68,1.68,0,0,1,.41.09.4.4,0,0,1,.22.15.34.34,0,0,1,.06.2v8.2h1.11a5.3,5.3,0,0,0,1.63-.23,3.49,3.49,0,0,0,1.23-.67,4.31,4.31,0,0,0,1-1.14,9.34,9.34,0,0,0,.74-1.64l1.52-4.37a1.39,1.39,0,0,1,.12-.28.57.57,0,0,1,.23-.2,1.41,1.41,0,0,1,.43-.11,4.47,4.47,0,0,1,.7,0,5.55,5.55,0,0,1,.65,0,1.59,1.59,0,0,1,.4.09.31.31,0,0,1,.19.16.46.46,0,0,1,.05.21,1.81,1.81,0,0,1-.05.38l-.15.49-1.6,4.17a13.71,13.71,0,0,1-.7,1.63,6.65,6.65,0,0,1-.8,1.17,4.44,4.44,0,0,1-.95.8,4.55,4.55,0,0,1-1.14.51v0a7.72,7.72,0,0,1,1.29.61,5,5,0,0,1,1,.86,6.25,6.25,0,0,1,.88,1.23,14.34,14.34,0,0,1,.79,1.73l1.89,4.78a4.55,4.55,0,0,1,.19.56A1.68,1.68,0,0,1,227.69,140.29Z"/><path d="M83.64,172.08l-.7,0-1.21,0L80.32,172l-1.33,0-1.53,0-1.92,0-1.68,0-.92,0a.76.76,0,0,1-.33-.18c-.17-.11-.25-.22-.25-.32a.36.36,0,0,1,.09-.26c0-.06.12-.12.2-.2l4.71-5a13.62,13.62,0,0,0,2.37-3.38,8.47,8.47,0,0,0,.89-3.78,3.2,3.2,0,0,0-.82-2.28,2.69,2.69,0,0,0-2-.86,3.81,3.81,0,0,0-2.11.63A5.38,5.38,0,0,0,74.07,158a1.21,1.21,0,0,1-.29.31.55.55,0,0,1-.37.15c-.1,0-.19-.08-.28-.23a1.16,1.16,0,0,1-.13-.58,2.12,2.12,0,0,1,.43-1,7,7,0,0,1,1.23-1.32,7.38,7.38,0,0,1,1.86-1.13,5.76,5.76,0,0,1,2.32-.47,4.76,4.76,0,0,1,2.5.63,4.12,4.12,0,0,1,1.6,1.71,5.43,5.43,0,0,1,.55,2.49,5.61,5.61,0,0,1-.3,1.71,9.69,9.69,0,0,1-.8,1.81,10.82,10.82,0,0,1-1.11,1.6c-.25.31-.61.7-1.09,1.19l-1.51,1.52-1.52,1.52c-.49.47-.88.86-1.18,1.17a2.45,2.45,0,0,0-.45.53c0,.08.13.13.4.17s.75.07,1.18.09.91,0,1.41,0,1,0,1.56,0,1-.05,1.5-.09a7.71,7.71,0,0,0,1.25-.17,1.85,1.85,0,0,0,.8-.44,3.61,3.61,0,0,0,.65-.9,3.94,3.94,0,0,1,.32-.41.59.59,0,0,1,.44-.23.23.23,0,0,1,.23.14.52.52,0,0,1,0,.3c-.06.23-.16.54-.29.93s-.28.8-.41,1.23a12,12,0,0,0-.32,1.24A.71.71,0,0,1,84,172,.79.79,0,0,1,83.64,172.08Z"/><path d="M106.39,161.91a22.82,22.82,0,0,1-.36,4.22,9.94,9.94,0,0,1-1.21,3.28,6,6,0,0,1-2.21,2.12,6.9,6.9,0,0,1-3.36.75,6.82,6.82,0,0,1-3.19-.67,5.2,5.2,0,0,1-2.08-2,9.24,9.24,0,0,1-1.13-3.23,26,26,0,0,1-.33-4.39,21.92,21.92,0,0,1,.37-4.21,9.92,9.92,0,0,1,1.21-3.29,5.88,5.88,0,0,1,2.2-2.12,7.91,7.91,0,0,1,6.55-.08,5.2,5.2,0,0,1,2.08,2,9.24,9.24,0,0,1,1.13,3.23A26.1,26.1,0,0,1,106.39,161.91Zm-2.73.19c0-1,0-1.9-.1-2.7a17.54,17.54,0,0,0-.32-2.11,6.54,6.54,0,0,0-.55-1.57,3.6,3.6,0,0,0-.79-1.08,2.81,2.81,0,0,0-1.07-.62,4.24,4.24,0,0,0-1.34-.2,3.5,3.5,0,0,0-2.14.62,4.28,4.28,0,0,0-1.29,1.71,9,9,0,0,0-.64,2.54,25.59,25.59,0,0,0-.17,3.13,26,26,0,0,0,.23,3.82,8.2,8.2,0,0,0,.74,2.57,3.31,3.31,0,0,0,1.28,1.44,3.76,3.76,0,0,0,1.9.45,4,4,0,0,0,1.53-.28,3.23,3.23,0,0,0,1.13-.8,4.35,4.35,0,0,0,.78-1.25,8.7,8.7,0,0,0,.5-1.61,13.6,13.6,0,0,0,.25-1.91C103.64,163.56,103.66,162.84,103.66,162.1Z"/><path d="M128.83,161.91a22.82,22.82,0,0,1-.36,4.22,9.94,9.94,0,0,1-1.21,3.28,6,6,0,0,1-2.21,2.12,6.9,6.9,0,0,1-3.36.75,6.82,6.82,0,0,1-3.19-.67,5.29,5.29,0,0,1-2.09-2,9.44,9.44,0,0,1-1.12-3.23A26,26,0,0,1,115,162a21.92,21.92,0,0,1,.37-4.21,9.92,9.92,0,0,1,1.21-3.29,5.88,5.88,0,0,1,2.2-2.12,7.91,7.91,0,0,1,6.55-.08,5.2,5.2,0,0,1,2.08,2,9.24,9.24,0,0,1,1.13,3.23A26.1,26.1,0,0,1,128.83,161.91Zm-2.73.19c0-1,0-1.9-.11-2.7a15.85,15.85,0,0,0-.31-2.11,6.54,6.54,0,0,0-.55-1.57,3.6,3.6,0,0,0-.79-1.08,2.81,2.81,0,0,0-1.07-.62,4.24,4.24,0,0,0-1.34-.2,3.48,3.48,0,0,0-2.14.62,4.19,4.19,0,0,0-1.29,1.71,8.66,8.66,0,0,0-.64,2.54,25.59,25.59,0,0,0-.17,3.13,26,26,0,0,0,.23,3.82,8.49,8.49,0,0,0,.73,2.57,3.39,3.39,0,0,0,1.29,1.44,3.76,3.76,0,0,0,1.9.45,4,4,0,0,0,1.53-.28,3.23,3.23,0,0,0,1.13-.8,4.58,4.58,0,0,0,.78-1.25,8.7,8.7,0,0,0,.5-1.61,13.6,13.6,0,0,0,.25-1.91C126.08,163.56,126.1,162.84,126.1,162.1Z"/><path d="M150.6,170.84a2.53,2.53,0,0,1,0,.5,1.55,1.55,0,0,1-.1.36.52.52,0,0,1-.19.22.46.46,0,0,1-.26.07H138.93a1.12,1.12,0,0,1-.38-.06.62.62,0,0,1-.28-.17.93.93,0,0,1-.17-.36,3,3,0,0,1,0-.57c0-.21,0-.39,0-.55a1.3,1.3,0,0,1,.11-.41,2.08,2.08,0,0,1,.2-.35,2.47,2.47,0,0,1,.31-.38l4-4.13a25.62,25.62,0,0,0,2.22-2.55,14.45,14.45,0,0,0,1.3-2.07,7.16,7.16,0,0,0,.6-1.68,8.32,8.32,0,0,0,.14-1.43,3.48,3.48,0,0,0-.22-1.26,3.15,3.15,0,0,0-.65-1.05,3,3,0,0,0-1.06-.71,3.79,3.79,0,0,0-1.48-.27,5.31,5.31,0,0,0-1.75.27,8.7,8.7,0,0,0-1.36.57c-.39.21-.71.4-1,.57a1.24,1.24,0,0,1-.59.27.31.31,0,0,1-.2-.07.47.47,0,0,1-.14-.2,1.33,1.33,0,0,1-.09-.37,4.39,4.39,0,0,1,0-.56,2.42,2.42,0,0,1,0-.4,1.16,1.16,0,0,1,.05-.29,1.73,1.73,0,0,1,.1-.24,1.13,1.13,0,0,1,.25-.27,5.39,5.39,0,0,1,.64-.44,7.32,7.32,0,0,1,1.15-.55,10.94,10.94,0,0,1,1.52-.46,8.15,8.15,0,0,1,1.74-.18,7.11,7.11,0,0,1,2.55.41,5.19,5.19,0,0,1,1.82,1.12,4.65,4.65,0,0,1,1.07,1.66,5.6,5.6,0,0,1,.36,2,11.23,11.23,0,0,1-.17,1.92,8.35,8.35,0,0,1-.72,2.06,16.17,16.17,0,0,1-1.59,2.47,36.09,36.09,0,0,1-2.76,3.12l-3.18,3.32H150a.44.44,0,0,1,.24.07.55.55,0,0,1,.2.2.91.91,0,0,1,.12.35A2.43,2.43,0,0,1,150.6,170.84Z"/><path d="M159.74,167.05a.16.16,0,0,1-.18-.18,4.6,4.6,0,0,1,.13-1c.09-.34.2-.53.34-.55l2.79-.39q1.4-.19,2.79-.33a.29.29,0,0,1,.16,0,.14.14,0,0,1,.07.13,3.77,3.77,0,0,1-.13,1,.63.63,0,0,1-.48.54c-.87.14-1.76.27-2.66.39S160.73,167,159.74,167.05Z"/><path d="M185,172.08l-.69,0-1.21,0-1.41-.06-1.34,0-1.53,0-1.91,0-1.69,0-.92,0a.82.82,0,0,1-.33-.18c-.17-.11-.25-.22-.25-.32a.36.36,0,0,1,.09-.26l.2-.2,4.71-5a13.62,13.62,0,0,0,2.37-3.38,8.47,8.47,0,0,0,.89-3.78,3.2,3.2,0,0,0-.81-2.28,2.73,2.73,0,0,0-2-.86,3.81,3.81,0,0,0-2.11.63,5.23,5.23,0,0,0-1.58,1.56,1.7,1.7,0,0,1-.29.31.59.59,0,0,1-.38.15c-.1,0-.19-.08-.28-.23a1.27,1.27,0,0,1-.13-.58,2.16,2.16,0,0,1,.44-1,6.93,6.93,0,0,1,1.22-1.32,7.38,7.38,0,0,1,1.86-1.13,5.81,5.81,0,0,1,2.33-.47,4.79,4.79,0,0,1,2.5.63,4.19,4.19,0,0,1,1.6,1.71,5.56,5.56,0,0,1,.55,2.49,5.35,5.35,0,0,1-.31,1.71,9.69,9.69,0,0,1-.8,1.81,10.77,10.77,0,0,1-1.1,1.6c-.25.31-.62.7-1.09,1.19l-1.51,1.52-1.53,1.52c-.49.47-.88.86-1.18,1.17a2.45,2.45,0,0,0-.45.53c0,.08.14.13.41.17s.74.07,1.18.09.9,0,1.41,0,1,0,1.55,0,1-.05,1.5-.09a7.71,7.71,0,0,0,1.25-.17,1.8,1.8,0,0,0,.8-.44,3.61,3.61,0,0,0,.65-.9c.08-.12.19-.25.32-.41a.6.6,0,0,1,.44-.23.23.23,0,0,1,.23.14.52.52,0,0,1,0,.3c-.06.23-.16.54-.29.93s-.27.8-.41,1.23-.24.85-.32,1.24a.73.73,0,0,1-.27.54A.86.86,0,0,1,185,172.08Z"/><path d="M207.76,161.91a22.78,22.78,0,0,1-.37,4.22,9.52,9.52,0,0,1-1.21,3.28,5.91,5.91,0,0,1-2.21,2.12,7.91,7.91,0,0,1-6.55.08,5.27,5.27,0,0,1-2.08-2,9.24,9.24,0,0,1-1.12-3.23,24.94,24.94,0,0,1-.34-4.39,22.75,22.75,0,0,1,.37-4.21,10.14,10.14,0,0,1,1.21-3.29,5.88,5.88,0,0,1,2.2-2.12,7.91,7.91,0,0,1,6.55-.08,5.23,5.23,0,0,1,2.09,2,9.24,9.24,0,0,1,1.12,3.23A26,26,0,0,1,207.76,161.91Zm-2.73.19c0-1,0-1.9-.11-2.7a15.75,15.75,0,0,0-.32-2.11,7,7,0,0,0-.54-1.57,3.62,3.62,0,0,0-.8-1.08,2.77,2.77,0,0,0-1.06-.62,4.33,4.33,0,0,0-1.34-.2,3.48,3.48,0,0,0-2.14.62,4.21,4.21,0,0,0-1.3,1.71,9,9,0,0,0-.64,2.54,27.75,27.75,0,0,0-.17,3.13,27.44,27.44,0,0,0,.23,3.82,8.47,8.47,0,0,0,.74,2.57,3.33,3.33,0,0,0,1.29,1.44,3.72,3.72,0,0,0,1.89.45,4,4,0,0,0,1.53-.28,3.14,3.14,0,0,0,1.13-.8,4.37,4.37,0,0,0,.79-1.25,8.7,8.7,0,0,0,.49-1.61,13.55,13.55,0,0,0,.26-1.91C205,163.56,205,162.84,205,162.1Z"/><path d="M227.71,172.08l-.7,0-1.21,0-1.41-.06-1.33,0-1.53,0-1.92,0-1.69,0-.91,0a.84.84,0,0,1-.34-.18c-.16-.11-.24-.22-.24-.32a.4.4,0,0,1,.08-.26l.21-.2,4.71-5a13.62,13.62,0,0,0,2.37-3.38,8.46,8.46,0,0,0,.88-3.78,3.2,3.2,0,0,0-.81-2.28,2.7,2.7,0,0,0-2-.86,3.8,3.8,0,0,0-2.1.63,5.38,5.38,0,0,0-1.59,1.56,1.41,1.41,0,0,1-.29.31.57.57,0,0,1-.38.15c-.09,0-.19-.08-.27-.23a1.16,1.16,0,0,1-.13-.58,2.12,2.12,0,0,1,.43-1,6.93,6.93,0,0,1,1.22-1.32,7.75,7.75,0,0,1,1.86-1.13,5.84,5.84,0,0,1,2.33-.47,4.76,4.76,0,0,1,2.5.63A4.12,4.12,0,0,1,227,156a5.43,5.43,0,0,1,.55,2.49,5.61,5.61,0,0,1-.3,1.71,10.39,10.39,0,0,1-.8,1.81,10.82,10.82,0,0,1-1.11,1.6c-.25.31-.61.7-1.09,1.19l-1.51,1.52c-.53.54-1,1-1.53,1.52s-.87.86-1.17,1.17a2.45,2.45,0,0,0-.45.53c0,.08.13.13.4.17s.74.07,1.18.09.91,0,1.41,0,1,0,1.56,0,1-.05,1.49-.09a7.55,7.55,0,0,0,1.25-.17,1.8,1.8,0,0,0,.8-.44,3.62,3.62,0,0,0,.66-.9,2.92,2.92,0,0,1,.32-.41.58.58,0,0,1,.43-.23.24.24,0,0,1,.24.14.61.61,0,0,1,0,.3,8.11,8.11,0,0,1-.29.93c-.13.38-.27.8-.4,1.23a9.88,9.88,0,0,0-.32,1.24.71.71,0,0,1-.28.54A.83.83,0,0,1,227.71,172.08Z"/><path d="M248.68,153.32a10.1,10.1,0,0,0-2.1.13,8.37,8.37,0,0,0-7.17,7.33h.09a6.17,6.17,0,0,1,5-2.38c3.65,0,6.22,2.63,6.22,6.67,0,3.78-2.57,7.27-6.86,7.27s-7.3-3.43-7.3-8.8a13,13,0,0,1,3.49-9.3,11.28,11.28,0,0,1,6.61-3.05,13,13,0,0,1,2-.16Zm-.79,11.91c0-3-1.69-4.74-4.26-4.74a4.59,4.59,0,0,0-4,2.55,2.33,2.33,0,0,0-.32,1.23c.07,3.4,1.62,5.91,4.54,5.91C246.27,170.18,247.89,168.18,247.89,165.23Z"/></svg>