<svg id="Слой_1" data-name="Слой 1" xmlns="http://www.w3.org/2000/svg" viewBox="0 0 67.59 68.96"><title>а</title><path d="M56.12,53.27c0,.27-.09.41-.27.41-.87,0-2.21,0-4-.14s-3.15-.13-4-.13c-1,0-2.28,0-3.82.13s-2.58.14-3.35.14c-.18,0-.28-.14-.28-.41s.1-.41.28-.41a10.42,10.42,0,0,0,3.69-.48,1.67,1.67,0,0,0,1.16-1.64,8.34,8.34,0,0,0-.89-2.94L36.78,31.06H23.87L18,45a10.58,10.58,0,0,0-1,3.83c0,2.69,2.24,4,6.7,4,.23,0,.34.14.34.41s-.11.41-.34.41c-.82,0-2,0-3.55-.14-1.73-.09-3.24-.13-4.51-.13s-2.55,0-4.1.13c-1.37.1-2.51.14-3.42.14-.23,0-.34-.14-.34-.41s.11-.41.34-.41a6.76,6.76,0,0,0,3.25-.72,7.36,7.36,0,0,0,2.53-2.52,34.2,34.2,0,0,0,2.63-5.23L31,10.36a.54.54,0,0,1,.48-.21c.23,0,.37.07.41.21L48,44.32a27.82,27.82,0,0,0,4,6.8,5.19,5.19,0,0,0,3.9,1.74C56,52.86,56.12,53,56.12,53.27ZM24.48,29.63H36.1L30,16.64Z"/></svg>