<svg id="Слой_1" data-name="Слой 1" xmlns="http://www.w3.org/2000/svg" viewBox="0 0 67.59 68.96"><title>в</title><path d="M17.47,55.19A4.67,4.67,0,0,1,16.16,55c-.33-.11-.5-.28-.5-.53,0-.5.69-.88,2.07-1.13a8.06,8.06,0,0,0,3.62-1.44,3.91,3.91,0,0,0,1.26-3.25V20.52a4.94,4.94,0,0,0-.94-3.31A4.7,4.7,0,0,0,18.41,16a3.6,3.6,0,0,1-1.56-.47,1,1,0,0,1-.5-.79c0-.25.16-.42.5-.53A4.67,4.67,0,0,1,18.16,14h2.63c.63,0,1.22,0,1.79,0s1.26,0,2.09,0a17.92,17.92,0,0,0,2.07-.1c.58-.06,1.24-.11,2-.15s1.7-.07,2.91-.07q7.32,0,10.92,2.1t3.6,7.23a9,9,0,0,1-.72,3.72A7.85,7.85,0,0,1,44,29.1a11.17,11.17,0,0,1-1.82,1.53,13.76,13.76,0,0,1-2.37,1.16c-.17,0-.25.13-.25.28a.39.39,0,0,0,.25.35,24.36,24.36,0,0,1,3,1.12,13.11,13.11,0,0,1,2.88,1.78,8.16,8.16,0,0,1,2.19,2.88,10.7,10.7,0,0,1,.84,4.54,11.43,11.43,0,0,1-1.09,5.45A8.94,8.94,0,0,1,45,51.25,23.25,23.25,0,0,1,42.19,53a18.41,18.41,0,0,1-4.5,1.57,29.39,29.39,0,0,1-6.13.56c-.55,0-1.36,0-2.44-.12s-2.26-.13-3.51-.13c-1.09,0-2,0-2.75.06l-2.35.16C19.7,55.16,18.68,55.19,17.47,55.19Zm12.9-23.53A19.73,19.73,0,0,0,34,31.29a13.27,13.27,0,0,0,3.91-1.44A6.59,6.59,0,0,0,39.69,28a6.84,6.84,0,0,0,1.07-4.13,10.89,10.89,0,0,0-.69-3.72A6.59,6.59,0,0,0,37.44,17a10.4,10.4,0,0,0-5.82-1.32c-1.71,0-2.83.23-3.35.69a2.7,2.7,0,0,0-.78,2.13V29.35c0,1.08.35,1.74,1.06,2A6.07,6.07,0,0,0,30.37,31.66Zm2.06,20.91a10.76,10.76,0,0,0,5.13-1.26,10.16,10.16,0,0,0,3.82-3.41,8.51,8.51,0,0,0,1.44-4.85A8.87,8.87,0,0,0,42,39a9.47,9.47,0,0,0-1.88-2.6A8.5,8.5,0,0,0,38.19,35a11.58,11.58,0,0,0-2.57-1,15.88,15.88,0,0,0-4.56-.53,3.81,3.81,0,0,0-2.79.81,2.26,2.26,0,0,0-.78,1.44V48.12c0,1.76.43,2.93,1.28,3.54A6.34,6.34,0,0,0,32.43,52.57Z"/></svg>