<svg id="Слой_1" data-name="Слой 1" xmlns="http://www.w3.org/2000/svg" viewBox="0 0 67.59 68.96"><title>ж</title><path d="M9.77,58.86a13.23,13.23,0,0,1-3-.33,6,6,0,0,1-2.06-.76,1.29,1.29,0,0,1-.33-.33A.77.77,0,0,1,4.26,57a.74.74,0,0,1,.22-.52.63.63,0,0,1,.45-.21A5.52,5.52,0,0,0,8.38,55a17.24,17.24,0,0,0,3.15-3.3q1.5-2,2.9-4.26L17.16,43a30.61,30.61,0,0,1,2.69-3.82A8.16,8.16,0,0,1,22.54,37c.28-.12.4-.29.33-.51a1.71,1.71,0,0,0-.45-.7A16.74,16.74,0,0,1,21,34.11a10.78,10.78,0,0,1-1.42-2.54L17,25.52A4.79,4.79,0,0,0,15.22,23a4.06,4.06,0,0,0-1.76-.43,4.58,4.58,0,0,0-1.93.61,4.87,4.87,0,0,1-2.06.6,2,2,0,0,1-1.42-.91,3.52,3.52,0,0,1-.76-2.36,3.37,3.37,0,0,1,.58-2c.38-.55,1.22-.82,2.51-.82a8.49,8.49,0,0,1,3.9.79,7.31,7.31,0,0,1,2.54,2.08,14,14,0,0,1,1.73,3l2.54,5.87a18.13,18.13,0,0,0,3.24,4.9,7.13,7.13,0,0,0,4.75,1.76h2.18q.36,0,.39-.21a8.13,8.13,0,0,0,0-.88V24.12a3.57,3.57,0,0,0-.88-2.84,7.26,7.26,0,0,0-3.17-1.15c-1.34-.24-2-.64-2-1.21q0-.36.48-.51a4.37,4.37,0,0,1,1.27-.16c1.09,0,2,0,2.7.07l2,.09c.65,0,1.44,0,2.36,0s1.62,0,2.18,0l1.82-.09c.64,0,1.51-.07,2.6-.07a4.37,4.37,0,0,1,1.27.16c.32.1.49.27.49.51a.89.89,0,0,1-.49.73,4.45,4.45,0,0,1-1.51.48,8.71,8.71,0,0,0-3.27,1.15c-.69.48-1,1.43-1,2.84V35a8.13,8.13,0,0,0,0,.88c0,.14.15.21.4.21h2.17a7.61,7.61,0,0,0,4.82-1.7,14.72,14.72,0,0,0,3.17-5l2.55-5.87a12.69,12.69,0,0,1,2.87-4.18,7.42,7.42,0,0,1,5.3-1.69c1.29,0,2.12.27,2.51.82a3.44,3.44,0,0,1,.57,2,3.57,3.57,0,0,1-.75,2.36,2,2,0,0,1-1.43.91,4.87,4.87,0,0,1-2.06-.6,4.58,4.58,0,0,0-1.93-.61A4.15,4.15,0,0,0,53,23a4.7,4.7,0,0,0-1.84,2.54l-2.54,6.05a11.14,11.14,0,0,1-1.43,2.54,16.74,16.74,0,0,1-1.42,1.63c-.56.57-.6,1-.12,1.21a7.59,7.59,0,0,1,2.72,2.24A34.12,34.12,0,0,1,51.05,43q1.32,2.18,2.72,4.42t2.94,4.26A15.81,15.81,0,0,0,59.85,55a5.57,5.57,0,0,0,3.42,1.27.64.64,0,0,1,.49.21.8.8,0,0,1,.18.52.76.76,0,0,1-.15.45,1.5,1.5,0,0,1-.34.33,6,6,0,0,1-2,.76,13.26,13.26,0,0,1-3,.33,4.3,4.3,0,0,1-2.3-.72,10.79,10.79,0,0,1-2.27-2,31.14,31.14,0,0,1-2.21-2.84c-.72-1-1.43-2.14-2.12-3.27q-1.81-3-3.45-5.72a21,21,0,0,0-3-4.15c-.41-.44-.78-.82-1.12-1.15a3.57,3.57,0,0,0-1.54-.75A13.55,13.55,0,0,0,37.13,38a.48.48,0,0,0-.49.37,2.1,2.1,0,0,0-.12.66V51.78a4.28,4.28,0,0,0,.58,2.36,3.6,3.6,0,0,0,1.63,1.39,11.33,11.33,0,0,0,2.57.79,6,6,0,0,1,1.52.42.75.75,0,0,1,.48.67c0,.24-.16.41-.48.52a4.49,4.49,0,0,1-1.28.15c-1.08,0-2,0-2.69-.09s-1.38-.12-2-.16-1.43-.06-2.36-.06-1.88,0-2.63.06-1.51.1-2.3.16-1.72.09-2.81.09a4.36,4.36,0,0,1-1.27-.15c-.33-.11-.49-.28-.49-.52,0-.48.67-.85,2-1.09a7.83,7.83,0,0,0,3.51-1.39,3.78,3.78,0,0,0,1.21-3.15V39a2.1,2.1,0,0,0-.12-.66.48.48,0,0,0-.48-.37,13.49,13.49,0,0,0-3.24.28,3.4,3.4,0,0,0-1.55.75c-.32.33-.7.71-1.15,1.15a17.58,17.58,0,0,0-2,2.48c-.71,1-1.44,2.21-2.18,3.48S19.47,48.7,18.67,50q-1.34,2.23-2.82,4.26a18.13,18.13,0,0,1-3,3.3A4.77,4.77,0,0,1,9.77,58.86Z"/></svg>