<svg id="Слой_1" data-name="Слой 1" xmlns="http://www.w3.org/2000/svg" viewBox="0 0 67.59 68.96"><title>и</title><path d="M44.6,23.11Q44.6,19,43.28,18c-.87-.72-2.65-1.08-5.32-1.08V15.63H57.55v1.24c-2.8.09-4.6.53-5.37,1.33S51,20.9,51,23.88V52.64q0,4.47,1.17,5.67c.77.8,2.57,1.25,5.37,1.33v1.24H38V59.64c2.87-.08,4.7-.53,5.47-1.35s1.17-2.69,1.17-5.65v-26l-21,26.89A14,14,0,0,0,24,57.46,2.81,2.81,0,0,0,25.63,59a13.18,13.18,0,0,0,4.56.63v1.24H10.67V59.64c2.8-.08,4.59-.53,5.37-1.33s1.17-2.69,1.17-5.67V23.88c0-3-.39-4.88-1.17-5.68S13.47,17,10.67,16.87V15.63H30.19v1.24q-4.25.14-5.41,1.33c-.78.8-1.16,2.7-1.16,5.68V49.93Z"/></svg>