<svg id="Слой_1" data-name="Слой 1" xmlns="http://www.w3.org/2000/svg" viewBox="0 0 67.59 68.96"><title>л</title><path d="M30.42,16.8v1.25a10.56,10.56,0,0,0-3.22.47A2.33,2.33,0,0,0,25.72,20a11.4,11.4,0,0,0-.37,3.41v31a11.4,11.4,0,0,0,.37,3.38,2.24,2.24,0,0,0,1.48,1.51,13.07,13.07,0,0,0,3.22.5v1.25c-1-.08-2.16-.14-3.6-.16s-2.89,0-4.35,0c-1.63,0-3.15,0-4.57,0s-2.56.08-3.44.16V59.86a13.15,13.15,0,0,0,3.22-.5,2.25,2.25,0,0,0,1.47-1.51,11.34,11.34,0,0,0,.38-3.38v-31A11.34,11.34,0,0,0,19.15,20a2.34,2.34,0,0,0-1.47-1.5,10.61,10.61,0,0,0-3.22-.47V16.8l3.44.12c1.42,0,2.94.07,4.57.07,1.46,0,2.91,0,4.35-.07Zm-.69,20.78a27,27,0,0,1,6.23.69,10.76,10.76,0,0,1,5,2.62,11.08,11.08,0,0,1,2.94,5.76l1.82,7.89a21.62,21.62,0,0,0,1.25,4,1.88,1.88,0,0,0,1.94,1.1A2.86,2.86,0,0,0,50.66,59a12.07,12.07,0,0,0,1.54-1.69l.94.69a12.69,12.69,0,0,1-2.63,2.88A6.48,6.48,0,0,1,46.44,62a6.58,6.58,0,0,1-4-1.28c-1.19-.85-2.1-2.68-2.73-5.47L38,47.46a29.7,29.7,0,0,0-1.31-4.56,6.3,6.3,0,0,0-2.38-3,8.68,8.68,0,0,0-4.82-1.09H24.16V37.58Zm-4.38,1.19V37.58a9.1,9.1,0,0,0,4.41-1.1,10.33,10.33,0,0,0,3-2.53l6-7.64a20.08,20.08,0,0,0,2.82-4.44c.5-1.21.48-2.14-.07-2.79s-1.68-1-3.44-1V16.8l3.7.12c1.25,0,2.41.07,3.5.07,2.29,0,4.07-.07,5.32-.19v1.25a10.43,10.43,0,0,0-3.76,1.28,13.35,13.35,0,0,0-3.63,3.29L30.48,38.77Z"/></svg>