<svg id="Слой_1" data-name="Слой 1" xmlns="http://www.w3.org/2000/svg" viewBox="0 0 67.59 68.96"><title>м</title><path d="M6.1,59.91a2.47,2.47,0,0,1-1.23-.24A.77.77,0,0,1,4.46,59,.75.75,0,0,1,5,58.17c.39-.11.83-.26,1.33-.44a6.57,6.57,0,0,0,2.77-1.92,6.35,6.35,0,0,0,1.47-3.48c.27-2.1.56-4.68.85-7.76s.61-6.36.93-9.87.59-7,.82-10.39a7.16,7.16,0,0,0,.06-1V22A4.26,4.26,0,0,0,12.9,20a2.94,2.94,0,0,0-1.26-1.2,9.65,9.65,0,0,0-1.78-.92,18.27,18.27,0,0,0-2-.65,3.66,3.66,0,0,1-1.3-.54A1.06,1.06,0,0,1,6,15.84.8.8,0,0,1,6.58,15a3.58,3.58,0,0,1,1.3-.21c.68,0,1.52,0,2.52.07s2.11.08,3.32.1,2.44.06,3.69.11,2.4.07,3.45.07a1.6,1.6,0,0,1,1,.37,1.7,1.7,0,0,1,.62.85c.32.87.61,1.7.89,2.5s.57,1.63.89,2.49l10,24a.53.53,0,0,0,.38.31c.16,0,.28-.08.37-.31l9.77-22.69c.32-1.59.59-2.89.79-3.89s.4-1.8.58-2.4a1.08,1.08,0,0,1,1.09-.88h2.94q2.88-.13,6-.45t4.89-.3A2.94,2.94,0,0,1,62.3,15a.83.83,0,0,1,.52.79,1,1,0,0,1-.45.89,5,5,0,0,1-1.13.48c-.27.09-.59.21-1,.37s-.69.31-1,.45a7.1,7.1,0,0,0-2.63,1.88A4.89,4.89,0,0,0,56,23.22c.09,3.28.21,6.15.34,8.61s.27,4.74.38,6.83.25,4.27.41,6.53.33,4.88.51,7.89a3.85,3.85,0,0,0,1.47,2.84,9.19,9.19,0,0,0,3.52,1.6,5.8,5.8,0,0,1,1.16.48.94.94,0,0,1,.48.89.86.86,0,0,1-.41.75,1.8,1.8,0,0,1-1,.27c-1,0-2.16,0-3.45-.1s-2.58-.12-3.83-.17-2.34-.07-3.25-.07-1.92,0-3,.07-2.24.1-3.38.17-2.23.1-3.28.1a2.37,2.37,0,0,1-1.09-.24A.76.76,0,0,1,41,59a1.12,1.12,0,0,1,.48-1,2.84,2.84,0,0,1,1.16-.48,7,7,0,0,0,3.48-1.4,3.87,3.87,0,0,0,.89-3c-.14-2.82-.25-5.64-.34-8.44s-.17-5.56-.24-8.27-.17-5.34-.31-7.89c0-.32-.08-.47-.24-.44s-.3.19-.44.51l-13.05,31c-.23.64-.57.91-1,.82a1.28,1.28,0,0,1-.95-.68q-3.36-7.93-7-15.65T16.69,28.75c-.14-.41-.35-.55-.65-.44s-.47.42-.51.92q-.21,3.42-.34,7.48c-.09,2.71-.14,5.45-.14,8.2V52.6a4.14,4.14,0,0,0,1.23,3.11,8.15,8.15,0,0,0,3.9,1.81,4.94,4.94,0,0,1,1.29.45,1,1,0,0,1,.62.92.82.82,0,0,1-.55.75,2.57,2.57,0,0,1-1.16.27c-1.23,0-2.19,0-2.87-.1s-1.3-.11-1.84-.14-1.3,0-2.26,0-2,0-3.07.07l-2.74.13C6.83,59.89,6.33,59.91,6.1,59.91Z"/></svg>