<svg id="Слой_1" data-name="Слой 1" xmlns="http://www.w3.org/2000/svg" viewBox="0 0 67.59 68.96"><title>н</title><path d="M15.58,57.66V56.41a13.25,13.25,0,0,0,3.23-.5,2.25,2.25,0,0,0,1.47-1.5A11.49,11.49,0,0,0,20.65,51V20a11.4,11.4,0,0,0-.37-3.41,2.34,2.34,0,0,0-1.47-1.5,10.68,10.68,0,0,0-3.23-.47V13.35l3.45.13c1.41,0,2.94.06,4.56.06q2.19,0,4.35-.06l3.6-.13V14.6a10.61,10.61,0,0,0-3.22.47,2.34,2.34,0,0,0-1.47,1.5A11.34,11.34,0,0,0,26.47,20V51a11.43,11.43,0,0,0,.38,3.38,2.25,2.25,0,0,0,1.47,1.5,13.15,13.15,0,0,0,3.22.5v1.25c-1-.08-2.16-.14-3.6-.16s-2.89,0-4.35,0c-1.62,0-3.15,0-4.56,0S16.46,57.58,15.58,57.66ZM24.28,36V34.75H49V36ZM41.74,57.66V56.41a13.25,13.25,0,0,0,3.23-.5,2.25,2.25,0,0,0,1.47-1.5A11.49,11.49,0,0,0,46.81,51V20a11.4,11.4,0,0,0-.37-3.41A2.34,2.34,0,0,0,45,15.07a10.68,10.68,0,0,0-3.23-.47V13.35l3.63.13q2.19.06,4.32.06c1.63,0,3.15,0,4.57-.06l3.44-.13V14.6a10.61,10.61,0,0,0-3.22.47A2.34,2.34,0,0,0,53,16.57,11.34,11.34,0,0,0,52.63,20V51A11.43,11.43,0,0,0,53,54.41a2.25,2.25,0,0,0,1.47,1.5,13.15,13.15,0,0,0,3.22.5v1.25c-.87-.08-2-.14-3.44-.16s-2.94,0-4.57,0l-4.32,0C43.91,57.52,42.7,57.58,41.74,57.66Z"/></svg>