<svg id="Слой_1" data-name="Слой 1" xmlns="http://www.w3.org/2000/svg" viewBox="0 0 67.59 68.96"><title>о</title><path d="M50.71,30.85A33.15,33.15,0,0,1,49.33,41a20.64,20.64,0,0,1-3.74,7.06,14.72,14.72,0,0,1-5.5,4.13,16.57,16.57,0,0,1-6.66,1.36A16.58,16.58,0,0,1,26.11,52a13.53,13.53,0,0,1-5.17-4.39,20,20,0,0,1-3.06-7,39.31,39.31,0,0,1-1-9.29,33.25,33.25,0,0,1,1.37-10.08,20.3,20.3,0,0,1,3.72-7,14.8,14.8,0,0,1,5.49-4.14A16.6,16.6,0,0,1,34.1,8.73a16.45,16.45,0,0,1,7.32,1.53,13.91,13.91,0,0,1,5.19,4.39,19.85,19.85,0,0,1,3.09,7A38.34,38.34,0,0,1,50.71,30.85Zm-6.17.43a38.93,38.93,0,0,0-.58-7,17.38,17.38,0,0,0-1.89-5.49,9.62,9.62,0,0,0-3.35-3.57,9.22,9.22,0,0,0-5-1.27,8.49,8.49,0,0,0-4.82,1.35A10.63,10.63,0,0,0,25.62,19a18.84,18.84,0,0,0-1.93,5.44A32.68,32.68,0,0,0,23.05,31a38.25,38.25,0,0,0,.6,7.06,17.68,17.68,0,0,0,1.89,5.47,9.67,9.67,0,0,0,3.32,3.56,9.14,9.14,0,0,0,4.9,1.26A8.54,8.54,0,0,0,38.6,47,10.55,10.55,0,0,0,42,43.34a18.71,18.71,0,0,0,1.95-5.42A33.34,33.34,0,0,0,44.54,31.28Z"/></svg>