<svg id="Слой_1" data-name="Слой 1" xmlns="http://www.w3.org/2000/svg" viewBox="0 0 67.59 68.96"><title>п</title><path d="M52.52,9.76V11a9.8,9.8,0,0,0-3,.47A2.38,2.38,0,0,0,48.07,13a11.36,11.36,0,0,0-.37,3.41v31a11.45,11.45,0,0,0,.37,3.38,2.25,2.25,0,0,0,1.41,1.5,11.37,11.37,0,0,0,3,.5v1.25c-1-.08-2.28-.13-4-.16s-3.44,0-5.32,0l-4.85,0c-1.65,0-3,.08-4.1.16V52.82a11.6,11.6,0,0,0,3.1-.5,2.17,2.17,0,0,0,1.38-1.5,12.39,12.39,0,0,0,.34-3.38v-31c0-2.3-.31-3.77-.94-4.42s-2-1-4.13-1H26.36c-2.13,0-3.51.33-4.14,1s-.93,2.12-.93,4.42v31a11.45,11.45,0,0,0,.37,3.38,2.25,2.25,0,0,0,1.41,1.5,11.37,11.37,0,0,0,3,.5v1.25c-1.05-.08-2.38-.13-4-.16s-3.28,0-4.94,0c-1.88,0-3.63,0-5.26,0s-3,.08-4,.16V52.82a11.6,11.6,0,0,0,3.1-.5,2.17,2.17,0,0,0,1.38-1.5,12.39,12.39,0,0,0,.34-3.38v-31A12.3,12.3,0,0,0,12.37,13,2.29,2.29,0,0,0,11,11.48,10,10,0,0,0,7.89,11V9.76c1,0,2.38.09,4,.13s3.38.06,5.26.06q3.69,0,7.32-.09c2.42-.07,4.36-.1,5.82-.1s3.38,0,5.76.1,4.77.09,7.19.09c1.88,0,3.65,0,5.32-.06S51.55,9.8,52.52,9.76Z"/></svg>