<svg id="Слой_1" data-name="Слой 1" xmlns="http://www.w3.org/2000/svg" viewBox="0 0 67.59 68.96"><title>р</title><path d="M47.06,25.87A15.27,15.27,0,0,1,46,31.71a12.28,12.28,0,0,1-3.05,4.44A13.76,13.76,0,0,1,38.07,39a21.32,21.32,0,0,1-6.89,1H26.27V55.54a.75.75,0,0,1-.15.46,1,1,0,0,1-.46.32,4.94,4.94,0,0,1-.87.2,9,9,0,0,1-1.39.08A9,9,0,0,1,22,56.52a5.09,5.09,0,0,1-.88-.2.85.85,0,0,1-.47-.32.81.81,0,0,1-.14-.46V15.7a2.32,2.32,0,0,1,.7-1.9,2.43,2.43,0,0,1,1.57-.57h9.25c.93,0,1.82,0,2.68.12a22.94,22.94,0,0,1,3,.5,12.29,12.29,0,0,1,3.57,1.43,11.07,11.07,0,0,1,5,6.14A14,14,0,0,1,47.06,25.87Zm-6,.47a9,9,0,0,0-1-4.4A6.89,6.89,0,0,0,37.6,19.3a8.28,8.28,0,0,0-3-1.1,19.75,19.75,0,0,0-3-.23H26.27V35.28h5.17a12.21,12.21,0,0,0,4.33-.66,8.23,8.23,0,0,0,2.88-1.86,7.64,7.64,0,0,0,1.77-2.83A10.44,10.44,0,0,0,41,26.34Z"/></svg>