<svg id="Слой_1" data-name="Слой 1" xmlns="http://www.w3.org/2000/svg" viewBox="0 0 67.59 68.96"><title>с</title><path d="M10.71,35.1a26.1,26.1,0,0,1,1.53-8.72,24.26,24.26,0,0,1,4.48-7.75A22.86,22.86,0,0,1,24,13.06a21.51,21.51,0,0,1,9.78-2.16,20.33,20.33,0,0,1,11.1,2.94,17.91,17.91,0,0,1,6.8,7.66l-3.76,2.32a14.21,14.21,0,0,0-2.84-4,16,16,0,0,0-3.58-2.67,15.48,15.48,0,0,0-4-1.47,19.34,19.34,0,0,0-4-.44A16.17,16.17,0,0,0,25.74,17a17.82,17.82,0,0,0-5.64,4.64,20.61,20.61,0,0,0-3.45,6.46,23.63,23.63,0,0,0-1.16,7.28,22.07,22.07,0,0,0,5.23,14.25,18.38,18.38,0,0,0,5.74,4.51,15.83,15.83,0,0,0,7.21,1.67,18.19,18.19,0,0,0,4.2-.51A16.37,16.37,0,0,0,42,53.65a17.79,17.79,0,0,0,3.72-2.8,14.38,14.38,0,0,0,2.87-4.07l4,2a15,15,0,0,1-3.28,4.82,21.9,21.9,0,0,1-4.72,3.52,23.63,23.63,0,0,1-5.5,2.18,22.82,22.82,0,0,1-5.71.76,19.38,19.38,0,0,1-9.15-2.19,24.08,24.08,0,0,1-7.18-5.71,26.6,26.6,0,0,1-4.68-8A26,26,0,0,1,10.71,35.1Z"/></svg>