<svg id="Слой_1" data-name="Слой 1" xmlns="http://www.w3.org/2000/svg" viewBox="0 0 67.59 68.96"><title>т</title><path d="M54.8,15.26a8.6,8.6,0,0,1-.07,1.1,2.48,2.48,0,0,1-.22.75,1.08,1.08,0,0,1-.36.42.92.92,0,0,1-.49.13H41.52V55.1a.84.84,0,0,1-.14.47.85.85,0,0,1-.46.31,4.58,4.58,0,0,1-.89.2,8.75,8.75,0,0,1-1.38.09,8.88,8.88,0,0,1-1.37-.09,4.37,4.37,0,0,1-.9-.2.88.88,0,0,1-.47-.31.83.83,0,0,1-.13-.47V17.66H23.63a.89.89,0,0,1-.48-.13.92.92,0,0,1-.35-.42,3.23,3.23,0,0,1-.22-.75,7,7,0,0,1-.08-1.1,7.45,7.45,0,0,1,.08-1.12,3.54,3.54,0,0,1,.22-.78.93.93,0,0,1,.35-.44,1,1,0,0,1,.48-.13h30a1,1,0,0,1,.49.13,1.08,1.08,0,0,1,.36.44,2.7,2.7,0,0,1,.22.78A9.2,9.2,0,0,1,54.8,15.26Z"/></svg>