<svg id="Слой_1" data-name="Слой 1" xmlns="http://www.w3.org/2000/svg" viewBox="0 0 67.59 68.96"><title>у</title><path d="M26,56.2a6.8,6.8,0,0,1-3-.69,5.6,5.6,0,0,1-2.28-2,5.71,5.71,0,0,1-.88-3.22,2.08,2.08,0,0,1,.53-1.06c.35-.46.66-.69.91-.69a3.26,3.26,0,0,1,.81.22c.42.14.9.32,1.44.53a17.75,17.75,0,0,0,2,.59,9.74,9.74,0,0,0,2.34.29A3.45,3.45,0,0,0,30,49.44,6.82,6.82,0,0,0,31.79,47a5.56,5.56,0,0,0,.35-.69,2.18,2.18,0,0,0,.16-.82,2.62,2.62,0,0,0-.22-1c-.15-.33-.33-.71-.54-1.12L20.47,20.46a17.37,17.37,0,0,0-2.13-3.75A4.69,4.69,0,0,0,15.27,15a3.5,3.5,0,0,1-1.4-.53,1,1,0,0,1-.47-.84.6.6,0,0,1,.47-.6A3.77,3.77,0,0,1,15,12.83c.71,0,1.5,0,2.38.06s1.79.07,2.75.09L23,13Q24,13,25.22,13l2.35-.09,2,0a4,4,0,0,1,1.28.18q.54.2.54.57a.87.87,0,0,1-.54.78,6.53,6.53,0,0,1-1.47.53,7.45,7.45,0,0,0-1.78.66,1.77,1.77,0,0,0-.91,1.72,4.15,4.15,0,0,0,.47,1.63c.32.67.68,1.44,1.1,2.31l7.63,15,.47,1.1c.11.23.22.34.35.34.29,0,.64-.48,1.06-1.44L43.37,22c.34-.92.6-1.72.79-2.41a7,7,0,0,0,.28-1.6,2.32,2.32,0,0,0-1.1-2A7.24,7.24,0,0,0,41,15a9.89,9.89,0,0,1-1.31-.5Q39,14.14,39,13.7c0-.29.18-.49.53-.59A4.46,4.46,0,0,1,40.81,13c1.08,0,2,0,2.75,0s1.61,0,2.57,0c1.16,0,2.27,0,3.31-.12s2-.13,2.88-.13a4.3,4.3,0,0,1,1.35.19c.35.13.53.34.53.63a.81.81,0,0,1-.53.75,10.05,10.05,0,0,1-1.41.5,5.18,5.18,0,0,0-2.82,1.63,9,9,0,0,0-1.75,2.94L39.18,38.55a112.3,112.3,0,0,1-5.13,10.32,23.83,23.83,0,0,1-4.16,5.61A5.89,5.89,0,0,1,26,56.2Z"/></svg>