<svg id="Слой_1" data-name="Слой 1" xmlns="http://www.w3.org/2000/svg" viewBox="0 0 67.59 68.96"><title>х</title><path d="M40.37,12.51H54.76v1.81c-.71.29-1.46.58-2.25.85s-1.61.51-2.44.72l-11,17L51.88,53A19.48,19.48,0,0,1,57,54.5v1.82H40.37V54.5A15.76,15.76,0,0,1,45.12,53L35.23,37.29,25.72,53.06c.88.13,1.73.28,2.57.47a8.7,8.7,0,0,1,2.44,1v1.82H16.27V54.5a11.41,11.41,0,0,1,2.35-.94c.77-.21,1.53-.39,2.28-.56L33.17,34.29,21.4,15.89l-2.47-.75c-.81-.25-1.64-.53-2.47-.82V12.51H33v1.81c-.62.25-1.32.5-2.09.75s-1.66.53-2.66.82L37.05,30l8.51-14.14a36.88,36.88,0,0,1-5.19-1.57Z"/></svg>