<svg id="Слой_1" data-name="Слой 1" xmlns="http://www.w3.org/2000/svg" viewBox="0 0 67.59 68.96"><title>ц</title><path d="M52.76,57.31c-1.66-2-4.32-3-8-3H11.25c-.09,0-.14-.13-.14-.41s.05-.41.14-.41A14.66,14.66,0,0,0,15,53.11a2.41,2.41,0,0,0,1.64-1.33,7.73,7.73,0,0,0,.45-3V17.1a7.5,7.5,0,0,0-.45-3A2.54,2.54,0,0,0,15,12.76a13.53,13.53,0,0,0-3.72-.37c-.09,0-.14-.14-.14-.41s.05-.41.14-.41l3.55.06c2,.1,3.6.14,4.78.14,1.37,0,3.1,0,5.2-.14l3.62-.06c.09,0,.14.13.14.41s-.05.41-.14.41a14.31,14.31,0,0,0-3.83.37,2.45,2.45,0,0,0-1.64,1.33,8.23,8.23,0,0,0-.41,3V48.6a12.41,12.41,0,0,0,.24,3.08,1.36,1.36,0,0,0,1.06,1,17.29,17.29,0,0,0,3.42.21H40a20,20,0,0,0,3.65-.21,1.4,1.4,0,0,0,1.16-1,12.41,12.41,0,0,0,.24-3.08V17.1a8,8,0,0,0-.41-3,2.42,2.42,0,0,0-1.6-1.33,14.26,14.26,0,0,0-3.86-.37c-.14,0-.21-.14-.21-.41s.07-.41.21-.41l3.55.06c2.19.1,3.94.14,5.26.14s2.87,0,4.78-.14l3.49-.06c.14,0,.2.13.2.41s-.06.41-.2.41a13.57,13.57,0,0,0-3.73.37,2.52,2.52,0,0,0-1.63,1.33,7.5,7.5,0,0,0-.45,3V48.74a15.17,15.17,0,0,0,.24,3.38,1.49,1.49,0,0,0,1.16,1.09,17.22,17.22,0,0,0,3.59.24c.36,0,.58,0,.65.14a1.36,1.36,0,0,1,.1.68v2.19q-.14,3.56-.14,10.59c0,.23-.13.34-.41.34s-.41-.11-.41-.34Q55.25,60.36,52.76,57.31Z"/></svg>