<svg id="Слой_1" data-name="Слой 1" xmlns="http://www.w3.org/2000/svg" viewBox="0 0 67.59 68.96"><title>ш</title><path d="M4.34,57a4.56,4.56,0,0,1-1.29-.15c-.33-.11-.5-.28-.5-.53q0-.73,2-1.11a8.22,8.22,0,0,0,3.58-1.39A3.68,3.68,0,0,0,9.4,50.67V22.79a4.62,4.62,0,0,0-.86-3.15,6,6,0,0,0-3.21-1.36q-2-.36-2-1.23c0-.25.17-.42.5-.52a4.19,4.19,0,0,1,1.29-.16c1.11,0,2,0,2.75.06s1.41.08,2.06.1,1.46,0,2.41,0,1.64,0,2.22,0,1.19-.05,1.85-.1,1.54-.06,2.65-.06a4.21,4.21,0,0,1,1.3.16c.33.1.49.27.49.52a.86.86,0,0,1-.49.74,4.34,4.34,0,0,1-1.54.49,6.8,6.8,0,0,0-3.3,1.36,4.11,4.11,0,0,0-1,3.15V50.55a3.81,3.81,0,0,0,.89,2.53,2.93,2.93,0,0,0,2.32,1h9.06a4.89,4.89,0,0,0,2.78-.61,2.74,2.74,0,0,0,1.11-1.58,7.44,7.44,0,0,0,.25-1.82V22.85a4.56,4.56,0,0,0-.9-3.21,6.07,6.07,0,0,0-3.24-1.36,4.34,4.34,0,0,1-1.54-.49.86.86,0,0,1-.49-.74c0-.25.16-.42.49-.52a4.21,4.21,0,0,1,1.3-.16c1.11,0,2,0,2.74.06s1.41.08,2.07.1,1.46,0,2.4,0,1.65,0,2.22,0,1.2-.05,1.86-.1,1.54-.06,2.65-.06a4.19,4.19,0,0,1,1.29.16c.33.1.5.27.5.52q0,.87-2,1.23a7.33,7.33,0,0,0-3.33,1.33,3.94,3.94,0,0,0-1.05,3.12V51a4,4,0,0,0,.25,1.29,2.53,2.53,0,0,0,1.05,1.3,4.5,4.5,0,0,0,2.53.55h9a3.09,3.09,0,0,0,2.59-1.32,4.48,4.48,0,0,0,1-2.69V22.79a4.51,4.51,0,0,0-.89-3.15,6.14,6.14,0,0,0-3.24-1.36,4.4,4.4,0,0,1-1.55-.49.86.86,0,0,1-.49-.74c0-.25.16-.42.49-.52a4.21,4.21,0,0,1,1.3-.16c1.11,0,2,0,2.74.06s1.41.08,2.07.1,1.46,0,2.41,0,1.64,0,2.22,0,1.19-.05,1.85-.1,1.54-.06,2.65-.06a4.26,4.26,0,0,1,1.3.16c.32.1.49.27.49.52q0,.87-2,1.23a7.11,7.11,0,0,0-3.33,1.36,4,4,0,0,0-1,3.09V50.61a3.69,3.69,0,0,0,1.3,3.14A8.33,8.33,0,0,0,62,55.17c1.35.25,2,.62,2,1.11,0,.25-.16.42-.49.53a4.59,4.59,0,0,1-1.3.15c-1.11,0-2,0-2.74-.09s-1.41-.12-2.07-.16-1.46-.06-2.4-.06q-6.24,0-11.38,0l-10.09,0h-10q-5.13,0-11.35.06c-1,0-1.92,0-2.69.06s-1.54.1-2.34.16S5.45,57,4.34,57Z"/></svg>