<svg id="Слой_1" data-name="Слой 1" xmlns="http://www.w3.org/2000/svg" viewBox="0 0 67.59 68.96"><title>щ</title><path d="M4.63,55.14v-2c.53-.29,1.12-.58,1.76-.88a8.59,8.59,0,0,1,2.08-.67V21.36a9.16,9.16,0,0,1-2.06-.59,8.25,8.25,0,0,1-1.78-1v-2H19.35v2a7.1,7.1,0,0,1-1.25.86,9.38,9.38,0,0,1-1.63.69V51.67h10V21.36a9.87,9.87,0,0,1-2.94-1.55v-2H37.33v2a7.56,7.56,0,0,1-1.22.86,8,8,0,0,1-1.66.69V51.67h10V21.36a8.91,8.91,0,0,1-3-1.55v-2H56.17v2a9,9,0,0,1-1.68.94,10.14,10.14,0,0,1-2.06.61V51.67h6.25c0,.82,0,1.76-.11,2.83s-.17,2.15-.29,3.25S58,59.93,57.85,61s-.35,2-.56,2.85H55.21l-2.88-8.69Z"/></svg>