<svg id="Слой_1" data-name="Слой 1" xmlns="http://www.w3.org/2000/svg" viewBox="0 0 67.59 68.96"><title>ъ</title><path d="M49.19,38q3.31,2.39,3.32,7.89a12.29,12.29,0,0,1-1.6,6.32,10.87,10.87,0,0,1-4.47,4.26A14,14,0,0,1,39.87,58c-1.09,0-2.38-.06-3.88-.19l-2.22-.12c-.9-.05-1.89-.07-3-.07l-5.07.07c-.75,0-1.69.06-2.81.06-.13,0-.19-.13-.19-.38s.06-.37.19-.37a15,15,0,0,0,3.78-.35,2.55,2.55,0,0,0,1.69-1.22,6,6,0,0,0,.47-2.75v-29a10.26,10.26,0,0,0-.25-2.81,1.44,1.44,0,0,0-1.12-1,16,16,0,0,0-3.32-.22,7.63,7.63,0,0,0-5.76,2.09q-2,2.1-2.63,6.61c0,.12-.16.17-.37.15s-.31-.07-.31-.15c.16-1.51.35-3.43.56-5.79s.31-4.14.31-5.35c0-.21.12-.32.35-.32a.3.3,0,0,1,.34.32,1.1,1.1,0,0,0,.66,1,6.49,6.49,0,0,0,2.34.47q2,.06,11.14.06c1.26,0,2.8,0,4.63-.12l3-.07c.08,0,.12.13.12.38s0,.37-.12.37a12.29,12.29,0,0,0-3.54.38A2.41,2.41,0,0,0,33.33,21a7.25,7.25,0,0,0-.41,2.79V36.32a37.72,37.72,0,0,1,7-.68Q45.87,35.64,49.19,38ZM45.91,54.57q2.22-2.28,2.22-7.17c0-3.75-.84-6.44-2.5-8.07s-4.09-2.44-7.26-2.44a27.42,27.42,0,0,0-5.45.62V52.66a4,4,0,0,0,1.16,3.19c.77.67,2.3,1,4.6,1Q43.69,56.85,45.91,54.57Z"/></svg>