<svg id="Слой_1" data-name="Слой 1" xmlns="http://www.w3.org/2000/svg" viewBox="0 0 67.59 68.96"><title>ы</title><path d="M25.32,13v1.25a14.66,14.66,0,0,0-3.76.47,2.57,2.57,0,0,0-1.75,1.5,9.87,9.87,0,0,0-.44,3.41v31q0,3.38.72,4.38c.48.67,1.62,1,3.41,1a9.31,9.31,0,0,0,5.85-1.59,8.17,8.17,0,0,0,2.82-4.26,21.19,21.19,0,0,0,.78-6,19.51,19.51,0,0,0-1-6.54,8,8,0,0,0-3.1-4.13,10.48,10.48,0,0,0-5.82-1.4c-1.21,0-2.55,0-4,.06s-2.6.06-3.35.06L15.55,31c1.8,0,3.53,0,5.2,0l3.69,0a21.81,21.81,0,0,1,9.23,1.66,11.57,11.57,0,0,1,5.23,4.47,12.24,12.24,0,0,1,1.69,6.38,14.72,14.72,0,0,1-.85,4.89A12.33,12.33,0,0,1,37,52.81a13.65,13.65,0,0,1-5.2,3.25,23.21,23.21,0,0,1-8.13,1.22c-1,0-2.1,0-3.41-.09s-2.81-.09-4.48-.09-3.26,0-4.79,0-2.76.07-3.72.15V56a12.45,12.45,0,0,0,3.16-.5A2.17,2.17,0,0,0,11.83,54a12.39,12.39,0,0,0,.34-3.38v-31a12.35,12.35,0,0,0-.34-3.41,2.25,2.25,0,0,0-1.44-1.5,10.38,10.38,0,0,0-3.16-.47V13L11,13.1c1.53,0,3.16.06,4.92.06s3.49,0,5.22-.06Zm35,0v1.25a10.1,10.1,0,0,0-3.13.47,2.36,2.36,0,0,0-1.44,1.5,11.4,11.4,0,0,0-.37,3.41v31A11.45,11.45,0,0,0,55.79,54a2.27,2.27,0,0,0,1.44,1.5,12.1,12.1,0,0,0,3.13.5v1.25q-1.5-.12-3.78-.15c-1.53,0-3.08,0-4.66,0q-2.64,0-4.92,0t-3.72.15V56a12.25,12.25,0,0,0,3.19-.5A2.17,2.17,0,0,0,47.88,54a12.39,12.39,0,0,0,.34-3.38v-31a11.4,11.4,0,0,0-.37-3.41,2.34,2.34,0,0,0-1.44-1.5,10.05,10.05,0,0,0-3.13-.47V13L47,13.1q2.28.06,4.92.06c1.58,0,3.13,0,4.66-.06Z"/></svg>