<svg id="Слой_1" data-name="Слой 1" xmlns="http://www.w3.org/2000/svg" viewBox="0 0 67.59 68.96"><title>я</title><path d="M55.74,16.48a.29.29,0,0,1,.33.33v1.77a.29.29,0,0,1-.33.33l-5.84.57c-.23,0-.34.11-.34.33V59.12c0,.22.11.33.34.33l5.84.54q.33,0,.33.36v1.77a.29.29,0,0,1-.33.33H36.65a.29.29,0,0,1-.33-.33V60.35q0-.36.33-.36l6.51-.54a.29.29,0,0,0,.33-.33V41.27a.21.21,0,0,0-.1-.2.37.37,0,0,0-.23-.07h-1.1a12.87,12.87,0,0,0-3,.33,7.74,7.74,0,0,0-2.74,1.31,12.59,12.59,0,0,0-2.64,2.7,26,26,0,0,0-2.6,4.54L25.24,62.19a.48.48,0,0,1-.47.26H14a.3.3,0,0,1-.34-.33V60.35c0-.24.12-.36.34-.36l5-.54a.48.48,0,0,0,.47-.26l6-11.28c.51-.91,1-1.78,1.51-2.61a14.49,14.49,0,0,1,1.61-2.18,10,10,0,0,1,2-1.7,11.36,11.36,0,0,1,2.57-1.25,19.63,19.63,0,0,1-4.95-1.49,12.4,12.4,0,0,1-3.77-2.6,11.81,11.81,0,0,1-2.41-3.52,10.44,10.44,0,0,1-.85-4.2,11.16,11.16,0,0,1,1.17-5A11.3,11.3,0,0,1,26,19.21,13,13,0,0,1,31.7,17a50.91,50.91,0,0,1,7.75-.53ZM28,28.42a8.82,8.82,0,0,0,1.07,4.46,9,9,0,0,0,2.77,3,12.49,12.49,0,0,0,3.85,1.73,16.82,16.82,0,0,0,4.42.59h3.07c.18,0,.27-.11.27-.34V20a.3.3,0,0,0-.33-.34H40.69a37.55,37.55,0,0,0-4.89.3,11.48,11.48,0,0,0-4,1.27A7,7,0,0,0,29,23.85,9.09,9.09,0,0,0,28,28.42Z"/></svg>