<svg id="Слой_1" data-name="Слой 1" xmlns="http://www.w3.org/2000/svg" viewBox="0 0 351.17 276.19"><defs><style>.cls-1{fill:#608b70;}.cls-2{fill:#b8ad99;}.cls-3,.cls-4{fill:none;stroke:#000;stroke-width:2px;}.cls-3{stroke-linecap:round;stroke-linejoin:round;}.cls-4{stroke-miterlimit:10;}</style></defs><title>1</title><path class="cls-1" d="M210.76,117.56a17,17,0,1,1-17-17,17,17,0,0,1,17,17"/><polygon class="cls-2" points="148.84 107.83 155.91 98.74 155.49 110.25 166.74 107.83 159.02 116.37 169.2 121.76 157.79 123.33 162.13 134 152.38 127.88 148.84 138.84 145.31 127.88 135.55 134 139.89 123.33 128.48 121.76 138.66 116.37 130.94 107.83 142.2 110.25 141.77 98.74 148.84 107.83"/><path class="cls-3" d="M192.78,141.71C191.9,153,182.15,161.54,171.35,161A20.8,20.8,0,0,1,152,141.71"/><polygon class="cls-4" points="171.01 85.12 202.7 50.02 200.29 97.25 247.51 94.83 212.41 126.52 247.51 158.21 200.29 155.8 202.7 203.02 171.01 167.92 139.33 203.02 141.74 155.8 94.51 158.21 129.61 126.52 94.51 94.83 141.74 97.25 139.33 50.02 171.01 85.12"/></svg>