<svg id="Слой_1" data-name="Слой 1" xmlns="http://www.w3.org/2000/svg" viewBox="0 0 168.17 170.01"><defs><style>.cls-1{fill:#608b70;}.cls-2{fill:#b8ad99;}.cls-3,.cls-4{fill:none;stroke:#000;stroke-width:2px;}.cls-3{stroke-linecap:round;stroke-linejoin:round;}.cls-4{stroke-miterlimit:10;}</style></defs><title>1</title><path class="cls-1" d="M124.76,77.54a17,17,0,1,1-17-17,17,17,0,0,1,17,17"/><polygon class="cls-2" points="62.84 67.81 69.91 58.72 69.48 70.23 80.74 67.81 73.02 76.35 83.2 81.74 71.79 83.32 76.13 93.98 66.38 87.86 62.84 98.82 59.3 87.86 49.55 93.98 53.89 83.32 42.48 81.74 52.66 76.35 44.94 67.81 56.2 70.23 55.77 58.72 62.84 67.81"/><path class="cls-3" d="M106.78,101.7C105.9,113,96.15,121.52,85.35,121A20.79,20.79,0,0,1,66,101.69"/><polygon class="cls-4" points="85.01 45.1 116.7 10 114.29 57.23 161.51 54.82 126.42 86.5 161.51 118.19 114.29 115.78 116.7 163 85.01 127.91 53.33 163 55.74 115.78 8.51 118.19 43.61 86.5 8.51 54.82 55.74 57.23 53.33 10 85.01 45.1"/></svg>