<svg id="Слой_1" data-name="Слой 1" xmlns="http://www.w3.org/2000/svg" viewBox="0 0 500 500"><defs><style>.cls-1{fill:#608b70;}.cls-2{fill:#b8ad99;}.cls-3{fill:none;stroke:#000;stroke-linecap:round;stroke-linejoin:round;stroke-width:2px;}</style></defs><title>Монтажная область 19 копия 7</title><circle class="cls-1" cx="330.54" cy="244.12" r="55.7"/><polygon class="cls-2" points="182.93 212.19 206.15 182.34 204.75 220.13 241.72 212.19 216.35 240.23 249.78 257.91 212.32 263.1 226.56 298.13 194.54 278.02 182.93 314.01 171.32 278.02 139.3 298.13 153.54 263.1 116.08 257.91 149.5 240.23 124.14 212.19 161.11 220.13 159.71 182.34 182.93 212.19"/><path class="cls-3" d="M327.21,323.17c-2.78,37.22-34.84,65.27-70.37,63.49-33.15-1.66-61.07-28.85-63.56-63.5"/><path d="M327.14,323.16a.08.08,0,0,1,.08-.07.09.09,0,0,1,.07.09.07.07,0,0,1-.09.06A.06.06,0,0,1,327.14,323.16Z"/><path d="M193.35,323.16a.07.07,0,1,0-.14,0,.07.07,0,0,0,.14,0Z"/></svg>