<svg id="Слой_1" data-name="Слой 1" xmlns="http://www.w3.org/2000/svg" viewBox="0 0 500 500"><defs><style>.cls-1{fill:#608b70;}.cls-2{fill:none;stroke:#000;stroke-linecap:round;stroke-linejoin:round;stroke-width:2px;}</style></defs><title>Монтажная область 19 копия 9</title><path class="cls-1" d="M292,191.91a27.84,27.84,0,1,1-38.64-7.55A27.85,27.85,0,0,1,292,191.91Z"/><path class="cls-2" d="M94.51,424.49c-3.2-63.65,14.36-88.67,29.18-100.05,49.18-37.8,135.51,22.74,179.27-16.68,19.88-17.91,21.56-48,20.84-66.7"/><path class="cls-2" d="M82,207.7c9.54,20.53,27.09,49.52,58.37,62.54,50.8,21.15,92-18.9,133.4-4.17,27.24,9.69,58.91,44.66,70.88,162.59"/><path class="cls-2" d="M173.72,437c35.87-18.26,48.88-38.91,54.2-54.2,21.24-61.1-52.68-116.37-33.36-183.43,8.16-28.3,29.58-47.11,45.86-58.37"/></svg>