<svg id="Слой_1" data-name="Слой 1" xmlns="http://www.w3.org/2000/svg" viewBox="0 0 419.53 419.53"><defs><style>.cls-1{fill:#608b70;}.cls-2{fill:#b8ad99;}.cls-3{fill:none;stroke:#000;stroke-linecap:round;stroke-linejoin:round;stroke-width:5px;}</style></defs><title>14</title><circle class="cls-1" cx="255.82" cy="243.55" r="46.06"/><polygon class="cls-2" points="133.75 217.14 152.95 192.46 151.79 223.71 182.36 217.14 161.39 240.33 189.03 254.95 158.06 259.24 169.83 288.21 143.35 271.58 133.75 301.34 124.15 271.58 97.67 288.21 109.44 259.24 78.47 254.95 106.11 240.33 85.14 217.14 115.71 223.71 114.55 192.46 133.75 217.14"/><path class="cls-3" d="M249,326.25c-8.88,21.7-30.58,36.35-54.12,35.17-27.37-1.37-50.43-23.79-52.55-52.38"/><path d="M230.31,322.6a18.8,18.8,0,1,1,13.75,22.75A18.8,18.8,0,0,1,230.31,322.6Z"/><path d="M142.51,309a.19.19,0,0,0-.21-.17.2.2,0,0,0-.16.21.19.19,0,0,0,.21.17A.19.19,0,0,0,142.51,309Z"/><path class="cls-3" d="M142.3,177.5c2.27-30.81,28.8-54,58.2-52.57C222.07,126,241,140.16,249,160.1"/><path d="M230.36,163.69A18.8,18.8,0,1,0,244.17,141,18.79,18.79,0,0,0,230.36,163.69Z"/></svg>