<svg id="Слой_1" data-name="Слой 1" xmlns="http://www.w3.org/2000/svg" viewBox="0 0 419.53 419.53"><defs><style>.cls-1{fill:#608b70;}.cls-2{fill:none;stroke:#000;stroke-linecap:round;stroke-linejoin:round;stroke-width:4px;}.cls-3{fill:#c1362d;}</style></defs><title>15</title><circle class="cls-1" cx="281.22" cy="175.96" r="25.08"/><circle class="cls-1" cx="131.03" cy="378.72" r="25.08"/><line class="cls-2" x1="126.07" y1="200.59" x2="231.2" y2="99.21"/><line class="cls-2" x1="165.49" y1="102.96" x2="236.84" y2="403.35"/><line class="cls-2" x1="126.07" y1="215.61" x2="257.49" y2="298.22"/><line class="cls-2" x1="154.23" y1="343.27" x2="244.35" y2="209.98"/><polygon class="cls-3" points="99.86 231.02 76.08 234.86 60.85 216.19 69.42 193.66 93.2 189.82 108.43 208.49 99.86 231.02"/><polygon class="cls-3" points="270.71 93.96 246.92 97.81 231.7 79.14 240.26 56.61 264.05 52.77 279.27 71.44 270.71 93.96"/><polygon class="cls-3" points="308.26 330.52 284.47 334.37 269.25 315.69 277.81 293.17 301.6 289.32 316.82 308 308.26 330.52"/></svg>