<svg id="Слой_1" data-name="Слой 1" xmlns="http://www.w3.org/2000/svg" viewBox="0 0 419.53 419.53"><defs><style>.cls-1{fill:none;stroke:#000;stroke-linecap:round;stroke-linejoin:round;stroke-width:5px;}</style></defs><title>18</title><path class="cls-1" d="M349.75,147.92c14.36,21.81,19.52,54.58,2.93,82.31-20.8,34.76-60.8,37-64.23,37.08-4.94.17-43.65.85-61.12-26.15-5.77-8.92-12.43-27.84-16.46-38.16-15.88-40.7-26.61-66.2-53.42-80.62-15.56-8.36-36.09-10.73-55.69-6.26a80.68,80.68,0,0,0-40.23,22.16,82.1,82.1,0,0,0-21,39.51,73.36,73.36,0,0,0,2.77,40.81c14,38,52.85,47.63,56.19,48.39,4.83,1.09,37.13,7.87,62.48-12.64a65.41,65.41,0,0,0,16.11-19.43"/></svg>