<svg id="Слой_1" data-name="Слой 1" xmlns="http://www.w3.org/2000/svg" viewBox="0 0 943.17 360.19"><defs><style>.cls-1{fill:none;stroke:#000;stroke-miterlimit:10;stroke-width:3px;}</style></defs><title>2</title><path d="M497.9,126.49h-4.39V75.23h4.39Z"/><path d="M174.62,211.35V160.08h37.61v51.27H207.5V164.46H179.35v46.89Z"/><path d="M222.28,211.63a4.1,4.1,0,0,1-1.31-.18.67.67,0,0,1-.53-.67c0-.61.68-1.06,2.05-1.34a7.85,7.85,0,0,0,3.85-1.56,4.58,4.58,0,0,0,1.17-3.54V173.87a9.46,9.46,0,0,0-.82-4.46q-.81-1.49-3.42-2a4.33,4.33,0,0,1-1.63-.56,1,1,0,0,1-.5-.85.76.76,0,0,1,.53-.67,3,3,0,0,1,1.31-.25c1.23,0,2.24,0,3,0s1.58.06,2.34.1,1.6.07,2.54.07a27.48,27.48,0,0,0,2.9-.14l2.79-.28a25.86,25.86,0,0,1,2.8-.14q8.27,0,13.22,3.46a11,11,0,0,1,4.95,9.55,18.59,18.59,0,0,1-1.73,8,13.74,13.74,0,0,1-5.34,5.9,17.21,17.21,0,0,1-9.19,2.23,5.16,5.16,0,0,1-2.51-.5c-.59-.32-.89-.65-.89-1a.9.9,0,0,1,.43-.74,1.34,1.34,0,0,1,.77-.32,7.83,7.83,0,0,1,1.17.11,13.46,13.46,0,0,0,1.95.11,6.25,6.25,0,0,0,5.76-3.47q1.94-3.47,1.94-9.4T247,169.94a10.58,10.58,0,0,0-7.6-2.79,5.87,5.87,0,0,0-3.15.74,2.68,2.68,0,0,0-1.17,2.44L235,203.78a5.82,5.82,0,0,0,1.13,3.78,6.34,6.34,0,0,0,3.89,1.88,5.88,5.88,0,0,1,1.52.49.9.9,0,0,1,.53.85.69.69,0,0,1-.49.64,3.51,3.51,0,0,1-1.34.21c-1.18,0-2.23,0-3.15-.11l-2.62-.21c-.82-.07-1.68-.11-2.58-.11-1.13,0-2.2,0-3.22.11l-3,.21C224.62,211.59,223.5,211.63,222.28,211.63Z"/><path d="M263.29,211.63a3.82,3.82,0,0,1-1.28-.18.66.66,0,0,1-.49-.67c0-.61.68-1.06,2.05-1.34,1.79-.33,3-.85,3.5-1.56a5.78,5.78,0,0,0,.81-3.46v-32a6.66,6.66,0,0,0-.63-3.39q-.64-1-3.33-1.56c-1.36-.28-2.05-.75-2.05-1.41a.73.73,0,0,1,.5-.71,3.27,3.27,0,0,1,1.27-.21c1.23,0,2.27,0,3.15.07l2.51.14c.8.05,1.67.07,2.61.07s1.9,0,2.73,0,1.69-.06,2.61-.11,2-.07,3.15-.07a3.74,3.74,0,0,1,1.31.18.67.67,0,0,1,.46.67,1,1,0,0,1-.5.88,4.37,4.37,0,0,1-1.48.53,7.47,7.47,0,0,0-3.79,1.77,4.6,4.6,0,0,0-1,3.18v25.81q0,.85.21,1c.14.1.38,0,.71-.28l24.89-25.6a1.68,1.68,0,0,0,.64-1.27v-.42a3.66,3.66,0,0,0-1.17-2.73,7.81,7.81,0,0,0-3.5-1.45c-1.37-.28-2.05-.75-2.05-1.41a.72.72,0,0,1,.53-.71,3.56,3.56,0,0,1,1.31-.21c1.22,0,2.32,0,3.28.07l2.8.14c.89.05,1.84.07,2.83.07s1.7,0,2.43,0,1.53-.06,2.37-.11,1.87-.07,3-.07a3.68,3.68,0,0,1,1.3.18.66.66,0,0,1,.46.67,1,1,0,0,1-.49.88,4.5,4.5,0,0,1-1.56.53q-2.69.65-3.39,1.74a6,6,0,0,0-.71,3.21v32a6,6,0,0,0,.78,3.47c.52.71,1.67,1.25,3.46,1.63a5.88,5.88,0,0,1,1.52.49.9.9,0,0,1,.53.85.69.69,0,0,1-.49.64,3.51,3.51,0,0,1-1.34.21c-1.18,0-2.23,0-3.15-.11s-1.79-.13-2.62-.17-1.73-.08-2.72-.08-1.83,0-2.65.08-1.7.1-2.62.17-2,.11-3.15.11a4.08,4.08,0,0,1-1.3-.18.67.67,0,0,1-.53-.67c0-.61.68-1.06,2-1.34a8.09,8.09,0,0,0,3.57-1.35,3.54,3.54,0,0,0,1.17-3V178.25c0-.7-.24-.85-.71-.42l-25,25.67a4,4,0,0,0-.53.7,2.22,2.22,0,0,0-.11.85,3.29,3.29,0,0,0,1.38,3,11.31,11.31,0,0,0,3.85,1.38,5.41,5.41,0,0,1,1.56.49.91.91,0,0,1,.49.85.69.69,0,0,1-.46.64,3.19,3.19,0,0,1-1.3.21c-1.18,0-2.27,0-3.26-.11s-1.94-.13-2.86-.17-1.9-.08-2.94-.08-1.91,0-2.75.08-1.74.1-2.66.17S264.51,211.63,263.29,211.63Z"/><path d="M344.75,211.7a5,5,0,0,1-1.49-.18c-.38-.12-.56-.32-.56-.6,0-.56.77-1,2.33-1.27A6.92,6.92,0,0,0,348.6,208a4.7,4.7,0,0,0,1.31-3.57v-15.7a2.76,2.76,0,0,0-.14-1.1c-.1-.16-.19-.18-.29,0a9.7,9.7,0,0,1-2.05,1.48,18.27,18.27,0,0,1-4.2,1.77,20,20,0,0,1-5.77.78q-6.65,0-10.11-2.76t-3.46-10v-6.58a8.1,8.1,0,0,0-.53-3.43c-.36-.68-1.43-1.19-3.22-1.52-1.56-.28-2.33-.75-2.33-1.41,0-.28.18-.48.56-.6a5,5,0,0,1,1.49-.18c1.27,0,2.26,0,3,.07s1.36.08,2,.11,1.39,0,2.33,0,1.8,0,2.44,0,1.32-.06,2.05-.11,1.73-.07,3-.07a5,5,0,0,1,1.49.18q.57.18.57.6a1,1,0,0,1-.57.85,5.33,5.33,0,0,1-1.77.56,6.6,6.6,0,0,0-3.71,1.7,4.65,4.65,0,0,0-1.1,3.25v6.86q0,4.53,2.34,6.9t7.28,2.37a16.77,16.77,0,0,0,4.21-.54,24.06,24.06,0,0,0,3.71-1.23,9,9,0,0,0,2.19-1.21,1.47,1.47,0,0,0,.5-.7,3.24,3.24,0,0,0,.14-1V172.31a4.88,4.88,0,0,0-1-3.18,6,6,0,0,0-3.71-1.77c-1.55-.28-2.33-.75-2.33-1.41,0-.28.19-.48.56-.6a5,5,0,0,1,1.49-.18c1.27,0,2.32,0,3.14.07s1.62.08,2.37.11,1.68,0,2.76,0q1.27,0,2,0l1.63-.11c.61,0,1.55-.07,2.83-.07a5,5,0,0,1,1.48.18q.57.18.57.6a1,1,0,0,1-.57.85,5.33,5.33,0,0,1-1.77.56c-1.74.33-2.8.9-3.18,1.7a7.72,7.72,0,0,0-.56,3.25v32a8.16,8.16,0,0,0,.63,3.75c.43.76,1.51,1.3,3.25,1.63a7.3,7.3,0,0,1,1.77.49.87.87,0,0,1,.57.78q0,.42-.57.6a5,5,0,0,1-1.48.18c-1.28,0-2.28,0-3-.11s-1.4-.13-2-.17-1.42-.07-2.41-.07-1.81,0-2.47.07-1.36.1-2.09.17S346,211.7,344.75,211.7Z"/><path d="M385.62,161.28v1.42a11.76,11.76,0,0,0-3.65.53,2.66,2.66,0,0,0-1.66,1.69,13,13,0,0,0-.42,3.86v35.07a13,13,0,0,0,.42,3.82,2.59,2.59,0,0,0,1.66,1.7,14.57,14.57,0,0,0,3.65.56v1.42c-1.09-.1-2.44-.16-4.07-.18s-3.26,0-4.91,0c-1.84,0-3.56,0-5.17,0s-2.89.08-3.89.18v-1.42a14.57,14.57,0,0,0,3.65-.56,2.57,2.57,0,0,0,1.66-1.7,13,13,0,0,0,.42-3.82V168.78a13,13,0,0,0-.42-3.86,2.64,2.64,0,0,0-1.66-1.69,11.76,11.76,0,0,0-3.65-.53v-1.42c1,.05,2.29.1,3.89.14s3.33.07,5.17.07c1.65,0,3.28,0,4.91-.07S384.53,161.33,385.62,161.28ZM405.49,166c-.1,1-.17,2-.22,3L377,209.08l.21-3Zm11.1-4.67v1.42a11.69,11.69,0,0,0-3.64.53,2.61,2.61,0,0,0-1.66,1.69,12.59,12.59,0,0,0-.43,3.86v35.07a12.61,12.61,0,0,0,.43,3.82,2.55,2.55,0,0,0,1.66,1.7,14.48,14.48,0,0,0,3.64.56v1.42c-1-.1-2.29-.16-3.89-.18s-3.32,0-5.16,0c-1.61,0-3.23,0-4.88,0s-3,.08-4.1.18v-1.42a14.56,14.56,0,0,0,3.64-.56,2.57,2.57,0,0,0,1.66-1.7,13,13,0,0,0,.42-3.82V168.78a13,13,0,0,0-.42-3.86,2.64,2.64,0,0,0-1.66-1.69,11.74,11.74,0,0,0-3.64-.53v-1.42c1.08.05,2.45.1,4.1.14s3.27.07,4.88.07c1.84,0,3.56,0,5.16-.07S415.6,161.33,416.59,161.28Z"/><path d="M431.08,163.69v19.94h23.05V163.69h6.23v47.66h-6.23V189H431.08v22.35h-6.15V163.69Z"/><path d="M464.25,210.28l5.65-2.12,19.45-47h2.12l20.15,48.08,3.54,1.06v1.07h-8.49a10.12,10.12,0,0,1-6-1.67,9.9,9.9,0,0,1-3.46-4.35l-3.61-8.48h-16.9L472,208.16l5.31,2.12v1.07H464.25Zm13.15-15.2h15.48l-7.77-18.6Z"/><path d="M562.32,212.41a27.33,27.33,0,0,1-9.54-1.7,26.27,26.27,0,0,1-8.21-4.84,22.93,22.93,0,0,1-5.69-7.57,22.67,22.67,0,0,1-2.08-9.79A21,21,0,0,1,539,179a24.1,24.1,0,0,1,6-7.64,28.24,28.24,0,0,1,8.73-5,29.68,29.68,0,0,1,10.36-1.81,41.06,41.06,0,0,1,4.67.22,36.34,36.34,0,0,1,3.71.6c1.2.26,2.6.6,4.21,1a2.87,2.87,0,0,1,1.52.85,2.81,2.81,0,0,1,.53,1.56c.09,1.08.21,2.25.35,3.5s.24,2.79.28,4.63a.77.77,0,0,1-.46.81,1.49,1.49,0,0,1-1.13.18,1.14,1.14,0,0,1-.81-.92,26.07,26.07,0,0,0-1.63-4.63,8,8,0,0,0-2.75-3.22,12.94,12.94,0,0,0-4.28-1.8,23.29,23.29,0,0,0-5.41-.6,17.43,17.43,0,0,0-7.6,1.66,18.28,18.28,0,0,0-6,4.52,21.71,21.71,0,0,0-3.93,6.47,20.46,20.46,0,0,0-1.41,7.5,26.84,26.84,0,0,0,1.38,8.48,24.86,24.86,0,0,0,4,7.53,20.36,20.36,0,0,0,6.15,5.38,15.92,15.92,0,0,0,8,2,14.28,14.28,0,0,0,8.42-2.33,19.25,19.25,0,0,0,5.65-6.5,1.56,1.56,0,0,1,1.45-.92c.64,0,1,.37,1,1.13a9.81,9.81,0,0,1-.28,1.8c-.19.83-.44,1.7-.75,2.62s-.6,1.73-.88,2.44a2.67,2.67,0,0,1-2.26,1.91,26.51,26.51,0,0,1-6.26,1.55A52.84,52.84,0,0,1,562.32,212.41Z"/><path d="M645.41,161.28v1.42a10.83,10.83,0,0,0-3.47.53,2.53,2.53,0,0,0-1.59,1.69,13.94,13.94,0,0,0-.39,3.86v35.07a12.61,12.61,0,0,0,.43,3.82,2.55,2.55,0,0,0,1.59,1.7,12.89,12.89,0,0,0,3.43.56v1.42c-1.23-.1-2.79-.16-4.67-.18s-3.8,0-5.73,0c-2.12,0-4.11,0-6,0s-3.36.08-4.49.18v-1.42a14.56,14.56,0,0,0,3.64-.56,2.57,2.57,0,0,0,1.66-1.7,13,13,0,0,0,.42-3.82V165.38l.5.07-17.54,46.11H612.1l-18.67-45.75v35.07a25.37,25.37,0,0,0,.43,5.27,3.87,3.87,0,0,0,1.87,2.68,11.52,11.52,0,0,0,4.42,1.1v1.42c-.89-.1-2-.16-3.46-.18s-2.76,0-4,0-2.28,0-3.43,0a26,26,0,0,0-2.87.18v-1.42a8.14,8.14,0,0,0,3.5-1.06,3.91,3.91,0,0,0,1.56-2.55,23.67,23.67,0,0,0,.39-4.87V168.78a13.94,13.94,0,0,0-.39-3.86,2.54,2.54,0,0,0-1.56-1.69,10.65,10.65,0,0,0-3.5-.53v-1.42c.76.05,1.71.1,2.87.14s2.3.07,3.43.07c1.74,0,3.44,0,5.09-.07s3.11-.09,4.38-.14l15.2,38-1.55,1.28,14.78-39H635c1.93,0,3.84,0,5.73-.07S644.18,161.33,645.41,161.28Z"/><path d="M652.69,211.7a5,5,0,0,1-1.48-.18q-.57-.18-.57-.6c0-.56.78-1,2.33-1.27a8.11,8.11,0,0,0,4-1.63,4.69,4.69,0,0,0,1.28-3.68V172.52a5.13,5.13,0,0,0-1-3.6,6.89,6.89,0,0,0-3.71-1.56,5.33,5.33,0,0,1-1.77-.56,1,1,0,0,1-.57-.85q0-.42.57-.6a5,5,0,0,1,1.49-.18c1.79,0,3.31,0,4.56.07s2.47.08,3.67.11,2.63,0,4.28,0l4.92,0c1.72,0,3.31,0,4.77,0l4.06-.1,1.95,0a2.69,2.69,0,0,1,.78.14.67.67,0,0,1,.49.5c.24,1.32.47,2.63.71,3.92a19.76,19.76,0,0,1,.35,3.36.94.94,0,0,1-.32.85,1.18,1.18,0,0,1-.67.21.59.59,0,0,1-.49-.18,1.92,1.92,0,0,1-.29-.53c-.23-.8-.47-1.56-.7-2.29a4,4,0,0,0-.85-1.59,4.94,4.94,0,0,0-2.19-1.53,8.55,8.55,0,0,0-2.55-.38h-9.26a3.26,3.26,0,0,0-1.56.63,1.9,1.9,0,0,0-1,1.63v15a1.66,1.66,0,0,0,.39,1.1,1.16,1.16,0,0,0,.89.46h7a4.06,4.06,0,0,0,2.82-.75,5.68,5.68,0,0,0,1.28-2.72c.28-1,.7-1.56,1.27-1.56a.93.93,0,0,1,.6.29,1.09,1.09,0,0,1,.32.85c0,.18,0,.61,0,1.27s-.06,1.34-.1,2-.07,1.25-.07,1.63,0,1.09,0,1.87,0,1.52.07,2.23,0,1.15,0,1.34a3,3,0,0,1-.11.85.48.48,0,0,1-.53.35c-.71,0-1.25-.75-1.62-2.26a5.77,5.77,0,0,0-1.14-2.4,2.71,2.71,0,0,0-2.12-.78h-6.57a3.88,3.88,0,0,0-1.81.32c-.4.21-.6.72-.6,1.52v13.57c0,1.79.38,3,1.13,3.72a5.2,5.2,0,0,0,3.54,1h5.23a23.43,23.43,0,0,0,3.78-.25,7.07,7.07,0,0,0,2.66-1,8,8,0,0,0,2-2,35.56,35.56,0,0,0,2-3.4,2.64,2.64,0,0,1,.49-.7.7.7,0,0,1,.64-.22,1,1,0,0,1,.56.32,1,1,0,0,1,.22.67,11.89,11.89,0,0,1-.36,2.23c-.23,1.06-.53,2.16-.88,3.29a26.42,26.42,0,0,1-1,2.69c-.14.33-.27.61-.38.85a.63.63,0,0,1-.61.35c-2.26,0-4.36,0-6.29-.07l-5.51-.14-5.13-.14c-1.67,0-3.41-.08-5.2-.08-1,0-1.93,0-2.69.11l-2.33.21C655,211.66,654,211.7,652.69,211.7Z"/><path d="M702.54,207.6a23.35,23.35,0,0,1,3.61.67q1.7.47,3.18,1v2.06H690v-2.06a13.87,13.87,0,0,1,2.9-1.06c1-.23,2-.44,2.9-.63V165.67a21.79,21.79,0,0,1-3-.75q-1.41-.45-2.76-1v-2.05h6.37q2.82,0,6.15-.29c2.22-.18,4.34-.28,6.36-.28a31.32,31.32,0,0,1,6.79.74,17.06,17.06,0,0,1,5.91,2.51,13.23,13.23,0,0,1,4.17,4.71,15.19,15.19,0,0,1,1.59,7.32,14.6,14.6,0,0,1-1.63,7.14,14.18,14.18,0,0,1-4.35,4.88,18.71,18.71,0,0,1-6.18,2.79,28.74,28.74,0,0,1-7.14.88h-1.1l-1.59,0c-.57,0-1.11-.06-1.63-.11a9.43,9.43,0,0,1-1.13-.14ZM707.35,165c-1.13,0-2.05,0-2.76.07a14.89,14.89,0,0,0-2.05.28v22.91a3.13,3.13,0,0,0,1,.18c.44,0,.92.06,1.41.11s1,.07,1.45.07h1.13a15.79,15.79,0,0,0,4.67-.68,10.08,10.08,0,0,0,3.85-2.15,10.65,10.65,0,0,0,2.65-3.75,13.52,13.52,0,0,0,1-5.44q0-5.81-3.28-8.7T707.35,165Z"/><path d="M770.93,163.77a.3.3,0,0,1,.34.34V175.2c0,.25-.11.38-.34.38H768.3c-.23,0-.34-.1-.34-.28l-1.42-8c0-.19-.11-.28-.34-.28H754.73c-.18,0-.27.12-.27.35v40.53a.32.32,0,0,0,.34.35l6.7.55c.25,0,.38.15.38.38V211c0,.23-.13.35-.38.35H741.23c-.25,0-.38-.12-.38-.35v-1.83c0-.23.13-.36.38-.38l6.7-.55c.23,0,.35-.14.35-.35V167.36c0-.23-.09-.35-.28-.35H736.54c-.23,0-.35.09-.35.28l-1.41,8c0,.18-.12.28-.35.28h-2.62c-.23,0-.35-.13-.35-.38V164.11a.31.31,0,0,1,.35-.34Z"/><path d="M778.25,160.73h6.07v40.08l26.93-40.08H818v50.62h-6.08v-40l-27,40h-6.69Z"/><line class="cls-1" x1="483.22" y1="75.7" x2="507.71" y2="75.7"/><line class="cls-1" x1="483.46" y1="126.49" x2="507.95" y2="126.49"/></svg>