<svg id="Слой_1" data-name="Слой 1" xmlns="http://www.w3.org/2000/svg" viewBox="0 0 419.53 419.53"><defs><style>.cls-1{fill:none;stroke:#000;stroke-linecap:round;stroke-linejoin:round;stroke-width:5px;}</style></defs><title>20</title><path class="cls-1" d="M389.32,173.54c0,102.56-83.14,185.7-185.7,185.7A167.13,167.13,0,0,1,36.49,192.11,150.41,150.41,0,0,1,186.91,41.69,135.37,135.37,0,0,1,322.28,177.06,121.84,121.84,0,0,1,200.44,298.91,109.66,109.66,0,0,1,90.79,189.25a98.68,98.68,0,0,1,98.69-98.69,88.82,88.82,0,0,1,88.82,88.82,79.94,79.94,0,0,1-79.94,79.94,72,72,0,0,1-72-71.95"/></svg>