<svg id="Слой_1" data-name="Слой 1" xmlns="http://www.w3.org/2000/svg" viewBox="0 0 500 500"><defs><style>.cls-1{fill:#608b70;}.cls-2{fill:#b8ad99;}.cls-3{fill:none;stroke:#000;stroke-linecap:round;stroke-linejoin:round;stroke-width:2px;}</style></defs><title>Монтажная область 19 копия 16</title><circle class="cls-1" cx="309.82" cy="272.96" r="55.7"/><polygon class="cls-2" points="162.21 241.02 185.42 211.18 184.02 248.96 220.99 241.02 195.63 269.07 229.06 286.75 191.6 291.93 205.84 326.96 173.82 306.86 162.21 342.84 150.6 306.86 118.58 326.96 132.81 291.93 95.36 286.75 128.78 269.07 103.42 241.02 140.39 248.96 138.99 211.18 162.21 241.02"/><path class="cls-3" d="M305.61,359c-6,33.67-36.23,58.14-69.49,56.48S175.05,386.64,172.55,352"/><path d="M298.07,358.42a7.52,7.52,0,1,1,6.49,8.42A7.53,7.53,0,0,1,298.07,358.42Z"/><path d="M172.63,352a.07.07,0,0,0-.08-.07.08.08,0,0,0-.07.08.1.1,0,0,0,.09.07S172.64,352,172.63,352Z"/><path class="cls-3" d="M172.55,193.09c2.74-37.26,34.82-65.35,70.38-63.57,30.87,1.54,57.21,25.24,62.7,56.48"/><path d="M298.06,186.61a7.52,7.52,0,1,0,6.48-8.43A7.52,7.52,0,0,0,298.06,186.61Z"/></svg>