<svg id="Слой_1" data-name="Слой 1" xmlns="http://www.w3.org/2000/svg" viewBox="0 0 368.25 328.07"><defs><style>.cls-1{fill:#608b70;}.cls-2{fill:#b8ad99;}</style></defs><title>22</title><circle class="cls-1" cx="92.87" cy="81.33" r="29.73"/><circle class="cls-1" cx="161.71" cy="81.33" r="29.73"/><circle class="cls-1" cx="230.55" cy="81.33" r="29.73"/><circle class="cls-1" cx="92.87" cy="219" r="29.73"/><circle class="cls-1" cx="161.71" cy="219" r="29.73"/><circle class="cls-1" cx="230.55" cy="219" r="29.73"/><circle class="cls-1" cx="92.87" cy="150.17" r="29.73"/><circle class="cls-1" cx="230.55" cy="150.17" r="29.73"/><polygon class="cls-2" points="162.68 131.04 174.81 115.43 174.08 135.19 193.41 131.04 180.15 145.7 197.63 154.94 178.04 157.66 185.49 175.97 168.74 165.46 162.68 184.27 156.61 165.46 139.86 175.97 147.31 157.66 127.72 154.94 145.2 145.7 131.94 131.04 151.27 135.19 150.54 115.43 162.68 131.04"/></svg>