<svg id="Слой_1" data-name="Слой 1" xmlns="http://www.w3.org/2000/svg" viewBox="0 0 500 500"><defs><style>.cls-1{fill:#608b70;}.cls-2{fill:none;stroke:#000;stroke-linecap:round;stroke-linejoin:round;stroke-width:2px;}.cls-3{fill:#c1362d;}</style></defs><title>Монтажная область 19 копия 18</title><circle class="cls-1" cx="356.89" cy="191.23" r="30.32"/><circle class="cls-1" cx="175.27" cy="436.42" r="30.32"/><line class="cls-2" x1="169.27" y1="221.01" x2="296.41" y2="98.41"/><line class="cls-2" x1="216.95" y1="102.95" x2="303.22" y2="466.2"/><line class="cls-2" x1="169.27" y1="239.17" x2="328.19" y2="339.07"/><line class="cls-2" x1="203.32" y1="393.55" x2="312.3" y2="232.36"/><polygon class="cls-3" points="137.58 257.8 108.82 262.45 90.41 239.87 100.76 212.64 129.53 207.99 147.94 230.57 137.58 257.8"/><polygon class="cls-3" points="344.18 92.07 315.42 96.72 297.01 74.14 307.36 46.91 336.12 42.25 354.53 64.84 344.18 92.07"/><polygon class="cls-3" points="389.58 378.13 360.82 382.78 342.41 360.2 352.77 332.96 381.53 328.31 399.94 350.89 389.58 378.13"/></svg>