<svg id="Слой_1" data-name="Слой 1" xmlns="http://www.w3.org/2000/svg" viewBox="0 0 368.28 277.61"><defs><style>.cls-1{fill:#608b70;}.cls-2{fill:none;stroke:#000;stroke-linecap:round;stroke-linejoin:round;stroke-width:5px;}</style></defs><title>23</title><circle class="cls-1" cx="78.83" cy="142.27" r="12.96"/><path class="cls-2" d="M76.48,195.38a39.87,39.87,0,0,1,18-41c16.68-10.27,33.05-.89,42.62,9.83,10.12,11.34,1.32,23.12,11.47,37.7,9.64,13.85,21.51,13.18,32.79,6.56,16.85-9.9-4.31-43,16.67-63,13-12.38,31.23-8.71,42.88,2.3,9.1,8.6,11.53,21.39,22,26.19,10.77,4.92,26.58,4.08,34.9-5.39,10-11.37,9.1-32.51,2.18-48.08"/></svg>