<svg id="Слой_1" data-name="Слой 1" xmlns="http://www.w3.org/2000/svg" viewBox="0 0 288.62 275.62"><defs><style>.cls-1{fill:#b8ad99;}.cls-2{fill:none;stroke:#000;stroke-linecap:round;stroke-linejoin:round;stroke-width:5px;}</style></defs><title>26</title><polygon class="cls-1" points="49.32 43.79 55.72 24 62.09 43.8 79.71 32.76 71.86 52.02 92.46 54.89 74.06 64.59 88 80.04 67.67 75.65 68.42 96.43 55.66 80 42.88 96.41 43.67 75.62 23.33 79.97 37.3 64.56 18.92 54.81 39.53 51.98 31.71 32.71 49.32 43.79"/><path class="cls-2" d="M89.36,96.93a29.68,29.68,0,0,1,33.3-1.23c12.3,7.85,11.33,21.85,7.25,31.75-4.31,10.45-15.06,8.38-21.53,19.92-6.14,10.95-1.85,18.69,6.25,24.09,12.1,8.08,27.4-16.83,47.58-9.26,12.52,4.7,16,18.09,12.38,29.47-2.8,8.88-10.58,14.67-10.38,23.27.2,8.81,5.9,19.13,14.94,21.63,10.86,3,24.73-4.46,32.92-14.15"/></svg>