<svg id="Слой_1" data-name="Слой 1" xmlns="http://www.w3.org/2000/svg" viewBox="0 0 500 500"><defs><style>.cls-1{fill:none;stroke:#000;stroke-miterlimit:10;stroke-width:2px;}</style></defs><title>Монтажная область 19 копия 26</title><path class="cls-1" d="M247.9,69.14c65.24,1,106.65,41.28,117.9,52.58,11.46,11.51,52,52.52,52,117.31,0,61.75-36.41,105.8-46.46,116.71"/><path d="M373.44,339.15a1,1,0,0,1,.81,1.16l-2.64,15.06,14.78-4a1,1,0,0,1,1.22.7,1,1,0,0,1-.7,1.23l-16.29,4.38a1,1,0,0,1-.94-.22,1,1,0,0,1-.31-.91L372.28,340a1,1,0,0,1,.25-.5A1,1,0,0,1,373.44,339.15Z"/><path class="cls-1" d="M247.88,408.92c-83.81-2-131.7-64.65-137.61-72.85C96.94,317.54,78.36,283.82,78,239c-.47-57.92,29.83-97.61,40.71-110.35"/><polygon points="247.81 408.84 247.8 408.85 247.87 408.92 247.79 408.99 247.81 409 247.9 408.92 247.81 408.84"/><path d="M117.28,145.34a1,1,0,0,1-.86-1.12l2-15.17-14.6,4.58a1,1,0,0,1-.6-1.91l16.1-5a1,1,0,0,1,.94.19,1,1,0,0,1,.35.9l-2.23,16.72a1,1,0,0,1-.23.51A1,1,0,0,1,117.28,145.34Z"/></svg>