<svg id="Слой_1" data-name="Слой 1" xmlns="http://www.w3.org/2000/svg" viewBox="0 0 943.17 360.19"><defs><style>.cls-1{fill:none;stroke:#000;stroke-miterlimit:10;stroke-width:3px;}</style></defs><title>33</title><path d="M482.76,136.72h-4.38V85.45h4.38Z"/><path d="M497.75,136.72h-4.38V85.45h4.38Z"/><path d="M512.75,136.72h-4.39V85.45h4.39Z"/><path d="M159.74,205.09c-2.27,10.26-9.55,17.4-21.71,17.4-14.71,0-22.77-11.1-22.77-26.59s8.27-26.51,23-26.51c11.6,0,19,7,21.28,17.39h-4.94c-2.13-8.56-8.7-12.87-16.48-12.87-10.11,0-17.82,7.85-17.82,22,0,13.65,7.28,22.06,17.82,22.06,9.9,0,15.13-6.22,16.69-12.87Z"/><path d="M188.45,222.56a24.85,24.85,0,0,1-9-1.66,23.75,23.75,0,0,1-7.6-4.74,22.44,22.44,0,0,1-7.21-16.86,27,27,0,0,1,1.59-9.23,24,24,0,0,1,4.66-7.89,22.17,22.17,0,0,1,7.68-5.51,25.53,25.53,0,0,1,10.53-2,24.82,24.82,0,0,1,9.09,1.66,23.86,23.86,0,0,1,7.6,4.74A22.44,22.44,0,0,1,213,197.88a27.13,27.13,0,0,1-1.59,9.19,23.77,23.77,0,0,1-4.67,7.92,22.15,22.15,0,0,1-7.67,5.52A25.74,25.74,0,0,1,188.45,222.56Zm1.13-3a14.08,14.08,0,0,0,8.24-2.3,13.89,13.89,0,0,0,4.94-6.4,25,25,0,0,0,1.67-9.47,38.24,38.24,0,0,0-1-9,26.51,26.51,0,0,0-3.07-7.61,15.32,15.32,0,0,0-5.17-5.23,13.9,13.9,0,0,0-20.33,6.68,24.75,24.75,0,0,0-1.66,9.41,39.72,39.72,0,0,0,1,9.05,25.58,25.58,0,0,0,3,7.6,16.12,16.12,0,0,0,5.13,5.31A13.31,13.31,0,0,0,189.58,219.59Z"/><path d="M219.84,221.92a3.51,3.51,0,0,1-1.34-.21.69.69,0,0,1-.5-.64c0-.61.69-1.06,2.05-1.34a9.48,9.48,0,0,0,3.89-1.59,4.15,4.15,0,0,0,1.27-3.43v-32a4.9,4.9,0,0,0-1-3.43,7.46,7.46,0,0,0-3.75-1.59c-1.37-.28-2-.76-2-1.42a.71.71,0,0,1,.53-.7,3.55,3.55,0,0,1,1.31-.22c1.22,0,2.3,0,3.25.08l2.76.14c.89,0,1.88.07,3,.07h18.31a11.54,11.54,0,0,0,1.45-.18,11.33,11.33,0,0,1,1.45-.18.9.9,0,0,1,.81.36,1.11,1.11,0,0,1,.25.63c0,1.61.14,3,.28,4.32a33.61,33.61,0,0,1,.21,3.67,1.7,1.7,0,0,1-.31,1.1.9.9,0,0,1-.68.39c-.23,0-.53-.2-.88-.6a3.84,3.84,0,0,1-.74-1.17c-.24-.89-.52-1.79-.85-2.69A5.3,5.3,0,0,0,247,179a5.16,5.16,0,0,0-3.36-.92h-8.27a2.36,2.36,0,0,0-1.88.89,3.7,3.7,0,0,0-.74,2.44v11.31a7.88,7.88,0,0,0,.28,2.44,1,1,0,0,0,1,.81h.25a.56.56,0,0,0,.25-.07c.8-.23,1.77-.46,2.9-.67a23.26,23.26,0,0,1,4.17-.32q6.51,0,10.32,3.36t3.82,9.51a13.05,13.05,0,0,1-1.24,6.19,10.09,10.09,0,0,1-2.9,3.5c-1.1.8-2.08,1.46-2.93,2a16.31,16.31,0,0,1-5,1.84,32.75,32.75,0,0,1-6.33.56c-.43,0-1.06,0-1.91-.1l-3.11-.25c-1.23-.1-2.64-.14-4.25-.14a21.2,21.2,0,0,0-2.61.14l-2.51.28A27.79,27.79,0,0,1,219.84,221.92Zm17.75-3.39a9,9,0,0,0,4.74-1.38A11.09,11.09,0,0,0,246,213.4a10.09,10.09,0,0,0,1.45-5.34,10.48,10.48,0,0,0-.81-4.42,10.1,10.1,0,0,0-1.91-2.82,9.53,9.53,0,0,0-2-1.6,9.86,9.86,0,0,0-2.47-1.13,13.27,13.27,0,0,0-4.1-.56,5.14,5.14,0,0,0-2.44.53,2,2,0,0,0-1,1.94v13.72a4.73,4.73,0,0,0,1.27,3.57A4.94,4.94,0,0,0,237.59,218.53Z"/><path d="M262.13,221.92a5.45,5.45,0,0,1-1.49-.17c-.38-.12-.56-.32-.56-.6,0-.57.77-1,2.33-1.28a7.92,7.92,0,0,0,3.92-1.62,4.88,4.88,0,0,0,1.24-3.75V184.66a11.66,11.66,0,0,0-.81-4.88c-.54-1.13-1.71-1.86-3.5-2.19a5.08,5.08,0,0,1-1.77-.57,1,1,0,0,1-.57-.85q0-.42.57-.6a5.05,5.05,0,0,1,1.48-.17h2.87c.63,0,1.24,0,1.8,0s1.32,0,2.26,0,1.9,0,2.87-.11l2.72-.21c.85-.07,1.6-.11,2.26-.11q8.07,0,13,3.32a10.6,10.6,0,0,1,4.91,9.27,18.59,18.59,0,0,1-1.69,8,13.51,13.51,0,0,1-5.2,5.84,16.62,16.62,0,0,1-8.95,2.19,4.84,4.84,0,0,1-2.36-.46c-.55-.31-.82-.6-.82-.88a1,1,0,0,1,.39-.64,1.12,1.12,0,0,1,.74-.35c.24,0,.6,0,1.1.07s1.21.07,2.16.07a7,7,0,0,0,6.4-3.54q2.14-3.54,2.15-9.76,0-5.66-3.32-8.38a13,13,0,0,0-8.49-2.72,7,7,0,0,0-3.25.67,2.39,2.39,0,0,0-1.27,2.3v33.73a7.1,7.1,0,0,0,1.06,4.1,5.41,5.41,0,0,0,3.68,2.05,6.59,6.59,0,0,1,1.76.5.87.87,0,0,1,.57.78q0,.42-.57.6a5.37,5.37,0,0,1-1.48.17,22.19,22.19,0,0,1-2.94-.14l-1.83-.25a18,18,0,0,0-2.16-.1c-1.18,0-2.23,0-3.15.1s-1.84.16-2.76.25A31,31,0,0,1,262.13,221.92Z"/><path d="M320.25,171.15l17.25,44.48a7.45,7.45,0,0,0,2.41,3.57,5.21,5.21,0,0,0,2.47,1v1.41c-.94-.09-2.1-.15-3.46-.18l-4.1,0c-1.84,0-3.56,0-5.17,0s-2.89.09-3.88.18v-1.41c2.4-.1,3.93-.51,4.59-1.24s.52-2.3-.42-4.7l-13.15-35.15,1.13-.92-12.31,32a16.33,16.33,0,0,0-1.41,6,3.44,3.44,0,0,0,1.63,3.08,9.49,9.49,0,0,0,4.52,1v1.41q-2-.13-4.14-.18l-4,0c-1.18,0-2.18,0-3,0s-1.59.09-2.3.18v-1.41a7,7,0,0,0,2.9-1.67A11.27,11.27,0,0,0,302.5,214l16.62-42.85h1.13Zm8.63,30v1.42H307.8l.71-1.42Z"/><path d="M356.38,179.14H341.89v-5.23h35.28v5.23H362.6v42.43h-6.22Z"/><path d="M380.64,220.51l4.24-1.06V174.19l-4.24-1.06v-1.06h20.15v1.06l-4.24,1.06v17.68h4.59q11.75,0,16.83,3.78t5.09,11.07q0,7.29-5.09,11.07t-16.83,3.78h-20.5Zm20.5-.71a8.8,8.8,0,0,0,7.18-3.36q2.71-3.36,2.72-9.72T408.32,197a8.8,8.8,0,0,0-7.18-3.36h-4.59V219.8Z"/><path d="M469.09,221.92a3.85,3.85,0,0,1-1.48-.24c-.38-.17-.57-.39-.57-.68,0-.47.76-.84,2.27-1.13,1.79-.33,2.95-.87,3.5-1.62a6.47,6.47,0,0,0,.81-3.68v-32a8.29,8.29,0,0,0-.53-3.5c-.35-.69-1.43-1.19-3.22-1.52-1.55-.29-2.33-.71-2.33-1.28a.75.75,0,0,1,.49-.67,3.78,3.78,0,0,1,1.56-.24c1.27,0,2.26,0,3,.07s1.37.08,2,.1,1.39,0,2.33,0,1.81,0,2.44,0,1.32-.06,2.05-.1,1.73-.07,3-.07,2.05.3,2.05.91a.87.87,0,0,1-.57.78,6.68,6.68,0,0,1-1.77.5,6.47,6.47,0,0,0-3.71,1.73,4.79,4.79,0,0,0-1.09,3.29v13.93a.48.48,0,0,0,.35.53,2.28,2.28,0,0,0,.64.1H506.5c.33,0,.5-.28.5-.84V182.54a5.1,5.1,0,0,0-1-3.19,5.94,5.94,0,0,0-3.68-1.76,6.8,6.8,0,0,1-1.77-.5.86.86,0,0,1-.56-.78c0-.61.68-.91,2.05-.91s2.32,0,3.14.07,1.62.08,2.37.1,1.65,0,2.69,0c.85,0,1.51,0,2,0l1.62-.1c.62-.05,1.56-.07,2.83-.07a3.79,3.79,0,0,1,1.52.24c.36.17.53.39.53.67,0,.57-.77,1-2.33,1.28-1.74.33-2.81.89-3.18,1.69a7.75,7.75,0,0,0-.57,3.26v32a7.87,7.87,0,0,0,.67,3.75c.45.75,1.55,1.29,3.29,1.62,1.51.29,2.26.66,2.26,1.13,0,.29-.18.51-.56.68a3.87,3.87,0,0,1-1.49.24c-1.27,0-2.26,0-3-.1l-2-.18c-.61,0-1.41-.07-2.4-.07s-1.8,0-2.44.07l-2.08.18c-.76.07-1.77.1-3.05.1a3.85,3.85,0,0,1-1.48-.24c-.38-.17-.57-.39-.57-.68a.73.73,0,0,1,.53-.7,9.61,9.61,0,0,1,1.74-.43,6.91,6.91,0,0,0,3.57-1.66,4.58,4.58,0,0,0,1.31-3.5v-14.5a.32.32,0,0,0-.36-.35h-27c-.24,0-.35.26-.35.78v13.43a5.12,5.12,0,0,0,1.62,3.79,7.47,7.47,0,0,0,4,2,9.84,9.84,0,0,1,1.74.43.73.73,0,0,1,.53.7c0,.29-.19.51-.57.68a3.85,3.85,0,0,1-1.48.24c-1.28,0-2.33,0-3.15-.1l-2.37-.18c-.75,0-1.67-.07-2.76-.07s-1.83,0-2.51.07l-2.19.18C471.39,221.89,470.37,221.92,469.09,221.92Z"/><path d="M546.66,171.29l17.19,44.34a8.42,8.42,0,0,0,2.3,3.5,4.35,4.35,0,0,0,2.29,1v1.41c-1.22-.09-2.7-.15-4.42-.18s-3.47,0-5.26,0c-2.08,0-4,0-5.8,0s-3.25.09-4.39.18v-1.41c2.41-.1,3.94-.51,4.6-1.24s.52-2.3-.42-4.7L540.3,180.63l1.27-1.56-11.31,29.35a19.83,19.83,0,0,0-1.77,7.17,3.88,3.88,0,0,0,1.7,3.5,9.21,9.21,0,0,0,4.6,1.07v1.41c-1.51-.09-3-.15-4.39-.18s-2.83,0-4.24,0q-1.56,0-2.94,0c-.92,0-1.73.09-2.44.18v-1.41a6.6,6.6,0,0,0,3.08-1.84,14.77,14.77,0,0,0,2.93-5.17L543,171.29c.56.05,1.17.07,1.84.07S546.1,171.34,546.66,171.29Zm6.16,29.91v1.42H531.74l.71-1.42Z"/><path d="M609.81,171.51v1.41a12,12,0,0,0-3.64.53,2.63,2.63,0,0,0-1.66,1.7,12.52,12.52,0,0,0-.43,3.85v35.07q0,3.9,1,5c.68.73,2.2,1.1,4.56,1.1h2.12c-.19,1.69-.32,3.34-.39,4.94s-.11,2.83-.11,3.68a35.5,35.5,0,0,0,.22,4.46h-1.63a27.9,27.9,0,0,0-1.52-6.9,6.74,6.74,0,0,0-3.11-3.67,12.22,12.22,0,0,0-5.69-1.1h-19.1a12.22,12.22,0,0,0-5.69,1.1,6.6,6.6,0,0,0-3.07,3.67,31.23,31.23,0,0,0-1.56,6.9h-1.63a35.5,35.5,0,0,0,.22-4.46c0-.85,0-2.07-.11-3.68s-.2-3.25-.39-4.94h22c2.41,0,4-.37,4.67-1.1s1.06-2.39,1.06-5V179q0-3.88-1.1-5c-.73-.73-2.18-1.1-4.35-1.1h-.91a8.6,8.6,0,0,0-3.26.46,2.63,2.63,0,0,0-1.45,1.77,20.1,20.1,0,0,0-.6,3.85q-.42,4.81-.81,10.54t-1.13,11.35a63.39,63.39,0,0,1-2.19,10.28,19.76,19.76,0,0,1-4,7.5,8.51,8.51,0,0,1-6.65,2.83v-1.34a7.05,7.05,0,0,0,5.45-2.44,18,18,0,0,0,3.53-6.62,60.45,60.45,0,0,0,2.16-9.51q.81-5.34,1.24-11.13t.78-11.46c.14-2.5-.15-4.11-.85-4.84s-2.34-1.14-4.88-1.24v-1.41l3.53.14c1.37,0,2.62.07,3.75.07s2.13,0,3.15-.11,2-.1,3.07-.1c1.8,0,3.42,0,4.88.1s3.21.11,5.24.11c1,0,2.06,0,3.21,0l3.33-.07C608.15,171.59,609.05,171.55,609.81,171.51Z"/><path d="M616.46,221.92a5.45,5.45,0,0,1-1.49-.17c-.38-.12-.56-.32-.56-.6,0-.57.77-1,2.33-1.28a9.24,9.24,0,0,0,4.1-1.62,4.37,4.37,0,0,0,1.41-3.61v-32a5,5,0,0,0-1-3.54,7,7,0,0,0-3.71-1.55,4.93,4.93,0,0,1-1.77-.57,1,1,0,0,1-.57-.85q0-.42.57-.6a5,5,0,0,1,1.48-.17c1.28,0,2.32,0,3.15.07s1.63.08,2.4.1,1.71,0,2.8,0h20.5a9.25,9.25,0,0,0,1-.11l.81-.1a2.66,2.66,0,0,1,.82.14c.3.09.45.26.45.49,0,1.46.11,3,.18,4.63s.11,3.06.11,4.28a1.3,1.3,0,0,1-.21.64.67.67,0,0,1-.57.35.7.7,0,0,1-.6-.39,3.8,3.8,0,0,1-.39-.74c-.33-1.08-.65-2.1-1-3a5,5,0,0,0-1.52-2.33,4.75,4.75,0,0,0-2-1.17,10,10,0,0,0-3-.39h-9.33a2.51,2.51,0,0,0-2.3,1.06,6.37,6.37,0,0,0-.67,3.32v32.39a4.26,4.26,0,0,0,1.49,3.61,9.71,9.71,0,0,0,4.1,1.62,6.59,6.59,0,0,1,1.76.5.87.87,0,0,1,.57.78q0,.42-.57.6a5.37,5.37,0,0,1-1.48.17c-1.27,0-2.32,0-3.15-.1l-2.37-.18c-.75,0-1.67-.07-2.75-.07s-2.21,0-3.08.07l-2.69.18C618.82,221.89,617.73,221.92,616.46,221.92Z"/><path d="M664.26,217.82a24.46,24.46,0,0,1,3.6.67c1.13.31,2.19.65,3.18,1v2H651.67v-2a13.14,13.14,0,0,1,2.9-1.06c1-.24,1.95-.45,2.9-.64V175.89a22.93,22.93,0,0,1-3-.74c-.95-.31-1.87-.65-2.76-1v-2.05H658q2.84,0,6.16-.28t6.36-.28a30.78,30.78,0,0,1,6.79.74,16.72,16.72,0,0,1,5.9,2.51,13.28,13.28,0,0,1,4.17,4.7,15.25,15.25,0,0,1,1.59,7.32,14.71,14.71,0,0,1-1.62,7.14A14.29,14.29,0,0,1,683,198.8a18.86,18.86,0,0,1-6.19,2.79,28.74,28.74,0,0,1-7.14.89h-1.1c-.49,0-1,0-1.59,0s-1.1-.06-1.62-.1a11,11,0,0,1-1.13-.15Zm4.8-42.64c-1.13,0-2,0-2.75.07a14.88,14.88,0,0,0-2,.29v22.91a3.33,3.33,0,0,0,1,.17c.45,0,.92.06,1.42.11a14.21,14.21,0,0,0,1.45.07h1.13a15.72,15.72,0,0,0,4.66-.67A10.28,10.28,0,0,0,677.8,196a10.77,10.77,0,0,0,2.65-3.75,13.49,13.49,0,0,0,1-5.44c0-3.87-1.1-6.76-3.29-8.7S672.93,175.18,669.06,175.18Z"/><path d="M718.76,172.92q10.71,0,17.3,7,6.45,6.89,6.46,17.65T736,215.32q-6.67,7.25-17.27,7.25t-17.47-7q-6.84-7-6.83-17.68t6.73-17.81Q708.06,172.92,718.76,172.92Zm-.83,3.18a14.71,14.71,0,0,0-12.53,6.25,22.82,22.82,0,0,0-4.11,13.84,29.49,29.49,0,0,0,2,10.95,20.81,20.81,0,0,0,6.56,8.92,15.69,15.69,0,0,0,9.84,3.33A14,14,0,0,0,732,213q3.69-5.55,3.69-13.95,0-9.39-4.66-15.91Q726,176.09,717.93,176.1Z"/><path d="M751.93,221.57V170.31H784.1v4.38H756.66v16.4H770c11.1,0,17.75,4.1,17.75,14.85s-6.58,15.63-17.89,15.63Zm4.73-4.38h13.23c8,0,12.8-3.82,12.8-11.18,0-8.06-4.88-10.6-13.23-10.6h-12.8Z"/><path d="M795.46,171h6.07V211L828.46,171h6.74v50.62h-6.08v-40l-27,40h-6.7Z"/><path d="M874.59,210.89a1.23,1.23,0,0,1,.39.07q.18.07.18.21a65.25,65.25,0,0,0-.64,9.34,1.08,1.08,0,0,1-.25.81,1.2,1.2,0,0,1-.88.25H843.76c-.09,0-.14-.14-.14-.42s0-.43.14-.43a16.05,16.05,0,0,0,3.93-.35,2.49,2.49,0,0,0,1.69-1.38,8,8,0,0,0,.46-3.15V183.1a7.78,7.78,0,0,0-.46-3.11,2.6,2.6,0,0,0-1.69-1.38,14.32,14.32,0,0,0-3.93-.39c-.09,0-.14-.14-.14-.42s0-.42.14-.42h28.43a.56.56,0,0,1,.63.63l.15,8.7c0,.14-.12.22-.36.25s-.38,0-.42-.18a8.72,8.72,0,0,0-2.26-5.83,7.32,7.32,0,0,0-5.45-2.09h-4.31a12.37,12.37,0,0,0-3.64.39,2.64,2.64,0,0,0-1.63,1.34,6.84,6.84,0,0,0-.46,2.87v14.35h8.63c2.26,0,3.87-.38,4.84-1.13a4.55,4.55,0,0,0,1.45-3.82c0-.09.14-.14.42-.14s.43.05.43.14l-.07,5.73c0,1.37,0,2.4.07,3.11l.07,3.39c0,.1-.14.14-.43.14s-.42,0-.42-.14c0-2.07-.51-3.56-1.52-4.45s-2.7-1.34-5.06-1.34h-8.41v16.26a7.41,7.41,0,0,0,.42,2.9,2.39,2.39,0,0,0,1.56,1.27,12.7,12.7,0,0,0,3.54.35h5.65a7.47,7.47,0,0,0,5.66-2.4,12.82,12.82,0,0,0,3-6.65C874.31,210.94,874.4,210.89,874.59,210.89Z"/><line class="cls-1" x1="466.46" y1="85.92" x2="524.4" y2="85.92"/><line class="cls-1" x1="467.01" y1="136.72" x2="524.96" y2="136.72"/></svg>