<svg id="Слой_1" data-name="Слой 1" xmlns="http://www.w3.org/2000/svg" viewBox="0 0 500 500"><defs><style>.cls-1{fill:none;stroke:#000;stroke-linecap:round;stroke-linejoin:round;stroke-width:2px;}</style></defs><title>Монтажная область 19 копия 27</title><path class="cls-1" d="M405.63,227.45c15.23,23.13,20.7,57.88,3.1,87.28-22.05,36.86-64.47,39.19-68.1,39.32-5.24.18-46.29.91-64.81-27.73-6.12-9.46-13.18-29.52-17.45-40.46-16.85-43.16-28.22-70.21-56.65-85.49-16.5-8.86-38.28-11.38-59.05-6.64A85.53,85.53,0,0,0,100,217.23a87.06,87.06,0,0,0-22.23,41.89,77.74,77.74,0,0,0,2.94,43.28c14.8,40.32,56,50.51,59.59,51.31,5.11,1.16,39.36,8.35,66.25-13.41a69.26,69.26,0,0,0,17.07-20.6"/></svg>