<svg id="Слой_1" data-name="Слой 1" xmlns="http://www.w3.org/2000/svg" viewBox="0 0 371.62 222.62"><defs><style>.cls-1{fill:#b8ad99;}</style></defs><title>30</title><polygon class="cls-1" points="142.18 65.61 161.09 41.3 159.95 72.07 190.06 65.61 169.4 88.45 196.62 102.85 166.12 107.07 177.72 135.6 151.63 119.22 142.18 148.53 132.72 119.22 106.64 135.6 118.24 107.07 87.73 102.85 114.95 88.45 94.3 65.61 124.41 72.07 123.27 41.3 142.18 65.61"/><polygon class="cls-1" points="262.33 65.61 281.24 41.3 280.1 72.07 310.21 65.61 289.56 88.45 316.78 102.85 286.27 107.07 297.87 135.6 271.79 119.22 262.33 148.53 252.88 119.22 226.8 135.6 238.39 107.07 207.89 102.85 235.11 88.45 214.46 65.61 244.56 72.07 243.42 41.3 262.33 65.61"/></svg>