<svg id="Слой_1" data-name="Слой 1" xmlns="http://www.w3.org/2000/svg" viewBox="0 0 364.18 374.07"><defs><style>.cls-1{fill:#b8ad99;}.cls-2{fill:none;stroke:#000;stroke-miterlimit:10;stroke-width:5px;}</style></defs><title>31</title><polygon class="cls-1" points="317.48 116.34 318.75 97.91 328.49 113.61 341.31 100.3 338.68 118.59 357.06 116.64 343.28 128.97 358.61 139.28 340.14 139.87 345.25 157.63 330.73 146.2 323.23 163.09 319.45 145 302.85 153.12 311.57 136.83 293.64 132.38 310.8 125.51 299.92 110.58 317.48 116.34"/><circle class="cls-1" cx="69.37" cy="269.26" r="28.9"/><polygon class="cls-1" points="79.82 131.08 93.68 114.4 100.25 135.08 116.93 148.95 96.25 155.51 82.38 172.19 75.82 151.51 59.14 137.65 79.82 131.08"/><polygon class="cls-1" points="193.97 76.8 203.15 59.77 211.08 77.42 230.11 80.89 215.78 93.88 218.36 113.06 201.57 103.44 184.14 111.82 188.09 92.89 174.73 78.89 193.97 76.8"/><path class="cls-2" d="M53,237.41c-2.05-5.66-5.92-19.46,0-38a86.14,86.14,0,0,1,15.41-27.74"/><path class="cls-2" d="M110.3,129.9c2.56-5.46,9.58-18,26.86-26.87a86.07,86.07,0,0,1,30.5-8.72"/><path class="cls-2" d="M237.08,82.31c5.81-1.59,19.87-4.35,37.86,3a85.9,85.9,0,0,1,26.42,17.56"/></svg>