<svg id="Слой_1" data-name="Слой 1" xmlns="http://www.w3.org/2000/svg" viewBox="0 0 419.53 419.53"><defs><style>.cls-1{fill:none;stroke:#000;stroke-miterlimit:10;stroke-width:5px;}</style></defs><title>35</title><path class="cls-1" d="M203.82,34c66.69,1,109,42.19,120.52,53.75,11.71,11.76,53.14,53.68,53.14,119.91,0,58.95-32.46,102.11-45.12,116.65"/><path d="M337.58,282.88a2.5,2.5,0,0,1,2,2.89l-6.5,37.7L370,313.42a2.5,2.5,0,1,1,1.31,4.82l-40.69,11.08a2.5,2.5,0,0,1-3.12-2.84l7.16-41.56a2.62,2.62,0,0,1,.61-1.25A2.52,2.52,0,0,1,337.58,282.88Z"/><path class="cls-1" d="M203.78,381.34c-85.65-2.1-134.6-66.09-140.63-74.47-13.63-18.94-32.62-53.41-33-99.19C29.72,152.15,57,113,69.5,97.62"/><polygon points="203.62 381.12 203.58 381.16 203.75 381.33 203.56 381.49 203.6 381.53 203.82 381.34 203.62 381.12"/><path d="M65.86,139.22a2.49,2.49,0,0,1-2.14-2.81L68.78,98.5,32.29,109.94a2.5,2.5,0,1,1-1.5-4.77L71,92.55a2.51,2.51,0,0,1,3.23,2.72l-5.59,41.8a2.49,2.49,0,0,1-2.81,2.15Z"/></svg>