<svg id="Слой_1" data-name="Слой 1" xmlns="http://www.w3.org/2000/svg" viewBox="0 0 1568.18 1568.18"><defs><style>.cls-1{fill:none;stroke:#000;stroke-miterlimit:10;stroke-width:2px;}</style></defs><title>Монтажная область 19 копия 32</title><path class="cls-1" d="M1214.19,1079.73c44.55-28.79,51.75-121.42,20.55-143.88-15.09-10.86-28.19,2.6-48.81-7.7-34.25-17.11-52.88-81.52-30.84-118.19,19.81-33,56-16.07,105.35-54,3.22-2.47,72-56.43,61.66-107.91-8.95-44.61-67.75-39.8-100.2-107.91-13.59-28.51-13.09-49.94-28.27-54-18.25-4.83-47,18.72-54,46.25-9.55,37.95,29.88,53.78,30.83,95.07,1.27,55-67.12,98.3-131,138.74-56.81,36-87.64,55.46-128.46,51.39-54.43-5.44-62.31-46.36-125.9-79.65-73.6-38.54-148.77-28.57-228.67-18C472.23,731.19,406.39,739.92,348.33,792c-87.68,78.62-94.59,199.56-95.06,210.69-3.77,87.89,35.38,127.53,5.14,174.71-32.53,50.74-107.91,51.83-105.35,69.37,1.83,12.55,41.31,18.25,69.37,15.42,10.13-1,55.06-6.82,79.65-41.11,6-8.41,4.08-9.11,18-41.11,15.84-36.47,19.9-39.06,28.26-59.1,23.89-57.24,11.1-84.75,30.83-95.06,17.27-9,41.79,4.35,54,15.42,29.68,27,28.5,79,7.71,97.63-14.28,12.78-33.61,6-41.11,20.55-7,13.54,3.73,31.16,5.14,33.4,11.75,18.76,37.2,28,59.09,25.7,37.54-3.88,46.08-39.5,74.51-38.54,19.71.67,31.28,18.33,48.82,38.54,23,26.46,80.93,93.27,138.74,100.2s80.35-50.44,138.74-41.11c40.72,6.51,52.27,60,77.08,54,16.71-4.07,14.7-26.41,38.54-38.54,17.32-8.81,35-5.46,61.66,0,54.94,11.22,58.34,28.75,84.79,25.69,33.21-3.84,59-35.07,69.37-61.66,4.48-11.49,15-38.61,2.57-59.1-15.48-25.44-51-15.21-61.66-38.54-7.92-17.25,3.17-41,15.41-54C1172,1084.75,1191.79,1094.21,1214.19,1079.73Z"/></svg>