<svg id="Слой_1" data-name="Слой 1" xmlns="http://www.w3.org/2000/svg" viewBox="0 0 1568.18 1568.18"><defs><style>.cls-1{fill:none;stroke:#000;stroke-miterlimit:10;stroke-width:2px;}</style></defs><title>Монтажная область 19 копия 33</title><path class="cls-1" d="M1174.9,479.38c-18.75-57.26-125.37-92.86-210.41-72.69-84,19.94-74.4,77.11-172.16,122.43C676.51,582.8,599.88,531.8,543.65,598c-3.77,4.44-46.5,56.18-26.78,103.3,10.12,24.16,46.25,20.63,53.56,45.91,5.14,17.75-9.24,24.41-7.65,45.91,2.44,32.86,37.67,38.78,53.56,72.68,15.81,33.74,7.32,84.16-19.13,107.13-42.61,37-137,7.21-183.63-45.91-38.15-43.46-22.24-77.35-65-114.78C304.18,773.43,238,767,229.94,781.62c-6.24,11.3,25.69,28.44,53.56,76.51,26.6,45.89,18.4,66.31,38.26,137.73,23.21,83.45,35.23,126.68,72.69,153C447,1185.89,492,1149,536,1191c33.4,31.87,21.62,66.56,57.39,88,26.56,15.91,56.21,10.65,91.82,3.82,54.4-10.44,125-18.59,153-68.86,19.78-35.5,6.47-69.27,19.13-72.69,15.31-4.14,53.82,40.11,49.73,84.17-4.78,51.56-65.32,74.86-57.39,95.64,5.58,14.6,39.7,14.17,95.65,11.48,119.06-5.74,178.59-8.61,206.59-19.13,19.81-7.45,99.65-37.47,149.2-111,100.85-149.55,32.68-414.52-84.16-505-17.5-13.55-49.46-33.54-61.22-72.69C1137.3,563.25,1190.42,526.78,1174.9,479.38Z"/></svg>