<svg id="Слой_1" data-name="Слой 1" xmlns="http://www.w3.org/2000/svg" viewBox="0 0 1568.18 1568.18"><defs><style>.cls-1{fill:none;stroke:#000;stroke-miterlimit:10;stroke-width:2px;}</style></defs><title>Монтажная область 19 копия 35</title><path class="cls-1" d="M1154.23,1088c59.06-64.58,193.82,6.44,224.92-46.31,18.6-31.57-26.34-62.56-8.5-130.82,10.57-40.4,32.91-54.77,24-78.3s-35.26-19.86-71.82-48.25c-47.36-36.78-31.58-65-66-84.46-49.35-28-92.53,24-162.55-3.6-26.69-10.53-21-18.33-63.14-40.86-36.17-19.35-74.71-40-114.81-36.77-63,5-119.49,68.08-134.32,131.14-16.87,71.77,25,123-1.24,144-24.89,19.92-81.92-10.63-98.66-19.6C628.6,845.53,620.93,815.7,568,768.45c-40.9-36.48-77-68.65-130-80.56-70.09-15.76-90.06,21.84-196.91,9.21-33.12-3.91-47.18-9.41-59.09.35-29.09,23.82-14,112.91,34.69,171.13C259,919.16,300.89,915.75,325.9,971.83c11.43,25.64,9.82,42.41,28.82,59.71,21.94,20,43.06,14.9,80.24,25.38,55.57,15.66,91.84,50.53,108.91,66.94,47.91,46.06,27.15,62.9,72.33,108.76,50.24,51,91.35,45.85,111.59,92.4,15.3,35.19,4.7,67.82,11.67,69.14,8.78,1.67,15-52.22,52-109.35,12-18.5,40.33-61.18,94.06-88.17,17.66-8.88,78.88-39.64,113.14-15.28,22,15.63,18.88,44,39.82,50.19,4.23,1.25,19.29,4.49,46.62-18.67C1137.36,1168.6,1122.74,1122.48,1154.23,1088Z"/></svg>