<svg id="Слой_1" data-name="Слой 1" xmlns="http://www.w3.org/2000/svg" viewBox="0 0 943.17 360.19"><defs><style>.cls-1{fill:none;stroke:#000;stroke-miterlimit:10;stroke-width:3px;}</style></defs><title>4</title><path d="M503.58,161.08h-4.39V109.81h4.39Z"/><path d="M518.57,161.08h-4.39V109.81h4.39Z"/><path d="M253.76,245.93l-17.4-46.74v46.74h-4.74V194.67h7.64l17,45.89,16.9-45.89h7.57v51.26H276V199.19l-17.39,46.74Z"/><path d="M291.45,246.29a3.33,3.33,0,0,1-1.35-.22.67.67,0,0,1-.49-.63c0-.61.68-1.06,2.05-1.35a8.37,8.37,0,0,0,3.78-1.59,4.46,4.46,0,0,0,1.17-3.5V207a5,5,0,0,0-1-3.46A6.58,6.58,0,0,0,292,202a4.18,4.18,0,0,1-1.55-.56,1,1,0,0,1-.5-.85.74.74,0,0,1,.5-.67,2.94,2.94,0,0,1,1.34-.25c1.56,0,3,0,4.21.07l3.67.14c1.21,0,2.51.07,3.93.07l6,0c2.1,0,4-.06,5.7-.11s2.93,0,4-.11,1.69-.1,1.87-.1a2.64,2.64,0,0,1,.89.17.82.82,0,0,1,.53.68c.23,1.46.48,2.88.74,4.27a20.21,20.21,0,0,1,.39,3.65,1.16,1.16,0,0,1-.32,1,1,1,0,0,1-.67.25.79.79,0,0,1-.57-.21,2.72,2.72,0,0,1-.42-.64c-.33-.94-.64-1.8-.92-2.58a4.56,4.56,0,0,0-1-1.73,6,6,0,0,0-2.12-1.49,7,7,0,0,0-2.69-.49h-7.92a3.54,3.54,0,0,0-1.94.67,2.13,2.13,0,0,0-1,1.87v14.43a1.55,1.55,0,0,0,.43,1.13,1.35,1.35,0,0,0,1,.42h6.72a3.54,3.54,0,0,0,2.82-.92,7.13,7.13,0,0,0,1.28-2.83c.33-.94.77-1.41,1.34-1.41a.87.87,0,0,1,.64.32,1.44,1.44,0,0,1,.28,1c0,.29,0,.76-.07,1.42s-.1,1.34-.14,2.05-.07,1.27-.07,1.69,0,1.15,0,1.88.06,1.45.11,2.15.07,1.23.07,1.56a1.94,1.94,0,0,1-.11,1,.56.56,0,0,1-.53.38c-.75,0-1.32-.68-1.69-2.05a7,7,0,0,0-1.17-2.75,2.61,2.61,0,0,0-2.16-.92H306.3a3.15,3.15,0,0,0-1.67.35,1.7,1.7,0,0,0-.53,1.49v13.5a4.52,4.52,0,0,0,1.06,3.43,4.76,4.76,0,0,0,3.26,1H314a18.6,18.6,0,0,0,3.47-.29A6.14,6.14,0,0,0,320,241.9a8.37,8.37,0,0,0,2.12-2.19,27.86,27.86,0,0,0,1.91-3.32,3.4,3.4,0,0,1,.57-.68.72.72,0,0,1,.64-.17.62.62,0,0,1,.6.32,1.74,1.74,0,0,1,.17.81,11.15,11.15,0,0,1-.35,2.33c-.24,1-.53,2.12-.88,3.26s-.67,2.09-1,2.89a3,3,0,0,1-.49.82.93.93,0,0,1-.71.32c-1.7,0-3.47,0-5.3-.07l-5.66-.15-5.8-.14c-1.93,0-3.84-.07-5.73-.07-1,0-1.93,0-2.82.11l-2.73.21C293.67,246.25,292.62,246.29,291.45,246.29Z"/><path d="M356.29,247a28.69,28.69,0,0,1-9.8-1.69,26.23,26.23,0,0,1-8.3-4.81,22.23,22.23,0,0,1-7.78-17.26,21.49,21.49,0,0,1,2.12-9.44,23.71,23.71,0,0,1,5.9-7.7,28.48,28.48,0,0,1,8.81-5.17,31.05,31.05,0,0,1,10.89-1.87,38.2,38.2,0,0,1,4.66.25,39.84,39.84,0,0,1,4,.67c1.28.28,2.64.66,4.1,1.13a3,3,0,0,1,1.38.78,2.32,2.32,0,0,1,.53,1.48c.14,1.23.27,2.5.39,3.82s.2,2.78.25,4.39a1,1,0,0,1-.53.92,1.51,1.51,0,0,1-1.17.1,1.22,1.22,0,0,1-.85-1,26.56,26.56,0,0,0-1.48-4.17,7.73,7.73,0,0,0-2.48-3,11.77,11.77,0,0,0-4.13-2,20.43,20.43,0,0,0-5.62-.71,16.44,16.44,0,0,0-7.29,1.62,17.12,17.12,0,0,0-5.65,4.42,21.63,21.63,0,0,0-3.65,6.33,21.09,21.09,0,0,0-1.3,7.36,29.56,29.56,0,0,0,1.23,8.55,23.56,23.56,0,0,0,3.61,7.29,18,18,0,0,0,5.76,5.05,15.56,15.56,0,0,0,7.64,1.88,14.46,14.46,0,0,0,8.41-2.3,18,18,0,0,0,5.59-6.61,1.58,1.58,0,0,1,1.49-1c.65,0,1,.37,1,1.13a10.8,10.8,0,0,1-.24,1.94c-.17.83-.39,1.72-.67,2.69s-.57,1.85-.85,2.65a4.62,4.62,0,0,1-.78,1.27,3.65,3.65,0,0,1-1.34.71,27.14,27.14,0,0,1-6.33,1.7A49.52,49.52,0,0,1,356.29,247Z"/><path d="M392.92,246.29a5,5,0,0,1-1.49-.18c-.38-.12-.56-.32-.56-.6a.86.86,0,0,1,.56-.78,6.87,6.87,0,0,1,1.77-.49,8.42,8.42,0,0,0,4.1-1.74,4.75,4.75,0,0,0,1.41-3.78V211.28c0-2.16,0-3.83-.14-5a7.78,7.78,0,0,0-.46-2.44,1.15,1.15,0,0,0-.88-.78,12.58,12.58,0,0,0-2.09-.25c-.73,0-1.71,0-2.93,0h-3.33a8.78,8.78,0,0,0-3.35.67,4.61,4.61,0,0,0-2.44,2.09c-.14.23-.38.57-.71,1a7.08,7.08,0,0,1-1.06,1.17,1.74,1.74,0,0,1-1.13.49.38.38,0,0,1-.39-.28,1.83,1.83,0,0,1-.11-.64,3.08,3.08,0,0,1,.36-1.41,24.2,24.2,0,0,0,1.45-3.64,26.66,26.66,0,0,0,.74-3.78c.09-.81.27-1.28.53-1.42a1.46,1.46,0,0,1,.67-.21c.19,0,.48.28.88.85a12,12,0,0,1,.89,1.41,2.93,2.93,0,0,0,1.94,1.06,13.09,13.09,0,0,0,3,.36h24.89a23.09,23.09,0,0,0,4-.29,11.79,11.79,0,0,0,2.69-.77,6,6,0,0,0,1.37-.92,2,2,0,0,1,1.38-.5c.14,0,.26.18.36.53a4.48,4.48,0,0,1,.14,1.1,6.81,6.81,0,0,1-.11,1c-.07.42-.13.75-.17,1-.15.85-.28,1.46-.39,1.84a7.17,7.17,0,0,0-.25,1,8.65,8.65,0,0,0-.07,1.34v.85a4.72,4.72,0,0,1-.28,1.45c-.19.54-.48.81-.85.81s-.59-.26-.78-.78a16,16,0,0,1-.57-2.12,3.51,3.51,0,0,0-1.69-2.37,9.61,9.61,0,0,0-4.81-.88h-7.14a5.09,5.09,0,0,0-2.34.42c-.52.29-.85,1-1,2.12a51.7,51.7,0,0,0-.21,5.59v27.79a4.63,4.63,0,0,0,1.49,3.78,8.81,8.81,0,0,0,4.1,1.74,6.65,6.65,0,0,1,1.76.49.87.87,0,0,1,.57.78q0,.42-.57.6a5,5,0,0,1-1.48.18c-1.27,0-2.32,0-3.15-.11l-2.37-.18c-.75,0-1.67-.07-2.75-.07s-2.21,0-3.08.07l-2.69.18C395.28,246.25,394.19,246.29,392.92,246.29Z"/><path d="M451.39,194.88a22.39,22.39,0,0,1,11.78,3,20.47,20.47,0,0,1,7.85,8.73,31.23,31.23,0,0,1,2.79,13.83A31.71,31.71,0,0,1,471,234.34a22.44,22.44,0,0,1-8,9.26,20.81,20.81,0,0,1-11.67,3.32,22.35,22.35,0,0,1-11.77-3,20.28,20.28,0,0,1-7.85-8.77,35,35,0,0,1,.11-27.64,22.74,22.74,0,0,1,7.95-9.27A20.74,20.74,0,0,1,451.39,194.88Zm-.28,1.27a11.31,11.31,0,0,0-8,3.18,21,21,0,0,0-5.27,8.77A40.71,40.71,0,0,0,436,221a37.07,37.07,0,0,0,2.08,13.05,20.12,20.12,0,0,0,5.66,8.55,11.94,11.94,0,0,0,7.89,3,11.32,11.32,0,0,0,8-3.18,20.85,20.85,0,0,0,5.26-8.81,40.66,40.66,0,0,0,1.88-12.9,37,37,0,0,0-2.09-13.08,20.26,20.26,0,0,0-5.62-8.52A11.9,11.9,0,0,0,451.11,196.15Z"/><path d="M526.13,247a27.32,27.32,0,0,1-9.54-1.69,26,26,0,0,1-8.2-4.85,22.48,22.48,0,0,1-7.78-17.36,21,21,0,0,1,2.19-9.54,24,24,0,0,1,6-7.64,28.7,28.7,0,0,1,8.73-5.06,29.9,29.9,0,0,1,10.36-1.8,43.7,43.7,0,0,1,4.67.21c1.27.14,2.51.35,3.71.6s2.61.61,4.21,1a2.84,2.84,0,0,1,1.52.85,2.7,2.7,0,0,1,.53,1.55c.09,1.09.21,2.26.35,3.5s.24,2.8.29,4.64a.8.8,0,0,1-.46.81,1.52,1.52,0,0,1-1.14.18,1.14,1.14,0,0,1-.81-.92,27.36,27.36,0,0,0-1.62-4.64,8.19,8.19,0,0,0-2.76-3.21,13.16,13.16,0,0,0-4.28-1.81,23.23,23.23,0,0,0-5.41-.6,17.6,17.6,0,0,0-7.6,1.66,18.42,18.42,0,0,0-6,4.53,21.91,21.91,0,0,0-3.93,6.47,20.39,20.39,0,0,0-1.41,7.5,26.84,26.84,0,0,0,1.38,8.48,25.33,25.33,0,0,0,4,7.53,20.36,20.36,0,0,0,6.15,5.38,15.93,15.93,0,0,0,8,2,14.34,14.34,0,0,0,8.41-2.33,19.31,19.31,0,0,0,5.66-6.51,1.57,1.57,0,0,1,1.45-.92c.63,0,.95.38.95,1.13a9.07,9.07,0,0,1-.28,1.81c-.19.82-.44,1.69-.74,2.61s-.61,1.74-.89,2.44a4.87,4.87,0,0,1-.81,1.28,4.43,4.43,0,0,1-1.45.63,26,26,0,0,1-6.26,1.56A52.8,52.8,0,0,1,526.13,247Z"/><path d="M609.22,195.87v1.41a11.48,11.48,0,0,0-3.47.53,2.57,2.57,0,0,0-1.59,1.7,13.9,13.9,0,0,0-.39,3.85v35.08a13,13,0,0,0,.43,3.82,2.54,2.54,0,0,0,1.59,1.69,12.89,12.89,0,0,0,3.43.57v1.41c-1.23-.09-2.78-.15-4.67-.17s-3.79,0-5.72,0q-3.2,0-6,0c-1.86,0-3.36.08-4.49.17v-1.41A14.4,14.4,0,0,0,592,244a2.53,2.53,0,0,0,1.66-1.69,12.65,12.65,0,0,0,.43-3.82V200l.49.07-17.53,46.1h-1.14l-18.66-45.75v35.08a25.49,25.49,0,0,0,.42,5.27,3.89,3.89,0,0,0,1.87,2.68,11.71,11.71,0,0,0,4.42,1.1v1.41c-.89-.09-2.05-.15-3.46-.17s-2.76,0-4,0-2.28,0-3.43,0-2.11.08-2.86.17v-1.41a8.23,8.23,0,0,0,3.5-1.06,3.94,3.94,0,0,0,1.55-2.55,23.77,23.77,0,0,0,.39-4.88V203.36a13.9,13.9,0,0,0-.39-3.85,2.58,2.58,0,0,0-1.55-1.7,11.32,11.32,0,0,0-3.5-.53v-1.41c.75,0,1.7.09,2.86.14s2.3.07,3.43.07c1.74,0,3.44,0,5.09-.07l4.38-.14,15.21,38-1.56,1.27,14.78-39h4.46c1.93,0,3.84,0,5.72-.07S608,195.92,609.22,195.87Z"/><path d="M650.73,195.87c-.19,1.79-.32,3.52-.39,5.2s-.11,3-.11,3.85,0,1.74.07,2.55.1,1.46.14,2h-1.62a29.06,29.06,0,0,0-1.52-7.15,6.9,6.9,0,0,0-3-3.71,12,12,0,0,0-5.63-1.09h-4.87a11.81,11.81,0,0,0-3.43.38,2.43,2.43,0,0,0-1.59,1.56,11.23,11.23,0,0,0-.43,3.64v35.64a11.31,11.31,0,0,0,.43,3.61,2.43,2.43,0,0,0,1.59,1.59,11.41,11.41,0,0,0,3.43.39h4.59a13.56,13.56,0,0,0,6.4-1.28,8.14,8.14,0,0,0,3.61-4.17,30.55,30.55,0,0,0,1.87-7.92h1.63c-.14,1.37-.21,3.16-.21,5.38,0,.94,0,2.31.1,4.1s.2,3.63.39,5.51q-3.6-.13-8.13-.17t-8.06,0h-5.84c-2.42,0-5,0-7.77,0s-5.34.08-7.75.17v-1.41a13.89,13.89,0,0,0,3.61-.57,2.46,2.46,0,0,0,1.59-1.69,14,14,0,0,0,.39-3.82V203.36a13.9,13.9,0,0,0-.39-3.85,2.56,2.56,0,0,0-1.63-1.7,12,12,0,0,0-3.57-.53v-1.41l7.75.14c2.75.05,5.35.07,7.77.07H636l7.39,0C646.09,196,648.56,196,650.73,195.87ZM639,220.05v1.42h-12.8v-1.42Zm2-9.33q-.28,4-.25,6.15c0,1.41,0,2.71,0,3.89s0,2.47.07,3.89.16,3.46.35,6.15h-1.63a43.46,43.46,0,0,0-.91-4.49,7.11,7.11,0,0,0-2-3.5,6.46,6.46,0,0,0-4.49-1.34v-1.42a5.56,5.56,0,0,0,4.42-1.59,8.8,8.8,0,0,0,1.91-3.78c.35-1.46.65-2.78.88-4Z"/><path d="M659.21,246.29a5,5,0,0,1-1.48-.18q-.57-.18-.57-.6c0-.57.78-1,2.33-1.27a8,8,0,0,0,3.93-1.63,4.89,4.89,0,0,0,1.24-3.75V209a11.64,11.64,0,0,0-.82-4.88c-.54-1.13-1.71-1.86-3.5-2.19a4.94,4.94,0,0,1-1.76-.57,1,1,0,0,1-.57-.84q0-.43.57-.6a5,5,0,0,1,1.48-.18h2.86c.64,0,1.24,0,1.81,0s1.32,0,2.26,0,1.9,0,2.86-.11l2.73-.21c.84-.07,1.6-.11,2.26-.11q8.05,0,13,3.33a10.56,10.56,0,0,1,4.92,9.26,18.64,18.64,0,0,1-1.7,8,13.43,13.43,0,0,1-5.2,5.83,16.58,16.58,0,0,1-8.94,2.19,4.85,4.85,0,0,1-2.37-.46c-.54-.3-.81-.6-.81-.88a1,1,0,0,1,.39-.64,1.13,1.13,0,0,1,.74-.35c.23,0,.6,0,1.09.07s1.22.07,2.16.07a7,7,0,0,0,6.4-3.54q2.16-3.53,2.16-9.75c0-3.77-1.11-6.57-3.33-8.38a12.91,12.91,0,0,0-8.48-2.73,6.87,6.87,0,0,0-3.25.68,2.37,2.37,0,0,0-1.28,2.29v33.73a7.24,7.24,0,0,0,1.06,4.11,5.48,5.48,0,0,0,3.68,2.05,6.87,6.87,0,0,1,1.77.49.86.86,0,0,1,.56.78c0,.28-.18.48-.56.6a5,5,0,0,1-1.49.18,21.6,21.6,0,0,1-2.93-.15l-1.84-.24a17.42,17.42,0,0,0-2.16-.11c-1.18,0-2.22,0-3.14.11l-2.76.24A31,31,0,0,1,659.21,246.29Z"/><path d="M726.32,245.93H706.45v-2.05c1-.37,2.08-.71,3.14-1a31,31,0,0,1,3.43-.7V200.11H702.2l-3.74,10.11h-1.77q-.21-1.41-.36-3.21c-.09-1.21-.17-2.43-.24-3.68s-.13-2.48-.18-3.68-.07-2.27-.07-3.21h41.08c0,.94,0,2-.07,3.18s-.11,2.39-.18,3.64-.14,2.47-.21,3.68-.18,2.29-.32,3.28h-1.86l-3.72-10.11H719.81v42.08c1.23.23,2.37.47,3.43.7a18.13,18.13,0,0,1,3.08,1Z"/><path d="M759.77,198.35a.31.31,0,0,1,.35.35v1.83a.31.31,0,0,1-.35.35l-5.66.58a.31.31,0,0,0-.34.35v31.62l23.44-28.65a.41.41,0,0,0,.17-.35v-2.62c0-.23-.12-.35-.38-.35l-5.66-.58a.31.31,0,0,1-.34-.35V198.7a.31.31,0,0,1,.34-.35h18.54a.31.31,0,0,1,.35.35v1.83a.31.31,0,0,1-.35.35l-6,.58a.31.31,0,0,0-.34.35v40.67a.31.31,0,0,0,.34.35l6,.55c.23,0,.35.12.35.38v1.83a.31.31,0,0,1-.35.34H771.34a.3.3,0,0,1-.34-.34v-1.83c0-.26.11-.38.34-.38l5.66-.55c.26,0,.38-.12.38-.35V210l-23.47,28.62a.44.44,0,0,0-.14.34v3.56a.31.31,0,0,0,.34.35l5.66.55c.23,0,.35.12.35.38v1.83a.31.31,0,0,1-.35.34H741.23a.3.3,0,0,1-.34-.34v-1.83c0-.26.11-.38.34-.38l6-.55a.31.31,0,0,0,.35-.35V201.81a.31.31,0,0,0-.35-.35l-6-.58a.31.31,0,0,1-.34-.35V198.7a.31.31,0,0,1,.34-.35Z"/><line class="cls-1" x1="488.34" y1="110.83" x2="527.19" y2="110.83"/><line class="cls-1" x1="488.71" y1="161.63" x2="527.56" y2="161.63"/></svg>