<svg id="Слой_1" data-name="Слой 1" xmlns="http://www.w3.org/2000/svg" viewBox="0 0 500 500"><defs><style>.cls-1{fill:none;stroke:#000;stroke-linecap:round;stroke-linejoin:round;stroke-width:2px;}</style></defs><title>Монтажная область 19 копия 39</title><path class="cls-1" d="M463,210.3c0,124-100.54,224.56-224.57,224.56-111.62,0-202.11-90.48-202.11-202.11a181.9,181.9,0,0,1,181.9-181.9A163.71,163.71,0,0,1,381.93,214.56,147.33,147.33,0,0,1,234.59,361.9,132.6,132.6,0,0,1,102,229.3,119.35,119.35,0,0,1,221.33,110,107.41,107.41,0,0,1,328.74,217.36,96.67,96.67,0,0,1,232.07,314a87,87,0,0,1-87-87"/></svg>