<svg id="Слой_1" data-name="Слой 1" xmlns="http://www.w3.org/2000/svg" viewBox="0 0 500 500"><defs><style>.cls-1{fill:#b8ad99;}.cls-2{fill:none;stroke:#000;stroke-miterlimit:10;stroke-width:2px;}</style></defs><title>Монтажная область 19 копия 40</title><polygon class="cls-1" points="392.25 211.68 393.79 189.38 405.57 208.37 421.08 192.28 417.89 214.4 440.12 212.04 423.46 226.94 442 239.42 419.67 240.12 425.85 261.6 408.28 247.78 399.21 268.21 394.64 246.33 374.56 256.15 385.12 236.45 363.43 231.07 384.18 222.77 371.02 204.7 392.25 211.68"/><circle class="cls-1" cx="92.23" cy="396.59" r="34.94"/><polygon class="cls-1" points="104.86 229.5 121.63 209.33 129.57 234.33 149.74 251.1 124.73 259.04 107.97 279.21 100.03 254.21 79.86 237.44 104.86 229.5"/><polygon class="cls-1" points="242.9 163.86 254 143.27 263.59 164.6 286.61 168.8 269.28 184.51 272.4 207.7 252.1 196.07 231.01 206.21 235.79 183.31 219.64 166.39 242.9 163.86"/><path class="cls-2" d="M72.39,358.08c-2.48-6.85-7.16-23.54,0-45.94A104.11,104.11,0,0,1,91,278.61"/><path class="cls-2" d="M141.73,228.07c3.08-6.6,11.57-21.71,32.47-32.49A103.8,103.8,0,0,1,211.08,185"/><path class="cls-2" d="M295,170.53c7-1.93,24-5.27,45.79,3.64a103.77,103.77,0,0,1,31.95,21.24"/></svg>