<svg id="Слой_1" data-name="Слой 1" xmlns="http://www.w3.org/2000/svg" viewBox="0 0 322.62 282.61"><defs><style>.cls-1{fill:#608b70;}.cls-2{fill:#b8ad99;}.cls-3{fill:none;stroke:#000;stroke-linecap:round;stroke-linejoin:round;stroke-width:5px;}</style></defs><title>43</title><circle class="cls-1" cx="222.51" cy="99.12" r="46.06"/><polygon class="cls-2" points="100.44 72.71 119.64 48.03 118.48 79.28 149.06 72.71 128.08 95.9 155.72 110.52 124.75 114.81 136.52 143.78 110.04 127.15 100.44 156.91 90.84 127.15 64.36 143.78 76.14 114.81 45.16 110.52 72.8 95.9 51.83 72.71 82.4 79.28 81.24 48.03 100.44 72.71"/><path class="cls-3" d="M219.75,164.6c-2.36,30.73-28.84,53.86-58.19,52.39-27.37-1.37-50.43-23.8-52.55-52.39"/><path d="M219.55,164.59a.19.19,0,1,1,.17.21A.2.2,0,0,1,219.55,164.59Z"/><path d="M109.2,164.59a.19.19,0,0,0-.21-.17.19.19,0,0,0,.05.38A.19.19,0,0,0,109.2,164.59Z"/></svg>