<svg id="Слой_1" data-name="Слой 1" xmlns="http://www.w3.org/2000/svg" viewBox="0 0 500 500"><defs><style>.cls-1{fill:#608b70;}.cls-2{fill:#b8ad99;}</style></defs><title>Монтажная область 19 копия 41</title><circle class="cls-1" cx="166.51" cy="179" r="35.95"/><circle class="cls-1" cx="249.75" cy="179" r="35.95"/><circle class="cls-1" cx="333" cy="179" r="35.95"/><circle class="cls-1" cx="166.51" cy="345.49" r="35.95"/><circle class="cls-1" cx="249.75" cy="345.49" r="35.95"/><circle class="cls-1" cx="333" cy="345.49" r="35.95"/><circle class="cls-1" cx="166.51" cy="262.25" r="35.95"/><circle class="cls-1" cx="333" cy="262.25" r="35.95"/><polygon class="cls-2" points="250.92 239.12 265.59 220.25 264.71 244.14 288.08 239.12 272.05 256.85 293.18 268.03 269.5 271.31 278.5 293.45 258.25 280.74 250.92 303.49 243.58 280.74 223.33 293.45 232.33 271.31 208.65 268.03 229.78 256.85 213.75 239.12 237.12 244.14 236.24 220.25 250.92 239.12"/></svg>