<svg id="Слой_1" data-name="Слой 1" xmlns="http://www.w3.org/2000/svg" viewBox="0 0 338.61 228.62"><defs><style>.cls-1{fill:#608b70;}.cls-2{fill:#c1362d;}.cls-3{fill:#b8ad99;}</style></defs><title>44</title><polygon class="cls-1" points="159.02 106.5 171.27 90.75 170.53 110.69 190.03 106.5 176.65 121.29 194.28 130.62 174.53 133.35 182.04 151.83 165.14 141.23 159.02 160.21 152.9 141.23 136 151.83 143.51 133.35 123.75 130.62 141.39 121.29 128.01 106.5 147.51 110.69 146.77 90.75 159.02 106.5"/><polygon class="cls-2" points="61.39 106.5 73.64 90.75 72.9 110.69 92.41 106.5 79.03 121.29 96.66 130.62 76.9 133.35 84.41 151.83 67.52 141.23 61.39 160.21 55.27 141.23 38.38 151.83 45.89 133.35 26.13 130.62 43.76 121.29 30.38 106.5 49.88 110.69 49.15 90.75 61.39 106.5"/><polygon class="cls-3" points="269.31 81.64 288.51 56.96 287.35 88.21 317.92 81.64 296.95 104.83 324.59 119.45 293.62 123.74 305.39 152.71 278.91 136.08 269.31 165.84 259.71 136.08 233.23 152.71 245.01 123.74 214.03 119.45 241.67 104.83 220.7 81.64 251.27 88.21 250.11 56.96 269.31 81.64"/></svg>