<svg id="Слой_1" data-name="Слой 1" xmlns="http://www.w3.org/2000/svg" viewBox="0 0 500 500"><defs><style>.cls-1{fill:#b8ad99;}</style></defs><title>Монтажная область 19 копия 42</title><polygon class="cls-1" points="179.17 240.23 202.04 210.84 200.66 248.05 237.07 240.23 212.09 267.86 245.01 285.27 208.12 290.37 222.15 324.87 190.61 305.07 179.17 340.51 167.74 305.07 136.2 324.87 150.22 290.37 113.33 285.27 146.25 267.86 121.28 240.23 157.69 248.05 156.31 210.84 179.17 240.23"/><polygon class="cls-1" points="324.47 240.23 347.34 210.84 345.96 248.05 382.37 240.23 357.39 267.86 390.31 285.27 353.42 290.37 367.44 324.87 335.9 305.07 324.47 340.51 313.04 305.07 281.5 324.87 295.52 290.37 258.63 285.27 291.55 267.86 266.57 240.23 302.99 248.05 301.61 210.84 324.47 240.23"/></svg>