<svg id="Слой_1" data-name="Слой 1" xmlns="http://www.w3.org/2000/svg" viewBox="0 0 340.62 249.61"><defs><style>.cls-1{fill:#b8ad99;}.cls-2{fill:none;stroke:#000;stroke-linecap:round;stroke-linejoin:round;stroke-width:5px;}</style></defs><title>46</title><polygon class="cls-1" points="171.84 121.4 189.2 99.09 188.15 127.33 215.79 121.4 196.83 142.36 221.82 155.58 193.82 159.46 204.46 185.64 180.52 170.61 171.84 197.51 163.17 170.61 139.23 185.64 149.87 159.46 121.87 155.58 146.86 142.36 127.9 121.4 155.53 127.33 154.49 99.09 171.84 121.4"/><path class="cls-2" d="M82.58,132.08C104.5,99.57,142,81.45,180.21,85.14c52.16,5,78.2,48.21,80.73,52.57"/><path class="cls-2" d="M259.06,163.52c-21.92,32.51-59.46,50.63-97.63,46.94-52.17-5.05-78.2-48.21-80.73-52.57"/></svg>