<svg id="Слой_1" data-name="Слой 1" xmlns="http://www.w3.org/2000/svg" viewBox="0 0 500 500"><defs><style>.cls-1{fill:#608b70;}.cls-2{fill:none;stroke:#000;stroke-linecap:round;stroke-linejoin:round;stroke-width:2px;}</style></defs><title>Монтажная область 19 копия 43</title><circle class="cls-1" cx="121.12" cy="249.33" r="15.68"/><path class="cls-2" d="M118.27,313.54A48.21,48.21,0,0,1,140.08,264c20.17-12.42,40-1.08,51.53,11.89,12.24,13.71,1.6,27.95,13.88,45.59,11.65,16.74,26,15.94,39.64,7.93,20.38-12-5.2-52,20.16-76.12,15.74-15,37.77-10.53,51.86,2.78,11,10.39,13.94,25.87,26.65,31.67,13,5.94,32.15,4.93,42.2-6.52,12.08-13.75,11-39.31,2.64-58.14"/></svg>