<svg id="Слой_1" data-name="Слой 1" xmlns="http://www.w3.org/2000/svg" viewBox="0 0 500 500"><defs><style>.cls-1,.cls-2{fill:#fff;}.cls-1,.cls-3{stroke:#000;stroke-width:2px;}.cls-1{stroke-miterlimit:10;}.cls-3{fill:none;stroke-linecap:round;stroke-linejoin:round;}.cls-4{fill:#608b70;}</style></defs><title>Монтажная область 19 копия 46</title><ellipse class="cls-1" cx="310.03" cy="235.41" rx="35.5" ry="89.18"/><path class="cls-2" d="M168.4,350.56c.92-8.65,6.83-56.53,49.37-89.41,34.46-26.63,71.68-27,82.73-26.68"/><path class="cls-3" d="M168.41,350.49c.94-8.83,6.93-56.54,49.36-89.34,34.46-26.63,71.68-27,82.73-26.68"/><path d="M168.48,350.49a.08.08,0,0,1-.08.07.09.09,0,0,1-.07-.09.08.08,0,0,1,.09-.06A.06.06,0,0,1,168.48,350.49Z"/><circle class="cls-4" cx="170.98" cy="356.25" r="19.28"/></svg>