<svg id="Слой_1" data-name="Слой 1" xmlns="http://www.w3.org/2000/svg" viewBox="0 0 943.17 360.19"><title>5</title><path d="M485,313.26a.07.07,0,1,1,.14,0,.07.07,0,0,1-.08.07.07.07,0,0,1-.06-.09"/><path d="M444.4,313.27a.07.07,0,0,0-.08-.07.08.08,0,0,0-.07.08.1.1,0,0,0,.09.07s.07,0,.06-.08"/><path d="M67.3,193.68c-2.26,10.26-9.54,17.4-21.7,17.4-14.71,0-22.77-11.1-22.77-26.59S31.1,158,45.81,158c11.6,0,19,7,21.28,17.39h-5C60,166.81,53.45,162.5,45.67,162.5c-10.11,0-17.82,7.85-17.82,22,0,13.65,7.28,22.06,17.82,22.06,9.9,0,15.13-6.22,16.68-12.87Z"/><path d="M96,211.15a24.8,24.8,0,0,1-9-1.66,23.64,23.64,0,0,1-7.6-4.74,22.5,22.5,0,0,1-7.22-16.86,27,27,0,0,1,1.59-9.23,24,24,0,0,1,4.67-7.89,22.22,22.22,0,0,1,7.67-5.51,25.61,25.61,0,0,1,10.54-2,24.86,24.86,0,0,1,9.09,1.66,23.86,23.86,0,0,1,7.6,4.74,22.44,22.44,0,0,1,7.21,16.86,27.13,27.13,0,0,1-1.59,9.19,23.94,23.94,0,0,1-4.67,7.92,22.25,22.25,0,0,1-7.67,5.52A25.78,25.78,0,0,1,96,211.15Zm1.13-3a13.22,13.22,0,0,0,13.19-8.7A25,25,0,0,0,112,190a38.25,38.25,0,0,0-1-9,26.35,26.35,0,0,0-3.08-7.61,15.29,15.29,0,0,0-5.16-5.23,13.89,13.89,0,0,0-20.33,6.69,24.47,24.47,0,0,0-1.66,9.4,39.72,39.72,0,0,0,1,9.05,25.58,25.58,0,0,0,3,7.6,16.12,16.12,0,0,0,5.13,5.31A13.3,13.3,0,0,0,97.14,208.18Z"/><path d="M127.41,210.51a3.44,3.44,0,0,1-1.34-.21.67.67,0,0,1-.5-.64c0-.61.68-1.06,2.05-1.34a9.55,9.55,0,0,0,3.89-1.59,4.15,4.15,0,0,0,1.27-3.43v-32a4.85,4.85,0,0,0-1-3.43,7.41,7.41,0,0,0-3.75-1.59c-1.36-.29-2-.76-2-1.42a.73.73,0,0,1,.53-.7,3.58,3.58,0,0,1,1.31-.22c1.23,0,2.31,0,3.26.08l2.75.14c.9,0,1.89.07,3,.07h18.32a11.54,11.54,0,0,0,1.45-.18,11.33,11.33,0,0,1,1.45-.18.92.92,0,0,1,.81.36,1.18,1.18,0,0,1,.25.63c0,1.61.14,3,.28,4.32a33.61,33.61,0,0,1,.21,3.67,1.64,1.64,0,0,1-.32,1.1.87.87,0,0,1-.67.39c-.23,0-.53-.2-.88-.6a3.66,3.66,0,0,1-.74-1.17c-.24-.89-.52-1.79-.85-2.69a5.3,5.3,0,0,0-1.59-2.26,5.18,5.18,0,0,0-3.36-.92h-8.28a2.35,2.35,0,0,0-1.87.89,3.7,3.7,0,0,0-.74,2.44v11.31a7.88,7.88,0,0,0,.28,2.44,1,1,0,0,0,1,.81h.25a.56.56,0,0,0,.25-.07c.8-.23,1.76-.46,2.9-.67a23.26,23.26,0,0,1,4.17-.32c4.33,0,7.78,1.12,10.32,3.36s3.82,5.41,3.82,9.51a13.05,13.05,0,0,1-1.24,6.19,10.09,10.09,0,0,1-2.9,3.5c-1.11.8-2.08,1.46-2.93,2a16.37,16.37,0,0,1-5,1.84,32.6,32.6,0,0,1-6.33.56c-.42,0-1.06,0-1.91-.1l-3.11-.25c-1.22-.09-2.64-.14-4.24-.14a23.37,23.37,0,0,0-2.61.14l-2.52.28A27.48,27.48,0,0,1,127.41,210.51Zm17.75-3.39a8.92,8.92,0,0,0,4.73-1.38,11.12,11.12,0,0,0,3.72-3.75,10.09,10.09,0,0,0,1.45-5.34,10.32,10.32,0,0,0-.82-4.42,9.89,9.89,0,0,0-1.91-2.82,9.5,9.5,0,0,0-2-1.6,9.79,9.79,0,0,0-2.48-1.13,13.27,13.27,0,0,0-4.1-.56,5.2,5.2,0,0,0-2.44.53,2,2,0,0,0-1,1.94v13.72a4.73,4.73,0,0,0,1.27,3.57A4.94,4.94,0,0,0,145.16,207.12Z"/><path d="M170.61,210.51a5.37,5.37,0,0,1-1.48-.17q-.57-.18-.57-.6c0-.57.78-1,2.34-1.28a8.21,8.21,0,0,0,4-1.62,4.74,4.74,0,0,0,1.27-3.68V171.34a5.09,5.09,0,0,0-1-3.61,7,7,0,0,0-3.71-1.55,5.08,5.08,0,0,1-1.77-.57,1,1,0,0,1-.56-.85c0-.28.19-.48.56-.6a5.13,5.13,0,0,1,1.49-.17c1.79,0,3.31,0,4.56.07s2.47.08,3.68.1,2.62,0,4.27,0,3.2,0,4.92,0l4.77,0c1.6,0,3-.09,4.07-.11l1.94,0a2.3,2.3,0,0,1,.78.14.64.64,0,0,1,.49.49c.24,1.32.48,2.63.71,3.93a18.71,18.71,0,0,1,.36,3.35,1,1,0,0,1-.32.85,1.25,1.25,0,0,1-.68.22.59.59,0,0,1-.49-.18,2.11,2.11,0,0,1-.28-.53c-.24-.8-.47-1.57-.71-2.3a4,4,0,0,0-.85-1.59,5,5,0,0,0-2.19-1.52,8.2,8.2,0,0,0-2.55-.39h-9.26a3.13,3.13,0,0,0-1.55.64,1.85,1.85,0,0,0-1,1.62v15a1.64,1.64,0,0,0,.38,1.1,1.14,1.14,0,0,0,.89.46h7a4.16,4.16,0,0,0,2.83-.74,5.73,5.73,0,0,0,1.27-2.73c.28-1,.71-1.55,1.27-1.55a.91.91,0,0,1,.6.28,1.05,1.05,0,0,1,.32.85c0,.19,0,.61,0,1.27s-.06,1.35-.11,2-.07,1.25-.07,1.63,0,1.1,0,1.87.05,1.52.08,2.23,0,1.16,0,1.34a2.66,2.66,0,0,1-.11.85.48.48,0,0,1-.53.36c-.7,0-1.24-.76-1.62-2.27a5.71,5.71,0,0,0-1.13-2.4,2.73,2.73,0,0,0-2.12-.78h-6.58a4,4,0,0,0-1.8.32c-.4.21-.6.72-.6,1.52V203c0,1.79.37,3,1.13,3.71a5.15,5.15,0,0,0,3.53,1h5.23a25,25,0,0,0,3.79-.24,7.2,7.2,0,0,0,2.65-1,8,8,0,0,0,2-2,34.42,34.42,0,0,0,2-3.39,2.57,2.57,0,0,1,.5-.71.64.64,0,0,1,.63-.21,1,1,0,0,1,.57.32,1,1,0,0,1,.21.67,12.64,12.64,0,0,1-.35,2.23c-.24,1.06-.53,2.15-.89,3.28s-.67,2-.95,2.69c-.14.33-.27.61-.39.85a.63.63,0,0,1-.6.35c-2.27,0-4.36,0-6.3-.07l-5.51-.14-5.13-.14c-1.67,0-3.4-.07-5.19-.07-1,0-1.94,0-2.69.1l-2.34.22C172.92,210.48,171.89,210.51,170.61,210.51Z"/><path d="M208.8,160.1l3.89.14c1.6,0,3.18.07,4.73.07q3.33,0,6.37-.07c2-.05,3.46-.07,4.31-.07q8.55,0,12.8,3.89a13,13,0,0,1,4.24,10,18.31,18.31,0,0,1-.85,5.34,13.8,13.8,0,0,1-2.93,5.16,15.07,15.07,0,0,1-5.69,3.85,24.18,24.18,0,0,1-9.13,1.49h-6.78v-1.42h6.08c3.34,0,5.9-.63,7.67-1.91a9.43,9.43,0,0,0,3.61-5,23,23,0,0,0,.95-6.71q0-6.72-2.65-10t-9.09-3.32c-2.17,0-3.58.4-4.24,1.2s-1,2.43-1,4.88v35.07a10.53,10.53,0,0,0,.53,3.82,2.92,2.92,0,0,0,2.09,1.7,22.78,22.78,0,0,0,4.52.57v1.41c-1.22-.09-2.78-.15-4.66-.18s-3.8,0-5.73,0-3.56,0-5.16,0-2.9.09-3.89.18v-1.41a15,15,0,0,0,3.64-.57,2.55,2.55,0,0,0,1.66-1.7,13,13,0,0,0,.42-3.82V167.59a12.91,12.91,0,0,0-.42-3.85,2.65,2.65,0,0,0-1.66-1.7,12.05,12.05,0,0,0-3.64-.53Z"/><path d="M258.36,162.5v20.08c0,7.57-.14,13.79-.56,20.16l.14.07c2.4-4.95,5.37-10.12,8.84-15.77l15.41-24.54h6.15v47.66h-5.79V189.87c0-7.71.07-13.37.56-19.38l-.21-.07a145,145,0,0,1-8.84,16.05l-14.92,23.69h-6.57V162.5Z"/><path d="M318.25,204.5q-6.36-6.72-6.36-19.09a32.07,32.07,0,0,1,2.79-14,20,20,0,0,1,7.85-8.84,22.41,22.41,0,0,1,11.71-3,16.43,16.43,0,0,1,8.13,2.33,16.13,16.13,0,0,1,3.11,2.27,12.93,12.93,0,0,1,2.47-2.9c.85-.61,1.32-.94,1.42-1h1.77v13.43h-2.83a21.19,21.19,0,0,0-2.76-6.15,15.57,15.57,0,0,0-4.21-4.45,9.73,9.73,0,0,0-5.76-1.77q-4.87,0-8.1,5.66t-3.21,18.38q0,12.94,3.5,18.49t9.58,5.55a11.8,11.8,0,0,0,6.33-1.87,14.75,14.75,0,0,0,4.88-5,12.59,12.59,0,0,0,1.87-6.57h1.77a14.12,14.12,0,0,1-2.16,7.53,15.9,15.9,0,0,1-5.87,5.58,16.52,16.52,0,0,1-8.24,2.09Q324.62,211.22,318.25,204.5Z"/><path d="M361.39,158.9h17.46c9.27,0,17.33,2.54,17.33,12.93,0,5.45-2.76,9.55-6.65,11.32,6.15,1.77,8.77,6.08,8.77,12.23,0,10.61-7.85,14.78-17.82,14.78H361.39Zm4.74,22.55h13.64c7,0,11.46-2.26,11.46-9.33,0-6.22-4.39-8.91-11.25-8.91H366.13Zm0,24.4h14.63c8.42,0,12.52-3.68,12.52-10.4,0-7-4.1-9.9-12.94-9.9H366.13Z"/><path d="M405.25,185.51q0-12.6,6.77-19.73t17.47-7.13A24.27,24.27,0,0,1,442.13,162a22,22,0,0,1,8.58,9.34,30.35,30.35,0,0,1,3,13.59,29.87,29.87,0,0,1-3.11,13.78,21.17,21.17,0,0,1-8.8,9.2A25.2,25.2,0,0,1,429.46,211a24,24,0,0,1-12.78-3.45,22.23,22.23,0,0,1-8.53-9.43A28.59,28.59,0,0,1,405.25,185.51Zm6.91.1q0,9.15,4.92,14.42a17.17,17.17,0,0,0,24.79-.06q4.89-5.31,4.88-15.08a26,26,0,0,0-2.08-10.79,16,16,0,0,0-6.12-7.15,16.57,16.57,0,0,0-9-2.54,17.09,17.09,0,0,0-12.24,4.89Q412.16,174.18,412.16,185.61Z"/><path d="M461.5,210.51a5.37,5.37,0,0,1-1.48-.17q-.57-.18-.57-.6c0-.57.78-1,2.34-1.28a8.21,8.21,0,0,0,4-1.62,4.74,4.74,0,0,0,1.27-3.68V171.34a5.09,5.09,0,0,0-1-3.61,7,7,0,0,0-3.71-1.55,5.08,5.08,0,0,1-1.77-.57,1,1,0,0,1-.56-.85c0-.28.18-.48.56-.6A5.08,5.08,0,0,1,462,164c1.79,0,3.31,0,4.56.07s2.47.08,3.68.1,2.62,0,4.27,0,3.2,0,4.92,0l4.77,0c1.6,0,3-.09,4.07-.11l1.94,0a2.3,2.3,0,0,1,.78.14.64.64,0,0,1,.49.49c.24,1.32.48,2.63.71,3.93a18.6,18.6,0,0,1,.35,3.35,1,1,0,0,1-.31.85,1.25,1.25,0,0,1-.68.22.59.59,0,0,1-.49-.18,1.83,1.83,0,0,1-.28-.53c-.24-.8-.47-1.57-.71-2.3a4,4,0,0,0-.85-1.59,5,5,0,0,0-2.19-1.52,8.2,8.2,0,0,0-2.55-.39h-9.26a3.23,3.23,0,0,0-1.56.64,1.87,1.87,0,0,0-1,1.62v15a1.65,1.65,0,0,0,.39,1.1,1.14,1.14,0,0,0,.89.46h7a4.14,4.14,0,0,0,2.83-.74,5.82,5.82,0,0,0,1.27-2.73c.28-1,.71-1.55,1.27-1.55a.91.91,0,0,1,.6.28,1.05,1.05,0,0,1,.32.85c0,.19,0,.61,0,1.27s-.06,1.35-.11,2S487,186,487,186.33s0,1.1,0,1.87.05,1.52.08,2.23,0,1.16,0,1.34a2.66,2.66,0,0,1-.11.85.48.48,0,0,1-.53.36c-.7,0-1.24-.76-1.62-2.27a5.83,5.83,0,0,0-1.13-2.4,2.73,2.73,0,0,0-2.12-.78h-6.58a4,4,0,0,0-1.8.32c-.41.21-.61.72-.61,1.52V203c0,1.79.38,3,1.14,3.71a5.15,5.15,0,0,0,3.53,1h5.24a25,25,0,0,0,3.78-.24,7.27,7.27,0,0,0,2.65-1,8,8,0,0,0,2-2,34.42,34.42,0,0,0,2-3.39,2.57,2.57,0,0,1,.5-.71.64.64,0,0,1,.63-.21,1,1,0,0,1,.57.32,1,1,0,0,1,.21.67,12.64,12.64,0,0,1-.35,2.23c-.24,1.06-.53,2.15-.89,3.28s-.67,2-.95,2.69c-.14.33-.27.61-.39.85a.63.63,0,0,1-.6.35c-2.27,0-4.36,0-6.3-.07L480,210.3l-5.13-.14c-1.67,0-3.4-.07-5.2-.07-1,0-1.93,0-2.68.1l-2.34.22C463.81,210.48,462.78,210.51,461.5,210.51Z"/><path d="M521.18,210.51a3.81,3.81,0,0,1-1.48-.24c-.38-.17-.57-.39-.57-.68,0-.47.76-.84,2.26-1.13,1.8-.33,3-.87,3.5-1.62a6.38,6.38,0,0,0,.82-3.68v-32a8.29,8.29,0,0,0-.53-3.5c-.36-.69-1.43-1.19-3.22-1.52-1.56-.29-2.33-.71-2.33-1.28a.75.75,0,0,1,.49-.67,3.78,3.78,0,0,1,1.56-.24c1.27,0,2.26,0,3,.07s1.36.08,2,.1,1.39,0,2.33,0,1.8,0,2.44,0,1.32-.06,2.05-.1,1.73-.07,3-.07,2,.3,2,.91a.87.87,0,0,1-.57.78,6.8,6.8,0,0,1-1.77.5,6.41,6.41,0,0,0-3.71,1.73,4.79,4.79,0,0,0-1.09,3.29v13.93a.48.48,0,0,0,.35.53,2.21,2.21,0,0,0,.63.1h26.24c.33,0,.49-.28.49-.84V171.13a5,5,0,0,0-1-3.18,5.83,5.83,0,0,0-3.67-1.77,6.68,6.68,0,0,1-1.77-.5.87.87,0,0,1-.57-.78c0-.61.69-.91,2-.91s2.33,0,3.15.07,1.61.08,2.37.1,1.65,0,2.69,0c.84,0,1.5,0,2,0l1.62-.1c.61-.05,1.56-.07,2.83-.07a3.79,3.79,0,0,1,1.52.24c.35.17.53.39.53.67,0,.57-.78,1-2.33,1.28-1.75.33-2.81.89-3.18,1.69a7.75,7.75,0,0,0-.57,3.26v32a7.74,7.74,0,0,0,.67,3.75c.45.75,1.55,1.29,3.29,1.62,1.51.29,2.26.66,2.26,1.13,0,.29-.19.51-.56.68a3.9,3.9,0,0,1-1.49.24c-1.27,0-2.26,0-3-.1l-2-.18c-.61,0-1.41-.07-2.4-.07s-1.8,0-2.44.07l-2.09.18c-.75.07-1.76.1-3,.1a3.81,3.81,0,0,1-1.48-.24c-.38-.17-.57-.39-.57-.68a.73.73,0,0,1,.53-.7,9.61,9.61,0,0,1,1.74-.43,6.91,6.91,0,0,0,3.57-1.66,4.58,4.58,0,0,0,1.3-3.5V188.8a.31.31,0,0,0-.35-.35h-27c-.24,0-.35.26-.35.78v13.43a5.12,5.12,0,0,0,1.62,3.79,7.47,7.47,0,0,0,4,2,9.45,9.45,0,0,1,1.73.43.71.71,0,0,1,.53.7c0,.29-.18.51-.56.68a3.87,3.87,0,0,1-1.49.24c-1.27,0-2.32,0-3.14-.1l-2.37-.18c-.76,0-1.68-.07-2.76-.07s-1.83,0-2.51.07l-2.19.18C523.48,210.48,522.46,210.51,521.18,210.51Z"/><path d="M598.75,159.88l17.19,44.34a8.51,8.51,0,0,0,2.29,3.5,4.4,4.4,0,0,0,2.3,1v1.41c-1.22-.09-2.7-.15-4.42-.18s-3.47,0-5.27,0q-3.11,0-5.79,0c-1.8,0-3.26.09-4.39.18v-1.41c2.41-.1,3.94-.51,4.6-1.24s.52-2.3-.43-4.7l-12.44-33.59,1.27-1.56L582.35,197a19.83,19.83,0,0,0-1.77,7.17,3.88,3.88,0,0,0,1.7,3.5,9.19,9.19,0,0,0,4.59,1.07v1.41q-2.26-.14-4.38-.18c-1.41,0-2.83,0-4.24,0q-1.56,0-2.94,0c-.92,0-1.73.09-2.44.18v-1.41a6.64,6.64,0,0,0,3.08-1.84,14.8,14.8,0,0,0,2.93-5.16l16.2-41.87c.56.05,1.17.07,1.83.07S598.19,159.93,598.75,159.88Zm6.16,29.91v1.42H583.83l.71-1.42Z"/><path d="M661.9,160.1v1.41a12,12,0,0,0-3.64.53,2.67,2.67,0,0,0-1.67,1.7,12.91,12.91,0,0,0-.42,3.85v35.07q0,3.9,1,5c.68.73,2.2,1.1,4.56,1.1h2.12q-.28,2.53-.39,4.95c-.07,1.6-.11,2.82-.11,3.67a37.86,37.86,0,0,0,.21,4.46H662a27.9,27.9,0,0,0-1.52-6.9,6.78,6.78,0,0,0-3.11-3.67,12.24,12.24,0,0,0-5.7-1.1H632.55a12.22,12.22,0,0,0-5.69,1.1,6.61,6.61,0,0,0-3.08,3.67,31.3,31.3,0,0,0-1.55,6.9H620.6a37.86,37.86,0,0,0,.21-4.46c0-.85,0-2.07-.1-3.67s-.2-3.26-.39-4.95h22c2.4,0,4-.37,4.67-1.1s1.06-2.39,1.06-5V167.59q0-3.89-1.1-5c-.73-.73-2.18-1.1-4.35-1.1h-.92a8.57,8.57,0,0,0-3.25.46,2.61,2.61,0,0,0-1.45,1.77,20.1,20.1,0,0,0-.6,3.85q-.42,4.82-.81,10.54t-1.13,11.35a62.31,62.31,0,0,1-2.2,10.28,19.62,19.62,0,0,1-4,7.5,8.51,8.51,0,0,1-6.65,2.83v-1.34a7.05,7.05,0,0,0,5.45-2.44,18,18,0,0,0,3.53-6.62,60.45,60.45,0,0,0,2.16-9.51c.54-3.55.95-7.27,1.24-11.13s.54-7.69.77-11.46c.15-2.5-.14-4.11-.84-4.84s-2.34-1.14-4.88-1.24V160.1l3.53.14c1.37,0,2.62.07,3.75.07s2.13,0,3.15-.11,2-.1,3.07-.1c1.79,0,3.42,0,4.88.1s3.21.11,5.23.11c1,0,2.07,0,3.22,0l3.32-.07C660.24,160.18,661.14,160.14,661.9,160.1Z"/><path d="M668.54,210.51a5.42,5.42,0,0,1-1.48-.17q-.57-.18-.57-.6c0-.57.78-1,2.34-1.28a9.24,9.24,0,0,0,4.1-1.62,4.37,4.37,0,0,0,1.41-3.61v-32a5,5,0,0,0-1-3.54,7,7,0,0,0-3.71-1.55,4.93,4.93,0,0,1-1.77-.57,1,1,0,0,1-.57-.85q0-.42.57-.6a5,5,0,0,1,1.48-.17c1.27,0,2.32,0,3.15.07s1.63.08,2.4.1,1.71,0,2.8,0h20.5a9.25,9.25,0,0,0,1-.11l.81-.1a2.55,2.55,0,0,1,.81.14c.31.09.46.26.46.49.05,1.46.11,3,.18,4.63s.11,3.06.11,4.28a1.23,1.23,0,0,1-.22.64.64.64,0,0,1-.56.35.7.7,0,0,1-.6-.39,3.8,3.8,0,0,1-.39-.74c-.33-1.08-.65-2.1-1-3a5,5,0,0,0-1.52-2.33,4.81,4.81,0,0,0-2-1.17,10,10,0,0,0-3-.39H683a2.5,2.5,0,0,0-2.3,1.06,6.37,6.37,0,0,0-.67,3.32v32.39a4.28,4.28,0,0,0,1.48,3.61,9.76,9.76,0,0,0,4.11,1.62,6.59,6.59,0,0,1,1.76.5.87.87,0,0,1,.57.78q0,.42-.57.6a5.37,5.37,0,0,1-1.48.17c-1.27,0-2.32,0-3.15-.1l-2.37-.18c-.75,0-1.67-.07-2.75-.07s-2.21,0-3.08.07l-2.69.18C670.91,210.48,669.82,210.51,668.54,210.51Z"/><path d="M716.34,206.41a24.35,24.35,0,0,1,3.61.67c1.13.31,2.19.65,3.18,1v2H703.76v-2a13.14,13.14,0,0,1,2.9-1.06c1-.24,2-.45,2.9-.64V164.48a22.93,22.93,0,0,1-3-.74c-.95-.31-1.87-.65-2.76-1v-2.05h6.36q2.83,0,6.15-.28t6.37-.28a30.78,30.78,0,0,1,6.79.74,16.72,16.72,0,0,1,5.9,2.51,13.28,13.28,0,0,1,4.17,4.7,15.25,15.25,0,0,1,1.59,7.32,14.71,14.71,0,0,1-1.62,7.14,14.29,14.29,0,0,1-4.35,4.88,18.86,18.86,0,0,1-6.19,2.79,28.74,28.74,0,0,1-7.14.89h-1.1c-.49,0-1,0-1.59,0s-1.11-.06-1.62-.1-.9-.1-1.14-.15Zm4.81-42.64c-1.13,0-2,0-2.76.07a15.1,15.1,0,0,0-2,.29V187a3.47,3.47,0,0,0,1,.17c.45,0,.92.06,1.41.11a14.49,14.49,0,0,0,1.45.07h1.13a15.79,15.79,0,0,0,4.67-.67,10.28,10.28,0,0,0,3.86-2.16,10.77,10.77,0,0,0,2.65-3.75,13.49,13.49,0,0,0,1-5.44c0-3.87-1.1-6.76-3.29-8.7S725,163.77,721.15,163.77Z"/><path d="M770.85,161.51q10.71,0,17.3,7,6.45,6.88,6.46,17.65t-6.5,17.71q-6.66,7.25-17.26,7.25t-17.47-7q-6.84-7-6.84-17.68t6.74-17.81Q760.15,161.51,770.85,161.51Zm-.83,3.18a14.71,14.71,0,0,0-12.53,6.25,22.82,22.82,0,0,0-4.11,13.84,29.49,29.49,0,0,0,2,10.95,20.81,20.81,0,0,0,6.56,8.92,15.69,15.69,0,0,0,9.84,3.33,13.93,13.93,0,0,0,12.29-6.42q3.7-5.55,3.7-13.95,0-9.39-4.66-15.91Q778.1,164.68,770,164.69Z"/><path d="M804,210.16V158.9h32.17v4.38H808.75v16.4h13.37c11.1,0,17.75,4.11,17.75,14.85s-6.58,15.63-17.89,15.63Zm4.73-4.38H822c8,0,12.79-3.82,12.79-11.18,0-8.06-4.87-10.6-13.22-10.6h-12.8Z"/><path d="M847.55,159.54h6.07v40.09l26.93-40.09h6.74v50.62h-6.08v-40l-27,40h-6.69Z"/><path d="M926.68,199.48a1.23,1.23,0,0,1,.39.07q.18.07.18.21a65.25,65.25,0,0,0-.64,9.34,1.08,1.08,0,0,1-.25.81,1.2,1.2,0,0,1-.88.25H895.85c-.09,0-.14-.14-.14-.42s0-.43.14-.43a16.05,16.05,0,0,0,3.93-.35,2.51,2.51,0,0,0,1.69-1.38,8,8,0,0,0,.46-3.15V171.69a7.78,7.78,0,0,0-.46-3.11,2.62,2.62,0,0,0-1.69-1.38,14.32,14.32,0,0,0-3.93-.39c-.09,0-.14-.14-.14-.42s0-.43.14-.43h28.43a.56.56,0,0,1,.63.64l.14,8.7c0,.14-.11.22-.35.25s-.38,0-.42-.18a8.67,8.67,0,0,0-2.27-5.83,7.28,7.28,0,0,0-5.44-2.09h-4.31a12.49,12.49,0,0,0-3.65.39,2.62,2.62,0,0,0-1.62,1.34,6.84,6.84,0,0,0-.46,2.87V186.4h8.63c2.26,0,3.87-.38,4.84-1.13a4.58,4.58,0,0,0,1.45-3.82c0-.09.14-.14.42-.14s.43.05.43.14l-.07,5.73c0,1.37,0,2.4.07,3.11l.07,3.39c0,.1-.14.15-.43.15s-.42-.05-.42-.15c0-2.07-.51-3.55-1.52-4.45s-2.7-1.34-5.06-1.34h-8.41v16.26a7.41,7.41,0,0,0,.42,2.9,2.39,2.39,0,0,0,1.56,1.27,12.67,12.67,0,0,0,3.53.35h5.66a7.47,7.47,0,0,0,5.66-2.4,12.82,12.82,0,0,0,3-6.65C926.4,199.53,926.49,199.48,926.68,199.48Z"/></svg>