<svg id="Слой_1" data-name="Слой 1" xmlns="http://www.w3.org/2000/svg" viewBox="0 0 1568.18 1568.18"><defs><style>.cls-1{fill:none;stroke:#000;stroke-miterlimit:10;stroke-width:2px;}</style></defs><title>Монтажная область 19 копия 47</title><path class="cls-1" d="M1243.92,939.21c75.86-63.24,95.71-216,43.71-255.7-18.77-14.32-37-6.35-52.46-26.23-18.37-23.56-1.9-46.41-17.48-72.12-5.16-8.5-15.22-19.64-78.68-37.15-59.75-16.49-89.63-24.74-118-21.85-13.17,1.33-91,9.24-118,61.19-13.7,26.39-.11,36.9-4.37,109.27-3.25,55.39-4.88,83.09-24,109.27-35.15,48-97.79,50.22-100.53,50.27-24.41.47-39.63-6.76-85.23-28.41-94.78-45-142.55-67.54-161.72-69.94-66.11-8.24-120.63,29.69-135.5,39.34-4.61,3-1,1-61.2,56.82C285.06,896,275.93,903.89,267,921.72c-5.36,10.71-26.72,53.42-6.56,85.24,16.53,26.08,55.21,35.77,63.38,26.22,9.37-11-26.37-41.5-15.3-63.38,9.19-18.15,44.28-17.82,80.86-17.48,40.06.38,60.08.57,78.68,13.11,26.18,17.67,19.15,38,50.26,89.61,21,34.87,36.48,60.52,65.57,74.3,39.49,18.72,58.55-6,102.71,13.12,37.62,16.28,57.14,48.65,63.38,59,26.49,43.93,8.28,63.73,26.23,107.09,24.86,60.07,93.19,102.71,157.35,107.09,29.88,2,51.45-4.72,85.23-15.3,45.5-14.25,99.64-31.21,133.32-80.86,24.42-36,27.71-73.93,30.59-107.09,4.39-50.53-8.15-49.76-6.55-109.27,1.13-42.06,3.74-106.4,48.08-148.61C1232.81,946.35,1234.47,947.08,1243.92,939.21Z"/></svg>