<svg id="Слой_1" data-name="Слой 1" xmlns="http://www.w3.org/2000/svg" viewBox="0 0 1568.18 1568.18"><defs><style>.cls-1{fill:none;stroke:#000;stroke-miterlimit:10;stroke-width:2px;}</style></defs><title>Монтажная область 19 копия 49</title><path class="cls-1" d="M465.25,699.2C511.33,680.92,534.38,671.78,562,674c87.63,7.18,103.51,95.83,206.27,120.75,22.06,5.35,56.37,2.7,125-2.59,115.84-8.94,128.88-24.64,189.4-22.45,46.24,1.67,146.26,5.29,186.6,65.59,51.16,76.48-44.16,168.66,10,259.1,37.65,62.88,108.81,60.23,108.58,99.62-.24,40.28-74.88,87.71-141.87,81.66-56.22-5.08-69.52-44.43-121.51-53-36.51-6.05-91.78,3.12-169.73,77.61C999,1417.41,998.48,1454,985.82,1461.7c-29.69,18-109-133.28-262.58-156.63-79.27-12-148.35,14.54-175.42,26.79-121.21,54.83-156.56,164.26-186.72,152.05-31-12.54-23.17-139.86-4.7-226.8,13.67-64.34,37.14-125.13,5.9-162.19-13.36-15.86-27.09-15.92-37.8-36.26-19.07-36.26,10.14-63.47-1.91-92.57C301.4,915,184.39,934.4,177.75,904.26c-3.66-16.58,29.71-31.75,95.67-76.07C383.69,754.1,392,728.24,465.25,699.2Z"/></svg>