<svg id="Слой_1" data-name="Слой 1" xmlns="http://www.w3.org/2000/svg" viewBox="0 0 500 500"><defs><style>.cls-1{fill:#b8ad99;}.cls-2{fill:none;stroke:#000;stroke-linecap:round;stroke-linejoin:round;stroke-width:2px;}</style></defs><title>Монтажная область 19 копия 51</title><polygon class="cls-1" points="170.86 155.73 178.61 131.81 186.3 155.75 207.62 142.4 198.12 165.69 223.03 169.16 200.79 180.9 217.64 199.57 193.05 194.26 193.96 219.4 178.54 199.53 163.07 219.36 164.03 194.23 139.44 199.49 156.32 180.85 134.11 169.07 159.02 165.65 149.58 142.34 170.86 155.73"/><path class="cls-2" d="M219.28,220a35.88,35.88,0,0,1,40.28-1.48c14.86,9.48,13.69,26.42,8.76,38.38-5.21,12.65-18.21,10.15-26,24.1-7.43,13.24-2.23,22.6,7.56,29.13,14.64,9.77,33.14-20.36,57.54-11.2,15.14,5.68,19.32,21.88,15,35.64-3.4,10.74-12.81,17.74-12.57,28.13.25,10.66,7.14,23.14,18.07,26.16,13.13,3.62,29.91-5.39,39.81-17.11"/></svg>