<svg id="Слой_1" data-name="Слой 1" xmlns="http://www.w3.org/2000/svg" viewBox="0 0 1568.18 1568.18"><defs><style>.cls-1{fill:none;stroke:#000;stroke-miterlimit:10;stroke-width:2px;}</style></defs><title>Монтажная область 19 копия 52</title><path class="cls-1" d="M842.59,563.57c-24.29-18.39-65.21-18-92.37-9.76-39,11.8-36.66,35.77-84.67,68.35-44.82,30.41-60.86,19.06-100.07,45.57-45.67,30.88-45.83,61.12-77,100.9-15.48,19.76-71.68,79.22-157.8,97.65-51.25,11-65.62-3.2-96.22,13-46.52,24.65-70.73,87.85-50,133.45,16.45,36.24,48.58,33.41,123.16,84.62,59,40.53,114.85,78.88,127,133.45,16.42,73.7-42.53,88.73-19.24,108,21,17.39,82.75,25.79,134.71-10.34,56.46-39.27,49.35-62.12,96.21-84.63,77.27-37.1,165.23-7.93,169.35-6.51,55.94,19.38,85.12,57.28,103.91,81.38,43.72,56,25,77.8,57.73,100.9,56.88,40.15,171.45,15.44,242.47-26,17-9.92,57-33.9,84.67-78.12,68.84-110.21-44.42-178.47-46.18-400.35-.61-76.88,12.43-138.11-34.64-169.25-39.5-26.14-80.91-4.33-119.31-32.55-62.43-45.88-18.69-151.79-46.19-159.49-12.59-3.53-29.71,36.29-92.36,97.64-15.13,14.81-30.14,28.23-46.19,26-9.13-1.24-17.56-7.4-34.64-35.8C854.67,591.37,861.31,577.75,842.59,563.57Z"/></svg>