<svg id="Слой_1" data-name="Слой 1" xmlns="http://www.w3.org/2000/svg" viewBox="0 0 500 500"><defs><style>.cls-1{fill:#b8ad99;}.cls-2{fill:none;stroke:#000;stroke-linecap:round;stroke-linejoin:round;stroke-width:2px;}</style></defs><title>Монтажная область 19 копия</title><polygon class="cls-1" points="263.14 241.86 284.13 214.88 282.86 249.04 316.28 241.86 293.36 267.21 323.57 283.2 289.71 287.88 302.58 319.55 273.64 301.37 263.14 333.91 252.65 301.37 223.7 319.55 236.57 287.88 202.71 283.2 232.93 267.21 210 241.86 243.42 249.04 242.16 214.88 263.14 241.86"/><path class="cls-2" d="M155.2,254.78c26.5-39.31,71.9-61.23,118.05-56.76,63.09,6.11,94.57,58.3,97.63,63.57"/><path class="cls-2" d="M368.61,292.8c-26.51,39.31-71.9,61.22-118.06,56.76-63.08-6.11-94.57-58.3-97.62-63.57"/></svg>