<svg id="Слой_1" data-name="Слой 1" xmlns="http://www.w3.org/2000/svg" viewBox="0 0 500 500"><defs><style>.cls-1{fill:#b8ad99;}.cls-2{fill:none;stroke:#000;stroke-linecap:round;stroke-linejoin:round;stroke-width:2px;}</style></defs><title>Монтажная область 19</title><polygon class="cls-1" points="262.91 239.01 286.13 209.16 284.73 246.95 321.7 239.01 296.34 267.06 329.76 284.74 292.31 289.92 306.54 324.95 274.52 304.84 262.91 340.83 251.3 304.84 219.28 324.95 233.52 289.92 196.06 284.74 229.49 267.06 204.13 239.01 241.1 246.95 239.7 209.16 262.91 239.01"/><line class="cls-2" x1="223.31" y1="227.32" x2="134.77" y2="145.59"/><line class="cls-2" x1="263.04" y1="210.29" x2="263.04" y2="118.35"/><line class="cls-2" x1="299.36" y1="226.19" x2="369.74" y2="144.46"/><line class="cls-2" x1="324.34" y1="262.51" x2="402.66" y2="262.51"/><line class="cls-2" x1="310.71" y1="301.11" x2="390.17" y2="364.67"/><line class="cls-2" x1="281.2" y1="323.81" x2="299.36" y2="394.19"/><line class="cls-2" x1="242.61" y1="323.81" x2="222.17" y2="394.19"/><line class="cls-2" x1="213.09" y1="301.11" x2="133.63" y2="364.67"/><line class="cls-2" x1="213.09" y1="262.51" x2="133.63" y2="262.51"/></svg>