<svg id="Слой_1" data-name="Слой 1" xmlns="http://www.w3.org/2000/svg" viewBox="0 0 500 500"><defs><style>.cls-1{fill:#608b70;}.cls-2{fill:#c1362d;}.cls-3{fill:#b8ad99;}</style></defs><title>Монтажная область 19 копия 5</title><polygon class="cls-1" points="232.78 264.96 247.59 245.92 246.69 270.02 270.28 264.96 254.1 282.85 275.42 294.13 251.53 297.44 260.61 319.78 240.18 306.95 232.78 329.91 225.37 306.95 204.94 319.78 214.03 297.44 190.13 294.13 211.45 282.85 195.27 264.96 218.86 270.02 217.97 245.92 232.78 264.96"/><polygon class="cls-2" points="114.72 264.96 129.53 245.92 128.64 270.02 152.22 264.96 136.04 282.85 157.37 294.13 133.47 297.44 142.56 319.78 122.13 306.95 114.72 329.91 107.31 306.95 86.89 319.78 95.97 297.44 72.08 294.13 93.4 282.85 77.22 264.96 100.8 270.02 99.91 245.92 114.72 264.96"/><polygon class="cls-3" points="366.15 234.9 389.37 205.05 387.96 242.84 424.93 234.9 399.57 262.94 433 280.63 395.54 285.81 409.78 320.84 377.76 300.73 366.15 336.72 354.54 300.73 322.52 320.84 336.76 285.81 299.3 280.63 332.72 262.94 307.36 234.9 344.33 242.84 342.93 205.05 366.15 234.9"/></svg>