<svg id="Слой_1" data-name="Слой 1" xmlns="http://www.w3.org/2000/svg" viewBox="0 0 1267.17 332.19"><defs><style>.cls-1{font-size:36px;font-family:SuisseIntl-Light, Suisse Intl;}.cls-2{letter-spacing:-0.01em;}.cls-3{letter-spacing:0em;}.cls-4{letter-spacing:0.01em;}.cls-5{letter-spacing:0em;}.cls-6{letter-spacing:0.02em;}.cls-7{letter-spacing:-0.01em;}.cls-8{letter-spacing:-0.06em;}.cls-9{letter-spacing:0em;}.cls-10{letter-spacing:-0.07em;}.cls-11{letter-spacing:-0.01em;}.cls-12{letter-spacing:-0.01em;}.cls-13{letter-spacing:0.01em;}.cls-14{letter-spacing:-0.01em;}.cls-15{letter-spacing:-0.02em;}.cls-16{letter-spacing:0.01em;}.cls-17{letter-spacing:-0.02em;}.cls-18{letter-spacing:-0.01em;}.cls-19{letter-spacing:0.02em;}.cls-20{letter-spacing:-0.01em;}.cls-21{letter-spacing:0em;}.cls-22{letter-spacing:-0.01em;}.cls-23{letter-spacing:-0.09em;}.cls-24{letter-spacing:0em;}</style></defs><title>descr</title><text class="cls-1" transform="translate(411.86 33.29)"><tspan class="cls-2">Д</tspan><tspan class="cls-3" x="26.28" y="0">об</tspan><tspan class="cls-4" x="66.46" y="0">р</tspan><tspan x="87.73" y="0">о п</tspan><tspan class="cls-5" x="137.05" y="0">ож</tspan><tspan x="183.74" y="0">ало</tspan><tspan class="cls-6" x="243.5" y="0">в</tspan><tspan class="cls-7" x="263.7" y="0">а</tspan><tspan x="282.67" y="0">ть на сай</tspan><tspan class="cls-8" x="435.92" y="0">т</tspan><tspan class="cls-9" x="451.11" y="0">, </tspan><tspan class="cls-10" x="-218.05" y="43.2">г</tspan><tspan class="cls-11" x="-205.16" y="43.2">д</tspan><tspan x="-184.07" y="43.2">е вы м</tspan><tspan class="cls-5" x="-76.86" y="43.2">ож</tspan><tspan class="cls-12" x="-30.17" y="43.2">ет</tspan><tspan class="cls-3" x="6.01" y="43.2">е </tspan><tspan class="cls-13" x="34.38" y="43.2">с</tspan><tspan x="53.82" y="43.2">обр</tspan><tspan class="cls-7" x="114.98" y="43.2">а</tspan><tspan class="cls-9" x="133.96" y="43.2">ть с</tspan><tspan class="cls-4" x="197.24" y="43.2">во</tspan><tspan x="237.2" y="43.2">е ви</tspan><tspan class="cls-14" x="306.65" y="43.2">р</tspan><tspan x="327.13" y="43.2">т</tspan><tspan class="cls-15" x="344.48" y="43.2">у</tspan><tspan class="cls-9" x="361.08" y="43.2">альн</tspan><tspan class="cls-16" x="440.56" y="43.2">о</tspan><tspan x="460.69" y="43.2">е надг</tspan><tspan class="cls-4" x="566.35" y="43.2">р</tspan><tspan x="587.62" y="43.2">обие! </tspan><tspan x="-252.45" y="86.4">Для </tspan><tspan class="cls-12" x="-177.39" y="86.4">т</tspan><tspan x="-160.54" y="86.4">о</tspan><tspan class="cls-12" x="-140.7" y="86.4">г</tspan><tspan class="cls-17" x="-125.8" y="86.4">о</tspan><tspan x="-106.68" y="86.4">, ч</tspan><tspan class="cls-12" x="-71.08" y="86.4">т</tspan><tspan x="-54.23" y="86.4">обы </tspan><tspan class="cls-12" x="19.64" y="86.4">эт</tspan><tspan x="55.35" y="86.4">о </tspan><tspan class="cls-5" x="83.72" y="86.4">с</tspan><tspan class="cls-18" x="102.62" y="86.4">д</tspan><tspan x="123.71" y="86.4">ел</tspan><tspan class="cls-7" x="164.14" y="86.4">а</tspan><tspan x="183.11" y="86.4">ть, </tspan><tspan class="cls-19" x="235.13" y="86.4">в</tspan><tspan class="cls-3" x="255.33" y="86.4">ам нужно сначала выбр</tspan><tspan class="cls-7" x="656.72" y="86.4">а</tspan><tspan x="675.7" y="86.4">ть </tspan><tspan x="-251.13" y="129.6">причину сме</tspan><tspan class="cls-12" x="-35.46" y="129.6">р</tspan><tspan class="cls-9" x="-14.98" y="129.6">ти (</tspan><tspan class="cls-4" x="40.46" y="129.6">ф</tspan><tspan x="64.65" y="129.6">орма памятни</tspan><tspan class="cls-20" x="304.16" y="129.6">к</tspan><tspan x="322.02" y="129.6">а), п</tspan><tspan class="cls-12" x="386.67" y="129.6">от</tspan><tspan x="422.85" y="129.6">ом м</tspan><tspan class="cls-21" x="502.41" y="129.6">е</tspan><tspan class="cls-15" x="522.43" y="129.6">с</tspan><tspan class="cls-12" x="540.97" y="129.6">т</tspan><tspan x="557.81" y="129.6">о сме</tspan><tspan class="cls-14" x="650.69" y="129.6">р</tspan><tspan x="671.18" y="129.6">ти </tspan><tspan x="-315.63" y="172.8">(</tspan><tspan class="cls-4" x="-307.6" y="172.8">ф</tspan><tspan x="-283.41" y="172.8">орма </tspan><tspan class="cls-5" x="-189.12" y="172.8">к</tspan><tspan x="-171.27" y="172.8">онтинен</tspan><tspan class="cls-15" x="-29" y="172.8">т</tspan><tspan x="-12.19" y="172.8">а внутри памятни</tspan><tspan class="cls-5" x="287.22" y="172.8">к</tspan><tspan class="cls-3" x="305.08" y="172.8">а) и дальше </tspan><tspan class="cls-5" x="507.68" y="172.8">х</tspan><tspan x="525.07" y="172.8">арак</tspan><tspan class="cls-14" x="602.76" y="172.8">т</tspan><tspan x="619.61" y="172.8">ери</tspan><tspan class="cls-15" x="681.96" y="172.8">с</tspan><tspan class="cls-9" x="700.5" y="172.8">тику </tspan><tspan x="-225.68" y="216">умерше</tspan><tspan class="cls-22" x="-93.56" y="216">г</tspan><tspan x="-78.66" y="216">о и п</tspan><tspan class="cls-20" x="0.72" y="216">ож</tspan><tspan class="cls-3" x="47.41" y="216">елания. </tspan><tspan class="cls-23" x="185.5" y="216">Т</tspan><tspan x="203.04" y="216">ак</tspan><tspan class="cls-5" x="240.4" y="216">ж</tspan><tspan x="267.44" y="216">е вы м</tspan><tspan class="cls-5" x="374.65" y="216">ож</tspan><tspan class="cls-12" x="421.34" y="216">ет</tspan><tspan x="457.52" y="216">е п</tspan><tspan class="cls-16" x="506.84" y="216">о</tspan><tspan x="526.96" y="216">см</tspan><tspan class="cls-12" x="571.64" y="216">о</tspan><tspan x="590.97" y="216">т</tspan><tspan class="cls-4" x="608.32" y="216">р</tspan><tspan class="cls-12" x="629.6" y="216">е</tspan><tspan x="648.93" y="216">ть </tspan><tspan x="-187.81" y="259.2">у</tspan><tspan class="cls-5" x="-170.67" y="259.2">ж</tspan><tspan x="-143.64" y="259.2">е </tspan><tspan class="cls-13" x="-115.27" y="259.2">с</tspan><tspan x="-95.83" y="259.2">обранные надг</tspan><tspan class="cls-4" x="157.97" y="259.2">р</tspan><tspan x="179.24" y="259.2">обия д</tspan><tspan class="cls-24" x="290.01" y="259.2">р</tspan><tspan class="cls-9" x="310.93" y="259.2">угих пол</tspan><tspan class="cls-4" x="452.48" y="259.2">ьз</tspan><tspan class="cls-3" x="489.81" y="259.2">о</tspan><tspan class="cls-19" x="509.65" y="259.2">в</tspan><tspan class="cls-7" x="529.84" y="259.2">а</tspan><tspan class="cls-12" x="548.81" y="259.2">т</tspan><tspan x="565.66" y="259.2">елей.</tspan></text></svg>