<svg id="Слой_1" data-name="Слой 1" xmlns="http://www.w3.org/2000/svg" viewBox="0 0 1594.21 415.2"><defs><style>.cls-1,.cls-2{fill:#fff;}.cls-2,.cls-5{stroke:#010101;stroke-width:2px;}.cls-2,.cls-5,.cls-7{stroke-miterlimit:10;}.cls-3{fill:#618b70;}.cls-4{fill:#b9ad99;}.cls-5,.cls-7{fill:none;}.cls-6{fill:#010101;}.cls-7{stroke:#1d1d1b;stroke-width:1.5px;}.cls-8{fill:#c1362d;}.cls-9{font-size:36px;font-family:SuisseIntl-Light, Suisse Intl;}.cls-10{letter-spacing:-0.01em;}.cls-11{letter-spacing:0em;}.cls-12{letter-spacing:0em;}.cls-13{letter-spacing:-0.02em;}.cls-14{letter-spacing:-0.01em;}.cls-15{letter-spacing:0.02em;}.cls-16{letter-spacing:0em;}</style></defs><title>formula</title><path class="cls-1" d="M1316.5,106.71a40.78,40.78,0,1,1-40.78-40.78,40.77,40.77,0,0,1,40.78,40.78"/><path class="cls-2" d="M1316.5,106.71a40.78,40.78,0,1,1-40.78-40.78A40.77,40.77,0,0,1,1316.5,106.71Z"/><polygon class="cls-1" points="1234.37 245.17 1275.99 171.01 1315.95 245.17 1234.37 245.17"/><polygon class="cls-2" points="1234.37 245.17 1275.99 171.01 1315.95 245.17 1234.37 245.17"/><path class="cls-2" d="M414.17,251.11H247.58s-29.45-137.15,0-166.6,140.41-32.39,166.59,0S414.17,251.11,414.17,251.11Z"/><path class="cls-2" d="M704.87,99.43c8.38-3.32,12.56-5,17.57-4.57,15.92,1.3,18.81,17.41,37.48,21.94,4,1,10.24.49,22.71-.47,21-1.63,23.41-4.48,34.41-4.08,8.4.3,26.58,1,33.9,11.91,9.3,13.9-8,30.65,1.82,47.08,6.84,11.42,19.77,10.94,19.73,18.1,0,7.32-13.6,15.94-25.78,14.83-10.21-.92-12.63-8.07-22.07-9.63-6.64-1.1-16.68.56-30.84,14.1,8.05,21.28,8,27.93,5.65,29.32-5.39,3.28-19.79-24.21-47.71-28.45-14.4-2.19-27,2.64-31.87,4.87-22,10-28.44,29.84-33.92,27.62s-4.21-25.41-.85-41.2c2.48-11.69,6.74-22.74,1.07-29.47-2.43-2.89-4.93-2.9-6.87-6.59-3.47-6.59,1.84-11.53-.35-16.82-3.85-9.29-25.11-5.76-26.31-11.23-.67-3,5.39-5.77,17.38-13.83,20-13.46,21.54-18.15,34.85-23.43"/><rect class="cls-1" x="1120.5" y="70.95" width="82.57" height="82.57"/><rect class="cls-2" x="1120.5" y="70.95" width="82.57" height="82.57"/><path class="cls-1" d="M1201.07,211.06A40,40,0,1,1,1161,171a40,40,0,0,1,40,40.05"/><circle class="cls-2" cx="1161.02" cy="211.06" r="40.05" transform="translate(7.61 460.37) rotate(-22.5)"/><path class="cls-3" d="M1188.89,112.09a12.43,12.43,0,1,1-12.43-12.43,12.44,12.44,0,0,1,12.43,12.43"/><polygon class="cls-4" points="1143.52 104.96 1148.7 98.3 1148.39 106.73 1156.63 104.96 1150.98 111.22 1158.43 115.17 1150.08 116.32 1153.25 124.14 1146.11 119.65 1143.52 127.68 1140.93 119.65 1133.78 124.14 1136.96 116.32 1128.6 115.17 1136.06 111.22 1130.4 104.96 1138.65 106.73 1138.34 98.3 1143.52 104.96"/><path class="cls-5" d="M1174.37,135a14.89,14.89,0,0,1-28.54-5.18"/><path class="cls-6" d="M1168.74,133.74a5.69,5.69,0,1,1,4,7,5.7,5.7,0,0,1-4-7"/><path class="cls-7" d="M1168.74,133.74a5.69,5.69,0,1,1,4,7,5.7,5.7,0,0,1-4-7"/><path class="cls-6" d="M1145.89,124.75s0-.06-.06,0a0,0,0,0,0,0,.06.06.06,0,1,0,.11,0"/><path class="cls-7" d="M1145.89,124.75s0-.06-.06,0a0,0,0,0,0,0,.06.06.06,0,1,0,.11,0"/><path class="cls-5" d="M1145.83,94.27a15.25,15.25,0,0,1,15.7-14.19A15.09,15.09,0,0,1,1174.39,89"/><path class="cls-6" d="M1168.76,90.21a5.69,5.69,0,1,0,4.06-6.95,5.7,5.7,0,0,0-4.06,6.95"/><path class="cls-7" d="M1168.76,90.21a5.69,5.69,0,1,0,4.06-6.95,5.7,5.7,0,0,0-4.06,6.95"/><line class="cls-5" x1="496.19" y1="167.33" x2="566.73" y2="167.33"/><line class="cls-5" x1="531.46" y1="202.6" x2="531.46" y2="132.06"/><line class="cls-5" x1="944.89" y1="164.01" x2="1015.44" y2="164.01"/><line class="cls-5" x1="980.17" y1="199.28" x2="980.17" y2="128.73"/><polygon class="cls-4" points="1161.14 202.98 1166.84 195.66 1166.49 204.93 1175.57 202.98 1169.34 209.87 1177.55 214.21 1168.35 215.48 1171.85 224.08 1163.99 219.15 1161.14 227.98 1158.29 219.15 1150.43 224.08 1153.92 215.48 1144.73 214.21 1152.93 209.87 1146.71 202.98 1155.78 204.93 1155.44 195.66 1161.14 202.98"/><path class="cls-5" d="M1131.83,206.49a34.82,34.82,0,0,1,32.05-15.41c17.13,1.66,25.68,15.83,26.51,17.26"/><path class="cls-5" d="M1131.83,217.08a34.82,34.82,0,0,0,32.05,15.41c17.13-1.66,25.68-15.83,26.51-17.26"/><path class="cls-3" d="M1292.39,222.05a17.63,17.63,0,1,1-17.63-17.63,17.64,17.64,0,0,1,17.63,17.63"/><polygon class="cls-8" points="1287.4 85.48 1299.64 106.68 1287.4 127.88 1262.93 127.88 1250.69 106.68 1262.93 85.48 1287.4 85.48"/><text class="cls-9" transform="translate(201.85 303.6)">Причину сме<tspan class="cls-10" x="220.71" y="0">р</tspan><tspan class="cls-11" x="241.2" y="0">ти</tspan></text><text class="cls-9" transform="translate(648.69 303.6)">М<tspan class="cls-12" x="31.82" y="0">е</tspan><tspan class="cls-13" x="51.84" y="0">с</tspan><tspan class="cls-14" x="70.38" y="0">т</tspan><tspan x="87.23" y="0">о сме</tspan><tspan class="cls-10" x="180.11" y="0">р</tspan><tspan x="200.59" y="0">ти</tspan></text><text class="cls-9" transform="translate(994.75 303.6)"><tspan class="cls-10">Х</tspan><tspan x="23.04" y="0">арак</tspan><tspan class="cls-14" x="100.73" y="0">т</tspan><tspan class="cls-11" x="117.57" y="0">ер/ч</tspan><tspan class="cls-10" x="190.37" y="0">т</tspan><tspan class="cls-11" x="207.21" y="0">о было </tspan><tspan class="cls-15" x="330.04" y="0">в</tspan><tspan x="350.24" y="0">ажно </tspan><tspan x="21.78" y="43.2">умершему и п</tspan><tspan class="cls-16" x="256.17" y="43.2">ож</tspan><tspan x="302.87" y="43.2">елания</tspan></text></svg>