<svg id="Слой_1" data-name="Слой 1" xmlns="http://www.w3.org/2000/svg" viewBox="0 0 943.17 140.19"><title>look</title><path d="M35.78,103.29V55.69H70.7v47.6H66.3V59.76H40.17v43.53Z"/><path d="M101.62,104.2a22.9,22.9,0,0,1-8.37-1.54,21.94,21.94,0,0,1-7-4.4,20.88,20.88,0,0,1-6.7-15.65A25,25,0,0,1,81,74a22.18,22.18,0,0,1,4.33-7.32,20.52,20.52,0,0,1,7.12-5.12,23.8,23.8,0,0,1,9.78-1.91,23.08,23.08,0,0,1,8.44,1.55,22.13,22.13,0,0,1,7.06,4.39,20.87,20.87,0,0,1,6.69,15.66,25.31,25.31,0,0,1-1.47,8.54,22.24,22.24,0,0,1-4.34,7.35,20.43,20.43,0,0,1-7.12,5.12A23.94,23.94,0,0,1,101.62,104.2Zm1-2.75a12.3,12.3,0,0,0,12.25-8.08,23.26,23.26,0,0,0,1.54-8.79,35.58,35.58,0,0,0-.95-8.34,24.6,24.6,0,0,0-2.86-7.06,14.11,14.11,0,0,0-4.79-4.86A12.88,12.88,0,0,0,89,70.53a22.72,22.72,0,0,0-1.55,8.73,37.09,37.09,0,0,0,.92,8.4,23.73,23.73,0,0,0,2.83,7.06,14.74,14.74,0,0,0,4.75,4.92A12.3,12.3,0,0,0,102.67,101.45Z"/><path d="M154.08,104.27a26.44,26.44,0,0,1-9.1-1.58,24.2,24.2,0,0,1-7.71-4.46,20.71,20.71,0,0,1-7.22-16,20,20,0,0,1,2-8.76,22,22,0,0,1,5.48-7.16,26.55,26.55,0,0,1,8.17-4.79,28.7,28.7,0,0,1,10.11-1.74,37.31,37.31,0,0,1,4.34.23c1.27.15,2.49.36,3.67.62s2.45.62,3.81,1a2.84,2.84,0,0,1,1.28.73,2.12,2.12,0,0,1,.49,1.37c.14,1.14.26,2.32.36,3.55s.19,2.58.24,4.07a.89.89,0,0,1-.5.85,1.39,1.39,0,0,1-1.08.1,1.14,1.14,0,0,1-.79-.89,24.19,24.19,0,0,0-1.38-3.87,7.16,7.16,0,0,0-2.29-2.82,11,11,0,0,0-3.85-1.84,19.09,19.09,0,0,0-5.21-.66,15.28,15.28,0,0,0-6.77,1.51,16,16,0,0,0-5.25,4.11,19.86,19.86,0,0,0-3.38,5.87,19.54,19.54,0,0,0-1.21,6.83,27.47,27.47,0,0,0,1.14,7.94,22,22,0,0,0,3.35,6.77A16.66,16.66,0,0,0,148.1,100a14.43,14.43,0,0,0,7.09,1.74A13.46,13.46,0,0,0,163,99.58a16.8,16.8,0,0,0,5.18-6.14,1.49,1.49,0,0,1,1.38-.92c.61,0,.92.35.92,1a10,10,0,0,1-.23,1.8c-.15.77-.36,1.6-.62,2.5s-.53,1.72-.79,2.46a4.2,4.2,0,0,1-.72,1.18,3.57,3.57,0,0,1-1.25.66,25.53,25.53,0,0,1-5.88,1.58A45,45,0,0,1,154.08,104.27Z"/><path d="M177.19,103.61a4.75,4.75,0,0,1-1.38-.16c-.35-.11-.53-.3-.53-.56a.82.82,0,0,1,.53-.72,6.45,6.45,0,0,1,1.64-.46,4.57,4.57,0,0,0,2.69-1.58,6.93,6.93,0,0,0,1.38-3.54q.78-5.91,1.38-11.26c.39-3.57.71-6.78.95-9.65s.36-5.22.36-7.06V67.51a8,8,0,0,0-.06-1.05c-.05-.35-.12-.72-.2-1.09a2.06,2.06,0,0,0-.79-1.08,7,7,0,0,0-2.3-1.35,20.36,20.36,0,0,0-2.62-.62,2.14,2.14,0,0,1-1.05-.49,1.08,1.08,0,0,1-.4-.82q0-.52.63-.63a11.32,11.32,0,0,1,1.6-.1c.44,0,1.11,0,2,.07s1.87.11,2.92.2,2,.15,2.92.19,1.56.07,2,.07a1.25,1.25,0,0,1,.79.26,1.44,1.44,0,0,1,.46.79c.22.79.44,1.62.66,2.5a25.19,25.19,0,0,0,.78,2.56l10.38,26.32a.92.92,0,0,0,.72.56.71.71,0,0,0,.79-.36l12.93-26.92q.33-1.11.66-2.49c.21-.92.39-1.73.52-2.43s.35-.86.66-.86h2.36a34.29,34.29,0,0,0,4.17-.26,31.77,31.77,0,0,1,3.32-.26,4.53,4.53,0,0,1,.85.1.54.54,0,0,1,.52.56.86.86,0,0,1-.36.72,7.25,7.25,0,0,1-1.34.65l-1.91.73c-.7.26-1.35.52-2,.78a2.56,2.56,0,0,0-1.11.89,2.23,2.23,0,0,0-.46,1.35q0,4.59.16,8.63t.36,7.75c.13,2.47.29,4.91.46,7.32s.33,4.85.46,7.35a4.43,4.43,0,0,0,1.32,3.12,7.3,7.3,0,0,0,3.61,1.54,6.58,6.58,0,0,1,1.64.46.8.8,0,0,1,.52.72c0,.26-.17.45-.52.56a4.75,4.75,0,0,1-1.38.16c-1.18,0-2.16,0-2.92-.09s-1.5-.13-2.2-.17-1.56-.06-2.56-.06-1.61,0-2.2.06-1.23.1-1.91.17-1.6.09-2.79.09a4.67,4.67,0,0,1-1.37-.16c-.36-.11-.53-.3-.53-.56a.85.85,0,0,1,.53-.75,4.53,4.53,0,0,1,1.64-.43,3.49,3.49,0,0,0,2.62-1.35A6.2,6.2,0,0,0,218,97q0-4.73-.09-8.53t-.3-7.52q-.19-3.71-.39-8.11c0-.48-.18-.71-.4-.69s-.43.26-.65.69L201,103.61a.64.64,0,0,1-.59.37.52.52,0,0,1-.59-.43q-2.57-7.68-5.49-15.13t-6.59-16.06a.48.48,0,0,0-.46-.32.37.37,0,0,0-.4.32q-.59,4.61-1.08,8.44t-.76,7.58c-.17,2.5-.26,5.23-.26,8.21a5.25,5.25,0,0,0,1.12,3.25,5,5,0,0,0,3.15,1.87,6.58,6.58,0,0,1,1.64.46.8.8,0,0,1,.52.72c0,.26-.17.45-.52.56a4.75,4.75,0,0,1-1.38.16c-1.18,0-2.07,0-2.66-.09l-1.57-.17c-.46,0-1.11-.06-1.94-.06s-1.4,0-1.84.06l-1.51.17C179.24,103.58,178.37,103.61,177.19,103.61Z"/><path d="M257.54,55.89a20.81,20.81,0,0,1,10.93,2.82,18.88,18.88,0,0,1,7.29,8.11,28.89,28.89,0,0,1,2.59,12.83,29.24,29.24,0,0,1-2.66,12.87,20.75,20.75,0,0,1-7.38,8.6,19.33,19.33,0,0,1-10.83,3.08,20.78,20.78,0,0,1-10.93-2.82,18.85,18.85,0,0,1-7.29-8.14,28.93,28.93,0,0,1-2.6-12.8,29,29,0,0,1,2.7-12.87,21.1,21.1,0,0,1,7.38-8.6A19.19,19.19,0,0,1,257.54,55.89Zm-.26,1.18a10.48,10.48,0,0,0-7.42,3A19.39,19.39,0,0,0,245,68.16a37.83,37.83,0,0,0-1.74,12,34.18,34.18,0,0,0,1.94,12.11,18.66,18.66,0,0,0,5.25,7.94,11.11,11.11,0,0,0,7.32,2.79,10.5,10.5,0,0,0,7.42-3,19.39,19.39,0,0,0,4.89-8.17,37.9,37.9,0,0,0,1.74-12,34.31,34.31,0,0,0-1.94-12.14,18.88,18.88,0,0,0-5.22-7.91A11.07,11.07,0,0,0,257.28,57.07Z"/><path d="M320.7,56.81c-.18,1.66-.3,3.27-.36,4.82s-.1,2.75-.1,3.58c0,1.05,0,2,.06,3s.09,1.73.14,2.43h-1.51a41.75,41.75,0,0,0-1.25-7.25,6.34,6.34,0,0,0-2.76-3.84c-1.31-.79-3.35-1.18-6.1-1.18h-3.55V95.67a11.88,11.88,0,0,0,.49,3.94,2.85,2.85,0,0,0,1.94,1.77,16.81,16.81,0,0,0,4.2.59v1.32c-1.14-.09-2.58-.15-4.33-.17s-3.53,0-5.32,0q-3,0-5.55,0c-1.73,0-3.12.08-4.17.17V102a16.81,16.81,0,0,0,4.2-.59,2.83,2.83,0,0,0,1.94-1.77,11.88,11.88,0,0,0,.49-3.94V58.32h-3.54a12.19,12.19,0,0,0-6.07,1.18,6.22,6.22,0,0,0-2.79,3.84,40.81,40.81,0,0,0-1.25,7.25H284a23.36,23.36,0,0,0,.16-2.43c0-.92,0-1.9,0-3,0-.83,0-2-.1-3.58s-.19-3.16-.36-4.82l6,.13q3.25.06,6.54.06h11.91c2.17,0,4.34,0,6.53-.06Z"/><path d="M327.59,59.57a66.07,66.07,0,0,1,11-.86c5.65,0,9.78,1.32,12.41,3.68a11.9,11.9,0,0,1,3.87,9.26c0,4-1.18,7.15-3.41,9.45-3,3.22-7.94,4.86-13.52,4.86a19.55,19.55,0,0,1-4.6-.4v17.73h-5.71ZM333.3,80.9a19.08,19.08,0,0,0,4.73.46c6.89,0,11.09-3.35,11.09-9.45,0-5.84-4.14-8.67-10.44-8.67a24.08,24.08,0,0,0-5.38.46Z"/><path d="M363.76,55.69h30.53v4.07H368.16V76.57h24.55V80.7H368.16V99.22h26.13v4.07H363.76Z"/><path d="M414.59,103.29V61.84H399.11V56.29h37.25v5.55H420.81v41.45Z"/><path d="M440.83,103.61a4.75,4.75,0,0,1-1.38-.16c-.35-.11-.53-.3-.53-.56,0-.52.72-.92,2.17-1.18a8.64,8.64,0,0,0,3.81-1.51,4.22,4.22,0,0,0,1.31-3.48V67.24a4.6,4.6,0,0,0-1-3.34,6.59,6.59,0,0,0-3.48-1.45c-1.44-.26-2.16-.7-2.16-1.31,0-.26.17-.45.52-.56a4.75,4.75,0,0,1,1.38-.16c1.18,0,2.16,0,2.92.06s1.5.08,2.2.1,1.56,0,2.56,0,1.75,0,2.37,0,1.27,0,2-.1,1.64-.06,2.82-.06a4.75,4.75,0,0,1,1.38.16c.35.11.52.3.52.56a.94.94,0,0,1-.52.79,4.78,4.78,0,0,1-1.64.52,7.68,7.68,0,0,0-3.58,1.45,4.09,4.09,0,0,0-1.15,3.28v11c0,1,.35,1.51,1.05,1.51a1.15,1.15,0,0,0,.26,0,1.48,1.48,0,0,0,.27-.1c.56-.17,1.46-.39,2.69-.66a18.53,18.53,0,0,1,3.87-.39q6,0,9.59,3.18t3.61,8.9a12,12,0,0,1-1.15,5.71,9.72,9.72,0,0,1-2.69,3.22c-1,.74-1.94,1.36-2.73,1.84a14.44,14.44,0,0,1-4.59,1.7,30.4,30.4,0,0,1-5.91.53c-.4,0-.91,0-1.55-.07l-2.16-.13c-.81,0-1.66-.06-2.53-.06-1.14,0-2.1,0-2.89.06s-1.61.1-2.46.17S442.09,103.61,440.83,103.61Zm15.69-2.1a16,16,0,0,0,5-.75,7.12,7.12,0,0,0,3.81-3q1.49-2.19,1.48-6.59A10.66,10.66,0,0,0,466,87a10.31,10.31,0,0,0-1.87-3,8.13,8.13,0,0,0-1.94-1.61,15.11,15.11,0,0,0-2.13-1,10.4,10.4,0,0,0-3.78-.53,16.13,16.13,0,0,0-2.2.2,7.1,7.1,0,0,0-1.87.46,1.2,1.2,0,0,0-.65.66,2.45,2.45,0,0,0-.2,1V96.52a9,9,0,0,0,.2,1.81,3,3,0,0,0,.78,1.54,6.32,6.32,0,0,0,1.74,1.09A5.87,5.87,0,0,0,456.52,101.51Z"/><path d="M497.68,103.61a3.37,3.37,0,0,1-1.38-.23c-.35-.15-.53-.36-.53-.62,0-.44.71-.79,2.11-1.05a5.1,5.1,0,0,0,3.25-1.51,6,6,0,0,0,.75-3.41V67.11a7.66,7.66,0,0,0-.49-3.25c-.33-.63-1.33-1.1-3-1.41-1.44-.26-2.17-.66-2.17-1.18a.7.7,0,0,1,.46-.62,3.33,3.33,0,0,1,1.45-.23q1.77,0,2.76.06c.65.05,1.26.08,1.83.1s1.29,0,2.17,0,1.67,0,2.27,0,1.22,0,1.9-.1,1.61-.06,2.79-.06,1.9.28,1.9.85a.78.78,0,0,1-.52.72,6.17,6.17,0,0,1-1.64.46,6,6,0,0,0-3.45,1.61,4.43,4.43,0,0,0-1,3V80.05a.46.46,0,0,0,.33.49,2.35,2.35,0,0,0,.59.1h24.36c.3,0,.46-.27.46-.79V67.05a4.69,4.69,0,0,0-.92-3,5.44,5.44,0,0,0-3.42-1.64,6.17,6.17,0,0,1-1.64-.46.78.78,0,0,1-.52-.72c0-.57.63-.85,1.9-.85s2.16,0,2.92.06,1.5.08,2.2.1,1.53,0,2.5,0c.79,0,1.4,0,1.84,0s.94,0,1.51-.1,1.44-.06,2.62-.06a3.33,3.33,0,0,1,1.41.23c.33.15.5.36.5.62,0,.52-.73.92-2.17,1.18-1.62.31-2.61.83-3,1.58a7,7,0,0,0-.53,3V96.72a7.25,7.25,0,0,0,.62,3.48c.42.7,1.44,1.2,3.06,1.51q2.1.39,2.1,1.05c0,.26-.18.47-.53.62a3.37,3.37,0,0,1-1.38.23c-1.18,0-2.1,0-2.75-.09s-1.27-.13-1.84-.17-1.32-.06-2.23-.06-1.68,0-2.27.06-1.24.1-1.94.17-1.64.09-2.82.09a3.37,3.37,0,0,1-1.38-.23c-.35-.15-.52-.36-.52-.62a.68.68,0,0,1,.49-.66,9,9,0,0,1,1.61-.39,6.43,6.43,0,0,0,3.31-1.54,4.27,4.27,0,0,0,1.22-3.25V83.46a.29.29,0,0,0-.33-.33H507.46q-.33,0-.33.72V96.33a4.79,4.79,0,0,0,1.51,3.51,7,7,0,0,0,3.75,1.87,8.8,8.8,0,0,1,1.6.39.69.69,0,0,1,.5.66c0,.26-.18.47-.53.62a3.37,3.37,0,0,1-1.38.23c-1.18,0-2.15,0-2.92-.09s-1.5-.13-2.2-.17-1.55-.06-2.56-.06-1.7,0-2.33.06-1.31.1-2,.17S498.86,103.61,497.68,103.61Z"/><path d="M569.7,56.61l15.95,41.16a8,8,0,0,0,2.13,3.25,4,4,0,0,0,2.14,1v1.32c-1.14-.09-2.51-.15-4.1-.17s-3.23,0-4.9,0c-1.92,0-3.72,0-5.38,0s-3,.08-4.07.17V102c2.23-.08,3.65-.47,4.27-1.15s.48-2.13-.4-4.36L563.79,65.27,565,63.83l-10.5,27.24a18.42,18.42,0,0,0-1.64,6.67A3.6,3.6,0,0,0,554.4,101a8.66,8.66,0,0,0,4.27,1v1.32c-1.4-.09-2.76-.15-4.07-.17l-3.94,0q-1.44,0-2.73,0a20.31,20.31,0,0,0-2.26.17V102a6.08,6.08,0,0,0,2.85-1.7,13.67,13.67,0,0,0,2.73-4.8l15-38.86q.79.06,1.71.06T569.7,56.61Zm5.71,27.77v1.31H555.85l.65-1.31Z"/><path d="M628.32,56.81v1.31a11.28,11.28,0,0,0-3.38.49,2.47,2.47,0,0,0-1.54,1.58,12,12,0,0,0-.39,3.57V96.33c0,2.4.31,4,1,4.63s2,1,4.23,1h2c-.17,1.58-.29,3.11-.36,4.6s-.1,2.62-.1,3.41a35,35,0,0,0,.2,4.14h-1.51a26,26,0,0,0-1.41-6.4,6.32,6.32,0,0,0-2.89-3.42,11.45,11.45,0,0,0-5.29-1H601.08a11.47,11.47,0,0,0-5.29,1,6.14,6.14,0,0,0-2.85,3.42,28.32,28.32,0,0,0-1.45,6.4H590a35,35,0,0,0,.2-4.14c0-.79,0-1.92-.1-3.41s-.18-3-.36-4.6h20.42c2.23,0,3.68-.34,4.33-1s1-2.23,1-4.63V63.76c0-2.4-.34-3.95-1-4.62s-2-1-4-1h-.85a8.11,8.11,0,0,0-3,.42,2.43,2.43,0,0,0-1.35,1.65,19.67,19.67,0,0,0-.56,3.57q-.39,4.47-.75,9.79t-1,10.53a57.23,57.23,0,0,1-2,9.55,18.25,18.25,0,0,1-3.71,7,7.87,7.87,0,0,1-6.17,2.63V102A6.52,6.52,0,0,0,596,99.71a16.86,16.86,0,0,0,3.28-6.14,56.75,56.75,0,0,0,2-8.83q.76-5,1.15-10.34c.26-3.59.5-7.13.72-10.64.13-2.32-.13-3.81-.78-4.49s-2.17-1.06-4.53-1.15V56.81l3.28.13q1.9.06,3.48.06c1,0,2,0,2.92-.1s1.89-.09,2.86-.09c1.66,0,3.17,0,4.52.09s3,.1,4.86.1l3,0,3.09-.07Q627.27,56.87,628.32,56.81Z"/><path d="M634.49,103.61a4.72,4.72,0,0,1-1.37-.16c-.35-.11-.53-.3-.53-.56,0-.52.72-.92,2.17-1.18a8.64,8.64,0,0,0,3.81-1.51,4.05,4.05,0,0,0,1.31-3.35V67.18a4.64,4.64,0,0,0-1-3.28,6.48,6.48,0,0,0-3.45-1.45,4.7,4.7,0,0,1-1.64-.52,1,1,0,0,1-.53-.79c0-.26.18-.45.53-.56a4.75,4.75,0,0,1,1.38-.16c1.18,0,2.15,0,2.92.06s1.51.08,2.23.1,1.59,0,2.59,0h19a7.18,7.18,0,0,0,1-.1l.76-.09a2.46,2.46,0,0,1,.75.13c.29.09.43.24.43.46,0,1.35.1,2.79.17,4.3s.09,2.83.09,4a1.19,1.19,0,0,1-.19.59.61.61,0,0,1-.53.33.67.67,0,0,1-.56-.36,4.59,4.59,0,0,1-.36-.69c-.3-1-.6-2-.88-2.83a4.79,4.79,0,0,0-1.42-2.16,4.63,4.63,0,0,0-1.83-1.09,9.41,9.41,0,0,0-2.83-.36h-8.66a2.33,2.33,0,0,0-2.14,1,6,6,0,0,0-.62,3.08V96.85a3.94,3.94,0,0,0,1.38,3.35,9.06,9.06,0,0,0,3.81,1.51,6.58,6.58,0,0,1,1.64.46.8.8,0,0,1,.52.72c0,.26-.17.45-.52.56a4.75,4.75,0,0,1-1.38.16c-1.18,0-2.16,0-2.92-.09s-1.5-.13-2.2-.17-1.56-.06-2.56-.06-2,0-2.86.06-1.64.1-2.49.17S635.68,103.61,634.49,103.61Z"/><path d="M678.87,99.81a22.39,22.39,0,0,1,3.35.62,30.28,30.28,0,0,1,3,.95v1.91h-18v-1.91a12.25,12.25,0,0,1,2.69-1c.92-.22,1.82-.42,2.69-.59V60.88a22,22,0,0,1-2.82-.69c-.88-.29-1.73-.6-2.56-1v-1.9h5.91c1.75,0,3.65-.09,5.71-.26s4-.26,5.91-.26a28.81,28.81,0,0,1,6.3.68,15.69,15.69,0,0,1,5.48,2.33,12.32,12.32,0,0,1,3.87,4.37,14.08,14.08,0,0,1,1.48,6.8,13.59,13.59,0,0,1-1.51,6.63,13.33,13.33,0,0,1-4,4.53,17.45,17.45,0,0,1-5.74,2.59,26.58,26.58,0,0,1-6.63.82h-1l-1.47,0c-.53,0-1-.06-1.52-.1s-.83-.09-1-.13Zm4.47-39.59c-1.05,0-1.9,0-2.56.06a14.64,14.64,0,0,0-1.91.27V81.82a3.05,3.05,0,0,0,1,.16c.41,0,.85.06,1.31.1s.91.07,1.34.07h1.06a14.58,14.58,0,0,0,4.33-.63,9.43,9.43,0,0,0,3.58-2A10,10,0,0,0,693.91,76a12.58,12.58,0,0,0,.92-5.05q0-5.38-3.06-8.08T683.34,60.22Z"/><path d="M729.48,58.12q9.93,0,16.06,6.54,6,6.38,6,16.38t-6,16.44a20.78,20.78,0,0,1-16,6.74q-9.87,0-16.22-6.51a22.56,22.56,0,0,1-6.35-16.41q0-10,6.25-16.55A21.67,21.67,0,0,1,729.48,58.12Zm-.77,3a13.67,13.67,0,0,0-11.64,5.8,21.22,21.22,0,0,0-3.81,12.85,27.29,27.29,0,0,0,1.86,10.17,19.26,19.26,0,0,0,6.09,8.28,14.52,14.52,0,0,0,9.14,3.1,12.94,12.94,0,0,0,11.41-6q3.42-5.16,3.43-13a24.76,24.76,0,0,0-4.33-14.77Q736.21,61.07,728.71,61.07Z"/><path d="M760.27,103.29V55.69h29.87v4.07H764.67V75h12.41c10.3,0,16.47,3.81,16.47,13.79s-6.1,14.51-16.61,14.51Zm4.4-4.07h12.27c7.42,0,11.89-3.55,11.89-10.38,0-7.48-4.53-9.84-12.28-9.84H764.67Z"/><path d="M800.69,56.29h5.64V93.51l25-37.22h6.25v47h-5.64V66.16l-25,37.13h-6.21Z"/><path d="M879.48,102.89c0,.26-.05.4-.14.4-1.4,0-2.49,0-3.28-.07l-4.53-.07-4.59.07c-.79,0-1.86.07-3.22.07-.09,0-.13-.14-.13-.4s0-.39.13-.39a14.94,14.94,0,0,0,3.68-.33,2.23,2.23,0,0,0,1.57-1.28,8.13,8.13,0,0,0,.4-2.92V82a9.48,9.48,0,0,0-3.78,1,11,11,0,0,0-3.35,3,50.4,50.4,0,0,0-4.17,6.34q-3.21,5.51-4.89,7.87a11.12,11.12,0,0,1-2.36,2.76,3.65,3.65,0,0,1-1.81.4h-6.76c-.13,0-.19-.14-.19-.4s.06-.39.19-.39a8.17,8.17,0,0,0,5.91-2.66,46.19,46.19,0,0,0,6-8.9,27.71,27.71,0,0,1,4.6-6.3A10.64,10.64,0,0,1,863.65,82Q858,81.5,855,78.9a8.48,8.48,0,0,1-3-6.73,9.18,9.18,0,0,1,1.54-5.25,10.18,10.18,0,0,1,4.27-3.58,14.14,14.14,0,0,1,6.14-1.28c1,0,2.16.06,3.48.19.52,0,1.13.09,1.83.14s1.47.06,2.3.06c1.14,0,2.63,0,4.47-.13l3.34-.07c.09,0,.14.14.14.4s-.05.39-.14.39a14,14,0,0,0-3.74.36A2.33,2.33,0,0,0,874,64.68a7.69,7.69,0,0,0-.4,2.89V98a7.41,7.41,0,0,0,.43,2.92,2.31,2.31,0,0,0,1.58,1.28,14.74,14.74,0,0,0,3.7.33C879.43,102.5,879.48,102.63,879.48,102.89ZM859.12,78.21c1.8,1.92,4.4,2.89,7.82,2.89.56,0,1.38,0,2.43-.14V67.7A4.19,4.19,0,0,0,867.79,64a6.8,6.8,0,0,0-3.94-1.08q-7.43,0-7.42,7.62A10.85,10.85,0,0,0,859.12,78.21Z"/></svg>