<svg id="Слой_1" data-name="Слой 1" xmlns="http://www.w3.org/2000/svg" viewBox="0 0 110.5 100"><defs><style>.cls-1{fill:#fff;stroke:#000;stroke-miterlimit:10;stroke-width:2px;}</style></defs><title>place2</title><path class="cls-1" d="M96.07,63.88c3.83-2.47,4.44-10.42,1.77-12.35-1.3-.93-2.42.23-4.19-.66-2.94-1.47-4.54-7-2.65-10.14,1.7-2.83,4.8-1.38,9-4.63.28-.21,6.18-4.84,5.29-9.26-.77-3.82-5.81-3.41-8.6-9.26-1.16-2.44-1.12-4.28-2.42-4.63-1.57-.41-4,1.61-4.63,4-.82,3.26,2.56,4.62,2.64,8.16.11,4.72-5.75,8.43-11.24,11.9-4.87,3.09-7.52,4.76-11,4.41-4.67-.46-5.35-4-10.8-6.83C52.94,31.25,46.49,32.11,39.64,33c-7.23.95-12.88,1.7-17.86,6.17-7.52,6.74-8.11,17.12-8.16,18.08-.32,7.54,3,10.94.45,15-2.8,4.35-9.26,4.44-9,5.95.15,1.07,3.54,1.56,6,1.32.87-.09,4.72-.58,6.83-3.53.52-.72.35-.78,1.55-3.52,1.36-3.13,1.7-3.36,2.42-5.07,2-4.92.95-7.28,2.65-8.16,1.48-.78,3.58.37,4.63,1.32,2.54,2.32,2.44,6.78.66,8.38-1.23,1.1-2.89.52-3.53,1.76s.32,2.68.44,2.87a5.45,5.45,0,0,0,5.07,2.2c3.22-.33,4-3.39,6.39-3.3,1.7,0,2.69,1.57,4.19,3.3,2,2.27,6.95,8,11.91,8.6s6.89-4.33,11.9-3.53c3.5.56,4.49,5.15,6.62,4.63,1.43-.35,1.26-2.26,3.3-3.3,1.49-.76,3-.47,5.29,0,4.72,1,5,2.46,7.28,2.2,2.85-.33,5.06-3,6-5.29.38-1,1.29-3.31.22-5.07-1.33-2.18-4.37-1.31-5.29-3.31-.68-1.48.27-3.51,1.32-4.63C92.46,64.31,94.15,65.12,96.07,63.88Z"/></svg>