<svg id="Слой_1" data-name="Слой 1" xmlns="http://www.w3.org/2000/svg" viewBox="0 0 110.5 100"><defs><style>.cls-1{fill:#fff;stroke:#000;stroke-miterlimit:10;stroke-width:2px;}</style></defs><title>place</title><path class="cls-1" d="M92.94,52.12c6.51-5.43,8.21-18.54,3.75-21.94-1.61-1.23-3.17-.55-4.5-2.25-1.58-2-.17-4-1.5-6.19-.45-.73-1.31-1.69-6.75-3.19-5.13-1.41-7.69-2.12-10.13-1.87-1.13.11-7.81.79-10.13,5.25-1.17,2.26,0,3.16-.37,9.37-.28,4.76-.42,7.13-2.06,9.38-3,4.12-8.39,4.31-8.63,4.31-2.09,0-3.4-.58-7.31-2.44-8.13-3.86-12.23-5.79-13.88-6-5.67-.7-10.35,2.55-11.62,3.38-.4.25-.09.08-5.25,4.87-3.89,3.61-4.68,4.29-5.44,5.82-.46.92-2.29,4.58-.56,7.31C10,60.17,13.29,61,14,60.18s-2.26-3.56-1.31-5.44c.79-1.56,3.8-1.53,6.94-1.5,3.44,0,5.15,0,6.75,1.13,2.25,1.51,1.64,3.26,4.31,7.69,1.81,3,3.13,5.19,5.63,6.37,3.39,1.61,5-.51,8.81,1.13a12.17,12.17,0,0,1,5.44,5.06c2.27,3.77.71,5.47,2.25,9.19,2.13,5.15,8,8.81,13.5,9.19,2.56.17,4.42-.41,7.31-1.32,3.91-1.22,8.55-2.67,11.44-6.94,2.1-3.08,2.38-6.34,2.63-9.18.37-4.34-.7-4.27-.57-9.38.1-3.61.33-9.13,4.13-12.75A21,21,0,0,1,92.94,52.12Z"/></svg>