<svg id="Слой_1" data-name="Слой 1" xmlns="http://www.w3.org/2000/svg" viewBox="0 0 110.5 100"><defs><style>.cls-1{fill:#fff;stroke:#000;stroke-miterlimit:10;stroke-width:2px;}</style></defs><title>place5</title><path class="cls-1" d="M88.62,18.67c-1.61-4.91-10.76-8-18.06-6.23s-6.38,6.61-14.77,10.5c-9.94,4.61-16.51.23-21.34,5.91-.32.38-4,4.82-2.29,8.86.86,2.08,4,1.77,4.59,3.94.44,1.52-.79,2.1-.65,3.94.2,2.82,3.23,3.33,4.59,6.24s.63,7.22-1.64,9.19c-3.66,3.17-11.76.62-15.76-3.94-3.27-3.73-1.9-6.64-5.58-9.85S8.23,43.35,7.54,44.61c-.54,1,2.2,2.44,4.59,6.56,2.29,3.94,1.58,5.69,3.28,11.82,2,7.16,3,10.87,6.24,13.13,4.51,3.17,8.37,0,12.15,3.61,2.86,2.73,1.85,5.71,4.92,7.55,2.28,1.36,4.82.91,7.88.33,4.67-.9,10.73-1.6,13.13-5.91,1.7-3,.55-6,1.64-6.24,1.31-.35,4.62,3.44,4.27,7.22-.41,4.43-5.61,6.43-4.93,8.21.48,1.25,3.41,1.21,8.21,1,10.22-.49,15.32-.73,17.73-1.64,1.7-.64,8.55-3.21,12.8-9.52,8.65-12.83,2.8-35.56-7.22-43.33C90.73,36.22,88,34.51,87,31.15,85.39,25.87,90,22.74,88.62,18.67Z"/></svg>