<svg id="Слой_1" data-name="Слой 1" xmlns="http://www.w3.org/2000/svg" viewBox="0 0 110.5 100"><defs><style>.cls-1{fill:#fff;stroke:#000;stroke-miterlimit:10;stroke-width:2px;}</style></defs><title>place4</title><path class="cls-1" d="M62.11,14.5c-2.09-1.58-5.6-1.55-7.93-.84-3.34,1-3.14,3.07-7.26,5.86-3.85,2.61-5.22,1.64-8.59,3.91-3.92,2.65-3.93,5.25-6.6,8.66a24.89,24.89,0,0,1-13.54,8.38c-4.4.94-5.63-.27-8.26,1.12C5.94,43.7,3.86,49.13,5.64,53c1.41,3.11,4.17,2.86,10.57,7.26,5.06,3.48,9.85,6.77,10.89,11.45,1.41,6.32-3.65,7.61-1.65,9.26,1.81,1.5,7.1,2.22,11.56-.88,4.85-3.37,4.24-5.33,8.26-7.26,6.63-3.19,14.17-.69,14.53-.56a18.68,18.68,0,0,1,8.91,7c3.75,4.81,2.15,6.67,5,8.66,4.88,3.44,14.71,1.32,20.8-2.24a20.54,20.54,0,0,0,7.27-6.7c5.9-9.46-3.82-15.31-4-34.35,0-6.6,1.07-11.85-3-14.52-3.39-2.25-6.94-.37-10.24-2.8-5.35-3.93-1.6-13-4-13.68-1.08-.3-2.55,3.11-7.93,8.38-1.29,1.27-2.58,2.42-4,2.23-.78-.1-1.5-.63-3-3.07C63.15,16.88,63.71,15.71,62.11,14.5Z"/></svg>