<svg id="Слой_1" data-name="Слой 1" xmlns="http://www.w3.org/2000/svg" viewBox="0 0 110.5 100"><defs><style>.cls-1{fill:#fff;stroke:#000;stroke-miterlimit:10;stroke-width:2px;}</style></defs><title>place3</title><path class="cls-1" d="M28.43,19.82c4-1.57,5.93-2.35,8.3-2.16,7.52.62,8.88,8.23,17.7,10.36,1.89.46,4.84.24,10.72-.22,9.94-.77,11.06-2.11,16.25-1.93,4,.15,12.55.46,16,5.63,4.39,6.57-3.79,14.47.86,22.23,3.23,5.4,9.34,5.17,9.32,8.55s-6.43,7.53-12.18,7c-4.82-.44-6-3.81-10.42-4.55-3.13-.52-7.88.26-14.56,6.65,3.8,10,3.75,13.2,2.67,13.85-2.55,1.55-9.35-11.43-22.53-13.43a27.59,27.59,0,0,0-15,2.29c-10.4,4.71-13.44,14.1-16,13.05s-2-12-.41-19.46c1.18-5.52,3.19-10.74.51-13.92-1.15-1.36-2.33-1.36-3.24-3.11-1.64-3.11.87-5.44-.17-7.94C14.37,38.33,4.33,40,3.76,37.42,3.45,36,6.31,34.69,12,30.89,21.43,24.53,22.15,22.31,28.43,19.82Z"/></svg>