<svg id="Слой_1" data-name="Слой 1" xmlns="http://www.w3.org/2000/svg" viewBox="0 0 110.5 100"><defs><style>.cls-1{fill:#fff;stroke:#000;stroke-miterlimit:10;stroke-width:2px;}</style></defs><title>place6</title><path class="cls-1" d="M87.81,63.23c5.06-5.54,16.63.55,19.3-4,1.59-2.71-2.27-5.37-.73-11.23.9-3.46,2.82-4.7,2.05-6.72s-3-1.7-6.16-4.14c-4.06-3.15-2.71-5.57-5.66-7.24-4.23-2.4-7.94,2.06-14-.31-2.29-.91-1.8-1.57-5.41-3.51-3.11-1.66-6.41-3.43-9.86-3.15-5.4.43-10.25,5.84-11.52,11.25-1.45,6.16,2.15,10.55-.11,12.35s-7-.91-8.46-1.68c-4.59-2.46-5.25-5-9.8-9.07C34,32.68,30.9,29.92,26.35,28.9c-6-1.36-7.72,1.87-16.89.79-2.84-.34-4.05-.81-5.07,0-2.5,2-1.2,9.69,3,14.68,3.63,4.34,7.23,4.05,9.37,8.86,1,2.2.85,3.64,2.48,5.12,1.88,1.72,3.69,1.28,6.88,2.18a22.11,22.11,0,0,1,9.35,5.74c4.11,4,2.33,5.4,6.2,9.34C46,80,49.48,79.57,51.22,83.56c1.31,3,.4,5.82,1,5.94s1.29-4.48,4.46-9.39a20.73,20.73,0,0,1,8.07-7.56c1.52-.76,6.77-3.4,9.71-1.31,1.88,1.34,1.62,3.77,3.42,4.3.36.11,1.65.39,4-1.6C86.36,70.14,85.1,66.19,87.81,63.23Z"/></svg>