<svg id="Слой_1" data-name="Слой 1" xmlns="http://www.w3.org/2000/svg" viewBox="0 0 400 400"><defs><style>.cls-1,.cls-2{fill:#fff;stroke:#000;stroke-width:3px;}.cls-1{stroke-miterlimit:10;}.cls-2{stroke-linecap:round;stroke-linejoin:round;}.cls-3{fill:#b8ad99;}</style></defs><title>g14</title><path class="cls-1" d="M350.59,380H49.26S-4,120.67,49.26,65s254-61.26,301.33,0S350.59,380,350.59,380Z"/><path class="cls-1" d="M134.43,189.46c9.58-3.8,14.36-5.69,20.09-5.22,18.2,1.49,21.5,19.9,42.84,25.07,4.59,1.11,11.71.56,26-.53,24.06-1.86,26.77-5.12,39.34-4.67,9.6.35,30.37,1.1,38.75,13.63,10.63,15.88-9.17,35,2.08,53.81,7.82,13.06,22.6,12.51,22.55,20.69-.05,8.36-15.55,18.21-29.47,17-11.67-1.06-14.43-9.23-25.23-11-7.58-1.26-19.06.65-35.25,16.12,9.2,24.32,9.09,31.93,6.46,33.52-6.16,3.75-22.63-27.68-54.53-32.53-16.47-2.5-30.81,3-36.44,5.57-25.17,11.39-32.51,34.11-38.77,31.58-6.44-2.61-4.82-29.05-1-47.11,2.84-13.36,7.71-26,1.22-33.68-2.77-3.3-5.62-3.31-7.85-7.53-4-7.53,2.11-13.19-.39-19.23-4.41-10.62-28.71-6.58-30.09-12.84-.76-3.44,6.18-6.59,19.87-15.8C117.5,200.86,119.22,195.49,134.43,189.46Z"/><line class="cls-2" x1="170.19" y1="226.18" x2="127.19" y2="256.54"/><path class="cls-1" d="M206.75,274a13.06,13.06,0,0,1,0-8.53,19.21,19.21,0,0,1,3.46-6.23"/><path class="cls-1" d="M219.64,249.85a13.05,13.05,0,0,1,6-6,19.29,19.29,0,0,1,6.85-2"/><path class="cls-1" d="M248.12,239.16a13,13,0,0,1,8.51.68,19.19,19.19,0,0,1,5.94,3.95"/><rect class="cls-2" x="152.69" y="249" width="30.46" height="30.46" transform="translate(-137.66 196.13) rotate(-45)"/><polygon class="cls-3" points="266.19 246.81 266.48 242.67 268.67 246.19 271.55 243.2 270.95 247.31 275.08 246.88 271.99 249.65 275.43 251.96 271.28 252.09 272.43 256.08 269.17 253.52 267.48 257.31 266.63 253.25 262.9 255.07 264.86 251.41 260.83 250.41 264.69 248.87 262.24 245.51 266.19 246.81"/><path class="cls-3" d="M215.83,277.55a6.5,6.5,0,1,1-9-1.77,6.49,6.49,0,0,1,9,1.77"/><polygon class="cls-3" points="212.78 250.12 215.9 246.37 217.38 251.02 221.13 254.13 216.48 255.61 213.36 259.36 211.89 254.71 208.14 251.6 212.78 250.12"/><polygon class="cls-3" points="238.44 237.92 240.5 234.1 242.28 238.06 246.56 238.84 243.34 241.76 243.92 246.07 240.15 243.91 236.23 245.79 237.12 241.54 234.11 238.39 238.44 237.92"/><polygon class="cls-3" points="160.12 260.71 162.68 257.43 162.53 261.59 166.6 260.71 163.81 263.81 167.49 265.76 163.36 266.33 164.93 270.19 161.4 267.97 160.12 271.94 158.84 267.97 155.31 270.19 156.88 266.33 152.75 265.76 156.44 263.81 153.64 260.71 157.72 261.59 157.56 257.43 160.12 260.71"/><polygon class="cls-3" points="176.38 260.71 178.94 257.43 178.79 261.59 182.87 260.71 180.07 263.81 183.75 265.76 179.63 266.33 181.19 270.19 177.66 267.97 176.38 271.94 175.1 267.97 171.57 270.19 173.14 266.33 169.02 265.76 172.7 263.81 169.9 260.71 173.98 261.59 173.82 257.43 176.38 260.71"/><path d="M201.57,226.18a8.24,8.24,0,1,1-8.24-8.24,8.24,8.24,0,0,1,8.24,8.24"/><path d="M117.22,102.68h3.84v20.08h-3.84v-7.83l-.88.31q-.45.14-1,.24a9.74,9.74,0,0,1-1.19.14c-.43,0-.92,0-1.47,0a7.57,7.57,0,0,1-3-.52,4.93,4.93,0,0,1-2-1.46,5.77,5.77,0,0,1-1.08-2.19,11.23,11.23,0,0,1-.32-2.73v-6.08h3.84v5a9.8,9.8,0,0,0,.19,2,3.2,3.2,0,0,0,.62,1.38,2.52,2.52,0,0,0,1.15.8,5.19,5.19,0,0,0,1.75.25,8.5,8.5,0,0,0,2-.21,4.72,4.72,0,0,0,1.33-.52Z"/><path d="M131.41,123.27a5.79,5.79,0,0,1-1.38-.16,2.89,2.89,0,0,1-1-.35,1.06,1.06,0,0,1-.15-.15.36.36,0,0,1-.07-.22.33.33,0,0,1,.1-.24.3.3,0,0,1,.21-.1,2.57,2.57,0,0,0,1.61-.59,8.06,8.06,0,0,0,1.47-1.54c.47-.63.92-1.3,1.36-2s.86-1.38,1.27-2.06a16.12,16.12,0,0,1,1.26-1.78,3.66,3.66,0,0,1,1.26-1q.19-.07.15-.24a.8.8,0,0,0-.21-.32,6.85,6.85,0,0,1-.66-.77,5.11,5.11,0,0,1-.67-1.18l-1.19-2.83a2.26,2.26,0,0,0-.84-1.19,2,2,0,0,0-.82-.2,2.22,2.22,0,0,0-.91.29,2.38,2.38,0,0,1-1,.28.91.91,0,0,1-.66-.43,1.64,1.64,0,0,1-.36-1.1,1.61,1.61,0,0,1,.27-1,1.39,1.39,0,0,1,1.17-.38,4.08,4.08,0,0,1,1.83.37,3.56,3.56,0,0,1,1.19,1,6.1,6.1,0,0,1,.8,1.4l1.19,2.74a8.44,8.44,0,0,0,1.51,2.29,3.36,3.36,0,0,0,2.22.82h1c.11,0,.17,0,.18-.1a3.13,3.13,0,0,0,0-.41V107a1.7,1.7,0,0,0-.41-1.33,3.37,3.37,0,0,0-1.49-.54c-.62-.11-.93-.3-.93-.56s.08-.2.23-.24a1.94,1.94,0,0,1,.59-.07l1.26,0,.95.05H144l.84-.05,1.22,0a1.9,1.9,0,0,1,.59.07c.16,0,.23.12.23.24a.4.4,0,0,1-.23.34,2,2,0,0,1-.7.22,3.93,3.93,0,0,0-1.53.54,1.54,1.54,0,0,0-.48,1.33v5.06a3.91,3.91,0,0,0,0,.41c0,.07.07.1.19.1h1a3.53,3.53,0,0,0,2.24-.79,6.87,6.87,0,0,0,1.49-2.32l1.19-2.74a5.88,5.88,0,0,1,1.34-2,3.5,3.5,0,0,1,2.47-.79c.61,0,1,.13,1.18.38a1.61,1.61,0,0,1,.27,1,1.64,1.64,0,0,1-.36,1.1.91.91,0,0,1-.66.43,2.3,2.3,0,0,1-1-.28,2.22,2.22,0,0,0-.91-.29,2,2,0,0,0-.8.2c-.3.13-.58.53-.87,1.19l-1.18,2.83a5.11,5.11,0,0,1-.67,1.18,8.07,8.07,0,0,1-.66.77c-.27.26-.29.45-.06.56a3.51,3.51,0,0,1,1.27,1,16.12,16.12,0,0,1,1.25,1.78c.41.68.84,1.37,1.27,2.06s.91,1.37,1.37,2a7.5,7.5,0,0,0,1.47,1.54,2.58,2.58,0,0,0,1.6.59.29.29,0,0,1,.22.1.37.37,0,0,1,0,.46.75.75,0,0,1-.16.15,2.85,2.85,0,0,1-.94.35,5.83,5.83,0,0,1-1.4.16,2,2,0,0,1-1.08-.34A5.23,5.23,0,0,1,152,122a15,15,0,0,1-1-1.33q-.51-.73-1-1.53c-.57-.92-1.1-1.81-1.61-2.67a10,10,0,0,0-1.42-1.94c-.18-.2-.36-.38-.52-.53a1.62,1.62,0,0,0-.72-.36,6.82,6.82,0,0,0-1.53-.13.21.21,0,0,0-.22.17,1,1,0,0,0-.06.32v6a2,2,0,0,0,.27,1.1,1.67,1.67,0,0,0,.76.65,4.86,4.86,0,0,0,1.2.37,3.18,3.18,0,0,1,.71.2.36.36,0,0,1,.23.31c0,.11-.08.19-.23.24a1.94,1.94,0,0,1-.59.07c-.51,0-.93,0-1.26,0l-.95-.07c-.3,0-.67,0-1.1,0s-.88,0-1.23,0l-1.08.07c-.36,0-.8,0-1.31,0a1.9,1.9,0,0,1-.59-.07c-.16,0-.23-.13-.23-.24s.31-.39.93-.51a3.62,3.62,0,0,0,1.64-.65,1.76,1.76,0,0,0,.57-1.47v-6a1,1,0,0,0-.06-.32.23.23,0,0,0-.23-.17,6.86,6.86,0,0,0-1.51.13,1.51,1.51,0,0,0-.72.36l-.54.53a7.94,7.94,0,0,0-.92,1.16c-.33.49-.66,1-1,1.63l-1.09,1.82c-.42.7-.86,1.36-1.32,2a8.64,8.64,0,0,1-1.4,1.55A2.25,2.25,0,0,1,131.41,123.27Z"/><path d="M165.46,123.16v-2.49h1.92a2.53,2.53,0,0,0,2.46-1.36l.4-.73-7.64-16.32h3.11l6,13.32,5.48-13.32h3.2l-7.55,17.14c-1.1,2.37-2.86,3.76-5.23,3.76Z"/><path d="M187.06,103.87a.13.13,0,0,1,.14-.14h7.42c.09,0,.13,0,.13.14v.73c0,.1,0,.14-.13.14l-2.27.24a.12.12,0,0,0-.14.14V112c0,.06,0,.09,0,.09h9.08a.12.12,0,0,0,0-.09v-6.84a.12.12,0,0,0-.14-.14l-2.26-.24c-.1,0-.14,0-.14-.14v-.73a.12.12,0,0,1,.14-.14h7.41a.13.13,0,0,1,.14.14v.73a.12.12,0,0,1-.14.14L204,105c-.09,0-.13,0-.13.14v16.26c0,.09,0,.14.13.14l2.42.22c.09,0,.14.05.14.15v.73a.13.13,0,0,1-.14.14H199a.12.12,0,0,1-.14-.14v-.73c0-.1,0-.15.14-.15l2.26-.22a.13.13,0,0,0,.14-.14v-7.9a.13.13,0,0,0-.14-.14h-8.88a.13.13,0,0,0-.14.14v7.9a.13.13,0,0,0,.14.14l2.27.22c.09,0,.13.05.13.15v.73c0,.09,0,.14-.13.14H187.2a.13.13,0,0,1-.14-.14v-.73c0-.1.05-.15.14-.15l2.4-.22a.12.12,0,0,0,.14-.14V105.12c0-.1,0-.14-.14-.14l-2.4-.24a.12.12,0,0,1-.14-.14Z"/><path d="M240.62,103.7v19.06h-2.49v-17h-6.3v5.77c0,4.12-.17,8.73-2.86,10.54a5.73,5.73,0,0,1-2.91.91l-.31-2a4.41,4.41,0,0,0,2-1c1.52-1.5,1.67-5.2,1.67-8.26v-8Z"/><path d="M249.5,122.85a.86.86,0,0,1-.38-.1.33.33,0,0,1-.18-.3c0-.3.2-.5.59-.59a3.3,3.3,0,0,0,1.46-.58,1.71,1.71,0,0,0,.38-1.26V107.18a1.9,1.9,0,0,0-.34-1.3,3,3,0,0,0-1.44-.62c-.42-.1-.62-.3-.62-.6a.36.36,0,0,1,.18-.31.76.76,0,0,1,.38-.11l1.37,0,1.4.07c.46,0,.87,0,1.25,0l1.28,0,1.47,0,1.38,0a.59.59,0,0,1,.38.1.35.35,0,0,1,.13.29.48.48,0,0,1-.16.4,1.66,1.66,0,0,1-.44.2,3.19,3.19,0,0,0-1.51.7,1.83,1.83,0,0,0-.36,1.25v9.58c0,.27,0,.41.09.43s.17-.06.34-.23l8.17-9a.86.86,0,0,0,.28-.62v-.29a1.68,1.68,0,0,0-.41-1.21,3.2,3.2,0,0,0-1.45-.62c-.42-.1-.62-.3-.62-.6a.36.36,0,0,1,.18-.31.76.76,0,0,1,.38-.11l1.37,0,1.43.07c.47,0,.9,0,1.27,0l1.26,0,1.44,0,1.38,0a.61.61,0,0,1,.38.1.34.34,0,0,1,.12.29.48.48,0,0,1-.15.4,1.83,1.83,0,0,1-.44.2,2.91,2.91,0,0,0-1.47.7,2,2,0,0,0-.31,1.25V120a1.74,1.74,0,0,0,.34,1.2,2.9,2.9,0,0,0,1.44.67,1.52,1.52,0,0,1,.47.19.44.44,0,0,1,.15.37.38.38,0,0,1-.14.31.59.59,0,0,1-.39.12c-.42,0-.88,0-1.38,0l-1.47-.07-1.28,0-1.25,0-1.4.07c-.48,0-.94,0-1.37,0a.86.86,0,0,1-.38-.1.33.33,0,0,1-.18-.3c0-.3.19-.5.59-.59a3.6,3.6,0,0,0,1.47-.57,1.5,1.5,0,0,0,.42-1.22v-9.75c0-.25-.08-.29-.25-.14l-8.26,9.1a1.87,1.87,0,0,0-.28.36.8.8,0,0,0-.09.41,1.47,1.47,0,0,0,.43,1.17,4,4,0,0,0,1.5.64,1.52,1.52,0,0,1,.44.19.44.44,0,0,1,.15.37.37.37,0,0,1-.13.31.52.52,0,0,1-.38.12c-.41,0-.87,0-1.38,0l-1.5-.07-1.3,0-1.26,0-1.41.07C250.39,122.83,249.94,122.85,249.5,122.85Z"/><path d="M118.84,149.77h-.62l-1.08,0-1.26-.05-1.19,0-1.36,0-1.71,0-1.5,0-.81,0a.78.78,0,0,1-.3-.16c-.15-.1-.22-.2-.22-.28a.31.31,0,0,1,.08-.24l.18-.18,4.19-4.45a12.26,12.26,0,0,0,2.11-3,7.47,7.47,0,0,0,.79-3.36,2.86,2.86,0,0,0-.72-2,2.4,2.4,0,0,0-1.81-.76,3.42,3.42,0,0,0-1.88.56,4.64,4.64,0,0,0-1.41,1.38,1.42,1.42,0,0,1-.26.29.58.58,0,0,1-.34.13c-.09,0-.17-.07-.25-.21a1.14,1.14,0,0,1-.11-.52,1.89,1.89,0,0,1,.39-.92,6.06,6.06,0,0,1,1.08-1.18,6.93,6.93,0,0,1,1.66-1,5.27,5.27,0,0,1,2.07-.41,4.17,4.17,0,0,1,2.23.56,3.74,3.74,0,0,1,1.43,1.52,5,5,0,0,1,.49,2.22,5,5,0,0,1-.27,1.53,9.13,9.13,0,0,1-.72,1.6,9.75,9.75,0,0,1-1,1.43c-.23.27-.55.63-1,1.06l-1.35,1.36L113.06,146l-1,1.05a2.07,2.07,0,0,0-.4.47q0,.1.36.15a10.25,10.25,0,0,0,1,.08q.58,0,1.26,0t1.38,0c.46,0,.91,0,1.34-.08a6.34,6.34,0,0,0,1.11-.15,1.5,1.5,0,0,0,.71-.39,3.39,3.39,0,0,0,.59-.8,3.28,3.28,0,0,1,.28-.37.53.53,0,0,1,.39-.2.21.21,0,0,1,.21.13.46.46,0,0,1,0,.26c0,.2-.14.48-.26.82s-.24.72-.36,1.11a10.46,10.46,0,0,0-.28,1.1.65.65,0,0,1-.25.48A.76.76,0,0,1,118.84,149.77Z"/><path d="M139.1,140.72a19.89,19.89,0,0,1-.32,3.76,8.78,8.78,0,0,1-1.08,2.92,5.33,5.33,0,0,1-2,1.89,6.18,6.18,0,0,1-3,.67,6.09,6.09,0,0,1-2.84-.6,4.65,4.65,0,0,1-1.86-1.77,8.36,8.36,0,0,1-1-2.87,22.89,22.89,0,0,1-.29-3.92,19.82,19.82,0,0,1,.33-3.75,8.91,8.91,0,0,1,1.07-2.92,5.25,5.25,0,0,1,2-1.9,6.21,6.21,0,0,1,3-.66,6.13,6.13,0,0,1,2.85.6,4.69,4.69,0,0,1,1.86,1.76,8.57,8.57,0,0,1,1,2.87A24,24,0,0,1,139.1,140.72Zm-2.43.16q0-1.33-.09-2.4a14.38,14.38,0,0,0-.29-1.88,5.88,5.88,0,0,0-.48-1.4,3.24,3.24,0,0,0-.71-1,2.54,2.54,0,0,0-.95-.56,4,4,0,0,0-1.19-.17,3.16,3.16,0,0,0-1.91.55,3.81,3.81,0,0,0-1.15,1.52,8,8,0,0,0-.57,2.27,24.22,24.22,0,0,0-.15,2.79,23.54,23.54,0,0,0,.2,3.4,7.62,7.62,0,0,0,.66,2.29,3.06,3.06,0,0,0,1.14,1.28,3.34,3.34,0,0,0,1.7.4,3.44,3.44,0,0,0,1.36-.25,2.73,2.73,0,0,0,1-.71,3.89,3.89,0,0,0,.7-1.11,7.16,7.16,0,0,0,.44-1.44,12,12,0,0,0,.23-1.7Q136.67,141.89,136.67,140.88Z"/><path d="M159.09,140.72a20.76,20.76,0,0,1-.32,3.76,8.78,8.78,0,0,1-1.08,2.92,5.33,5.33,0,0,1-2,1.89,6.2,6.2,0,0,1-3,.67,6.09,6.09,0,0,1-2.84-.6,4.65,4.65,0,0,1-1.86-1.77,8.36,8.36,0,0,1-1-2.87,22.82,22.82,0,0,1-.3-3.92,19.82,19.82,0,0,1,.33-3.75,8.92,8.92,0,0,1,1.08-2.92,5.25,5.25,0,0,1,2-1.9,7.09,7.09,0,0,1,5.84-.06,4.73,4.73,0,0,1,1.85,1.76,8.16,8.16,0,0,1,1,2.87A22.9,22.9,0,0,1,159.09,140.72Zm-2.43.16c0-.89,0-1.69-.1-2.4a13,13,0,0,0-.28-1.88,5.88,5.88,0,0,0-.48-1.4,3.43,3.43,0,0,0-.71-1,2.54,2.54,0,0,0-1-.56,4,4,0,0,0-1.19-.17,3.14,3.14,0,0,0-1.91.55,3.72,3.72,0,0,0-1.15,1.52,8,8,0,0,0-.57,2.27,22.09,22.09,0,0,0-.16,2.79,23.39,23.39,0,0,0,.21,3.4,7.62,7.62,0,0,0,.66,2.29,3.06,3.06,0,0,0,1.14,1.28,3.33,3.33,0,0,0,1.69.4,3.37,3.37,0,0,0,1.36-.25,2.69,2.69,0,0,0,1-.71,3.89,3.89,0,0,0,.7-1.11,7.87,7.87,0,0,0,.44-1.44,12,12,0,0,0,.23-1.7Q156.66,141.89,156.66,140.88Z"/><path d="M178.53,148.76a2.65,2.65,0,0,1,0,.44,1,1,0,0,1-.12.29.46.46,0,0,1-.15.16.43.43,0,0,1-.19,0H168.7a.34.34,0,0,1-.18,0,.61.61,0,0,1-.16-.16,1,1,0,0,1-.12-.29,1.89,1.89,0,0,1,0-.44,1.8,1.8,0,0,1,0-.43,1.5,1.5,0,0,1,.1-.3.47.47,0,0,1,.16-.18.34.34,0,0,1,.2-.06h3.72V134.2L169,136.26a1.59,1.59,0,0,1-.42.17.29.29,0,0,1-.25-.07.53.53,0,0,1-.14-.29,3.89,3.89,0,0,1,0-.53c0-.15,0-.29,0-.4a.9.9,0,0,1,.06-.27.67.67,0,0,1,.12-.2,1.16,1.16,0,0,1,.2-.16l4.11-2.64.14-.07.21-.05a1.19,1.19,0,0,1,.29,0h.41a4.28,4.28,0,0,1,.56,0,1.21,1.21,0,0,1,.34.08.32.32,0,0,1,.17.12.42.42,0,0,1,0,.16v15.7H178a.42.42,0,0,1,.21.06.57.57,0,0,1,.16.18,1.07,1.07,0,0,1,.09.3A2.52,2.52,0,0,1,178.53,148.76Z"/><path d="M186.62,145.29a.13.13,0,0,1-.15-.15,3.59,3.59,0,0,1,.11-.91c.08-.31.18-.48.3-.49l2.49-.35c.82-.11,1.65-.21,2.48-.3a.23.23,0,0,1,.14,0,.12.12,0,0,1,.07.12,3.46,3.46,0,0,1-.12.92c-.07.28-.22.44-.42.47-.78.13-1.57.24-2.37.35S187.5,145.21,186.62,145.29Z"/><path d="M209.13,149.77h-.63l-1.07,0-1.26-.05-1.19,0-1.36,0-1.71,0-1.5,0-.81,0a.72.72,0,0,1-.3-.16c-.15-.1-.22-.2-.22-.28a.31.31,0,0,1,.08-.24l.18-.18,4.19-4.45a12.26,12.26,0,0,0,2.11-3,7.47,7.47,0,0,0,.79-3.36,2.86,2.86,0,0,0-.72-2,2.41,2.41,0,0,0-1.82-.76,3.41,3.41,0,0,0-1.87.56,4.64,4.64,0,0,0-1.41,1.38,1.42,1.42,0,0,1-.26.29.58.58,0,0,1-.34.13c-.09,0-.17-.07-.25-.21a1.14,1.14,0,0,1-.11-.52A1.89,1.89,0,0,1,200,136a5.76,5.76,0,0,1,1.08-1.18,6.93,6.93,0,0,1,1.66-1,5.27,5.27,0,0,1,2.07-.41,4.17,4.17,0,0,1,2.23.56,3.65,3.65,0,0,1,1.42,1.52,4.84,4.84,0,0,1,.5,2.22,4.79,4.79,0,0,1-.28,1.53,8.4,8.4,0,0,1-.71,1.6,9.75,9.75,0,0,1-1,1.43c-.23.27-.55.63-1,1.06l-1.35,1.36L203.35,146l-1,1.05a2.07,2.07,0,0,0-.4.47q0,.1.36.15a10.25,10.25,0,0,0,1.05.08q.58,0,1.26,0c.46,0,.93,0,1.38,0s.91,0,1.34-.08a6.48,6.48,0,0,0,1.11-.15,1.55,1.55,0,0,0,.71-.39,3.39,3.39,0,0,0,.59-.8A2.4,2.4,0,0,1,210,146a.53.53,0,0,1,.39-.2.21.21,0,0,1,.21.13.46.46,0,0,1,0,.26c0,.2-.14.48-.26.82s-.24.72-.36,1.11a8.47,8.47,0,0,0-.28,1.1.65.65,0,0,1-.25.48A.76.76,0,0,1,209.13,149.77Z"/><path d="M229.39,140.72a20.76,20.76,0,0,1-.32,3.76A8.78,8.78,0,0,1,228,147.4a5.33,5.33,0,0,1-2,1.89,6.2,6.2,0,0,1-3,.67,6.09,6.09,0,0,1-2.84-.6,4.65,4.65,0,0,1-1.86-1.77,8.36,8.36,0,0,1-1-2.87,22.82,22.82,0,0,1-.3-3.92,19.79,19.79,0,0,1,.34-3.75,8.91,8.91,0,0,1,1.07-2.92,5.25,5.25,0,0,1,2-1.9,6.21,6.21,0,0,1,3-.66,6.13,6.13,0,0,1,2.85.6,4.6,4.6,0,0,1,1.85,1.76,8.36,8.36,0,0,1,1,2.87A24,24,0,0,1,229.39,140.72Zm-2.43.16q0-1.33-.09-2.4a14.38,14.38,0,0,0-.29-1.88,5.88,5.88,0,0,0-.48-1.4,3.43,3.43,0,0,0-.71-1,2.54,2.54,0,0,0-.95-.56,4,4,0,0,0-1.19-.17,3.16,3.16,0,0,0-1.91.55,3.72,3.72,0,0,0-1.15,1.52,8,8,0,0,0-.57,2.27,24.13,24.13,0,0,0-.16,2.79,23.39,23.39,0,0,0,.21,3.4,7.62,7.62,0,0,0,.66,2.29,3.06,3.06,0,0,0,1.14,1.28,3.34,3.34,0,0,0,1.7.4,3.44,3.44,0,0,0,1.36-.25,2.73,2.73,0,0,0,1-.71,3.89,3.89,0,0,0,.7-1.11,7.87,7.87,0,0,0,.44-1.44,12,12,0,0,0,.23-1.7Q227,141.89,227,140.88Z"/><path d="M242,149.78a.75.75,0,0,1-.33-.09.28.28,0,0,1-.18-.28.24.24,0,0,1,.17-.22,1.06,1.06,0,0,1,.34-.12,3.36,3.36,0,0,0,1.75-.56,1.43,1.43,0,0,0,.42-1.08V144.8c0-.09-.06-.16-.19-.2l-.23,0c-.77,0-1.49,0-2.16,0l-2.11.08c-.74,0-1.6.06-2.6.08a.28.28,0,0,1-.2-.1.28.28,0,0,1-.08-.19.11.11,0,0,1,0-.08c.25-.3.43-.52.54-.64s.21-.22.28-.31a3.27,3.27,0,0,0,.29-.38l7.46-10.72a4.42,4.42,0,0,1,.41-.52.65.65,0,0,1,.44-.27h.59c.1,0,.08.13,0,.4l-7.64,11a.53.53,0,0,0,0,.15c0,.07,0,.1,0,.1h4.89a.39.39,0,0,0,.23-.07c.08-.05.11-.1.11-.15v-4.39a1.26,1.26,0,0,1,.05-.42c0-.08.1-.14.21-.2a2.81,2.81,0,0,1,.9-.3c.32,0,.55-.07.68-.07s.33.15.37.46a11.12,11.12,0,0,1,.06,1.35V143c0,.11,0,.17.14.17l.59,0h1.34l.87-.05c.2,0,.31.08.31.23a1,1,0,0,1-.13.48,1.69,1.69,0,0,1-.27.42c-.09.12-.16.17-.2.17h-.67l-.71,0-.48,0-.4,0-.24.09c-.08,0-.13.06-.13.08v2.66a1.38,1.38,0,0,0,.39,1.13,4.22,4.22,0,0,0,1.51.62,1,1,0,0,1,.34.14.33.33,0,0,1,.17.26.28.28,0,0,1-.13.21.44.44,0,0,1-.3.1c-.52,0-.94,0-1.25,0s-.6-.06-.87-.07-.62,0-1.07,0-.85,0-1.15,0-.59,0-.89.07S242.48,149.78,242,149.78Z"/><path d="M268.12,128.34h1c0,.29,0,.66,0,1.11s-.06.91-.12,1.38-.12.92-.19,1.35a8.9,8.9,0,0,1-.23,1h-7.75l-.51,4h2.35a8.62,8.62,0,0,1,2.77.41,6,6,0,0,1,2.12,1.18,5.33,5.33,0,0,1,1.36,1.9,7.06,7.06,0,0,1-.13,5.43,6.26,6.26,0,0,1-1.65,2.12,7.66,7.66,0,0,1-2.46,1.33,9.76,9.76,0,0,1-3.06.46,8.2,8.2,0,0,1-3-.52,8.3,8.3,0,0,1-2.18-1.17l1.19-2.8h.82a6.67,6.67,0,0,1,.45.51l.54.65c.18.22.36.45.53.68l.46.59a4.47,4.47,0,0,0,.52.17,2.68,2.68,0,0,0,.63.06,4.17,4.17,0,0,0,1.59-.3,3.67,3.67,0,0,0,1.26-.84,3.93,3.93,0,0,0,.83-1.28,4.23,4.23,0,0,0,.31-1.66,3.84,3.84,0,0,0-.38-1.74,3.61,3.61,0,0,0-1-1.23,4.6,4.6,0,0,0-1.53-.72,6.93,6.93,0,0,0-1.84-.24l-2.46,0,1.13-10.32h7.38Z"/></svg>