<svg id="Слой_1" data-name="Слой 1" xmlns="http://www.w3.org/2000/svg" viewBox="0 0 400 400"><defs><style>.cls-1,.cls-2{fill:#fff;stroke:#000;stroke-width:3px;}.cls-1{stroke-miterlimit:10;}.cls-2{stroke-linecap:round;stroke-linejoin:round;}.cls-3{fill:#608b70;}.cls-4{fill:#b8ad99;}.cls-5{fill:#c1362d;}</style></defs><title>g16</title><path class="cls-1" d="M344.13,68.7c70.12,14.52-10,321.48-10,321.48h-277c-28-223.07-25.66-294.49-6.34-305.67,21.1-12.2,56.22,46.63,86.89,23.72,18.59-13.88,17.56-44.35,32.59-47.43,23.36-4.79,39.3,66.06,61.55,60.61,15.41-3.79,16-39.81,34.39-47.44,15.21-6.29,32,11.17,43.45,26.35C309.74,100.32,322.44,64.21,344.13,68.7Z"/><path class="cls-1" d="M291.76,282.57c17.77-11.46,25.95-43.41,15.93-53.19-3.61-3.53-7.68-2.31-10.46-6.94-3.29-5.48.8-9.91-1.84-15.78-.87-1.94-2.72-4.56-15.75-9.93-12.27-5.06-18.4-7.59-24.51-7.71-2.83-.06-19.58-.41-26.67,9.93-3.59,5.25-1,7.84-3.76,23.11-2.13,11.68-3.2,17.52-7.95,22.59-8.72,9.29-22.09,8.13-22.67,8.07-5.2-.54-8.25-2.47-17.37-8.25-19-12-28.54-18.06-32.55-19.07-13.83-3.47-26.4,3.17-29.81,4.84-1.06.52-.25.18-14.48,10.48-10.73,7.76-12.87,9.2-15.23,12.75-1.42,2.14-7.06,10.66-3.61,17.94,2.84,6,10.8,9,12.79,7.22,2.27-2.08-4.53-9.5-1.61-13.86,2.43-3.62,9.88-2.64,17.64-1.62,8.5,1.13,12.75,1.69,16.38,4.84,5.1,4.43,3.08,8.56,8.35,20.34,3.56,8,6.18,13.81,12,17.49,7.9,5,12.6.25,21.48,5.46,7.57,4.44,10.88,11.82,11.94,14.18,4.48,10,.1,13.76,2.79,23.44,3.72,13.41,17.13,24.24,30.65,26.84,6.3,1.21,11.06.34,18.51-1,10-1.85,22-4,30.43-13.72,6.12-7,7.81-15,9.28-22,2.25-10.62-.44-10.78,1.45-23.39,1.33-8.9,3.56-22.51,14.08-30.33C289.22,283.8,289.55,284,291.76,282.57Z"/><path class="cls-2" d="M232.22,334.75A9.07,9.07,0,0,1,214.37,333"/><path class="cls-2" d="M214.37,311.47a9.07,9.07,0,0,1,17.86-1.76"/><rect class="cls-1" x="198.98" y="297.31" width="50.15" height="50.15"/><polyline class="cls-2" points="238.3 263.38 238.3 229.93 268.91 229.93 278.49 229.93"/><polyline class="cls-2" points="278.49 237.5 278.49 270.12 238.3 270.12"/><path class="cls-3" d="M240.52,322.29a7.55,7.55,0,1,1-7.55-7.55,7.55,7.55,0,0,1,7.55,7.55"/><polygon class="cls-4" points="212.97 317.96 216.11 313.92 215.92 319.04 220.93 317.96 217.5 321.76 222.02 324.16 216.95 324.86 218.88 329.61 214.54 326.89 212.97 331.76 211.39 326.89 207.05 329.61 208.98 324.86 203.91 324.16 208.44 321.76 205 317.96 210.01 319.04 209.82 313.92 212.97 317.96"/><polygon class="cls-4" points="256.26 245.9 258.14 240.1 260.01 245.91 265.17 242.67 262.87 248.31 268.91 249.16 263.52 252 267.6 256.53 261.64 255.24 261.86 261.34 258.12 256.52 254.37 261.33 254.6 255.24 248.64 256.51 252.74 251.99 247.35 249.13 253.39 248.31 251.1 242.65 256.26 245.9"/><polygon class="cls-5" points="173.99 260.69 182.44 275.32 173.99 289.95 157.1 289.95 148.66 275.32 157.1 260.69 173.99 260.69"/><path d="M120.25,135.16a7.74,7.74,0,0,1,2.18.66.69.69,0,0,1,.3.23,2.12,2.12,0,0,1,.12.44l.31,3.38c0,.06,0,.09-.14.1s-.15,0-.17-.07a6,6,0,0,0-2.37-3.26,7.1,7.1,0,0,0-4-1.08,6.6,6.6,0,0,0-3.55.94,6.07,6.07,0,0,0-2.31,2.64,9.24,9.24,0,0,0-.8,3.94,11.33,11.33,0,0,0,1,4.79,8.82,8.82,0,0,0,2.72,3.45,6.18,6.18,0,0,0,3.76,1.27q4,0,5.76-4.61c0-.06,0-.09.11-.09a.41.41,0,0,1,.16,0s.07.05.07.08l-.39,3.39a1.14,1.14,0,0,1-.13.43.67.67,0,0,1-.32.21,14.37,14.37,0,0,1-5.26,1,10.85,10.85,0,0,1-5.64-1.36,8.47,8.47,0,0,1-3.33-3.45,9.57,9.57,0,0,1-1.06-4.39,7.8,7.8,0,0,1,1.44-4.63,9.74,9.74,0,0,1,3.8-3.16,11.62,11.62,0,0,1,5-1.13A15.35,15.35,0,0,1,120.25,135.16Z"/><path d="M139.86,153.06a9,9,0,0,1-3.27-.6,8.45,8.45,0,0,1-2.75-1.72,8.1,8.1,0,0,1-2.61-6.1,9.72,9.72,0,0,1,.58-3.35,8.58,8.58,0,0,1,1.69-2.85,8,8,0,0,1,2.77-2,9.4,9.4,0,0,1,3.82-.74,9,9,0,0,1,3.29.6,8.63,8.63,0,0,1,2.75,1.72,8.1,8.1,0,0,1,2.61,6.1,9.88,9.88,0,0,1-.57,3.33,8.81,8.81,0,0,1-1.69,2.87,8.13,8.13,0,0,1-2.78,2A9.43,9.43,0,0,1,139.86,153.06Zm.41-1.08a4.77,4.77,0,0,0,4.77-3.15,9.06,9.06,0,0,0,.6-3.43,13.72,13.72,0,0,0-.37-3.25,9.5,9.5,0,0,0-1.11-2.75,5.55,5.55,0,0,0-1.87-1.89,4.94,4.94,0,0,0-2.64-.68,5,5,0,0,0-2.93.82,5,5,0,0,0-1.79,2.28,8.86,8.86,0,0,0-.6,3.4,14.4,14.4,0,0,0,.36,3.28,9,9,0,0,0,1.1,2.75,5.77,5.77,0,0,0,1.85,1.92A4.83,4.83,0,0,0,140.27,152Z"/><path d="M155.94,152.7v-.51a4.61,4.61,0,0,0,1.31-.21.93.93,0,0,0,.61-.61A4.78,4.78,0,0,0,158,150v-12.7a4.8,4.8,0,0,0-.15-1.4,1,1,0,0,0-.61-.61,4.08,4.08,0,0,0-1.31-.19v-.52l1.4.06,1.87,0,1.78,0,1.48-.06v.52a4.15,4.15,0,0,0-1.32.19,1,1,0,0,0-.61.61,4.8,4.8,0,0,0-.15,1.4V150a4.78,4.78,0,0,0,.15,1.38.93.93,0,0,0,.61.61,4.69,4.69,0,0,0,1.32.21v.51c-.4,0-.89,0-1.48-.06l-1.78,0-1.87,0C156.76,152.65,156.29,152.67,155.94,152.7Zm3.56-8.86v-.51h10.11v.51Zm7.14,8.86v-.51A4.76,4.76,0,0,0,168,152a.9.9,0,0,0,.6-.61,4.78,4.78,0,0,0,.15-1.38v-12.7a4.8,4.8,0,0,0-.15-1.4.94.94,0,0,0-.6-.61,4.2,4.2,0,0,0-1.32-.19v-.52l1.48.06,1.77,0,1.87,0,1.41-.06v.52a4.2,4.2,0,0,0-1.32.19.94.94,0,0,0-.6.61,4.41,4.41,0,0,0-.16,1.4V150a4.4,4.4,0,0,0,.16,1.38.9.9,0,0,0,.6.61,4.76,4.76,0,0,0,1.32.21v.51q-.54,0-1.41-.06l-1.87,0-1.77,0C167.53,152.65,167,152.67,166.64,152.7Z"/><path d="M191.32,143.66l0,.44H188.5a1.64,1.64,0,0,0-1.24.47,3.26,3.26,0,0,0-.7,1.28,14.18,14.18,0,0,0-.44,1.88l-.46,2.56a3.1,3.1,0,0,1-1.18,2.18,4,4,0,0,1-2.25.59,4.72,4.72,0,0,1-1.89-.35,4,4,0,0,1-1.46-1.14l.36-.3a2.15,2.15,0,0,0,.47.42,1.23,1.23,0,0,0,.55.17.83.83,0,0,0,.74-.41,4.55,4.55,0,0,0,.46-1.44l.54-2.63a3.39,3.39,0,0,1,1.51-2.36,8.75,8.75,0,0,1,3.38-1l1-.13,1.3-.11C189.69,143.74,190.42,143.7,191.32,143.66Zm5-9.09v.52a3.68,3.68,0,0,0-1.23.19.93.93,0,0,0-.55.61,5.26,5.26,0,0,0-.14,1.4V150a5.25,5.25,0,0,0,.14,1.38.89.89,0,0,0,.55.61,4.17,4.17,0,0,0,1.23.21v.51c-.42,0-1,0-1.72-.06l-2.32,0-2.13,0q-1.06,0-1.74.06v-.51a4.15,4.15,0,0,0,1.22-.21.86.86,0,0,0,.56-.61,4.85,4.85,0,0,0,.14-1.38v-12.7a3.62,3.62,0,0,0-.29-1.77c-.2-.29-.63-.43-1.29-.43a2.68,2.68,0,0,0-2.46,1.1,5.58,5.58,0,0,0-.72,3.07,7.91,7.91,0,0,0,.28,2.19A2.82,2.82,0,0,0,187,143a3.9,3.9,0,0,0,2.3.58h2.2v.51H189a12.64,12.64,0,0,1-4.69-.69,4.6,4.6,0,0,1-2.32-1.82,4.74,4.74,0,0,1-.65-2.38,3.9,3.9,0,0,1,1.75-3.41,9.55,9.55,0,0,1,5.34-1.2l1.63,0,2.39,0,2.17,0Z"/><path d="M226.65,134.57c-.07.65-.11,1.28-.14,1.89s0,1.07,0,1.39,0,.8,0,1.15,0,.68.05.95H226a15.59,15.59,0,0,0-.49-2.83,2.47,2.47,0,0,0-1.07-1.5,4.85,4.85,0,0,0-2.38-.46h-.59a4.84,4.84,0,0,0-1.32.14.89.89,0,0,0-.6.59,4.73,4.73,0,0,0-.16,1.4V150a3.72,3.72,0,0,0,.2,1.38,1,1,0,0,0,.75.61,7.3,7.3,0,0,0,1.64.21v.51c-.44,0-1,0-1.69-.06l-2.07,0-1.87,0q-.87,0-1.41.06v-.51a4.76,4.76,0,0,0,1.32-.21.9.9,0,0,0,.6-.61A4.78,4.78,0,0,0,217,150v-12.7a4.8,4.8,0,0,0-.15-1.4.94.94,0,0,0-.6-.61,4.2,4.2,0,0,0-1.32-.19v-.52l2.69.06,2.7,0h4.2C225.3,134.63,226,134.61,226.65,134.57Z"/><path d="M241.49,132.43c4.95,0,8.42,1.12,8.42,6.13s-3.47,6.12-8.42,6.12H238v8h-2.85V132.43ZM238,134.84v7.35h3.72c3,0,5.28-.31,5.28-3.63s-2.29-3.72-5.28-3.72Z"/><path d="M257.76,152.84a1.94,1.94,0,0,1-.59-.07c-.14-.05-.22-.12-.22-.24s.31-.39.92-.5a2.06,2.06,0,0,0,1.37-.64,2.62,2.62,0,0,0,.31-1.46V137.3a3.29,3.29,0,0,0-.21-1.39c-.14-.27-.56-.47-1.27-.6s-.92-.3-.92-.56.07-.19.22-.23a1.9,1.9,0,0,1,.59-.07l1.17,0,.79.05h1.88l.81-.05,1.19,0a1.94,1.94,0,0,1,.59.07c.15,0,.22.12.22.23a.4.4,0,0,1-.22.34,2.06,2.06,0,0,1-.7.22,2.53,2.53,0,0,0-1.47.69,1.87,1.87,0,0,0-.43,1.3v10.59a.61.61,0,0,0,.08.37c.06.05.13,0,.22-.06l10.82-10.76a.66.66,0,0,0,.23-.45v-.11a1.32,1.32,0,0,0-.49-1,3,3,0,0,0-1.33-.55c-.61-.11-.92-.3-.92-.56s.07-.19.22-.23a1.94,1.94,0,0,1,.59-.07l1.24,0,.94.05h1.86l.67-.05,1.13,0a1.94,1.94,0,0,1,.59.07c.15,0,.22.12.22.23a.4.4,0,0,1-.22.34,2,2,0,0,1-.7.22,1.78,1.78,0,0,0-1.29.67,2.9,2.9,0,0,0-.25,1.29v12.64a3,3,0,0,0,.28,1.48A1.94,1.94,0,0,0,277,152a2.65,2.65,0,0,1,.69.2.33.33,0,0,1,.23.3c0,.12-.08.19-.23.24a1.87,1.87,0,0,1-.58.07c-.51,0-.9,0-1.19,0l-.81-.07c-.25,0-.57,0-1,0s-.71,0-1,0l-.83.07c-.29,0-.69,0-1.2,0a1.83,1.83,0,0,1-.58-.07c-.15-.05-.23-.12-.23-.24s.31-.39.92-.5a3.39,3.39,0,0,0,1.39-.53,1.37,1.37,0,0,0,.49-1.17V139.2c0-.32-.1-.38-.28-.2L262,149.79a.87.87,0,0,0-.18.23,2,2,0,0,0,0,.31,1.26,1.26,0,0,0,.61,1.2,5.18,5.18,0,0,0,1.57.5,2.74,2.74,0,0,1,.7.2.34.34,0,0,1,.22.3c0,.12-.08.19-.22.24a1.94,1.94,0,0,1-.59.07c-.51,0-.92,0-1.25,0l-.93-.07c-.3,0-.66,0-1.09,0s-.73,0-1,0l-.86.07C258.67,152.83,258.27,152.84,257.76,152.84Z"/><path d="M286.81,135a6.35,6.35,0,0,1-2.29-.82v-1.06h15c0,.43,0,.91-.06,1.43s-.08,1-.14,1.56-.12,1-.19,1.51-.15.93-.23,1.32h-1.14L296,135h-5v6.37l.62-.07.74-.07.75,0h.66a11.37,11.37,0,0,1,2.71.31,6.22,6.22,0,0,1,2.25,1,5,5,0,0,1,1.54,1.77,5.64,5.64,0,0,1,.57,2.63,5.4,5.4,0,0,1-.6,2.6,5.27,5.27,0,0,1-1.65,1.86,7.68,7.68,0,0,1-2.49,1.12,12.33,12.33,0,0,1-3.11.38l-.7,0-1.26,0-1.4,0h-5.11v-1.06a6.5,6.5,0,0,1,1.1-.52,5.31,5.31,0,0,1,1.19-.29Zm5.76,7.93a8.14,8.14,0,0,0-.87.05,3.73,3.73,0,0,0-.7.12v7.75l.35,0,.49,0,.49,0h.38a3.27,3.27,0,0,0,2.58-1.06,4.37,4.37,0,0,0,.94-3,4.44,4.44,0,0,0-.87-2.9A3.4,3.4,0,0,0,292.57,142.94Z"/><path d="M137.84,179.39h-.62l-1.06,0-1.24-.05-1.18,0-1.34,0-1.69,0-1.49,0h-.8a.71.71,0,0,1-.3-.16c-.14-.1-.22-.19-.22-.28a.32.32,0,0,1,.08-.23l.18-.18,4.15-4.4a12,12,0,0,0,2.08-3,7.35,7.35,0,0,0,.79-3.33,2.81,2.81,0,0,0-.72-2,2.39,2.39,0,0,0-1.79-.75,3.34,3.34,0,0,0-1.86.55,4.44,4.44,0,0,0-1.39,1.37,1.69,1.69,0,0,1-.26.28.53.53,0,0,1-.33.13c-.09,0-.17-.07-.25-.21a1.13,1.13,0,0,1-.11-.51,1.89,1.89,0,0,1,.38-.91,6.43,6.43,0,0,1,2.72-2.16,5,5,0,0,1,2-.41,4.22,4.22,0,0,1,2.21.55,3.64,3.64,0,0,1,1.4,1.51,4.71,4.71,0,0,1,.49,2.19,4.87,4.87,0,0,1-.27,1.51,8.81,8.81,0,0,1-1.68,3,12.51,12.51,0,0,1-1,1.05c-.41.43-.86.88-1.33,1.35l-1.34,1.33-1,1a2,2,0,0,0-.39.46c0,.07.11.12.35.15l1,.08,1.24,0,1.37,0,1.32-.08a6.21,6.21,0,0,0,1.1-.15,1.6,1.6,0,0,0,.71-.39,3.59,3.59,0,0,0,.57-.79c.07-.1.16-.22.28-.36a.5.5,0,0,1,.39-.2.19.19,0,0,1,.2.12.47.47,0,0,1,0,.26c-.05.2-.14.48-.26.82s-.24.7-.36,1.09a10.31,10.31,0,0,0-.28,1.09.61.61,0,0,1-.24.47A.64.64,0,0,1,137.84,179.39Z"/><path d="M157.87,170.45a19.35,19.35,0,0,1-.32,3.71,8.46,8.46,0,0,1-1.06,2.88,5.32,5.32,0,0,1-2,1.88,6.08,6.08,0,0,1-3,.66,6,6,0,0,1-2.8-.6,4.59,4.59,0,0,1-1.84-1.74,8.4,8.4,0,0,1-1-2.84,22.44,22.44,0,0,1-.29-3.87,20.19,20.19,0,0,1,.32-3.71,8.74,8.74,0,0,1,1.07-2.89,5.12,5.12,0,0,1,1.94-1.87,6.85,6.85,0,0,1,5.76-.07,4.55,4.55,0,0,1,1.84,1.75,8.24,8.24,0,0,1,1,2.84A22.28,22.28,0,0,1,157.87,170.45Zm-2.4.16c0-.88,0-1.68-.09-2.38a15.53,15.53,0,0,0-.28-1.85,6.81,6.81,0,0,0-.48-1.39,3.5,3.5,0,0,0-.7-1,2.56,2.56,0,0,0-.94-.55,3.91,3.91,0,0,0-1.18-.17,3,3,0,0,0-1.88.55,3.49,3.49,0,0,0-1.14,1.5,7.72,7.72,0,0,0-.57,2.24,23.64,23.64,0,0,0-.15,2.75,24.7,24.7,0,0,0,.2,3.37,7.82,7.82,0,0,0,.65,2.26,3.08,3.08,0,0,0,1.13,1.27,3.37,3.37,0,0,0,1.68.39,3.48,3.48,0,0,0,1.34-.24,2.85,2.85,0,0,0,1-.71,3.68,3.68,0,0,0,.69-1.1,7,7,0,0,0,.43-1.42,11.75,11.75,0,0,0,.23-1.68Q155.47,171.58,155.47,170.61Z"/><path d="M177.63,170.45a19.35,19.35,0,0,1-.32,3.71,8.46,8.46,0,0,1-1.06,2.88,5.32,5.32,0,0,1-1.95,1.88,6.08,6.08,0,0,1-3,.66,5.92,5.92,0,0,1-2.8-.6,4.59,4.59,0,0,1-1.84-1.74,8.4,8.4,0,0,1-1-2.84,22.44,22.44,0,0,1-.29-3.87,20.19,20.19,0,0,1,.32-3.71,8.74,8.74,0,0,1,1.07-2.89,5.12,5.12,0,0,1,1.94-1.87,6.85,6.85,0,0,1,5.76-.07,4.55,4.55,0,0,1,1.84,1.75,8.24,8.24,0,0,1,1,2.84A22.28,22.28,0,0,1,177.63,170.45Zm-2.4.16c0-.88,0-1.68-.1-2.38a13.84,13.84,0,0,0-.27-1.85,6.81,6.81,0,0,0-.48-1.39,3.33,3.33,0,0,0-.71-1,2.44,2.44,0,0,0-.93-.55,3.91,3.91,0,0,0-1.18-.17,3,3,0,0,0-1.89.55,3.55,3.55,0,0,0-1.13,1.5,7.72,7.72,0,0,0-.57,2.24,23.64,23.64,0,0,0-.15,2.75,24.7,24.7,0,0,0,.2,3.37,7.82,7.82,0,0,0,.65,2.26,3.08,3.08,0,0,0,1.13,1.27,3.37,3.37,0,0,0,1.68.39,3.48,3.48,0,0,0,1.34-.24,2.85,2.85,0,0,0,1-.71,3.68,3.68,0,0,0,.69-1.1,7.65,7.65,0,0,0,.43-1.42,11.75,11.75,0,0,0,.23-1.68Q175.23,171.58,175.23,170.61Z"/><path d="M197.39,170.45a19.35,19.35,0,0,1-.32,3.71A8.46,8.46,0,0,1,196,177a5.32,5.32,0,0,1-1.95,1.88,6.08,6.08,0,0,1-3,.66,6,6,0,0,1-2.81-.6,4.63,4.63,0,0,1-1.83-1.74,8.4,8.4,0,0,1-1-2.84,22.44,22.44,0,0,1-.29-3.87,20.19,20.19,0,0,1,.32-3.71,8.74,8.74,0,0,1,1.07-2.89,5.12,5.12,0,0,1,1.94-1.87,6.85,6.85,0,0,1,5.76-.07,4.55,4.55,0,0,1,1.84,1.75,8.24,8.24,0,0,1,1,2.84A23.31,23.31,0,0,1,197.39,170.45Zm-2.4.16c0-.88,0-1.68-.1-2.38a13.84,13.84,0,0,0-.27-1.85,6.81,6.81,0,0,0-.48-1.39,3.33,3.33,0,0,0-.71-1,2.44,2.44,0,0,0-.93-.55,3.91,3.91,0,0,0-1.18-.17,3,3,0,0,0-1.89.55,3.66,3.66,0,0,0-1.14,1.5,8.07,8.07,0,0,0-.56,2.24,23.64,23.64,0,0,0-.15,2.75,24.7,24.7,0,0,0,.2,3.37,7.82,7.82,0,0,0,.65,2.26,3.08,3.08,0,0,0,1.13,1.27,3.37,3.37,0,0,0,1.68.39,3.48,3.48,0,0,0,1.34-.24,2.85,2.85,0,0,0,1-.71,3.89,3.89,0,0,0,.69-1.1,7.65,7.65,0,0,0,.43-1.42,11.75,11.75,0,0,0,.23-1.68Q195,171.58,195,170.61Z"/><path d="M204.85,175a.13.13,0,0,1-.15-.15,3.44,3.44,0,0,1,.11-.89c.08-.31.18-.47.3-.49l2.45-.35c.82-.11,1.64-.21,2.46-.29a.23.23,0,0,1,.14,0,.12.12,0,0,1,.07.11,3.28,3.28,0,0,1-.12.91q-.12.42-.42.48l-2.34.34C206.55,174.78,205.72,174.88,204.85,175Z"/><path d="M227.1,179.39h-.62l-1.06,0-1.24-.05-1.18,0-1.34,0-1.69,0-1.49,0h-.8a.71.71,0,0,1-.3-.16c-.14-.1-.22-.19-.22-.28a.32.32,0,0,1,.08-.23l.18-.18,4.15-4.4a12,12,0,0,0,2.08-3,7.48,7.48,0,0,0,.79-3.33,2.81,2.81,0,0,0-.72-2,2.39,2.39,0,0,0-1.79-.75,3.34,3.34,0,0,0-1.86.55,4.58,4.58,0,0,0-1.4,1.37,1.29,1.29,0,0,1-.25.28.53.53,0,0,1-.33.13c-.09,0-.17-.07-.25-.21a1.13,1.13,0,0,1-.11-.51,1.89,1.89,0,0,1,.38-.91,6.43,6.43,0,0,1,2.72-2.16,5,5,0,0,1,2-.41,4.22,4.22,0,0,1,2.21.55,3.64,3.64,0,0,1,1.4,1.51,4.71,4.71,0,0,1,.49,2.19,4.87,4.87,0,0,1-.27,1.51,8.81,8.81,0,0,1-1.68,3,12.51,12.51,0,0,1-1,1.05c-.41.43-.86.88-1.33,1.35l-1.34,1.33-1,1a2,2,0,0,0-.39.46c0,.07.11.12.35.15l1,.08,1.24,0,1.37,0,1.32-.08a6.21,6.21,0,0,0,1.1-.15,1.52,1.52,0,0,0,.7-.39,3.3,3.3,0,0,0,.58-.79c.07-.1.16-.22.28-.36a.5.5,0,0,1,.39-.2.19.19,0,0,1,.2.12.47.47,0,0,1,0,.26c-.05.2-.14.48-.26.82s-.24.7-.36,1.09a10.31,10.31,0,0,0-.28,1.09.61.61,0,0,1-.24.47A.64.64,0,0,1,227.1,179.39Z"/><path d="M247.13,170.45a19.35,19.35,0,0,1-.32,3.71,8.46,8.46,0,0,1-1.06,2.88,5.32,5.32,0,0,1-1.95,1.88,6.08,6.08,0,0,1-3,.66,5.92,5.92,0,0,1-2.8-.6,4.59,4.59,0,0,1-1.84-1.74,8.4,8.4,0,0,1-1-2.84,22.44,22.44,0,0,1-.29-3.87,20.19,20.19,0,0,1,.32-3.71,8.74,8.74,0,0,1,1.07-2.89,5.12,5.12,0,0,1,1.94-1.87A6.85,6.85,0,0,1,244,162a4.55,4.55,0,0,1,1.84,1.75,8.24,8.24,0,0,1,1,2.84A22.28,22.28,0,0,1,247.13,170.45Zm-2.4.16c0-.88,0-1.68-.1-2.38a13.84,13.84,0,0,0-.27-1.85,6.81,6.81,0,0,0-.48-1.39,3.33,3.33,0,0,0-.71-1,2.44,2.44,0,0,0-.93-.55,3.91,3.91,0,0,0-1.18-.17,3,3,0,0,0-1.89.55,3.55,3.55,0,0,0-1.13,1.5,7.72,7.72,0,0,0-.57,2.24,23.64,23.64,0,0,0-.15,2.75,24.7,24.7,0,0,0,.2,3.37,7.82,7.82,0,0,0,.65,2.26,3.08,3.08,0,0,0,1.13,1.27,3.37,3.37,0,0,0,1.68.39,3.48,3.48,0,0,0,1.34-.24,2.85,2.85,0,0,0,1-.71,3.68,3.68,0,0,0,.69-1.1,7.65,7.65,0,0,0,.43-1.42,11.75,11.75,0,0,0,.23-1.68Q244.73,171.58,244.73,170.61Z"/><path d="M264.7,179.39h-.61l-1.06,0-1.25-.05-1.17,0-1.35,0-1.69,0-1.48,0h-.81a.64.64,0,0,1-.29-.16c-.15-.1-.22-.19-.22-.28a.28.28,0,0,1,.08-.23l.17-.18,4.15-4.4a12.05,12.05,0,0,0,2.09-3,7.47,7.47,0,0,0,.78-3.33,2.81,2.81,0,0,0-.72-2,2.37,2.37,0,0,0-1.79-.75,3.39,3.39,0,0,0-1.86.55,4.54,4.54,0,0,0-1.39,1.37,1.35,1.35,0,0,1-.26.28.53.53,0,0,1-.33.13q-.13,0-.24-.21a1,1,0,0,1-.12-.51,1.83,1.83,0,0,1,.39-.91,5.62,5.62,0,0,1,1.07-1.16,6.2,6.2,0,0,1,1.64-1,5,5,0,0,1,2.05-.41,4.18,4.18,0,0,1,2.2.55,3.73,3.73,0,0,1,1.41,1.51,4.92,4.92,0,0,1,.22,3.7,9.28,9.28,0,0,1-1.68,3,12.51,12.51,0,0,1-1,1.05l-1.33,1.35L259,175.67c-.42.42-.77.76-1,1a1.92,1.92,0,0,0-.4.46q0,.11.36.15l1,.08,1.24,0,1.37,0,1.31-.08a6.34,6.34,0,0,0,1.11-.15,1.57,1.57,0,0,0,.7-.39,3.3,3.3,0,0,0,.58-.79,3,3,0,0,1,.28-.36.48.48,0,0,1,.38-.2.21.21,0,0,1,.21.12.46.46,0,0,1,0,.26c-.05.2-.13.48-.25.82s-.24.7-.36,1.09a8.34,8.34,0,0,0-.28,1.09.65.65,0,0,1-.25.47A.61.61,0,0,1,264.7,179.39Z"/><path d="M275.53,179.32V165.44h-4V163c2.66-.07,4-.25,4.84-2.28h2.69v18.57Z"/></svg>