<svg id="Слой_1" data-name="Слой 1" xmlns="http://www.w3.org/2000/svg" viewBox="0 0 400 400"><defs><style>.cls-1{fill:#fff;stroke:#000;stroke-miterlimit:10;stroke-width:3px;}.cls-2{fill:#c1362d;}</style></defs><title>g18</title><path class="cls-1" d="M356.21,388H60.31V34l169.8,68.9c75.38,30.59,126.1,115.23,126.1,210.47Z"/><polygon class="cls-1" points="206.57 287.92 219.33 273.78 218.36 292.81 237.38 291.83 223.25 304.6 237.38 317.37 218.36 316.39 219.33 335.42 206.57 321.28 193.8 335.42 194.78 316.39 175.75 317.37 189.89 304.6 175.75 291.83 194.78 292.81 193.8 273.78 206.57 287.92"/><path class="cls-1" d="M289.57,316.86c8.93-5.77,10.38-24.35,4.12-28.85-3-2.18-5.65.52-9.79-1.54-6.87-3.43-10.6-16.35-6.18-23.7,4-6.61,11.22-3.23,21.12-10.82.65-.5,14.44-11.32,12.36-21.64-1.79-8.95-13.58-8-20.09-21.64-2.72-5.72-2.62-10-5.66-10.82-3.66-1-9.43,3.75-10.82,9.27-1.92,7.61,6,10.79,6.18,19.07.25,11-13.46,19.71-26.28,27.82-11.39,7.21-17.57,11.12-25.76,10.3-10.91-1.09-12.49-9.3-25.24-16-14.76-7.73-29.83-5.73-45.86-3.61-16.88,2.24-30.08,4-41.73,14.43-17.58,15.76-19,40-19.06,42.25-.76,17.62,7.09,25.57,1,35-6.52,10.18-21.64,10.4-21.12,13.91.36,2.52,8.28,3.66,13.91,3.09,2-.2,11-1.36,16-8.24,1.21-1.69.82-1.83,3.6-8.24,3.18-7.32,4-7.84,5.67-11.85,4.79-11.48,2.23-17,6.19-19.07,3.46-1.81,8.38.88,10.82,3.1,6,5.41,5.71,15.84,1.54,19.57-2.86,2.57-6.74,1.21-8.24,4.13-1.41,2.71.75,6.24,1,6.69,2.35,3.76,7.46,5.61,11.85,5.15,7.53-.77,9.24-7.92,14.94-7.72,4,.13,6.27,3.67,9.79,7.72,4.6,5.31,16.23,18.71,27.82,20.1s16.11-10.11,27.82-8.24c8.16,1.3,10.48,12,15.46,10.81,3.35-.81,2.94-5.29,7.72-7.72,3.48-1.77,7-1.1,12.37,0,11,2.25,11.7,5.76,17,5.15,6.66-.77,11.84-7,13.91-12.37.9-2.3,3-7.74.52-11.85-3.1-5.1-10.22-3.05-12.37-7.72-1.58-3.46.64-8.22,3.09-10.82C281.12,317.87,285.08,319.77,289.57,316.86Z"/><polygon class="cls-2" points="211.3 296.59 216.02 304.75 211.3 312.92 201.87 312.92 197.16 304.75 201.87 296.59 211.3 296.59"/><path d="M123.59,157.53v-3.82H109.2V134.88h3.72V150.7h7.71V134.88h3.72V150.7h2.49v6.83Z"/><path d="M147.53,148.35a5.42,5.42,0,0,1-.75,2.86,5,5,0,0,1-2.12,1.93,6.69,6.69,0,0,1-3.09.68c-.47,0-1,0-1.7-.08l-1-.06c-.43,0-.92,0-1.46,0l-1.85,0q-.57,0-1.5,0c-.06,0-.09-.06-.09-.17s0-.17.09-.17a6.54,6.54,0,0,0,1.5-.16.94.94,0,0,0,.64-.52,3.34,3.34,0,0,0,.18-1.28V138.29a3.28,3.28,0,0,0-.17-1.27.94.94,0,0,0-.62-.52,5.9,5.9,0,0,0-1.5-.17s-.06-.06-.06-.17,0-.17.06-.17l1.36,0c.83,0,1.5,0,2,0s1.29,0,2.16,0l1.47,0s.06,0,.06.17,0,.17-.06.17a6.64,6.64,0,0,0-1.57.17,1.07,1.07,0,0,0-.7.55,3.21,3.21,0,0,0-.2,1.29V144a20.11,20.11,0,0,1,3.1-.28Q147.53,143.7,147.53,148.35Zm-3.36,3.87a4.71,4.71,0,0,0,1-3.25,5,5,0,0,0-1.05-3.54,4.25,4.25,0,0,0-3.18-1.08,13.53,13.53,0,0,0-2.3.23v6.83a1.82,1.82,0,0,0,.49,1.39,2.91,2.91,0,0,0,1.95.46A4.11,4.11,0,0,0,144.17,152.22Zm9.65.45a1,1,0,0,0,.64.56,5.84,5.84,0,0,0,1.49.14s.05.06.05.17,0,.17-.05.17c-.61,0-1.08,0-1.42,0l-2,0-2,0q-.54,0-1.47,0s-.06-.06-.06-.17,0-.17.06-.17a6,6,0,0,0,1.5-.14,1,1,0,0,0,.65-.56,3.33,3.33,0,0,0,.17-1.26V138.29a3.23,3.23,0,0,0-.17-1.25,1,1,0,0,0-.65-.56,5.46,5.46,0,0,0-1.5-.15s-.06-.06-.06-.17,0-.17.06-.17l1.47,0c.84,0,1.5,0,2,0s1.24,0,2.07,0l1.39,0s.05,0,.05.17,0,.17-.05.17a4.59,4.59,0,0,0-1.48.17,1,1,0,0,0-.65.58,3.54,3.54,0,0,0-.17,1.26v13.07A3.54,3.54,0,0,0,153.82,152.67Z"/><path d="M164.38,153.81a1.53,1.53,0,0,1-.47-.06.25.25,0,0,1-.18-.25c0-.22.25-.39.75-.49a3.09,3.09,0,0,0,1.4-.57,1.55,1.55,0,0,0,.47-1.27V139.43a1.84,1.84,0,0,0-.35-1.26,2.58,2.58,0,0,0-1.34-.59c-.5-.1-.75-.27-.75-.52a.29.29,0,0,1,.19-.26,1.37,1.37,0,0,1,.49-.07l1.15,0,.92.07c.3,0,.62,0,1,0h5.87l2.77,0h3.05c.38,0,.72,0,1,0l.94-.05,1.14,0a1.35,1.35,0,0,1,.48.07.28.28,0,0,1,.2.26c0,.25-.26.42-.76.52a3,3,0,0,0-1.35.59,1.62,1.62,0,0,0-.41,1.26v11.74a1.53,1.53,0,0,0,.49,1.27,3.28,3.28,0,0,0,1.43.57c.5.1.75.27.75.49a.24.24,0,0,1-.19.25,1.65,1.65,0,0,1-.48.06c-.44,0-.83,0-1.17,0l-1-.06c-.32,0-.68,0-1.06,0s-.78,0-1.16,0l-1.13.06c-.38,0-.79,0-1.24,0a1.26,1.26,0,0,1-.47-.07c-.12-.06-.18-.13-.18-.24a.33.33,0,0,1,.18-.31,1.91,1.91,0,0,1,.57-.18,2.93,2.93,0,0,0,1.44-.65,1.64,1.64,0,0,0,.48-1.22q.09-3.16.07-6.42t-.07-6.41a.25.25,0,0,0-.07-.21.41.41,0,0,0-.19,0l-1.61-.05-1.37,0h-1.4l-1.81,0-2,.08c-.14,0-.22.1-.24.31q-.15,3.16-.13,6.39t.13,6.39a1.79,1.79,0,0,0,.52,1.22,3.07,3.07,0,0,0,1.43.65,1.91,1.91,0,0,1,.57.18.33.33,0,0,1,.18.31.25.25,0,0,1-.16.24,1.28,1.28,0,0,1-.48.07c-.44,0-.84,0-1.2,0l-1.05-.06q-.51,0-1.08,0t-1.14,0l-1.11.06C165.21,153.8,164.81,153.81,164.38,153.81Z"/><path d="M197,135.32v.52a4.54,4.54,0,0,0-1.33.2.94.94,0,0,0-.61.62,4.51,4.51,0,0,0-.16,1.42V151a4.5,4.5,0,0,0,.16,1.4.9.9,0,0,0,.61.62,4.84,4.84,0,0,0,1.33.21v.52c-.39,0-.89-.06-1.49-.06l-1.8,0-1.9,0c-.59,0-1.06,0-1.43.06v-.52a4.86,4.86,0,0,0,1.34-.21.92.92,0,0,0,.61-.62,4.82,4.82,0,0,0,.16-1.4V138.08a4.83,4.83,0,0,0-.16-1.42,1,1,0,0,0-.61-.62,4.56,4.56,0,0,0-1.34-.2v-.52l1.43.06,1.9,0,1.8,0Zm-.28,8.63a11.15,11.15,0,0,1,2.58.28,4.5,4.5,0,0,1,2.07,1.09,4.71,4.71,0,0,1,1.22,2.39l.75,3.27a8.76,8.76,0,0,0,.52,1.68.77.77,0,0,0,.8.45,1.19,1.19,0,0,0,.75-.28,5.74,5.74,0,0,0,.63-.7l.39.28a5.3,5.3,0,0,1-1.09,1.2,2.7,2.7,0,0,1-1.69.46,2.75,2.75,0,0,1-1.65-.53,3.77,3.77,0,0,1-1.13-2.27l-.72-3.22a12.9,12.9,0,0,0-.55-1.9,2.7,2.7,0,0,0-1-1.26,3.61,3.61,0,0,0-2-.45h-2.2V144Zm-1.82.49V144a3.75,3.75,0,0,0,1.83-.46,4.38,4.38,0,0,0,1.24-1.05l2.49-3.17a8.67,8.67,0,0,0,1.17-1.84,1.09,1.09,0,0,0,0-1.16,1.92,1.92,0,0,0-1.43-.43v-.52l1.53.06,1.46,0a21.15,21.15,0,0,0,2.21-.08v.52a4.15,4.15,0,0,0-1.56.54,5.46,5.46,0,0,0-1.51,1.36l-5.27,6.7Z"/><path d="M221.64,135.27,228,151.53a2.85,2.85,0,0,0,.82,1.28,1.55,1.55,0,0,0,.81.38v.52c-.51,0-1.12-.06-1.83-.06l-2.11,0-2.26,0c-.71,0-1.27,0-1.69.06v-.52a2.53,2.53,0,0,0,1.68-.45c.23-.27.17-.85-.17-1.73l-4.42-12.08.47-.67-3.95,10.28a8.86,8.86,0,0,0-.71,2.91,1.44,1.44,0,0,0,.63,1.34,3.8,3.8,0,0,0,1.67.4v.52c-.58,0-1.12-.06-1.64-.06l-1.58,0-1.08,0a7.67,7.67,0,0,0-.9.06v-.52a2.15,2.15,0,0,0,1.12-.7,6.31,6.31,0,0,0,1.12-2l5.92-15.19c.27,0,.57,0,.89,0S221.36,135.29,221.64,135.27Zm1.82,11v.52h-7.74l.26-.52Z"/><path d="M101.06,184.6h-.62l-1.08,0-1.26-.05-1.19,0-1.37,0-1.71,0-1.51,0-.82,0a.77.77,0,0,1-.29-.16c-.15-.1-.22-.2-.22-.29a.32.32,0,0,1,.07-.23l.19-.18,4.2-4.47a12.12,12.12,0,0,0,2.12-3,7.52,7.52,0,0,0,.79-3.38,2.81,2.81,0,0,0-.73-2,2.4,2.4,0,0,0-1.81-.77,3.45,3.45,0,0,0-1.89.56A4.56,4.56,0,0,0,92.52,172a1.37,1.37,0,0,1-.26.28.52.52,0,0,1-.34.13c-.09,0-.17-.07-.25-.21a1.1,1.1,0,0,1-.11-.51,1.88,1.88,0,0,1,.39-.93A5.83,5.83,0,0,1,93,169.59a6.45,6.45,0,0,1,1.66-1,5.12,5.12,0,0,1,2.08-.42,4.29,4.29,0,0,1,2.23.56,3.76,3.76,0,0,1,1.43,1.53,4.83,4.83,0,0,1,.49,2.22,5.05,5.05,0,0,1-.27,1.54,8.54,8.54,0,0,1-.72,1.61A9.14,9.14,0,0,1,99,177c-.23.28-.55.64-1,1.07s-.87.89-1.35,1.36-.93.93-1.36,1.35l-1,1.06a2.17,2.17,0,0,0-.4.46c0,.07.12.12.36.16l1,.08,1.26,0,1.39,0,1.34-.08a7.09,7.09,0,0,0,1.11-.16,1.58,1.58,0,0,0,.72-.39,3.18,3.18,0,0,0,.58-.8,2.69,2.69,0,0,1,.29-.36.51.51,0,0,1,.39-.21.21.21,0,0,1,.21.13.46.46,0,0,1,0,.26c-.05.2-.14.48-.26.83s-.24.71-.36,1.1-.22.76-.29,1.1a.62.62,0,0,1-.24.49A.75.75,0,0,1,101.06,184.6Z"/><path d="M121.38,175.53a20.68,20.68,0,0,1-.32,3.76,8.75,8.75,0,0,1-1.08,2.93,5.28,5.28,0,0,1-2,1.9,6.29,6.29,0,0,1-3,.67,6.09,6.09,0,0,1-2.84-.6,4.7,4.7,0,0,1-1.87-1.78,8.34,8.34,0,0,1-1-2.88,22.9,22.9,0,0,1-.3-3.92,19.86,19.86,0,0,1,.33-3.76,9.27,9.27,0,0,1,1.08-2.94,5.25,5.25,0,0,1,2-1.89,7.06,7.06,0,0,1,5.85-.07,4.65,4.65,0,0,1,1.86,1.77,8.34,8.34,0,0,1,1,2.88A24.08,24.08,0,0,1,121.38,175.53Zm-2.43.16c0-.89,0-1.7-.1-2.41a14.23,14.23,0,0,0-.28-1.88,6.44,6.44,0,0,0-.49-1.41,3.43,3.43,0,0,0-.71-1,2.75,2.75,0,0,0-1-.55,4,4,0,0,0-1.2-.17,3.09,3.09,0,0,0-1.91.55,3.69,3.69,0,0,0-1.15,1.53,7.61,7.61,0,0,0-.58,2.27,24.35,24.35,0,0,0-.15,2.79,23.44,23.44,0,0,0,.21,3.41,7.35,7.35,0,0,0,.65,2.3,3,3,0,0,0,1.15,1.28,3.34,3.34,0,0,0,1.7.4,3.55,3.55,0,0,0,1.36-.24,2.83,2.83,0,0,0,1-.72,3.89,3.89,0,0,0,.7-1.11,8.11,8.11,0,0,0,.45-1.44,12.45,12.45,0,0,0,.22-1.71C118.93,177,119,176.36,119,175.69Z"/><path d="M141.43,175.53a19.78,19.78,0,0,1-.33,3.76,8.75,8.75,0,0,1-1.08,2.93,5.28,5.28,0,0,1-2,1.9,6.26,6.26,0,0,1-3,.67,6.12,6.12,0,0,1-2.84-.6,4.74,4.74,0,0,1-1.86-1.78,8.34,8.34,0,0,1-1-2.88,22.9,22.9,0,0,1-.3-3.92,19.82,19.82,0,0,1,.34-3.76,8.81,8.81,0,0,1,1.08-2.94,5.22,5.22,0,0,1,2-1.89,7.06,7.06,0,0,1,5.85-.07,4.65,4.65,0,0,1,1.86,1.77,8.14,8.14,0,0,1,1,2.88A22.94,22.94,0,0,1,141.43,175.53Zm-2.44.16c0-.89,0-1.7-.1-2.41a14.23,14.23,0,0,0-.28-1.88,6.44,6.44,0,0,0-.49-1.41,3.25,3.25,0,0,0-.71-1,2.66,2.66,0,0,0-.95-.55,4,4,0,0,0-1.2-.17,3.09,3.09,0,0,0-1.91.55,3.69,3.69,0,0,0-1.15,1.53,8.27,8.27,0,0,0-.58,2.27,24.35,24.35,0,0,0-.15,2.79,23.44,23.44,0,0,0,.21,3.41,7.61,7.61,0,0,0,.66,2.3,2.9,2.9,0,0,0,1.15,1.28,3.3,3.3,0,0,0,1.69.4,3.64,3.64,0,0,0,1.37-.24,3,3,0,0,0,1-.72,4.12,4.12,0,0,0,.7-1.11,8.11,8.11,0,0,0,.44-1.44,12.4,12.4,0,0,0,.23-1.71Q139,176.7,139,175.69Z"/><path d="M152.13,184.52V170.45h-4V168c2.7-.08,4-.26,4.91-2.31h2.72v18.82Z"/><path d="M163.76,180.11c-.1,0-.15-.05-.15-.16a3.74,3.74,0,0,1,.12-.91c.07-.31.17-.47.29-.49l2.5-.35,2.49-.3a.33.33,0,0,1,.14,0,.13.13,0,0,1,.07.12,3.41,3.41,0,0,1-.12.92c-.08.29-.22.45-.43.48l-2.37.35C165.49,179.92,164.65,180,163.76,180.11Z"/><path d="M186.33,184.6h-.62l-1.08,0-1.26-.05-1.19,0-1.37,0-1.71,0-1.51,0-.82,0a.77.77,0,0,1-.29-.16c-.15-.1-.22-.2-.22-.29a.32.32,0,0,1,.07-.23l.19-.18,4.2-4.47a12.12,12.12,0,0,0,2.12-3,7.52,7.52,0,0,0,.79-3.38,2.81,2.81,0,0,0-.73-2,2.4,2.4,0,0,0-1.81-.77,3.45,3.45,0,0,0-1.89.56,4.56,4.56,0,0,0-1.41,1.39,1.37,1.37,0,0,1-.26.28.52.52,0,0,1-.34.13c-.09,0-.17-.07-.25-.21a1.1,1.1,0,0,1-.11-.51,1.88,1.88,0,0,1,.39-.93,5.83,5.83,0,0,1,1.09-1.18,6.45,6.45,0,0,1,1.66-1,5.12,5.12,0,0,1,2.08-.42,4.29,4.29,0,0,1,2.23.56,3.76,3.76,0,0,1,1.43,1.53,4.83,4.83,0,0,1,.49,2.22,5.05,5.05,0,0,1-.27,1.54,8.54,8.54,0,0,1-.72,1.61,9.14,9.14,0,0,1-1,1.42c-.23.28-.55.64-1,1.07s-.87.89-1.35,1.36-.93.93-1.36,1.35l-1,1.06a2.17,2.17,0,0,0-.4.46c0,.07.12.12.36.16l1.05.08,1.26,0,1.39,0,1.34-.08a7.09,7.09,0,0,0,1.11-.16,1.58,1.58,0,0,0,.72-.39,3.18,3.18,0,0,0,.58-.8,2.69,2.69,0,0,1,.29-.36.51.51,0,0,1,.39-.21.21.21,0,0,1,.21.13.46.46,0,0,1,0,.26c-.05.2-.14.48-.26.83s-.24.71-.36,1.1-.22.76-.29,1.1a.62.62,0,0,1-.24.49A.75.75,0,0,1,186.33,184.6Z"/><path d="M206.65,175.53a20.68,20.68,0,0,1-.32,3.76,8.75,8.75,0,0,1-1.08,2.93,5.28,5.28,0,0,1-2,1.9,6.29,6.29,0,0,1-3,.67,6.09,6.09,0,0,1-2.84-.6,4.7,4.7,0,0,1-1.87-1.78,8.34,8.34,0,0,1-1-2.88,22.9,22.9,0,0,1-.3-3.92,19.86,19.86,0,0,1,.33-3.76,9.27,9.27,0,0,1,1.08-2.94,5.25,5.25,0,0,1,2-1.89,7.06,7.06,0,0,1,5.85-.07,4.65,4.65,0,0,1,1.86,1.77,8.34,8.34,0,0,1,1,2.88A24.08,24.08,0,0,1,206.65,175.53Zm-2.43.16c0-.89,0-1.7-.1-2.41a14.23,14.23,0,0,0-.28-1.88,6.44,6.44,0,0,0-.49-1.41,3.43,3.43,0,0,0-.71-1,2.75,2.75,0,0,0-.95-.55,4,4,0,0,0-1.2-.17,3.09,3.09,0,0,0-1.91.55,3.69,3.69,0,0,0-1.15,1.53,7.61,7.61,0,0,0-.58,2.27,24.35,24.35,0,0,0-.15,2.79,23.44,23.44,0,0,0,.21,3.41,7.35,7.35,0,0,0,.65,2.3,3,3,0,0,0,1.15,1.28,3.34,3.34,0,0,0,1.7.4,3.55,3.55,0,0,0,1.36-.24,2.83,2.83,0,0,0,1-.72,3.89,3.89,0,0,0,.7-1.11,8.11,8.11,0,0,0,.45-1.44,12.45,12.45,0,0,0,.22-1.71C204.2,177,204.22,176.36,204.22,175.69Z"/><path d="M216.19,171h-.65c-.07-.36-.14-.75-.21-1.16s-.13-.83-.18-1.25-.09-.81-.12-1.2,0-.72,0-1h10.75v.75a47.7,47.7,0,0,0-2.16,4.26,37.44,37.44,0,0,0-1.47,3.93c-.4,1.33-.75,2.73-1.05,4.21s-.59,3.15-.88,5h-2.6A69.05,69.05,0,0,1,220,177q1.43-3.74,3.3-7.53l.78-1.24-1.35.13H217.2Z"/><path d="M245.73,175.53a20.68,20.68,0,0,1-.32,3.76,8.75,8.75,0,0,1-1.08,2.93,5.38,5.38,0,0,1-2,1.9,6.22,6.22,0,0,1-3,.67,6.13,6.13,0,0,1-2.85-.6,4.74,4.74,0,0,1-1.86-1.78,8.14,8.14,0,0,1-1-2.88,22.9,22.9,0,0,1-.3-3.92,19.86,19.86,0,0,1,.33-3.76,8.81,8.81,0,0,1,1.08-2.94,5.25,5.25,0,0,1,2-1.89,6.09,6.09,0,0,1,3-.67,6.18,6.18,0,0,1,2.86.6,4.65,4.65,0,0,1,1.86,1.77,8.34,8.34,0,0,1,1,2.88A22.94,22.94,0,0,1,245.73,175.53Zm-2.44.16c0-.89,0-1.7-.09-2.41a14.11,14.11,0,0,0-.29-1.88,6,6,0,0,0-.48-1.41,3.63,3.63,0,0,0-.71-1,2.75,2.75,0,0,0-.95-.55,4.09,4.09,0,0,0-1.2-.17,3.07,3.07,0,0,0-1.91.55,3.71,3.71,0,0,0-1.16,1.53,7.94,7.94,0,0,0-.57,2.27,24.35,24.35,0,0,0-.15,2.79,25.12,25.12,0,0,0,.2,3.41,7.61,7.61,0,0,0,.66,2.3,2.9,2.9,0,0,0,1.15,1.28,3.34,3.34,0,0,0,1.7.4,3.59,3.59,0,0,0,1.36-.24,2.92,2.92,0,0,0,1-.72,3.89,3.89,0,0,0,.7-1.11,8.11,8.11,0,0,0,.44-1.44,12.4,12.4,0,0,0,.23-1.71Q243.29,176.7,243.29,175.69Z"/></svg>