<svg id="Слой_1" data-name="Слой 1" xmlns="http://www.w3.org/2000/svg" viewBox="0 0 400 400"><defs><style>.cls-1,.cls-2{fill:#fff;stroke:#000;stroke-width:3px;}.cls-1{stroke-miterlimit:10;}.cls-2{stroke-linecap:round;stroke-linejoin:round;}.cls-3{fill:#608b70;}.cls-4{fill:#b8ad99;}.cls-5{fill:#c1362d;}</style></defs><title>g19</title><path class="cls-1" d="M356.2,388H62.79V37L231.16,105.3c74.75,30.34,125,114.27,125,208.7Z"/><path class="cls-1" d="M291.2,306.36c8.86-5.72,10.29-24.14,4.09-28.61-3-2.16-5.6.52-9.71-1.53-6.81-3.4-10.51-16.21-6.13-23.5,3.94-6.55,11.13-3.19,20.95-10.73.64-.49,14.31-11.22,12.26-21.45-1.78-8.87-13.47-7.92-19.93-21.46-2.7-5.67-2.6-9.93-5.61-10.73-3.63-1-9.35,3.72-10.73,9.2-1.9,7.54,5.94,10.69,6.13,18.9.25,10.94-13.35,19.54-26.06,27.59-11.29,7.14-17.42,11-25.54,10.22-10.82-1.09-12.39-9.22-25-15.84-14.64-7.66-29.58-5.68-45.47-3.58-16.74,2.22-29.83,4-41.38,14.3-17.43,15.64-18.8,39.68-18.9,41.9-.75,17.47,7,25.35,1,34.73-6.47,10.09-21.45,10.31-20.94,13.8.36,2.49,8.21,3.63,13.79,3.06,2-.2,10.95-1.35,15.84-8.17,1.2-1.67.81-1.81,3.57-8.17,3.15-7.26,4-7.77,5.62-11.75,4.75-11.39,2.21-16.86,6.13-18.91,3.44-1.79,8.31.87,10.73,3.07,5.9,5.37,5.66,15.71,1.53,19.41-2.84,2.54-6.68,1.2-8.17,4.09-1.39,2.69.74,6.19,1,6.64,2.34,3.73,7.4,5.56,11.75,5.11,7.47-.77,9.16-7.86,14.82-7.66,3.92.13,6.22,3.64,9.7,7.66,4.57,5.26,16.09,18.55,27.59,19.92s16-10,27.58-8.17c8.1,1.29,10.4,11.93,15.33,10.73,3.32-.81,2.92-5.25,7.66-7.67,3.45-1.75,6.95-1.08,12.27,0,10.91,2.24,11.59,5.72,16.85,5.11,6.61-.76,11.74-7,13.8-12.26.89-2.28,3-7.67.51-11.75-3.08-5.06-10.14-3-12.26-7.66-1.58-3.43.63-8.15,3.06-10.73C282.82,307.36,286.75,309.24,291.2,306.36Z"/><rect class="cls-2" x="169.13" y="278.33" width="90.86" height="34.18"/><path class="cls-3" d="M224.46,295.26a9.62,9.62,0,1,1-9.62-9.62,9.62,9.62,0,0,1,9.62,9.62"/><polygon class="cls-4" points="188.01 289.75 192.02 284.59 191.78 291.12 198.16 289.75 193.78 294.59 199.56 297.64 193.09 298.54 195.55 304.59 190.02 301.12 188.01 307.33 186.01 301.12 180.48 304.59 182.94 298.54 176.47 297.64 182.24 294.59 177.86 289.75 184.24 291.12 184 284.59 188.01 289.75"/><polygon class="cls-5" points="246.28 285.82 251.78 295.35 246.28 304.87 235.28 304.87 229.78 295.35 235.28 285.82 246.28 285.82"/><path d="M98.93,149.45l-4.7-14.32v14.32h-3.5v-19H96.2l4.62,14.85,4.5-14.85h5.51v19h-3.49V135.13l-4.68,14.32Z"/><path d="M138.45,149.28c0,.11,0,.17-.12.17-.36,0-.94,0-1.75-.06s-1.33-.06-1.69-.06-1,0-1.64.06-1.13.06-1.46.06c-.08,0-.11-.06-.11-.17s0-.18.11-.18a4,4,0,0,0,1.41-.18.69.69,0,0,0,.43-.68,3.41,3.41,0,0,0-.43-1.34L130,140.24h-5.27l-2.36,5.42a4.39,4.39,0,0,0-.4,1.58q0,1.86,2.79,1.86c.09,0,.14.06.14.18s0,.17-.14.17q-.52,0-1.5-.06c-.72,0-1.36-.06-1.89-.06s-1.09,0-1.78.06-1.11.06-1.49.06c-.08,0-.12-.06-.12-.17s0-.18.12-.18a2.71,2.71,0,0,0,1.36-.31,3.29,3.29,0,0,0,1.08-1.09,15.83,15.83,0,0,0,1.17-2.3l6.11-14.08c0-.06.09-.09.2-.1s.19,0,.21.1l6.91,14.2a12,12,0,0,0,1.66,2.84,2.06,2.06,0,0,0,1.55.74Q138.45,149.1,138.45,149.28ZM125,139.58h4.71l-2.47-5.16Z"/><path d="M159.28,149.92a3.7,3.7,0,0,1-3.78-2.47L153.35,143a5.68,5.68,0,0,0-.88-1.37,2,2,0,0,0-.94-.63l-.63-.06-.58,0a.19.19,0,0,0-.21.16c0,.11,0,.21,0,.32l0,5.2a2.86,2.86,0,0,0,.16,1,1.58,1.58,0,0,0,.53.7,2.87,2.87,0,0,0,1,.43,2.51,2.51,0,0,1,.61.18.34.34,0,0,1,.21.32c0,.1-.08.19-.23.25a1.45,1.45,0,0,1-.54.09c-.49,0-.88,0-1.19-.05l-.84-.11a7.61,7.61,0,0,0-.88,0c-.41,0-.77,0-1.09,0l-1,.11c-.36,0-.79.05-1.3.05a1.71,1.71,0,0,1-.54-.08.28.28,0,0,1-.22-.26c0-.23.27-.4.81-.5a2.37,2.37,0,0,0,1.36-.59,2,2,0,0,0,.35-1.33V135a1.79,1.79,0,0,0-.36-1.26,2.89,2.89,0,0,0-1.4-.58c-.51-.1-.76-.28-.76-.52a.27.27,0,0,1,.2-.26,1.15,1.15,0,0,1,.48-.08l1.23,0,1,.06,1.08,0h.88l.88,0c.32,0,.69,0,1.13,0a1.55,1.55,0,0,1,.49.07.25.25,0,0,1,.17.25.37.37,0,0,1-.19.33,1.62,1.62,0,0,1-.58.19,1.92,1.92,0,0,0-1.24.66,2.28,2.28,0,0,0-.25,1.18v4.6a1,1,0,0,0,0,.37.17.17,0,0,0,.16.1h.81a2.78,2.78,0,0,0,2-.79,5.38,5.38,0,0,0,1.3-2l1-2.47a7.71,7.71,0,0,1,.71-1.37,3.3,3.3,0,0,1,1.09-1,3.41,3.41,0,0,1,1.67-.38,1.45,1.45,0,0,1,1.24.43,1.73,1.73,0,0,1,.31,1,1.48,1.48,0,0,1-.33,1,1,1,0,0,1-.77.38,1.93,1.93,0,0,1-.87-.22,1.79,1.79,0,0,0-.79-.22,1.35,1.35,0,0,0-.8.25,2.43,2.43,0,0,0-.69,1.06l-.84,2.08a5.39,5.39,0,0,1-.5,1,5,5,0,0,1-.61.77.33.33,0,0,0-.1.27.67.67,0,0,0,.1.23,1.67,1.67,0,0,1,.7.57c.18.27.43.69.75,1.27l2.13,3.81a13.65,13.65,0,0,0,1,1.58,3.65,3.65,0,0,0,.86.86,2.55,2.55,0,0,0,.89.35,6.43,6.43,0,0,0,1.14.09.31.31,0,0,1,.25.11.33.33,0,0,1,.1.24.37.37,0,0,1-.08.21.71.71,0,0,1-.16.15,3.08,3.08,0,0,1-1,.4A6,6,0,0,1,159.28,149.92Z"/><path d="M176.86,130.48a6.86,6.86,0,0,1,2.85.51,9.15,9.15,0,0,1,2,1.2q.52.39.81.09a2.81,2.81,0,0,0,.38-1.43h.6c0,.65-.06,1.43-.08,2.36s0,2.16,0,3.68h-.61c-.12-.75-.23-1.35-.34-1.8a5.24,5.24,0,0,0-.38-1.14,5.46,5.46,0,0,0-.59-.95,4.63,4.63,0,0,0-2.05-1.56,7.11,7.11,0,0,0-2.6-.49,4.33,4.33,0,0,0-2.33.65,5.55,5.55,0,0,0-1.78,1.85,9.73,9.73,0,0,0-1.16,2.92,16.54,16.54,0,0,0-.41,3.83,15.26,15.26,0,0,0,.45,3.9,8.9,8.9,0,0,0,1.25,2.85,5.41,5.41,0,0,0,1.89,1.75,4.91,4.91,0,0,0,2.35.59,7.27,7.27,0,0,0,2.47-.47,4.11,4.11,0,0,0,2-1.53,4.22,4.22,0,0,0,.8-1.65,19.89,19.89,0,0,0,.41-2.5h.61c0,1.6,0,2.88,0,3.85s0,1.79.08,2.46h-.6a2.89,2.89,0,0,0-.36-1.42c-.16-.19-.44-.17-.83.08a12.7,12.7,0,0,1-2.06,1.19,6.45,6.45,0,0,1-2.8.52,8.34,8.34,0,0,1-4.37-1.13,7.67,7.67,0,0,1-2.92-3.26,13.08,13.08,0,0,1,0-10.27,8.56,8.56,0,0,1,3-3.45A7.7,7.7,0,0,1,176.86,130.48Z"/><path d="M199.46,130.85v.52a4.05,4.05,0,0,0-1.25.2.92.92,0,0,0-.58.63,5,5,0,0,0-.15,1.43v13a5,5,0,0,0,.15,1.42.88.88,0,0,0,.58.63,4.32,4.32,0,0,0,1.25.21v.53c-.48,0-1.07-.06-1.79-.07h-4.55c-.73,0-1.33,0-1.78.07v-.53a4.27,4.27,0,0,0,1.26-.21.88.88,0,0,0,.56-.63,5,5,0,0,0,.15-1.42v-13a5,5,0,0,0-.15-1.43.92.92,0,0,0-.58-.63,4,4,0,0,0-1.24-.2v-.52l1.78.05q1.11,0,2.37,0c.73,0,1.46,0,2.18,0Zm6,1.44c0,.37,0,.75,0,1.13l-8.77,14.85-.24-.74Zm5.62-1.44v.52a4.11,4.11,0,0,0-1.25.2.94.94,0,0,0-.58.63,5.52,5.52,0,0,0-.14,1.43v13a5.49,5.49,0,0,0,.14,1.42.9.9,0,0,0,.58.63,4.39,4.39,0,0,0,1.25.21v.53c-.46,0-1.05-.06-1.79-.07h-4.55c-.73,0-1.32,0-1.78.07v-.53a4.39,4.39,0,0,0,1.25-.21.9.9,0,0,0,.58-.63,5.49,5.49,0,0,0,.14-1.42v-13a5.52,5.52,0,0,0-.14-1.43.94.94,0,0,0-.58-.63,4.11,4.11,0,0,0-1.25-.2v-.52l1.78.05q1.08,0,2.19,0c.84,0,1.63,0,2.36,0Z"/><path d="M239,130.85v.52a4.64,4.64,0,0,0-1.35.2,1,1,0,0,0-.62.63,5,5,0,0,0-.16,1.43v13a4.93,4.93,0,0,0,.16,1.42.93.93,0,0,0,.62.63,4.94,4.94,0,0,0,1.35.21v.53c-.4,0-.9-.06-1.51-.07h-3.74c-.6,0-1.08,0-1.45.07v-.53a4.87,4.87,0,0,0,1.35-.21.91.91,0,0,0,.62-.63,4.6,4.6,0,0,0,.16-1.42V132.21l.1.08-6.43,17.29h-.42l-6.62-17.05V146.4a5,5,0,0,0,.17,1.49,1.17,1.17,0,0,0,.68.76,4.54,4.54,0,0,0,1.54.27v.53c-.32,0-.73-.06-1.24-.07h-2.77a10.58,10.58,0,0,0-1.12.07v-.53a3.64,3.64,0,0,0,1.36-.27,1.2,1.2,0,0,0,.62-.76,5.83,5.83,0,0,0,.15-1.49V133.63a5,5,0,0,0-.15-1.43,1,1,0,0,0-.62-.63,4.72,4.72,0,0,0-1.36-.2v-.52l1.12.05,1.33,0,1.19,0,1-.05,6,15.71-.45.21,5.91-15.84h1.23q.93,0,1.83,0Z"/><path d="M98.33,178h-.62l-1.1,0-1.27-.06-1.21,0-1.38,0-1.73,0-1.53,0h-.82a.61.61,0,0,1-.3-.16c-.15-.1-.23-.2-.23-.28a.33.33,0,0,1,.08-.24l.18-.18,4.26-4.52a12.59,12.59,0,0,0,2.14-3.05,7.6,7.6,0,0,0,.8-3.42,2.88,2.88,0,0,0-.73-2.06,2.42,2.42,0,0,0-1.84-.77,3.44,3.44,0,0,0-1.91.56,4.93,4.93,0,0,0-1.43,1.41,1.37,1.37,0,0,1-.26.28.53.53,0,0,1-.34.14c-.09,0-.17-.07-.25-.21a1.07,1.07,0,0,1-.12-.53,1.88,1.88,0,0,1,.39-.93,6,6,0,0,1,1.11-1.2,6.6,6.6,0,0,1,1.68-1,5.25,5.25,0,0,1,2.1-.42,4.38,4.38,0,0,1,2.26.56,3.86,3.86,0,0,1,1.45,1.55,5,5,0,0,1,.49,2.25,5.11,5.11,0,0,1-.27,1.55,10.24,10.24,0,0,1-.72,1.63,9.43,9.43,0,0,1-1,1.44q-.34.42-1,1.08l-1.36,1.38-1.38,1.37c-.44.43-.8.78-1.07,1.06a2.68,2.68,0,0,0-.41.47c0,.07.13.13.37.16s.67.06,1.07.08.82,0,1.27,0,.94,0,1.41,0,.91,0,1.35-.08a6.47,6.47,0,0,0,1.13-.16,1.58,1.58,0,0,0,.72-.39,3.16,3.16,0,0,0,.59-.82c.07-.1.17-.22.29-.36a.55.55,0,0,1,.4-.21.21.21,0,0,1,.21.13.46.46,0,0,1,0,.26c0,.21-.14.49-.26.84s-.24.72-.37,1.12a11.46,11.46,0,0,0-.29,1.11.63.63,0,0,1-.25.49A.67.67,0,0,1,98.33,178Z"/><path d="M118.9,168.79a20.14,20.14,0,0,1-.33,3.8,8.78,8.78,0,0,1-1.1,3,5.46,5.46,0,0,1-2,1.92,7.12,7.12,0,0,1-5.92.07,4.71,4.71,0,0,1-1.88-1.8,8.31,8.31,0,0,1-1-2.91,23.43,23.43,0,0,1-.3-4,19.45,19.45,0,0,1,.34-3.8,8.62,8.62,0,0,1,1.09-3,5.23,5.23,0,0,1,2-1.92,6.1,6.1,0,0,1,3-.68,6.19,6.19,0,0,1,2.9.61,4.75,4.75,0,0,1,1.88,1.79,8.52,8.52,0,0,1,1,2.91A23.48,23.48,0,0,1,118.9,168.79Zm-2.47.16c0-.9,0-1.71-.1-2.43a13.1,13.1,0,0,0-.29-1.91,5.62,5.62,0,0,0-.49-1.42,3.37,3.37,0,0,0-.72-1,2.58,2.58,0,0,0-1-.56,3.8,3.8,0,0,0-1.21-.18,3.14,3.14,0,0,0-1.93.56,3.74,3.74,0,0,0-1.17,1.54,7.9,7.9,0,0,0-.58,2.3,25,25,0,0,0-.16,2.83,24,24,0,0,0,.21,3.45,7.73,7.73,0,0,0,.67,2.32,3,3,0,0,0,1.16,1.3,3.32,3.32,0,0,0,1.72.41,3.5,3.5,0,0,0,1.38-.25,3,3,0,0,0,1-.72,4,4,0,0,0,.71-1.13,8.08,8.08,0,0,0,.45-1.46,12.5,12.5,0,0,0,.23-1.73C116.41,170.27,116.43,169.63,116.43,169Z"/><path d="M139.17,168.79a20.14,20.14,0,0,1-.33,3.8,8.77,8.77,0,0,1-1.09,3,5.41,5.41,0,0,1-2,1.92,7.1,7.1,0,0,1-5.91.07,4.8,4.8,0,0,1-1.89-1.8,8.52,8.52,0,0,1-1-2.91,23.43,23.43,0,0,1-.3-4,20.3,20.3,0,0,1,.33-3.8,9,9,0,0,1,1.09-3,5.31,5.31,0,0,1,2-1.92,7.12,7.12,0,0,1,5.92-.07,4.71,4.71,0,0,1,1.89,1.79,8.52,8.52,0,0,1,1,2.91A23.56,23.56,0,0,1,139.17,168.79Zm-2.46.16c0-.9,0-1.71-.1-2.43a14.62,14.62,0,0,0-.29-1.91,6,6,0,0,0-.49-1.42,3.37,3.37,0,0,0-.72-1,2.58,2.58,0,0,0-1-.56,3.8,3.8,0,0,0-1.21-.18A3.12,3.12,0,0,0,131,162a3.74,3.74,0,0,0-1.17,1.54,8.23,8.23,0,0,0-.59,2.3,25.07,25.07,0,0,0-.15,2.83,24,24,0,0,0,.21,3.45,7.45,7.45,0,0,0,.67,2.32,3,3,0,0,0,1.16,1.3,3.28,3.28,0,0,0,1.71.41,3.44,3.44,0,0,0,1.38-.25,3,3,0,0,0,1-.72,4,4,0,0,0,.7-1.13,7.36,7.36,0,0,0,.45-1.46,12.5,12.5,0,0,0,.23-1.73C136.69,170.27,136.71,169.63,136.71,169Z"/><path d="M151.93,178a.75.75,0,0,1-.33-.09.29.29,0,0,1-.19-.29.27.27,0,0,1,.17-.23,1.57,1.57,0,0,1,.35-.11,3.43,3.43,0,0,0,1.78-.58,1.43,1.43,0,0,0,.43-1.09v-2.66c0-.1-.07-.17-.2-.2l-.23-.06c-.79,0-1.52,0-2.2,0l-2.14.09c-.74,0-1.62,0-2.63.07a.26.26,0,0,1-.21-.1.34.34,0,0,1-.08-.19.1.1,0,0,1,0-.08l.54-.65.29-.31.29-.39,7.57-10.87a3.79,3.79,0,0,1,.41-.53.67.67,0,0,1,.45-.28h.6c.1,0,.08.14,0,.4L148.83,171a1.38,1.38,0,0,0-.06.16c0,.07,0,.1.06.1h5a.39.39,0,0,0,.23-.07c.08-.05.12-.1.12-.16v-4.44a1.38,1.38,0,0,1,0-.43.38.38,0,0,1,.21-.2,2.78,2.78,0,0,1,.92-.31c.33,0,.56-.07.69-.07s.33.16.37.46a11.7,11.7,0,0,1,.06,1.38v3.7c0,.11,0,.17.15.17l.6,0h1.36l.88-.05c.21,0,.31.08.31.23a1,1,0,0,1-.13.49,2.13,2.13,0,0,1-.27.43c-.1.12-.16.17-.2.17h-.69l-.72,0-.49,0-.4,0a1.44,1.44,0,0,0-.24.09c-.09,0-.13.06-.13.08v2.7a1.41,1.41,0,0,0,.39,1.15,4.62,4.62,0,0,0,1.53.63,1,1,0,0,1,.35.14.33.33,0,0,1,.17.26.28.28,0,0,1-.13.22.54.54,0,0,1-.3.1c-.54,0-1,0-1.28,0l-.87-.07c-.27,0-.63,0-1.09,0s-.87,0-1.17,0l-.9.07C152.85,178,152.44,178,151.93,178Z"/><path d="M166.33,173.42c-.11,0-.16,0-.16-.15a3.69,3.69,0,0,1,.12-.92c.08-.32.18-.49.3-.5l2.52-.36,2.53-.3a.23.23,0,0,1,.14,0,.12.12,0,0,1,.07.12,3.48,3.48,0,0,1-.12.93c-.08.29-.22.45-.44.49l-2.4.35C168.08,173.24,167.22,173.34,166.33,173.42Z"/><path d="M189.16,178h-.63l-1.09,0-1.27-.06-1.21,0-1.38,0-1.74,0-1.52,0h-.83a.71.71,0,0,1-.3-.16c-.15-.1-.22-.2-.22-.28a.29.29,0,0,1,.08-.24l.18-.18,4.26-4.52a12.88,12.88,0,0,0,2.14-3.05,7.73,7.73,0,0,0,.8-3.42,2.89,2.89,0,0,0-.74-2.06,2.41,2.41,0,0,0-1.84-.77,3.43,3.43,0,0,0-1.9.56,4.69,4.69,0,0,0-1.43,1.41,1.19,1.19,0,0,1-.27.28.49.49,0,0,1-.34.14c-.08,0-.17-.07-.25-.21a1.07,1.07,0,0,1-.12-.53,1.91,1.91,0,0,1,.4-.93,6,6,0,0,1,1.1-1.2,7,7,0,0,1,1.68-1,5.26,5.26,0,0,1,2.11-.42,4.37,4.37,0,0,1,2.25.56,3.73,3.73,0,0,1,1.45,1.55,5,5,0,0,1,.5,2.25,4.85,4.85,0,0,1-.28,1.55,8.71,8.71,0,0,1-.72,1.63,9.43,9.43,0,0,1-1,1.44c-.23.28-.55.64-1,1.08l-1.37,1.38-1.38,1.37c-.44.43-.79.78-1.06,1.06a2.68,2.68,0,0,0-.41.47c0,.07.12.13.37.16s.67.06,1.06.08.82,0,1.28,0,.94,0,1.4,0,.92,0,1.35-.08a6.33,6.33,0,0,0,1.13-.16,1.57,1.57,0,0,0,.73-.39,3.16,3.16,0,0,0,.59-.82c.07-.1.17-.22.29-.36a.51.51,0,0,1,.39-.21.19.19,0,0,1,.21.13.39.39,0,0,1,0,.26c0,.21-.14.49-.26.84s-.25.72-.37,1.12a11.46,11.46,0,0,0-.29,1.11.66.66,0,0,1-.25.49A.67.67,0,0,1,189.16,178Z"/><path d="M209.72,168.79a20.14,20.14,0,0,1-.33,3.8,8.77,8.77,0,0,1-1.09,3,5.41,5.41,0,0,1-2,1.92,7.12,7.12,0,0,1-5.92.07,4.84,4.84,0,0,1-1.88-1.8,8.31,8.31,0,0,1-1-2.91,22.37,22.37,0,0,1-.31-4,20.26,20.26,0,0,1,.34-3.8,8.83,8.83,0,0,1,1.09-3,5.31,5.31,0,0,1,2-1.92,7.12,7.12,0,0,1,5.92-.07,4.62,4.62,0,0,1,1.88,1.79,8.31,8.31,0,0,1,1,2.91A23.56,23.56,0,0,1,209.72,168.79Zm-2.46.16c0-.9,0-1.71-.1-2.43a14.62,14.62,0,0,0-.29-1.91,6.53,6.53,0,0,0-.49-1.42,3.37,3.37,0,0,0-.72-1,2.58,2.58,0,0,0-1-.56,3.8,3.8,0,0,0-1.21-.18,3.17,3.17,0,0,0-1.94.56,3.92,3.92,0,0,0-1.17,1.54,8.59,8.59,0,0,0-.58,2.3,25.07,25.07,0,0,0-.15,2.83,24,24,0,0,0,.21,3.45,7.45,7.45,0,0,0,.67,2.32,3,3,0,0,0,1.16,1.3,3.28,3.28,0,0,0,1.71.41,3.44,3.44,0,0,0,1.38-.25,3,3,0,0,0,1-.72,4,4,0,0,0,.7-1.13,7.36,7.36,0,0,0,.45-1.46,12.5,12.5,0,0,0,.23-1.73C207.23,170.27,207.26,169.63,207.26,169Z"/><path d="M229.25,172.07c0-3-2.67-4-6-4h-.43v-2.38h.35c3.64,0,5.53-1,5.53-3.45,0-2.2-1.83-3.38-4-3.38a4.19,4.19,0,0,0-4.54,4h-2.69c.31-3.67,2.92-6.22,7.28-6.22,3.59,0,6.75,1.46,6.75,5.28a5.08,5.08,0,0,1-3.39,4.82c3.1,1,4,3,4,5.22,0,4.19-3.53,6.22-7.52,6.22-4.93,0-7.08-3-7.4-6.51h2.7c.31,2.55,1.78,4.33,4.73,4.33C227.3,176.08,229.25,174.68,229.25,172.07Z"/><path d="M243.13,177.89V163.65H239v-2.47c2.73-.08,4.07-.26,5-2.34h2.76v19Z"/></svg>