<svg id="Слой_1" data-name="Слой 1" xmlns="http://www.w3.org/2000/svg" viewBox="0 0 400 400"><defs><style>.cls-1,.cls-2{fill:#fff;stroke:#000;stroke-width:3px;}.cls-1{stroke-miterlimit:10;}.cls-2{stroke-linecap:round;stroke-linejoin:round;}.cls-3{fill:#b8ad99;}.cls-4{fill:#608b70;}.cls-5{fill:#c1362d;}</style></defs><title>g20</title><path class="cls-1" d="M359.61,42.74C431.25,58.33,349.44,388,349.44,388H66.49C37.83,148.43,40.27,71.72,60,59.72c21.56-13.11,57.44,50.07,88.77,25.47,19-14.91,17.94-47.63,33.29-50.94,23.87-5.15,40.16,71,62.88,65.09,15.75-4.06,16.31-42.75,35.14-50.94,15.54-6.76,32.65,12,44.39,28.3C324.48,76.7,337.45,37.92,359.61,42.74Z"/><path class="cls-1" d="M222.45,186c-5.26-4-14.11-3.89-20-2.11-8.44,2.55-7.94,7.74-18.32,14.79-9.7,6.58-13.17,4.12-21.66,9.86-9.88,6.68-9.91,13.22-16.65,21.83-3.35,4.28-15.51,17.14-34.14,21.13-11.09,2.37-14.2-.7-20.82,2.81-10.07,5.34-15.3,19-10.83,28.88,3.56,7.84,10.52,7.23,26.65,18.31,12.77,8.77,24.85,17.06,27.48,28.87,3.55,15.95-9.2,19.2-4.16,23.36,4.55,3.77,17.9,5.58,29.14-2.23C171.38,343,169.84,338,180,333.14c16.72-8,35.75-1.72,36.64-1.41,12.11,4.19,18.42,12.39,22.49,17.61,9.45,12.13,5.41,16.83,12.49,21.83,12.3,8.69,37.09,3.34,52.46-5.64,3.67-2.14,12.34-7.33,18.32-16.9,14.89-23.84-9.61-38.61-10-86.62-.14-16.63,2.69-29.88-7.5-36.62-8.55-5.65-17.51-.94-25.81-7-13.51-9.93-4.05-32.84-10-34.51-2.72-.76-6.43,7.85-20,21.13-3.27,3.2-6.52,6.1-10,5.63-2-.27-3.8-1.6-7.5-7.75C225.07,192,226.5,189,222.45,186Z"/><polyline class="cls-2" points="228.46 303.03 251.68 303.03 251.68 341.28 274 341.28 274 303.03 293.58 303.03"/><line class="cls-2" x1="159.4" y1="291.77" x2="145.38" y2="278.83"/><line class="cls-2" x1="165.69" y1="289.08" x2="165.69" y2="274.51"/><line class="cls-2" x1="171.45" y1="291.59" x2="182.59" y2="278.65"/><line class="cls-2" x1="175.4" y1="297.35" x2="187.81" y2="297.35"/><line class="cls-2" x1="173.24" y1="303.46" x2="185.83" y2="313.53"/><line class="cls-2" x1="168.57" y1="307.05" x2="171.45" y2="318.2"/><line class="cls-2" x1="162.46" y1="307.05" x2="159.22" y2="318.2"/><line class="cls-2" x1="157.78" y1="303.46" x2="145.2" y2="313.53"/><line class="cls-2" x1="157.78" y1="297.35" x2="145.2" y2="297.35"/><polygon class="cls-3" points="239.59 281.69 244.25 275.71 243.97 283.29 251.38 281.69 246.29 287.32 253 290.87 245.49 291.9 248.34 298.93 241.92 294.9 239.59 302.12 237.26 294.9 230.84 298.93 233.69 291.9 226.18 290.87 232.88 287.32 227.8 281.69 235.22 283.29 234.93 275.71 239.59 281.69"/><path class="cls-4" d="M236.7,250.11a11,11,0,1,1-11-11,11,11,0,0,1,11,11"/><polygon class="cls-3" points="194.97 243.79 199.56 237.89 199.28 245.36 206.59 243.79 201.58 249.34 208.19 252.84 200.78 253.86 203.59 260.79 197.26 256.81 194.97 263.93 192.67 256.81 186.34 260.79 189.15 253.86 181.75 252.84 188.36 249.34 183.34 243.79 190.65 245.36 190.38 237.89 194.97 243.79"/><polygon class="cls-5" points="261.69 239.29 267.98 250.2 261.69 261.11 249.09 261.11 242.79 250.2 249.09 239.29 261.69 239.29"/><polygon class="cls-3" points="165.67 293.62 169.35 288.9 169.13 294.88 174.98 293.62 170.97 298.07 176.26 300.87 170.33 301.69 172.58 307.23 167.51 304.05 165.67 309.75 163.84 304.05 158.76 307.23 161.02 301.69 155.09 300.87 160.38 298.07 156.36 293.62 162.22 294.88 162 288.9 165.67 293.62"/><path d="M120,120.93H109.19v19.61h-3.14V118.22H120Z"/><path d="M142.93,119c0,.92-.12,1.88-.22,2.86s-.23,1.91-.4,2.77h-1.26L139.63,121h-5.75v7.54h3.75l1.36-2.37h1c.1,1,.16,2.13.16,3.36s-.06,2.38-.16,3.44h-1l-1.36-2.43h-3.75v8h6l1.63-3.9h1.26c.08.39.17.83.25,1.32s.15,1,.2,1.52.09,1.05.12,1.59,0,1,0,1.48H126.74v-1.17a9.93,9.93,0,0,1,1.17-.53,7.46,7.46,0,0,1,1.35-.37V121.05a11.19,11.19,0,0,1-1.31-.35,6.85,6.85,0,0,1-1.21-.54V119Z"/><path d="M158.82,140.54h-7.13v-.82A12.48,12.48,0,0,1,154,139V122.32a7.21,7.21,0,0,1-2.31-.7v-.82h7.13v.82a5.75,5.75,0,0,1-1,.42,7.7,7.7,0,0,1-1.1.28v7.36h8.85v-7.36a11.17,11.17,0,0,1-1.11-.31,8,8,0,0,1-1-.39v-.82h7.13v.82a4.94,4.94,0,0,1-1.11.44c-.41.1-.8.19-1.2.26V139c.43.08.85.17,1.24.28a7.75,7.75,0,0,1,1.07.4v.82h-7.13v-.82a10.39,10.39,0,0,1,2.11-.68v-7.89H156.7V139c.38.08.75.17,1.1.28a9.41,9.41,0,0,1,1,.4Z"/><path d="M196.85,140.37c0,.11,0,.17-.12.17-.35,0-.91,0-1.66-.06s-1.3-.06-1.64-.06-.93,0-1.57.06-1.07.06-1.39.06c-.07,0-.11-.06-.11-.17s0-.17.11-.17A4.35,4.35,0,0,0,192,140a.69.69,0,0,0,.48-.68,3.56,3.56,0,0,0-.37-1.21l-3.24-6.91h-5.33L181.12,137a4.19,4.19,0,0,0-.4,1.57c0,1.11.92,1.67,2.76,1.67.1,0,.15.05.15.17s0,.17-.15.17c-.33,0-.82,0-1.46-.06s-1.34-.06-1.86-.06-1.06,0-1.69.06-1,.06-1.41.06c-.1,0-.14-.06-.14-.17s0-.17.14-.17a2.79,2.79,0,0,0,1.34-.3,3.11,3.11,0,0,0,1-1,13.38,13.38,0,0,0,1.08-2.16l5.95-14a.25.25,0,0,1,.2-.08c.09,0,.15,0,.17.08l6.65,14a11.22,11.22,0,0,0,1.64,2.81,2.12,2.12,0,0,0,1.6.72C196.81,140.2,196.85,140.25,196.85,140.37Zm-13.06-9.76h4.8l-2.54-5.35Z"/><path d="M228.66,119.79V122h-8.95v5.57a23.61,23.61,0,0,1,2.55-.15,9.91,9.91,0,0,1,5.36,1.38,5.71,5.71,0,0,1,2.64,5.08,6.08,6.08,0,0,1-1.72,4.49c-1.69,1.66-4.49,2.31-7.33,2.31a30.14,30.14,0,0,1-4.18-.25V119.79Zm-8.95,18.68a11,11,0,0,0,2.24.16,6.08,6.08,0,0,0,4.37-1.6,4.27,4.27,0,0,0,1.14-3.05,3.88,3.88,0,0,0-1.69-3.39,7,7,0,0,0-3.94-1c-.62,0-1.45.06-2.12.12Z"/><path d="M256.31,120.58v.56a2.42,2.42,0,0,0-1.13.79,11.33,11.33,0,0,0-1.26,2l-6.43,12.83-.54.06-7.72-14a4.93,4.93,0,0,0-1-1.3,1.23,1.23,0,0,0-.76-.31v-.59l.87,0,1,0h2.41q.74,0,1.47,0l1.3,0v.59a2.58,2.58,0,0,0-1.54.42c-.39.28-.38.85,0,1.69l5.64,10.32-.62.73,4.4-8.79a6.59,6.59,0,0,0,.87-2.67,1.4,1.4,0,0,0-.64-1.32,3.87,3.87,0,0,0-1.81-.41v-.56l1.69,0,1.64,0q.7,0,1.2,0Zm-8.74,14.77.51.2-1.32,2.67c-.25.49-.47.88-.65,1.16a5.06,5.06,0,0,1-.59.73,2.66,2.66,0,0,1-1.05.64,3.93,3.93,0,0,1-1.15.18,2.59,2.59,0,0,1-1.69-.52A1.68,1.68,0,0,1,241,139a1.59,1.59,0,0,1,.53-1.25,1.92,1.92,0,0,1,1.3-.47,2,2,0,0,1,1.24.38,1.29,1.29,0,0,1,.51,1.09,1.44,1.44,0,0,1-.33,1,2,2,0,0,1-.8.59.58.58,0,0,0,.31.06,1.88,1.88,0,0,0,1.35-.57,5.45,5.45,0,0,0,1.1-1.6Z"/><path d="M277.76,141a4.18,4.18,0,0,1-2.24-.58,4.45,4.45,0,0,1-1.62-2.07l-2-4.39a6.12,6.12,0,0,0-1.13-1.77,2.37,2.37,0,0,0-1.21-.8,4.93,4.93,0,0,0-.87-.1h-.85a.19.19,0,0,0-.22.19,2.47,2.47,0,0,0,0,.34v5.58a2.8,2.8,0,0,0,.2,1.1,1.94,1.94,0,0,0,.62.85,2.69,2.69,0,0,0,1.12.48,2.72,2.72,0,0,1,.71.2.33.33,0,0,1,.22.31c0,.11-.07.19-.22.24a2.32,2.32,0,0,1-.59.07,8.57,8.57,0,0,1-1.17-.06l-.74-.1a6.58,6.58,0,0,0-.86,0c-.45,0-.85,0-1.2,0l-1.05.1a12,12,0,0,1-1.3.06,2.32,2.32,0,0,1-.59-.07c-.15-.05-.23-.13-.23-.24s.31-.4.93-.51a2.52,2.52,0,0,0,1.48-.66,2.24,2.24,0,0,0,.41-1.51V125a1.88,1.88,0,0,0-.41-1.39,2.74,2.74,0,0,0-1.48-.61c-.62-.11-.93-.3-.93-.56s.08-.19.23-.24a1.94,1.94,0,0,1,.59-.07q.76,0,1.26,0l.94,0h1.9l.66,0c.25,0,.62,0,1.13,0a1.9,1.9,0,0,1,.59.07c.15,0,.23.12.23.24a.42.42,0,0,1-.23.34,2.22,2.22,0,0,1-.7.22c-.7.13-1.12.36-1.28.69a3,3,0,0,0-.24,1.31v4.88a1.86,1.86,0,0,0,0,.42.13.13,0,0,0,.14.12h1a3.51,3.51,0,0,0,2.36-.85,5.56,5.56,0,0,0,1.5-2.2l1.08-2.79a5.79,5.79,0,0,1,.71-1.35,3.19,3.19,0,0,1,1.15-1,3.5,3.5,0,0,1,1.72-.38c.6,0,1,.13,1.12.4a2,2,0,0,1,.23,1,1.29,1.29,0,0,1-.35,1,1.09,1.09,0,0,1-.72.31,1.89,1.89,0,0,1-.83-.21,1.86,1.86,0,0,0-.78-.21,1.34,1.34,0,0,0-.79.24,2.71,2.71,0,0,0-.7,1.14l-1,2.31c-.17.42-.35.79-.52,1.12a7.45,7.45,0,0,1-.58.88.5.5,0,0,0-.12.34,1.31,1.31,0,0,0,.09.28,4.27,4.27,0,0,1,.24.58,8.57,8.57,0,0,0,.52,1.09l2.28,4.08c.47.85.88,1.52,1.22,2a4.06,4.06,0,0,0,1,1.08,2.31,2.31,0,0,0,1,.44,7.65,7.65,0,0,0,1.38.1.29.29,0,0,1,.23.1.41.41,0,0,1,.08.24.35.35,0,0,1-.07.21.61.61,0,0,1-.16.16,3,3,0,0,1-.94.35A6.33,6.33,0,0,1,277.76,141Z"/><path d="M307.86,140.35c0,.12,0,.19-.06.19-.66,0-1.17,0-1.54,0l-2.13,0-2.24,0c-.37,0-.87,0-1.48,0,0,0-.06-.07-.06-.19s0-.18.06-.18a6.73,6.73,0,0,0,1.75-.16,1.1,1.1,0,0,0,.76-.6,3.59,3.59,0,0,0,.2-1.37V125.33l-11.45,12.25V138a3.41,3.41,0,0,0,.2,1.37,1.06,1.06,0,0,0,.75.6,6.82,6.82,0,0,0,1.76.16s.06.06.06.18,0,.19-.06.19c-.64,0-1.14,0-1.51,0l-2.22,0-2.12,0c-.37,0-.89,0-1.54,0,0,0-.06-.07-.06-.19s0-.18.06-.18a6.8,6.8,0,0,0,1.74-.16,1.1,1.1,0,0,0,.77-.6,3.59,3.59,0,0,0,.2-1.37V123.79a3.44,3.44,0,0,0-.2-1.35,1.15,1.15,0,0,0-.76-.6,6.08,6.08,0,0,0-1.72-.17s-.06-.06-.06-.19,0-.18.06-.18l1.57,0c.86,0,1.55.06,2.06.06s1.35,0,2.25-.06l1.48,0s.06.06.06.18,0,.19-.06.19a6.21,6.21,0,0,0-1.74.18,1.19,1.19,0,0,0-.77.63,3.44,3.44,0,0,0-.2,1.37v12.68l11.45-12.19v-.49a3.63,3.63,0,0,0-.2-1.37,1.22,1.22,0,0,0-.76-.63,6.15,6.15,0,0,0-1.75-.18s-.06-.06-.06-.19,0-.18.06-.18l1.48,0c.9,0,1.65.06,2.24.06s1.22,0,2.13-.06l1.54,0s.06.06.06.18,0,.19-.06.19a6.16,6.16,0,0,0-1.73.17,1.11,1.11,0,0,0-.75.6,3.27,3.27,0,0,0-.2,1.35V138a3.41,3.41,0,0,0,.2,1.37,1.06,1.06,0,0,0,.75.6,6.66,6.66,0,0,0,1.73.16S307.86,140.23,307.86,140.35Z"/><path d="M316.07,140.54V140a5.59,5.59,0,0,0,1.4-.22,1,1,0,0,0,.62-.68,5.78,5.78,0,0,0,.15-1.52v-14a5.71,5.71,0,0,0-.15-1.53,1,1,0,0,0-.62-.68,4.53,4.53,0,0,0-1.4-.21v-.56l1.81,0q1.1,0,2.37,0t2.22,0l1.81,0v.56a4.36,4.36,0,0,0-1.37.21,1,1,0,0,0-.63.68,4.86,4.86,0,0,0-.17,1.53v14a4.91,4.91,0,0,0,.17,1.52,1,1,0,0,0,.63.68,5.39,5.39,0,0,0,1.37.22v.57c-.47,0-1.07-.07-1.81-.08h-4.59C317.14,140.47,316.54,140.5,316.07,140.54Zm4.49-9.76v-.56h11.13v.56Zm7.41,9.76V140a5.68,5.68,0,0,0,1.4-.22,1,1,0,0,0,.62-.68,5.78,5.78,0,0,0,.15-1.52v-14A5.71,5.71,0,0,0,330,122a1.05,1.05,0,0,0-.62-.68,4.58,4.58,0,0,0-1.4-.21v-.56l1.89,0q1.13,0,2.25,0c.83,0,1.61,0,2.33,0l1.73,0v.56a4.34,4.34,0,0,0-1.36.21,1.06,1.06,0,0,0-.64.68,5.18,5.18,0,0,0-.17,1.53v14a5.24,5.24,0,0,0,.17,1.52,1,1,0,0,0,.64.68,5.38,5.38,0,0,0,1.36.22v.57c-.43,0-1-.07-1.73-.08h-4.58C329.11,140.47,328.48,140.5,328,140.54Z"/><path d="M135.06,168.36l-.68,0-1.17,0-1.37-.06-1.29,0-1.48,0-1.86,0-1.64,0-.89,0a.88.88,0,0,1-.32-.17c-.16-.11-.24-.22-.24-.31a.36.36,0,0,1,.09-.26l.19-.19,4.57-4.85a13.68,13.68,0,0,0,2.3-3.27,8.27,8.27,0,0,0,.86-3.67,3.11,3.11,0,0,0-.79-2.21,2.64,2.64,0,0,0-2-.83,3.66,3.66,0,0,0-2,.61,5.13,5.13,0,0,0-1.54,1.5,1.18,1.18,0,0,1-.28.31.51.51,0,0,1-.36.14c-.1,0-.19-.07-.27-.22a1.08,1.08,0,0,1-.13-.56,2.07,2.07,0,0,1,.42-1,6.9,6.9,0,0,1,1.19-1.28,7.09,7.09,0,0,1,1.8-1.1,5.66,5.66,0,0,1,2.26-.45,4.58,4.58,0,0,1,2.42.61,4,4,0,0,1,1.55,1.66,5.24,5.24,0,0,1,.24,4.07,9.4,9.4,0,0,1-.77,1.75,9.71,9.71,0,0,1-1.08,1.55c-.24.3-.59.69-1.05,1.16l-1.47,1.48-1.48,1.46c-.47.46-.85.85-1.14,1.15a3,3,0,0,0-.44.5c0,.08.13.14.4.17s.72.07,1.14.09.88,0,1.37,0,1,0,1.5,0,1,0,1.46-.09a6.36,6.36,0,0,0,1.21-.17,1.58,1.58,0,0,0,.77-.42,3.77,3.77,0,0,0,.64-.87,2.92,2.92,0,0,1,.31-.4.55.55,0,0,1,.42-.22.22.22,0,0,1,.23.14.67.67,0,0,1,0,.28c-.06.22-.16.53-.29.9s-.26.78-.39,1.2a10.65,10.65,0,0,0-.31,1.2.7.7,0,0,1-.27.52A.8.8,0,0,1,135.06,168.36Z"/><path d="M157.12,158.5a21.39,21.39,0,0,1-.36,4.09,9.22,9.22,0,0,1-1.17,3.18,5.71,5.71,0,0,1-2.14,2.06,6.74,6.74,0,0,1-3.26.73,6.6,6.6,0,0,1-3.09-.66,5,5,0,0,1-2-1.92,9.15,9.15,0,0,1-1.09-3.13,24.49,24.49,0,0,1-.32-4.26,21.51,21.51,0,0,1,.36-4.08,9.56,9.56,0,0,1,1.17-3.18,5.61,5.61,0,0,1,2.13-2.06,7.66,7.66,0,0,1,6.35-.08,5.15,5.15,0,0,1,2,1.93,8.81,8.81,0,0,1,1.08,3.12A24.58,24.58,0,0,1,157.12,158.5Zm-2.65.18c0-1,0-1.84-.1-2.61a15.11,15.11,0,0,0-.31-2,6.57,6.57,0,0,0-.53-1.52,3.41,3.41,0,0,0-.77-1.05,2.76,2.76,0,0,0-1-.61,4.39,4.39,0,0,0-1.3-.18,3.35,3.35,0,0,0-2.07.6,4.09,4.09,0,0,0-1.26,1.65,8.84,8.84,0,0,0-.62,2.47,28.64,28.64,0,0,0,.06,6.74,8.34,8.34,0,0,0,.71,2.48,3.2,3.2,0,0,0,1.25,1.4,3.63,3.63,0,0,0,1.84.44,3.79,3.79,0,0,0,1.48-.27,3.07,3.07,0,0,0,1.1-.78,4.3,4.3,0,0,0,.76-1.21,8.4,8.4,0,0,0,.48-1.56,14.19,14.19,0,0,0,.25-1.86C154.45,160.1,154.47,159.4,154.47,158.68Z"/><path d="M178.87,158.5a21.43,21.43,0,0,1-.35,4.09,9.43,9.43,0,0,1-1.17,3.18,5.78,5.78,0,0,1-2.14,2.06,6.74,6.74,0,0,1-3.26.73,6.54,6.54,0,0,1-3.09-.66,5,5,0,0,1-2-1.92,8.75,8.75,0,0,1-1.09-3.13,24.42,24.42,0,0,1-.33-4.26,21.51,21.51,0,0,1,.36-4.08,9.57,9.57,0,0,1,1.18-3.18,5.61,5.61,0,0,1,2.13-2.06,6.59,6.59,0,0,1,3.25-.73,6.74,6.74,0,0,1,3.1.65,5.06,5.06,0,0,1,2,1.93,9,9,0,0,1,1.09,3.12A24.65,24.65,0,0,1,178.87,158.5Zm-2.64.18c0-1,0-1.84-.11-2.61a17,17,0,0,0-.3-2,7.07,7.07,0,0,0-.53-1.52,3.57,3.57,0,0,0-.77-1.05,2.93,2.93,0,0,0-1-.61,4.39,4.39,0,0,0-1.3-.18,3.36,3.36,0,0,0-2.08.6,4,4,0,0,0-1.25,1.65,8.5,8.5,0,0,0-.63,2.47,30.16,30.16,0,0,0,.06,6.74,8,8,0,0,0,.72,2.48,3.18,3.18,0,0,0,1.24,1.4,3.67,3.67,0,0,0,1.85.44,3.79,3.79,0,0,0,1.48-.27,3,3,0,0,0,1.09-.78,4.09,4.09,0,0,0,.76-1.21,8.4,8.4,0,0,0,.48-1.56,12.68,12.68,0,0,0,.25-1.86C176.21,160.1,176.23,159.4,176.23,158.68Z"/><path d="M200.63,158.5a22.27,22.27,0,0,1-.35,4.09,9.43,9.43,0,0,1-1.18,3.18,5.71,5.71,0,0,1-2.14,2.06,6.74,6.74,0,0,1-3.26.73,6.6,6.6,0,0,1-3.09-.66,5,5,0,0,1-2-1.92,9.15,9.15,0,0,1-1.09-3.13,25.51,25.51,0,0,1-.32-4.26,21.51,21.51,0,0,1,.36-4.08,9.56,9.56,0,0,1,1.17-3.18,5.57,5.57,0,0,1,2.14-2.06,6.58,6.58,0,0,1,3.24-.73,6.78,6.78,0,0,1,3.11.65,5.12,5.12,0,0,1,2,1.93,9,9,0,0,1,1.09,3.12A25.69,25.69,0,0,1,200.63,158.5Zm-2.65.18c0-1,0-1.84-.1-2.61a15.11,15.11,0,0,0-.31-2,6.58,6.58,0,0,0-.52-1.52,3.6,3.6,0,0,0-.78-1.05,2.76,2.76,0,0,0-1-.61,4.35,4.35,0,0,0-1.3-.18,3.35,3.35,0,0,0-2.07.6,4.09,4.09,0,0,0-1.26,1.65,8.84,8.84,0,0,0-.62,2.47,28.64,28.64,0,0,0,.06,6.74,8.34,8.34,0,0,0,.71,2.48A3.2,3.2,0,0,0,192,166a3.66,3.66,0,0,0,1.84.44,3.76,3.76,0,0,0,1.48-.27,3.07,3.07,0,0,0,1.1-.78,4.3,4.3,0,0,0,.76-1.21,8.4,8.4,0,0,0,.48-1.56,14.19,14.19,0,0,0,.25-1.86C198,160.1,198,159.4,198,158.68Z"/><path d="M208.84,163.48a.15.15,0,0,1-.17-.17,3.85,3.85,0,0,1,.13-1c.08-.33.19-.51.32-.53l2.71-.38q1.35-.18,2.7-.33a.3.3,0,0,1,.16,0,.12.12,0,0,1,.07.12,3.56,3.56,0,0,1-.13,1c-.08.31-.24.49-.46.52-.85.14-1.71.26-2.58.39S209.8,163.39,208.84,163.48Z"/><path d="M233.34,168.36l-.68,0-1.17,0-1.37-.06-1.29,0-1.48,0-1.86,0-1.64,0-.89,0a.88.88,0,0,1-.32-.17c-.16-.11-.24-.22-.24-.31a.4.4,0,0,1,.08-.26l.2-.19,4.57-4.85a13.36,13.36,0,0,0,2.29-3.27,8.14,8.14,0,0,0,.86-3.67,3.11,3.11,0,0,0-.78-2.21,2.64,2.64,0,0,0-2-.83,3.66,3.66,0,0,0-2,.61,5.13,5.13,0,0,0-1.54,1.5,1.18,1.18,0,0,1-.28.31.54.54,0,0,1-.37.14c-.09,0-.18-.07-.26-.22a1.08,1.08,0,0,1-.13-.56,2.07,2.07,0,0,1,.42-1,6.57,6.57,0,0,1,1.19-1.28,6.92,6.92,0,0,1,1.8-1.1,5.66,5.66,0,0,1,2.26-.45,4.58,4.58,0,0,1,2.42.61,4,4,0,0,1,1.55,1.66,5.24,5.24,0,0,1,.24,4.07,9.44,9.44,0,0,1-.78,1.75,9.66,9.66,0,0,1-1.07,1.55c-.24.3-.59.69-1.05,1.16l-1.47,1.48-1.48,1.46c-.47.46-.85.85-1.14,1.15a3,3,0,0,0-.44.5c0,.08.13.14.4.17s.71.07,1.14.09.88,0,1.37,0,1,0,1.5,0,1,0,1.45-.09a6.36,6.36,0,0,0,1.22-.17,1.58,1.58,0,0,0,.77-.42,3.77,3.77,0,0,0,.64-.87,2.29,2.29,0,0,1,.31-.4.55.55,0,0,1,.42-.22.22.22,0,0,1,.23.14.54.54,0,0,1,0,.28,9.15,9.15,0,0,1-.28.9q-.19.57-.39,1.2a8.86,8.86,0,0,0-.31,1.2.7.7,0,0,1-.27.52A.8.8,0,0,1,233.34,168.36Z"/><path d="M255.4,158.5a21.39,21.39,0,0,1-.36,4.09,9.22,9.22,0,0,1-1.17,3.18,5.71,5.71,0,0,1-2.14,2.06,6.74,6.74,0,0,1-3.26.73,6.6,6.6,0,0,1-3.09-.66,5,5,0,0,1-2-1.92,8.94,8.94,0,0,1-1.09-3.13,24.49,24.49,0,0,1-.32-4.26,21.51,21.51,0,0,1,.36-4.08,9.56,9.56,0,0,1,1.17-3.18,5.61,5.61,0,0,1,2.13-2.06,6.62,6.62,0,0,1,3.25-.73,6.71,6.71,0,0,1,3.1.65,5.06,5.06,0,0,1,2,1.93,8.62,8.62,0,0,1,1.09,3.12A24.58,24.58,0,0,1,255.4,158.5Zm-2.65.18c0-1,0-1.84-.1-2.61a16.87,16.87,0,0,0-.31-2,6.57,6.57,0,0,0-.53-1.52,3.41,3.41,0,0,0-.77-1.05,2.84,2.84,0,0,0-1-.61,4.39,4.39,0,0,0-1.3-.18,3.4,3.4,0,0,0-2.08.6,4,4,0,0,0-1.25,1.65,8.5,8.5,0,0,0-.62,2.47,28.64,28.64,0,0,0,.06,6.74,8.06,8.06,0,0,0,.71,2.48,3.2,3.2,0,0,0,1.25,1.4,3.63,3.63,0,0,0,1.84.44,3.79,3.79,0,0,0,1.48-.27,3.16,3.16,0,0,0,1.1-.78,4.54,4.54,0,0,0,.76-1.21,8.4,8.4,0,0,0,.48-1.56,12.73,12.73,0,0,0,.24-1.86C252.73,160.1,252.75,159.4,252.75,158.68Z"/><path d="M275.42,150.17a9.43,9.43,0,0,0-2,.13,8.12,8.12,0,0,0-6.95,7.11h.09a6,6,0,0,1,4.83-2.31c3.54,0,6,2.55,6,6.46,0,3.66-2.49,7.05-6.65,7.05s-7.07-3.32-7.07-8.53a12.57,12.57,0,0,1,3.38-9,10.92,10.92,0,0,1,6.4-3,13.36,13.36,0,0,1,2-.15Zm-.77,11.55c0-2.87-1.63-4.59-4.12-4.59a4.47,4.47,0,0,0-3.88,2.46,2.36,2.36,0,0,0-.31,1.2c.06,3.3,1.57,5.73,4.4,5.73C273.08,166.52,274.65,164.58,274.65,161.72Z"/><path d="M297.37,150.17a9.4,9.4,0,0,0-2,.13,8.13,8.13,0,0,0-7,7.11h.09a6,6,0,0,1,4.83-2.31c3.54,0,6,2.55,6,6.46,0,3.66-2.5,7.05-6.65,7.05s-7.08-3.32-7.08-8.53a12.58,12.58,0,0,1,3.39-9,10.89,10.89,0,0,1,6.4-3,13.36,13.36,0,0,1,2-.15Zm-.77,11.55c0-2.87-1.63-4.59-4.13-4.59a4.45,4.45,0,0,0-3.87,2.46,2.27,2.27,0,0,0-.31,1.2c.06,3.3,1.57,5.73,4.4,5.73C295,166.52,296.6,164.58,296.6,161.72Z"/></svg>