<svg id="Слой_1" data-name="Слой 1" xmlns="http://www.w3.org/2000/svg" viewBox="0 0 400 400"><defs><style>.cls-1{fill:#fff;stroke:#000;stroke-miterlimit:10;stroke-width:3px;}.cls-2{fill:#b8ad99;}.cls-3{fill:#c1362d;}</style></defs><title>g21</title><path class="cls-1" d="M350.59,388H49.26S-4,135.52,49.26,81.3s254-59.63,301.33,0S350.59,388,350.59,388Z"/><path class="cls-1" d="M304.18,301.09c9.61-6.21,11.16-26.18,4.44-31-3.26-2.34-6.08.56-10.53-1.66-7.38-3.69-11.4-17.58-6.65-25.49,4.27-7.1,12.07-3.46,22.72-11.63.69-.53,15.52-12.17,13.29-23.27-1.93-9.62-14.61-8.58-21.6-23.27-2.93-6.14-2.83-10.76-6.1-11.63-3.93-1-10.14,4-11.63,10-2.06,8.19,6.44,11.6,6.65,20.5.27,11.86-14.48,21.2-28.26,29.92-12.25,7.75-18.89,12-27.7,11.08-11.73-1.17-13.43-10-27.14-17.18-15.87-8.31-32.08-6.16-49.31-3.88-18.16,2.41-32.35,4.29-44.87,15.52-18.91,16.95-20.4,43-20.5,45.42-.81,18.95,7.63,27.5,1.11,37.68-7,10.94-23.27,11.17-22.72,15,.4,2.71,8.91,3.94,15,3.33,2.18-.22,11.87-1.47,17.18-8.87,1.3-1.81.87-2,3.87-8.86,3.42-7.86,4.3-8.42,6.1-12.74,5.15-12.34,2.39-18.28,6.65-20.5,3.72-1.95,9,.94,11.63,3.32,6.4,5.82,6.14,17,1.66,21.06-3.08,2.75-7.24,1.3-8.86,4.43-1.51,2.92.8,6.72,1.11,7.2,2.53,4,8,6,12.74,5.54,8.09-.84,9.93-8.52,16.06-8.31,4.25.14,6.75,3.95,10.53,8.31,5,5.71,17.45,20.11,29.92,21.61s17.32-10.88,29.91-8.87c8.78,1.4,11.27,12.94,16.62,11.64,3.6-.88,3.17-5.7,8.31-8.31,3.73-1.9,7.54-1.18,13.3,0,11.84,2.42,12.57,6.2,18.28,5.54,7.16-.83,12.72-7.57,15-13.3,1-2.48,3.24-8.32.55-12.74-3.34-5.49-11-3.28-13.3-8.31-1.7-3.72.69-8.84,3.33-11.64C295.09,302.18,299.36,304.22,304.18,301.09Z"/><polygon class="cls-1" points="147.28 284.81 175.14 235.18 201.89 284.81 147.28 284.81"/><polygon class="cls-1" points="253.89 285.37 264.05 274.11 263.28 289.26 278.42 288.49 267.17 298.65 278.42 308.81 263.28 308.04 264.05 323.19 253.89 311.93 243.72 323.19 244.5 308.04 229.35 308.81 240.61 298.65 229.35 288.49 244.5 289.26 243.72 274.11 253.89 285.37"/><polygon class="cls-2" points="174.72 263.67 178.41 258.92 178.19 264.93 184.07 263.67 180.03 268.13 185.35 270.94 179.39 271.76 181.66 277.34 176.56 274.14 174.72 279.86 172.87 274.14 167.78 277.34 170.04 271.76 164.08 270.94 169.4 268.13 165.36 263.67 171.25 264.93 171.02 258.92 174.72 263.67"/><polygon class="cls-3" points="257.66 292.27 261.41 298.77 257.66 305.28 250.15 305.28 246.39 298.77 250.15 292.27 257.66 292.27"/><path d="M123.74,128.86a8.86,8.86,0,0,1-3.31-3.48,10.08,10.08,0,0,1-1.17-4.8,8.79,8.79,0,0,1,1.54-5.21,9.63,9.63,0,0,1,3.94-3.27,12,12,0,0,1,4.92-1.09,9.16,9.16,0,0,1,4.93,1.32,8.88,8.88,0,0,1,3.26,3.46,9.68,9.68,0,0,1,1.14,4.58,9,9,0,0,1-1.42,4.93,10.19,10.19,0,0,1-3.79,3.55,10.65,10.65,0,0,1-5.15,1.3A9.28,9.28,0,0,1,123.74,128.86Zm9.31-.34a6.56,6.56,0,0,0,2.38-2.85,10.55,10.55,0,0,0,.87-4.47,11.9,11.9,0,0,0-1-4.9,7.78,7.78,0,0,0-2.74-3.37,7.21,7.21,0,0,0-4.15-1.21,5.86,5.86,0,0,0-4.79,2.08,8.79,8.79,0,0,0-1.71,5.74,12.71,12.71,0,0,0,1,5.08,8.51,8.51,0,0,0,2.73,3.58,6.58,6.58,0,0,0,4,1.3A6.09,6.09,0,0,0,133.05,128.52Z"/><path d="M148.59,130.2a2.15,2.15,0,0,1-1.52-.49,1.57,1.57,0,0,1-.51-1.19,1.73,1.73,0,0,1,.21-.91.65.65,0,0,1,.55-.33,9.08,9.08,0,0,0,1.08.23,8.62,8.62,0,0,0,1.24.09,1.7,1.7,0,0,0,1.26-.65,5.55,5.55,0,0,0,1-2.13,22.38,22.38,0,0,0,.68-3.95q.24-2.46.24-6.09a1.52,1.52,0,0,0-.42-1.19,3.29,3.29,0,0,0-1.52-.59c-.53-.11-.79-.29-.79-.54a.27.27,0,0,1,.19-.27,1.16,1.16,0,0,1,.49-.09l.89,0,1.09.07c.39,0,.76,0,1.1,0h5.06l1.89,0h1.08l1,0c.36,0,.77,0,1.22,0a1.32,1.32,0,0,1,.48.07.25.25,0,0,1,.19.26.37.37,0,0,1-.19.33,1.64,1.64,0,0,1-.59.21,3.36,3.36,0,0,0-1.45.62,1.68,1.68,0,0,0-.42,1.3v12.22a1.58,1.58,0,0,0,.5,1.3,3.6,3.6,0,0,0,1.53.62,2.61,2.61,0,0,1,.58.19.33.33,0,0,1,.2.32.27.27,0,0,1-.18.25,1.45,1.45,0,0,1-.52.08c-.45,0-.86,0-1.23,0l-1.08-.07c-.35,0-.74,0-1.15,0s-.81,0-1.19,0l-1.15.07c-.39,0-.82,0-1.28,0a1.43,1.43,0,0,1-.5-.07.26.26,0,0,1-.21-.26c0-.23.26-.4.79-.51a3.3,3.3,0,0,0,1.53-.63,1.66,1.66,0,0,0,.5-1.29V115a2.56,2.56,0,0,0-.23-1.17,1,1,0,0,0-.91-.43h-3a.87.87,0,0,0-.76.3,1.66,1.66,0,0,0-.22,1,48.13,48.13,0,0,1-.4,6.81,22,22,0,0,1-1.06,4.5,9.35,9.35,0,0,1-1.39,2.67,4.13,4.13,0,0,1-1.47,1.24A3.18,3.18,0,0,1,148.59,130.2Z"/><path d="M185.88,110.64c-.07.64-.12,1.25-.15,1.84s0,1,0,1.35,0,.64,0,.94,0,.54.05.74h-.62a13.16,13.16,0,0,0-.46-2.53,2.18,2.18,0,0,0-1-1.32,4.6,4.6,0,0,0-2.15-.39h-2.24a4.86,4.86,0,0,0-1.39.15.91.91,0,0,0-.64.62,4.79,4.79,0,0,0-.16,1.47v13.41a4.85,4.85,0,0,0,.16,1.46.94.94,0,0,0,.64.64,4.86,4.86,0,0,0,1.39.15h2a5.71,5.71,0,0,0,2.59-.46,2.72,2.72,0,0,0,1.27-1.5,12.2,12.2,0,0,0,.58-2.83h.62c-.05.49-.08,1.14-.08,2,0,.34,0,.83,0,1.47s.08,1.31.15,2c-.92,0-2-.06-3.11-.07h-8.09c-1,0-1.95,0-2.84.07v-.54a5.68,5.68,0,0,0,1.4-.22,1,1,0,0,0,.63-.65,4.85,4.85,0,0,0,.16-1.46V113.51a4.79,4.79,0,0,0-.16-1.47,1,1,0,0,0-.63-.65,4.34,4.34,0,0,0-1.4-.2v-.55l2.84.06,2.86,0h2.15l2.82,0C184.11,110.7,185.05,110.68,185.88,110.64Zm-4.65,9.25v.54h-4.95v-.54Zm.78-3.57c-.07,1-.1,1.82-.09,2.36s0,1,0,1.48,0,1,0,1.49.06,1.33.13,2.35h-.62c-.07-.57-.16-1.14-.26-1.69a2.52,2.52,0,0,0-.65-1.35,2.24,2.24,0,0,0-1.68-.53v-.54a2,2,0,0,0,1.66-.62,3.25,3.25,0,0,0,.61-1.46l.24-1.49Z"/><path d="M213.23,108.38v21.41h-3v-9.71H199v9.71h-3V108.38h3v9.1h11.25v-9.1Z"/><path d="M233.11,130.2a10.15,10.15,0,0,1-3.72-.69,9.47,9.47,0,0,1-3.13-2,9.37,9.37,0,0,1-2.16-3.07,9.64,9.64,0,0,1-.8-4,11.57,11.57,0,0,1,.65-3.85,10.29,10.29,0,0,1,1.92-3.3A9.25,9.25,0,0,1,229,111a10.44,10.44,0,0,1,4.34-.86,10.16,10.16,0,0,1,3.72.7,9.47,9.47,0,0,1,3.13,2,9.37,9.37,0,0,1,2.16,3.07,9.64,9.64,0,0,1,.8,4,11.64,11.64,0,0,1-.65,3.84,10.08,10.08,0,0,1-1.92,3.3,9.14,9.14,0,0,1-3.16,2.31A10.44,10.44,0,0,1,233.11,130.2Zm.44-1.18a6.89,6.89,0,0,0,3.78-1,5.89,5.89,0,0,0,2.26-2.68,10.1,10.1,0,0,0,.75-4,15.3,15.3,0,0,0-.47-3.84,10.45,10.45,0,0,0-1.4-3.18,6.77,6.77,0,0,0-2.32-2.14,6.65,6.65,0,0,0-3.25-.77,6.85,6.85,0,0,0-3.72,1,5.92,5.92,0,0,0-2.27,2.64,9.52,9.52,0,0,0-.77,4,15.44,15.44,0,0,0,.46,3.87,10,10,0,0,0,1.38,3.19,6.76,6.76,0,0,0,2.32,2.17A6.54,6.54,0,0,0,233.55,129Z"/><path d="M262.19,109.12h7.92v1.12a5.19,5.19,0,0,1-1.16.55,7.15,7.15,0,0,1-1.18.31l-5.61,7.12c.46.63,1,1.34,1.6,2.14s1.26,1.62,1.95,2.48,1.39,1.72,2.12,2.6,1.44,1.7,2.13,2.49l1.42.86v1h-5.14l-1.18-.83c-.48-.59-1-1.24-1.49-2s-1-1.47-1.55-2.24-1-1.56-1.51-2.35-1-1.56-1.39-2.3h-1.27v7.7a5.09,5.09,0,0,1,1.18.36,5.59,5.59,0,0,1,.92.5v1.12H251v-1.12a10.75,10.75,0,0,1,1.21-.52,8.89,8.89,0,0,1,1.21-.34V111.1a6.07,6.07,0,0,1-2.42-.86v-1.12H260v1.12a7,7,0,0,1-2.1.86v7.5l1.74-.41,4.76-7.09a5.67,5.67,0,0,1-1.17-.37c-.38-.17-.71-.33-1-.49Z"/><path d="M122.1,158l-.65,0c-.33,0-.7,0-1.12,0l-1.31,0-1.25,0-1.42,0-1.78,0-1.57,0h-.85a.74.74,0,0,1-.32-.16c-.15-.11-.23-.21-.23-.3a.3.3,0,0,1,.09-.24l.19-.19,4.38-4.65a12.85,12.85,0,0,0,2.2-3.14,7.88,7.88,0,0,0,.83-3.52,3,3,0,0,0-.76-2.12,2.52,2.52,0,0,0-1.89-.8,3.58,3.58,0,0,0-2,.59,4.93,4.93,0,0,0-1.47,1.44,1.27,1.27,0,0,1-.27.3.54.54,0,0,1-.35.13c-.09,0-.18-.07-.26-.21a1.13,1.13,0,0,1-.12-.54,1.93,1.93,0,0,1,.41-1,5.74,5.74,0,0,1,1.13-1.23,6.9,6.9,0,0,1,1.73-1.06,5.39,5.39,0,0,1,2.17-.43,4.42,4.42,0,0,1,2.32.58,3.83,3.83,0,0,1,1.49,1.6,5.12,5.12,0,0,1,.23,3.9,9.64,9.64,0,0,1-.74,1.68,10.07,10.07,0,0,1-1,1.49q-.36.44-1,1.11l-1.4,1.42-1.42,1.4-1.1,1.1a2.28,2.28,0,0,0-.42.49c0,.07.13.12.38.16l1.1.08c.4,0,.84,0,1.31,0s1,0,1.45,0l1.39-.08a8.11,8.11,0,0,0,1.16-.16,1.63,1.63,0,0,0,.74-.41,3.51,3.51,0,0,0,.61-.84,3.47,3.47,0,0,1,.3-.38.55.55,0,0,1,.41-.21.2.2,0,0,1,.21.13.42.42,0,0,1,0,.27,7.8,7.8,0,0,1-.27.87c-.13.36-.25.74-.38,1.15a9.81,9.81,0,0,0-.3,1.15.67.67,0,0,1-.25.5A.73.73,0,0,1,122.1,158Z"/><path d="M143.26,148.52a20.7,20.7,0,0,1-.34,3.93,9,9,0,0,1-1.12,3.05,5.55,5.55,0,0,1-2.06,2,7.31,7.31,0,0,1-6.09.07,4.83,4.83,0,0,1-1.94-1.84,8.48,8.48,0,0,1-1-3,23.73,23.73,0,0,1-.31-4.09,20.56,20.56,0,0,1,.34-3.91,9.15,9.15,0,0,1,1.13-3.06,5.43,5.43,0,0,1,2-2,7.38,7.38,0,0,1,6.1-.08,4.92,4.92,0,0,1,1.94,1.85,8.68,8.68,0,0,1,1,3A23.61,23.61,0,0,1,143.26,148.52Zm-2.54.18c0-.93,0-1.77-.1-2.51a15.49,15.49,0,0,0-.29-2,6.3,6.3,0,0,0-.51-1.47,3.34,3.34,0,0,0-.74-1,2.62,2.62,0,0,0-1-.58,4,4,0,0,0-1.25-.18,3.2,3.2,0,0,0-2,.58,3.89,3.89,0,0,0-1.2,1.58,8.55,8.55,0,0,0-.6,2.37,26.32,26.32,0,0,0-.16,2.91,25.29,25.29,0,0,0,.22,3.55,7.84,7.84,0,0,0,.68,2.39,3.23,3.23,0,0,0,1.2,1.34,3.51,3.51,0,0,0,1.77.42,3.67,3.67,0,0,0,1.42-.26,2.9,2.9,0,0,0,1-.74A4.15,4.15,0,0,0,140,154a8.68,8.68,0,0,0,.46-1.49,13.37,13.37,0,0,0,.24-1.79C140.7,150.06,140.72,149.39,140.72,148.7Z"/><path d="M164.13,148.52a20.7,20.7,0,0,1-.34,3.93,9,9,0,0,1-1.12,3.05,5.55,5.55,0,0,1-2.06,2,7.31,7.31,0,0,1-6.09.07,4.83,4.83,0,0,1-1.94-1.84,8.48,8.48,0,0,1-1-3,23.73,23.73,0,0,1-.31-4.09,20.56,20.56,0,0,1,.34-3.91,9.15,9.15,0,0,1,1.13-3.06,5.38,5.38,0,0,1,2.05-2,6.3,6.3,0,0,1,3.11-.7,6.38,6.38,0,0,1,3,.62,4.92,4.92,0,0,1,1.94,1.85,8.48,8.48,0,0,1,1,3A23.61,23.61,0,0,1,164.13,148.52Zm-2.54.18c0-.93,0-1.77-.1-2.51a13.87,13.87,0,0,0-.29-2,6.3,6.3,0,0,0-.51-1.47,3.34,3.34,0,0,0-.74-1,2.62,2.62,0,0,0-1-.58,4,4,0,0,0-1.24-.18,3.18,3.18,0,0,0-2,.58,3.91,3.91,0,0,0-1.21,1.58,8.55,8.55,0,0,0-.6,2.37,26.42,26.42,0,0,0-.15,2.91A25.46,25.46,0,0,0,154,152a7.82,7.82,0,0,0,.69,2.39,3.15,3.15,0,0,0,1.19,1.34,3.51,3.51,0,0,0,1.77.42,3.67,3.67,0,0,0,1.42-.26,2.9,2.9,0,0,0,1-.74,3.94,3.94,0,0,0,.73-1.17,7.88,7.88,0,0,0,.46-1.49,11.92,11.92,0,0,0,.24-1.79C161.57,150.06,161.59,149.39,161.59,148.7Z"/><path d="M185,148.52a21.59,21.59,0,0,1-.33,3.93,9.17,9.17,0,0,1-1.13,3.05,5.53,5.53,0,0,1-2,2,7.33,7.33,0,0,1-6.1.07,4.8,4.8,0,0,1-1.93-1.84,8.48,8.48,0,0,1-1.05-3,23.73,23.73,0,0,1-.31-4.09,19.74,19.74,0,0,1,.35-3.91,9.14,9.14,0,0,1,1.12-3.06,5.38,5.38,0,0,1,2.05-2,6.3,6.3,0,0,1,3.11-.7,6.38,6.38,0,0,1,3,.62,4.92,4.92,0,0,1,1.94,1.85,8.48,8.48,0,0,1,1,3A23.61,23.61,0,0,1,185,148.52Zm-2.53.18c0-.93,0-1.77-.1-2.51a15.37,15.37,0,0,0-.3-2,6.3,6.3,0,0,0-.51-1.47,3.34,3.34,0,0,0-.74-1,2.62,2.62,0,0,0-1-.58,4,4,0,0,0-1.24-.18,3.18,3.18,0,0,0-2,.58,3.91,3.91,0,0,0-1.21,1.58,8.22,8.22,0,0,0-.59,2.37,24.09,24.09,0,0,0-.16,2.91,25.46,25.46,0,0,0,.21,3.55,8.12,8.12,0,0,0,.69,2.39,3.15,3.15,0,0,0,1.19,1.34,3.51,3.51,0,0,0,1.77.42,3.67,3.67,0,0,0,1.42-.26,2.9,2.9,0,0,0,1.05-.74,3.94,3.94,0,0,0,.73-1.17,7.88,7.88,0,0,0,.46-1.49,11.92,11.92,0,0,0,.24-1.79C182.44,150.06,182.47,149.39,182.47,148.7Z"/><path d="M192.88,153.3a.14.14,0,0,1-.16-.16,3.93,3.93,0,0,1,.12-.95c.08-.32.18-.5.31-.51l2.6-.37c.86-.12,1.73-.22,2.59-.31a.24.24,0,0,1,.15,0,.13.13,0,0,1,.07.12,3.66,3.66,0,0,1-.12,1c-.08.3-.23.47-.45.5l-2.47.37C194.68,153.11,193.8,153.21,192.88,153.3Z"/><path d="M216.38,158l-.65,0c-.32,0-.7,0-1.12,0l-1.31,0-1.25,0-1.42,0-1.78,0-1.57,0h-.85a.67.67,0,0,1-.31-.16c-.16-.11-.23-.21-.23-.3a.29.29,0,0,1,.08-.24l.19-.19,4.38-4.65a12.85,12.85,0,0,0,2.2-3.14,7.88,7.88,0,0,0,.83-3.52,3,3,0,0,0-.76-2.12,2.51,2.51,0,0,0-1.89-.8,3.52,3.52,0,0,0-2,.59,4.85,4.85,0,0,0-1.48,1.44,1.27,1.27,0,0,1-.27.3.53.53,0,0,1-.35.13c-.09,0-.17-.07-.26-.21a1.13,1.13,0,0,1-.12-.54,1.93,1.93,0,0,1,.41-1,6,6,0,0,1,1.13-1.23,6.9,6.9,0,0,1,1.73-1.06,5.39,5.39,0,0,1,2.17-.43,4.42,4.42,0,0,1,2.32.58,3.83,3.83,0,0,1,1.49,1.6,5,5,0,0,1,.52,2.31,5.11,5.11,0,0,1-.29,1.59,9.64,9.64,0,0,1-.74,1.68,10.07,10.07,0,0,1-1,1.49c-.23.29-.57.66-1,1.11l-1.41,1.42-1.42,1.4-1.1,1.1a2.28,2.28,0,0,0-.42.49c0,.07.13.12.38.16l1.1.08c.4,0,.84,0,1.31,0s1,0,1.45,0l1.39-.08a7.9,7.9,0,0,0,1.16-.16,1.72,1.72,0,0,0,.75-.41,3.81,3.81,0,0,0,.61-.84c.07-.11.17-.23.29-.38a.55.55,0,0,1,.41-.21.19.19,0,0,1,.21.13.42.42,0,0,1,0,.27,7.8,7.8,0,0,1-.27.87c-.13.36-.25.74-.38,1.15s-.22.79-.29,1.15a.71.71,0,0,1-.26.5A.73.73,0,0,1,216.38,158Z"/><path d="M237.54,148.52a20.7,20.7,0,0,1-.34,3.93,9,9,0,0,1-1.12,3.05,5.48,5.48,0,0,1-2.06,2,7.31,7.31,0,0,1-6.09.07A4.83,4.83,0,0,1,226,155.7a8.68,8.68,0,0,1-1-3,23.73,23.73,0,0,1-.31-4.09,20.56,20.56,0,0,1,.34-3.91,9.37,9.37,0,0,1,1.13-3.06,5.38,5.38,0,0,1,2-2,6.3,6.3,0,0,1,3.11-.7,6.38,6.38,0,0,1,3,.62,4.92,4.92,0,0,1,1.94,1.85,8.48,8.48,0,0,1,1,3A23.61,23.61,0,0,1,237.54,148.52Zm-2.53.18c0-.93,0-1.77-.11-2.51a13.87,13.87,0,0,0-.29-2,6.3,6.3,0,0,0-.51-1.47,3.34,3.34,0,0,0-.74-1,2.62,2.62,0,0,0-1-.58,4,4,0,0,0-1.24-.18,3.18,3.18,0,0,0-2,.58,3.91,3.91,0,0,0-1.21,1.58,8.55,8.55,0,0,0-.6,2.37,26.42,26.42,0,0,0-.15,2.91,25.46,25.46,0,0,0,.21,3.55,8.12,8.12,0,0,0,.69,2.39,3.15,3.15,0,0,0,1.19,1.34,3.51,3.51,0,0,0,1.77.42,3.67,3.67,0,0,0,1.42-.26,2.9,2.9,0,0,0,1-.74,3.94,3.94,0,0,0,.73-1.17,7.88,7.88,0,0,0,.46-1.49,11.92,11.92,0,0,0,.24-1.79C235,150.06,235,149.39,235,148.7Z"/><path d="M250.67,158a.82.82,0,0,1-.34-.09.3.3,0,0,1-.19-.3.25.25,0,0,1,.18-.23,1.21,1.21,0,0,1,.35-.12,3.53,3.53,0,0,0,1.83-.59,1.46,1.46,0,0,0,.45-1.13v-2.74q0-.15-.21-.21l-.24-.06c-.8,0-1.56,0-2.26,0l-2.2.09-2.71.07a.26.26,0,0,1-.21-.1.32.32,0,0,1-.09-.2.14.14,0,0,1,0-.09l.56-.66.3-.32a3.54,3.54,0,0,0,.29-.4l7.8-11.19a4.89,4.89,0,0,1,.43-.55.65.65,0,0,1,.46-.28h.62c.09,0,.07.14-.06.41l-8,11.46a.91.91,0,0,0-.06.16c0,.07,0,.11.06.11h5.11a.46.46,0,0,0,.24-.08c.08-.05.12-.1.12-.16v-4.58a1.5,1.5,0,0,1,0-.44.41.41,0,0,1,.22-.21,3.12,3.12,0,0,1,.95-.31,5.23,5.23,0,0,1,.71-.07c.21,0,.34.16.38.47a12.37,12.37,0,0,1,.06,1.42v3.81q0,.18.15.18c.21,0,.42,0,.62,0h1.4l.9,0c.22,0,.32.07.32.23a1.07,1.07,0,0,1-.13.5,2.33,2.33,0,0,1-.28.45c-.1.12-.17.17-.21.17h-.7l-.74,0-.5,0-.42,0-.25.09c-.09,0-.13.07-.13.09v2.78a1.45,1.45,0,0,0,.4,1.18,4.86,4.86,0,0,0,1.58.65,1.11,1.11,0,0,1,.35.14.33.33,0,0,1,.18.27.29.29,0,0,1-.14.22.47.47,0,0,1-.31.11c-.55,0-1,0-1.31-.05l-.9-.07c-.28,0-.65,0-1.12,0s-.89,0-1.2,0l-.93.07C251.63,158,251.2,158,250.67,158Z"/><path d="M270.75,158a.82.82,0,0,1-.34-.09.3.3,0,0,1-.19-.3.25.25,0,0,1,.18-.23,1.21,1.21,0,0,1,.35-.12,3.53,3.53,0,0,0,1.83-.59,1.46,1.46,0,0,0,.45-1.13v-2.74q0-.15-.21-.21l-.24-.06c-.81,0-1.56,0-2.26,0l-2.2.09-2.71.07a.26.26,0,0,1-.21-.1.32.32,0,0,1-.09-.2.14.14,0,0,1,0-.09c.26-.31.44-.53.56-.66l.3-.32c.08-.09.17-.23.29-.4l7.8-11.19a4.89,4.89,0,0,1,.43-.55.65.65,0,0,1,.45-.28h.62c.1,0,.08.14,0,.41l-8,11.46a.91.91,0,0,0-.06.16c0,.07,0,.11.06.11h5.11a.46.46,0,0,0,.24-.08c.08-.05.12-.1.12-.16v-4.58a1.5,1.5,0,0,1,0-.44.41.41,0,0,1,.22-.21,3.12,3.12,0,0,1,.95-.31,5.27,5.27,0,0,1,.7-.07c.22,0,.35.16.39.47a12.37,12.37,0,0,1,.06,1.42v3.81q0,.18.15.18c.21,0,.42,0,.62,0h1.4l.9,0c.21,0,.32.07.32.23a1.07,1.07,0,0,1-.13.5,2.33,2.33,0,0,1-.28.45c-.1.12-.17.17-.21.17h-.71l-.73,0-.51,0-.41,0-.25.09c-.09,0-.13.07-.13.09v2.78a1.45,1.45,0,0,0,.4,1.18,4.86,4.86,0,0,0,1.58.65,1.11,1.11,0,0,1,.35.14.33.33,0,0,1,.18.27.29.29,0,0,1-.14.22.47.47,0,0,1-.31.11c-.55,0-1,0-1.31-.05l-.9-.07c-.28,0-.65,0-1.12,0s-.89,0-1.2,0l-.93.07C271.71,158,271.28,158,270.75,158Z"/></svg>