<svg id="Слой_1" data-name="Слой 1" xmlns="http://www.w3.org/2000/svg" viewBox="0 0 400 400"><defs><style>.cls-1{fill:#fff;stroke:#000;stroke-miterlimit:10;stroke-width:3px;}.cls-2{fill:#c1362d;}.cls-3{fill:#b8ad99;}</style></defs><title>g22</title><path class="cls-1" d="M329.79,382H39.69V201.57S262.15-8.58,329.79,41.8C391,87.4,329.79,382,329.79,382Z"/><path class="cls-1" d="M274.53,301.68c13.07-14.3,42.92,1.43,49.8-10.25,4.12-7-5.83-13.86-1.88-29,2.34-8.95,7.29-12.13,5.31-17.34s-7.81-4.4-15.91-10.68c-10.49-8.15-7-14.39-14.61-18.71-10.92-6.19-20.49,5.33-36-.79-5.91-2.34-4.66-4.06-14-9.05-8-4.29-16.55-8.85-25.42-8.14-14,1.11-26.46,15.07-29.75,29-3.74,15.89,5.54,27.23-.27,31.88-5.52,4.41-18.14-2.35-21.85-4.34-11.85-6.35-13.55-13-25.28-23.42-9.06-8.07-17-15.2-28.78-17.84-15.52-3.49-19.94,4.84-43.6,2-7.34-.86-10.45-2.08-13.09.08-6.44,5.28-3.09,25,7.68,37.9,9.37,11.2,18.65,10.44,24.19,22.86,2.53,5.68,2.18,9.39,6.38,13.22,4.86,4.43,9.54,3.3,17.77,5.62,12.31,3.47,20.34,11.19,24.12,14.83,10.61,10.19,6,13.92,16,24.08,11.12,11.29,20.22,10.15,24.7,20.46,3.39,7.79,1,15,2.59,15.31,1.94.37,3.33-11.56,11.52-24.21,2.65-4.1,8.93-13.55,20.82-19.53,3.91-2,17.47-8.78,25-3.38,4.87,3.46,4.19,9.75,8.83,11.11.93.28,4.27,1,10.32-4.13C270.79,319.52,267.55,309.31,274.53,301.68Z"/><path class="cls-1" d="M139.74,257.72A17.73,17.73,0,1,1,122,240,17.72,17.72,0,0,1,139.74,257.72Z"/><polygon class="cls-1" points="252.13 234.1 263 222.06 262.17 238.25 278.37 237.43 266.33 248.29 278.37 259.16 262.17 258.33 263 274.53 252.13 262.49 241.26 274.53 242.09 258.33 225.89 259.16 237.93 248.29 225.89 237.43 242.09 238.25 241.26 222.06 252.13 234.1"/><polyline class="cls-1" points="128.25 272.53 122.28 250.72 116.31 272.53"/><path d="M182.56,122.27h.74a2.76,2.76,0,0,0,1.53-.5A3.85,3.85,0,0,0,186,120a18.66,18.66,0,0,0,.9-3.54q.39-2.25.72-5.81l.54-6H201v17.6h3.14v8.91h-3.86v-5.29H186.44v5.29h-3.88Zm14.31,0v-14h-5l-.3,3.22a45.28,45.28,0,0,1-1,6.76,11.59,11.59,0,0,1-1.66,4Z"/><path d="M213.31,126.43a6.48,6.48,0,0,1-1.46-.17,3.1,3.1,0,0,1-1-.37.81.81,0,0,1-.16-.16.4.4,0,0,1-.08-.23.34.34,0,0,1,.11-.25.31.31,0,0,1,.22-.11,2.79,2.79,0,0,0,1.71-.62,9,9,0,0,0,1.55-1.63c.5-.67,1-1.37,1.43-2.11L217,118.6a15.92,15.92,0,0,1,1.33-1.89,4,4,0,0,1,1.33-1.1c.14-.06.19-.15.16-.26a.78.78,0,0,0-.22-.34,8.92,8.92,0,0,1-.7-.81,5.15,5.15,0,0,1-.7-1.25l-1.26-3a2.4,2.4,0,0,0-.9-1.26,2,2,0,0,0-.86-.21,2.32,2.32,0,0,0-1,.3,2.38,2.38,0,0,1-1,.3,1,1,0,0,1-.7-.45,1.72,1.72,0,0,1-.37-1.16,1.69,1.69,0,0,1,.28-1c.19-.27.6-.41,1.24-.41a4.22,4.22,0,0,1,1.93.39,3.64,3.64,0,0,1,1.26,1,7.26,7.26,0,0,1,.85,1.48l1.25,2.9a8.76,8.76,0,0,0,1.6,2.42,3.52,3.52,0,0,0,2.35.87h1.07c.12,0,.19,0,.2-.11a4.15,4.15,0,0,0,0-.43v-5.35a1.76,1.76,0,0,0-.43-1.4,3.58,3.58,0,0,0-1.57-.57q-1-.18-1-.6c0-.12.08-.2.24-.25a2.15,2.15,0,0,1,.63-.08c.54,0,1,0,1.33,0l1,0h2.24l.9,0q.48,0,1.29,0a2.12,2.12,0,0,1,.62.08c.16,0,.24.13.24.25a.43.43,0,0,1-.24.36,2.2,2.2,0,0,1-.74.24,4.28,4.28,0,0,0-1.62.57,1.61,1.61,0,0,0-.51,1.4v5.35a3.28,3.28,0,0,0,0,.43c0,.08.07.11.19.11h1.08a3.75,3.75,0,0,0,2.38-.84,7.23,7.23,0,0,0,1.56-2.45L233,109a6.36,6.36,0,0,1,1.42-2.06,3.67,3.67,0,0,1,2.62-.84,1.47,1.47,0,0,1,1.24.41,1.69,1.69,0,0,1,.28,1,1.72,1.72,0,0,1-.37,1.16,1,1,0,0,1-.71.45,2.34,2.34,0,0,1-1-.3,2.32,2.32,0,0,0-1-.3,2.08,2.08,0,0,0-.85.21,2.35,2.35,0,0,0-.91,1.26l-1.26,3a5.51,5.51,0,0,1-.7,1.25,8.92,8.92,0,0,1-.7.81q-.42.42-.06.6a3.77,3.77,0,0,1,1.34,1.1,17.17,17.17,0,0,1,1.32,1.89l1.34,2.18c.48.74,1,1.44,1.45,2.11a8.13,8.13,0,0,0,1.56,1.63,2.78,2.78,0,0,0,1.69.62.28.28,0,0,1,.23.11.37.37,0,0,1,.09.25.39.39,0,0,1-.07.23.81.81,0,0,1-.16.16,3.12,3.12,0,0,1-1,.37,6.39,6.39,0,0,1-1.48.17,2.11,2.11,0,0,1-1.13-.36,5.27,5.27,0,0,1-1.12-1,15.14,15.14,0,0,1-1.09-1.4q-.54-.78-1.05-1.62c-.6-1-1.16-1.91-1.7-2.82a10.57,10.57,0,0,0-1.5-2,7.4,7.4,0,0,0-.55-.56,1.64,1.64,0,0,0-.76-.38,7,7,0,0,0-1.62-.13.24.24,0,0,0-.24.17,1.16,1.16,0,0,0-.06.34v6.3a2.16,2.16,0,0,0,.29,1.17,1.83,1.83,0,0,0,.81.69,6.23,6.23,0,0,0,1.27.38,3,3,0,0,1,.74.21.37.37,0,0,1,.24.33c0,.12-.08.2-.24.25a2.12,2.12,0,0,1-.62.08,12.29,12.29,0,0,1-1.33-.05l-1-.07c-.32,0-.7,0-1.16,0s-.93,0-1.3,0l-1.14.07c-.39,0-.85.05-1.39.05a2.15,2.15,0,0,1-.63-.08c-.16,0-.23-.13-.23-.25s.32-.42,1-.54a3.91,3.91,0,0,0,1.74-.69,1.87,1.87,0,0,0,.59-1.55v-6.3a1.16,1.16,0,0,0-.06-.34.24.24,0,0,0-.24-.17,6.9,6.9,0,0,0-1.59.13,1.59,1.59,0,0,0-.77.38l-.56.56a8.35,8.35,0,0,0-1,1.23c-.35.52-.7,1.09-1.07,1.72l-1.15,1.92c-.44.74-.9,1.44-1.39,2.11a9.21,9.21,0,0,1-1.48,1.63A2.37,2.37,0,0,1,213.31,126.43Z"/><path d="M249.9,118.69c.72,3.43,3.38,5,6.6,5,3.95,0,6.67-2.9,7-7.57H253.31v-2.62h10.16c-.48-4.4-3.17-7.12-6.94-7.12-3.07,0-5.79,1.53-6.51,5H247c.9-4.66,4.42-7.62,9.44-7.62,6.49,0,10.32,4.6,10.32,11.21s-3.74,11.24-10.2,11.24c-5.08,0-8.84-2.9-9.65-7.59Z"/><path d="M283.52,105.78c.1,0,.15,0,.15.14v.78c0,.09-.05.14-.15.14l-2.53.25a.13.13,0,0,0-.15.15v7.5q0,.15.12.15a6.11,6.11,0,0,0,1.68-.22A4.53,4.53,0,0,0,284,114a4.73,4.73,0,0,0,1.06-1.08,12.41,12.41,0,0,0,.88-1.47l1.46-3a10.34,10.34,0,0,1,.85-1.44,5.32,5.32,0,0,1,.9-1,3.66,3.66,0,0,1,.95-.54,3.22,3.22,0,0,1,1-.16,3.1,3.1,0,0,1,.49,0,3,3,0,0,1,.57.15,2.65,2.65,0,0,1,.54.25,1.87,1.87,0,0,1,.43.33.58.58,0,0,1,.07.14c0,.07,0,.12,0,.14l-1.46,2a.37.37,0,0,1-.11.11.13.13,0,0,1-.12,0,3.83,3.83,0,0,0-.59-.49,1.19,1.19,0,0,0-.64-.19,1.75,1.75,0,0,0-1,.35,3,3,0,0,0-.92,1.33l-.74,1.6c-.23.46-.47.91-.73,1.37a10.24,10.24,0,0,1-.82,1.24,9.45,9.45,0,0,1-.88,1,3.21,3.21,0,0,1-.87.58,7.62,7.62,0,0,1,1.15.45,4.78,4.78,0,0,1,1.08.73,7,7,0,0,1,1,1.13,13,13,0,0,1,1,1.57l2.79,5.33a.26.26,0,0,0,.21.12l2.17.23a.14.14,0,0,1,.16.16v.77c0,.1,0,.15-.16.15h-4.68a.29.29,0,0,1-.22-.12L286.12,120a9.34,9.34,0,0,0-1.28-2.1,5.68,5.68,0,0,0-1.32-1.19,3.64,3.64,0,0,0-1.29-.54,6.88,6.88,0,0,0-1.24-.13.13.13,0,0,0-.15.15v8.23a.13.13,0,0,0,.15.15l2.53.23c.1,0,.15,0,.15.16v.77a.13.13,0,0,1-.15.15h-8c-.09,0-.14,0-.14-.15V125c0-.11.05-.16.14-.16l2.54-.23a.13.13,0,0,0,.15-.15V107.24a.13.13,0,0,0-.15-.15l-2.54-.25a.13.13,0,0,1-.14-.14v-.78a.13.13,0,0,1,.14-.14Z"/><polygon class="cls-2" points="256.16 241.47 260.17 248.43 256.16 255.38 248.13 255.38 244.12 248.43 248.13 241.47 256.16 241.47"/><polygon class="cls-3" points="121.66 246.19 122.4 243.91 123.13 246.19 125.17 244.92 124.26 247.15 126.65 247.48 124.52 248.6 126.13 250.39 123.78 249.88 123.86 252.28 122.39 250.38 120.91 252.28 121 249.88 118.65 250.38 120.27 248.6 118.14 247.47 120.52 247.14 119.62 244.91 121.66 246.19"/><path d="M163.82,154.36l-.66,0-1.13,0-1.33-.05-1.26,0-1.44,0-1.8,0-1.59,0-.86,0a.81.81,0,0,1-.32-.17c-.15-.11-.23-.2-.23-.3a.33.33,0,0,1,.08-.24l.19-.19,4.44-4.71a13.19,13.19,0,0,0,2.23-3.18A7.92,7.92,0,0,0,161,142a3,3,0,0,0-.76-2.15,2.52,2.52,0,0,0-1.92-.8,3.53,3.53,0,0,0-2,.59,5.1,5.1,0,0,0-1.5,1.46,1.27,1.27,0,0,1-.27.3.56.56,0,0,1-.35.14c-.1,0-.18-.07-.26-.22a1,1,0,0,1-.13-.55,2,2,0,0,1,.41-1,6.51,6.51,0,0,1,1.15-1.25,7,7,0,0,1,1.75-1.06,5.36,5.36,0,0,1,2.19-.44,4.45,4.45,0,0,1,2.36.59,3.82,3.82,0,0,1,1.5,1.61,5.1,5.1,0,0,1,.52,2.34,5.31,5.31,0,0,1-.28,1.62,9.12,9.12,0,0,1-.76,1.69,9.6,9.6,0,0,1-1,1.51c-.23.29-.58.67-1,1.12s-.92.94-1.43,1.44l-1.43,1.42q-.69.67-1.11,1.11a3,3,0,0,0-.43.49c0,.08.13.13.39.17s.7.06,1.11.08.85,0,1.32,0,1,0,1.47,0,.95,0,1.41-.08a7,7,0,0,0,1.18-.17,1.54,1.54,0,0,0,.75-.41,3.39,3.39,0,0,0,.61-.85l.3-.38a.58.58,0,0,1,.42-.22.2.2,0,0,1,.21.14.42.42,0,0,1,0,.27,7.85,7.85,0,0,1-.27.88c-.13.37-.26.75-.39,1.16s-.22.8-.3,1.17a.62.62,0,0,1-.26.5A.73.73,0,0,1,163.82,154.36Z"/><path d="M185.24,144.79a21.13,21.13,0,0,1-.34,4,9.14,9.14,0,0,1-1.14,3.08,5.46,5.46,0,0,1-2.08,2,7.42,7.42,0,0,1-6.16.08,5,5,0,0,1-2-1.87,8.7,8.7,0,0,1-1.05-3,24.15,24.15,0,0,1-.32-4.13,21.25,21.25,0,0,1,.35-4,9.33,9.33,0,0,1,1.14-3.09,5.59,5.59,0,0,1,2.07-2,6.49,6.49,0,0,1,3.15-.71,6.4,6.4,0,0,1,3,.64,4.86,4.86,0,0,1,2,1.86,8.78,8.78,0,0,1,1.06,3A24.26,24.26,0,0,1,185.24,144.79Zm-2.57.17c0-.94,0-1.79-.1-2.54a15.45,15.45,0,0,0-.3-2,6.23,6.23,0,0,0-.51-1.48,3.38,3.38,0,0,0-.75-1,2.6,2.6,0,0,0-1-.59,4.08,4.08,0,0,0-1.26-.18,3.27,3.27,0,0,0-2,.58,3.92,3.92,0,0,0-1.21,1.61,8.44,8.44,0,0,0-.61,2.39,24.89,24.89,0,0,0-.16,2.95,24.58,24.58,0,0,0,.22,3.6,7.88,7.88,0,0,0,.69,2.41,3.13,3.13,0,0,0,1.21,1.36,4.06,4.06,0,0,0,3.23.16,3.1,3.1,0,0,0,1.06-.75,4,4,0,0,0,.74-1.18,7.87,7.87,0,0,0,.47-1.51,13.68,13.68,0,0,0,.24-1.81C182.65,146.34,182.67,145.66,182.67,145Z"/><path d="M206.37,144.79a21.13,21.13,0,0,1-.34,4,9.14,9.14,0,0,1-1.14,3.08,5.46,5.46,0,0,1-2.08,2,7.44,7.44,0,0,1-6.17.08,5,5,0,0,1-2-1.87,8.7,8.7,0,0,1-1.06-3,24.22,24.22,0,0,1-.31-4.13,20.44,20.44,0,0,1,.35-4,9.11,9.11,0,0,1,1.14-3.09,5.44,5.44,0,0,1,2.07-2,7.39,7.39,0,0,1,6.17-.07,4.93,4.93,0,0,1,2,1.86,9,9,0,0,1,1.06,3A24.26,24.26,0,0,1,206.37,144.79Zm-2.57.17c0-.94,0-1.79-.1-2.54a15.45,15.45,0,0,0-.3-2,6.23,6.23,0,0,0-.51-1.48,3.38,3.38,0,0,0-.75-1,2.68,2.68,0,0,0-1-.59,4.17,4.17,0,0,0-1.26-.18,3.27,3.27,0,0,0-2,.58,4,4,0,0,0-1.22,1.61,8.44,8.44,0,0,0-.6,2.39,24.89,24.89,0,0,0-.16,2.95,24.58,24.58,0,0,0,.22,3.6,7.61,7.61,0,0,0,.69,2.41,3.07,3.07,0,0,0,1.21,1.36,3.56,3.56,0,0,0,1.79.42,3.63,3.63,0,0,0,1.44-.26,3.19,3.19,0,0,0,1.06-.75,4.23,4.23,0,0,0,.74-1.18,8.64,8.64,0,0,0,.47-1.51,15.58,15.58,0,0,0,.24-1.81C203.78,146.34,203.8,145.66,203.8,145Z"/><path d="M227.5,144.79a21.1,21.1,0,0,1-.35,4,8.92,8.92,0,0,1-1.13,3.08,5.54,5.54,0,0,1-2.08,2,6.54,6.54,0,0,1-3.17.71,6.47,6.47,0,0,1-3-.63,5,5,0,0,1-2-1.87,8.7,8.7,0,0,1-1.06-3,24.22,24.22,0,0,1-.31-4.13,20.44,20.44,0,0,1,.35-4,9.32,9.32,0,0,1,1.13-3.09,5.54,5.54,0,0,1,2.08-2,6.44,6.44,0,0,1,3.15-.71,6.35,6.35,0,0,1,3,.64,4.89,4.89,0,0,1,2,1.86,9,9,0,0,1,1.05,3A24.19,24.19,0,0,1,227.5,144.79Zm-2.57.17c0-.94,0-1.79-.1-2.54a15.45,15.45,0,0,0-.3-2A6.23,6.23,0,0,0,224,139a3.38,3.38,0,0,0-.75-1,2.76,2.76,0,0,0-1-.59,4.19,4.19,0,0,0-1.27-.18,3.24,3.24,0,0,0-2,.58,3.94,3.94,0,0,0-1.22,1.61,8.44,8.44,0,0,0-.61,2.39,27.21,27.21,0,0,0-.16,2.95,26.06,26.06,0,0,0,.22,3.6,7.86,7.86,0,0,0,.7,2.41,3.07,3.07,0,0,0,1.21,1.36,4,4,0,0,0,3.22.16,3.14,3.14,0,0,0,1.07-.75,4.23,4.23,0,0,0,.74-1.18,7.87,7.87,0,0,0,.46-1.51,12.2,12.2,0,0,0,.24-1.81C224.91,146.34,224.93,145.66,224.93,145Z"/><path d="M235.47,149.62a.14.14,0,0,1-.16-.16,4.07,4.07,0,0,1,.12-1c.08-.33.19-.5.31-.52l2.63-.37c.88-.12,1.75-.23,2.63-.32a.42.42,0,0,1,.15,0,.14.14,0,0,1,.07.13,3.79,3.79,0,0,1-.12,1c-.09.3-.24.47-.46.51-.82.12-1.65.25-2.5.36S236.4,149.53,235.47,149.62Z"/><path d="M259.26,154.36l-.66,0-1.13,0-1.33-.05-1.26,0-1.44,0-1.81,0-1.58,0-.87,0a.8.8,0,0,1-.31-.17c-.16-.11-.23-.2-.23-.3a.29.29,0,0,1,.08-.24l.19-.19,4.44-4.71a13.19,13.19,0,0,0,2.23-3.18,8.05,8.05,0,0,0,.83-3.56,3,3,0,0,0-.76-2.15,2.54,2.54,0,0,0-1.92-.8,3.59,3.59,0,0,0-2,.59,5.06,5.06,0,0,0-1.49,1.46,1.27,1.27,0,0,1-.27.3.56.56,0,0,1-.36.14c-.09,0-.18-.07-.26-.22a1.15,1.15,0,0,1-.12-.55,2,2,0,0,1,.41-1,6.2,6.2,0,0,1,1.15-1.25,6.86,6.86,0,0,1,1.75-1.06,5.36,5.36,0,0,1,2.19-.44,4.47,4.47,0,0,1,2.36.59,4,4,0,0,1,1.5,1.61,5.14,5.14,0,0,1,.23,4,9.07,9.07,0,0,1-.75,1.69,10.33,10.33,0,0,1-1,1.51c-.24.29-.58.67-1,1.12s-.92.94-1.42,1.44-1,1-1.44,1.42l-1.1,1.11a2.46,2.46,0,0,0-.43.49c0,.08.13.13.38.17s.7.06,1.11.08.86,0,1.33,0,1,0,1.47,0,1,0,1.4-.08a6.72,6.72,0,0,0,1.18-.17,1.54,1.54,0,0,0,.75-.41,3.4,3.4,0,0,0,.62-.85,4.78,4.78,0,0,1,.3-.38.58.58,0,0,1,.41-.22.22.22,0,0,1,.22.14.42.42,0,0,1,0,.27c-.06.22-.15.52-.28.88s-.25.75-.38,1.16a10.09,10.09,0,0,0-.3,1.17.65.65,0,0,1-.26.5A.77.77,0,0,1,259.26,154.36Z"/><path d="M280.68,144.79a21.13,21.13,0,0,1-.34,4,9.14,9.14,0,0,1-1.14,3.08,5.46,5.46,0,0,1-2.08,2,7.44,7.44,0,0,1-6.17.08,5,5,0,0,1-2-1.87,8.7,8.7,0,0,1-1.06-3,24.22,24.22,0,0,1-.31-4.13,20.44,20.44,0,0,1,.35-4,9.11,9.11,0,0,1,1.14-3.09,5.44,5.44,0,0,1,2.07-2,7.39,7.39,0,0,1,6.17-.07,4.93,4.93,0,0,1,2,1.86,9,9,0,0,1,1.06,3A24.26,24.26,0,0,1,280.68,144.79Zm-2.57.17c0-.94,0-1.79-.1-2.54a15.45,15.45,0,0,0-.3-2,6.23,6.23,0,0,0-.51-1.48,3.38,3.38,0,0,0-.75-1,2.68,2.68,0,0,0-1-.59,4.17,4.17,0,0,0-1.26-.18,3.27,3.27,0,0,0-2,.58,4,4,0,0,0-1.22,1.61,8.44,8.44,0,0,0-.6,2.39,24.89,24.89,0,0,0-.16,2.95,24.58,24.58,0,0,0,.22,3.6,7.61,7.61,0,0,0,.69,2.41,3.07,3.07,0,0,0,1.21,1.36,3.56,3.56,0,0,0,1.79.42,3.63,3.63,0,0,0,1.44-.26,3.19,3.19,0,0,0,1.06-.75,4.23,4.23,0,0,0,.74-1.18,7.87,7.87,0,0,0,.46-1.51,13.63,13.63,0,0,0,.25-1.81C278.09,146.34,278.11,145.66,278.11,145Z"/><path d="M300.13,136.7a9.41,9.41,0,0,0-2,.12,7.88,7.88,0,0,0-6.76,6.9h.09a5.81,5.81,0,0,1,4.69-2.24c3.44,0,5.86,2.48,5.86,6.28,0,3.55-2.42,6.84-6.45,6.84s-6.88-3.22-6.88-8.28a12.26,12.26,0,0,1,3.29-8.76,10.54,10.54,0,0,1,6.22-2.86,11.49,11.49,0,0,1,1.91-.16Zm-.75,11.21c0-2.78-1.58-4.46-4-4.46a4.34,4.34,0,0,0-3.77,2.39,2.25,2.25,0,0,0-.3,1.17c.06,3.2,1.53,5.56,4.28,5.56C297.86,152.57,299.38,150.69,299.38,147.91Z"/><path d="M321.44,136.7a9.41,9.41,0,0,0-2,.12,7.88,7.88,0,0,0-6.76,6.9h.09a5.81,5.81,0,0,1,4.69-2.24c3.44,0,5.86,2.48,5.86,6.28,0,3.55-2.42,6.84-6.45,6.84s-6.88-3.22-6.88-8.28a12.26,12.26,0,0,1,3.29-8.76,10.54,10.54,0,0,1,6.22-2.86,11.49,11.49,0,0,1,1.91-.16Zm-.75,11.21c0-2.78-1.58-4.46-4-4.46a4.34,4.34,0,0,0-3.77,2.39,2.25,2.25,0,0,0-.3,1.17c.06,3.2,1.53,5.56,4.28,5.56C319.17,152.57,320.69,150.69,320.69,147.91Z"/></svg>