<svg id="Слой_1" data-name="Слой 1" xmlns="http://www.w3.org/2000/svg" viewBox="0 0 400 400"><defs><style>.cls-1{fill:#fff;stroke:#000;stroke-miterlimit:10;stroke-width:3px;}.cls-2{fill:#608b70;}</style></defs><title>g23</title><path class="cls-1" d="M373.22,382H46.77V36.29s115.55,97.77,164.6,97.77S373.22,36.29,373.22,36.29Z"/><polygon class="cls-1" points="165.44 314.35 202.42 248.46 237.92 314.35 165.44 314.35"/><path class="cls-1" d="M158.23,216.4c8.8-3.49,13.19-5.23,18.46-4.8,16.72,1.37,19.75,18.29,39.36,23,4.21,1,10.76.52,23.85-.49,22.11-1.71,24.6-4.7,36.15-4.29,8.82.32,27.91,1,35.61,12.52,9.76,14.6-8.43,32.19,1.9,49.45,7.19,12,20.77,11.49,20.72,19,0,7.68-14.28,16.74-27.07,15.58-10.73-1-13.26-8.48-23.19-10.12-7-1.16-17.51.59-32.39,14.81,8.46,22.35,8.36,29.33,5.94,30.8-5.66,3.45-20.79-25.43-50.11-29.89-15.12-2.3-28.31,2.78-33.47,5.11-23.13,10.47-29.88,31.35-35.63,29-5.91-2.39-4.43-26.69-.9-43.28,2.61-12.28,7.09-23.88,1.12-30.95-2.55-3-5.17-3-7.21-6.92-3.64-6.92,1.94-12.11-.36-17.67-4-9.76-26.38-6-27.65-11.8-.69-3.16,5.68-6.06,18.26-14.51C142.67,226.88,144.25,221.94,158.23,216.4Z"/><path class="cls-2" d="M217,293.81a15.67,15.67,0,1,1-15.66-15.67A15.66,15.66,0,0,1,217,293.81"/><path d="M131.09,149v8.65h.78l6.68-8.65h3L134.21,158c3.21.43,4.46,2.4,5.47,5a50.16,50.16,0,0,0,2.14,5.53H139.1a35.15,35.15,0,0,1-1.76-4.6c-.9-2.58-2.14-4.34-5.44-4.34h-.81v8.94H128.6V149Z"/><path d="M156.13,149.77v.53a4.54,4.54,0,0,0-1.33.2,1,1,0,0,0-.61.64,5.06,5.06,0,0,0-.15,1.44v13.14a5.08,5.08,0,0,0,.15,1.43,1,1,0,0,0,.61.64,5.76,5.76,0,0,0,1.33.21v.53c-.43,0-1-.06-1.6-.07h-4.06c-.64,0-1.17,0-1.57.07V168a5.86,5.86,0,0,0,1.33-.21.91.91,0,0,0,.61-.64,5.08,5.08,0,0,0,.15-1.43V152.58a5.06,5.06,0,0,0-.15-1.44,1,1,0,0,0-.61-.64,4.6,4.6,0,0,0-1.33-.2v-.53l1.57.06,2.08,0,2,0Zm7,1.65c0,.37,0,.75,0,1.13l-10,15,0-1Zm4.66-1.65v.53a4.46,4.46,0,0,0-1.32.2,1,1,0,0,0-.61.64,4.66,4.66,0,0,0-.16,1.44v13.14a4.67,4.67,0,0,0,.16,1.43,1,1,0,0,0,.61.64,5.66,5.66,0,0,0,1.32.21v.53c-.38,0-.91-.06-1.56-.07h-4c-.66,0-1.2,0-1.63.07V168a5.76,5.76,0,0,0,1.33-.21,1,1,0,0,0,.61-.64,5.08,5.08,0,0,0,.15-1.43V152.58a5.06,5.06,0,0,0-.15-1.44,1,1,0,0,0-.61-.64,4.54,4.54,0,0,0-1.33-.2v-.53l1.63.06,1.95,0,2.09,0Z"/><path d="M175.39,168.66a1.74,1.74,0,0,1-.56-.07c-.14,0-.21-.12-.21-.22a.32.32,0,0,1,.21-.29,2.42,2.42,0,0,1,.66-.19,1.92,1.92,0,0,0,1.09-.63,2.79,2.79,0,0,0,.55-1.43c.22-1.59.4-3.11.56-4.55s.29-2.74.38-3.89.15-2.11.15-2.85v-.45a2.58,2.58,0,0,0,0-.42,2.41,2.41,0,0,0-.08-.44.82.82,0,0,0-.31-.44,3,3,0,0,0-.93-.54,7.24,7.24,0,0,0-1.06-.25.83.83,0,0,1-.42-.2.44.44,0,0,1-.16-.33c0-.14.08-.23.25-.25a3.87,3.87,0,0,1,.65,0l.81,0,1.17.08c.43,0,.82.06,1.18.08l.81,0a.51.51,0,0,1,.32.1.53.53,0,0,1,.18.32c.09.32.18.66.27,1a8.79,8.79,0,0,0,.32,1l4.18,10.62a.38.38,0,0,0,.29.23.27.27,0,0,0,.32-.15l5.22-10.86c.09-.3.18-.63.27-1l.21-1c0-.23.14-.35.26-.35h1a14.24,14.24,0,0,0,1.68-.1,12.74,12.74,0,0,1,1.34-.11,1.69,1.69,0,0,1,.34,0c.14,0,.21.1.21.23a.36.36,0,0,1-.14.29,2.6,2.6,0,0,1-.55.26l-.76.29c-.29.11-.55.21-.8.32a1,1,0,0,0-.45.36.93.93,0,0,0-.19.54c0,1.24,0,2.4.07,3.48s.09,2.13.15,3.13.11,2,.18,2.95.13,2,.19,3a1.75,1.75,0,0,0,.53,1.26,2.92,2.92,0,0,0,1.45.62,2.64,2.64,0,0,1,.67.19.32.32,0,0,1,.21.29c0,.1-.07.18-.21.22a1.78,1.78,0,0,1-.56.07c-.48,0-.87,0-1.18,0l-.89-.07-1,0-.89,0-.77.07a11,11,0,0,1-1.12,0,1.74,1.74,0,0,1-.56-.07c-.14,0-.21-.12-.21-.22a.36.36,0,0,1,.21-.31,1.94,1.94,0,0,1,.67-.17,1.41,1.41,0,0,0,1-.54,2.46,2.46,0,0,0,.3-1.37c0-1.27,0-2.41,0-3.44s-.07-2-.12-3-.11-2.09-.16-3.27c0-.2-.07-.29-.16-.28s-.18.1-.27.28L185,168.66a.24.24,0,0,1-.24.15.21.21,0,0,1-.23-.18c-.69-2.06-1.43-4.1-2.22-6.1s-1.67-4.17-2.66-6.48a.18.18,0,0,0-.19-.13.14.14,0,0,0-.15.13c-.16,1.24-.31,2.37-.44,3.4s-.24,2.06-.31,3.06-.1,2.12-.1,3.32a2.14,2.14,0,0,0,.45,1.31,2,2,0,0,0,1.27.75,2.42,2.42,0,0,1,.66.19.32.32,0,0,1,.21.29c0,.1-.07.18-.21.22a1.67,1.67,0,0,1-.55.07,9.75,9.75,0,0,1-1.08,0l-.63-.07-.78,0-.75,0-.6.07A9.34,9.34,0,0,1,175.39,168.66Z"/><path d="M226.11,149.4a6.87,6.87,0,0,1,2.88.52,9.82,9.82,0,0,1,2,1.2c.35.27.62.3.8.1a2.78,2.78,0,0,0,.39-1.45h.61c0,.67-.07,1.49-.08,2.47s0,2.25,0,3.84h-.61c-.1-.8-.22-1.46-.34-2a5.37,5.37,0,0,0-.52-1.39,4.87,4.87,0,0,0-.91-1.12,4.5,4.5,0,0,0-1.71-1.18,5.85,5.85,0,0,0-2.08-.38,4,4,0,0,0-2.4.73,5.63,5.63,0,0,0-1.69,2,10.34,10.34,0,0,0-1,2.92,18.37,18.37,0,0,0-.33,3.55,16.86,16.86,0,0,0,.36,3.59,9.75,9.75,0,0,0,1.06,2.89,5.5,5.5,0,0,0,1.74,1.92,4.32,4.32,0,0,0,2.43.69,5.87,5.87,0,0,0,2-.37,5.14,5.14,0,0,0,2.89-3,16.86,16.86,0,0,0,.5-2.92h.61c0,1.66,0,3,0,4s0,1.87.08,2.56h-.61a2.9,2.9,0,0,0-.36-1.43c-.17-.2-.45-.17-.83.08a13.86,13.86,0,0,1-2.08,1.2,6.62,6.62,0,0,1-2.83.52,9.56,9.56,0,0,1-4.74-1.14,7.78,7.78,0,0,1-3.16-3.29,12.22,12.22,0,0,1,0-10.35,8.59,8.59,0,0,1,3.2-3.47A8.82,8.82,0,0,1,226.11,149.4Z"/><path d="M257.41,159.18a14,14,0,0,1-.52,4,8.37,8.37,0,0,1-1.56,3,6.75,6.75,0,0,1-2.61,1.93,10.43,10.43,0,0,1-7.22.05,6.28,6.28,0,0,1-2.49-1.79,7.69,7.69,0,0,1-1.46-2.9,15.07,15.07,0,0,1-.48-4,14.16,14.16,0,0,1,.52-3.93,8.32,8.32,0,0,1,1.57-3,7,7,0,0,1,2.62-1.91,9.32,9.32,0,0,1,3.65-.67,9.43,9.43,0,0,1,3.52.61,6.43,6.43,0,0,1,2.49,1.77,7.42,7.42,0,0,1,1.48,2.88A14.3,14.3,0,0,1,257.41,159.18Zm-2.57.17a14.56,14.56,0,0,0-.27-2.89,6.79,6.79,0,0,0-.92-2.32,4.51,4.51,0,0,0-1.71-1.53,5.76,5.76,0,0,0-2.66-.55,5.49,5.49,0,0,0-2.65.59,5.18,5.18,0,0,0-1.74,1.58,6.48,6.48,0,0,0-1,2.31,13.16,13.16,0,0,0-.29,2.78,15.32,15.32,0,0,0,.27,3,6.67,6.67,0,0,0,.9,2.33,4.33,4.33,0,0,0,1.7,1.53,5.89,5.89,0,0,0,2.68.54,5.62,5.62,0,0,0,2.68-.59,5,5,0,0,0,1.75-1.6,7,7,0,0,0,.94-2.34A13.39,13.39,0,0,0,254.84,159.35Z"/><path d="M279,168.53h-2.52v-8.48h-7.75v8.48h-2.51V150.07h2.51v7.81h7.75v-7.81H279Z"/><path d="M289.39,168.93v-1.79h1.82a2.81,2.81,0,0,0,2.67-1.68l.43-.78-8-17.13h2.05l6.89,15,6.27-15h2.15l-7.82,18c-1,2.25-2.48,3.38-4.54,3.38Z"/><path d="M138.93,192.2l-.64,0-1.1,0-1.28,0-1.22,0-1.39,0-1.75,0-1.54,0h-.83a.66.66,0,0,1-.3-.16c-.16-.1-.23-.2-.23-.29a.33.33,0,0,1,.08-.24l.19-.18,4.29-4.56a12.59,12.59,0,0,0,2.16-3.07,7.86,7.86,0,0,0,.8-3.45,2.9,2.9,0,0,0-.74-2.08,2.44,2.44,0,0,0-1.85-.78,3.48,3.48,0,0,0-1.92.57,4.68,4.68,0,0,0-1.45,1.42,1.42,1.42,0,0,1-.26.29.53.53,0,0,1-.35.13c-.09,0-.17-.07-.25-.21a1.07,1.07,0,0,1-.12-.53,2,2,0,0,1,.4-.94,6.07,6.07,0,0,1,1.11-1.21,6.75,6.75,0,0,1,1.7-1,5.31,5.31,0,0,1,2.12-.42,4.32,4.32,0,0,1,2.27.57,3.72,3.72,0,0,1,1.46,1.56,4.9,4.9,0,0,1,.51,2.27,5.26,5.26,0,0,1-.28,1.56,9.55,9.55,0,0,1-.73,1.64,9.68,9.68,0,0,1-1,1.46q-.34.42-1,1.08c-.43.45-.89.91-1.38,1.39s-.95.95-1.39,1.38-.8.79-1.07,1.08a2.23,2.23,0,0,0-.41.47c0,.07.12.13.37.16s.67.06,1.07.08.83,0,1.29,0,.94,0,1.41,0,.93,0,1.37-.08a6.76,6.76,0,0,0,1.14-.16,1.67,1.67,0,0,0,.73-.39,3.42,3.42,0,0,0,.59-.83c.07-.1.17-.23.29-.37a.55.55,0,0,1,.4-.21.19.19,0,0,1,.21.13.42.42,0,0,1,0,.27c-.06.21-.14.49-.27.85s-.24.72-.37,1.12-.22.77-.29,1.13a.64.64,0,0,1-.25.49A.67.67,0,0,1,138.93,192.2Z"/><path d="M159.66,182.94a20.66,20.66,0,0,1-.33,3.84,8.9,8.9,0,0,1-1.11,3,5.39,5.39,0,0,1-2,1.93,7.11,7.11,0,0,1-6,.07,4.72,4.72,0,0,1-1.9-1.81,8.35,8.35,0,0,1-1-2.93,23.93,23.93,0,0,1-.3-4,19.77,19.77,0,0,1,.34-3.83,8.87,8.87,0,0,1,1.1-3,5.36,5.36,0,0,1,2-1.93,7.13,7.13,0,0,1,6-.07,4.72,4.72,0,0,1,1.9,1.81,8.35,8.35,0,0,1,1,2.93A22.85,22.85,0,0,1,159.66,182.94Zm-2.49.17c0-.92,0-1.74-.1-2.46a13,13,0,0,0-.29-1.92,6.22,6.22,0,0,0-.49-1.44,3.39,3.39,0,0,0-.73-1,2.57,2.57,0,0,0-1-.57,3.82,3.82,0,0,0-1.22-.18,3.14,3.14,0,0,0-2,.57,3.71,3.71,0,0,0-1.17,1.55,8,8,0,0,0-.59,2.32,23.19,23.19,0,0,0-.16,2.85,22.86,22.86,0,0,0,.22,3.48,7.51,7.51,0,0,0,.67,2.34,3,3,0,0,0,1.17,1.31,3.33,3.33,0,0,0,1.73.41,3.52,3.52,0,0,0,1.39-.25,2.89,2.89,0,0,0,1-.73,3.69,3.69,0,0,0,.71-1.13,8.73,8.73,0,0,0,.46-1.47,12.8,12.8,0,0,0,.23-1.75C157.15,184.44,157.17,183.78,157.17,183.11Z"/><path d="M180.1,182.94a20.66,20.66,0,0,1-.33,3.84,8.89,8.89,0,0,1-1.1,3,5.46,5.46,0,0,1-2,1.93,7.13,7.13,0,0,1-6,.07,4.72,4.72,0,0,1-1.9-1.81,8.35,8.35,0,0,1-1-2.93,22.85,22.85,0,0,1-.31-4,20.59,20.59,0,0,1,.34-3.83,9.09,9.09,0,0,1,1.1-3,5.31,5.31,0,0,1,2-1.93,6.2,6.2,0,0,1,3.05-.69,6.28,6.28,0,0,1,2.92.62,4.76,4.76,0,0,1,1.89,1.81,8.35,8.35,0,0,1,1,2.93A23.93,23.93,0,0,1,180.1,182.94Zm-2.48.17c0-.92,0-1.74-.1-2.46a14.53,14.53,0,0,0-.29-1.92,6.21,6.21,0,0,0-.5-1.44,3.37,3.37,0,0,0-.72-1,2.73,2.73,0,0,0-1-.57,3.86,3.86,0,0,0-1.22-.18,3.14,3.14,0,0,0-1.95.57,3.82,3.82,0,0,0-1.18,1.55,8.28,8.28,0,0,0-.59,2.32,25.44,25.44,0,0,0-.15,2.85,24.39,24.39,0,0,0,.21,3.48,7.51,7.51,0,0,0,.67,2.34A3.09,3.09,0,0,0,172,190a3.36,3.36,0,0,0,1.73.41,3.52,3.52,0,0,0,1.39-.25,2.93,2.93,0,0,0,1-.73,4.11,4.11,0,0,0,.71-1.13,7.9,7.9,0,0,0,.45-1.47,12.8,12.8,0,0,0,.23-1.75C177.6,184.44,177.62,183.78,177.62,183.11Z"/><path d="M200.55,182.94a19.8,19.8,0,0,1-.34,3.84,8.69,8.69,0,0,1-1.1,3,5.39,5.39,0,0,1-2,1.93,7.13,7.13,0,0,1-6,.07,4.78,4.78,0,0,1-1.9-1.81,8.35,8.35,0,0,1-1-2.93,23.93,23.93,0,0,1-.3-4,19.77,19.77,0,0,1,.34-3.83,8.87,8.87,0,0,1,1.1-3,5.29,5.29,0,0,1,2-1.93,7.13,7.13,0,0,1,6-.07,4.72,4.72,0,0,1,1.9,1.81,8.35,8.35,0,0,1,1,2.93A22.85,22.85,0,0,1,200.55,182.94Zm-2.49.17c0-.92,0-1.74-.1-2.46a13,13,0,0,0-.29-1.92,6.22,6.22,0,0,0-.49-1.44,3.39,3.39,0,0,0-.73-1,2.57,2.57,0,0,0-1-.57,3.86,3.86,0,0,0-1.22-.18,3.14,3.14,0,0,0-1.95.57,3.82,3.82,0,0,0-1.18,1.55,8.29,8.29,0,0,0-.58,2.32,23.19,23.19,0,0,0-.16,2.85,24.39,24.39,0,0,0,.21,3.48,8.09,8.09,0,0,0,.67,2.34,3,3,0,0,0,1.18,1.31,3.33,3.33,0,0,0,1.73.41,3.55,3.55,0,0,0,1.39-.25,2.89,2.89,0,0,0,1-.73,3.88,3.88,0,0,0,.71-1.13,7.9,7.9,0,0,0,.45-1.47,11.37,11.37,0,0,0,.24-1.75C198,184.44,198.06,183.78,198.06,183.11Z"/><path d="M208.26,187.61a.14.14,0,0,1-.16-.15,3.83,3.83,0,0,1,.12-.93c.08-.32.18-.49.31-.51l2.54-.35c.85-.12,1.7-.22,2.54-.31a.37.37,0,0,1,.15,0,.15.15,0,0,1,.07.12,3.51,3.51,0,0,1-.12.94c-.08.29-.23.46-.44.49-.8.13-1.6.24-2.43.36S209.16,187.53,208.26,187.61Z"/><path d="M231.28,192.2l-.63,0-1.1,0-1.29,0-1.22,0-1.39,0-1.75,0-1.53,0h-.84a.71.71,0,0,1-.3-.16c-.15-.1-.23-.2-.23-.29a.33.33,0,0,1,.08-.24l.19-.18,4.29-4.56a12.59,12.59,0,0,0,2.16-3.07,7.73,7.73,0,0,0,.81-3.45,2.94,2.94,0,0,0-.74-2.08,2.48,2.48,0,0,0-1.86-.78,3.48,3.48,0,0,0-1.92.57,4.76,4.76,0,0,0-1.44,1.42,1.23,1.23,0,0,1-.27.29.5.5,0,0,1-.34.13c-.09,0-.17-.07-.25-.21a1.07,1.07,0,0,1-.12-.53,1.94,1.94,0,0,1,.39-.94,6.15,6.15,0,0,1,1.12-1.21,6.69,6.69,0,0,1,1.69-1,5.31,5.31,0,0,1,2.12-.42,4.38,4.38,0,0,1,2.28.57,3.85,3.85,0,0,1,1.46,1.56,5,5,0,0,1,.5,2.27,5,5,0,0,1-.28,1.56,8.84,8.84,0,0,1-.73,1.64,9.63,9.63,0,0,1-1,1.46c-.23.28-.56.64-1,1.08s-.89.91-1.38,1.39-.94.95-1.39,1.38l-1.07,1.08a2.68,2.68,0,0,0-.41.47c0,.07.12.13.37.16s.68.06,1.07.08.83,0,1.29,0,.95,0,1.42,0,.92,0,1.36-.08a6.46,6.46,0,0,0,1.14-.16,1.62,1.62,0,0,0,.73-.39,3.42,3.42,0,0,0,.59-.83,3.49,3.49,0,0,1,.3-.37.51.51,0,0,1,.39-.21.19.19,0,0,1,.21.13.42.42,0,0,1,0,.27c0,.21-.14.49-.26.85s-.25.72-.37,1.12a9.54,9.54,0,0,0-.3,1.13.61.61,0,0,1-.25.49A.67.67,0,0,1,231.28,192.2Z"/><path d="M252,182.94a20.66,20.66,0,0,1-.33,3.84,8.89,8.89,0,0,1-1.1,3,5.54,5.54,0,0,1-2,1.93,7.13,7.13,0,0,1-6,.07,4.72,4.72,0,0,1-1.9-1.81,8.56,8.56,0,0,1-1-2.93,23.93,23.93,0,0,1-.3-4,19.77,19.77,0,0,1,.34-3.83,9.09,9.09,0,0,1,1.1-3,5.31,5.31,0,0,1,2-1.93,7.11,7.11,0,0,1,6-.07,4.72,4.72,0,0,1,1.9,1.81,8.56,8.56,0,0,1,1,2.93A23.93,23.93,0,0,1,252,182.94Zm-2.48.17c0-.92,0-1.74-.1-2.46a16.41,16.41,0,0,0-.29-1.92,6.21,6.21,0,0,0-.5-1.44,3.37,3.37,0,0,0-.72-1,2.73,2.73,0,0,0-1-.57,3.86,3.86,0,0,0-1.22-.18,3.14,3.14,0,0,0-1.95.57,3.82,3.82,0,0,0-1.18,1.55A8.28,8.28,0,0,0,242,180a25.44,25.44,0,0,0-.15,2.85,24.39,24.39,0,0,0,.21,3.48,7.51,7.51,0,0,0,.67,2.34,3.09,3.09,0,0,0,1.17,1.31,3.36,3.36,0,0,0,1.73.41,3.52,3.52,0,0,0,1.39-.25,2.81,2.81,0,0,0,1-.73,3.91,3.91,0,0,0,.72-1.13,7.9,7.9,0,0,0,.45-1.47,12.8,12.8,0,0,0,.23-1.75C249.5,184.44,249.53,183.78,249.53,183.11Z"/><path d="M270.83,175.11a9.51,9.51,0,0,0-1.91.11,7.64,7.64,0,0,0-6.53,6.68h.08a5.63,5.63,0,0,1,4.54-2.17c3.33,0,5.68,2.41,5.68,6.08,0,3.44-2.35,6.63-6.25,6.63s-6.66-3.13-6.66-8A11.81,11.81,0,0,1,263,176a10.24,10.24,0,0,1,6-2.78,11.79,11.79,0,0,1,1.85-.15ZM270.11,186c0-2.7-1.53-4.32-3.88-4.32a4.19,4.19,0,0,0-3.64,2.32,2.19,2.19,0,0,0-.29,1.13c.06,3.09,1.47,5.38,4.14,5.38C268.64,190.47,270.11,188.65,270.11,186Z"/><path d="M291.46,175.11a9.47,9.47,0,0,0-1.91.11A7.65,7.65,0,0,0,283,181.9h.09a5.61,5.61,0,0,1,4.54-2.17c3.32,0,5.67,2.41,5.67,6.08,0,3.44-2.35,6.63-6.25,6.63s-6.65-3.13-6.65-8a11.81,11.81,0,0,1,3.18-8.47,10.18,10.18,0,0,1,6-2.78,11.7,11.7,0,0,1,1.85-.15ZM290.73,186c0-2.7-1.53-4.32-3.87-4.32a4.2,4.2,0,0,0-3.65,2.32,2.19,2.19,0,0,0-.29,1.13c.06,3.09,1.48,5.38,4.14,5.38C289.26,190.47,290.73,188.65,290.73,186Z"/></svg>