<svg id="Слой_1" data-name="Слой 1" xmlns="http://www.w3.org/2000/svg" viewBox="0 0 400 400"><defs><style>.cls-1,.cls-2{fill:#fff;stroke:#000;stroke-width:3px;}.cls-1{stroke-miterlimit:10;}.cls-2{stroke-linecap:round;stroke-linejoin:round;}.cls-3{fill:#b8ad99;}.cls-4{fill:#608b70;}</style></defs><title>g25</title><path class="cls-1" d="M356.46,386H58.22s-52.73-259.16,0-314.81S309.6,10,356.46,71.19,356.46,386,356.46,386Z"/><path class="cls-1" d="M221.65,167.92c-5.73-4.34-15.38-4.24-21.78-2.3-9.19,2.78-8.65,8.43-20,16.12-10.57,7.17-14.35,4.49-23.6,10.74-10.77,7.29-10.81,14.42-18.15,23.8-3.65,4.66-16.9,18.68-37.22,23-12.08,2.58-15.47-.76-22.69,3.07-11,5.81-16.68,20.72-11.79,31.47,3.87,8.55,11.45,7.88,29,20,13.92,9.56,27.08,18.6,30,31.47,3.87,17.38-10,20.92-4.54,25.46,5,4.11,19.52,6.09,31.77-2.43,13.32-9.26,11.64-14.65,22.69-20,18.22-8.75,39-1.87,39.94-1.54,13.19,4.57,20.07,13.51,24.5,19.19,10.31,13.22,5.9,18.35,13.62,23.8,13.41,9.47,40.43,3.64,57.18-6.14,4-2.34,13.46-8,20-18.42,16.23-26-10.48-42.09-10.89-94.42-.15-18.13,2.93-32.57-8.17-39.91-9.32-6.17-19.08-1-28.14-7.68-14.72-10.82-4.41-35.8-10.89-37.61-3-.83-7,8.56-21.79,23-3.56,3.49-7.1,6.65-10.89,6.14-2.15-.3-4.14-1.75-8.16-8.45C224.5,174.48,226.07,171.26,221.65,167.92Z"/><polyline class="cls-1" points="211.17 287.82 201.87 268.69 192.57 287.82"/><path class="cls-2" d="M236.22,282.09c-.36-7.2,1.63-10,3.3-11.32,5.56-4.27,15.33,2.57,20.28-1.88,2.25-2,2.44-5.43,2.36-7.55"/><path class="cls-2" d="M234.81,257.57c1.08,2.32,3.06,5.6,6.6,7.07,5.74,2.39,10.41-2.14,15.09-.47,3.08,1.1,6.66,5.05,8,18.39"/><path class="cls-2" d="M245.18,283.5c4.06-2.06,5.53-4.4,6.13-6.13,2.4-6.91-6-13.16-3.77-20.74a12.52,12.52,0,0,1,5.19-6.61"/><polygon class="cls-1" points="123.44 284.72 147.18 242.43 169.96 284.72 123.44 284.72"/><path d="M117.34,104.86c-6.56,0-10.79-4.59-10.79-11.43S110.78,82,117.34,82s10.8,4.56,10.8,11.41S123.91,104.86,117.34,104.86Zm0-3.47c3.44,0,6.3-2.76,6.3-8s-2.86-7.94-6.3-7.94-6.29,2.77-6.29,7.94S113.91,101.39,117.34,101.39Z"/><path d="M136.05,104.51a1.17,1.17,0,0,1-.46-1c0-.82.5-1.23,1.49-1.23h.7c1.24,0,2.31-.78,3.21-2.35A19.46,19.46,0,0,0,143,94a35.87,35.87,0,0,0,.68-6.91,3.41,3.41,0,0,0-.64-2.31,3.54,3.54,0,0,0-2.61-.71c-.07,0-.1-.07-.1-.2s0-.2.1-.2h16.17s.07.06.07.2,0,.2-.07.2a6.64,6.64,0,0,0-1.81.18,1.2,1.2,0,0,0-.79.65,3.53,3.53,0,0,0-.22,1.46v15.37a3.68,3.68,0,0,0,.22,1.48,1.15,1.15,0,0,0,.79.65,7.17,7.17,0,0,0,1.81.17s.07.06.07.2,0,.19-.07.19c-.71,0-1.27,0-1.69,0l-2.36,0-2.46,0c-.4,0-1,0-1.72,0,0,0-.07-.06-.07-.19s0-.2.07-.2a7,7,0,0,0,1.82-.17,1.13,1.13,0,0,0,.77-.63,4.16,4.16,0,0,0,.2-1.5V86.63a5.81,5.81,0,0,0-.12-1.49.69.69,0,0,0-.53-.47,8.62,8.62,0,0,0-1.68-.1H147a5,5,0,0,0-1.49.17,1.18,1.18,0,0,0-.73.69,4.47,4.47,0,0,0-.23,1.7,48.35,48.35,0,0,1-.65,7.5,22.65,22.65,0,0,1-2.28,7.16q-1.62,3.08-4.31,3.07A2,2,0,0,1,136.05,104.51Z"/><path d="M166.7,105a6,6,0,0,1-1.46-.14,2.7,2.7,0,0,1-.91-.35.59.59,0,0,1-.17-.18.46.46,0,0,1-.08-.24.48.48,0,0,1,.11-.29.33.33,0,0,1,.26-.14,3,3,0,0,0,1.58-.47,6.07,6.07,0,0,0,1.55-1.38,18.4,18.4,0,0,0,1.55-2.22,16.69,16.69,0,0,1,2-2.72,4.87,4.87,0,0,1,2.39-1.57q.12-.06.09-.12s-.12-.07-.3-.09a5.26,5.26,0,0,1-4-2.79,5.37,5.37,0,0,1,.43-5.43A5.59,5.59,0,0,1,172.45,85a12.68,12.68,0,0,1,3.89-.56c.55,0,1,0,1.4,0l1.09.1a10.19,10.19,0,0,0,1.16.06q.67,0,1.2,0l1.13-.06q.59,0,1.35,0a1.53,1.53,0,0,1,.56.09.31.31,0,0,1,.23.31c0,.28-.29.48-.88.61a3.52,3.52,0,0,0-1.63.68,2,2,0,0,0-.47,1.48v13.74A1.81,1.81,0,0,0,182,103a3.57,3.57,0,0,0,1.67.67c.63.13.94.32.94.58s-.08.24-.25.31a2,2,0,0,1-.63.09c-.59,0-1.08,0-1.47-.05l-1.11-.09c-.35,0-.74,0-1.19,0s-.89,0-1.28,0-.79.06-1.23.1-.94.06-1.5.06a1.65,1.65,0,0,1-.63-.11c-.17-.07-.26-.17-.26-.29a.38.38,0,0,1,.25-.36,2.76,2.76,0,0,1,.7-.22,4.93,4.93,0,0,0,1.24-.44,1.64,1.64,0,0,0,.72-.68,2.22,2.22,0,0,0,.23-1l0-5.41c0-.41-.07-.64-.2-.7a2.31,2.31,0,0,0-.81-.09,1.44,1.44,0,0,0-.7.21l-.76.46a6.42,6.42,0,0,0-2,2.11c-.61,1-1.24,1.94-1.89,2.94a19,19,0,0,1-1.44,1.93,7.3,7.3,0,0,1-1.71,1.46A4,4,0,0,1,166.7,105Zm9.61-10.74a3.82,3.82,0,0,0,1.4-.21.91.91,0,0,0,.52-.94V87.61a1.94,1.94,0,0,0-.58-1.55,2.35,2.35,0,0,0-1.55-.48,4.15,4.15,0,0,0-2,.5,3.74,3.74,0,0,0-1.47,1.43,4.26,4.26,0,0,0-.55,2.23,4.65,4.65,0,0,0,1.08,3.36A4.24,4.24,0,0,0,176.31,94.21Z"/><path d="M216.64,83.17h7v.88c-.35.15-.71.28-1.1.42s-.78.24-1.18.35L216,93.06l6.24,9.79a10.08,10.08,0,0,1,2.49.73v.88h-8.09v-.88a7.78,7.78,0,0,1,2.31-.73l-4.8-7.63-4.63,7.66c.43.06.85.14,1.25.23a4.28,4.28,0,0,1,1.19.47v.88h-7v-.88a5.85,5.85,0,0,1,1.14-.45c.38-.1.75-.2,1.11-.28l6-9.09-5.71-8.94-1.21-.37c-.39-.12-.79-.25-1.2-.4v-.88h8.06v.88a10.68,10.68,0,0,1-1,.37l-1.29.4L215,91.69l4.14-6.87a18.22,18.22,0,0,1-2.53-.77Z"/><path d="M237.19,103.51a9.06,9.06,0,0,1-3.41-3.59,10.41,10.41,0,0,1-1.2-5,9.08,9.08,0,0,1,1.58-5.36,10,10,0,0,1,4.06-3.36,12.17,12.17,0,0,1,5.07-1.13,9.5,9.5,0,0,1,5.08,1.35,9.24,9.24,0,0,1,3.36,3.58,10,10,0,0,1,1.17,4.71,9.34,9.34,0,0,1-1.46,5.08,10.48,10.48,0,0,1-3.91,3.65,10.91,10.91,0,0,1-5.31,1.34A9.61,9.61,0,0,1,237.19,103.51Zm9.82-.32a6.88,6.88,0,0,0,2.62-3,10.37,10.37,0,0,0,1-4.63,11.63,11.63,0,0,0-1.07-5.08,8.3,8.3,0,0,0-3-3.46A8.18,8.18,0,0,0,242,85.82,6.58,6.58,0,0,0,236.78,88a8.7,8.7,0,0,0-1.89,5.93A12.53,12.53,0,0,0,236,99.13a8.89,8.89,0,0,0,3,3.71,7.38,7.38,0,0,0,4.35,1.35A7,7,0,0,0,247,103.19Z"/><path d="M263,82.34a33.74,33.74,0,0,1,5.55-.43c2.85,0,4.94.66,6.27,1.86a6,6,0,0,1,2,4.68,6.61,6.61,0,0,1-1.72,4.79,9.32,9.32,0,0,1-6.85,2.46,10.23,10.23,0,0,1-2.32-.2v9H263Zm2.89,10.8a10,10,0,0,0,2.39.23c3.49,0,5.61-1.69,5.61-4.78s-2.09-4.39-5.28-4.39a12.33,12.33,0,0,0-2.72.23Z"/><path d="M298.59,93.73l-.06.52h-3.28a2.46,2.46,0,0,0-1.72.54,3.6,3.6,0,0,0-.93,1.51,20.47,20.47,0,0,0-.61,2.26l-.61,3a4.21,4.21,0,0,1-1.3,2.6,3.64,3.64,0,0,1-2.22.68,4,4,0,0,1-2-.47,4.77,4.77,0,0,1-1.46-1.42l.42-.33a7.92,7.92,0,0,0,.7.71,1.29,1.29,0,0,0,.79.29,1,1,0,0,0,.93-.54,8.57,8.57,0,0,0,.6-1.86l.66-3.1a4.83,4.83,0,0,1,1.53-2.8,7,7,0,0,1,3.34-1.22c.39-.06.77-.11,1.16-.15l1.53-.14C296.66,93.81,297.52,93.77,298.59,93.73Zm5.33-10.8v.61a4.73,4.73,0,0,0-1.55.23,1.07,1.07,0,0,0-.69.73,5.94,5.94,0,0,0-.17,1.65v15.09a6,6,0,0,0,.17,1.64,1,1,0,0,0,.69.73,6,6,0,0,0,1.55.25v.6c-.47,0-1.07-.06-1.81-.07l-2.39,0-2.25,0c-.75,0-1.37,0-1.86.07v-.6a5.86,5.86,0,0,0,1.52-.25,1.07,1.07,0,0,0,.7-.73,5.5,5.5,0,0,0,.19-1.64V86.15a3.62,3.62,0,0,0-.42-2.1,2.15,2.15,0,0,0-1.71-.51,4.35,4.35,0,0,0-3.59,1.29,5.56,5.56,0,0,0-1,3.57,8.85,8.85,0,0,0,.38,2.68A3.39,3.39,0,0,0,293.1,93a5.82,5.82,0,0,0,3.12.69h2.62v.61h-2.92a11.76,11.76,0,0,1-5.11-.9,5.4,5.4,0,0,1-2.54-2.27,5.87,5.87,0,0,1-.72-2.77,4.7,4.7,0,0,1,1.9-3.86q1.91-1.49,5.8-1.49l1.87,0c.88,0,1.81,0,2.78,0l2.21,0Z"/><polygon class="cls-3" points="199.86 246.74 201.99 240.16 204.1 246.74 209.95 243.07 207.34 249.47 214.19 250.42 208.08 253.65 212.7 258.77 205.95 257.32 206.2 264.22 201.97 258.76 197.72 264.21 197.98 257.31 191.23 258.75 195.87 253.63 189.76 250.4 196.61 249.46 194.01 243.06 199.86 246.74"/><path class="cls-4" d="M258.56,255.78a3.15,3.15,0,1,1-4.38-.85,3.15,3.15,0,0,1,4.38.85"/><path class="cls-4" d="M156.53,271.53a10.06,10.06,0,1,1-10.06-10,10.06,10.06,0,0,1,10.06,10"/><polygon points="155.56 312.15 155.55 312.16 155.58 312.19 155.55 312.21 155.55 312.22 155.59 312.19 155.56 312.15"/><path d="M119.68,136.17V119.68h-4.75v-2.85c3.17-.1,4.72-.31,5.75-2.71h3.19v22Z"/><path d="M134.28,137.11a.56.56,0,0,1-.34-.08.21.21,0,0,1-.09-.16.24.24,0,0,1,.14-.23.6.6,0,0,1,.29-.08,5,5,0,0,0,2.11-.59,13.13,13.13,0,0,0,2.44-1.61,14.75,14.75,0,0,0,2.2-2.27,15.2,15.2,0,0,0,1.57-2.49,11,11,0,0,0,.86-2.51,12.78,12.78,0,0,0,.28-2.76,7.31,7.31,0,0,0-.35-2.19,8.53,8.53,0,0,0-.94-2,5.36,5.36,0,0,0-1.37-1.46,2.72,2.72,0,0,0-1.6-.55,2.56,2.56,0,0,0-1.64.53,3.41,3.41,0,0,0-1,1.31,3.92,3.92,0,0,0-.33,1.54,4.27,4.27,0,0,0,1.61,3.24,2.49,2.49,0,0,0,1.52.56,3,3,0,0,0,1.4-.26c.31-.17.65-.35,1-.53.08,0,.14,0,.19.09a.24.24,0,0,1,0,.24,2.41,2.41,0,0,1-.46.6,6.66,6.66,0,0,1-.55.47,6.41,6.41,0,0,1-.66.39,6.67,6.67,0,0,1-1,.43,3.55,3.55,0,0,1-1.12.18,4.58,4.58,0,0,1-3.64-1.87,3.31,3.31,0,0,1-.62-2,5.37,5.37,0,0,1,.45-2.1,6.9,6.9,0,0,1,1.3-2,6.46,6.46,0,0,1,2-1.45,5.88,5.88,0,0,1,2.52-.55,4.29,4.29,0,0,1,2.15.6,6.68,6.68,0,0,1,1.88,1.58,7.86,7.86,0,0,1,1.33,2.24,7,7,0,0,1,.48,2.55,11.34,11.34,0,0,1-.51,3.48,12.74,12.74,0,0,1-1.49,3.06,24,24,0,0,1-2.38,3,9.1,9.1,0,0,1-1.82,1.58,13.74,13.74,0,0,1-2,1.13,11.37,11.37,0,0,1-2,.67A8.64,8.64,0,0,1,134.28,137.11Z"/><path d="M155,137.11a.53.53,0,0,1-.33-.08.21.21,0,0,1-.09-.16.24.24,0,0,1,.13-.23.6.6,0,0,1,.29-.08,5,5,0,0,0,2.12-.59,12.75,12.75,0,0,0,2.43-1.61,14.75,14.75,0,0,0,2.2-2.27,14.55,14.55,0,0,0,1.57-2.49,10.53,10.53,0,0,0,.87-2.51,13.46,13.46,0,0,0,.27-2.76,7.31,7.31,0,0,0-.35-2.19,8.53,8.53,0,0,0-.94-2,5.21,5.21,0,0,0-1.37-1.46,2.72,2.72,0,0,0-1.6-.55,2.58,2.58,0,0,0-1.64.53,3.29,3.29,0,0,0-1,1.31,3.77,3.77,0,0,0-.34,1.54,4,4,0,0,0,.44,1.79,4.3,4.3,0,0,0,1.17,1.45,2.51,2.51,0,0,0,1.52.56,3,3,0,0,0,1.4-.26c.31-.17.65-.35,1-.53.08,0,.15,0,.2.09a.23.23,0,0,1,0,.24,2.35,2.35,0,0,1-.45.6c-.21.19-.39.34-.55.47a6.82,6.82,0,0,1-.67.39,6.67,6.67,0,0,1-1,.43,3.55,3.55,0,0,1-1.12.18,4.62,4.62,0,0,1-3.64-1.87,3.31,3.31,0,0,1-.62-2,5.21,5.21,0,0,1,.46-2.1,6.66,6.66,0,0,1,1.29-2,6.59,6.59,0,0,1,2-1.45,5.89,5.89,0,0,1,2.53-.55,4.26,4.26,0,0,1,2.14.6,6.87,6.87,0,0,1,1.89,1.58,7.84,7.84,0,0,1,1.32,2.24A7,7,0,0,1,167,124a11.34,11.34,0,0,1-.52,3.48,12,12,0,0,1-1.49,3.06,24.87,24.87,0,0,1-2.37,3,9.45,9.45,0,0,1-1.83,1.58,13.74,13.74,0,0,1-2,1.13,11.37,11.37,0,0,1-2,.67A8.64,8.64,0,0,1,155,137.11Z"/><path d="M175.65,137.11a.54.54,0,0,1-.34-.08.21.21,0,0,1-.09-.16.24.24,0,0,1,.14-.23.57.57,0,0,1,.29-.08,5,5,0,0,0,2.11-.59,12.75,12.75,0,0,0,2.43-1.61,14.82,14.82,0,0,0,2.21-2.27A14.46,14.46,0,0,0,184,129.6a10.53,10.53,0,0,0,.87-2.51,13.46,13.46,0,0,0,.27-2.76,7.29,7.29,0,0,0-.34-2.19,8.56,8.56,0,0,0-.95-2,5.07,5.07,0,0,0-1.37-1.46,2.69,2.69,0,0,0-1.59-.55,2.61,2.61,0,0,0-1.65.53,3.38,3.38,0,0,0-1,1.31,3.81,3.81,0,0,0,.11,3.33,4.08,4.08,0,0,0,1.17,1.45,2.46,2.46,0,0,0,1.52.56,3,3,0,0,0,1.4-.26c.3-.17.65-.35,1-.53.08,0,.15,0,.2.09a.24.24,0,0,1,0,.24,2.67,2.67,0,0,1-.46.6c-.2.19-.39.34-.55.47a5.78,5.78,0,0,1-.67.39,6.54,6.54,0,0,1-1,.43,3.61,3.61,0,0,1-1.13.18,4.47,4.47,0,0,1-2-.5,4.38,4.38,0,0,1-1.61-1.37,3.25,3.25,0,0,1-.63-2A5.38,5.38,0,0,1,176,121a6.86,6.86,0,0,1,1.29-2,6.63,6.63,0,0,1,2-1.45,5.88,5.88,0,0,1,2.52-.55,4.23,4.23,0,0,1,2.14.6,6.87,6.87,0,0,1,1.89,1.58,7.61,7.61,0,0,1,1.32,2.24,6.84,6.84,0,0,1,.49,2.55,11,11,0,0,1-.52,3.48,12,12,0,0,1-1.49,3.06,24.87,24.87,0,0,1-2.37,3,9.69,9.69,0,0,1-1.82,1.58,13.74,13.74,0,0,1-2,1.13,11.47,11.47,0,0,1-2,.67A8.55,8.55,0,0,1,175.65,137.11Z"/><path d="M195.36,131a.17.17,0,0,1-.19-.19,4.41,4.41,0,0,1,.14-1.06c.09-.37.21-.56.35-.58l2.92-.41c1-.13,1.95-.25,2.92-.35a.34.34,0,0,1,.17.05.14.14,0,0,1,.07.13,4.1,4.1,0,0,1-.13,1.08q-.13.51-.51.57l-2.78.41C197.38,130.78,196.39,130.89,195.36,131Z"/><path d="M221.79,136.26l-.73,0-1.26,0-1.48-.06-1.4,0-1.6,0-2,0-1.77,0-1,0a.85.85,0,0,1-.35-.19c-.17-.12-.25-.23-.25-.33a.37.37,0,0,1,.09-.27l.21-.22,4.93-5.23a14.4,14.4,0,0,0,2.48-3.53,8.91,8.91,0,0,0,.92-3.95,3.33,3.33,0,0,0-.85-2.39,2.79,2.79,0,0,0-2.13-.9,4,4,0,0,0-2.2.66,5.49,5.49,0,0,0-1.66,1.63,1.55,1.55,0,0,1-.3.33.64.64,0,0,1-.4.15c-.1,0-.2-.08-.29-.24a1.25,1.25,0,0,1-.13-.61,2.24,2.24,0,0,1,.45-1.08,6.72,6.72,0,0,1,1.28-1.38,7.81,7.81,0,0,1,2-1.19,6.13,6.13,0,0,1,2.43-.49,5,5,0,0,1,2.61.66,4.33,4.33,0,0,1,1.68,1.79,5.75,5.75,0,0,1,.58,2.6,5.9,5.9,0,0,1-.32,1.8,10.9,10.9,0,0,1-.84,1.88,11.35,11.35,0,0,1-1.16,1.68c-.26.32-.64.74-1.14,1.24s-1,1-1.58,1.6-1.09,1.09-1.6,1.58l-1.23,1.23a3,3,0,0,0-.47.55c0,.08.14.14.43.18s.77.08,1.23.1.95,0,1.47,0,1.09,0,1.63,0,1.06-.06,1.57-.1a8.27,8.27,0,0,0,1.31-.18,1.82,1.82,0,0,0,.83-.45,4,4,0,0,0,.69-.95,4.2,4.2,0,0,1,.33-.42.63.63,0,0,1,.46-.25.23.23,0,0,1,.24.16.52.52,0,0,1,0,.3c-.06.24-.16.57-.3,1s-.29.84-.43,1.3a12.26,12.26,0,0,0-.33,1.29.74.74,0,0,1-.29.56A.81.81,0,0,1,221.79,136.26Z"/><path d="M245.59,125.63a23.92,23.92,0,0,1-.38,4.41,10,10,0,0,1-1.27,3.43,6.3,6.3,0,0,1-2.31,2.22,7.24,7.24,0,0,1-3.52.79,7.16,7.16,0,0,1-3.33-.71,5.44,5.44,0,0,1-2.18-2.08,9.82,9.82,0,0,1-1.18-3.37,27.34,27.34,0,0,1-.34-4.6,23.08,23.08,0,0,1,.39-4.4,10.52,10.52,0,0,1,1.26-3.44,6.2,6.2,0,0,1,2.3-2.22,7.23,7.23,0,0,1,3.51-.78,7.15,7.15,0,0,1,3.34.7,5.47,5.47,0,0,1,2.19,2.08,9.61,9.61,0,0,1,1.17,3.37A27.26,27.26,0,0,1,245.59,125.63Zm-2.85.19q0-1.57-.12-2.82a15.49,15.49,0,0,0-.33-2.21,7.14,7.14,0,0,0-.57-1.64,4,4,0,0,0-.83-1.14,3.12,3.12,0,0,0-1.11-.65,4.75,4.75,0,0,0-1.41-.2,3.6,3.6,0,0,0-2.23.65,4.33,4.33,0,0,0-1.36,1.78,9.5,9.5,0,0,0-.67,2.66,31.79,31.79,0,0,0,.06,7.28,9.12,9.12,0,0,0,.77,2.68,3.46,3.46,0,0,0,1.35,1.51,4,4,0,0,0,2,.47,4.14,4.14,0,0,0,1.59-.29,3.48,3.48,0,0,0,1.19-.84,4.72,4.72,0,0,0,.82-1.3,9.59,9.59,0,0,0,.52-1.69,14.7,14.7,0,0,0,.26-2C242.71,127.35,242.74,126.6,242.74,125.82Z"/><path d="M268.5,111.09h1.13c0,.33,0,.77,0,1.3s-.06,1.07-.13,1.62-.15,1.08-.23,1.58a8.68,8.68,0,0,1-.27,1.15h-9.1l-.6,4.75H262a10.37,10.37,0,0,1,3.25.48,7,7,0,0,1,2.5,1.39,6.31,6.31,0,0,1,1.59,2.23,7.47,7.47,0,0,1,.56,3,7.63,7.63,0,0,1-.71,3.38,7.42,7.42,0,0,1-1.94,2.49,9.13,9.13,0,0,1-2.89,1.56,11.59,11.59,0,0,1-3.59.55,10.17,10.17,0,0,1-6.08-2l1.4-3.28h1a6.85,6.85,0,0,1,.53.59l.63.77c.22.26.44.53.63.79s.38.5.54.7a3.6,3.6,0,0,0,.61.2,3.67,3.67,0,0,0,.75.07,5,5,0,0,0,1.86-.35,4.3,4.3,0,0,0,1.48-1,4.9,4.9,0,0,0,1-1.51,5,5,0,0,0,.37-1.95,4.44,4.44,0,0,0-.45-2,4,4,0,0,0-1.21-1.44,5.39,5.39,0,0,0-1.79-.85,8.1,8.1,0,0,0-2.16-.28l-2.89,0,1.33-12.12h8.66Z"/><path d="M294.47,125.63a23.92,23.92,0,0,1-.38,4.41,10,10,0,0,1-1.26,3.43,6.3,6.3,0,0,1-2.31,2.22,7.3,7.3,0,0,1-3.52.79,7.2,7.2,0,0,1-3.34-.71,5.44,5.44,0,0,1-2.18-2.08,9.61,9.61,0,0,1-1.17-3.37,26.26,26.26,0,0,1-.35-4.6,23.08,23.08,0,0,1,.39-4.4,10.52,10.52,0,0,1,1.26-3.44,6.22,6.22,0,0,1,2.31-2.22,8.3,8.3,0,0,1,6.85-.08,5.44,5.44,0,0,1,2.18,2.08,9.61,9.61,0,0,1,1.17,3.37A26.26,26.26,0,0,1,294.47,125.63Zm-2.85.19q0-1.57-.12-2.82a15.49,15.49,0,0,0-.33-2.21,6.69,6.69,0,0,0-.57-1.64,4,4,0,0,0-.83-1.14,3.12,3.12,0,0,0-1.11-.65,4.73,4.73,0,0,0-1.4-.2,3.63,3.63,0,0,0-2.24.65,4.33,4.33,0,0,0-1.36,1.78,9.5,9.5,0,0,0-.67,2.66,28.09,28.09,0,0,0-.18,3.28,26.75,26.75,0,0,0,.25,4,8.55,8.55,0,0,0,.77,2.68,3.51,3.51,0,0,0,1.34,1.51,4,4,0,0,0,2,.47,4.19,4.19,0,0,0,1.6-.29,3.54,3.54,0,0,0,1.18-.84,4.72,4.72,0,0,0,.82-1.3,9.59,9.59,0,0,0,.52-1.69,13.28,13.28,0,0,0,.26-2C291.59,127.35,291.62,126.6,291.62,125.82Z"/></svg>