<svg id="Слой_1" data-name="Слой 1" xmlns="http://www.w3.org/2000/svg" viewBox="0 0 400 400"><defs><style>.cls-1{fill:#fff;stroke:#000;stroke-miterlimit:10;stroke-width:3px;}.cls-2{fill:#b8ad99;}</style></defs><title>g27</title><path class="cls-1" d="M347.62,386H21.41V200.55s250.15-216,326.21-164.22C416.46,83.19,347.62,386,347.62,386Z"/><path class="cls-1" d="M284.8,301.31c13.86-15.15,45.47,1.52,52.77-10.86,4.37-7.41-6.18-14.68-2-30.69,2.47-9.48,7.72-12.86,5.62-18.38s-8.28-4.66-16.85-11.32c-11.11-8.63-7.41-15.24-15.48-19.82-11.58-6.56-21.71,5.64-38.14-.84-6.26-2.47-4.93-4.3-14.81-9.59-8.49-4.54-17.53-9.37-26.94-8.62-14.79,1.18-28,16-31.51,30.77-4,16.83,5.87,28.85-.3,33.78-5.84,4.67-19.22-2.5-23.15-4.6-12.55-6.73-14.35-13.72-26.78-24.81-9.6-8.56-18.06-16.11-30.49-18.9-16.45-3.7-21.13,5.12-46.2,2.16-7.77-.92-11.07-2.21-13.87.08-6.82,5.59-3.28,26.49,8.14,40.15,9.92,11.87,19.76,11.07,25.63,24.23,2.68,6,2.3,9.95,6.76,14,5.15,4.69,10.1,3.5,18.83,5.95,13,3.68,21.54,11.86,25.55,15.71,11.24,10.81,6.37,14.76,17,25.52,11.79,12,21.43,10.75,26.18,21.68,3.59,8.25,1.11,15.91,2.74,16.22,2.06.39,3.53-12.25,12.2-25.66,2.81-4.34,9.47-14.35,22.07-20.69,4.14-2.08,18.51-9.3,26.54-3.58,5.16,3.67,4.44,10.33,9.35,11.78,1,.29,4.53,1.05,10.94-4.38C280.84,320.22,277.41,309.39,284.8,301.31Z"/><path d="M211.52,117.49h-3L207.05,113h-8.52l-1.44,4.47h-2.9L201,97h3.82Zm-5.27-7-3.46-11-3.46,11Z"/><path d="M219.31,117.49v-2h.45c3,0,4.17-4.69,4.78-15.11l.36-6.17h13.35v23.27h-2.16V96.21h-9.21l-.28,5.27c-.68,11.65-2.6,16-6.55,16Z"/><path d="M266,113.61v3.88H250.18V94.71h15.53v3.88h-11.1v5.49h9.59v3.59h-9.59v5.94Z"/><path d="M275.62,117.65a1.76,1.76,0,0,1-.67-.11c-.17-.08-.26-.18-.26-.31s.34-.38,1-.51a2.45,2.45,0,0,0,1.58-.74,2.89,2.89,0,0,0,.37-1.67V99.81a3.75,3.75,0,0,0-.24-1.59c-.16-.31-.64-.54-1.46-.69s-1.05-.32-1.05-.57a.33.33,0,0,1,.22-.31,1.72,1.72,0,0,1,.7-.11q.87,0,1.35,0l.9.05h2.17l.93-.05c.33,0,.78,0,1.36,0s.93.14.93.42a.39.39,0,0,1-.26.35,3.1,3.1,0,0,1-.8.22,2.88,2.88,0,0,0-1.68.79,2.16,2.16,0,0,0-.5,1.49v6.32a.22.22,0,0,0,.16.24,1.1,1.1,0,0,0,.29,0h11.9c.15,0,.23-.13.23-.38V99.78a2.3,2.3,0,0,0-.45-1.45,2.7,2.7,0,0,0-1.67-.8,3.22,3.22,0,0,1-.8-.22.41.41,0,0,1-.26-.35q0-.42.93-.42c.58,0,1.06,0,1.43,0l1.08.05h2.11l.74-.05c.28,0,.71,0,1.28,0a1.77,1.77,0,0,1,.69.11.34.34,0,0,1,.24.31q0,.38-1.05.57c-.8.15-1.28.41-1.45.77a3.57,3.57,0,0,0-.26,1.48v14.5a3.53,3.53,0,0,0,.31,1.7,2.13,2.13,0,0,0,1.49.74c.69.13,1,.3,1,.51s-.09.23-.26.31a1.76,1.76,0,0,1-.67.11c-.58,0-1,0-1.35-.05l-.9-.08c-.28,0-.64,0-1.09,0s-.82,0-1.11,0l-.94.08c-.35,0-.8.05-1.38.05a1.82,1.82,0,0,1-.68-.11c-.17-.08-.25-.18-.25-.31a.34.34,0,0,1,.24-.32,4.4,4.4,0,0,1,.78-.19,3.07,3.07,0,0,0,1.62-.76,2.05,2.05,0,0,0,.6-1.58V107.8a.14.14,0,0,0-.16-.16H280.4c-.11,0-.16.12-.16.35v6.1a2.32,2.32,0,0,0,.74,1.71,3.34,3.34,0,0,0,1.83.92,4.4,4.4,0,0,1,.78.19.34.34,0,0,1,.24.32c0,.13-.08.23-.25.31a1.82,1.82,0,0,1-.68.11c-.57,0-1,0-1.42-.05l-1.08-.08c-.34,0-.76,0-1.25,0s-.83,0-1.14,0l-1,.08C276.66,117.63,276.2,117.65,275.62,117.65Z"/><path d="M311.85,110.69l-2.25,6.8h-2.89l7.35-21.63h3.37l7.38,21.63h-3l-2.32-6.8Zm7.09-2.19-2.12-6.22c-.48-1.41-.8-2.7-1.12-4h-.07c-.32,1.29-.67,2.6-1.09,3.92l-2.12,6.25Z"/><polygon class="cls-2" points="236.1 218.03 238.13 208.45 242.08 217.42 249.81 211.39 247.06 220.8 256.86 221.14 248.71 226.59 255.99 233.14 246.25 232.08 247.61 241.78 240.84 234.7 235.64 243.01 235 233.23 225.68 236.26 231.47 228.36 222.38 224.68 231.91 222.35 227.31 213.7 236.1 218.03"/><polygon class="cls-2" points="176.67 294.89 178.71 285.3 182.65 294.27 190.38 288.24 187.63 297.65 197.43 297.99 189.28 303.44 196.56 309.99 186.82 308.93 188.18 318.63 181.41 311.55 176.21 319.87 175.57 310.08 166.25 313.11 172.04 305.21 162.96 301.54 172.48 299.21 167.88 290.55 176.67 294.89"/><path d="M177.83,146.87V130.94h-4.58v-2.77c3.05-.08,4.55-.29,5.55-2.61h3.09v21.31Z"/><path d="M191.93,147.78a.51.51,0,0,1-.32-.08.21.21,0,0,1-.09-.16.25.25,0,0,1,.13-.22.55.55,0,0,1,.28-.07,4.69,4.69,0,0,0,2-.58,12.66,12.66,0,0,0,2.35-1.55,14,14,0,0,0,3.64-4.6,10.6,10.6,0,0,0,.84-2.43,13.16,13.16,0,0,0,.26-2.65,6.76,6.76,0,0,0-.34-2.12,7.51,7.51,0,0,0-.91-1.94A5,5,0,0,0,198.5,130a2.66,2.66,0,0,0-1.54-.53,2.43,2.43,0,0,0-1.59.52,3.24,3.24,0,0,0-1,1.26,3.8,3.8,0,0,0-.32,1.48,3.91,3.91,0,0,0,.42,1.74,4.1,4.1,0,0,0,1.14,1.39,2.4,2.4,0,0,0,1.47.55,2.94,2.94,0,0,0,1.35-.25c.29-.17.62-.34,1-.52.07,0,.14,0,.19.09a.21.21,0,0,1,0,.23,2.07,2.07,0,0,1-.44.58,4.73,4.73,0,0,1-.53.45,6.81,6.81,0,0,1-.64.39,7.85,7.85,0,0,1-1,.41,3.7,3.7,0,0,1-1.09.17,4.43,4.43,0,0,1-3.51-1.8,3.18,3.18,0,0,1-.6-1.9,5,5,0,0,1,.44-2,6.71,6.71,0,0,1,1.24-1.89,6.18,6.18,0,0,1,1.93-1.4,5.66,5.66,0,0,1,2.44-.53A4.11,4.11,0,0,1,200,129a6.71,6.71,0,0,1,1.82,1.52,7.57,7.57,0,0,1,1.28,2.16,6.85,6.85,0,0,1,.47,2.47,11,11,0,0,1-.5,3.37,11.84,11.84,0,0,1-1.44,3,24.2,24.2,0,0,1-2.29,2.88,9.43,9.43,0,0,1-1.76,1.53,13.21,13.21,0,0,1-2,1.08,10,10,0,0,1-2,.65A8,8,0,0,1,191.93,147.78Z"/><path d="M211.92,147.78a.53.53,0,0,1-.33-.08.21.21,0,0,1-.09-.16.24.24,0,0,1,.14-.22.53.53,0,0,1,.28-.07,4.69,4.69,0,0,0,2-.58,12.34,12.34,0,0,0,2.35-1.55,14.69,14.69,0,0,0,2.13-2.19,14.15,14.15,0,0,0,1.51-2.41,10.6,10.6,0,0,0,.84-2.43,12.47,12.47,0,0,0,.26-2.65,7,7,0,0,0-.33-2.12,8.23,8.23,0,0,0-.91-1.94,5.16,5.16,0,0,0-1.33-1.41,2.66,2.66,0,0,0-1.54-.53,2.45,2.45,0,0,0-1.59.52,3.24,3.24,0,0,0-1,1.26,3.66,3.66,0,0,0,.11,3.22,4,4,0,0,0,1.13,1.39,2.4,2.4,0,0,0,1.47.55,2.89,2.89,0,0,0,1.35-.25c.29-.17.63-.34,1-.52.08,0,.14,0,.19.09a.21.21,0,0,1,0,.23,1.9,1.9,0,0,1-.44.58,4.73,4.73,0,0,1-.53.45,5.69,5.69,0,0,1-.64.39,7.85,7.85,0,0,1-1,.41,3.65,3.65,0,0,1-1.09.17,4.43,4.43,0,0,1-3.51-1.8,3.18,3.18,0,0,1-.6-1.9,5,5,0,0,1,.44-2,6.54,6.54,0,0,1,1.25-1.89,6.25,6.25,0,0,1,1.92-1.4,5.69,5.69,0,0,1,2.44-.53A4.06,4.06,0,0,1,220,129a6.56,6.56,0,0,1,1.82,1.52,7.57,7.57,0,0,1,1.28,2.16,6.65,6.65,0,0,1,.47,2.47,10.68,10.68,0,0,1-.5,3.37,11.84,11.84,0,0,1-1.44,3,23.23,23.23,0,0,1-2.29,2.88,9.43,9.43,0,0,1-1.76,1.53,13.21,13.21,0,0,1-2,1.08,10,10,0,0,1-2,.65A8,8,0,0,1,211.92,147.78Z"/><path d="M231.9,147.78a.53.53,0,0,1-.33-.08.23.23,0,0,1-.08-.16.23.23,0,0,1,.13-.22.55.55,0,0,1,.28-.07,4.62,4.62,0,0,0,2-.58,12.34,12.34,0,0,0,2.35-1.55,14.69,14.69,0,0,0,2.13-2.19,14.15,14.15,0,0,0,1.51-2.41,9.73,9.73,0,0,0,.84-2.43,12.46,12.46,0,0,0,.27-2.65,7.06,7.06,0,0,0-.34-2.12,8.23,8.23,0,0,0-.91-1.94,5,5,0,0,0-1.33-1.41,2.63,2.63,0,0,0-1.54-.53,2.41,2.41,0,0,0-1.58.52,3.06,3.06,0,0,0-1,1.26,3.64,3.64,0,0,0-.33,1.48,3.79,3.79,0,0,0,.43,1.74,4,4,0,0,0,1.13,1.39,2.4,2.4,0,0,0,1.47.55,2.89,2.89,0,0,0,1.35-.25c.29-.17.63-.34,1-.52.08,0,.14,0,.19.09s.06.18,0,.23a2.28,2.28,0,0,1-.44.58c-.2.18-.38.34-.53.45a6.45,6.45,0,0,1-1.62.8,3.65,3.65,0,0,1-1.09.17,4.43,4.43,0,0,1-3.51-1.8,3.18,3.18,0,0,1-.6-1.9,5.2,5.2,0,0,1,.44-2,6.54,6.54,0,0,1,1.25-1.89,6.25,6.25,0,0,1,1.92-1.4,5.69,5.69,0,0,1,2.44-.53A4.06,4.06,0,0,1,240,129a6.75,6.75,0,0,1,1.83,1.52,7.78,7.78,0,0,1,1.27,2.16,6.65,6.65,0,0,1,.47,2.47,10.68,10.68,0,0,1-.5,3.37,11.84,11.84,0,0,1-1.44,3,23.23,23.23,0,0,1-2.29,2.88,9.12,9.12,0,0,1-1.76,1.53,12.73,12.73,0,0,1-2,1.08,10.14,10.14,0,0,1-1.95.65A8.11,8.11,0,0,1,231.9,147.78Z"/><path d="M250.94,141.87a.16.16,0,0,1-.18-.18,4.1,4.1,0,0,1,.14-1c.08-.36.2-.54.33-.56l2.82-.4c.95-.13,1.89-.24,2.83-.34a.33.33,0,0,1,.16,0,.14.14,0,0,1,.07.13,3.85,3.85,0,0,1-.13,1c-.09.33-.25.51-.49.55-.88.13-1.77.27-2.69.39S251.94,141.77,250.94,141.87Z"/><path d="M276.47,147h-.7l-1.22,0-1.42-.06-1.36,0-1.54,0-1.94,0-1.7,0h-.93a.77.77,0,0,1-.34-.17c-.16-.12-.25-.23-.25-.32a.37.37,0,0,1,.09-.27l.21-.2,4.76-5.06a13.86,13.86,0,0,0,2.39-3.41,8.51,8.51,0,0,0,.9-3.82,3.22,3.22,0,0,0-.82-2.3,2.73,2.73,0,0,0-2.06-.87,3.85,3.85,0,0,0-2.13.63,5.33,5.33,0,0,0-1.6,1.57,1.55,1.55,0,0,1-.3.33.59.59,0,0,1-.38.14c-.1,0-.19-.08-.28-.23a1.2,1.2,0,0,1-.13-.59,2.16,2.16,0,0,1,.44-1,6.78,6.78,0,0,1,1.23-1.34,7.62,7.62,0,0,1,1.89-1.15,5.87,5.87,0,0,1,2.35-.47,4.72,4.72,0,0,1,2.52.64,4.1,4.1,0,0,1,1.62,1.73,5.49,5.49,0,0,1,.56,2.51A5.71,5.71,0,0,1,276,135a10.63,10.63,0,0,1-.81,1.83,9.81,9.81,0,0,1-1.12,1.61,15.71,15.71,0,0,1-1.1,1.21l-1.53,1.54c-.53.54-1,1-1.54,1.53s-.88.88-1.19,1.19a2.45,2.45,0,0,0-.45.53c0,.08.13.14.41.17s.75.07,1.19.09.91,0,1.42,0,1.06,0,1.58,0,1,0,1.51-.09a6.73,6.73,0,0,0,1.26-.17,1.89,1.89,0,0,0,.81-.44,3.89,3.89,0,0,0,.66-.91c.08-.12.19-.26.32-.42a.62.62,0,0,1,.44-.23.23.23,0,0,1,.24.15.48.48,0,0,1,0,.29c-.06.24-.16.55-.29.94s-.28.81-.42,1.25-.24.86-.32,1.25a.71.71,0,0,1-.28.54A.72.72,0,0,1,276.47,147Z"/><path d="M299.47,136.68a22.31,22.31,0,0,1-.37,4.26,9.67,9.67,0,0,1-1.22,3.32,5.94,5.94,0,0,1-2.23,2.14,6.92,6.92,0,0,1-3.4.76,6.82,6.82,0,0,1-3.22-.68,5.33,5.33,0,0,1-2.11-2,9.41,9.41,0,0,1-1.13-3.26,25.54,25.54,0,0,1-.34-4.44,21.63,21.63,0,0,1,.38-4.26,9.88,9.88,0,0,1,1.22-3.32,5.84,5.84,0,0,1,2.22-2.14,8,8,0,0,1,6.62-.08,5.26,5.26,0,0,1,2.11,2,9.41,9.41,0,0,1,1.13,3.26A25.54,25.54,0,0,1,299.47,136.68Zm-2.76.19c0-1,0-1.92-.11-2.73a16.08,16.08,0,0,0-.32-2.13,6.87,6.87,0,0,0-.55-1.59,3.8,3.8,0,0,0-.8-1.09,2.87,2.87,0,0,0-1.08-.63,4.35,4.35,0,0,0-1.35-.2,3.46,3.46,0,0,0-2.16.63,4.18,4.18,0,0,0-1.31,1.72,9,9,0,0,0-.65,2.57,26.38,26.38,0,0,0-.17,3.17,28.07,28.07,0,0,0,.23,3.86,8.51,8.51,0,0,0,.75,2.59,3.35,3.35,0,0,0,1.3,1.46,3.79,3.79,0,0,0,1.92.46,3.92,3.92,0,0,0,1.54-.29,3.15,3.15,0,0,0,1.14-.8,4.35,4.35,0,0,0,.79-1.27,8.31,8.31,0,0,0,.5-1.62,12.47,12.47,0,0,0,.26-1.94C296.69,138.35,296.71,137.62,296.71,136.87Z"/><path d="M308.19,141.57c0-2.63,1.57-4.49,4.14-5.58l0-.1a5.16,5.16,0,0,1-3.3-4.68c0-3.31,2.79-5.55,6.45-5.55,4,0,6.06,2.53,6.06,5.13,0,1.76-.86,3.66-3.43,4.88v.09c2.6,1,4.2,2.86,4.2,5.39,0,3.63-3.11,6.07-7.09,6.07C310.82,147.22,308.19,144.62,308.19,141.57Zm11.23-.13c0-2.53-1.77-3.75-4.59-4.55-2.44.7-3.75,2.31-3.75,4.3a3.85,3.85,0,0,0,4.17,4C317.78,145.17,319.42,143.59,319.42,141.44ZM311.65,131c0,2.09,1.58,3.21,4,3.86,1.8-.62,3.18-1.9,3.18-3.79a3.24,3.24,0,0,0-3.53-3.4A3.32,3.32,0,0,0,311.65,131Z"/><path d="M331.06,141.57c0-2.63,1.58-4.49,4.14-5.58l0-.1a5.16,5.16,0,0,1-3.3-4.68c0-3.31,2.79-5.55,6.45-5.55,4,0,6.06,2.53,6.06,5.13a5.31,5.31,0,0,1-3.43,4.88v.09c2.6,1,4.2,2.86,4.2,5.39,0,3.63-3.11,6.07-7.09,6.07C333.69,147.22,331.06,144.62,331.06,141.57Zm11.23-.13c0-2.53-1.76-3.75-4.58-4.55-2.44.7-3.76,2.31-3.76,4.3a3.87,3.87,0,0,0,4.17,4C340.66,145.17,342.29,143.59,342.29,141.44ZM334.53,131c0,2.09,1.57,3.21,4,3.86,1.79-.62,3.17-1.9,3.17-3.79a3.23,3.23,0,0,0-3.52-3.4A3.32,3.32,0,0,0,334.53,131Z"/></svg>