<svg id="Слой_1" data-name="Слой 1" xmlns="http://www.w3.org/2000/svg" viewBox="0 0 400 400"><defs><style>.cls-1,.cls-2{fill:#fff;stroke:#000;stroke-width:3px;}.cls-1{stroke-miterlimit:10;}.cls-2{stroke-linecap:round;stroke-linejoin:round;}.cls-3{fill:#c1362d;}</style></defs><title>g30</title><path class="cls-1" d="M374.42,380.48H48V20.91S163.52,122.6,212.56,122.6,374.42,20.91,374.42,20.91Z"/><line class="cls-2" x1="268.05" y1="228.33" x2="268.05" y2="278.54"/><path class="cls-1" d="M143.29,195.72c9.77-3.88,14.66-5.82,20.51-5.34,18.58,1.52,21.95,20.33,43.75,25.61,4.68,1.14,11.95.58,26.5-.55,24.57-1.89,27.34-5.22,40.17-4.76,9.81.36,31,1.12,39.58,13.91,10.85,16.22-9.37,35.77,2.12,55,8,13.34,23.07,12.78,23,21.13-.05,8.54-15.87,18.6-30.08,17.32-11.93-1.08-14.75-9.42-25.77-11.25-7.75-1.28-19.47.66-36,16.46,9.4,24.84,9.29,32.6,6.6,34.23-6.3,3.83-23.11-28.26-55.69-33.21-16.81-2.56-31.46,3.08-37.2,5.68-25.71,11.63-33.21,34.83-39.6,32.24-6.57-2.66-4.92-29.66-1-48.1,2.9-13.64,7.88-26.54,1.25-34.39-2.83-3.37-5.74-3.38-8-7.7-4-7.69,2.15-13.46-.41-19.63-4.49-10.84-29.31-6.72-30.72-13.11-.77-3.52,6.3-6.73,20.29-16.13C126,207.36,127.75,201.88,143.29,195.72Z"/><path d="M166.33,159.64a1.36,1.36,0,0,1-.44,0c-.11,0-.17-.09-.17-.17a.25.25,0,0,1,.17-.23,1.73,1.73,0,0,1,.52-.15,1.47,1.47,0,0,0,.85-.49,2.25,2.25,0,0,0,.43-1.12c.17-1.25.31-2.43.44-3.56s.22-2.14.3-3,.11-1.65.11-2.23v-.35a3.25,3.25,0,0,0,0-.33,2,2,0,0,0-.06-.34.7.7,0,0,0-.25-.35,2.48,2.48,0,0,0-.72-.42,6.76,6.76,0,0,0-.83-.2.63.63,0,0,1-.33-.15.33.33,0,0,1-.13-.26c0-.11.07-.18.2-.2a3.49,3.49,0,0,1,.51,0l.63,0,.92.06.92.07.63,0a.36.36,0,0,1,.25.08.44.44,0,0,1,.15.25c.07.25.13.51.2.79s.16.54.25.8l3.27,8.31a.3.3,0,0,0,.23.18.22.22,0,0,0,.25-.12l4.08-8.49c.07-.24.14-.5.21-.79s.12-.54.16-.76.12-.27.21-.27H180a10.19,10.19,0,0,0,1.31-.09c.47-.05.81-.08,1-.08l.27,0a.17.17,0,0,1,.16.18.27.27,0,0,1-.11.23,2.84,2.84,0,0,1-.42.2l-.6.23c-.23.08-.43.17-.63.25a.84.84,0,0,0-.35.28.66.66,0,0,0-.14.42c0,1,0,1.88.05,2.73s.07,1.66.11,2.44.09,1.55.15,2.31.1,1.53.14,2.32a1.42,1.42,0,0,0,.42,1,2.28,2.28,0,0,0,1.14.48,1.74,1.74,0,0,1,.51.15.25.25,0,0,1,.17.23c0,.08-.06.14-.17.17a1.3,1.3,0,0,1-.43,0c-.37,0-.68,0-.92,0l-.7-.05-.8,0-.7,0-.6.05c-.21,0-.51,0-.88,0a1.4,1.4,0,0,1-.44,0c-.11,0-.16-.09-.16-.17a.26.26,0,0,1,.16-.24,1.43,1.43,0,0,1,.52-.14,1.09,1.09,0,0,0,.83-.42,2,2,0,0,0,.23-1.07c0-1,0-1.89,0-2.69s0-1.59-.1-2.37-.08-1.64-.12-2.56c0-.15-.05-.23-.12-.22s-.14.08-.21.22l-4.77,9.71a.19.19,0,0,1-.18.12.18.18,0,0,1-.19-.14c-.54-1.61-1.11-3.2-1.73-4.77s-1.31-3.26-2.08-5.07a.15.15,0,0,0-.14-.1.11.11,0,0,0-.13.1c-.12,1-.24,1.86-.34,2.66s-.18,1.61-.24,2.4-.08,1.65-.08,2.59a1.68,1.68,0,0,0,.35,1,1.56,1.56,0,0,0,1,.59,1.73,1.73,0,0,1,.52.15.25.25,0,0,1,.17.23c0,.08-.06.14-.17.17a1.3,1.3,0,0,1-.43,0q-.57,0-.84,0l-.5-.05-.61,0-.58,0-.48.05A8.09,8.09,0,0,1,166.33,159.64Z"/><path d="M204,159.4c0,.09,0,.14-.09.14-.29,0-.73,0-1.34,0s-1,0-1.31,0-.75,0-1.27,0-.85,0-1.1,0c-.06,0-.09,0-.09-.14s0-.13.09-.13a3.37,3.37,0,0,0,1.22-.16.56.56,0,0,0,.38-.54,2.88,2.88,0,0,0-.29-1l-2.6-5.54h-4.28l-1.94,4.62a3.51,3.51,0,0,0-.32,1.26c0,.89.74,1.34,2.22,1.34.07,0,.11,0,.11.13s0,.14-.11.14c-.27,0-.67,0-1.18,0s-1.07,0-1.49,0-.85,0-1.36,0-.83,0-1.13,0c-.08,0-.11,0-.11-.14s0-.13.11-.13a2.2,2.2,0,0,0,1.07-.24,2.39,2.39,0,0,0,.84-.84,10.51,10.51,0,0,0,.87-1.73l4.77-11.26a.18.18,0,0,1,.16-.07c.08,0,.12,0,.14.07l5.34,11.24a9,9,0,0,0,1.31,2.25,1.69,1.69,0,0,0,1.29.58C204,159.27,204,159.31,204,159.4Zm-10.47-7.82h3.84l-2-4.3Z"/><path d="M230.23,144.87v.42a3.16,3.16,0,0,0-1,.15.73.73,0,0,0-.45.5,3.89,3.89,0,0,0-.12,1.13v10.27a3.9,3.9,0,0,0,.12,1.12.69.69,0,0,0,.45.5,4.1,4.1,0,0,0,1,.17v.41c-.33,0-.76,0-1.29,0h-1.7l-1.92,0-1.93,0-1.17,0-1.25,0h-1.16l-1.81,0-1.86,0q-1,0-1.95,0l-1.92,0h-1.7c-.53,0-.95,0-1.29,0v-.41a4.1,4.1,0,0,0,1-.17.72.72,0,0,0,.46-.5,4.39,4.39,0,0,0,.11-1.12V147.07a4.37,4.37,0,0,0-.11-1.13.77.77,0,0,0-.46-.5,3.16,3.16,0,0,0-1-.15v-.42l1.33,0q.81,0,1.74,0c.51,0,1,0,1.51,0l1.25,0v.42a2.27,2.27,0,0,0-.87.15.78.78,0,0,0-.41.5,4.37,4.37,0,0,0-.11,1.13v10.27a2.25,2.25,0,0,0,.31,1.46,2,2,0,0,0,1.37.33h1.26a2,2,0,0,0,1.37-.33,2.31,2.31,0,0,0,.31-1.46V147.07a4.47,4.47,0,0,0-.1-1.13.7.7,0,0,0-.39-.5,2.45,2.45,0,0,0-.9-.15v-.42l1.25,0,1.5,0c.58,0,1.13,0,1.64,0s.92,0,1.22,0v.42a2.51,2.51,0,0,0-.89.15.71.71,0,0,0-.4.5,5.13,5.13,0,0,0-.09,1.13v10.27a1.37,1.37,0,0,0,1.67,1.79h1.27a1.93,1.93,0,0,0,1.36-.33,2.25,2.25,0,0,0,.31-1.46V147.07a4.47,4.47,0,0,0-.1-1.13.75.75,0,0,0-.39-.5,2.39,2.39,0,0,0-.89-.15v-.42l1.25,0q.75,0,1.5,0c.62,0,1.21,0,1.75,0Z"/><path d="M247.72,158.87a1.17,1.17,0,0,1,.09.39.26.26,0,0,1-.08.22.45.45,0,0,1-.29.1,4,4,0,0,1-.55,0l-.55,0a1.06,1.06,0,0,1-.31-.06.28.28,0,0,1-.15-.1.85.85,0,0,1-.1-.17l-1.22-3.48h-5.94l-1.17,3.44a.68.68,0,0,1-.09.17.4.4,0,0,1-.16.12.73.73,0,0,1-.3.07,3.43,3.43,0,0,1-.5,0,3.79,3.79,0,0,1-.53,0,.53.53,0,0,1-.28-.11.23.23,0,0,1-.08-.22,1.28,1.28,0,0,1,.09-.4l4.8-13.27a.43.43,0,0,1,.11-.2.53.53,0,0,1,.21-.12,1.48,1.48,0,0,1,.35-.06l.55,0,.59,0a1.58,1.58,0,0,1,.37.06.43.43,0,0,1,.22.13.56.56,0,0,1,.12.2Zm-6.15-11.72h0l-2.46,7.12h5Z"/><polygon class="cls-3" points="186.01 245.84 197.17 265.17 186.01 284.49 163.7 284.49 152.54 265.17 163.7 245.84 186.01 245.84"/><path d="M144.32,181.59h-.5l-.86,0-1,0c-.34,0-.66,0-.95,0s-.64,0-1.09,0l-1.36,0-1.2,0h-.66a.56.56,0,0,1-.24-.13c-.11-.08-.17-.15-.17-.22a.25.25,0,0,1,.06-.19l.15-.14,3.35-3.57a9.43,9.43,0,0,0,1.69-2.4,6,6,0,0,0,.63-2.69,2.26,2.26,0,0,0-.58-1.63,1.91,1.91,0,0,0-1.45-.61,2.76,2.76,0,0,0-1.5.44,3.86,3.86,0,0,0-1.13,1.11.91.91,0,0,1-.21.23.39.39,0,0,1-.27.1c-.07,0-.13-.05-.19-.16a.87.87,0,0,1-.1-.42,1.58,1.58,0,0,1,.31-.73,4.66,4.66,0,0,1,.87-.94,5.31,5.31,0,0,1,1.33-.81,4.13,4.13,0,0,1,1.66-.33,3.48,3.48,0,0,1,1.78.44,3,3,0,0,1,1.14,1.22,3.92,3.92,0,0,1,.39,1.78,3.8,3.8,0,0,1-.22,1.22,6.34,6.34,0,0,1-.57,1.28,6.73,6.73,0,0,1-.78,1.14c-.18.22-.44.51-.78.85l-1.08,1.09-1.08,1.08c-.35.33-.63.61-.84.83a1.68,1.68,0,0,0-.32.38c0,.05.09.09.29.12s.52.05.84.06.64,0,1,0,.74,0,1.11,0,.72,0,1.06-.06a6.84,6.84,0,0,0,.9-.12,1.32,1.32,0,0,0,.57-.31,2.8,2.8,0,0,0,.46-.65l.23-.29a.41.41,0,0,1,.31-.16.17.17,0,0,1,.17.1.5.5,0,0,1,0,.21,5.87,5.87,0,0,1-.21.66c-.1.28-.19.57-.29.88s-.17.61-.23.88a.51.51,0,0,1-.2.39A.54.54,0,0,1,144.32,181.59Z"/><path d="M160.53,174.35a16.2,16.2,0,0,1-.26,3,6.83,6.83,0,0,1-.87,2.34,4.13,4.13,0,0,1-1.57,1.51,4.89,4.89,0,0,1-2.4.54,4.84,4.84,0,0,1-2.26-.48,3.69,3.69,0,0,1-1.49-1.42,6.5,6.5,0,0,1-.8-2.29,18.28,18.28,0,0,1-.24-3.13,15.49,15.49,0,0,1,.27-3,6.82,6.82,0,0,1,.86-2.34,4.16,4.16,0,0,1,1.57-1.52,4.93,4.93,0,0,1,2.38-.53,4.87,4.87,0,0,1,2.28.48,3.74,3.74,0,0,1,1.49,1.41,6.76,6.76,0,0,1,.8,2.3A18.2,18.2,0,0,1,160.53,174.35Zm-1.95.13a18.67,18.67,0,0,0-.08-1.92,11,11,0,0,0-.22-1.5,4.71,4.71,0,0,0-.39-1.12,2.76,2.76,0,0,0-.57-.78,2,2,0,0,0-.75-.44,3.22,3.22,0,0,0-1-.14,2.43,2.43,0,0,0-1.52.45,2.92,2.92,0,0,0-.92,1.21,6.23,6.23,0,0,0-.46,1.81,19.41,19.41,0,0,0-.13,2.23,19.12,19.12,0,0,0,.17,2.73,6,6,0,0,0,.53,1.82,2.32,2.32,0,0,0,.91,1,2.7,2.7,0,0,0,1.35.32,2.79,2.79,0,0,0,1.09-.2,2.21,2.21,0,0,0,.81-.57,3.15,3.15,0,0,0,.56-.89,6.65,6.65,0,0,0,.35-1.14,9.28,9.28,0,0,0,.18-1.37C158.57,175.52,158.58,175,158.58,174.48Z"/><path d="M176.51,174.35a15.38,15.38,0,0,1-.26,3,6.82,6.82,0,0,1-.86,2.34,4.13,4.13,0,0,1-1.57,1.51,5.61,5.61,0,0,1-4.67.06,3.67,3.67,0,0,1-1.48-1.42,6.31,6.31,0,0,1-.8-2.29,18.28,18.28,0,0,1-.24-3.13,16.35,16.35,0,0,1,.26-3,7,7,0,0,1,.87-2.34,4.13,4.13,0,0,1,1.56-1.52,5,5,0,0,1,2.39-.53,4.93,4.93,0,0,1,2.28.48,3.8,3.8,0,0,1,1.49,1.41,6.76,6.76,0,0,1,.8,2.3A19.34,19.34,0,0,1,176.51,174.35Zm-1.94.13c0-.71,0-1.35-.08-1.92a12.75,12.75,0,0,0-.22-1.5,4.71,4.71,0,0,0-.39-1.12,2.76,2.76,0,0,0-.57-.78,2,2,0,0,0-.76-.44,3.11,3.11,0,0,0-1-.14,2.44,2.44,0,0,0-1.53.45,3,3,0,0,0-.92,1.21,6.56,6.56,0,0,0-.46,1.81,19.49,19.49,0,0,0-.12,2.23,19.12,19.12,0,0,0,.17,2.73,6,6,0,0,0,.52,1.82,2.4,2.4,0,0,0,.92,1,2.7,2.7,0,0,0,1.35.32,2.83,2.83,0,0,0,1.09-.2,2.3,2.3,0,0,0,.81-.57,2.92,2.92,0,0,0,.55-.89,5.87,5.87,0,0,0,.36-1.14,9.28,9.28,0,0,0,.18-1.37C174.55,175.52,174.57,175,174.57,174.48Z"/><path d="M191.91,176.94c0-2.35-2.11-3.12-4.73-3.12h-.34v-1.88h.27c2.87,0,4.37-.79,4.37-2.71,0-1.75-1.45-2.67-3.19-2.67a3.29,3.29,0,0,0-3.57,3.19h-2.13c.25-2.9,2.31-4.91,5.74-4.91,2.83,0,5.32,1.15,5.32,4.16a4,4,0,0,1-2.67,3.8,4,4,0,0,1,3.12,4.11c0,3.31-2.78,4.91-5.92,4.91-3.89,0-5.59-2.4-5.84-5.13h2.13a3.49,3.49,0,0,0,3.73,3.41C190.37,180.1,191.91,179,191.91,176.94Z"/><path d="M200.35,178c-.09,0-.13,0-.13-.13a3.08,3.08,0,0,1,.09-.72c.07-.25.15-.38.24-.4l2-.28c.66-.09,1.33-.17,2-.23a.2.2,0,0,1,.11,0,.1.1,0,0,1,.06.09,2.43,2.43,0,0,1-.1.73c-.06.23-.17.36-.34.39l-1.89.28C201.72,177.86,201.05,177.94,200.35,178Z"/><path d="M218.35,181.59h-.5l-.86,0-1,0c-.35,0-.67,0-1,0s-.64,0-1.09,0l-1.36,0-1.2,0h-.66a.49.49,0,0,1-.23-.13c-.12-.08-.18-.15-.18-.22a.25.25,0,0,1,.06-.19l.15-.14,3.35-3.57a9.43,9.43,0,0,0,1.69-2.4,6,6,0,0,0,.63-2.69,2.26,2.26,0,0,0-.58-1.63,1.9,1.9,0,0,0-1.45-.61,2.76,2.76,0,0,0-1.5.44,3.86,3.86,0,0,0-1.13,1.11.76.76,0,0,1-.21.23.39.39,0,0,1-.26.1c-.07,0-.14-.05-.2-.16a.87.87,0,0,1-.09-.42,1.48,1.48,0,0,1,.31-.73,4.14,4.14,0,0,1,.87-.94,5.07,5.07,0,0,1,1.32-.81,4.13,4.13,0,0,1,1.66-.33,3.48,3.48,0,0,1,1.78.44,3,3,0,0,1,1.14,1.22,3.92,3.92,0,0,1,.39,1.78,4.06,4.06,0,0,1-.21,1.22,7.69,7.69,0,0,1-.57,1.28,7.41,7.41,0,0,1-.79,1.14c-.18.22-.44.51-.78.85l-1.08,1.09-1.08,1.08c-.35.33-.63.61-.84.83a1.68,1.68,0,0,0-.32.38c0,.05.09.09.29.12s.53.05.84.06.64,0,1,0,.74,0,1.11,0,.72,0,1.07-.06a6.65,6.65,0,0,0,.89-.12,1.32,1.32,0,0,0,.57-.31,2.53,2.53,0,0,0,.46-.65l.23-.29a.41.41,0,0,1,.31-.16.17.17,0,0,1,.17.1.5.5,0,0,1,0,.21,5.87,5.87,0,0,1-.21.66c-.1.28-.19.57-.29.88s-.17.61-.23.88a.54.54,0,0,1-.19.39A.57.57,0,0,1,218.35,181.59Z"/><path d="M234.56,174.35a16.2,16.2,0,0,1-.26,3,7,7,0,0,1-.86,2.34,4.23,4.23,0,0,1-1.58,1.51,5.58,5.58,0,0,1-4.66.06,3.69,3.69,0,0,1-1.49-1.42,6.7,6.7,0,0,1-.8-2.29,18.28,18.28,0,0,1-.24-3.13,15.49,15.49,0,0,1,.27-3,6.82,6.82,0,0,1,.86-2.34,4.16,4.16,0,0,1,1.57-1.52,5,5,0,0,1,2.38-.53,4.87,4.87,0,0,1,2.28.48,3.74,3.74,0,0,1,1.49,1.41,6.76,6.76,0,0,1,.8,2.3A18.2,18.2,0,0,1,234.56,174.35Zm-1.95.13c0-.71,0-1.35-.07-1.92a12.59,12.59,0,0,0-.23-1.5,4.71,4.71,0,0,0-.39-1.12,2.58,2.58,0,0,0-.57-.78,2,2,0,0,0-.75-.44,3.18,3.18,0,0,0-1-.14,2.43,2.43,0,0,0-1.52.45,2.92,2.92,0,0,0-.92,1.21,6.23,6.23,0,0,0-.46,1.81,19.49,19.49,0,0,0-.12,2.23,19.28,19.28,0,0,0,.16,2.73,6,6,0,0,0,.53,1.82,2.38,2.38,0,0,0,.91,1,2.74,2.74,0,0,0,1.36.32,2.77,2.77,0,0,0,1.08-.2,2.13,2.13,0,0,0,.81-.57,3.15,3.15,0,0,0,.56-.89,5.87,5.87,0,0,0,.35-1.14,9.28,9.28,0,0,0,.18-1.37C232.6,175.52,232.61,175,232.61,174.48Z"/><path d="M241.25,182.17a.44.44,0,0,1-.23,0A.16.16,0,0,1,241,182a.15.15,0,0,1,.1-.15.32.32,0,0,1,.19,0,3.31,3.31,0,0,0,1.44-.41,8.59,8.59,0,0,0,1.66-1.09,10,10,0,0,0,1.5-1.55,10.1,10.1,0,0,0,1.07-1.7,7.53,7.53,0,0,0,.59-1.71,9.27,9.27,0,0,0,.18-1.87,4.78,4.78,0,0,0-.23-1.49,5.76,5.76,0,0,0-.65-1.37,3.54,3.54,0,0,0-.93-1,1.85,1.85,0,0,0-1.09-.38,1.67,1.67,0,0,0-1.11.37,2.15,2.15,0,0,0-.69.89,2.53,2.53,0,0,0,.08,2.27,2.83,2.83,0,0,0,.79,1,1.65,1.65,0,0,0,1,.38,2.09,2.09,0,0,0,.95-.17c.21-.12.44-.24.71-.37.05,0,.1,0,.13.07a.16.16,0,0,1,0,.16,1.43,1.43,0,0,1-.31.41l-.37.32a4.36,4.36,0,0,1-.46.27,5.35,5.35,0,0,1-.68.29,2.53,2.53,0,0,1-.77.12,3.1,3.1,0,0,1-2.47-1.27,2.21,2.21,0,0,1-.43-1.34,3.55,3.55,0,0,1,.31-1.43,4.78,4.78,0,0,1,.88-1.34,4.51,4.51,0,0,1,1.36-1,3.94,3.94,0,0,1,1.72-.37,2.92,2.92,0,0,1,1.46.4,4.66,4.66,0,0,1,1.28,1.08,5.41,5.41,0,0,1,.9,1.52,4.61,4.61,0,0,1,.34,1.74,7.46,7.46,0,0,1-.36,2.37,8.39,8.39,0,0,1-1,2.09,16.33,16.33,0,0,1-1.62,2,6.32,6.32,0,0,1-1.24,1.07,9.13,9.13,0,0,1-1.39.77,6.52,6.52,0,0,1-1.38.45A5.54,5.54,0,0,1,241.25,182.17Z"/><path d="M255.34,182.17a.41.41,0,0,1-.23,0,.16.16,0,0,1,0-.27.35.35,0,0,1,.2,0,3.38,3.38,0,0,0,1.44-.41,8.9,8.9,0,0,0,1.66-1.09,10.46,10.46,0,0,0,1.5-1.55,10,10,0,0,0,1.06-1.7,7.07,7.07,0,0,0,.59-1.71,8.59,8.59,0,0,0,.19-1.87,4.79,4.79,0,0,0-.24-1.49,5.73,5.73,0,0,0-.64-1.37,3.69,3.69,0,0,0-.93-1,1.87,1.87,0,0,0-1.09-.38,1.72,1.72,0,0,0-1.12.37,2.21,2.21,0,0,0-.68.89,2.65,2.65,0,0,0-.23,1,2.75,2.75,0,0,0,.3,1.23,2.85,2.85,0,0,0,.8,1,1.65,1.65,0,0,0,1,.38,2.14,2.14,0,0,0,1-.17c.2-.12.44-.24.7-.37.06,0,.1,0,.14.07a.18.18,0,0,1,0,.16,1.64,1.64,0,0,1-.31.41c-.14.13-.27.23-.38.32a4,4,0,0,1-.45.27,5.5,5.5,0,0,1-.69.29,2.42,2.42,0,0,1-.76.12,3,3,0,0,1-1.38-.34,3,3,0,0,1-1.1-.93,2.27,2.27,0,0,1-.42-1.34,3.55,3.55,0,0,1,.31-1.43,4.57,4.57,0,0,1,.88-1.34,4.51,4.51,0,0,1,1.36-1,3.89,3.89,0,0,1,1.71-.37,2.9,2.9,0,0,1,1.46.4,4.7,4.7,0,0,1,1.29,1.08,5.41,5.41,0,0,1,.9,1.52,4.8,4.8,0,0,1,.33,1.74,7.75,7.75,0,0,1-.35,2.37,8.42,8.42,0,0,1-1,2.09,17.18,17.18,0,0,1-1.61,2,6.62,6.62,0,0,1-1.24,1.07,9.13,9.13,0,0,1-1.39.77,6.52,6.52,0,0,1-1.38.45A5.62,5.62,0,0,1,255.34,182.17Z"/></svg>