<svg id="Слой_1" data-name="Слой 1" xmlns="http://www.w3.org/2000/svg" viewBox="0 0 400 400"><defs><style>.cls-1,.cls-2{fill:#fff;stroke:#000;stroke-width:3px;}.cls-1{stroke-miterlimit:10;}.cls-2{stroke-linecap:round;stroke-linejoin:round;}.cls-3{fill:#608b70;}.cls-4{fill:#c1362d;}.cls-5{font-size:25.61px;font-family:Consolas, Consolas;letter-spacing:0.2em;}</style></defs><title>g4</title><path class="cls-1" d="M346.5,42.14c75,15.51-10.64,343.31-10.64,343.31H39.61C9.61,147.23,12.16,71,32.83,59,55.4,46,93,108.81,125.77,84.35,145.65,69.53,144.55,37,160.62,33.7c25-5.12,42,70.55,65.84,64.72,16.48-4,17.07-42.51,36.79-50.65,16.27-6.72,34.18,11.93,46.47,28.14C309.72,75.91,323.3,37.35,346.5,42.14Z"/><path class="cls-1" d="M272.47,189.08c-2.83-11.8-24.32-21-42.36-18.58-17.83,2.36-16.89,14-38,21.14-25,8.49-40-3.18-52.93,9-.87.82-10.71,10.33-7.48,20.12,1.65,5,9.22,5,10.27,10.2.74,3.65-2.37,4.7-2.44,9-.1,6.61,7.11,8.47,9.78,15.55s0,16.95-6,21c-9.54,6.57-28.59-1.2-37.3-12.71-7.12-9.42-3.18-15.88-11.38-24.18-8.5-8.61-22.12-11.18-24.07-8.4-1.51,2.14,4.81,6.17,9.71,16.32,4.67,9.67,2.59,13.6,5.39,28.25,3.28,17.11,5,26,12.27,32,10.24,8.4,20.26,1.9,28.62,11.13,6.35,7,3.26,13.72,10.29,18.69,5.23,3.69,11.48,3.21,19,2.53,11.49-1,26.32-1.3,33.07-10.8,4.76-6.71,2.62-13.72,5.32-14.16,3.25-.53,10.44,9.05,8.77,17.78-1.95,10.2-15,13.69-13.7,18,.89,3,8,3.59,19.66,4.13,24.84,1.15,37.26,1.73,43.27.16,4.26-1.1,21.4-5.56,33.06-19.28C309,308,299.77,253.78,277.17,233.45c-3.38-3-9.65-7.65-11.37-15.7C263.11,205.11,274.82,198.85,272.47,189.08Z"/><path class="cls-2" d="M174.15,291.56A17.12,17.12,0,0,1,181.9,274c7.16-4.41,14.2-.38,18.31,4.22,4.35,4.87.57,9.94,4.93,16.21,4.14,5.94,9.24,5.66,14.09,2.81,7.24-4.25-1.85-18.47,7.17-27.05,5.59-5.32,13.42-3.74,18.42,1,3.91,3.69,5,9.19,9.48,11.25s11.42,1.76,15-2.31c4.29-4.89,3.91-14,.94-20.66"/><line class="cls-2" x1="249.09" y1="319.68" x2="235.73" y2="307.34"/><line class="cls-2" x1="247.55" y1="330.82" x2="235.56" y2="340.41"/><line class="cls-2" x1="247.55" y1="324.99" x2="235.56" y2="324.99"/><path class="cls-2" d="M255.16,216.48a24.27,24.27,0,0,1-24.27,24.27,21.84,21.84,0,0,1-21.84-21.84,19.66,19.66,0,0,1,19.66-19.66,17.69,17.69,0,0,1,17.69,17.69,15.93,15.93,0,0,1-15.92,15.93,14.33,14.33,0,0,1-14.33-14.33A12.89,12.89,0,0,1,229,205.64a11.61,11.61,0,0,1,11.61,11.61,10.44,10.44,0,0,1-10.45,10.44,9.4,9.4,0,0,1-9.4-9.4"/><path class="cls-3" d="M180.64,264.11a5.57,5.57,0,1,1-1.51,7.74,5.57,5.57,0,0,1,1.51-7.74"/><polygon class="cls-4" points="231.64 213.97 233.88 217.85 231.64 221.72 227.16 221.72 224.93 217.85 227.16 213.97 231.64 213.97"/><text class="cls-5" transform="translate(210.32 132.73)">О</text><path d="M149,158.46V145.75H145.3v-2.2c2.44-.07,3.64-.24,4.44-2.09h2.46v17Z"/><path d="M160.22,159.19a.43.43,0,0,1-.26-.06.19.19,0,0,1-.07-.13.18.18,0,0,1,.11-.17.43.43,0,0,1,.22-.06,3.86,3.86,0,0,0,1.63-.46,10.3,10.3,0,0,0,1.88-1.24,11.71,11.71,0,0,0,1.7-1.75,12.32,12.32,0,0,0,1.21-1.92,8.55,8.55,0,0,0,.66-1.94,10.23,10.23,0,0,0,.21-2.12,5.53,5.53,0,0,0-.27-1.69,6.66,6.66,0,0,0-.72-1.55,4.08,4.08,0,0,0-1.06-1.12,2.07,2.07,0,0,0-1.23-.43A2,2,0,0,0,163,145a2.62,2.62,0,0,0-.77,1,3,3,0,0,0-.26,1.19,3.12,3.12,0,0,0,.34,1.38,3.23,3.23,0,0,0,.91,1.12,1.92,1.92,0,0,0,1.17.43,2.33,2.33,0,0,0,1.08-.2c.23-.13.5-.27.79-.41.07,0,.12,0,.16.07a.19.19,0,0,1,0,.19,1.77,1.77,0,0,1-.35.45c-.16.15-.3.27-.43.37a3.61,3.61,0,0,1-.51.3,4.25,4.25,0,0,1-.78.33,2.54,2.54,0,0,1-.86.14,3.52,3.52,0,0,1-2.81-1.44,2.54,2.54,0,0,1-.48-1.51,4,4,0,0,1,.36-1.62,5.06,5.06,0,0,1,1-1.51,4.81,4.81,0,0,1,1.54-1.12,4.48,4.48,0,0,1,1.94-.42,3.28,3.28,0,0,1,1.66.46,5.21,5.21,0,0,1,1.45,1.22,5.93,5.93,0,0,1,1,1.72,5.39,5.39,0,0,1,.38,2,8.57,8.57,0,0,1-.4,2.69,9.66,9.66,0,0,1-1.15,2.35,18.76,18.76,0,0,1-1.83,2.3,7.11,7.11,0,0,1-1.41,1.22,10.16,10.16,0,0,1-1.57.87,7.67,7.67,0,0,1-1.56.51A6.55,6.55,0,0,1,160.22,159.19Z"/><path d="M175.54,154.24c0-2.1,1.26-3.59,3.31-4.46l0-.07a4.15,4.15,0,0,1-2.64-3.74c0-2.64,2.23-4.43,5.15-4.43,3.23,0,4.84,2,4.84,4.09a4.24,4.24,0,0,1-2.74,3.9v.07c2.07.82,3.35,2.28,3.35,4.3,0,2.9-2.48,4.84-5.65,4.84C177.64,158.74,175.54,156.67,175.54,154.24Zm9-.11c0-2-1.41-3-3.67-3.63-1.94.56-3,1.84-3,3.43a3.07,3.07,0,0,0,3.33,3.17A3,3,0,0,0,184.51,154.13Zm-6.2-8.32c0,1.67,1.25,2.56,3.17,3.08a3.28,3.28,0,0,0,2.54-3,2.58,2.58,0,0,0-2.82-2.71A2.64,2.64,0,0,0,178.31,145.81Z"/><path d="M193.8,154.24c0-2.1,1.26-3.59,3.31-4.46l0-.07a4.15,4.15,0,0,1-2.64-3.74c0-2.64,2.23-4.43,5.15-4.43,3.23,0,4.84,2,4.84,4.09a4.24,4.24,0,0,1-2.74,3.9v.07c2.07.82,3.35,2.28,3.35,4.3,0,2.9-2.48,4.84-5.65,4.84C195.9,158.74,193.8,156.67,193.8,154.24Zm9-.11c0-2-1.4-3-3.66-3.63-1.94.56-3,1.84-3,3.43a3.07,3.07,0,0,0,3.33,3.17A3,3,0,0,0,202.76,154.13Zm-6.19-8.32c0,1.67,1.25,2.56,3.17,3.08a3.28,3.28,0,0,0,2.54-3,2.59,2.59,0,0,0-2.82-2.71A2.64,2.64,0,0,0,196.57,145.81Z"/><path d="M211.94,154.47c-.1,0-.15,0-.15-.14a3.43,3.43,0,0,1,.11-.82c.07-.28.16-.43.27-.44l2.25-.32,2.25-.27a.2.2,0,0,1,.13,0,.11.11,0,0,1,.06.1,3.1,3.1,0,0,1-.1.83c-.07.26-.2.41-.39.44l-2.15.32C213.5,154.31,212.73,154.4,211.94,154.47Z"/><path d="M232.32,158.53h-.57l-1,0-1.14-.05c-.39,0-.75,0-1.08,0s-.72,0-1.23,0-1,0-1.55,0l-1.36,0h-.73a.67.67,0,0,1-.27-.14c-.14-.1-.2-.18-.2-.26a.28.28,0,0,1,.07-.21l.16-.17,3.8-4a10.74,10.74,0,0,0,1.91-2.72,6.8,6.8,0,0,0,.72-3,2.56,2.56,0,0,0-.66-1.84,2.17,2.17,0,0,0-1.64-.69,3.12,3.12,0,0,0-1.7.5,4.28,4.28,0,0,0-1.28,1.26,1.38,1.38,0,0,1-.23.26.53.53,0,0,1-.31.11c-.08,0-.15-.06-.22-.19a.92.92,0,0,1-.11-.46,1.72,1.72,0,0,1,.35-.84,5.62,5.62,0,0,1,1-1.06,5.84,5.84,0,0,1,1.5-.92,4.67,4.67,0,0,1,1.88-.37,3.8,3.8,0,0,1,2,.5,3.3,3.3,0,0,1,1.29,1.38,4.37,4.37,0,0,1,.45,2A4.3,4.3,0,0,1,232,149a8.19,8.19,0,0,1-.64,1.46,8.65,8.65,0,0,1-.89,1.29c-.21.25-.5.57-.88,1l-1.22,1.23-1.23,1.22c-.39.38-.71.7-1,.95a2,2,0,0,0-.37.42c0,.06.11.11.33.14s.6.06,1,.07.73,0,1.14,0,.84,0,1.25,0,.82,0,1.21-.07a6.45,6.45,0,0,0,1-.14,1.42,1.42,0,0,0,.65-.35,3.06,3.06,0,0,0,.52-.73l.26-.33a.48.48,0,0,1,.35-.18.18.18,0,0,1,.19.11.4.4,0,0,1,0,.24,6.36,6.36,0,0,1-.23.75c-.11.31-.22.64-.33,1s-.19.68-.26,1a.56.56,0,0,1-.22.44A.62.62,0,0,1,232.32,158.53Z"/><path d="M250.67,150.33a18.78,18.78,0,0,1-.29,3.41,7.8,7.8,0,0,1-1,2.64,4.71,4.71,0,0,1-1.78,1.71,6.35,6.35,0,0,1-5.28.07,4.28,4.28,0,0,1-1.69-1.61,7.57,7.57,0,0,1-.9-2.6,20.73,20.73,0,0,1-.27-3.54,17.92,17.92,0,0,1,.3-3.4,8,8,0,0,1,1-2.65,4.86,4.86,0,0,1,1.78-1.71,5.56,5.56,0,0,1,2.7-.61,5.41,5.41,0,0,1,2.58.55,4.19,4.19,0,0,1,1.69,1.6,7.57,7.57,0,0,1,.9,2.6A20.73,20.73,0,0,1,250.67,150.33Zm-2.2.15c0-.8,0-1.53-.09-2.17a13.77,13.77,0,0,0-.25-1.7,5.87,5.87,0,0,0-.44-1.27,3,3,0,0,0-.65-.88,2.36,2.36,0,0,0-.85-.5,3.61,3.61,0,0,0-1.08-.15,2.75,2.75,0,0,0-1.73.5,3.31,3.31,0,0,0-1,1.37,7.07,7.07,0,0,0-.52,2,22.3,22.3,0,0,0-.14,2.53,20.68,20.68,0,0,0,.19,3.08,6.64,6.64,0,0,0,.59,2.07,2.7,2.7,0,0,0,1,1.16,2.94,2.94,0,0,0,1.53.37,3.1,3.1,0,0,0,1.23-.23,2.59,2.59,0,0,0,.92-.64,3.77,3.77,0,0,0,.63-1,7.36,7.36,0,0,0,.4-1.3,10.09,10.09,0,0,0,.2-1.54Q248.47,151.38,248.47,150.48Z"/><path d="M257.63,154.24c0-2.1,1.25-3.59,3.3-4.46l0-.07a4.14,4.14,0,0,1-2.63-3.74c0-2.64,2.23-4.43,5.14-4.43,3.23,0,4.84,2,4.84,4.09a4.24,4.24,0,0,1-2.74,3.9v.07c2.08.82,3.36,2.28,3.36,4.3,0,2.9-2.49,4.84-5.66,4.84C259.73,158.74,257.63,156.67,257.63,154.24Zm9-.11c0-2-1.41-3-3.66-3.63-1.95.56-3,1.84-3,3.43a3.08,3.08,0,0,0,3.33,3.17A3,3,0,0,0,266.59,154.13Zm-6.2-8.32c0,1.67,1.26,2.56,3.18,3.08a3.28,3.28,0,0,0,2.53-3,2.58,2.58,0,0,0-2.81-2.71A2.65,2.65,0,0,0,260.39,145.81Z"/><path d="M286.59,139.13h.87c0,.25,0,.59,0,1s-.06.82-.11,1.25-.11.83-.18,1.22a5.36,5.36,0,0,1-.2.88h-7l-.46,3.66h2.13a8.22,8.22,0,0,1,2.51.37,5.45,5.45,0,0,1,1.92,1.08,4.76,4.76,0,0,1,1.23,1.72,5.77,5.77,0,0,1,.43,2.31,5.84,5.84,0,0,1-.55,2.6,5.68,5.68,0,0,1-1.5,1.92,6.8,6.8,0,0,1-2.22,1.21,8.88,8.88,0,0,1-2.77.42,7.76,7.76,0,0,1-4.69-1.54L277,154.7h.74a5.2,5.2,0,0,1,.41.46l.49.59c.17.2.33.41.48.61l.41.54a2.62,2.62,0,0,0,.48.15,2.22,2.22,0,0,0,.57,0,4,4,0,0,0,1.44-.26,3.31,3.31,0,0,0,1.14-.76,3.57,3.57,0,0,0,.75-1.16,3.89,3.89,0,0,0,.28-1.5,3.44,3.44,0,0,0-.34-1.58,3.07,3.07,0,0,0-.94-1.11,4,4,0,0,0-1.38-.65,6,6,0,0,0-1.66-.22l-2.23,0,1-9.34h6.69Z"/></svg>