<svg id="Слой_1" data-name="Слой 1" xmlns="http://www.w3.org/2000/svg" viewBox="0 0 400 400"><defs><style>.cls-1,.cls-2{fill:#fff;stroke:#000;stroke-width:3px;}.cls-1{stroke-miterlimit:10;}.cls-2{stroke-linecap:round;stroke-linejoin:round;}.cls-3{fill:#b8ad99;}</style></defs><title>g41</title><path class="cls-1" d="M350.59,380.8H49.26S-4,133.17,49.26,80s254-58.49,301.33,0S350.59,380.8,350.59,380.8Z"/><path class="cls-1" d="M304.24,282.49c9.6-6.21,11.16-26.18,4.43-31-3.26-2.34-6.08.56-10.53-1.66-7.38-3.69-11.4-17.58-6.64-25.49,4.27-7.1,12.06-3.46,22.71-11.63.69-.53,15.52-12.17,13.29-23.27-1.92-9.62-14.6-8.58-21.6-23.27-2.93-6.14-2.82-10.76-6.09-11.63-3.94-1-10.15,4-11.64,10-2.06,8.18,6.44,11.6,6.65,20.5.27,11.86-14.47,21.2-28.25,29.92-12.25,7.75-18.9,12-27.7,11.08-11.74-1.18-13.44-10-27.15-17.18-15.87-8.31-32.08-6.16-49.31-3.88-18.15,2.41-32.35,4.29-44.87,15.52-18.91,17-20.39,43-20.5,45.42-.81,18.95,7.63,27.5,1.11,37.68-7,10.94-23.26,11.17-22.71,14.95.39,2.71,8.9,3.94,15,3.33,2.19-.22,11.88-1.47,17.18-8.87,1.3-1.81.88-2,3.88-8.86,3.41-7.86,4.29-8.42,6.09-12.74,5.15-12.35,2.39-18.28,6.65-20.5,3.72-1.95,9,.94,11.63,3.32,6.4,5.82,6.15,17,1.66,21.06-3.07,2.75-7.24,1.3-8.86,4.43-1.51,2.92.81,6.72,1.11,7.2,2.53,4,8,6,12.74,5.54,8.09-.84,9.94-8.52,16.07-8.31,4.25.14,6.74,3.95,10.52,8.31,4.95,5.7,17.45,20.11,29.92,21.6s17.32-10.87,29.91-8.86c8.78,1.4,11.27,12.94,16.62,11.63,3.61-.87,3.17-5.69,8.31-8.31,3.74-1.9,7.54-1.17,13.3,0,11.84,2.43,12.58,6.2,18.28,5.54,7.16-.82,12.73-7.56,15-13.29,1-2.48,3.24-8.32.55-12.74-3.33-5.49-11-3.28-13.29-8.31-1.71-3.72.68-8.84,3.32-11.64C295.15,283.58,299.41,285.61,304.24,282.49Z"/><line class="cls-2" x1="255.61" y1="240.44" x2="184.72" y2="250.27"/><line class="cls-2" x1="174.91" y1="282.19" x2="184.19" y2="272.14"/><polyline class="cls-2" points="143.81 247.6 154.15 247.6 154.15 240.88 165.23 240.88 165.23 233.6 174.09 233.6 174.09 226.88 183.7 226.88"/><rect class="cls-2" x="260.12" y="255.38" width="25.75" height="25.75" transform="translate(-109.72 271.6) rotate(-45)"/><path class="cls-1" d="M152,296.64c-1.53-16.42,15.42-31.4,37.89-33.49"/><path class="cls-2" d="M190,300.31c11,7.12,15.64,6.58,17.9,5.08,6.39-4.22-1.22-19.41,6.87-26.86,4.6-4.25,13-4.21,17.31-.6,7.4,6.24-1.84,21.88,5.07,27.76,2.59,2.2,7.71,3.08,18.51-1.5"/><line class="cls-2" x1="222.78" y1="275.24" x2="222.78" y2="307.48"/><path d="M116.16,101v1.83c4.33.18,8.66,2.81,8.66,9.27s-4.33,8.93-8.69,9.17v1.93h-2.56v-1.93c-4.3-.27-8.66-2.56-8.66-9,0-6.74,4.76-9.15,8.72-9.39V101Zm-2.56,3.75c-2.68.15-5.95,2-5.95,7.35,0,4.91,2.93,7,5.95,7.29Zm2.53,14.64c3-.25,6-2.23,6-7.32,0-5.28-3-7.17-6-7.32Z"/><path d="M140.73,102.61v.56a4.64,4.64,0,0,0-1.4.21,1,1,0,0,0-.64.67,5.1,5.1,0,0,0-.17,1.52v13.85a5.12,5.12,0,0,0,.17,1.51,1,1,0,0,0,.64.67,5.31,5.31,0,0,0,1.4.22v.56c-.45,0-1-.06-1.69-.07h-4.27c-.68,0-1.24,0-1.66.07v-.56a5.47,5.47,0,0,0,1.41-.22,1,1,0,0,0,.64-.67,5.64,5.64,0,0,0,.15-1.51V105.57a5.62,5.62,0,0,0-.15-1.52,1,1,0,0,0-.64-.67,4.77,4.77,0,0,0-1.41-.21v-.56l1.66.06q1,0,2.19,0c.71,0,1.4,0,2.08,0Zm7.37,1.73q0,.59,0,1.2l-10.55,15.84,0-1.06Zm4.92-1.73v.56a4.58,4.58,0,0,0-1.4.21,1,1,0,0,0-.64.67,5.1,5.1,0,0,0-.17,1.52v13.85a5.12,5.12,0,0,0,.17,1.51,1,1,0,0,0,.64.67,5.23,5.23,0,0,0,1.4.22v.56c-.41,0-1-.06-1.65-.07h-4.26c-.7,0-1.27,0-1.72.07v-.56a5.23,5.23,0,0,0,1.4-.22,1,1,0,0,0,.64-.67,5.12,5.12,0,0,0,.17-1.51V105.57a5.1,5.1,0,0,0-.17-1.52,1,1,0,0,0-.64-.67,4.58,4.58,0,0,0-1.4-.21v-.56l1.72.06,2,0c.78,0,1.52,0,2.21,0Z"/><path d="M161.81,122.77a2.12,2.12,0,0,1-1.48-.46,1.51,1.51,0,0,1-.5-1.16,1.42,1.42,0,0,1,.22-.86.61.61,0,0,1,.48-.31,5,5,0,0,0,.95.22,7.26,7.26,0,0,0,1.34.12,1.73,1.73,0,0,0,1.3-.69,6.08,6.08,0,0,0,1.06-2.23,23.88,23.88,0,0,0,.71-4.15q.26-2.59.25-6.42a1.8,1.8,0,0,0-.36-1.22,2.55,2.55,0,0,0-1.43-.6c-.61-.11-.92-.29-.92-.56,0-.11.08-.19.23-.23a1.83,1.83,0,0,1,.58-.07l.7,0,.94,0q.51,0,1,0h4.46l1.47,0h2.53l.83,0c.3,0,.7,0,1.21,0a1.87,1.87,0,0,1,.58.07c.15,0,.22.12.22.23a.4.4,0,0,1-.22.34,2,2,0,0,1-.7.22,3.09,3.09,0,0,0-1.5.62,1.76,1.76,0,0,0-.48,1.39v12.63a1.68,1.68,0,0,0,.59,1.42,3.79,3.79,0,0,0,1.62.64,2.53,2.53,0,0,1,.69.2.33.33,0,0,1,.23.3c0,.12-.08.2-.23.24a1.83,1.83,0,0,1-.58.07c-.5,0-.92,0-1.24,0l-.94-.07c-.3,0-.66,0-1.09,0s-.87,0-1.21,0l-1.06.07c-.37,0-.8,0-1.3,0a1.9,1.9,0,0,1-.59-.07c-.15,0-.22-.12-.22-.24s.3-.39.92-.5a3.12,3.12,0,0,0,1.62-.71,1.79,1.79,0,0,0,.56-1.38V106.88a3,3,0,0,0-.18-1.14.71.71,0,0,0-.72-.42h-4a.68.68,0,0,0-.63.28,1.85,1.85,0,0,0-.18,1,51.46,51.46,0,0,1-.42,7.2,24,24,0,0,1-1.08,4.71,9.47,9.47,0,0,1-1.41,2.74,4.22,4.22,0,0,1-1.46,1.25A3,3,0,0,1,161.81,122.77Z"/><path d="M202.21,122.2c0,.12,0,.18-.07.18-.65,0-1.15,0-1.52,0l-2.1,0-2.14,0c-.36,0-.86,0-1.49,0q-.06,0-.06-.18t.06-.18a6.4,6.4,0,0,0,1.7-.16,1.05,1.05,0,0,0,.74-.59,3.82,3.82,0,0,0,.18-1.36V112.5a4.26,4.26,0,0,0-1.75.45,5.09,5.09,0,0,0-1.56,1.37,23.05,23.05,0,0,0-1.93,2.94q-1.5,2.56-2.28,3.66a5.19,5.19,0,0,1-1.09,1.28,1.74,1.74,0,0,1-.84.18h-3.14q-.09,0-.09-.18t.09-.18a3.8,3.8,0,0,0,2.74-1.24,21.66,21.66,0,0,0,2.81-4.13,13,13,0,0,1,2.13-2.93,5,5,0,0,1,2.26-1.22,7,7,0,0,1-4-1.44,4,4,0,0,1-1.39-3.13,4.27,4.27,0,0,1,.72-2.44,4.71,4.71,0,0,1,2-1.66,6.55,6.55,0,0,1,2.85-.6,14.12,14.12,0,0,1,1.61.1l.86.06c.32,0,.68,0,1.07,0s1.22,0,2.07-.06l1.55,0s.07.06.07.18,0,.18-.07.18a6.46,6.46,0,0,0-1.73.17,1.11,1.11,0,0,0-.74.59,3.76,3.76,0,0,0-.18,1.35v14.11a3.54,3.54,0,0,0,.2,1.36,1.08,1.08,0,0,0,.73.59,6.47,6.47,0,0,0,1.72.16S202.21,122.08,202.21,122.2Zm-9.46-11.46a4.75,4.75,0,0,0,3.63,1.34c.27,0,.64,0,1.13-.06v-6.16a2,2,0,0,0-.73-1.73,3.21,3.21,0,0,0-1.83-.5q-3.45,0-3.45,3.54A5.06,5.06,0,0,0,192.75,110.74Z"/><path d="M243.49,102.61v.56a4.34,4.34,0,0,0-1.36.21,1,1,0,0,0-.62.67,4.79,4.79,0,0,0-.17,1.52v13.85a4.8,4.8,0,0,0,.17,1.51,1,1,0,0,0,.62.67,5,5,0,0,0,1.36.22v.56c-.43,0-1-.06-1.76-.07h-4.54c-.73,0-1.34,0-1.83.07v-.56a4.92,4.92,0,0,0,1.38-.22,1,1,0,0,0,.62-.67,5.64,5.64,0,0,0,.15-1.51V105.57a3.07,3.07,0,0,0-.42-2,2.68,2.68,0,0,0-1.84-.43h-3.43a2.71,2.71,0,0,0-1.85.43,3.07,3.07,0,0,0-.42,2v13.85a5.12,5.12,0,0,0,.17,1.51,1,1,0,0,0,.63.67,5,5,0,0,0,1.35.22v.56c-.46,0-1.06-.06-1.78-.07h-4.55c-.73,0-1.33,0-1.79.07v-.56a5.06,5.06,0,0,0,1.38-.22.94.94,0,0,0,.61-.67,5.18,5.18,0,0,0,.16-1.51V105.57a5.17,5.17,0,0,0-.16-1.52,1,1,0,0,0-.61-.67,4.44,4.44,0,0,0-1.38-.21v-.56l1.79.06q1.08,0,2.34,0c1.1,0,2.19,0,3.27,0s1.94,0,2.6,0,1.5,0,2.56,0,2.14,0,3.22,0q1.24,0,2.37,0Z"/><path d="M264.5,108.76a6.92,6.92,0,0,1-.47,2.6,5.58,5.58,0,0,1-1.37,2,6.17,6.17,0,0,1-2.17,1.26,9.33,9.33,0,0,1-3.07.45h-2.19V122a.31.31,0,0,1-.07.2.44.44,0,0,1-.21.15,2,2,0,0,1-.38.08,3.64,3.64,0,0,1-.62,0,3.57,3.57,0,0,1-.62,0,2.18,2.18,0,0,1-.39-.08.44.44,0,0,1-.21-.15.36.36,0,0,1-.06-.2V104.22a1,1,0,0,1,.31-.85,1.07,1.07,0,0,1,.7-.25h4.12a11.55,11.55,0,0,1,1.2,0,11.11,11.11,0,0,1,1.36.22A5.82,5.82,0,0,1,262,104a5.19,5.19,0,0,1,1.38,1.16,5.14,5.14,0,0,1,.87,1.58A6.29,6.29,0,0,1,264.5,108.76Zm-2.69.21a4,4,0,0,0-.44-2,3.09,3.09,0,0,0-1.09-1.17,3.46,3.46,0,0,0-1.34-.49,9,9,0,0,0-1.34-.11h-2.37V113h2.31a5.3,5.3,0,0,0,1.92-.3,3.59,3.59,0,0,0,1.29-.83,3.42,3.42,0,0,0,.79-1.26A4.63,4.63,0,0,0,261.81,109Z"/><path d="M287.9,112.53a14.78,14.78,0,0,1-.62,4.52,9.21,9.21,0,0,1-1.66,3.15,6.56,6.56,0,0,1-2.46,1.85,7.51,7.51,0,0,1-3,.6,7.43,7.43,0,0,1-3.27-.68,6,6,0,0,1-2.31-2,9.08,9.08,0,0,1-1.36-3.12,17.53,17.53,0,0,1-.45-4.15,14.69,14.69,0,0,1,.62-4.5,8.91,8.91,0,0,1,1.66-3.14,6.5,6.5,0,0,1,2.44-1.85,7.47,7.47,0,0,1,3-.6,7.22,7.22,0,0,1,3.26.68,6.27,6.27,0,0,1,2.32,2,8.91,8.91,0,0,1,1.38,3.1A17.36,17.36,0,0,1,287.9,112.53Zm-2.75.19a17.68,17.68,0,0,0-.26-3.13,7.84,7.84,0,0,0-.85-2.45,4.27,4.27,0,0,0-1.49-1.6,4.19,4.19,0,0,0-2.21-.56,3.77,3.77,0,0,0-2.15.6,4.61,4.61,0,0,0-1.48,1.64,8.28,8.28,0,0,0-.87,2.43,14.63,14.63,0,0,0-.28,2.95,17,17,0,0,0,.27,3.15,8,8,0,0,0,.84,2.44,4.29,4.29,0,0,0,1.48,1.59,4.1,4.1,0,0,0,2.19.56,3.85,3.85,0,0,0,2.16-.6A4.73,4.73,0,0,0,284,118.1a7.69,7.69,0,0,0,.87-2.42A14.64,14.64,0,0,0,285.15,112.72Z"/><polygon class="cls-3" points="169.81 283.83 172.32 280.61 172.16 284.69 176.15 283.83 173.42 286.86 177.02 288.77 172.98 289.33 174.52 293.11 171.06 290.94 169.81 294.82 168.56 290.94 165.1 293.11 166.64 289.33 162.6 288.77 166.2 286.86 163.47 283.83 167.46 284.69 167.3 280.61 169.81 283.83"/><polygon points="184.72 275.73 184.03 275.73 184.01 272.33 180.62 272.59 180.57 271.9 184.7 271.59 184.72 275.73"/><polygon class="cls-3" points="266.39 265.28 268.56 262.5 268.43 266.02 271.87 265.28 269.51 267.89 272.62 269.54 269.13 270.02 270.46 273.29 267.48 271.41 266.39 274.76 265.31 271.41 262.33 273.29 263.65 270.02 260.17 269.54 263.28 267.89 260.92 265.28 264.36 266.02 264.23 262.5 266.39 265.28"/><polygon class="cls-3" points="280.14 265.28 282.31 262.5 282.18 266.02 285.62 265.28 283.26 267.89 286.37 269.54 282.88 270.02 284.21 273.29 281.22 271.41 280.14 274.76 279.06 271.41 276.08 273.29 277.4 270.02 273.91 269.54 277.03 267.89 274.66 265.28 278.11 266.02 277.98 262.5 280.14 265.28"/><polygon class="cls-3" points="144.83 233.78 147.68 230.12 147.51 234.76 152.05 233.78 148.93 237.23 153.04 239.4 148.44 240.04 150.19 244.34 146.25 241.87 144.83 246.29 143.4 241.87 139.47 244.34 141.22 240.04 136.62 239.4 140.72 237.23 137.61 233.78 142.15 234.76 141.98 230.12 144.83 233.78"/><path d="M119.76,151h-.68l-1.15,0-1.36-.05-1.28,0-1.47,0-1.84,0-1.62,0h-.88a.69.69,0,0,1-.32-.17q-.24-.16-.24-.3a.36.36,0,0,1,.08-.25l.2-.2,4.52-4.8A13.44,13.44,0,0,0,116,142a8.13,8.13,0,0,0,.85-3.63,3,3,0,0,0-.78-2.19,2.58,2.58,0,0,0-2-.83,3.67,3.67,0,0,0-2,.6,5.06,5.06,0,0,0-1.52,1.5,1.58,1.58,0,0,1-.28.3.51.51,0,0,1-.36.14c-.1,0-.19-.07-.27-.22a1.19,1.19,0,0,1-.13-.56,2,2,0,0,1,.42-1,6.2,6.2,0,0,1,1.18-1.27,6.94,6.94,0,0,1,1.78-1.09,5.57,5.57,0,0,1,2.24-.45,4.6,4.6,0,0,1,2.4.6,3.93,3.93,0,0,1,1.53,1.65,5.16,5.16,0,0,1,.54,2.39,5.26,5.26,0,0,1-.3,1.65,9.15,9.15,0,0,1-.77,1.73,9.43,9.43,0,0,1-1.06,1.53c-.24.3-.59.68-1,1.15s-.94,1-1.46,1.46-1,1-1.46,1.46-.84.83-1.13,1.13a2.62,2.62,0,0,0-.44.5c0,.07.13.13.39.17s.72.06,1.14.08.87,0,1.35,0,1,0,1.49,0,1,0,1.44-.08a8,8,0,0,0,1.2-.17,1.58,1.58,0,0,0,.77-.42,3.48,3.48,0,0,0,.63-.86,2.92,2.92,0,0,1,.31-.4.58.58,0,0,1,.42-.22.22.22,0,0,1,.22.14.45.45,0,0,1,0,.28c-.06.22-.15.52-.28.89s-.26.77-.39,1.19a11.08,11.08,0,0,0-.31,1.19.67.67,0,0,1-.61.64Z"/><path d="M141.61,141.23a21.9,21.9,0,0,1-.35,4.05,9.47,9.47,0,0,1-1.16,3.15,5.68,5.68,0,0,1-2.12,2,6.66,6.66,0,0,1-3.24.72,6.52,6.52,0,0,1-3.05-.65,5.09,5.09,0,0,1-2-1.9,9.26,9.26,0,0,1-1.08-3.1,25.18,25.18,0,0,1-.32-4.22,21,21,0,0,1,.36-4,9.66,9.66,0,0,1,1.16-3.16,5.6,5.6,0,0,1,2.12-2,7.57,7.57,0,0,1,6.29-.07,5.06,5.06,0,0,1,2,1.9,9.18,9.18,0,0,1,1.08,3.1A25.1,25.1,0,0,1,141.61,141.23Zm-2.62.18c0-1,0-1.83-.11-2.59a16.34,16.34,0,0,0-.3-2,7.18,7.18,0,0,0-.52-1.51,3.66,3.66,0,0,0-.77-1,2.93,2.93,0,0,0-1-.6,4.28,4.28,0,0,0-1.29-.18,3.35,3.35,0,0,0-2,.59,4,4,0,0,0-1.24,1.64,8.46,8.46,0,0,0-.62,2.44,25.86,25.86,0,0,0-.17,3,25.37,25.37,0,0,0,.23,3.67,8.13,8.13,0,0,0,.7,2.46,3.27,3.27,0,0,0,1.24,1.39,3.58,3.58,0,0,0,1.82.43,3.71,3.71,0,0,0,1.47-.27,3.2,3.2,0,0,0,1.09-.76,4.52,4.52,0,0,0,.75-1.2,8.53,8.53,0,0,0,.48-1.55,14.16,14.16,0,0,0,.24-1.84C139,142.81,139,142.12,139,141.41Z"/><path d="M163.16,141.23a21.9,21.9,0,0,1-.35,4.05,9.25,9.25,0,0,1-1.16,3.15,5.68,5.68,0,0,1-2.12,2,7.57,7.57,0,0,1-6.29.07,5.09,5.09,0,0,1-2-1.9,9,9,0,0,1-1.07-3.1,24.1,24.1,0,0,1-.33-4.22,21,21,0,0,1,.36-4,9.66,9.66,0,0,1,1.16-3.16,5.6,5.6,0,0,1,2.12-2,7.57,7.57,0,0,1,6.29-.07,5,5,0,0,1,2,1.9,8.77,8.77,0,0,1,1.08,3.1A25.1,25.1,0,0,1,163.16,141.23Zm-2.62.18c0-1,0-1.83-.1-2.59a16.21,16.21,0,0,0-.31-2,6.66,6.66,0,0,0-.52-1.51,3.48,3.48,0,0,0-.77-1,2.93,2.93,0,0,0-1-.6,4.28,4.28,0,0,0-1.29-.18,3.37,3.37,0,0,0-2.05.59,4,4,0,0,0-1.24,1.64,8.46,8.46,0,0,0-.62,2.44,25.94,25.94,0,0,0-.16,3,25.52,25.52,0,0,0,.22,3.67,7.84,7.84,0,0,0,.71,2.46,3.19,3.19,0,0,0,1.23,1.39,3.59,3.59,0,0,0,1.83.43,3.69,3.69,0,0,0,1.46-.27,3.11,3.11,0,0,0,1.09-.76,4.52,4.52,0,0,0,.75-1.2,8.53,8.53,0,0,0,.48-1.55,12.62,12.62,0,0,0,.24-1.84C160.52,142.81,160.54,142.12,160.54,141.41Z"/><path d="M176.72,151a.86.86,0,0,1-.35-.09.31.31,0,0,1-.2-.31.27.27,0,0,1,.18-.24,1.33,1.33,0,0,1,.37-.12,3.77,3.77,0,0,0,1.89-.61,1.55,1.55,0,0,0,.46-1.16v-2.84c0-.1-.08-.17-.22-.21l-.24-.06c-.84,0-1.61,0-2.33,0l-2.28.09c-.79,0-1.72.06-2.8.08a.38.38,0,0,1-.31-.3.13.13,0,0,1,0-.1c.27-.32.46-.55.58-.68s.23-.25.31-.34a4,4,0,0,0,.3-.41l8-11.56a5.26,5.26,0,0,1,.45-.56.71.71,0,0,1,.47-.29h.64c.1,0,.08.14-.06.43l-8.24,11.83a1.07,1.07,0,0,0-.06.17c0,.07,0,.1.06.1h5.28a.44.44,0,0,0,.24-.07c.08,0,.13-.11.13-.17v-4.73a1.53,1.53,0,0,1,0-.45.41.41,0,0,1,.23-.22,3.05,3.05,0,0,1,1-.32,5.6,5.6,0,0,1,.73-.07q.33,0,.39.48a13.26,13.26,0,0,1,.06,1.47v3.93c0,.12.06.18.16.18l.64,0h1.45l.93,0c.22,0,.33.08.33.25a1,1,0,0,1-.14.51,1.82,1.82,0,0,1-.29.46c-.1.12-.17.19-.21.19l-.73,0h-1.28l-.43.05-.26.09c-.09,0-.13.07-.13.09v2.86a1.48,1.48,0,0,0,.41,1.22,4.82,4.82,0,0,0,1.63.68.92.92,0,0,1,.36.15.33.33,0,0,1,.19.27.31.31,0,0,1-.14.23.52.52,0,0,1-.32.11c-.57,0-1,0-1.36-.05l-.93-.07c-.28,0-.67,0-1.16,0s-.92,0-1.23,0l-1,.07C177.7,151,177.27,151,176.72,151Z"/><path d="M192,146.16a.15.15,0,0,1-.17-.17,4.23,4.23,0,0,1,.12-1c.09-.33.19-.51.33-.53l2.68-.37c.89-.12,1.78-.23,2.68-.33a.3.3,0,0,1,.15.05.13.13,0,0,1,.07.12,3.44,3.44,0,0,1-.13,1c-.08.31-.23.48-.46.52l-2.55.38C193.88,146,193,146.07,192,146.16Z"/><path d="M216.29,151h-.67l-1.16,0-1.35-.05-1.29,0-1.46,0-1.84,0-1.62,0H206a.7.7,0,0,1-.33-.17c-.15-.11-.23-.21-.23-.3a.36.36,0,0,1,.08-.25l.2-.2,4.52-4.8a13.44,13.44,0,0,0,2.28-3.24,8.26,8.26,0,0,0,.85-3.63,3,3,0,0,0-.78-2.19,2.61,2.61,0,0,0-2-.83,3.67,3.67,0,0,0-2,.6,5.09,5.09,0,0,0-1.53,1.5,1.27,1.27,0,0,1-.27.3.55.55,0,0,1-.37.14c-.09,0-.18-.07-.26-.22a1.08,1.08,0,0,1-.13-.56,2,2,0,0,1,.42-1,6.41,6.41,0,0,1,1.17-1.27,7.19,7.19,0,0,1,1.79-1.09,5.53,5.53,0,0,1,2.24-.45,4.6,4.6,0,0,1,2.4.6,3.93,3.93,0,0,1,1.53,1.65,5.16,5.16,0,0,1,.53,2.39,5.22,5.22,0,0,1-.29,1.65,9.83,9.83,0,0,1-.77,1.73,10.11,10.11,0,0,1-1.06,1.53c-.24.3-.59.68-1.05,1.15l-1.45,1.46c-.51.52-1,1-1.47,1.46s-.84.83-1.13,1.13a2.77,2.77,0,0,0-.43.5c0,.07.13.13.39.17s.71.06,1.13.08.87,0,1.36,0,1,0,1.49,0,1,0,1.44-.08a8.37,8.37,0,0,0,1.2-.17,1.62,1.62,0,0,0,.77-.42,3.75,3.75,0,0,0,.63-.86,2.76,2.76,0,0,1,.3-.4.58.58,0,0,1,.42-.22.23.23,0,0,1,.23.14.54.54,0,0,1,0,.28,9.11,9.11,0,0,1-.28.89c-.13.38-.26.77-.39,1.19a10.92,10.92,0,0,0-.3,1.19.67.67,0,0,1-.62.64Z"/><path d="M238.15,141.23a21.9,21.9,0,0,1-.35,4.05,9.47,9.47,0,0,1-1.17,3.15,5.6,5.6,0,0,1-2.12,2,7.57,7.57,0,0,1-6.29.07,5.06,5.06,0,0,1-2-1.9,8.84,8.84,0,0,1-1.08-3.1,25.18,25.18,0,0,1-.32-4.22,21,21,0,0,1,.36-4,9.44,9.44,0,0,1,1.16-3.16,5.65,5.65,0,0,1,2.11-2,6.63,6.63,0,0,1,3.22-.72,6.49,6.49,0,0,1,3.07.65,5,5,0,0,1,2,1.9,9.18,9.18,0,0,1,1.08,3.1A25.1,25.1,0,0,1,238.15,141.23Zm-2.63.18c0-1,0-1.83-.1-2.59a16.34,16.34,0,0,0-.3-2,6.65,6.65,0,0,0-.53-1.51,3.46,3.46,0,0,0-.76-1,2.93,2.93,0,0,0-1-.6,4.28,4.28,0,0,0-1.29-.18,3.35,3.35,0,0,0-2.05.59,4,4,0,0,0-1.25,1.64,8.8,8.8,0,0,0-.62,2.44,28.36,28.36,0,0,0-.16,3,27.06,27.06,0,0,0,.22,3.67,8.11,8.11,0,0,0,.71,2.46,3.21,3.21,0,0,0,1.24,1.39,3.58,3.58,0,0,0,1.82.43,3.71,3.71,0,0,0,1.47-.27,3.07,3.07,0,0,0,1.08-.76,4.31,4.31,0,0,0,.76-1.2,9.4,9.4,0,0,0,.47-1.55,14.11,14.11,0,0,0,.25-1.84C235.5,142.81,235.52,142.12,235.52,141.41Z"/><path d="M258.9,144.72c0-3.17-2.84-4.21-6.37-4.21h-.46V138h.36c3.88,0,5.89-1.07,5.89-3.66,0-2.35-1.95-3.6-4.3-3.6a4.46,4.46,0,0,0-4.82,4.3h-2.86c.33-3.9,3.11-6.61,7.74-6.61,3.81,0,7.17,1.55,7.17,5.61a5.41,5.41,0,0,1-3.6,5.12c3.29,1.06,4.2,3.2,4.2,5.55,0,4.45-3.75,6.61-8,6.61-5.25,0-7.53-3.23-7.87-6.92h2.87c.33,2.72,1.89,4.61,5,4.61C256.82,149,258.9,147.49,258.9,144.72Z"/><path d="M273.65,150.91V135.77H269.3v-2.62c2.9-.09,4.32-.28,5.27-2.49h2.94v20.25Z"/></svg>