<svg id="Слой_1" data-name="Слой 1" xmlns="http://www.w3.org/2000/svg" viewBox="0 0 400 400"><defs><style>.cls-1,.cls-2{fill:#fff;stroke:#000;stroke-width:3px;}.cls-1{stroke-miterlimit:10;}.cls-2{stroke-linecap:round;stroke-linejoin:round;}.cls-3{fill:#b8ad99;}.cls-4{fill:#c1362d;}</style></defs><title>g43</title><path class="cls-1" d="M344.54,48.33C413.43,63.57,334.75,386,334.75,386H62.63C35.07,151.69,37.42,76.67,56.4,64.93c20.73-12.82,55.24,49,85.37,24.91C160,75.26,159,43.26,173.79,40c23-5,38.62,69.39,60.47,63.66,15.14-4,15.69-41.81,33.8-49.82,14.94-6.61,31.4,11.73,42.68,27.68C310.74,81.54,323.22,43.61,344.54,48.33Z"/><path class="cls-1" d="M304.93,270.91c19.65-12.68,28.7-48,17.62-58.84-4-3.91-8.5-2.56-11.57-7.68-3.65-6.06.88-11-2-17.45-1-2.15-3-5.05-17.42-11-13.57-5.6-20.36-8.39-27.12-8.53-3.13-.07-21.66-.45-29.49,11-4,5.81-1.09,8.67-4.17,25.56-2.36,12.92-3.54,19.39-8.79,25-9.65,10.28-24.43,9-25.08,8.92-5.75-.59-9.12-2.72-19.22-9.12-21-13.31-31.56-20-36-21.09-15.3-3.84-29.2,3.51-33,5.35-1.17.57-.27.2-16,11.6-11.87,8.58-14.24,10.17-16.85,14.1-1.56,2.36-7.81,11.79-4,19.84,3.14,6.61,12,10,14.14,8,2.52-2.31-5-10.51-1.77-15.34,2.68-4,10.92-2.91,19.51-1.78,9.4,1.24,14.1,1.86,18.11,5.34,5.65,4.91,3.41,9.48,9.24,22.51,3.94,8.8,6.84,15.27,13.28,19.35,8.74,5.53,13.93.27,23.76,6,8.38,4.9,12,13.07,13.2,15.69,5,11.08.12,15.21,3.09,25.92,4.12,14.84,19,26.82,33.91,29.69,7,1.34,12.23.37,20.47-1.14,11.11-2,24.32-4.47,33.66-15.18,6.78-7.76,8.64-16.57,10.27-24.29,2.48-11.75-.49-11.93,1.6-25.87,1.48-9.85,3.94-24.9,15.57-33.55C302.11,272.27,302.48,272.49,304.93,270.91Z"/><polyline class="cls-2" points="245.78 249.68 245.78 212.67 279.65 212.67 290.24 212.67"/><polyline class="cls-2" points="290.24 221.06 290.24 257.13 245.78 257.13"/><path d="M117.31,110.6V119h.76l6.5-8.42h3l-7.18,8.7c3.12.42,4.33,2.33,5.32,4.9a50.07,50.07,0,0,0,2.08,5.37h-2.64a31.92,31.92,0,0,1-1.72-4.47c-.88-2.51-2.09-4.23-5.3-4.23h-.78v8.7h-2.42v-19Z"/><path d="M142.35,111.22l6.29,16.19a2.77,2.77,0,0,0,.84,1.29,1.79,1.79,0,0,0,.89.36v.51c-.42,0-.9,0-1.46-.06h-3.7q-.93,0-1.5.06v-.51a2.56,2.56,0,0,0,1.67-.45c.23-.27.17-.84-.17-1.72l-4.64-12.53.41-.46-4.28,11.19a6.49,6.49,0,0,0-.59,2.4,1.34,1.34,0,0,0,.6,1.19,3.38,3.38,0,0,0,1.67.38v.51l-1.56-.06h-2.58c-.32,0-.61,0-.86.06v-.51a2.4,2.4,0,0,0,1.08-.65,5,5,0,0,0,1-1.75l6-15.44h.88Zm2.7,10.93v.51h-7.68l.26-.51Z"/><path d="M160.86,129.7a1.91,1.91,0,0,1-.54-.06c-.14,0-.21-.12-.21-.22a.32.32,0,0,1,.21-.29A3.31,3.31,0,0,1,161,129a3.15,3.15,0,0,0,1.5-.63,1.75,1.75,0,0,0,.51-1.38v-10c0-.79,0-1.4-.05-1.82a2.82,2.82,0,0,0-.17-.89.41.41,0,0,0-.32-.28,4.52,4.52,0,0,0-.76-.09h-2.28a3.36,3.36,0,0,0-1.23.24,1.72,1.72,0,0,0-.89.76c-.05.09-.13.21-.25.38a2.62,2.62,0,0,1-.39.42.65.65,0,0,1-.41.18.13.13,0,0,1-.14-.1.59.59,0,0,1,0-.23,1.11,1.11,0,0,1,.13-.52,8.35,8.35,0,0,0,.52-1.33,7.33,7.33,0,0,0,.27-1.38c0-.29.1-.46.2-.51a.52.52,0,0,1,.24-.08c.07,0,.18.1.33.31a5.35,5.35,0,0,1,.32.52,1.05,1.05,0,0,0,.71.38,4.57,4.57,0,0,0,1.09.13h9.08a8.45,8.45,0,0,0,1.47-.1,4.2,4.2,0,0,0,1-.29,2.17,2.17,0,0,0,.5-.33.71.71,0,0,1,.5-.18c.05,0,.1.06.13.19a1.83,1.83,0,0,1,.05.4,1.86,1.86,0,0,1,0,.36,3.29,3.29,0,0,1-.06.36,5.56,5.56,0,0,1-.14.67,1.52,1.52,0,0,0-.09.37,2.77,2.77,0,0,0,0,.49v.3a1.54,1.54,0,0,1-.1.53c-.07.2-.17.3-.31.3s-.22-.09-.28-.28a5.89,5.89,0,0,1-.21-.78,1.28,1.28,0,0,0-.62-.86,3.43,3.43,0,0,0-1.75-.32h-2.61a1.9,1.9,0,0,0-.85.15c-.19.1-.31.36-.36.77a19.05,19.05,0,0,0-.08,2v10.13a1.67,1.67,0,0,0,.55,1.38,3.25,3.25,0,0,0,1.49.63,3.7,3.7,0,0,1,.65.18.33.33,0,0,1,.2.29c0,.1-.07.17-.2.22a2,2,0,0,1-.55.06c-.46,0-.84,0-1.14,0l-.87-.06c-.27,0-.61,0-1,0s-.81,0-1.12,0l-1,.06C161.72,129.69,161.32,129.7,160.86,129.7Z"/><path d="M193.53,129.4c0,.12,0,.17-.05.17q-.9,0-1.41,0l-1.94,0-2,0q-.51,0-1.38,0s-.06,0-.06-.17,0-.16.06-.16a6,6,0,0,0,1.57-.15.94.94,0,0,0,.68-.54,3.58,3.58,0,0,0,.17-1.26v-6.84a4.2,4.2,0,0,0-1.62.41,4.75,4.75,0,0,0-1.43,1.27,20.73,20.73,0,0,0-1.79,2.71c-.92,1.58-1.62,2.71-2.1,3.38a4.9,4.9,0,0,1-1,1.18,1.5,1.5,0,0,1-.78.17h-2.9s-.08,0-.08-.17,0-.16.08-.16a3.53,3.53,0,0,0,2.54-1.14,20.8,20.8,0,0,0,2.59-3.82,11.77,11.77,0,0,1,2-2.7,4.57,4.57,0,0,1,2.08-1.13,6.48,6.48,0,0,1-3.73-1.33,3.68,3.68,0,0,1-1.28-2.89,4,4,0,0,1,.66-2.25,4.41,4.41,0,0,1,1.83-1.54,6.21,6.21,0,0,1,2.63-.54,14,14,0,0,1,1.49.08l.79.06,1,0c.49,0,1.12,0,1.91,0l1.44,0s.05.06.05.17,0,.17-.05.17a6.25,6.25,0,0,0-1.61.15,1,1,0,0,0-.67.55,3.21,3.21,0,0,0-.17,1.24v13a3.32,3.32,0,0,0,.18,1.26,1,1,0,0,0,.68.54,6,6,0,0,0,1.59.15S193.53,129.29,193.53,129.4Zm-8.72-10.58a4.33,4.33,0,0,0,3.35,1.24c.24,0,.59,0,1-.06v-5.68a1.79,1.79,0,0,0-.68-1.59,2.9,2.9,0,0,0-1.69-.47q-3.18,0-3.18,3.27A4.64,4.64,0,0,0,184.81,118.82Z"/><path d="M222.34,111a9.34,9.34,0,0,1,4.62,1.11,7.68,7.68,0,0,1,3.08,3.18,12.07,12.07,0,0,1,0,10.09,8.3,8.3,0,0,1-3.12,3.38,8.62,8.62,0,0,1-4.57,1.21,9.4,9.4,0,0,1-4.62-1.1,7.67,7.67,0,0,1-3.08-3.2,11.9,11.9,0,0,1,0-10.08,8.36,8.36,0,0,1,3.12-3.38A8.54,8.54,0,0,1,222.34,111Zm-.1.46a3.54,3.54,0,0,0-2.64,1.16,7.75,7.75,0,0,0-1.74,3.2,16,16,0,0,0-.62,4.72,14.69,14.69,0,0,0,.69,4.75,7.52,7.52,0,0,0,1.88,3.12,3.73,3.73,0,0,0,2.61,1.1,3.57,3.57,0,0,0,2.64-1.16,7.67,7.67,0,0,0,1.74-3.21,16.37,16.37,0,0,0,.62-4.7,14.45,14.45,0,0,0-.7-4.77,7.43,7.43,0,0,0-1.87-3.11A3.74,3.74,0,0,0,222.24,111.42Z"/><path d="M250.74,129.23a.32.32,0,0,1-.06.18.37.37,0,0,1-.18.13,2,2,0,0,1-.35.08,4.22,4.22,0,0,1-.57,0,4.29,4.29,0,0,1-.55,0,2.1,2.1,0,0,1-.37-.08.42.42,0,0,1-.21-.13.32.32,0,0,1-.06-.18v-6.82l-1.56.15c-.5,0-1,.06-1.54.06a13.67,13.67,0,0,1-2.46-.21,5,5,0,0,1-2-.82,4,4,0,0,1-1.31-1.65,6.9,6.9,0,0,1-.47-2.75v-5.06a.41.41,0,0,1,.05-.18.4.4,0,0,1,.19-.13,1.79,1.79,0,0,1,.36-.08,4.22,4.22,0,0,1,.55,0,4.45,4.45,0,0,1,.57,0,2.61,2.61,0,0,1,.37.08.35.35,0,0,1,.2.13.32.32,0,0,1,.06.18V117a5.69,5.69,0,0,0,.18,1.49,2.63,2.63,0,0,0,.63,1.13,2.82,2.82,0,0,0,1.24.71,6.59,6.59,0,0,0,2,.25c.51,0,1,0,1.48-.06s1-.08,1.44-.12v-8.29a.32.32,0,0,1,.06-.18.42.42,0,0,1,.21-.13,2.1,2.1,0,0,1,.37-.08,5.24,5.24,0,0,1,1.12,0,2,2,0,0,1,.35.08.37.37,0,0,1,.18.13.32.32,0,0,1,.06.18Z"/><path d="M261.42,109.16h13.09v1.75h-11.2v7.21h10.53v1.77H263.31v7.94h11.2v1.74H261.42Z"/><path d="M287.57,117.81h1.58l6.08-8.22h4.39l-7.18,9.65,7.83,10.33h-4.34l-6.42-8.27h-1.94v8.27h-3.86v-20h3.86Z"/><polygon class="cls-3" points="265.65 230.34 267.73 223.93 269.8 230.35 275.51 226.77 272.97 233.01 279.65 233.95 273.68 237.09 278.2 242.1 271.61 240.68 271.85 247.42 267.71 242.09 263.57 247.41 263.82 240.67 257.23 242.08 261.75 237.08 255.79 233.92 262.48 233 259.94 226.75 265.65 230.34"/><polygon class="cls-4" points="174.65 246.7 183.99 262.88 174.65 279.07 155.97 279.07 146.63 262.88 155.97 246.7 174.65 246.7"/><path d="M136.29,160.65l-.62,0c-.3,0-.66,0-1.06,0l-1.26-.05-1.18,0-1.35,0-1.71,0-1.49,0h-.81a.71.71,0,0,1-.3-.15c-.15-.11-.22-.2-.22-.29a.32.32,0,0,1,.08-.23l.18-.18,4.18-4.43a12.52,12.52,0,0,0,2.1-3,7.52,7.52,0,0,0,.78-3.35,2.82,2.82,0,0,0-.72-2,2.36,2.36,0,0,0-1.8-.76,3.38,3.38,0,0,0-1.87.55,4.64,4.64,0,0,0-1.41,1.38,1.18,1.18,0,0,1-.26.29.53.53,0,0,1-.33.13c-.09,0-.17-.07-.25-.21a1.14,1.14,0,0,1-.11-.52,1.83,1.83,0,0,1,.39-.91,5.23,5.23,0,0,1,1.08-1.17,6.12,6.12,0,0,1,1.65-1,5,5,0,0,1,2.06-.41,4.25,4.25,0,0,1,2.22.55,3.63,3.63,0,0,1,1.41,1.52,4.8,4.8,0,0,1,.5,2.21,4.68,4.68,0,0,1-.28,1.52,9,9,0,0,1-.7,1.6,10.37,10.37,0,0,1-1,1.41c-.23.28-.55.63-1,1.06l-1.34,1.35-1.36,1.35-1,1a2.17,2.17,0,0,0-.4.46c0,.07.12.12.36.16l1,.08,1.25,0,1.38,0,1.32-.08a7.09,7.09,0,0,0,1.11-.16,1.53,1.53,0,0,0,.71-.38,3.38,3.38,0,0,0,.58-.8,2.54,2.54,0,0,1,.28-.36.51.51,0,0,1,.39-.21.21.21,0,0,1,.21.13.46.46,0,0,1,0,.26c0,.2-.13.48-.25.82s-.25.71-.37,1.1a11,11,0,0,0-.28,1.09.62.62,0,0,1-.24.48A.67.67,0,0,1,136.29,160.65Z"/><path d="M156.47,151.63a20.37,20.37,0,0,1-.32,3.74,8.64,8.64,0,0,1-1.08,2.91,5.24,5.24,0,0,1-1.95,1.88,6.09,6.09,0,0,1-3,.67,6,6,0,0,1-2.82-.6,4.6,4.6,0,0,1-1.85-1.76,8.15,8.15,0,0,1-1-2.86,23.65,23.65,0,0,1-.29-3.89,19.53,19.53,0,0,1,.33-3.73,8.61,8.61,0,0,1,1.07-2.92,5.1,5.1,0,0,1,2-1.88,7,7,0,0,1,5.81-.07,4.73,4.73,0,0,1,1.85,1.76,8.23,8.23,0,0,1,1,2.86A22.53,22.53,0,0,1,156.47,151.63Zm-2.42.17c0-.89,0-1.69-.1-2.39a12.59,12.59,0,0,0-.28-1.87,5.88,5.88,0,0,0-.48-1.4,3.24,3.24,0,0,0-.71-1,2.62,2.62,0,0,0-.94-.55,4,4,0,0,0-1.19-.17,3,3,0,0,0-1.89.55,3.69,3.69,0,0,0-1.15,1.51,8,8,0,0,0-.57,2.26,24,24,0,0,0-.15,2.77,24.91,24.91,0,0,0,.2,3.39,7.55,7.55,0,0,0,.66,2.28,2.85,2.85,0,0,0,1.14,1.27,3.27,3.27,0,0,0,1.68.4,3.54,3.54,0,0,0,1.35-.24,3,3,0,0,0,1-.71,3.86,3.86,0,0,0,.69-1.11,8,8,0,0,0,.44-1.43,12,12,0,0,0,.23-1.7C154,153.09,154.05,152.46,154.05,151.8Z"/><path d="M176.37,151.63a19.49,19.49,0,0,1-.33,3.74,8.43,8.43,0,0,1-1.07,2.91,5.19,5.19,0,0,1-2,1.88,6.95,6.95,0,0,1-5.8.07,4.54,4.54,0,0,1-1.85-1.76,8.15,8.15,0,0,1-1-2.86,22.53,22.53,0,0,1-.3-3.89,19.53,19.53,0,0,1,.33-3.73,8.62,8.62,0,0,1,1.08-2.92,5.1,5.1,0,0,1,1.95-1.88,6,6,0,0,1,3-.67,6,6,0,0,1,2.83.6,4.6,4.6,0,0,1,1.85,1.76,8.23,8.23,0,0,1,1,2.86A22.53,22.53,0,0,1,176.37,151.63Zm-2.42.17c0-.89,0-1.69-.1-2.39a14.06,14.06,0,0,0-.28-1.87,6.35,6.35,0,0,0-.48-1.4,3.43,3.43,0,0,0-.71-1,2.71,2.71,0,0,0-.94-.55,4,4,0,0,0-1.19-.17,3.06,3.06,0,0,0-1.9.55,3.67,3.67,0,0,0-1.14,1.51,7.94,7.94,0,0,0-.58,2.26,24,24,0,0,0-.15,2.77,23.24,23.24,0,0,0,.21,3.39,7.57,7.57,0,0,0,.65,2.28,3,3,0,0,0,1.14,1.27,3.33,3.33,0,0,0,1.69.4,3.54,3.54,0,0,0,1.35-.24,3,3,0,0,0,1-.71,4.12,4.12,0,0,0,.7-1.11,8,8,0,0,0,.44-1.43,12.1,12.1,0,0,0,.22-1.7C173.93,153.09,174,152.46,174,151.8Z"/><path d="M195.67,159.55a2.85,2.85,0,0,1,0,.44,1.87,1.87,0,0,1-.1.33.43.43,0,0,1-.16.19.46.46,0,0,1-.23.06h-9.83a1,1,0,0,1-.33,0,.51.51,0,0,1-.25-.16.64.64,0,0,1-.15-.31,1.91,1.91,0,0,1-.05-.51c0-.18,0-.34,0-.48a1.06,1.06,0,0,1,.09-.37,2.48,2.48,0,0,1,.18-.31,2,2,0,0,1,.28-.34l3.55-3.66a23.25,23.25,0,0,0,2-2.26,12.52,12.52,0,0,0,1.14-1.83,5.78,5.78,0,0,0,.53-1.5,6.42,6.42,0,0,0,.13-1.26,3,3,0,0,0-.2-1.12,2.59,2.59,0,0,0-.57-.93,2.75,2.75,0,0,0-.94-.64,3.56,3.56,0,0,0-1.31-.23,5,5,0,0,0-1.55.23,9.38,9.38,0,0,0-1.21.51c-.34.19-.63.36-.86.51a1.11,1.11,0,0,1-.52.24.28.28,0,0,1-.18-.06.52.52,0,0,1-.13-.18,1.68,1.68,0,0,1-.07-.33,3.48,3.48,0,0,1,0-.49c0-.14,0-.26,0-.36a1.5,1.5,0,0,1,.05-.26,1,1,0,0,1,.09-.21,1.4,1.4,0,0,1,.22-.24,6.3,6.3,0,0,1,.57-.39,7,7,0,0,1,1-.49,8.85,8.85,0,0,1,1.34-.4,7.08,7.08,0,0,1,1.55-.17,6.23,6.23,0,0,1,2.26.37,4.48,4.48,0,0,1,1.61,1,4,4,0,0,1,.95,1.47,4.86,4.86,0,0,1,.32,1.79,9.76,9.76,0,0,1-.15,1.7,6.81,6.81,0,0,1-.64,1.83,13.12,13.12,0,0,1-1.41,2.18,30.55,30.55,0,0,1-2.45,2.77l-2.81,2.94h7.74a.42.42,0,0,1,.21.06.66.66,0,0,1,.18.19,1.12,1.12,0,0,1,.11.31A2.72,2.72,0,0,1,195.67,159.55Z"/><path d="M203.77,156.19a.14.14,0,0,1-.15-.16,4.1,4.1,0,0,1,.11-.9c.08-.31.18-.47.3-.49l2.47-.35c.83-.11,1.65-.21,2.48-.29a.32.32,0,0,1,.14,0,.15.15,0,0,1,.07.12,3.41,3.41,0,0,1-.12.92c-.08.28-.22.44-.43.47l-2.35.35Q205.09,156.06,203.77,156.19Z"/><path d="M226.17,160.65l-.61,0c-.31,0-.67,0-1.07,0l-1.25-.05-1.19,0-1.35,0-1.7,0-1.5,0h-.81a.77.77,0,0,1-.3-.15c-.15-.11-.22-.2-.22-.29a.32.32,0,0,1,.08-.23l.18-.18,4.18-4.43a12.52,12.52,0,0,0,2.1-3,7.52,7.52,0,0,0,.78-3.35,2.82,2.82,0,0,0-.72-2,2.36,2.36,0,0,0-1.8-.76,3.38,3.38,0,0,0-1.87.55,4.64,4.64,0,0,0-1.41,1.38,1.18,1.18,0,0,1-.26.29.53.53,0,0,1-.33.13c-.09,0-.17-.07-.25-.21a1.14,1.14,0,0,1-.11-.52,1.83,1.83,0,0,1,.39-.91,5.23,5.23,0,0,1,1.08-1.17,6.12,6.12,0,0,1,1.65-1,5,5,0,0,1,2.06-.41,4.25,4.25,0,0,1,2.22.55,3.71,3.71,0,0,1,1.42,1.52,4.87,4.87,0,0,1,.22,3.73,9.88,9.88,0,0,1-.71,1.6,10.37,10.37,0,0,1-1,1.41c-.23.28-.55.63-1,1.06l-1.34,1.35c-.47.48-.93.92-1.35,1.35l-1.05,1a2.61,2.61,0,0,0-.4.46c0,.07.12.12.36.16l1,.08,1.25,0,1.38,0,1.32-.08a7.09,7.09,0,0,0,1.11-.16,1.53,1.53,0,0,0,.71-.38,3.38,3.38,0,0,0,.58-.8,2.69,2.69,0,0,1,.29-.36.5.5,0,0,1,.38-.21.2.2,0,0,1,.21.13.46.46,0,0,1,0,.26c0,.2-.13.48-.25.82s-.24.71-.36,1.1a11.14,11.14,0,0,0-.29,1.09.62.62,0,0,1-.24.48A.67.67,0,0,1,226.17,160.65Z"/><path d="M246.35,151.63a20.37,20.37,0,0,1-.32,3.74,8.85,8.85,0,0,1-1.07,2.91,5.27,5.27,0,0,1-2,1.88,7,7,0,0,1-5.81.07,4.6,4.6,0,0,1-1.85-1.76,8.15,8.15,0,0,1-1-2.86,23.65,23.65,0,0,1-.29-3.89,19.53,19.53,0,0,1,.33-3.73,8.83,8.83,0,0,1,1.07-2.92,5.24,5.24,0,0,1,2-1.88,7,7,0,0,1,5.81-.07,4.73,4.73,0,0,1,1.85,1.76,8,8,0,0,1,1,2.86A22.53,22.53,0,0,1,246.35,151.63Zm-2.42.17c0-.89,0-1.69-.1-2.39a12.59,12.59,0,0,0-.28-1.87,5.88,5.88,0,0,0-.48-1.4,3.08,3.08,0,0,0-.71-1,2.54,2.54,0,0,0-.94-.55,4,4,0,0,0-1.19-.17,3,3,0,0,0-1.89.55,3.69,3.69,0,0,0-1.15,1.51,8,8,0,0,0-.57,2.26,24,24,0,0,0-.15,2.77,24.91,24.91,0,0,0,.2,3.39,7.55,7.55,0,0,0,.66,2.28,2.85,2.85,0,0,0,1.14,1.27,3.27,3.27,0,0,0,1.68.4,3.5,3.5,0,0,0,1.35-.24,3,3,0,0,0,1-.71,3.86,3.86,0,0,0,.69-1.11,7.26,7.26,0,0,0,.44-1.43,12,12,0,0,0,.23-1.7C243.91,153.09,243.93,152.46,243.93,151.8Z"/><path d="M264.67,144a9,9,0,0,0-1.86.11,7.43,7.43,0,0,0-6.36,6.5h.08a5.46,5.46,0,0,1,4.42-2.11c3.24,0,5.52,2.34,5.52,5.91,0,3.35-2.28,6.45-6.08,6.45s-6.48-3-6.48-7.8a11.52,11.52,0,0,1,3.1-8.25,10,10,0,0,1,5.85-2.7,12.41,12.41,0,0,1,1.81-.14ZM264,154.57c0-2.61-1.49-4.19-3.77-4.19a4.09,4.09,0,0,0-3.55,2.25,2.1,2.1,0,0,0-.28,1.1c.06,3,1.44,5.23,4,5.23C262.53,159,264,157.19,264,154.57Z"/><path d="M284.74,144a9,9,0,0,0-1.86.11,7.43,7.43,0,0,0-6.36,6.5h.08a5.46,5.46,0,0,1,4.42-2.11c3.24,0,5.52,2.34,5.52,5.91,0,3.35-2.28,6.45-6.08,6.45s-6.48-3-6.48-7.8a11.52,11.52,0,0,1,3.1-8.25,10,10,0,0,1,5.85-2.7,12.41,12.41,0,0,1,1.81-.14ZM284,154.57c0-2.61-1.49-4.19-3.77-4.19a4.09,4.09,0,0,0-3.55,2.25,2.1,2.1,0,0,0-.28,1.1c.06,3,1.44,5.23,4,5.23C282.6,159,284,157.19,284,154.57Z"/></svg>