<svg id="Слой_1" data-name="Слой 1" xmlns="http://www.w3.org/2000/svg" viewBox="0 0 400 400"><defs><style>.cls-1,.cls-2{fill:#fff;stroke:#000;stroke-width:3px;}.cls-1{stroke-miterlimit:10;}.cls-2{stroke-linecap:round;stroke-linejoin:round;}.cls-3{fill:#608b70;}.cls-4{fill:#c1362d;}</style></defs><title>g45</title><path class="cls-1" d="M348.58,34.89C420.22,50.74,338.41,386,338.41,386h-283C26.8,142.37,29.24,64.36,49,52.16c21.56-13.34,57.44,50.92,88.77,25.9,19-15.16,17.94-48.44,33.29-51.81,23.87-5.23,40.16,72.16,62.88,66.2,15.74-4.13,16.31-43.48,35.14-51.81,15.54-6.87,32.65,12.2,44.38,28.78C313.44,69.42,326.42,30,348.58,34.89Z"/><path class="cls-1" d="M297.58,189.34c-3.08-12.75-26.45-22.67-46.07-20.1-19.38,2.54-18.35,15.09-41.34,22.82-27.24,9.16-43.53-3.45-57.55,9.66-.94.88-11.63,11.15-8.12,21.74,1.8,5.43,10,5.42,11.18,11,.8,3.94-2.58,5.08-2.65,9.75-.11,7.15,7.73,9.17,10.64,16.82s0,18.32-6.47,22.73c-10.36,7.09-31.09-1.32-40.56-13.77-7.74-10.18-3.47-17.16-12.39-26.14-9.24-9.3-24-12.09-26.18-9.09-1.63,2.31,5.24,6.68,10.57,17.64,5.09,10.47,2.83,14.7,5.88,30.54,3.57,18.5,5.42,28.09,13.36,34.56,11.14,9.09,22,2.06,31.13,12.05,6.9,7.58,3.55,14.83,11.2,20.2,5.68,4,12.48,3.48,20.66,2.76,12.5-1.12,28.62-1.4,35.95-11.66,5.18-7.25,2.85-14.82,5.78-15.3,3.54-.57,11.35,9.79,9.54,19.22-2.11,11-16.25,14.79-14.88,19.44,1,3.27,8.69,3.89,21.38,4.49,27,1.25,40.52,1.88,47.05.2,4.62-1.2,23.26-6,35.93-20.83,25.77-30.17,15.68-88.81-8.9-110.79-3.68-3.29-10.5-8.28-12.37-17C287.41,206.66,300.14,199.9,297.58,189.34Z"/><path class="cls-2" d="M183,300.87a18.62,18.62,0,0,1,8.42-19.14c7.8-4.8,15.45-.42,19.92,4.59,4.73,5.3.61,10.8,5.36,17.62,4.5,6.47,10,6.16,15.32,3.06,7.87-4.62-2-20.08,7.79-29.41,6.08-5.79,14.59-4.07,20,1.07,4.25,4,5.38,10,10.3,12.24s12.42,1.9,16.3-2.52c4.67-5.31,4.26-15.19,1-22.46"/><line class="cls-2" x1="264.47" y1="331.45" x2="249.94" y2="318.04"/><path class="cls-2" d="M271.07,219.24a26.39,26.39,0,0,1-26.39,26.39,23.75,23.75,0,0,1-23.75-23.75,21.37,21.37,0,0,1,21.37-21.37,19.23,19.23,0,0,1,19.24,19.23,17.31,17.31,0,0,1-17.31,17.32,15.59,15.59,0,0,1-15.59-15.58,14,14,0,0,1,14-14,12.62,12.62,0,0,1,12.62,12.62,11.36,11.36,0,0,1-11.36,11.36,10.22,10.22,0,0,1-10.22-10.22"/><path d="M156.06,124h.76a2.8,2.8,0,0,0,1.56-.52,4.07,4.07,0,0,0,1.19-1.8,19.22,19.22,0,0,0,.91-3.62c.27-1.53.51-3.51.74-5.93l.55-6.11h13.12v18h3.2v9.09h-3.94v-5.4H160v5.4h-4Zm14.62,0V109.68h-5.1l-.31,3.29a45.47,45.47,0,0,1-1,6.9,12,12,0,0,1-1.69,4.09Z"/><path d="M196.25,128.08a10.41,10.41,0,0,1-3.85-.72,9.84,9.84,0,0,1-6.29-9.32,11.8,11.8,0,0,1,.68-4,10,10,0,0,1,2-3.41,9.52,9.52,0,0,1,3.26-2.38,10.8,10.8,0,0,1,4.49-.88,10.39,10.39,0,0,1,3.84.72,9.78,9.78,0,0,1,3.24,2,9.76,9.76,0,0,1,3.05,7.28,11.85,11.85,0,0,1-.67,4,10.23,10.23,0,0,1-2,3.42,9.53,9.53,0,0,1-3.27,2.38A10.76,10.76,0,0,1,196.25,128.08Zm.45-1.22a7.08,7.08,0,0,0,3.91-1,6,6,0,0,0,2.33-2.77,10.34,10.34,0,0,0,.78-4.17,15.35,15.35,0,0,0-.49-4,10.32,10.32,0,0,0-1.45-3.28,6.93,6.93,0,0,0-2.39-2.22,6.84,6.84,0,0,0-3.36-.79,7.09,7.09,0,0,0-3.84,1,6.09,6.09,0,0,0-2.35,2.73,9.91,9.91,0,0,0-.8,4.13,16,16,0,0,0,.48,4A10.33,10.33,0,0,0,191,123.8a7,7,0,0,0,2.4,2.25A6.67,6.67,0,0,0,196.7,126.86Z"/><path d="M234.91,105.52v22.13H231.8v-10H220.17v10h-3.11V105.52h3.11v9.4H231.8v-9.4Z"/><path d="M264.72,105.52v22.13h-3.11v-10H250v10h-3.11V105.52H250v9.4h11.63v-9.4Z"/><path d="M287.11,127.65a.13.13,0,0,1-.15-.15v-.79c0-.11.05-.16.15-.16l2.39-.24a.12.12,0,0,0,.12-.06.19.19,0,0,0,0-.15l-2.27-6q-.06-.09-.12-.09h-6.64a.18.18,0,0,0-.12.09l-2.42,6q-.07.2.15.21l2.3.18a.14.14,0,0,1,.15.16v.79a.13.13,0,0,1-.15.15h-6.6a.13.13,0,0,1-.15-.15v-.79c0-.11.05-.16.15-.16l2.5-.24a.18.18,0,0,0,.12-.09l7.76-19.53q.06-.09.12-.09h.76a.18.18,0,0,1,.12.09l7.14,19.5a.12.12,0,0,0,.13.09l2.43.27c.09,0,.13,0,.13.16v.79c0,.1-.05.15-.16.15Zm-3-16.42q-.06-.09-.12-.09a.12.12,0,0,0-.12.09l-2.88,7.3c0,.14,0,.21.14.21h5.51c.16,0,.22-.07.17-.21Z"/><path class="cls-3" d="M190,271a6.06,6.06,0,1,1-1.65,8.4A6.06,6.06,0,0,1,190,271"/><polygon class="cls-4" points="245.49 216.51 247.93 220.73 245.49 224.94 240.63 224.94 238.19 220.73 240.63 216.51 245.49 216.51"/><path d="M146.83,158.74V143.6h-4.36V141c2.91-.08,4.33-.28,5.28-2.49h2.94v20.26Z"/><path d="M160.24,159.61a.52.52,0,0,1-.3-.07.21.21,0,0,1-.09-.16.24.24,0,0,1,.13-.21.59.59,0,0,1,.26-.07,4.58,4.58,0,0,0,1.95-.54,11.63,11.63,0,0,0,2.23-1.48,13.75,13.75,0,0,0,2-2.08,14.86,14.86,0,0,0,1.44-2.3,9.64,9.64,0,0,0,.79-2.3,12,12,0,0,0,.26-2.53,6.41,6.41,0,0,0-.33-2,7.64,7.64,0,0,0-.86-1.85,4.92,4.92,0,0,0-1.26-1.34,2.53,2.53,0,0,0-1.47-.5,2.34,2.34,0,0,0-1.51.49,3,3,0,0,0-.92,1.2,3.59,3.59,0,0,0-.31,1.41,3.66,3.66,0,0,0,.41,1.65,3.82,3.82,0,0,0,1.08,1.33,2.25,2.25,0,0,0,1.39.51,2.83,2.83,0,0,0,1.29-.23c.28-.16.59-.32,1-.49.07,0,.13,0,.18.08a.2.2,0,0,1,0,.22,2,2,0,0,1-.41.55,5.32,5.32,0,0,1-.51.43,4.72,4.72,0,0,1-.61.37,8.14,8.14,0,0,1-.93.39,3.27,3.27,0,0,1-1,.17,4.07,4.07,0,0,1-1.86-.47,4,4,0,0,1-1.48-1.25,3,3,0,0,1-.57-1.81,4.91,4.91,0,0,1,.42-1.93,6.12,6.12,0,0,1,1.19-1.8,5.8,5.8,0,0,1,1.83-1.32,5.26,5.26,0,0,1,2.32-.51,3.92,3.92,0,0,1,2,.55,6.22,6.22,0,0,1,1.73,1.45,7.16,7.16,0,0,1,1.21,2.05,6.41,6.41,0,0,1,.45,2.35,10.53,10.53,0,0,1-.47,3.2,11.6,11.6,0,0,1-1.37,2.81,23.93,23.93,0,0,1-2.18,2.74,8.89,8.89,0,0,1-1.68,1.45,12.39,12.39,0,0,1-1.87,1,9.83,9.83,0,0,1-1.86.61A7.94,7.94,0,0,1,160.24,159.61Z"/><path d="M179.25,159.61a.56.56,0,0,1-.31-.07.19.19,0,0,1-.08-.16.24.24,0,0,1,.12-.21.64.64,0,0,1,.27-.07,4.54,4.54,0,0,0,1.94-.54,11.68,11.68,0,0,0,2.24-1.48,13.68,13.68,0,0,0,2-2.08,13.48,13.48,0,0,0,1.44-2.3,10.13,10.13,0,0,0,.8-2.3,12.06,12.06,0,0,0,.25-2.53,6.7,6.7,0,0,0-.32-2,8.06,8.06,0,0,0-.87-1.85,4.78,4.78,0,0,0-1.26-1.34,2.52,2.52,0,0,0-1.46-.5,2.32,2.32,0,0,0-1.51.49,2.94,2.94,0,0,0-.92,1.2,3.42,3.42,0,0,0-.31,1.41,3.65,3.65,0,0,0,.4,1.65,3.82,3.82,0,0,0,1.08,1.33,2.28,2.28,0,0,0,1.4.51,2.81,2.81,0,0,0,1.28-.23c.28-.16.6-.32,1-.49.08,0,.14,0,.18.08a.22.22,0,0,1,0,.22,2.3,2.3,0,0,1-.42.55c-.19.18-.36.32-.5.43a5.9,5.9,0,0,1-.62.37,8.78,8.78,0,0,1-.92.39,3.33,3.33,0,0,1-1,.17,4.33,4.33,0,0,1-3.34-1.72,3,3,0,0,1-.57-1.81,4.91,4.91,0,0,1,.42-1.93,6.33,6.33,0,0,1,1.19-1.8,5.8,5.8,0,0,1,1.83-1.32,5.29,5.29,0,0,1,2.32-.51,3.89,3.89,0,0,1,2,.55,6.22,6.22,0,0,1,1.73,1.45,7.42,7.42,0,0,1,1.22,2.05,6.4,6.4,0,0,1,.44,2.35,10.23,10.23,0,0,1-.47,3.2,11.24,11.24,0,0,1-1.37,2.81,22.88,22.88,0,0,1-2.18,2.74,8.59,8.59,0,0,1-1.68,1.45,12.39,12.39,0,0,1-1.87,1,9.39,9.39,0,0,1-1.86.61A7.85,7.85,0,0,1,179.25,159.61Z"/><path d="M199.93,159.63a.49.49,0,0,1-.45-.21.9.9,0,0,1-.14-.51,1.59,1.59,0,0,1,.2-.45l.39-.7,7.91-14.14a.25.25,0,0,0,0-.17s-.12-.09-.32-.11H200.4a2.21,2.21,0,0,0-2.15,1.29,2,2,0,0,0-.15.25,2.34,2.34,0,0,1-.24.31.42.42,0,0,1-.28.14.16.16,0,0,1-.15-.14.91.91,0,0,1-.05-.26,1.48,1.48,0,0,1,.05-.32,2.49,2.49,0,0,1,.07-.29c.09-.41.18-.88.26-1.43s.15-1,.18-1.34a.32.32,0,0,1,.13-.25.29.29,0,0,1,.15-.05l.77.12a8.56,8.56,0,0,0,1.58.13h1.65l1.12,0,2.75,0,2.4,0,1.27-.07s.08,0,.12.12a.74.74,0,0,1,.05.24,1.34,1.34,0,0,1-.21.6,8.23,8.23,0,0,1-.46.74,5.82,5.82,0,0,0-.39.62l-8.41,15.17c-.08.15-.17.31-.28.49S200,159.63,199.93,159.63Z"/><path d="M216.36,154a.15.15,0,0,1-.17-.17,3.78,3.78,0,0,1,.13-1c.08-.33.19-.51.32-.53l2.68-.37c.9-.13,1.79-.23,2.68-.33a.3.3,0,0,1,.16,0,.12.12,0,0,1,.07.12,3.44,3.44,0,0,1-.13,1c-.08.31-.23.48-.46.52l-2.56.38C218.22,153.79,217.31,153.9,216.36,154Z"/><path d="M240.64,158.82H240l-1.16,0-1.35-.06-1.29,0-1.46,0-1.85,0-1.62,0-.88,0a.81.81,0,0,1-.32-.17c-.16-.11-.24-.22-.24-.31a.33.33,0,0,1,.09-.25l.19-.2,4.53-4.8a13.44,13.44,0,0,0,2.28-3.24,8.27,8.27,0,0,0,.85-3.64A3.06,3.06,0,0,0,237,144a2.61,2.61,0,0,0-2-.83,3.71,3.71,0,0,0-2,.61,5,5,0,0,0-1.52,1.49,1.6,1.6,0,0,1-.28.31.56.56,0,0,1-.36.14c-.1,0-.18-.08-.27-.23a1.16,1.16,0,0,1-.12-.56,2.08,2.08,0,0,1,.41-1,6.49,6.49,0,0,1,1.18-1.27,7,7,0,0,1,1.79-1.09,5.52,5.52,0,0,1,2.23-.45,4.54,4.54,0,0,1,2.41.61,4,4,0,0,1,1.53,1.64,5.29,5.29,0,0,1,.24,4,8.62,8.62,0,0,1-.77,1.73,9.52,9.52,0,0,1-1.06,1.54c-.24.3-.59.68-1,1.15l-1.45,1.46c-.51.52-1,1-1.47,1.46l-1.13,1.13a2.66,2.66,0,0,0-.43.5c0,.08.13.13.39.17s.71.07,1.13.08.87,0,1.36,0,1,0,1.49,0,1,0,1.44-.08a7.15,7.15,0,0,0,1.2-.17,1.58,1.58,0,0,0,.77-.42,3.75,3.75,0,0,0,.63-.86,3.71,3.71,0,0,1,.31-.39.56.56,0,0,1,.42-.23.22.22,0,0,1,.22.14.46.46,0,0,1,0,.28c-.06.22-.15.52-.28.9s-.26.76-.39,1.18a11.08,11.08,0,0,0-.31,1.19.7.7,0,0,1-.27.52A.73.73,0,0,1,240.64,158.82Z"/><path d="M262.51,149.06a21.07,21.07,0,0,1-.35,4.05,9.25,9.25,0,0,1-1.16,3.15,5.68,5.68,0,0,1-2.12,2,7.64,7.64,0,0,1-6.3.08,5.09,5.09,0,0,1-2-1.91,8.77,8.77,0,0,1-1.08-3.1,25.27,25.27,0,0,1-.32-4.22,21.11,21.11,0,0,1,.36-4.05,9.23,9.23,0,0,1,1.16-3.16,5.58,5.58,0,0,1,2.11-2,6.63,6.63,0,0,1,3.22-.72,6.53,6.53,0,0,1,3.08.65,4.93,4.93,0,0,1,2,1.9,8.84,8.84,0,0,1,1.08,3.1A24.29,24.29,0,0,1,262.51,149.06Zm-2.62.17c0-1,0-1.82-.1-2.59a14.39,14.39,0,0,0-.31-2,6.75,6.75,0,0,0-.52-1.52,3.48,3.48,0,0,0-.77-1,2.93,2.93,0,0,0-1-.6,4.28,4.28,0,0,0-1.29-.18,3.35,3.35,0,0,0-2,.59,4.1,4.1,0,0,0-1.25,1.64A8.78,8.78,0,0,0,252,146a28.07,28.07,0,0,0-.16,3,27.06,27.06,0,0,0,.22,3.67,8.11,8.11,0,0,0,.71,2.46,3.21,3.21,0,0,0,1.24,1.39,3.58,3.58,0,0,0,1.82.43,3.71,3.71,0,0,0,1.47-.27,3,3,0,0,0,1.09-.76,4.52,4.52,0,0,0,.75-1.2,8.53,8.53,0,0,0,.48-1.55,12.62,12.62,0,0,0,.24-1.84C259.87,150.64,259.89,150,259.89,149.23Z"/><path d="M283.56,135.7h1c0,.31,0,.7,0,1.19s-.06,1-.12,1.5-.13,1-.21,1.45a6.53,6.53,0,0,1-.25,1h-8.36l-.55,4.36h2.54a9.38,9.38,0,0,1,3,.45,6.39,6.39,0,0,1,2.29,1.28,5.78,5.78,0,0,1,1.46,2,6.9,6.9,0,0,1,.52,2.76,7,7,0,0,1-.66,3.1,6.59,6.59,0,0,1-1.78,2.29,8,8,0,0,1-2.66,1.43,10.27,10.27,0,0,1-3.29.51,8.89,8.89,0,0,1-3.24-.57,9.14,9.14,0,0,1-2.35-1.26l1.29-3h.88c.14.15.31.33.49.55l.58.71c.2.24.4.48.58.73s.34.46.49.64a4,4,0,0,0,.56.18,3.14,3.14,0,0,0,.69.06,4.41,4.41,0,0,0,1.71-.32,3.72,3.72,0,0,0,1.35-.9,4.17,4.17,0,0,0,.9-1.39,4.45,4.45,0,0,0,.34-1.78,4.16,4.16,0,0,0-.41-1.88,3.69,3.69,0,0,0-1.12-1.32,4.71,4.71,0,0,0-1.64-.78,7.24,7.24,0,0,0-2-.26l-2.65,0,1.22-11.14h8Z"/><path d="M307.07,140.56a3.68,3.68,0,0,1,0,.49,2.7,2.7,0,0,1-.06.41,2.22,2.22,0,0,1-.1.39,4.16,4.16,0,0,1-.16.4l-6.94,16a.86.86,0,0,1-.19.29.85.85,0,0,1-.28.18,2,2,0,0,1-.44.09l-.65,0a7.42,7.42,0,0,1-.79,0,1,1,0,0,1-.41-.15.23.23,0,0,1-.11-.23,1.06,1.06,0,0,1,.1-.34l7.3-16.36h-9.25a.46.46,0,0,1-.43-.3,2,2,0,0,1-.14-.83,2.37,2.37,0,0,1,0-.49,1,1,0,0,1,.11-.35.48.48,0,0,1,.18-.21.4.4,0,0,1,.24-.07h11.23a2,2,0,0,1,.37,0,.48.48,0,0,1,.24.18,1.3,1.3,0,0,1,.12.35A2.5,2.5,0,0,1,307.07,140.56Z"/></svg>