<svg id="Слой_1" data-name="Слой 1" xmlns="http://www.w3.org/2000/svg" viewBox="0 0 400 400"><defs><style>.cls-1,.cls-2{fill:#fff;stroke:#000;stroke-width:3px;}.cls-1{stroke-miterlimit:10;}.cls-2{stroke-linecap:round;stroke-linejoin:round;}.cls-3{fill:#b8ad99;}</style></defs><title>g46</title><path class="cls-1" d="M351.15,382H57.83S6,131.26,57.83,77.42s247.23-59.23,293.32,0S351.15,382,351.15,382Z"/><path class="cls-1" d="M295.29,281.11c9.22-6,10.71-25.12,4.26-29.77-3.13-2.24-5.83.54-10.1-1.59-7.09-3.54-10.94-16.87-6.38-24.45,4.1-6.82,11.57-3.33,21.79-11.16.67-.51,14.89-11.68,12.75-22.33-1.84-9.23-14-8.23-20.72-22.32-2.81-5.9-2.71-10.33-5.85-11.16-3.77-1-9.73,3.87-11.16,9.56-2,7.85,6.18,11.13,6.37,19.67.27,11.38-13.88,20.34-27.1,28.7-11.75,7.44-18.13,11.48-26.58,10.63-11.25-1.12-12.89-9.59-26-16.47-15.23-8-30.78-5.91-47.31-3.73-17.42,2.31-31,4.12-43,14.89C98,237.84,96.61,262.86,96.51,265.16c-.78,18.18,7.32,26.39,1.06,36.15C90.84,311.8,75.25,312,75.78,315.66c.38,2.59,8.54,3.77,14.35,3.19,2.09-.21,11.39-1.41,16.48-8.51,1.24-1.74.84-1.88,3.71-8.5,3.28-7.55,4.12-8.08,5.85-12.23,4.94-11.84,2.3-17.53,6.38-19.66,3.57-1.87,8.65.9,11.16,3.19,6.14,5.58,5.9,16.34,1.6,20.19-3,2.65-7,1.25-8.51,4.26-1.44,2.79.78,6.44,1.07,6.9,2.43,3.88,7.69,5.79,12.22,5.32,7.77-.8,9.53-8.17,15.41-8,4.08.13,6.47,3.79,10.1,8,4.75,5.47,16.75,19.3,28.71,20.73s16.62-10.43,28.7-8.5c8.42,1.34,10.81,12.4,15.94,11.16,3.46-.84,3-5.47,8-8,3.59-1.82,7.23-1.13,12.76,0,11.36,2.33,12.07,5.95,17.54,5.32,6.87-.8,12.21-7.26,14.35-12.76.93-2.37,3.11-8,.53-12.22-3.2-5.27-10.54-3.15-12.75-8-1.64-3.57.65-8.48,3.19-11.17C286.57,282.15,290.66,284.1,295.29,281.11Z"/><line class="cls-2" x1="178.77" y1="285.34" x2="186.89" y2="276.55"/><polyline class="cls-2" points="170.66 247.86 179.7 247.86 179.7 241.98 189.39 241.98 189.39 235.62 197.14 235.62 197.14 229.74 205.54 229.74"/><rect class="cls-2" x="223.59" y="245.97" width="22.52" height="22.52" transform="translate(-113.1 241.4) rotate(-45)"/><path class="cls-1" d="M158.74,298c-1.33-14.37,13.49-27.47,33.14-29.29"/><path class="cls-2" d="M191.92,301.19c9.59,6.22,13.68,5.75,15.66,4.44,5.58-3.69-1.06-17,6-23.49,4-3.71,11.4-3.68,15.14-.53,6.47,5.46-1.61,19.14,4.44,24.28,2.27,1.92,6.74,2.69,16.18-1.31"/><line class="cls-2" x1="220.63" y1="279.27" x2="220.63" y2="307.45"/><polygon class="cls-3" points="174.31 286.78 176.5 283.96 176.37 287.53 179.86 286.78 177.47 289.43 180.62 291.09 177.09 291.58 178.43 294.89 175.41 292.99 174.31 296.39 173.22 292.99 170.19 294.89 171.54 291.58 168 291.09 171.16 289.43 168.76 286.78 172.25 287.53 172.12 283.96 174.31 286.78"/><polygon points="187.35 279.69 186.74 279.69 186.73 276.72 183.77 276.94 183.72 276.34 187.34 276.07 187.35 279.69"/><polygon class="cls-3" points="229.08 254.63 230.97 252.19 230.86 255.27 233.87 254.63 231.81 256.91 234.53 258.35 231.48 258.77 232.64 261.63 230.03 259.99 229.08 262.92 228.14 259.99 225.53 261.63 226.69 258.77 223.64 258.35 226.36 256.91 224.29 254.63 227.31 255.27 227.19 252.19 229.08 254.63"/><polygon class="cls-3" points="241.11 254.63 243 252.19 242.88 255.27 245.9 254.63 243.83 256.91 246.55 258.35 243.5 258.77 244.66 261.63 242.05 259.99 241.11 262.92 240.16 259.99 237.55 261.63 238.71 258.77 235.66 258.35 238.38 256.91 236.31 254.63 239.33 255.27 239.21 252.19 241.11 254.63"/><polygon class="cls-3" points="171.55 235.78 174.04 232.57 173.9 236.63 177.87 235.78 175.14 238.79 178.73 240.69 174.71 241.25 176.24 245.01 172.8 242.85 171.55 246.71 170.31 242.85 166.87 245.01 168.4 241.25 164.37 240.69 167.96 238.79 165.24 235.78 169.21 236.63 169.06 232.57 171.55 235.78"/><polyline points="231.75 304.55 231.75 304.55 231.75 304.52 231.72 304.53 231.72 304.53 231.72 304.53 231.75 304.51 231.75 304.51 231.75 304.52 231.75 304.55 231.75 304.55 231.75 304.55"/><path d="M116.12,110.83c-6.25,0-10.27-4.37-10.27-10.88s4-10.85,10.27-10.85,10.27,4.34,10.27,10.85S122.37,110.83,116.12,110.83Zm0-3.3c3.27,0,6-2.63,6-7.58s-2.72-7.55-6-7.55-6,2.63-6,7.55S112.85,107.53,116.12,107.53Z"/><path d="M133.92,110.5a1.12,1.12,0,0,1-.44-1c0-.78.47-1.16,1.42-1.16h.66c1.18,0,2.2-.75,3.05-2.25a18.56,18.56,0,0,0,1.93-5.59,34.64,34.64,0,0,0,.64-6.57,3.25,3.25,0,0,0-.61-2.2,3.37,3.37,0,0,0-2.48-.68c-.06,0-.1-.06-.1-.19s0-.18.1-.18h15.38c.05,0,.07.06.07.18s0,.19-.07.19a6,6,0,0,0-1.72.18,1.16,1.16,0,0,0-.76.61,3.68,3.68,0,0,0-.2,1.39v14.63a3.83,3.83,0,0,0,.2,1.41,1.11,1.11,0,0,0,.76.61,6.57,6.57,0,0,0,1.72.16c.05,0,.07.06.07.19s0,.19-.07.19c-.67,0-1.21,0-1.61,0l-2.24,0-2.34,0c-.38,0-.93,0-1.64,0,0,0-.06-.06-.06-.19s0-.19.06-.19a6.59,6.59,0,0,0,1.74-.16,1,1,0,0,0,.72-.6,3.79,3.79,0,0,0,.19-1.42V93.49a5.55,5.55,0,0,0-.11-1.43.63.63,0,0,0-.5-.44,9,9,0,0,0-1.6-.09h-1.74a5,5,0,0,0-1.42.15,1.14,1.14,0,0,0-.69.67A4.22,4.22,0,0,0,142,94a46,46,0,0,1-.62,7.14,21.79,21.79,0,0,1-2.16,6.81q-1.56,2.93-4.11,2.92A1.94,1.94,0,0,1,133.92,110.5Z"/><path d="M163.07,110.91a6,6,0,0,1-1.39-.13,2.78,2.78,0,0,1-.87-.33.66.66,0,0,1-.16-.17.44.44,0,0,1-.07-.24.43.43,0,0,1,.1-.27.3.3,0,0,1,.25-.13,2.89,2.89,0,0,0,1.5-.45,6.25,6.25,0,0,0,1.48-1.31,17.56,17.56,0,0,0,1.47-2.12,16,16,0,0,1,1.9-2.59,4.73,4.73,0,0,1,2.27-1.49c.08,0,.1-.07.09-.11s-.12-.07-.29-.09a4.93,4.93,0,0,1-3.79-2.65,4.58,4.58,0,0,1-.52-2.12,4.69,4.69,0,0,1,.92-3A5.27,5.27,0,0,1,168.54,92a11.84,11.84,0,0,1,3.7-.54c.52,0,1,0,1.33,0l1,.1a9.23,9.23,0,0,0,1.1.06q.64,0,1.14,0l1.08,0c.37,0,.8,0,1.28,0a1.66,1.66,0,0,1,.54.08.32.32,0,0,1,.22.29c0,.27-.28.47-.84.58a3.32,3.32,0,0,0-1.55.65,1.86,1.86,0,0,0-.45,1.41v13.07a1.74,1.74,0,0,0,.52,1.42,3.58,3.58,0,0,0,1.59.64c.6.12.9.3.9.55s-.08.23-.25.29a1.72,1.72,0,0,1-.59.08c-.56,0-1,0-1.4,0l-1.06-.09c-.33,0-.7,0-1.13,0s-.85,0-1.21,0l-1.17.09c-.42,0-.9,0-1.44,0a1.49,1.49,0,0,1-.59-.1c-.16-.06-.25-.16-.25-.27a.37.37,0,0,1,.24-.35,2.61,2.61,0,0,1,.66-.2,5.6,5.6,0,0,0,1.19-.42,1.59,1.59,0,0,0,.68-.65,2.13,2.13,0,0,0,.21-1l0-5.15q0-.57-.18-.66a2.16,2.16,0,0,0-.77-.09,1.31,1.31,0,0,0-.67.21c-.23.13-.47.27-.72.43a6.13,6.13,0,0,0-1.88,2q-.87,1.38-1.8,2.79a16,16,0,0,1-1.37,1.84,6.8,6.8,0,0,1-1.62,1.39A3.81,3.81,0,0,1,163.07,110.91Zm9.14-10.21a3.69,3.69,0,0,0,1.33-.2.87.87,0,0,0,.49-.9V94.42a1.8,1.8,0,0,0-.55-1.47,2.18,2.18,0,0,0-1.47-.47,4,4,0,0,0-1.93.48,3.65,3.65,0,0,0-1.4,1.36,4.1,4.1,0,0,0-.52,2.13,4.39,4.39,0,0,0,1,3.19A4,4,0,0,0,172.21,100.7Z"/><path d="M209.88,89.56a7.64,7.64,0,0,1,3.14.56,11.17,11.17,0,0,1,2.19,1.32c.38.29.68.32.88.1a3.11,3.11,0,0,0,.42-1.58h.66c0,.72-.06,1.59-.08,2.61s0,2.37,0,4.05h-.67c-.13-.83-.26-1.49-.37-2a7.13,7.13,0,0,0-.42-1.26,5.58,5.58,0,0,0-.65-1,5.1,5.1,0,0,0-2.26-1.72,7.71,7.71,0,0,0-2.87-.54,4.81,4.81,0,0,0-2.56.71,6.1,6.1,0,0,0-2,2A10.93,10.93,0,0,0,204,96a18.18,18.18,0,0,0-.45,4.23,16.74,16.74,0,0,0,.5,4.29,9.65,9.65,0,0,0,1.37,3.14,6.13,6.13,0,0,0,2.08,1.93,5.41,5.41,0,0,0,2.59.65,8,8,0,0,0,2.72-.52,4.57,4.57,0,0,0,2.23-1.68,4.85,4.85,0,0,0,.88-1.83,20.4,20.4,0,0,0,.45-2.74h.67c0,1.75,0,3.16,0,4.24s0,2,.08,2.7h-.66a3.29,3.29,0,0,0-.39-1.56c-.19-.21-.49-.18-.91.08a14.28,14.28,0,0,1-2.27,1.32,7.26,7.26,0,0,1-3.09.57,9.14,9.14,0,0,1-4.81-1.25,8.35,8.35,0,0,1-3.22-3.59,14.31,14.31,0,0,1,.05-11.31,9.3,9.3,0,0,1,3.25-3.79A8.45,8.45,0,0,1,209.88,89.56Z"/><path d="M234.77,90v.58a4.5,4.5,0,0,0-1.38.22,1.07,1.07,0,0,0-.64.7A6,6,0,0,0,232.6,93v14.35a6.11,6.11,0,0,0,.15,1.57,1,1,0,0,0,.64.69,5.14,5.14,0,0,0,1.38.23v.58c-.53,0-1.18-.06-2-.07l-2.4,0-2.61,0c-.81,0-1.46,0-2,.07v-.58a4.93,4.93,0,0,0,1.38-.23,1,1,0,0,0,.63-.69,6,6,0,0,0,.16-1.57V93a5.86,5.86,0,0,0-.16-1.57,1.07,1.07,0,0,0-.64-.7,4.48,4.48,0,0,0-1.37-.22V90l2,.06q1.22,0,2.61,0,1.22,0,2.4,0Zm6.65,1.6c0,.4,0,.82,0,1.24l-9.66,16.35-.27-.81Zm6.19-1.6v.58a4.42,4.42,0,0,0-1.37.22,1.07,1.07,0,0,0-.64.7,5.86,5.86,0,0,0-.16,1.57v14.35a6,6,0,0,0,.16,1.57,1,1,0,0,0,.64.69,5.06,5.06,0,0,0,1.37.23v.58c-.5,0-1.15-.06-2-.07l-2.61,0-2.41,0c-.81,0-1.46,0-2,.07v-.58a5.14,5.14,0,0,0,1.38-.23,1,1,0,0,0,.63-.69,5.61,5.61,0,0,0,.16-1.57V93a5.47,5.47,0,0,0-.16-1.57,1.05,1.05,0,0,0-.63-.7,4.5,4.5,0,0,0-1.38-.22V90l2,.06c.79,0,1.6,0,2.41,0s1.79,0,2.61,0Z"/><path d="M278.34,90v.58a5.1,5.1,0,0,0-1.49.22,1.1,1.1,0,0,0-.68.7A5.06,5.06,0,0,0,276,93v14.35a5.19,5.19,0,0,0,.17,1.57,1.06,1.06,0,0,0,.68.69,5.81,5.81,0,0,0,1.49.23v.58c-.44,0-1-.06-1.66-.07l-2,0-2.12,0c-.65,0-1.18,0-1.59.07v-.58a5.81,5.81,0,0,0,1.49-.23,1,1,0,0,0,.68-.69,5.13,5.13,0,0,0,.18-1.57V91.47l.11.09-7.09,19h-.46l-7.29-18.77v15.27a5.49,5.49,0,0,0,.19,1.64,1.31,1.31,0,0,0,.75.84,5.23,5.23,0,0,0,1.69.3v.58c-.35,0-.8-.06-1.36-.07l-1.59,0-1.46,0c-.49,0-.9,0-1.23.07v-.58a4.26,4.26,0,0,0,1.49-.3,1.32,1.32,0,0,0,.68-.84,6.37,6.37,0,0,0,.17-1.64V93a5.39,5.39,0,0,0-.17-1.57,1.1,1.1,0,0,0-.68-.7,5.16,5.16,0,0,0-1.49-.22V90l1.23.06,1.46,0,1.32,0,1.14-.06,6.57,17.31-.5.23,6.52-17.45h1.36q1,0,2,0Z"/><path d="M116.34,140.17l-.7,0-1.2,0-1.4-.06-1.33,0-1.52,0-1.91,0-1.68,0h-.91a.82.82,0,0,1-.33-.17c-.17-.12-.25-.22-.25-.32a.34.34,0,0,1,.09-.26l.2-.2,4.69-5a13.74,13.74,0,0,0,2.36-3.36,8.51,8.51,0,0,0,.88-3.76,3.17,3.17,0,0,0-.81-2.27,2.68,2.68,0,0,0-2-.85,3.73,3.73,0,0,0-2.09.62,5.09,5.09,0,0,0-1.58,1.55,1.41,1.41,0,0,1-.29.31.57.57,0,0,1-.38.15c-.09,0-.18-.08-.27-.23a1.16,1.16,0,0,1-.13-.58,2.1,2.1,0,0,1,.43-1,6.61,6.61,0,0,1,1.22-1.31,7.2,7.2,0,0,1,1.85-1.13,5.71,5.71,0,0,1,2.31-.47,4.7,4.7,0,0,1,2.49.63,4,4,0,0,1,1.59,1.7,5.39,5.39,0,0,1,.55,2.48,5.5,5.5,0,0,1-.3,1.7,10.45,10.45,0,0,1-1.9,3.39c-.25.31-.61.7-1.08,1.19l-1.51,1.51c-.53.54-1,1-1.51,1.51s-.88.86-1.18,1.17a2.3,2.3,0,0,0-.44.52c0,.08.13.14.4.18l1.17.08c.44,0,.9,0,1.41,0s1,0,1.54,0l1.49-.08a7.55,7.55,0,0,0,1.25-.18,1.66,1.66,0,0,0,.79-.43,3.61,3.61,0,0,0,.65-.9c.08-.11.19-.25.32-.4a.58.58,0,0,1,.44-.24.23.23,0,0,1,.23.15.49.49,0,0,1,0,.29c-.06.23-.16.54-.29.92s-.27.8-.41,1.23-.24.85-.32,1.23a.7.7,0,0,1-.27.54A.72.72,0,0,1,116.34,140.17Z"/><path d="M139,130.05a22.52,22.52,0,0,1-.36,4.2,9.33,9.33,0,0,1-1.21,3.26,5.93,5.93,0,0,1-2.19,2.12,6.86,6.86,0,0,1-3.35.75,6.76,6.76,0,0,1-3.17-.68,5.17,5.17,0,0,1-2.08-2,9.33,9.33,0,0,1-1.11-3.21,24.78,24.78,0,0,1-.34-4.37,22.6,22.6,0,0,1,.37-4.19,9.8,9.8,0,0,1,1.21-3.27,5.76,5.76,0,0,1,2.19-2.11,7.85,7.85,0,0,1,6.52-.08,5.22,5.22,0,0,1,2.07,2,9.33,9.33,0,0,1,1.12,3.21A25.85,25.85,0,0,1,139,130.05Zm-2.71.19c0-1,0-1.89-.11-2.68a15.33,15.33,0,0,0-.32-2.1,7,7,0,0,0-.54-1.57,3.87,3.87,0,0,0-.79-1.08,2.75,2.75,0,0,0-1.06-.61,4.27,4.27,0,0,0-1.33-.2,3.43,3.43,0,0,0-2.13.62,4.08,4.08,0,0,0-1.29,1.7,8.92,8.92,0,0,0-.64,2.53,30.1,30.1,0,0,0,.06,6.91,8.42,8.42,0,0,0,.73,2.56,3.34,3.34,0,0,0,1.28,1.43,4.23,4.23,0,0,0,3.41.17,3.21,3.21,0,0,0,1.13-.79,4.67,4.67,0,0,0,.78-1.24,9,9,0,0,0,.49-1.61,14.78,14.78,0,0,0,.26-1.9C136.24,131.69,136.27,131,136.27,130.24Z"/><path d="M161.31,130.05a22.52,22.52,0,0,1-.36,4.2,9.53,9.53,0,0,1-1.2,3.26,6,6,0,0,1-2.2,2.12,6.86,6.86,0,0,1-3.35.75,6.76,6.76,0,0,1-3.17-.68,5.17,5.17,0,0,1-2.08-2,9.33,9.33,0,0,1-1.11-3.21,25.77,25.77,0,0,1-.34-4.37,21.74,21.74,0,0,1,.38-4.19,9.59,9.59,0,0,1,1.2-3.27,5.76,5.76,0,0,1,2.19-2.11,7.85,7.85,0,0,1,6.52-.08,5.22,5.22,0,0,1,2.07,2,9.12,9.12,0,0,1,1.12,3.21A25.85,25.85,0,0,1,161.31,130.05Zm-2.71.19c0-1,0-1.89-.11-2.68a15.33,15.33,0,0,0-.32-2.1,7,7,0,0,0-.54-1.57,3.87,3.87,0,0,0-.79-1.08,2.75,2.75,0,0,0-1.06-.61,4.27,4.27,0,0,0-1.33-.2,3.43,3.43,0,0,0-2.13.62,4.08,4.08,0,0,0-1.29,1.7,8.92,8.92,0,0,0-.64,2.53,30.1,30.1,0,0,0,.06,6.91,8.71,8.71,0,0,0,.73,2.56,3.34,3.34,0,0,0,1.28,1.43,4.23,4.23,0,0,0,3.41.17,3.12,3.12,0,0,0,1.13-.79,4.67,4.67,0,0,0,.78-1.24,9,9,0,0,0,.49-1.61,13.21,13.21,0,0,0,.26-1.9C158.57,131.69,158.6,131,158.6,130.24Z"/><path d="M183.64,130.05a22.52,22.52,0,0,1-.36,4.2,9.53,9.53,0,0,1-1.2,3.26,6,6,0,0,1-2.2,2.12,6.86,6.86,0,0,1-3.35.75,6.78,6.78,0,0,1-3.17-.68,5.09,5.09,0,0,1-2.07-2,9.12,9.12,0,0,1-1.12-3.21,25.85,25.85,0,0,1-.33-4.37,21.78,21.78,0,0,1,.37-4.19,9.59,9.59,0,0,1,1.2-3.27,5.76,5.76,0,0,1,2.19-2.11,7.85,7.85,0,0,1,6.52-.08,5.15,5.15,0,0,1,2.07,2,9.12,9.12,0,0,1,1.12,3.21A25.85,25.85,0,0,1,183.64,130.05Zm-2.71.19c0-1,0-1.89-.11-2.68a15.33,15.33,0,0,0-.32-2.1,7,7,0,0,0-.54-1.57,3.87,3.87,0,0,0-.79-1.08,2.75,2.75,0,0,0-1.06-.61,4.22,4.22,0,0,0-1.33-.2,3.43,3.43,0,0,0-2.13.62,4.08,4.08,0,0,0-1.29,1.7,8.92,8.92,0,0,0-.64,2.53,30.1,30.1,0,0,0,.06,6.91,8.71,8.71,0,0,0,.73,2.56,3.4,3.4,0,0,0,1.28,1.43,4.23,4.23,0,0,0,3.41.17,3.12,3.12,0,0,0,1.13-.79,4.67,4.67,0,0,0,.78-1.24,9,9,0,0,0,.49-1.61,13.21,13.21,0,0,0,.26-1.9C180.9,131.69,180.93,131,180.93,130.24Z"/><path d="M192.07,135.16c-.12,0-.18,0-.18-.17a4.44,4.44,0,0,1,.13-1c.09-.35.2-.53.34-.55.92-.14,1.85-.27,2.77-.39s1.86-.24,2.78-.34a.3.3,0,0,1,.16.05.14.14,0,0,1,.07.13,3.7,3.7,0,0,1-.13,1c-.08.32-.24.5-.47.54-.87.14-1.75.27-2.65.39S193.05,135.07,192.07,135.16Z"/><path d="M217.21,140.17l-.69,0-1.2,0-1.41-.06-1.33,0-1.52,0-1.91,0-1.67,0h-.92a.89.89,0,0,1-.33-.17c-.16-.12-.25-.22-.25-.32a.34.34,0,0,1,.09-.26l.2-.2,4.69-5a13.48,13.48,0,0,0,2.36-3.36,8.37,8.37,0,0,0,.88-3.76,3.17,3.17,0,0,0-.81-2.27,2.66,2.66,0,0,0-2-.85,3.76,3.76,0,0,0-2.1.62,5.19,5.19,0,0,0-1.58,1.55,1.41,1.41,0,0,1-.29.31.55.55,0,0,1-.37.15c-.1,0-.19-.08-.28-.23a1.16,1.16,0,0,1-.13-.58,2.13,2.13,0,0,1,.44-1,6.25,6.25,0,0,1,1.21-1.31,7.2,7.2,0,0,1,1.85-1.13,5.8,5.8,0,0,1,2.32-.47,4.75,4.75,0,0,1,2.49.63,4.14,4.14,0,0,1,1.59,1.7,5.52,5.52,0,0,1,.55,2.48,5.25,5.25,0,0,1-.31,1.7,10.25,10.25,0,0,1-.79,1.8,10.9,10.9,0,0,1-1.1,1.59c-.25.31-.62.7-1.09,1.19l-1.5,1.51c-.53.54-1,1-1.52,1.51s-.87.86-1.17,1.17a2.56,2.56,0,0,0-.45.52c0,.08.13.14.4.18l1.18.08c.43,0,.9,0,1.4,0s1,0,1.55,0l1.49-.08a7.41,7.41,0,0,0,1.24-.18,1.74,1.74,0,0,0,.8-.43,3.61,3.61,0,0,0,.65-.9,2.92,2.92,0,0,1,.32-.4.56.56,0,0,1,.43-.24.22.22,0,0,1,.23.15.49.49,0,0,1,0,.29c-.06.23-.15.54-.29.92s-.27.8-.4,1.23a10.22,10.22,0,0,0-.32,1.23.71.71,0,0,1-.28.54A.69.69,0,0,1,217.21,140.17Z"/><path d="M239.85,130.05a22.52,22.52,0,0,1-.36,4.2,9.53,9.53,0,0,1-1.2,3.26,6,6,0,0,1-2.2,2.12,6.86,6.86,0,0,1-3.35.75,6.78,6.78,0,0,1-3.17-.68,5.09,5.09,0,0,1-2.07-2,9.12,9.12,0,0,1-1.12-3.21,25.85,25.85,0,0,1-.33-4.37,21.78,21.78,0,0,1,.37-4.19,9.59,9.59,0,0,1,1.2-3.27,5.9,5.9,0,0,1,2.19-2.11,7.85,7.85,0,0,1,6.52-.08,5.15,5.15,0,0,1,2.07,2,9.12,9.12,0,0,1,1.12,3.21A25.85,25.85,0,0,1,239.85,130.05Zm-2.71.19c0-1,0-1.89-.11-2.68a15.33,15.33,0,0,0-.32-2.1,6.55,6.55,0,0,0-.54-1.57,3.87,3.87,0,0,0-.79-1.08,2.75,2.75,0,0,0-1.06-.61A4.22,4.22,0,0,0,233,122a3.43,3.43,0,0,0-2.13.62,4.16,4.16,0,0,0-1.29,1.7,8.92,8.92,0,0,0-.64,2.53,30.1,30.1,0,0,0,.06,6.91,8.4,8.4,0,0,0,.74,2.56,3.28,3.28,0,0,0,1.28,1.43,3.72,3.72,0,0,0,1.89.45,3.82,3.82,0,0,0,1.52-.28,3.17,3.17,0,0,0,1.12-.79,4.67,4.67,0,0,0,.78-1.24,8.21,8.21,0,0,0,.49-1.61,13.21,13.21,0,0,0,.26-1.9C237.11,131.69,237.14,131,237.14,130.24Z"/><path d="M248.44,134.87c0-2.59,1.54-4.42,4.07-5.5l0-.09a5.07,5.07,0,0,1-3.25-4.61c0-3.25,2.74-5.47,6.34-5.47,4,0,6,2.5,6,5.06,0,1.74-.85,3.6-3.38,4.8v.09c2.56,1,4.14,2.81,4.14,5.31,0,3.57-3.06,6-7,6C251,140.43,248.44,137.87,248.44,134.87Zm11.05-.13c0-2.49-1.74-3.69-4.52-4.48-2.4.69-3.69,2.27-3.69,4.23a3.79,3.79,0,0,0,4.1,3.92C257.88,138.41,259.49,136.86,259.49,134.74Zm-7.64-10.26c0,2,1.54,3.16,3.91,3.79,1.77-.6,3.13-1.86,3.13-3.73a3.19,3.19,0,0,0-3.47-3.35A3.27,3.27,0,0,0,251.85,124.48Z"/><path d="M274.3,140.08V124.4h-4.51v-2.72c3-.08,4.49-.29,5.47-2.57h3v21Z"/></svg>