<svg id="Слой_1" data-name="Слой 1" xmlns="http://www.w3.org/2000/svg" viewBox="0 0 400 400"><defs><style>.cls-1,.cls-2{fill:#fff;stroke:#000;stroke-width:3px;}.cls-1{stroke-miterlimit:10;}.cls-2{stroke-linecap:round;stroke-linejoin:round;}.cls-3{fill:#b8ad99;}.cls-4{fill:#608b70;}</style></defs><title>g47</title><path class="cls-1" d="M332.31,382H73.55s-45.74-249.8,0-303.45,218.1-59,258.76,0S332.31,382,332.31,382Z"/><path class="cls-1" d="M214.5,149.69c-5.27-4-14.16-3.91-20.05-2.13-8.46,2.57-8,7.77-18.38,14.84-9.73,6.61-13.21,4.14-21.73,9.9-9.91,6.7-10,13.26-16.71,21.9-3.36,4.29-15.56,17.2-34.25,21.2-11.13,2.38-14.25-.7-20.89,2.83-10.1,5.35-15.36,19.07-10.86,29,3.57,7.86,10.54,7.25,26.73,18.37,12.81,8.8,24.94,17.12,27.57,29,3.57,16-9.23,19.26-4.17,23.44,4.56,3.78,18,5.6,29.24-2.24,12.26-8.53,10.71-13.49,20.89-18.37,16.77-8.06,35.87-1.73,36.76-1.42,12.15,4.21,18.48,12.44,22.56,17.67,9.49,12.17,5.43,16.89,12.53,21.9,12.35,8.72,37.22,3.36,52.64-5.65,3.69-2.15,12.39-7.36,18.38-17,14.95-23.93-9.64-38.74-10-86.91-.14-16.69,2.7-30-7.52-36.75-8.58-5.67-17.57-.94-25.9-7.06-13.56-10-4.06-32.95-10-34.63-2.74-.76-6.45,7.88-20.05,21.2-3.29,3.22-6.54,6.13-10,5.66-2-.27-3.81-1.61-7.52-7.78C217.12,155.72,218.56,152.76,214.5,149.69Z"/><polyline class="cls-1" points="204.85 260.06 196.29 242.45 187.73 260.06"/><path class="cls-2" d="M227.91,254.78c-.33-6.63,1.5-9.23,3-10.42,5.12-3.93,14.11,2.37,18.67-1.73,2.07-1.87,2.24-5,2.17-6.95"/><path class="cls-2" d="M226.61,232.21c1,2.14,2.82,5.15,6.08,6.51,5.29,2.2,9.58-2,13.89-.43,2.83,1,6.13,4.65,7.38,16.92"/><path class="cls-2" d="M236.16,256.08c3.73-1.9,5.09-4,5.64-5.64,2.22-6.36-5.48-12.12-3.47-19.1a11.57,11.57,0,0,1,4.78-6.08"/><polygon class="cls-1" points="124.09 257.2 145.94 218.27 166.92 257.2 124.09 257.2"/><polygon class="cls-3" points="194.44 222.24 196.4 216.19 198.34 222.24 203.73 218.87 201.33 224.75 207.63 225.63 202 228.6 206.26 233.32 200.05 231.98 200.28 238.33 196.38 233.31 192.47 238.32 192.71 231.97 186.5 233.3 190.76 228.59 185.15 225.61 191.45 224.74 189.06 218.85 194.44 222.24"/><path class="cls-4" d="M248.47,230.56a2.9,2.9,0,1,1-4-.78,2.9,2.9,0,0,1,4,.78"/><path class="cls-4" d="M154.55,245.06a9.26,9.26,0,1,1-9.25-9.25,9.26,9.26,0,0,1,9.25,9.25"/><path d="M127.66,96.43a1.63,1.63,0,0,1-.49-.06c-.12,0-.19-.1-.19-.2a.28.28,0,0,1,.19-.25,2.43,2.43,0,0,1,.58-.17,2.68,2.68,0,0,0,1.34-.56,1.57,1.57,0,0,0,.47-1.24V85c0-.71,0-1.26-.05-1.64a2.68,2.68,0,0,0-.15-.8.38.38,0,0,0-.29-.25,3,3,0,0,0-.68-.08l-1,0h-1.08a3,3,0,0,0-1.1.22,1.52,1.52,0,0,0-.8.69q-.07.12-.24.33a2.16,2.16,0,0,1-.34.39.63.63,0,0,1-.37.16.12.12,0,0,1-.13-.09.49.49,0,0,1,0-.21,1,1,0,0,1,.12-.47,6.92,6.92,0,0,0,.47-1.19,8.19,8.19,0,0,0,.25-1.24c0-.26.09-.42.17-.46a.46.46,0,0,1,.22-.07c.06,0,.16.09.29.28a3.57,3.57,0,0,1,.29.46,1,1,0,0,0,.64.35,4.75,4.75,0,0,0,1,.11h8.16a7.86,7.86,0,0,0,1.32-.09,3.68,3.68,0,0,0,.88-.26,1.6,1.6,0,0,0,.45-.3.69.69,0,0,1,.46-.16s.08.06.11.17a1.49,1.49,0,0,1,.05.36,1.6,1.6,0,0,1,0,.33c0,.14,0,.25,0,.32a5.85,5.85,0,0,1-.13.61,1.65,1.65,0,0,0-.08.32,2.29,2.29,0,0,0,0,.44v.28a1.44,1.44,0,0,1-.09.47c-.06.18-.15.27-.28.27s-.19-.08-.25-.25a5.5,5.5,0,0,1-.19-.7,1.16,1.16,0,0,0-.55-.78,3.2,3.2,0,0,0-1.58-.29h-2.34a1.66,1.66,0,0,0-.76.14c-.18.1-.28.33-.33.7a15.75,15.75,0,0,0-.07,1.83V94a1.51,1.51,0,0,0,.49,1.24,2.8,2.8,0,0,0,1.34.56,2.43,2.43,0,0,1,.58.17.27.27,0,0,1,.19.25c0,.1-.06.16-.19.2a1.59,1.59,0,0,1-.49.06,9.91,9.91,0,0,1-1,0l-.77-.06-.91,0-1,0-.89.06C128.43,96.42,128.07,96.43,127.66,96.43Z"/><path d="M154.49,88.73a3.9,3.9,0,0,1,1.23,2.93,4.62,4.62,0,0,1-2.47,4.13,5.28,5.28,0,0,1-2.57.62c-.56,0-1.16,0-1.82-.07l-.84,0c-.32,0-.67,0-1.06,0l-1.72,0-1.29,0s0,0,0-.15,0-.15,0-.15a5.43,5.43,0,0,0,1.42-.14,1,1,0,0,0,.63-.49,2.62,2.62,0,0,0,.18-1.12V82.55a2.82,2.82,0,0,0-.17-1.12,1,1,0,0,0-.62-.49A5.23,5.23,0,0,0,144,80.8c-.05,0-.08,0-.08-.15s0-.15.08-.15l1.24,0c.71,0,1.28,0,1.72,0l.85,0,.67,0c.52,0,1-.08,1.47-.08a4.75,4.75,0,0,1,3.18.92,3.06,3.06,0,0,1,1.07,2.42,3.26,3.26,0,0,1-.79,2.16,5,5,0,0,1-2.15,1.48A5.09,5.09,0,0,1,154.49,88.73Zm-6.07-7.83a.75.75,0,0,0-.47.48,3.53,3.53,0,0,0-.16,1.22v4.8l1.14,0a3.59,3.59,0,0,0,2.74-1,3.54,3.54,0,0,0,.88-2.52,3.36,3.36,0,0,0-.77-2.29,3,3,0,0,0-2.39-.87A3.32,3.32,0,0,0,148.42,80.9ZM153.05,95a3.84,3.84,0,0,0,.89-2.72,4.33,4.33,0,0,0-1.12-3.11,4.14,4.14,0,0,0-3.1-1.22,19.13,19.13,0,0,0-1.93.05v6.25a2.24,2.24,0,0,0,.19,1,1.18,1.18,0,0,0,.74.52,5.72,5.72,0,0,0,1.58.17A3.64,3.64,0,0,0,153.05,95Z"/><path d="M171,79.58a8.31,8.31,0,0,1,4.15,1A6.83,6.83,0,0,1,178,83.44a9.54,9.54,0,0,1,1,4.53,9.77,9.77,0,0,1-1,4.54,7.55,7.55,0,0,1-2.8,3A7.85,7.85,0,0,1,171,96.64a8.44,8.44,0,0,1-4.15-1,6.85,6.85,0,0,1-2.77-2.87,10.78,10.78,0,0,1,0-9.07,7.59,7.59,0,0,1,2.8-3A7.69,7.69,0,0,1,171,79.58Zm-.09.42a3.17,3.17,0,0,0-2.37,1A6.84,6.84,0,0,0,167,83.91a14.68,14.68,0,0,0-.55,4.24,13.1,13.1,0,0,0,.62,4.28,6.7,6.7,0,0,0,1.69,2.8,3.37,3.37,0,0,0,2.34,1,3.21,3.21,0,0,0,2.38-1A7,7,0,0,0,175,92.29a14.69,14.69,0,0,0,.56-4.23,13.11,13.11,0,0,0-.63-4.29A6.67,6.67,0,0,0,173.29,81,3.33,3.33,0,0,0,170.94,80Z"/><path d="M196.56,96a.31.31,0,0,1-.05.17.5.5,0,0,1-.17.12,1.68,1.68,0,0,1-.33.07,3.58,3.58,0,0,1-.51,0,3.49,3.49,0,0,1-.51,0,1.42,1.42,0,0,1-.32-.07.7.7,0,0,1-.18-.12.31.31,0,0,1-.05-.17V89.33h-1.6a4.28,4.28,0,0,0-1.47.2,2.43,2.43,0,0,0-.89.57,3.4,3.4,0,0,0-.65.91c-.17.36-.34.75-.51,1.19L188,95.88a1.91,1.91,0,0,1-.13.25.53.53,0,0,1-.2.15,1.54,1.54,0,0,1-.34.08,3.89,3.89,0,0,1-.53,0,2.91,2.91,0,0,1-.57,0,1.14,1.14,0,0,1-.33-.08.31.31,0,0,1-.15-.11.43.43,0,0,1,0-.17,1.81,1.81,0,0,1,0-.29,3.61,3.61,0,0,1,.19-.54l1.31-3.4a9.69,9.69,0,0,1,.49-1.11,5.21,5.21,0,0,1,.56-.87,3.52,3.52,0,0,1,.64-.64,3,3,0,0,1,.76-.43,5.26,5.26,0,0,1-1.33-.51,3.44,3.44,0,0,1-1.62-1.93,4.15,4.15,0,0,1-.22-1.4,4.87,4.87,0,0,1,.33-1.82,3.76,3.76,0,0,1,1-1.44,4.7,4.7,0,0,1,1.71-1,9.94,9.94,0,0,1,2.92-.34h3.31a.89.89,0,0,1,.54.19.81.81,0,0,1,.25.68Zm-2.12-13.92h-2a6.88,6.88,0,0,0-1.9.2,2.92,2.92,0,0,0-1,.57,2.19,2.19,0,0,0-.58.86,3.27,3.27,0,0,0,0,2.17,2.34,2.34,0,0,0,.6.89,2.8,2.8,0,0,0,1.06.6,5.7,5.7,0,0,0,1.8.22h2.09Z"/><path d="M217.06,96.31h-2.15l-.33-10.07-.13-3.87-.76,2.25-2.38,6.43h-1.52l-2.27-6.18-.76-2.5,0,4-.28,9.9h-2.08l.79-16.15h2.61l2.18,6.08.7,2.05.68-2.05,2.29-6.08h2.68Z"/><path d="M229.81,78h1.92l7,18.34h-1.85l-1.74-4.6h-8.73l-1.72,4.6h-1.82ZM227,90.14h7.54l-3.79-10.07Z"/><path d="M260.5,96.31V84.42l-4.63,8.85H254l-4.63-8.85V96.31h-3.49v-18h3.75l5.31,10.23,5.36-10.23H264v18Z"/><path d="M271.69,96.44a1.3,1.3,0,0,1-.53-.09q-.21-.09-.21-.24a.39.39,0,0,1,.22-.32,2.5,2.5,0,0,1,.62-.26,4.17,4.17,0,0,0,1.21-.61,3.2,3.2,0,0,0,1-1.34c.48-1.08.91-2.09,1.31-3s.77-1.87,1.12-2.78.73-1.86,1.11-2.85l1.2-3.22c.08-.24.16-.48.22-.71a3.66,3.66,0,0,0,.13-.76l.46-.15a2.4,2.4,0,0,0,.45-.23.82.82,0,0,0,.32-.46,1.38,1.38,0,0,1,.16-.4.09.09,0,0,1,.07,0s0,0,.06,0a1.91,1.91,0,0,1,.09.26,1.71,1.71,0,0,0,.09.3c.4,1.28.82,2.59,1.26,3.92l1.28,3.86c.41,1.24.79,2.35,1.14,3.34s.62,1.78.82,2.39a5.33,5.33,0,0,0,.76,1.52,2.39,2.39,0,0,0,.85.71,4.06,4.06,0,0,0,.95.3,1.43,1.43,0,0,1,.63.24.48.48,0,0,1,.2.34c0,.11-.07.17-.2.21a2.5,2.5,0,0,1-.53,0c-.24,0-.56,0-1,0l-1.29-.08-1.27,0h-2.66a1.58,1.58,0,0,1-.53-.07c-.13-.06-.2-.13-.2-.23s.08-.22.25-.31a2.07,2.07,0,0,1,.58-.17A2.45,2.45,0,0,0,283,95.1a.92.92,0,0,0,.36-.71,5.48,5.48,0,0,0-.17-1.1c-.11-.48-.24-1-.39-1.55s-.29-1-.43-1.45a.28.28,0,0,0-.19-.24,1.87,1.87,0,0,0-.49,0h-4.78a.37.37,0,0,0-.22.09.73.73,0,0,0-.21.37c-.06.16-.14.43-.26.79s-.23.75-.35,1.15-.22.77-.31,1.09a3.64,3.64,0,0,0-.12.61,1.14,1.14,0,0,0,.43.92,2.38,2.38,0,0,0,1,.52c.55.15.83.32.83.51s-.07.17-.2.21a1.58,1.58,0,0,1-.53.07l-1,0c-.43,0-.87,0-1.35,0s-1.09,0-1.62.07S272.11,96.44,271.69,96.44Zm5.92-7.26h3.92c.24,0,.35-.05.35-.13a.57.57,0,0,0,0-.12.93.93,0,0,0,0-.13l-2-6.18c-.1-.3-.18-.45-.23-.45s-.1.14-.2.43l-2.3,6.2a.55.55,0,0,0-.05.2c0,.08,0,.13.14.15A1.92,1.92,0,0,0,277.61,89.18Z"/><polygon points="153.66 282.46 153.65 282.46 153.68 282.49 153.65 282.51 153.65 282.52 153.69 282.49 153.66 282.46"/><path d="M141.38,124.07V111.51h-3.62v-2.18c2.41-.07,3.6-.23,4.38-2.06h2.44v16.8Z"/><path d="M152.5,124.79a.38.38,0,0,1-.25-.06.16.16,0,0,1-.07-.13.19.19,0,0,1,.1-.17.46.46,0,0,1,.22-.06,3.72,3.72,0,0,0,1.61-.45,9.62,9.62,0,0,0,1.86-1.23,11.46,11.46,0,0,0,1.68-1.73,11.15,11.15,0,0,0,1.19-1.9,8.16,8.16,0,0,0,.66-1.91,10,10,0,0,0,.21-2.1,5.34,5.34,0,0,0-.27-1.66,6,6,0,0,0-.71-1.53,4,4,0,0,0-1-1.12,2.12,2.12,0,0,0-1.21-.41,2,2,0,0,0-1.26.4,2.59,2.59,0,0,0-.76,1,2.9,2.9,0,0,0-.25,1.17,3.1,3.1,0,0,0,.33,1.37,3.2,3.2,0,0,0,.89,1.1,1.92,1.92,0,0,0,1.16.43,2.25,2.25,0,0,0,1.07-.2c.23-.13.49-.27.79-.41.06,0,.11,0,.15.07a.19.19,0,0,1,0,.19,1.72,1.72,0,0,1-.35.45,3.24,3.24,0,0,1-.93.66,4.83,4.83,0,0,1-.76.33,2.8,2.8,0,0,1-.86.13,3.31,3.31,0,0,1-1.54-.38,3.36,3.36,0,0,1-1.23-1,2.55,2.55,0,0,1-.47-1.5,4,4,0,0,1,.34-1.59,5.21,5.21,0,0,1,1-1.5,4.83,4.83,0,0,1,1.52-1.1,4.39,4.39,0,0,1,1.92-.42,3.33,3.33,0,0,1,1.64.45,5.45,5.45,0,0,1,1.43,1.21,5.93,5.93,0,0,1,1,1.7,5.31,5.31,0,0,1,.37,2,8.61,8.61,0,0,1-.39,2.65,9.49,9.49,0,0,1-1.14,2.33,18.32,18.32,0,0,1-1.81,2.27,7,7,0,0,1-1.39,1.21,11.36,11.36,0,0,1-1.55.86,8.17,8.17,0,0,1-1.54.51A7.12,7.12,0,0,1,152.5,124.79Z"/><path d="M168.26,124.79a.38.38,0,0,1-.25-.06.16.16,0,0,1-.07-.13.19.19,0,0,1,.1-.17.46.46,0,0,1,.22-.06,3.72,3.72,0,0,0,1.61-.45,9.62,9.62,0,0,0,1.86-1.23,11.46,11.46,0,0,0,1.68-1.73,11.15,11.15,0,0,0,1.19-1.9,8.16,8.16,0,0,0,.66-1.91,10,10,0,0,0,.21-2.1,5.34,5.34,0,0,0-.27-1.66,6,6,0,0,0-.71-1.53,4,4,0,0,0-1.05-1.12,2.12,2.12,0,0,0-1.21-.41,2,2,0,0,0-1.26.4,2.5,2.5,0,0,0-.76,1,2.9,2.9,0,0,0-.25,1.17,3.1,3.1,0,0,0,.33,1.37,3.2,3.2,0,0,0,.89,1.1,1.92,1.92,0,0,0,1.16.43,2.25,2.25,0,0,0,1.07-.2c.23-.13.49-.27.79-.41.06,0,.11,0,.15.07a.21.21,0,0,1,0,.19,1.72,1.72,0,0,1-.35.45,3.24,3.24,0,0,1-.93.66,4.83,4.83,0,0,1-.76.33,2.8,2.8,0,0,1-.86.13,3.31,3.31,0,0,1-1.54-.38,3.36,3.36,0,0,1-1.23-1,2.55,2.55,0,0,1-.47-1.5,4,4,0,0,1,.34-1.59,5.21,5.21,0,0,1,1-1.5,4.83,4.83,0,0,1,1.52-1.1,4.36,4.36,0,0,1,1.92-.42,3.33,3.33,0,0,1,1.64.45,5.45,5.45,0,0,1,1.43,1.21,5.93,5.93,0,0,1,1,1.7,5.31,5.31,0,0,1,.37,2,8.61,8.61,0,0,1-.39,2.65,9.49,9.49,0,0,1-1.14,2.33,18.32,18.32,0,0,1-1.81,2.27,7,7,0,0,1-1.39,1.21,11.36,11.36,0,0,1-1.55.86,8.41,8.41,0,0,1-1.54.51A7.12,7.12,0,0,1,168.26,124.79Z"/><path d="M194,105h.86c0,.26,0,.59,0,1s0,.82-.1,1.24-.11.82-.18,1.2a7.08,7.08,0,0,1-.2.88H187.4l-.45,3.62h2.1a8,8,0,0,1,2.48.36,5.43,5.43,0,0,1,1.9,1.07,4.71,4.71,0,0,1,1.21,1.69,5.7,5.7,0,0,1,.43,2.29,5.88,5.88,0,0,1-.54,2.57,5.65,5.65,0,0,1-1.48,1.9,7,7,0,0,1-2.2,1.19,9,9,0,0,1-2.74.41,7.43,7.43,0,0,1-2.68-.46,8,8,0,0,1-2-1l1.06-2.51h.74a5.28,5.28,0,0,1,.4.46l.48.58c.17.2.33.4.49.61l.4.53.47.15a2.79,2.79,0,0,0,.57,0,3.65,3.65,0,0,0,1.41-.27,3.13,3.13,0,0,0,1.13-.74,3.81,3.81,0,0,0,.75-1.15,4,4,0,0,0,.28-1.49,3.37,3.37,0,0,0-.35-1.55,2.91,2.91,0,0,0-.92-1.1,4.14,4.14,0,0,0-1.37-.65,6.3,6.3,0,0,0-1.64-.21l-2.2,0,1-9.23h6.6Z"/><path d="M202.64,120.13a.13.13,0,0,1-.14-.14,3.9,3.9,0,0,1,.1-.81c.07-.28.16-.42.27-.44l2.23-.31q1.11-.15,2.22-.27a.2.2,0,0,1,.13,0,.1.1,0,0,1,.06.1,3.07,3.07,0,0,1-.11.82c-.07.26-.19.4-.38.43l-2.12.31C204.18,120,203.43,120.05,202.64,120.13Z"/><path d="M222.78,124.14h-.56l-1,0-1.12,0-1.07,0-1.22,0-1.53,0-1.34,0h-.73A.67.67,0,0,1,214,124c-.13-.1-.19-.18-.19-.26a.28.28,0,0,1,.07-.21l.16-.16,3.75-4a11,11,0,0,0,1.89-2.69,6.8,6.8,0,0,0,.71-3,2.57,2.57,0,0,0-.65-1.82,2.15,2.15,0,0,0-1.62-.68,3,3,0,0,0-1.68.5,4.29,4.29,0,0,0-1.27,1.24,1.09,1.09,0,0,1-.23.25.44.44,0,0,1-.3.12c-.08,0-.15-.06-.22-.19a.9.9,0,0,1-.1-.46,1.66,1.66,0,0,1,.34-.82,5.54,5.54,0,0,1,1-1.06,6,6,0,0,1,1.48-.9,4.56,4.56,0,0,1,1.85-.37,3.85,3.85,0,0,1,2,.5,3.33,3.33,0,0,1,1.27,1.36,4.28,4.28,0,0,1,.44,2,4.44,4.44,0,0,1-.24,1.36,7.71,7.71,0,0,1-.64,1.44,8.28,8.28,0,0,1-.88,1.28c-.2.24-.49.56-.87.95l-1.2,1.21-1.22,1.21c-.39.38-.7.69-.94.94a1.94,1.94,0,0,0-.36.41c0,.07.11.11.33.14s.59.06.94.07.72,0,1.12,0,.83,0,1.24,0,.81,0,1.19-.07a5.31,5.31,0,0,0,1-.14,1.37,1.37,0,0,0,.64-.34,3.19,3.19,0,0,0,.52-.72,2.61,2.61,0,0,1,.25-.33.48.48,0,0,1,.35-.18.2.2,0,0,1,.19.11.49.49,0,0,1,0,.24c0,.18-.12.43-.23.74s-.22.63-.33,1a9,9,0,0,0-.25,1,.53.53,0,0,1-.51.53Z"/><path d="M240.92,116a18.21,18.21,0,0,1-.29,3.36,7.83,7.83,0,0,1-1,2.61,4.7,4.7,0,0,1-1.76,1.7,6.37,6.37,0,0,1-5.22.06,4.2,4.2,0,0,1-1.66-1.58,7.55,7.55,0,0,1-.9-2.57,21.5,21.5,0,0,1-.26-3.51,18.26,18.26,0,0,1,.29-3.35,7.81,7.81,0,0,1,1-2.62,4.65,4.65,0,0,1,1.75-1.69,5.49,5.49,0,0,1,2.67-.6,5.6,5.6,0,0,1,2.55.53,4.15,4.15,0,0,1,1.66,1.59,7.4,7.4,0,0,1,.9,2.57A20.16,20.16,0,0,1,240.92,116Zm-2.18.15c0-.8,0-1.52-.09-2.15a11.57,11.57,0,0,0-.25-1.68,5.3,5.3,0,0,0-.43-1.26,2.88,2.88,0,0,0-.64-.86,2.41,2.41,0,0,0-.84-.5,3.59,3.59,0,0,0-1.07-.15,2.77,2.77,0,0,0-1.71.49,3.33,3.33,0,0,0-1,1.36,7.18,7.18,0,0,0-.51,2A21.59,21.59,0,0,0,232,116a20.34,20.34,0,0,0,.19,3.05,6.89,6.89,0,0,0,.58,2,2.62,2.62,0,0,0,1,1.14,3,3,0,0,0,1.51.36,3.09,3.09,0,0,0,1.22-.22,2.51,2.51,0,0,0,.9-.64,3.5,3.5,0,0,0,.63-1,7.52,7.52,0,0,0,.39-1.29,9.66,9.66,0,0,0,.2-1.52Q238.74,117.07,238.74,116.19Z"/><path d="M257.38,109.19a7.85,7.85,0,0,0-1.67.11,6.68,6.68,0,0,0-5.72,5.84h.08a4.89,4.89,0,0,1,4-1.9c2.91,0,5,2.1,5,5.31a5.5,5.5,0,0,1-5.47,5.8c-3.51,0-5.82-2.73-5.82-7a10.33,10.33,0,0,1,2.79-7.41,8.9,8.9,0,0,1,5.26-2.43,10.91,10.91,0,0,1,1.62-.13Zm-.63,9.49c0-2.35-1.35-3.77-3.39-3.77a3.65,3.65,0,0,0-3.19,2,1.89,1.89,0,0,0-.25,1c0,2.71,1.29,4.71,3.61,4.71C255.46,122.63,256.75,121,256.75,118.68Z"/><path d="M268.51,124.07V111.51H264.9v-2.18c2.41-.07,3.59-.23,4.38-2.06h2.43v16.8Z"/></svg>