<svg id="Слой_1" data-name="Слой 1" xmlns="http://www.w3.org/2000/svg" viewBox="0 0 400 400"><defs><style>.cls-1,.cls-2{fill:#fff;stroke:#000;stroke-width:3px;}.cls-1{stroke-miterlimit:10;}.cls-2{stroke-linecap:round;stroke-linejoin:round;}.cls-3{fill:#608b70;}.cls-4{fill:#b8ad99;}.cls-5{fill:#c1362d;}</style></defs><title>g49</title><path class="cls-1" d="M350.19,382H56.79V37.92l168.37,67c74.74,29.73,125,112,125,204.57Z"/><path class="cls-1" d="M283.2,301.33c8.86-5.72,10.29-24.14,4.08-28.6-3-2.16-5.6.51-9.7-1.54-6.81-3.4-10.51-16.21-6.13-23.5,3.94-6.55,11.12-3.19,20.94-10.72.64-.5,14.31-11.23,12.26-21.46-1.77-8.87-13.47-7.91-19.92-21.46-2.7-5.67-2.6-9.93-5.62-10.73-3.63-1-9.35,3.73-10.73,9.2-1.9,7.54,5.94,10.69,6.13,18.9.26,10.94-13.34,19.55-26,27.59-11.3,7.15-17.43,11-25.54,10.22-10.82-1.08-12.39-9.22-25-15.84-14.63-7.66-29.58-5.68-45.46-3.58-16.75,2.22-29.84,4-41.38,14.31C93.61,259.75,92.23,283.8,92.14,286c-.75,17.47,7,25.36,1,34.74-6.47,10.09-21.46,10.3-21,13.79.37,2.49,8.21,3.63,13.8,3.07,2-.21,10.94-1.36,15.83-8.18,1.2-1.67.81-1.81,3.58-8.17,3.15-7.25,4-7.77,5.62-11.75,4.75-11.38,2.2-16.85,6.13-18.9,3.43-1.8,8.31.86,10.73,3.06,5.9,5.37,5.66,15.71,1.53,19.41-2.84,2.54-6.68,1.2-8.18,4.09-1.39,2.69.75,6.19,1,6.64,2.33,3.73,7.39,5.56,11.75,5.11,7.46-.77,9.16-7.85,14.81-7.66,3.92.13,6.22,3.64,9.71,7.66,4.56,5.26,16.09,18.55,27.59,19.92s16-10,27.58-8.17c8.1,1.29,10.39,11.93,15.33,10.73,3.32-.81,2.92-5.25,7.66-7.66,3.44-1.76,6.95-1.09,12.26,0,10.92,2.23,11.6,5.71,16.86,5.1,6.6-.76,11.73-7,13.79-12.26.89-2.28,3-7.67.51-11.75-3.07-5.05-10.13-3-12.26-7.66-1.57-3.43.63-8.15,3.07-10.73C274.82,302.33,278.74,304.21,283.2,301.33Z"/><rect class="cls-2" x="161.12" y="273.3" width="90.86" height="34.18"/><path d="M115.4,144.92a1.74,1.74,0,0,1-.56-.07c-.14,0-.21-.12-.21-.22s.29-.37.87-.48a3.38,3.38,0,0,0,1.54-.61,1.66,1.66,0,0,0,.53-1.37v-11.9a2.11,2.11,0,0,0-.4-1.4,2,2,0,0,0-1.38-.53,1.53,1.53,0,0,1-.66-.19.42.42,0,0,1-.21-.34c0-.1.07-.18.21-.22a2.07,2.07,0,0,1,.56-.07h1.11l.75,0h.89a7.49,7.49,0,0,0,.87,0l.83-.07,1.23,0a9.4,9.4,0,0,1,4.61.88,3.23,3.23,0,0,1,1.52,3.06,3.82,3.82,0,0,1-.3,1.57,3.27,3.27,0,0,1-.59,1,4.92,4.92,0,0,1-.77.65,5.62,5.62,0,0,1-1,.49.12.12,0,0,0-.1.12.17.17,0,0,0,.1.15,10.29,10.29,0,0,1,1.26.47,6.16,6.16,0,0,1,1.22.75,3.6,3.6,0,0,1,.92,1.22,4.44,4.44,0,0,1,.36,1.92,4.94,4.94,0,0,1-.46,2.3,3.83,3.83,0,0,1-1.1,1.29,9.75,9.75,0,0,1-1.19.74,8,8,0,0,1-1.9.66,12.21,12.21,0,0,1-2.59.24c-.23,0-.58,0-1,0s-1-.05-1.48-.05-.84,0-1.16,0l-1,.07C116.34,144.9,115.91,144.92,115.4,144.92Zm5.44-9.94a8,8,0,0,0,1.55-.16,5.71,5.71,0,0,0,1.65-.61,2.64,2.64,0,0,0,.74-.76,2.92,2.92,0,0,0,.45-1.75,4.71,4.71,0,0,0-.29-1.57,2.73,2.73,0,0,0-1.11-1.36,4.43,4.43,0,0,0-2.46-.56,2.33,2.33,0,0,0-1.41.29,1.16,1.16,0,0,0-.33.9V134c0,.46.15.74.45.83A2.47,2.47,0,0,0,120.84,135Zm.88,8.83a4.6,4.6,0,0,0,2.16-.53,4.33,4.33,0,0,0,1.62-1.44,3.65,3.65,0,0,0,.6-2.05,3.75,3.75,0,0,0-.34-1.71A3.88,3.88,0,0,0,125,137a3.74,3.74,0,0,0-.82-.61,4.9,4.9,0,0,0-1.09-.44,6.78,6.78,0,0,0-1.93-.22,1.59,1.59,0,0,0-1.17.34,1,1,0,0,0-.33.61v5.26a1.71,1.71,0,0,0,.54,1.49A2.63,2.63,0,0,0,121.72,143.81Z"/><path d="M155.22,144.61c0,.12,0,.18-.11.18q-.56,0-1.71-.06c-.77,0-1.32-.06-1.67-.06s-1,0-1.62.06-1.08.06-1.41.06q-.12,0-.12-.18c0-.11,0-.17.12-.17a4.55,4.55,0,0,0,1.56-.2.73.73,0,0,0,.49-.7,3.52,3.52,0,0,0-.38-1.24l-3.32-7.07H141.6l-2.48,5.89a4.45,4.45,0,0,0-.41,1.62c0,1.13.95,1.7,2.83,1.7.1,0,.15.06.15.17s-.05.18-.15.18q-.53,0-1.5-.06c-.73,0-1.37-.06-1.9-.06s-1.08,0-1.74.06-1.05.06-1.44.06c-.1,0-.14-.06-.14-.18s0-.17.14-.17a2.86,2.86,0,0,0,1.37-.3,3.19,3.19,0,0,0,1.07-1.07,13.54,13.54,0,0,0,1.11-2.21l6.09-14.37a.23.23,0,0,1,.2-.09q.15,0,.18.09l6.81,14.34a11.67,11.67,0,0,0,1.67,2.87,2.19,2.19,0,0,0,1.65.74C155.18,144.44,155.22,144.5,155.22,144.61Zm-13.36-10h4.91l-2.6-5.49Z"/><path d="M161.92,144.79v-.53a5,5,0,0,0,1.31-.22.9.9,0,0,0,.58-.63A5.57,5.57,0,0,0,164,142V128.87a5.55,5.55,0,0,0-.14-1.44.94.94,0,0,0-.58-.63,4.08,4.08,0,0,0-1.31-.2v-.53c.44,0,1,0,1.69.05s1.43,0,2.22,0,1.4,0,2.09,0,1.25,0,1.69-.05v.53a3.88,3.88,0,0,0-1.28.2,1,1,0,0,0-.6.63,5,5,0,0,0-.16,1.44V142a5,5,0,0,0,.16,1.43,1,1,0,0,0,.6.63,4.74,4.74,0,0,0,1.28.22v.53c-.44,0-1-.06-1.69-.07h-4.31C162.92,144.73,162.36,144.75,161.92,144.79Zm4.2-9.15v-.53h10.44v.53Zm6.95,9.15v-.53a4.93,4.93,0,0,0,1.31-.22.9.9,0,0,0,.58-.63,5.08,5.08,0,0,0,.15-1.43V128.87a5.06,5.06,0,0,0-.15-1.44.94.94,0,0,0-.58-.63,4,4,0,0,0-1.31-.2v-.53l1.77.05c.71,0,1.41,0,2.12,0s1.5,0,2.18,0,1.22,0,1.62-.05v.53a3.93,3.93,0,0,0-1.28.2,1,1,0,0,0-.59.63,4.66,4.66,0,0,0-.16,1.44V142a4.67,4.67,0,0,0,.16,1.43.91.91,0,0,0,.59.63,4.82,4.82,0,0,0,1.28.22v.53c-.4,0-.94-.06-1.62-.07h-4.3C174.14,144.73,173.55,144.75,173.07,144.79Z"/><path d="M200.63,144.43a.29.29,0,0,1-.06.19.47.47,0,0,1-.2.14,1.92,1.92,0,0,1-.37.08,4.62,4.62,0,0,1-.58,0,4.8,4.8,0,0,1-.59,0,1.79,1.79,0,0,1-.36-.08.54.54,0,0,1-.2-.14.29.29,0,0,1-.07-.19v-7.61h-1.81a4.89,4.89,0,0,0-1.69.23,2.88,2.88,0,0,0-1,.65,4,4,0,0,0-.73,1,12.38,12.38,0,0,0-.59,1.35l-1.56,4.2a1.77,1.77,0,0,1-.15.28.47.47,0,0,1-.23.18,1.87,1.87,0,0,1-.39.09,5,5,0,0,1-.6,0,3.8,3.8,0,0,1-.65,0,1.33,1.33,0,0,1-.37-.09.33.33,0,0,1-.18-.13.38.38,0,0,1,0-.19,1.4,1.4,0,0,1,0-.33,5.61,5.61,0,0,1,.21-.62l1.5-3.87a10.07,10.07,0,0,1,.56-1.27,7,7,0,0,1,.63-1,4.32,4.32,0,0,1,.74-.74,3.34,3.34,0,0,1,.87-.48,6.25,6.25,0,0,1-1.52-.59,4,4,0,0,1-1.14-.93,3.86,3.86,0,0,1-.71-1.27,4.74,4.74,0,0,1-.25-1.59,5.58,5.58,0,0,1,.38-2.08,4.4,4.4,0,0,1,1.15-1.65,5.5,5.5,0,0,1,2-1.07,11,11,0,0,1,3.33-.39h3.78a1,1,0,0,1,.62.22.93.93,0,0,1,.28.77Zm-2.43-15.88h-2.31a7.88,7.88,0,0,0-2.17.23,3.22,3.22,0,0,0-1.19.65,2.54,2.54,0,0,0-.66,1,3.53,3.53,0,0,0-.2,1.23,3.59,3.59,0,0,0,.21,1.24,2.8,2.8,0,0,0,.69,1,3.31,3.31,0,0,0,1.2.68,6.91,6.91,0,0,0,2,.25h2.38Z"/><path class="cls-3" d="M216.46,290.23a9.62,9.62,0,1,1-9.62-9.62,9.62,9.62,0,0,1,9.62,9.62"/><polygon class="cls-4" points="180.01 284.72 184.02 279.56 183.78 286.09 190.16 284.72 185.78 289.56 191.55 292.61 185.08 293.51 187.54 299.56 182.01 296.09 180.01 302.3 178 296.09 172.47 299.56 174.93 293.51 168.46 292.61 174.23 289.56 169.85 284.72 176.24 286.09 176 279.56 180.01 284.72"/><polygon class="cls-5" points="238.28 280.79 243.78 290.32 238.28 299.84 227.28 299.84 221.77 290.32 227.28 280.79 238.28 280.79"/><path d="M83.84,170l-.63,0-1.1,0-1.28-.05c-.44,0-.85,0-1.22,0s-.81,0-1.38,0l-1.75,0L75,170h-.83a.67.67,0,0,1-.31-.16c-.15-.1-.22-.2-.22-.29a.32.32,0,0,1,.08-.24l.18-.18,4.28-4.55a12.54,12.54,0,0,0,2.16-3.06,7.68,7.68,0,0,0,.8-3.44,2.88,2.88,0,0,0-.74-2.08,2.48,2.48,0,0,0-1.85-.78,3.47,3.47,0,0,0-1.91.57,4.76,4.76,0,0,0-1.44,1.42,1.45,1.45,0,0,1-.27.29.5.5,0,0,1-.34.13c-.09,0-.17-.07-.25-.21a1.07,1.07,0,0,1-.12-.53,1.88,1.88,0,0,1,.4-.94,5.76,5.76,0,0,1,1.11-1.2,6.25,6.25,0,0,1,1.69-1,5.27,5.27,0,0,1,2.11-.43,4.38,4.38,0,0,1,2.28.57,3.83,3.83,0,0,1,1.45,1.56,5,5,0,0,1,.5,2.26,4.86,4.86,0,0,1-.28,1.56,8.51,8.51,0,0,1-.72,1.64,9.1,9.1,0,0,1-1,1.45c-.23.29-.56.65-1,1.09l-1.37,1.39L78,166.14l-1.07,1.07a1.91,1.91,0,0,0-.41.48c0,.07.12.12.37.16l1.07.08,1.28,0,1.42,0,1.36-.08a7.6,7.6,0,0,0,1.13-.16,1.54,1.54,0,0,0,.73-.4,3.34,3.34,0,0,0,.59-.82c.08-.1.17-.23.3-.37a.51.51,0,0,1,.39-.21.19.19,0,0,1,.21.13.42.42,0,0,1,0,.27c0,.21-.14.49-.26.84s-.25.73-.37,1.13-.22.77-.3,1.12a.6.6,0,0,1-.25.49A.67.67,0,0,1,83.84,170Z"/><path d="M104.53,160.75a20.47,20.47,0,0,1-.33,3.83,8.76,8.76,0,0,1-1.1,3,5.31,5.31,0,0,1-2,1.93,7.09,7.09,0,0,1-6,.07,4.76,4.76,0,0,1-1.9-1.8,8.42,8.42,0,0,1-1-2.93,23.72,23.72,0,0,1-.3-4,20.52,20.52,0,0,1,.33-3.82,9.26,9.26,0,0,1,1.1-3,5.36,5.36,0,0,1,2-1.93,7.11,7.11,0,0,1,6-.07,4.8,4.8,0,0,1,1.89,1.8,8.63,8.63,0,0,1,1,2.93A23.81,23.81,0,0,1,104.53,160.75Zm-2.48.17c0-.91,0-1.73-.1-2.46a14.62,14.62,0,0,0-.29-1.91,6.45,6.45,0,0,0-.49-1.43,3.44,3.44,0,0,0-.73-1,2.58,2.58,0,0,0-1-.56,3.91,3.91,0,0,0-1.22-.18,3.14,3.14,0,0,0-2,.57,3.68,3.68,0,0,0-1.17,1.54,8,8,0,0,0-.59,2.32,25.26,25.26,0,0,0-.15,2.84,24.49,24.49,0,0,0,.21,3.48,7.52,7.52,0,0,0,.67,2.33,3,3,0,0,0,1.17,1.31,3.42,3.42,0,0,0,1.72.41,3.71,3.71,0,0,0,1.39-.25,3,3,0,0,0,1-.73,4,4,0,0,0,.71-1.13,7.9,7.9,0,0,0,.45-1.47,11.44,11.44,0,0,0,.23-1.74C102,162.24,102.05,161.59,102.05,160.92Z"/><path d="M124.93,160.75a20.47,20.47,0,0,1-.33,3.83,8.76,8.76,0,0,1-1.1,3,5.31,5.31,0,0,1-2,1.93,7.09,7.09,0,0,1-5.95.07,4.76,4.76,0,0,1-1.9-1.8,8.42,8.42,0,0,1-1-2.93,23.72,23.72,0,0,1-.3-4,20.52,20.52,0,0,1,.33-3.82,9.26,9.26,0,0,1,1.1-3,5.36,5.36,0,0,1,2-1.93,7.11,7.11,0,0,1,6-.07,4.74,4.74,0,0,1,1.89,1.8,8.63,8.63,0,0,1,1,2.93A23.81,23.81,0,0,1,124.93,160.75Zm-2.48.17c0-.91,0-1.73-.1-2.46a14.62,14.62,0,0,0-.29-1.91,6.45,6.45,0,0,0-.49-1.43,3.44,3.44,0,0,0-.73-1,2.58,2.58,0,0,0-1-.56,3.86,3.86,0,0,0-1.22-.18,3.14,3.14,0,0,0-2,.57,3.76,3.76,0,0,0-1.17,1.54,8.28,8.28,0,0,0-.59,2.32,25.26,25.26,0,0,0-.15,2.84,24.49,24.49,0,0,0,.21,3.48,7.52,7.52,0,0,0,.67,2.33,3,3,0,0,0,1.17,1.31,3.42,3.42,0,0,0,1.72.41,3.71,3.71,0,0,0,1.39-.25,3,3,0,0,0,1-.73,4,4,0,0,0,.71-1.13,7.9,7.9,0,0,0,.45-1.47,12.81,12.81,0,0,0,.24-1.74Q122.45,161.93,122.45,160.92Z"/><path d="M145.33,160.75a20.47,20.47,0,0,1-.33,3.83,8.76,8.76,0,0,1-1.1,3,5.31,5.31,0,0,1-2,1.93,7.09,7.09,0,0,1-5.95.07,4.76,4.76,0,0,1-1.9-1.8,8.42,8.42,0,0,1-1-2.93,23.72,23.72,0,0,1-.3-4,19.67,19.67,0,0,1,.34-3.82,9,9,0,0,1,1.09-3,5.31,5.31,0,0,1,2-1.93,7.09,7.09,0,0,1,6-.07,4.83,4.83,0,0,1,1.9,1.8,8.63,8.63,0,0,1,1,2.93A23.81,23.81,0,0,1,145.33,160.75Zm-2.48.17c0-.91,0-1.73-.1-2.46a13.1,13.1,0,0,0-.29-1.91,6,6,0,0,0-.49-1.43,3.27,3.27,0,0,0-.73-1,2.58,2.58,0,0,0-1-.56,3.86,3.86,0,0,0-1.22-.18,3.14,3.14,0,0,0-1.95.57,3.76,3.76,0,0,0-1.17,1.54,8.28,8.28,0,0,0-.59,2.32,25.26,25.26,0,0,0-.15,2.84,24.49,24.49,0,0,0,.21,3.48,7.52,7.52,0,0,0,.67,2.33,3,3,0,0,0,1.17,1.31,3.42,3.42,0,0,0,1.72.41,3.71,3.71,0,0,0,1.39-.25,3,3,0,0,0,1-.73,3.81,3.81,0,0,0,.71-1.13,7.9,7.9,0,0,0,.45-1.47,12.81,12.81,0,0,0,.24-1.74Q142.85,161.93,142.85,160.92Z"/><path d="M153,165.41c-.11,0-.16,0-.16-.15a3.83,3.83,0,0,1,.12-.93c.08-.32.18-.48.3-.5l2.54-.36c.85-.11,1.69-.21,2.54-.3a.23.23,0,0,1,.14,0,.11.11,0,0,1,.07.12,3.48,3.48,0,0,1-.12.93c-.08.3-.22.46-.44.49-.79.13-1.59.25-2.41.36S153.93,165.33,153,165.41Z"/><path d="M176,170l-.64,0-1.09,0-1.28-.05c-.45,0-.85,0-1.22,0s-.82,0-1.39,0l-1.74,0-1.54,0h-.83a.71.71,0,0,1-.3-.16c-.15-.1-.23-.2-.23-.29a.36.36,0,0,1,.08-.24l.19-.18,4.28-4.55a12.23,12.23,0,0,0,2.15-3.06,7.69,7.69,0,0,0,.81-3.44,2.92,2.92,0,0,0-.74-2.08,2.48,2.48,0,0,0-1.85-.78,3.48,3.48,0,0,0-1.92.57,4.76,4.76,0,0,0-1.44,1.42,1.75,1.75,0,0,1-.26.29.53.53,0,0,1-.35.13c-.08,0-.17-.07-.25-.21a1.07,1.07,0,0,1-.12-.53,2,2,0,0,1,.4-.94,5.76,5.76,0,0,1,1.11-1.2,6.58,6.58,0,0,1,1.69-1,5.32,5.32,0,0,1,2.12-.43,4.32,4.32,0,0,1,2.27.57,3.76,3.76,0,0,1,1.45,1.56,4.88,4.88,0,0,1,.51,2.26,5.15,5.15,0,0,1-.28,1.56,9.22,9.22,0,0,1-.73,1.64,9.06,9.06,0,0,1-1,1.45c-.23.29-.56.65-1,1.09l-1.38,1.39-1.39,1.37L169,167.21a2.22,2.22,0,0,0-.41.48c0,.07.13.12.37.16l1.07.08,1.29,0,1.41,0,1.36-.08a7.57,7.57,0,0,0,1.14-.16,1.59,1.59,0,0,0,.73-.4,3.34,3.34,0,0,0,.59-.82c.07-.1.17-.23.29-.37a.53.53,0,0,1,.4-.21.21.21,0,0,1,.21.13.63.63,0,0,1,0,.27q-.09.32-.27.84c-.12.36-.25.73-.37,1.13s-.22.77-.29,1.12a.66.66,0,0,1-.25.49A.67.67,0,0,1,176,170Z"/><path d="M196.68,160.75a20.47,20.47,0,0,1-.33,3.83,8.55,8.55,0,0,1-1.1,3,5.36,5.36,0,0,1-2,1.93,7.11,7.11,0,0,1-6,.07,4.8,4.8,0,0,1-1.89-1.8,8.63,8.63,0,0,1-1-2.93,23.72,23.72,0,0,1-.3-4,19.67,19.67,0,0,1,.34-3.82,9,9,0,0,1,1.1-3,5.29,5.29,0,0,1,2-1.93,7.09,7.09,0,0,1,6-.07,4.76,4.76,0,0,1,1.9,1.8,8.42,8.42,0,0,1,1,2.93A23.81,23.81,0,0,1,196.68,160.75Zm-2.48.17q0-1.36-.09-2.46a16.55,16.55,0,0,0-.29-1.91,6,6,0,0,0-.5-1.43,3.42,3.42,0,0,0-.72-1,2.62,2.62,0,0,0-1-.56,3.86,3.86,0,0,0-1.22-.18,3.11,3.11,0,0,0-1.94.57,3.78,3.78,0,0,0-1.18,1.54,8,8,0,0,0-.58,2.32,23,23,0,0,0-.16,2.84,24.49,24.49,0,0,0,.21,3.48,7.81,7.81,0,0,0,.67,2.33,3.09,3.09,0,0,0,1.17,1.31,3.46,3.46,0,0,0,1.73.41,3.75,3.75,0,0,0,1.39-.25,3,3,0,0,0,1-.73,4.26,4.26,0,0,0,.71-1.13,7.9,7.9,0,0,0,.45-1.47,12.86,12.86,0,0,0,.23-1.74Q194.2,161.93,194.2,160.92Z"/><path d="M215.47,152.93a8.87,8.87,0,0,0-1.91.12,7.62,7.62,0,0,0-6.52,6.67h.08a5.6,5.6,0,0,1,4.54-2.17c3.32,0,5.65,2.4,5.65,6.06,0,3.44-2.33,6.62-6.23,6.62s-6.64-3.12-6.64-8a11.83,11.83,0,0,1,3.17-8.46,10.23,10.23,0,0,1,6-2.77,11.7,11.7,0,0,1,1.85-.15Zm-.72,10.83c0-2.69-1.54-4.3-3.87-4.3a4.18,4.18,0,0,0-3.64,2.31,2.18,2.18,0,0,0-.29,1.12c.06,3.09,1.47,5.37,4.13,5.37C213.27,168.26,214.75,166.44,214.75,163.76Z"/><path d="M236,152.93a8.81,8.81,0,0,0-1.9.12,7.62,7.62,0,0,0-6.52,6.67h.08a5.59,5.59,0,0,1,4.53-2.17c3.32,0,5.66,2.4,5.66,6.06,0,3.44-2.34,6.62-6.23,6.62s-6.64-3.12-6.64-8a11.79,11.79,0,0,1,3.17-8.46,10.23,10.23,0,0,1,6-2.77,11.67,11.67,0,0,1,1.84-.15Zm-.72,10.83c0-2.69-1.53-4.3-3.87-4.3a4.16,4.16,0,0,0-3.63,2.31,2.09,2.09,0,0,0-.29,1.12c.06,3.09,1.47,5.37,4.13,5.37C233.85,168.26,235.32,166.44,235.32,163.76Z"/></svg>