<svg id="Слой_1" data-name="Слой 1" xmlns="http://www.w3.org/2000/svg" viewBox="0 0 400 400"><defs><style>.cls-1,.cls-2{fill:#fff;stroke:#000;stroke-width:3px;}.cls-1{stroke-miterlimit:10;}.cls-2{stroke-linecap:round;stroke-linejoin:round;}.cls-3{fill:#b8ad99;}</style></defs><title>g5</title><path class="cls-1" d="M349,385.45H53.74s-52.2-251,0-305,248.89-59.3,295.29,0S349,385.45,349,385.45Z"/><path class="cls-1" d="M306.08,277.09c9.61-6.21,11.16-26.18,4.43-31-3.25-2.34-6.07.56-10.52-1.66-7.39-3.69-11.4-17.58-6.65-25.49,4.27-7.1,12.06-3.46,22.71-11.63.7-.53,15.52-12.17,13.3-23.27-1.93-9.62-14.61-8.58-21.61-23.27-2.93-6.14-2.82-10.76-6.09-11.63-3.94-1-10.14,4-11.64,10-2.05,8.18,6.45,11.6,6.65,20.5.28,11.86-14.47,21.2-28.25,29.92-12.25,7.75-18.9,12-27.7,11.08-11.74-1.18-13.44-10-27.15-17.18-15.87-8.31-32.08-6.16-49.3-3.88-18.16,2.41-32.36,4.29-44.88,15.52-18.9,16.95-20.39,43-20.49,45.42-.82,18.95,7.63,27.5,1.1,37.68-7,10.94-23.26,11.17-22.71,15,.4,2.71,8.91,3.94,15,3.33,2.18-.22,11.87-1.47,17.17-8.87,1.3-1.81.88-2,3.88-8.86,3.42-7.86,4.29-8.42,6.09-12.74,5.16-12.35,2.4-18.28,6.65-20.5,3.72-1.95,9,.94,11.64,3.32,6.4,5.82,6.14,17,1.66,21.06-3.08,2.75-7.25,1.3-8.87,4.43-1.5,2.92.81,6.71,1.11,7.2,2.54,4,8,6,12.74,5.54,8.1-.84,9.94-8.52,16.07-8.31,4.25.14,6.74,3.95,10.53,8.31,5,5.7,17.45,20.11,29.91,21.6s17.33-10.87,29.92-8.86c8.78,1.4,11.27,12.94,16.62,11.63,3.6-.87,3.17-5.69,8.31-8.31,3.73-1.9,7.53-1.17,13.29,0,11.85,2.43,12.58,6.2,18.29,5.54,7.16-.82,12.72-7.56,14.95-13.29,1-2.48,3.24-8.32.56-12.74-3.34-5.49-11-3.28-13.3-8.31-1.71-3.72.69-8.84,3.32-11.64C297,278.18,301.25,280.21,306.08,277.09Z"/><line class="cls-2" x1="257.45" y1="235.04" x2="186.56" y2="244.87"/><line class="cls-2" x1="176.76" y1="276.79" x2="186.04" y2="266.74"/><polyline class="cls-2" points="145.65 242.2 155.99 242.2 155.99 235.48 167.07 235.48 167.07 228.2 175.94 228.2 175.94 221.48 185.54 221.48"/><rect class="cls-2" x="261.96" y="249.98" width="25.75" height="25.75" transform="translate(-105.37 271.32) rotate(-45)"/><path class="cls-1" d="M153.85,291.24c-1.52-16.42,15.42-31.4,37.89-33.49"/><path class="cls-2" d="M191.79,294.91c11,7.12,15.64,6.58,17.91,5.08,6.38-4.22-1.22-19.41,6.86-26.86,4.6-4.25,13-4.21,17.31-.6,7.4,6.24-1.84,21.88,5.08,27.76,2.59,2.2,7.7,3.08,18.5-1.5"/><line class="cls-2" x1="224.62" y1="269.84" x2="224.62" y2="302.08"/><polygon class="cls-3" points="171.65 278.44 174.16 275.21 174.01 279.29 178 278.44 175.26 281.46 178.87 283.37 174.83 283.93 176.36 287.71 172.91 285.54 171.65 289.42 170.4 285.54 166.94 287.71 168.48 283.93 164.44 283.37 168.05 281.46 165.31 278.44 169.3 279.29 169.15 275.21 171.65 278.44"/><polygon points="186.56 270.33 185.87 270.33 185.86 266.93 182.47 267.19 182.42 266.5 186.54 266.19 186.56 270.33"/><polygon class="cls-3" points="268.24 259.88 270.4 257.1 270.27 260.62 273.72 259.88 271.35 262.49 274.47 264.14 270.98 264.62 272.3 267.88 269.32 266.01 268.24 269.37 267.16 266.01 264.17 267.88 265.5 264.62 262.01 264.14 265.12 262.49 262.76 259.88 266.2 260.62 266.07 257.1 268.24 259.88"/><polygon class="cls-3" points="281.99 259.88 284.15 257.1 284.02 260.62 287.46 259.88 285.1 262.49 288.21 264.14 284.73 264.62 286.05 267.88 283.07 266.01 281.99 269.37 280.9 266.01 277.92 267.88 279.25 264.62 275.76 264.14 278.87 262.49 276.51 259.88 279.95 260.62 279.82 257.1 281.99 259.88"/><polygon class="cls-3" points="146.67 228.38 149.52 224.72 149.35 229.36 153.89 228.38 150.78 231.83 154.88 234 150.28 234.64 152.03 238.94 148.1 236.47 146.67 240.89 145.25 236.47 141.31 238.94 143.06 234.64 138.46 234 142.57 231.83 139.45 228.38 143.99 229.36 143.82 224.72 146.67 228.38"/><path d="M152.84,108.47h-7.2v-.83A12.78,12.78,0,0,1,148,107V90.08a7.56,7.56,0,0,1-2.34-.71v-.83h7.2v.83a6.64,6.64,0,0,1-1,.43c-.36.11-.73.2-1.11.28v7.43h8.94V90.08c-.4-.09-.78-.2-1.13-.31a10.11,10.11,0,0,1-1-.4v-.83h7.2v.83a4.43,4.43,0,0,1-1.12.44c-.41.11-.81.19-1.21.27V107c.44.08.85.17,1.25.28a7.9,7.9,0,0,1,1.08.4v.83h-7.2v-.83a10.66,10.66,0,0,1,2.14-.68V99h-8.94v8c.38.08.75.17,1.11.28a9.41,9.41,0,0,1,1,.4Z"/><path d="M191.24,108.3c0,.11,0,.17-.11.17q-.54,0-1.68-.06t-1.65-.06c-.42,0-1,0-1.6.06s-1.07.06-1.39.06c-.08,0-.11-.06-.11-.17s0-.17.11-.17a4.46,4.46,0,0,0,1.54-.2.7.7,0,0,0,.48-.69,3.38,3.38,0,0,0-.37-1.22l-3.27-7h-5.38l-2.45,5.8a4.36,4.36,0,0,0-.4,1.6q0,1.68,2.79,1.68c.1,0,.14.05.14.17s0,.17-.14.17c-.34,0-.83,0-1.48-.06s-1.35-.06-1.88-.06-1.06,0-1.71.06-1,.06-1.42.06c-.09,0-.14-.06-.14-.17s0-.17.14-.17a2.81,2.81,0,0,0,1.35-.3,3.13,3.13,0,0,0,1.06-1.06,13.87,13.87,0,0,0,1.09-2.17l6-14.18a.23.23,0,0,1,.2-.08c.09,0,.15,0,.17.08l6.71,14.15a11.47,11.47,0,0,0,1.66,2.83,2.15,2.15,0,0,0,1.62.73C191.2,108.13,191.24,108.18,191.24,108.3Zm-13.18-9.85h4.84L180.34,93Z"/><path d="M213.91,107.78a13.4,13.4,0,0,1-5.53,1c-5.91,0-10.36-3.73-10.36-10.6,0-6.56,4.45-11,10.94-11a11.31,11.31,0,0,1,5,.93l-.65,2.21a9.84,9.84,0,0,0-4.23-.87c-4.91,0-8.18,3.13-8.18,8.64,0,5.12,3,8.42,8.05,8.42a10.83,10.83,0,0,0,4.42-.87Z"/><path d="M238.48,88.32c-.08.79-.13,1.57-.16,2.32s0,1.32,0,1.72,0,.85,0,1.25,0,.74.06,1h-.66a15.5,15.5,0,0,0-.75-3.35,3.48,3.48,0,0,0-1.35-1.77,4.92,4.92,0,0,0-2.54-.54h-1.22v16.22a5.25,5.25,0,0,0,.21,1.71,1.23,1.23,0,0,0,.86.76,8.79,8.79,0,0,0,1.86.24v.57c-.53,0-1.21-.06-2.05-.07l-2.56,0-2.58,0c-.8,0-1.45,0-2,.07v-.57a8.59,8.59,0,0,0,1.85-.24,1.27,1.27,0,0,0,.86-.76,4.9,4.9,0,0,0,.23-1.71V89h-1.26a4.91,4.91,0,0,0-2.5.54,3.26,3.26,0,0,0-1.37,1.77,16.21,16.21,0,0,0-.74,3.35h-.65c0-.28.06-.62.07-1s0-.82,0-1.25,0-1,0-1.72-.08-1.53-.16-2.32l2.68.05c1,0,1.94,0,2.93,0h5.32l2.93,0Z"/><path d="M246.68,108.92a6.93,6.93,0,0,1-1.13-.08,1.81,1.81,0,0,1-.72-.29.4.4,0,0,1-.14-.15.43.43,0,0,1-.06-.22.41.41,0,0,1,.08-.24.3.3,0,0,1,.2-.1,2.79,2.79,0,0,0,1.35-.41,6.18,6.18,0,0,0,1.5-1.27,14.8,14.8,0,0,0,1.56-2.16,14.32,14.32,0,0,1,2-2.61,4.57,4.57,0,0,1,2.24-1.4c.07,0,.1,0,.07-.09s-.13-.07-.3-.08A4.29,4.29,0,0,1,251,99a5.11,5.11,0,0,1-1.52-1.79,4.44,4.44,0,0,1-.55-2.08,4.78,4.78,0,0,1,1-3.13,5.38,5.38,0,0,1,2.59-1.68,11.82,11.82,0,0,1,3.56-.51c.42,0,.79,0,1.12,0l1,.1a8.5,8.5,0,0,0,1.05.06l1,0,.86,0c.3,0,.71,0,1.22,0a2.35,2.35,0,0,1,.6.07c.15,0,.23.13.23.24,0,.27-.32.46-.94.57a3.37,3.37,0,0,0-1.54.63,1.82,1.82,0,0,0-.48,1.42v12.87a1.73,1.73,0,0,0,.59,1.45,3.92,3.92,0,0,0,1.66.65c.62.12.94.29.94.52s-.08.19-.23.24a2,2,0,0,1-.6.07c-.51,0-.93,0-1.27,0s-.65-.06-1-.07-.67,0-1.11,0-.89,0-1.24,0-.71,0-1.08.07-.81,0-1.32,0a2,2,0,0,1-.6-.07c-.15-.05-.23-.13-.23-.24A.36.36,0,0,1,255,108a3.18,3.18,0,0,1,.71-.2,4.53,4.53,0,0,0,1.21-.39,1.8,1.8,0,0,0,.75-.69,1.93,1.93,0,0,0,.26-1v-4.81c0-.48-.07-.74-.21-.8a3.09,3.09,0,0,0-.93-.08,1.55,1.55,0,0,0-.81.25q-.41.26-.9.51a5.66,5.66,0,0,0-2,1.88c-.61.9-1.22,1.8-1.85,2.71a20,20,0,0,1-1.32,1.75,7,7,0,0,1-1.5,1.32A3.2,3.2,0,0,1,246.68,108.92ZM255.79,99a5.07,5.07,0,0,0,1.55-.19.84.84,0,0,0,.58-.92V92.81a2,2,0,0,0-.64-1.65,2.5,2.5,0,0,0-1.61-.51,4.45,4.45,0,0,0-2.09.51A4.24,4.24,0,0,0,252,92.54a3.45,3.45,0,0,0-.6,2,4.47,4.47,0,0,0,1.13,3.39A4.6,4.6,0,0,0,255.79,99Z"/><path d="M129.1,140.42l-.68,0-1.18,0-1.38-.06-1.31,0-1.5,0-1.88,0-1.65,0h-.89a.82.82,0,0,1-.33-.17c-.16-.11-.24-.22-.24-.31a.34.34,0,0,1,.08-.26l.2-.2,4.61-4.9a13.27,13.27,0,0,0,2.32-3.3,8.24,8.24,0,0,0,.87-3.7,3.11,3.11,0,0,0-.8-2.23,2.62,2.62,0,0,0-2-.84,3.71,3.71,0,0,0-2.06.61,5.11,5.11,0,0,0-1.55,1.52,1.45,1.45,0,0,1-.29.32.59.59,0,0,1-.37.14c-.09,0-.18-.08-.27-.23a1.2,1.2,0,0,1-.13-.57,2.15,2.15,0,0,1,.43-1,5.89,5.89,0,0,1,1.2-1.29,6.81,6.81,0,0,1,1.82-1.11,5.55,5.55,0,0,1,2.27-.46,4.76,4.76,0,0,1,2.45.61,4,4,0,0,1,1.57,1.68,5.31,5.31,0,0,1,.54,2.44,5.43,5.43,0,0,1-.3,1.68,10.16,10.16,0,0,1-.78,1.76,11.21,11.21,0,0,1-1.09,1.57c-.24.3-.6.69-1.06,1.16l-1.48,1.5-1.5,1.48-1.15,1.15a2.49,2.49,0,0,0-.44.51c0,.08.13.14.4.17s.72.07,1.15.09.89,0,1.38,0,1,0,1.52,0,1,0,1.47-.09a6.36,6.36,0,0,0,1.22-.17,1.73,1.73,0,0,0,.79-.42,4,4,0,0,0,.64-.89,5,5,0,0,1,.31-.4.55.55,0,0,1,.43-.22.2.2,0,0,1,.22.14.45.45,0,0,1,0,.28,9.19,9.19,0,0,1-.28.91c-.13.38-.27.79-.4,1.21a11.37,11.37,0,0,0-.31,1.21.69.69,0,0,1-.27.53A.72.72,0,0,1,129.1,140.42Z"/><path d="M151.37,130.47a22.81,22.81,0,0,1-.35,4.13,9.4,9.4,0,0,1-1.19,3.21,5.9,5.9,0,0,1-2.16,2.08,6.75,6.75,0,0,1-3.29.73,6.67,6.67,0,0,1-3.12-.66,5.2,5.2,0,0,1-2-1.94,9.11,9.11,0,0,1-1.1-3.16,25,25,0,0,1-.33-4.3,21,21,0,0,1,.37-4.12,9.58,9.58,0,0,1,1.18-3.22,5.82,5.82,0,0,1,2.16-2.08,7.74,7.74,0,0,1,6.41-.07,5.2,5.2,0,0,1,2,1.94,9.32,9.32,0,0,1,1.1,3.16A25.06,25.06,0,0,1,151.37,130.47Zm-2.67.18c0-1,0-1.86-.1-2.64a16.46,16.46,0,0,0-.31-2.06,6.74,6.74,0,0,0-.54-1.54,3.48,3.48,0,0,0-.78-1.07,2.78,2.78,0,0,0-1-.6,4.1,4.1,0,0,0-1.31-.19,3.33,3.33,0,0,0-2.09.61,4.05,4.05,0,0,0-1.27,1.66,8.72,8.72,0,0,0-.63,2.49,26.8,26.8,0,0,0-.17,3.07,26.32,26.32,0,0,0,.23,3.74,8.17,8.17,0,0,0,.72,2.51,3.25,3.25,0,0,0,1.26,1.41,3.71,3.71,0,0,0,1.86.44,3.9,3.9,0,0,0,1.5-.27,3.07,3.07,0,0,0,1.1-.78,4.3,4.3,0,0,0,.77-1.22,8.86,8.86,0,0,0,.48-1.58,12.92,12.92,0,0,0,.26-1.88Q148.7,131.75,148.7,130.65Z"/><path d="M173.34,130.47a21.9,21.9,0,0,1-.36,4.13,9.39,9.39,0,0,1-1.18,3.21,5.9,5.9,0,0,1-2.16,2.08,6.75,6.75,0,0,1-3.29.73,6.67,6.67,0,0,1-3.12-.66,5.07,5.07,0,0,1-2-1.94,8.91,8.91,0,0,1-1.1-3.16,25,25,0,0,1-.33-4.3,21.87,21.87,0,0,1,.36-4.12,9.81,9.81,0,0,1,1.19-3.22,5.72,5.72,0,0,1,2.15-2.08,7.74,7.74,0,0,1,6.41-.07,5.16,5.16,0,0,1,2,1.94,9.11,9.11,0,0,1,1.09,3.16A25,25,0,0,1,173.34,130.47Zm-2.67.18c0-1,0-1.86-.11-2.64a14.8,14.8,0,0,0-.31-2.06,6.3,6.3,0,0,0-.53-1.54,3.84,3.84,0,0,0-.78-1.07,2.78,2.78,0,0,0-1-.6,4.15,4.15,0,0,0-1.31-.19,3.38,3.38,0,0,0-2.1.61,4.12,4.12,0,0,0-1.26,1.66,8.72,8.72,0,0,0-.63,2.49,26.8,26.8,0,0,0-.17,3.07,26.32,26.32,0,0,0,.23,3.74,8.17,8.17,0,0,0,.72,2.51,3.25,3.25,0,0,0,1.26,1.41,3.71,3.71,0,0,0,1.86.44,3.85,3.85,0,0,0,1.49-.27,3.11,3.11,0,0,0,1.11-.78,4.53,4.53,0,0,0,.77-1.22,8.86,8.86,0,0,0,.48-1.58,13,13,0,0,0,.25-1.88C170.65,132.08,170.67,131.38,170.67,130.65Z"/><path d="M187.16,140.43a.82.82,0,0,1-.36-.1.32.32,0,0,1-.2-.31c0-.1.06-.18.19-.25a1.33,1.33,0,0,1,.37-.12,3.67,3.67,0,0,0,1.93-.62,1.54,1.54,0,0,0,.46-1.18V135c0-.11-.07-.18-.21-.22l-.25-.06c-.85,0-1.64,0-2.38,0l-2.31.1c-.81,0-1.77.05-2.86.07a.27.27,0,0,1-.22-.1.35.35,0,0,1-.09-.21.12.12,0,0,1,0-.09c.27-.33.46-.56.59-.7l.31-.34a4.63,4.63,0,0,0,.31-.42l8.2-11.78a5.6,5.6,0,0,1,.45-.57.72.72,0,0,1,.49-.3h.65c.1,0,.08.15-.06.44l-8.4,12.05a1.62,1.62,0,0,0-.06.17c0,.08,0,.11.06.11h5.38a.47.47,0,0,0,.25-.07c.08-.06.12-.11.12-.17v-4.82a1.6,1.6,0,0,1,0-.47.49.49,0,0,1,.23-.22,3.16,3.16,0,0,1,1-.32,6.49,6.49,0,0,1,.74-.08c.23,0,.37.17.41.5A13.55,13.55,0,0,1,192,129v4c0,.12.05.18.16.18a4.82,4.82,0,0,0,.65,0h.59l.89,0,.94,0c.23,0,.34.09.34.25a1.11,1.11,0,0,1-.14.53,2.54,2.54,0,0,1-.29.47c-.1.12-.18.18-.22.18h-.74l-.78,0-.53,0-.43,0-.27.1c-.09,0-.14.07-.14.09v2.92a1.55,1.55,0,0,0,.42,1.25,5.29,5.29,0,0,0,1.66.68,1,1,0,0,1,.38.15.36.36,0,0,1,.18.28.28.28,0,0,1-.14.24.52.52,0,0,1-.32.11c-.58,0-1,0-1.39-.05l-.94-.08c-.29,0-.69,0-1.18,0s-.94,0-1.26,0l-1,.08C188.17,140.41,187.72,140.43,187.16,140.43Z"/><path d="M202.76,135.49a.15.15,0,0,1-.17-.17,4.34,4.34,0,0,1,.13-1q.14-.51.33-.54l2.73-.39c.91-.12,1.82-.23,2.73-.32a.29.29,0,0,1,.16,0,.14.14,0,0,1,.07.13,3.68,3.68,0,0,1-.13,1c-.08.31-.24.49-.47.52-.85.14-1.72.26-2.6.39S203.73,135.4,202.76,135.49Z"/><path d="M227.5,140.42l-.69,0-1.18,0-1.38-.06-1.31,0-1.49,0-1.88,0-1.65,0H217a.88.88,0,0,1-.32-.17c-.16-.11-.25-.22-.25-.31a.34.34,0,0,1,.09-.26l.2-.2,4.61-4.9a13.27,13.27,0,0,0,2.32-3.3,8.24,8.24,0,0,0,.87-3.7,3.11,3.11,0,0,0-.8-2.23,2.64,2.64,0,0,0-2-.84,3.76,3.76,0,0,0-2.07.61,5.35,5.35,0,0,0-1.55,1.52,1.4,1.4,0,0,1-.28.32.59.59,0,0,1-.37.14c-.1,0-.19-.08-.27-.23a1.09,1.09,0,0,1-.13-.57,2,2,0,0,1,.43-1A6.08,6.08,0,0,1,218.7,124a7,7,0,0,1,1.82-1.11,5.63,5.63,0,0,1,2.28-.46,4.76,4.76,0,0,1,2.45.61,4.08,4.08,0,0,1,1.56,1.68,5.32,5.32,0,0,1,.55,2.44,5.43,5.43,0,0,1-.3,1.68,9.5,9.5,0,0,1-.79,1.76,10.37,10.37,0,0,1-1.08,1.57c-.24.3-.6.69-1.06,1.16s-1,1-1.49,1.5l-1.49,1.48c-.47.46-.86.85-1.15,1.15a2.15,2.15,0,0,0-.44.51c0,.08.13.14.4.17s.72.07,1.15.09.89,0,1.38,0,1,0,1.52,0,1,0,1.47-.09a6.36,6.36,0,0,0,1.22-.17,1.69,1.69,0,0,0,.78-.42,3.46,3.46,0,0,0,.64-.89c.08-.11.18-.24.32-.4a.55.55,0,0,1,.42-.22.21.21,0,0,1,.23.14.45.45,0,0,1,0,.28c-.06.23-.15.53-.28.91s-.27.79-.4,1.21a11.54,11.54,0,0,0-.32,1.21.64.64,0,0,1-.27.53A.69.69,0,0,1,227.5,140.42Z"/><path d="M249.77,130.47a22.81,22.81,0,0,1-.35,4.13,9.61,9.61,0,0,1-1.19,3.21,5.9,5.9,0,0,1-2.16,2.08,6.75,6.75,0,0,1-3.29.73,6.67,6.67,0,0,1-3.12-.66,5.07,5.07,0,0,1-2-1.94,8.91,8.91,0,0,1-1.1-3.16,25,25,0,0,1-.33-4.3,21.87,21.87,0,0,1,.36-4.12,9.81,9.81,0,0,1,1.19-3.22,5.72,5.72,0,0,1,2.15-2.08,7.74,7.74,0,0,1,6.41-.07,5.16,5.16,0,0,1,2,1.94,9.32,9.32,0,0,1,1.1,3.16A26.11,26.11,0,0,1,249.77,130.47Zm-2.67.18c0-1,0-1.86-.1-2.64a16.33,16.33,0,0,0-.32-2.06,6.3,6.3,0,0,0-.53-1.54,3.84,3.84,0,0,0-.78-1.07,2.78,2.78,0,0,0-1-.6,4.15,4.15,0,0,0-1.31-.19,3.38,3.38,0,0,0-2.1.61,4.12,4.12,0,0,0-1.26,1.66,8.72,8.72,0,0,0-.63,2.49,26.8,26.8,0,0,0-.17,3.07,26.32,26.32,0,0,0,.23,3.74,8.17,8.17,0,0,0,.72,2.51,3.25,3.25,0,0,0,1.26,1.41,3.71,3.71,0,0,0,1.86.44,3.85,3.85,0,0,0,1.49-.27,3.11,3.11,0,0,0,1.11-.78,4.53,4.53,0,0,0,.77-1.22,8.86,8.86,0,0,0,.48-1.58,13,13,0,0,0,.25-1.88C247.08,132.08,247.1,131.38,247.1,130.65Z"/><path d="M270.93,134c0-3.23-2.89-4.29-6.5-4.29H264v-2.58h.38c4,0,6-1.08,6-3.73,0-2.39-2-3.66-4.39-3.66a4.54,4.54,0,0,0-4.91,4.38h-2.92c.34-4,3.17-6.75,7.9-6.75,3.88,0,7.3,1.59,7.3,5.72a5.5,5.5,0,0,1-3.67,5.22c3.36,1.09,4.29,3.27,4.29,5.66,0,4.54-3.82,6.75-8.14,6.75-5.35,0-7.68-3.3-8-7.06h2.92c.34,2.77,1.93,4.7,5.13,4.7C268.81,138.38,270.93,136.85,270.93,134Z"/><path d="M286,140.33V124.91h-4.44v-2.68c3-.08,4.41-.28,5.38-2.53h3v20.63Z"/></svg>