<svg id="Слой_1" data-name="Слой 1" xmlns="http://www.w3.org/2000/svg" viewBox="0 0 400 400"><defs><style>.cls-1,.cls-2{fill:#fff;stroke:#000;stroke-width:3px;}.cls-1{stroke-miterlimit:10;}.cls-2{stroke-linecap:round;stroke-linejoin:round;}.cls-3{fill:#608b70;}.cls-4{fill:#c1362d;}</style></defs><title>g50</title><path class="cls-1" d="M347.84,42.74C419.48,58.33,337.67,388,337.67,388h-283C26.06,148.43,28.5,71.72,48.24,59.72,69.8,46.61,105.68,109.79,137,85.19,156,70.28,155,37.56,170.3,34.25c23.87-5.15,40.16,71,62.88,65.09,15.75-4.06,16.31-42.75,35.14-50.94,15.54-6.76,32.65,12,44.38,28.3C312.7,76.7,325.68,37.92,347.84,42.74Z"/><path class="cls-1" d="M287.39,300.74c13.4-14.66,44,1.46,51-10.51,4.22-7.16-6-14.19-1.92-29.68,2.39-9.17,7.46-12.43,5.43-17.77s-8-4.5-16.29-10.94c-10.75-8.35-7.17-14.75-15-19.17-11.2-6.34-21,5.46-36.88-.81-6.05-2.39-4.77-4.16-14.32-9.27-8.21-4.4-17-9.07-26.05-8.35-14.3,1.14-27.11,15.45-30.48,29.76-3.83,16.28,5.68,27.9-.28,32.66-5.65,4.52-18.59-2.41-22.38-4.44-12.14-6.5-13.88-13.27-25.91-24-9.28-8.28-17.46-15.58-29.48-18.28-15.91-3.58-20.43,5-44.68,2.09-7.51-.89-10.7-2.14-13.4.08-6.6,5.4-3.17,25.62,7.87,38.82,9.59,11.48,19.1,10.71,24.78,23.43,2.59,5.82,2.23,9.62,6.54,13.55,5,4.53,9.77,3.38,18.2,5.76,12.61,3.55,20.84,11.46,24.71,15.19,10.87,10.44,6.16,14.27,16.41,24.67,11.4,11.57,20.73,10.4,25.32,21,3.47,8,1.07,15.39,2.65,15.69,2,.38,3.41-11.84,11.8-24.81,2.72-4.2,9.15-13.88,21.34-20,4-2,17.9-9,25.66-3.47,5,3.55,4.29,10,9,11.39,1,.28,4.38,1,10.58-4.24C283.57,319,280.25,308.55,287.39,300.74Z"/><line class="cls-2" x1="174.95" y1="292.3" x2="236.31" y2="291.08"/><path class="cls-3" d="M154.74,264.93a17.51,17.51,0,1,1-17.51-17.51,17.51,17.51,0,0,1,17.51,17.51"/><polygon class="cls-4" points="266.1 238.65 277.45 258.31 266.1 277.98 243.39 277.98 232.03 258.31 243.39 238.65 266.1 238.65"/><path d="M117.3,122.34v6.37c0,2.74,1.43,4.29,4.26,4.29a7.84,7.84,0,0,0,4-1.13v-9.53h2.62v20.07h-2.62V133.9h-.06a9.75,9.75,0,0,1-4.83,1.25c-2.65,0-5.92-1.14-5.92-6.05v-6.76Z"/><path d="M151.34,123.1c-.07.69-.12,1.36-.15,2s0,1.14,0,1.49,0,.67,0,1,0,.57.06.77h-.63a11.4,11.4,0,0,0-.58-2.76,2.67,2.67,0,0,0-1.18-1.43,4.61,4.61,0,0,0-2.17-.43h-1.88a4.36,4.36,0,0,0-1.32.16.93.93,0,0,0-.62.6,4.37,4.37,0,0,0-.16,1.4v13.75a4.42,4.42,0,0,0,.16,1.39,1,1,0,0,0,.62.62,4.42,4.42,0,0,0,1.32.15h1.77a5.33,5.33,0,0,0,2.47-.49,3.13,3.13,0,0,0,1.39-1.61,12,12,0,0,0,.73-3.06h.63a19.14,19.14,0,0,0-.09,2.07c0,.37,0,.89,0,1.59s.08,1.4.15,2.12c-.92,0-2,0-3.13-.06l-3.11,0h-2.25l-3,0c-1.06,0-2.06,0-3,.06v-.54a5.5,5.5,0,0,0,1.39-.22,1,1,0,0,0,.61-.65,5.44,5.44,0,0,0,.15-1.48V126a5.42,5.42,0,0,0-.15-1.49,1,1,0,0,0-.63-.65,4.42,4.42,0,0,0-1.37-.21v-.54l3,.05,3,0h5.1C149.55,123.16,150.5,123.13,151.34,123.1Zm-4.53,9.33V133h-4.94v-.54Zm.79-3.6c-.07,1-.1,1.83-.09,2.37s0,1.05,0,1.5,0,1,0,1.5.06,1.34.13,2.38h-.62c-.1-.6-.21-1.18-.36-1.74a2.76,2.76,0,0,0-.78-1.35,2.5,2.5,0,0,0-1.73-.52v-.54a2.16,2.16,0,0,0,1.71-.62,3.3,3.3,0,0,0,.73-1.46c.14-.56.25-1.07.34-1.52Z"/><path d="M169.73,142.82a10.51,10.51,0,0,1-3.69-.65,10.17,10.17,0,0,1-3.16-1.87,8.67,8.67,0,0,1-3-6.7,8.15,8.15,0,0,1,.84-3.68A9.45,9.45,0,0,1,163,127a11.18,11.18,0,0,1,3.37-2,11.64,11.64,0,0,1,4-.69,15.41,15.41,0,0,1,1.8.08,12.93,12.93,0,0,1,1.43.23c.47.1,1,.23,1.63.4a1.11,1.11,0,0,1,.58.32,1.08,1.08,0,0,1,.21.6c0,.42.08.87.13,1.35s.09,1.08.11,1.79a.3.3,0,0,1-.17.31.53.53,0,0,1-.44.07.41.41,0,0,1-.31-.35,11.87,11.87,0,0,0-.63-1.79,3.11,3.11,0,0,0-1.07-1.24,5,5,0,0,0-1.65-.7,9.14,9.14,0,0,0-2.08-.23,6.73,6.73,0,0,0-2.94.64,7.15,7.15,0,0,0-2.32,1.75,8.43,8.43,0,0,0-1.51,2.49,8,8,0,0,0-.55,2.9,10.19,10.19,0,0,0,.54,3.27,9.85,9.85,0,0,0,1.52,2.91,8,8,0,0,0,2.38,2.07,6.12,6.12,0,0,0,3.07.78,5.49,5.49,0,0,0,3.24-.9,7.41,7.41,0,0,0,2.19-2.51.59.59,0,0,1,.56-.36c.24,0,.36.15.36.44a3,3,0,0,1-.11.69,9.12,9.12,0,0,1-.28,1c-.12.36-.23.67-.34,1a1.85,1.85,0,0,1-.32.49,1.82,1.82,0,0,1-.56.24,10.21,10.21,0,0,1-2.41.6A19.94,19.94,0,0,1,169.73,142.82Z"/><path d="M205.05,142.24c0,.11,0,.17-.09.17-.62,0-1.1,0-1.46,0l-2.06,0-2.17,0c-.36,0-.84,0-1.43,0-.06,0-.09-.06-.09-.17s0-.18.09-.18a7,7,0,0,0,1.7-.15,1.07,1.07,0,0,0,.73-.58,3.43,3.43,0,0,0,.19-1.33v-7H189v7a3.43,3.43,0,0,0,.19,1.33,1.07,1.07,0,0,0,.73.58,7,7,0,0,0,1.7.15s.06.06.06.18,0,.17-.06.17c-.61,0-1.1,0-1.46,0l-2.14,0-2.06,0c-.35,0-.85,0-1.49,0,0,0-.06-.06-.06-.17s0-.18.06-.18a7,7,0,0,0,1.69-.15,1.06,1.06,0,0,0,.74-.58,3.43,3.43,0,0,0,.19-1.33V126.21a3.28,3.28,0,0,0-.19-1.31,1.1,1.1,0,0,0-.73-.58,6.11,6.11,0,0,0-1.67-.17s-.06-.06-.06-.18,0-.17.06-.17l1.52,0c.84,0,1.5,0,2,0s1.3,0,2.17,0l1.43,0s.06.06.06.17,0,.18-.06.18a5.83,5.83,0,0,0-1.68.18,1.15,1.15,0,0,0-.75.61,3.43,3.43,0,0,0-.19,1.33v6.13h11.44v-6.13a3.43,3.43,0,0,0-.19-1.33,1.16,1.16,0,0,0-.73-.61,5.85,5.85,0,0,0-1.7-.18q-.09,0-.09-.18c0-.11,0-.17.09-.17l1.43,0c.87,0,1.6,0,2.17,0s1.23,0,2.06,0l1.46,0c.06,0,.09.06.09.17s0,.18-.09.18a6.11,6.11,0,0,0-1.67.17,1.1,1.1,0,0,0-.73.58,3.28,3.28,0,0,0-.19,1.31V140a3.43,3.43,0,0,0,.19,1.33,1,1,0,0,0,.73.58,6.74,6.74,0,0,0,1.67.15Q205.05,142.06,205.05,142.24Z"/><path d="M222.6,122.72a9.88,9.88,0,0,1,4.89,1.17,8,8,0,0,1,3.26,3.37,11.31,11.31,0,0,1,1.16,5.33,11.5,11.5,0,0,1-1.19,5.35,8.76,8.76,0,0,1-3.3,3.57,9.1,9.1,0,0,1-4.84,1.29,9.78,9.78,0,0,1-4.89-1.18,8.12,8.12,0,0,1-3.26-3.38,12.65,12.65,0,0,1,0-10.67,8.85,8.85,0,0,1,3.31-3.57A9,9,0,0,1,222.6,122.72Zm-.1.49a3.78,3.78,0,0,0-2.8,1.22,8.17,8.17,0,0,0-1.84,3.39,17,17,0,0,0-.66,5,15.46,15.46,0,0,0,.74,5,7.91,7.91,0,0,0,2,3.31,4,4,0,0,0,2.76,1.15,3.74,3.74,0,0,0,2.79-1.22,8.15,8.15,0,0,0,1.84-3.4,17.12,17.12,0,0,0,.66-5,15.5,15.5,0,0,0-.74-5,7.94,7.94,0,0,0-2-3.28A3.91,3.91,0,0,0,222.5,123.21Z"/><path d="M252.66,142.05a.33.33,0,0,1-.06.19.45.45,0,0,1-.2.14,1.92,1.92,0,0,1-.37.08,3.25,3.25,0,0,1-.6,0,3.37,3.37,0,0,1-.58,0,2.55,2.55,0,0,1-.4-.08.52.52,0,0,1-.22-.14.33.33,0,0,1-.06-.19v-7.21l-1.65.15q-.79.06-1.62.06a14.27,14.27,0,0,1-2.61-.22,5.22,5.22,0,0,1-2.09-.86,4.21,4.21,0,0,1-1.39-1.75,7.11,7.11,0,0,1-.5-2.91V124a.32.32,0,0,1,.25-.33,1.94,1.94,0,0,1,.38-.09,4.45,4.45,0,0,1,1.19,0,2.84,2.84,0,0,1,.39.09.4.4,0,0,1,.22.14.38.38,0,0,1,0,.19v5.17a6.33,6.33,0,0,0,.19,1.58,2.75,2.75,0,0,0,.67,1.19,3,3,0,0,0,1.31.75,7,7,0,0,0,2.12.27c.54,0,1.06,0,1.57-.06l1.52-.13V124a.31.31,0,0,1,.06-.19.44.44,0,0,1,.22-.14,2.42,2.42,0,0,1,.4-.09,4.8,4.8,0,0,1,.58,0,4.47,4.47,0,0,1,.6,0,1.81,1.81,0,0,1,.37.09.38.38,0,0,1,.2.14.31.31,0,0,1,.06.19Z"/><path d="M264,120.82h13.85v1.85H266v7.62H277.1v1.88H266v8.4h11.85v1.84H264Z"/><path d="M291.63,130h1.67l6.44-8.7h4.64l-7.59,10.22,8.28,10.93h-4.59l-6.79-8.75h-2.06v8.75h-4.08V121.26h4.08Z"/><path d="M130.72,169.62V154.83h-4.26v-2.56c2.84-.08,4.23-.28,5.16-2.43h2.86v19.78Z"/><path d="M143.81,170.46a.56.56,0,0,1-.3-.06.22.22,0,0,1-.08-.15.24.24,0,0,1,.12-.21.59.59,0,0,1,.26-.07,4.32,4.32,0,0,0,1.9-.53,11.07,11.07,0,0,0,2.18-1.44,12.73,12.73,0,0,0,2-2,13.32,13.32,0,0,0,1.4-2.23,9.39,9.39,0,0,0,.78-2.25,11.56,11.56,0,0,0,.25-2.47,6.44,6.44,0,0,0-.32-2,7.81,7.81,0,0,0-.84-1.8,5,5,0,0,0-1.23-1.31,2.42,2.42,0,0,0-1.43-.49,2.31,2.31,0,0,0-1.48.48,3,3,0,0,0-.9,1.17,3.44,3.44,0,0,0-.3,1.38,3.65,3.65,0,0,0,.4,1.61,3.52,3.52,0,0,0,1.05,1.29,2.2,2.2,0,0,0,1.36.51,2.69,2.69,0,0,0,1.26-.23,9.93,9.93,0,0,1,.93-.48c.07,0,.13,0,.17.08a.22.22,0,0,1,0,.22,2,2,0,0,1-.41.53,5.09,5.09,0,0,1-.49.42,5.47,5.47,0,0,1-.6.36,7.37,7.37,0,0,1-.9.38,3.2,3.2,0,0,1-1,.17,4.11,4.11,0,0,1-1.82-.45,3.91,3.91,0,0,1-1.44-1.23,2.91,2.91,0,0,1-.56-1.76,4.67,4.67,0,0,1,.41-1.89,6,6,0,0,1,1.16-1.75,5.8,5.8,0,0,1,1.78-1.3,5.2,5.2,0,0,1,2.27-.49,3.92,3.92,0,0,1,1.92.53,6.12,6.12,0,0,1,1.69,1.42,7.07,7.07,0,0,1,1.19,2,6.31,6.31,0,0,1,.44,2.3,10.05,10.05,0,0,1-.47,3.12,11,11,0,0,1-1.33,2.74,24,24,0,0,1-2.13,2.68,8.8,8.8,0,0,1-1.64,1.41,11.81,11.81,0,0,1-1.83,1,8.53,8.53,0,0,1-1.81.6A7.45,7.45,0,0,1,143.81,170.46Z"/><path d="M162.37,170.46a.52.52,0,0,1-.3-.06.2.2,0,0,1-.09-.15.23.23,0,0,1,.13-.21.56.56,0,0,1,.26-.07,4.32,4.32,0,0,0,1.89-.53,10.78,10.78,0,0,0,2.18-1.44,12.73,12.73,0,0,0,2-2,14.1,14.1,0,0,0,1.41-2.23,9.82,9.82,0,0,0,.77-2.25,11.56,11.56,0,0,0,.25-2.47,6.43,6.43,0,0,0-.31-2,7.83,7.83,0,0,0-.85-1.8,4.69,4.69,0,0,0-1.23-1.31,2.42,2.42,0,0,0-1.43-.49,2.28,2.28,0,0,0-1.47.48,3,3,0,0,0-.9,1.17,3.44,3.44,0,0,0-.3,1.38,3.63,3.63,0,0,0,.39,1.61,3.73,3.73,0,0,0,1.05,1.29,2.2,2.2,0,0,0,1.37.51,2.67,2.67,0,0,0,1.25-.23,9.93,9.93,0,0,1,.93-.48c.07,0,.13,0,.18.08s.05.17,0,.22a2,2,0,0,1-.41.53,4.11,4.11,0,0,1-.49.42,5.47,5.47,0,0,1-.6.36,6.24,6.24,0,0,1-.9.38,3.15,3.15,0,0,1-1,.17,4.07,4.07,0,0,1-1.81-.45,3.87,3.87,0,0,1-1.45-1.23,3,3,0,0,1-.56-1.76,4.85,4.85,0,0,1,.41-1.89,6,6,0,0,1,1.16-1.75,5.73,5.73,0,0,1,1.79-1.3,5.16,5.16,0,0,1,2.26-.49,3.86,3.86,0,0,1,1.92.53,6.31,6.31,0,0,1,1.7,1.42,7,7,0,0,1,1.18,2,6.31,6.31,0,0,1,.44,2.3,10.36,10.36,0,0,1-.46,3.12,11,11,0,0,1-1.34,2.74,21.86,21.86,0,0,1-2.13,2.68,8.8,8.8,0,0,1-1.64,1.41,12.2,12.2,0,0,1-1.82,1,8.61,8.61,0,0,1-1.82.6A7.43,7.43,0,0,1,162.37,170.46Z"/><path d="M180.92,170.46a.52.52,0,0,1-.3-.06.19.19,0,0,1-.08-.15.24.24,0,0,1,.12-.21.59.59,0,0,1,.26-.07,4.29,4.29,0,0,0,1.89-.53A11.12,11.12,0,0,0,185,168a13.11,13.11,0,0,0,2-2,12.79,12.79,0,0,0,1.41-2.23,10.35,10.35,0,0,0,.78-2.25,12.25,12.25,0,0,0,.24-2.47,6.43,6.43,0,0,0-.31-2,7.44,7.44,0,0,0-.85-1.8,4.81,4.81,0,0,0-1.22-1.31,2.47,2.47,0,0,0-1.44-.49,2.28,2.28,0,0,0-1.47.48,3,3,0,0,0-.9,1.17,3.44,3.44,0,0,0-.3,1.38,3.73,3.73,0,0,0,1.45,2.9,2.17,2.17,0,0,0,1.36.51,2.67,2.67,0,0,0,1.25-.23q.42-.24.93-.48c.07,0,.13,0,.18.08a.2.2,0,0,1,0,.22,1.77,1.77,0,0,1-.41.53,4.11,4.11,0,0,1-.49.42,4,4,0,0,1-.6.36,6.24,6.24,0,0,1-.9.38,3.1,3.1,0,0,1-1,.17,4.07,4.07,0,0,1-1.81-.45,3.94,3.94,0,0,1-1.45-1.23,3,3,0,0,1-.56-1.76,4.85,4.85,0,0,1,.41-1.89,6,6,0,0,1,1.16-1.75,5.85,5.85,0,0,1,1.79-1.3,5.19,5.19,0,0,1,2.26-.49,3.93,3.93,0,0,1,1.93.53,6.27,6.27,0,0,1,1.69,1.42,7.31,7.31,0,0,1,1.19,2,6.3,6.3,0,0,1,.43,2.3,10.06,10.06,0,0,1-.46,3.12,11,11,0,0,1-1.34,2.74,21.86,21.86,0,0,1-2.13,2.68,8.74,8.74,0,0,1-1.63,1.41,11.81,11.81,0,0,1-1.83,1,8.61,8.61,0,0,1-1.82.6A7.43,7.43,0,0,1,180.92,170.46Z"/><path d="M198.6,165c-.11,0-.17,0-.17-.16a3.63,3.63,0,0,1,.13-1c.08-.32.18-.5.31-.52l2.62-.36c.87-.12,1.74-.23,2.62-.32a.42.42,0,0,1,.15,0,.16.16,0,0,1,.07.13,3.32,3.32,0,0,1-.13,1q-.12.45-.45.51l-2.49.37C200.41,164.79,199.52,164.89,198.6,165Z"/><path d="M222.31,169.7h-.66l-1.13,0-1.32-.06-1.26,0-1.43,0-1.8,0-1.58,0h-.86a.74.74,0,0,1-.32-.16c-.15-.11-.23-.21-.23-.3a.37.37,0,0,1,.08-.25l.19-.19,4.42-4.69a13.08,13.08,0,0,0,2.23-3.16,8,8,0,0,0,.83-3.55,3,3,0,0,0-.76-2.14,2.53,2.53,0,0,0-1.92-.81,3.58,3.58,0,0,0-2,.59,4.94,4.94,0,0,0-1.49,1.46,1.27,1.27,0,0,1-.27.3.56.56,0,0,1-.36.14c-.09,0-.17-.08-.26-.22a1.15,1.15,0,0,1-.12-.55,2,2,0,0,1,.41-1,5.89,5.89,0,0,1,1.15-1.24,6.79,6.79,0,0,1,1.74-1.06,5.44,5.44,0,0,1,2.18-.44,4.5,4.5,0,0,1,2.35.59,3.82,3.82,0,0,1,1.5,1.61,5,5,0,0,1,.52,2.33,5.23,5.23,0,0,1-.29,1.61,9.07,9.07,0,0,1-.75,1.69,9.67,9.67,0,0,1-1,1.5c-.24.29-.58.67-1,1.12l-1.42,1.43c-.5.5-1,1-1.43,1.42l-1.1,1.11a2.18,2.18,0,0,0-.43.49c0,.07.13.13.39.16s.69.06,1.1.08.85,0,1.32,0,1,0,1.46,0,.95,0,1.41-.08a6.87,6.87,0,0,0,1.17-.16,1.72,1.72,0,0,0,.75-.41,3.4,3.4,0,0,0,.62-.85,3.47,3.47,0,0,1,.3-.38.52.52,0,0,1,.41-.22.21.21,0,0,1,.21.14.42.42,0,0,1,0,.27c-.05.22-.15.51-.27.87s-.26.75-.38,1.16a10.49,10.49,0,0,0-.3,1.16.69.69,0,0,1-.26.51A.73.73,0,0,1,222.31,169.7Z"/><path d="M243.66,160.16a20.91,20.91,0,0,1-.35,4,8.92,8.92,0,0,1-1.13,3.08,5.56,5.56,0,0,1-2.07,2,7.35,7.35,0,0,1-6.15.07,4.93,4.93,0,0,1-2-1.86,8.87,8.87,0,0,1-1.05-3,24.22,24.22,0,0,1-.31-4.13,20.23,20.23,0,0,1,.35-3.95,9.26,9.26,0,0,1,1.13-3.08,5.41,5.41,0,0,1,2.07-2,7.38,7.38,0,0,1,6.14-.08,5.07,5.07,0,0,1,2,1.86,8.85,8.85,0,0,1,1.05,3A24,24,0,0,1,243.66,160.16Zm-2.56.18c0-.94,0-1.79-.11-2.53a14,14,0,0,0-.29-2,7.73,7.73,0,0,0-.51-1.48,3.65,3.65,0,0,0-.75-1,3,3,0,0,0-1-.58,4.08,4.08,0,0,0-1.26-.18,3.27,3.27,0,0,0-2,.58,3.91,3.91,0,0,0-1.22,1.6,8.44,8.44,0,0,0-.6,2.39,24.6,24.6,0,0,0-.16,2.94,24.29,24.29,0,0,0,.22,3.58,7.61,7.61,0,0,0,.69,2.41,3.08,3.08,0,0,0,1.2,1.35,4,4,0,0,0,3.22.16,2.93,2.93,0,0,0,1.06-.75,3.81,3.81,0,0,0,.73-1.17,7.87,7.87,0,0,0,.47-1.51,11.88,11.88,0,0,0,.24-1.8C241.07,161.71,241.1,161,241.1,160.34Z"/><path d="M263.93,163.57c0-3.1-2.77-4.11-6.22-4.11h-.45V157h.36c3.78,0,5.74-1,5.74-3.57,0-2.3-1.9-3.52-4.19-3.52a4.35,4.35,0,0,0-4.71,4.2h-2.8c.33-3.81,3-6.46,7.56-6.46,3.73,0,7,1.52,7,5.48a5.27,5.27,0,0,1-3.51,5c3.22,1,4.11,3.13,4.11,5.42,0,4.35-3.66,6.47-7.8,6.47-5.13,0-7.36-3.16-7.69-6.76h2.8c.33,2.65,1.85,4.49,4.92,4.49C261.91,167.74,263.93,166.28,263.93,163.57Z"/><path d="M286,164.05c0-2.32-2.16-3.24-5-3.24h-.79v-2.95h.66c2.83,0,4.61-1,4.61-2.89s-1.5-2.65-3.14-2.65a3.65,3.65,0,0,0-3.9,3.49h-3.58c.44-3.95,3.14-6.33,7.7-6.33,3.3,0,6.71,1.59,6.71,5.32a5,5,0,0,1-2.67,4.34,5.22,5.22,0,0,1,3.19,4.8c0,4-3.47,6-7.64,6-4.53,0-7.23-2.94-7.45-6.57h3.55c.3,2,1.53,3.74,4,3.74C284.32,167.14,286,165.91,286,164.05Z"/></svg>