<svg id="Слой_1" data-name="Слой 1" xmlns="http://www.w3.org/2000/svg" viewBox="0 0 400 400"><defs><style>.cls-1,.cls-2{fill:#fff;stroke:#000;stroke-width:3px;}.cls-1{stroke-miterlimit:10;}.cls-2{stroke-linecap:round;stroke-linejoin:round;}.cls-3{fill:#c1362d;}.cls-4{fill:#608b70;}</style></defs><title>g53</title><path class="cls-1" d="M371.64,386.84H25.58V42s122.5,97.52,174.49,97.52S371.64,42,371.64,42Z"/><path class="cls-1" d="M140.71,229.6c8.22-3.26,12.32-4.89,17.24-4.49,15.62,1.28,18.45,17.08,36.77,21.52,3.93,1,10,.49,22.27-.46,20.65-1.59,23-4.39,33.76-4,8.24.3,26.07.94,33.26,11.69,9.12,13.63-7.87,30.07,1.78,46.18,6.71,11.21,19.4,10.74,19.36,17.76,0,7.18-13.35,15.64-25.29,14.56-10-.91-12.39-7.92-21.66-9.46-6.5-1.08-16.36.56-30.25,13.83,7.9,20.88,7.8,27.4,5.55,28.78-5.29,3.21-19.42-23.76-46.8-27.92-14.13-2.15-26.44,2.59-31.27,4.77-21.6,9.78-27.91,29.28-33.28,27.1-5.52-2.23-4.13-24.92-.84-40.42,2.44-11.47,6.62-22.3,1-28.91-2.38-2.83-4.83-2.84-6.73-6.46-3.4-6.47,1.8-11.32-.35-16.5-3.77-9.12-24.63-5.65-25.81-11-.65-3,5.29-5.66,17-13.56C126.18,239.38,127.66,234.77,140.71,229.6Z"/><line class="cls-2" x1="169.57" y1="290.43" x2="138.17" y2="336.21"/><path class="cls-2" d="M137.82,246.58a11.34,11.34,0,0,1,11.93-.43c5,3,5.36,8.82,5.38,9.31,0,.72.12,6.33-3.79,8.87a39.32,39.32,0,0,1-5.54,2.38c-5.9,2.3-9.6,3.86-11.68,7.75a11.79,11.79,0,0,0,8,16.94,10.6,10.6,0,0,0,5.92-.4c5.51-2,6.9-7.66,7-8.15.16-.7,1.14-5.38-1.83-9.05a9.52,9.52,0,0,0-2.82-2.34"/><path class="cls-1" d="M218.54,283.63c0,10.44-3.36,18.9-7.52,18.9s-7.52-8.46-7.52-18.9,3.37-18.9,7.52-18.9S218.54,273.19,218.54,283.63Z"/><path class="cls-2" d="M181,308a28.24,28.24,0,0,1,10.46-18.93A27.79,27.79,0,0,1,209,283.43"/><line class="cls-2" x1="245.57" y1="257" x2="245.56" y2="299.2"/><line class="cls-2" x1="234.3" y1="273.17" x2="256.19" y2="273.17"/><polygon class="cls-3" points="144.07 252.6 142.31 250.81 144.79 251.23 144.58 248.73 146.21 250.64 147.67 248.59 147.68 251.11 150.11 250.47 148.51 252.41 150.78 253.49 148.31 253.94 149.36 256.22 147.17 254.98 146.51 257.4 145.63 255.05 143.56 256.47 144.41 254.11 141.91 253.87 144.07 252.6"/><polygon class="cls-3" points="137.85 257 141.74 257.79 143 261.55 140.38 264.53 136.48 263.74 135.22 259.98 137.85 257"/><path class="cls-1" d="M218.54,283.63c0,10.44-3.36,18.9-7.52,18.9s-7.52-8.46-7.52-18.9,3.37-18.9,7.52-18.9,7.52,8.46,7.52,18.9"/><path class="cls-1" d="M181,308a28.24,28.24,0,0,1,10.46-18.95A27.79,27.79,0,0,1,209,283.43"/><path class="cls-4" d="M185,307a4.09,4.09,0,1,1-5.67-1.11A4.09,4.09,0,0,1,185,307"/><path d="M111.63,161.94h-5.9v-3.06h15.6v3.06h-5.92V178h-3.78Z"/><path d="M147.21,177.87c0,.11,0,.17-.11.17-.37,0-1,0-1.76-.06s-1.34-.06-1.71-.06-1,0-1.64.06-1.15.06-1.47.06c-.08,0-.12-.06-.12-.17s0-.18.12-.18a3.73,3.73,0,0,0,1.41-.19.67.67,0,0,0,.43-.67,3.31,3.31,0,0,0-.43-1.36l-3.23-6.7h-5.31L131,174.23a4.19,4.19,0,0,0-.4,1.59c0,1.25.93,1.87,2.8,1.87.09,0,.14.06.14.18s-.05.17-.14.17c-.35,0-.85,0-1.51-.06s-1.36-.06-1.9-.06-1.1,0-1.79.06-1.12.06-1.5.06c-.08,0-.12-.06-.12-.17s0-.18.12-.18a2.77,2.77,0,0,0,1.37-.31,3.34,3.34,0,0,0,1.08-1.1,15.77,15.77,0,0,0,1.19-2.31l6.14-14.17c0-.06.09-.09.21-.1s.18,0,.2.1l7,14.28a12.26,12.26,0,0,0,1.68,2.86,2.08,2.08,0,0,0,1.56.75C147.17,177.69,147.21,177.75,147.21,177.87Zm-13.56-9.76h4.73l-2.48-5.19Z"/><path d="M154.38,178.14a1.08,1.08,0,0,1-.48-.09.27.27,0,0,1-.18-.25c0-.21.24-.37.74-.47a2.15,2.15,0,0,0,1.29-.59,2.07,2.07,0,0,0,.32-1.29v-12a2.42,2.42,0,0,0-.24-1.26,1.9,1.9,0,0,0-1.21-.59c-.52-.1-.77-.27-.77-.5a.31.31,0,0,1,.17-.26,1,1,0,0,1,.49-.11c.46,0,.85,0,1.16,0l.91.05c.3,0,.62,0,1,0l1,0,1,0,1.17,0c.46,0,.69.11.69.34a.35.35,0,0,1-.2.32,2.13,2.13,0,0,1-.57.18,2.77,2.77,0,0,0-1.39.66,1.75,1.75,0,0,0-.38,1.19v5.05q0,.19.12.24a.53.53,0,0,0,.25.05h8.83c.16,0,.24-.11.24-.34v-5a1.78,1.78,0,0,0-.36-1.17,2.53,2.53,0,0,0-1.39-.68,2,2,0,0,1-.58-.18.35.35,0,0,1-.18-.32c0-.23.22-.34.66-.34l1.21,0,1.07,0,1.07,0c.34,0,.63,0,.89,0l.82-.05c.29,0,.67,0,1.12,0a1.07,1.07,0,0,1,.51.11.31.31,0,0,1,.18.26c0,.23-.25.4-.77.5a1.77,1.77,0,0,0-1.21.63,2.4,2.4,0,0,0-.24,1.2v12a2.31,2.31,0,0,0,.28,1.32,1.9,1.9,0,0,0,1.23.59c.49.1.74.26.74.47s-.07.19-.2.25a1.19,1.19,0,0,1-.49.09c-.42,0-.8,0-1.12,0l-.94-.07c-.3,0-.63,0-1,0s-.71,0-1,0l-1,.07c-.35,0-.75,0-1.19,0a1.1,1.1,0,0,1-.49-.09.28.28,0,0,1-.17-.25.32.32,0,0,1,.17-.3,2.32,2.32,0,0,1,.57-.17,2.83,2.83,0,0,0,1.35-.61,1.63,1.63,0,0,0,.45-1.25v-5.1a1.06,1.06,0,0,0,0-.27.16.16,0,0,0-.18-.12h-9c-.14,0-.21.1-.21.31v5a1.79,1.79,0,0,0,.53,1.32,2.84,2.84,0,0,0,1.45.72,2.54,2.54,0,0,1,.59.17.31.31,0,0,1,.18.3.27.27,0,0,1-.18.25,1.23,1.23,0,0,1-.51.09c-.44,0-.84,0-1.21,0l-1.07-.07c-.35,0-.71,0-1.1,0s-.69,0-1,0l-1,.07Q155,178.14,154.38,178.14Z"/><path d="M191.86,168.71l-.05.45H189a1.67,1.67,0,0,0-1.28.49,3.32,3.32,0,0,0-.73,1.32,16.09,16.09,0,0,0-.45,1.94l-.47,2.64a3.2,3.2,0,0,1-1.22,2.25,4.09,4.09,0,0,1-2.32.61,4.86,4.86,0,0,1-2-.36,4.21,4.21,0,0,1-1.51-1.17l.37-.32a3.06,3.06,0,0,0,.49.44,1.32,1.32,0,0,0,.57.17.84.84,0,0,0,.77-.43,4.91,4.91,0,0,0,.47-1.48l.56-2.72a3.48,3.48,0,0,1,1.56-2.43,9,9,0,0,1,3.49-1c.33-.05.67-.1,1-.13s.78-.08,1.34-.12S190.93,168.74,191.86,168.71Zm5.21-9.39v.53a4,4,0,0,0-1.27.2,1,1,0,0,0-.57.64,5,5,0,0,0-.15,1.44v13.11a5,5,0,0,0,.15,1.42.94.94,0,0,0,.57.64,4.65,4.65,0,0,0,1.27.21V178c-.44,0-1-.06-1.79-.07H190.7c-.74,0-1.34,0-1.8.07v-.53a4.87,4.87,0,0,0,1.26-.21.93.93,0,0,0,.58-.64,5.49,5.49,0,0,0,.14-1.42V162.13a3.7,3.7,0,0,0-.3-1.83c-.2-.3-.65-.45-1.34-.45a2.77,2.77,0,0,0-2.53,1.14,5.72,5.72,0,0,0-.74,3.17,8,8,0,0,0,.29,2.26,2.85,2.85,0,0,0,1.11,1.61,4,4,0,0,0,2.38.6H192v.53h-2.54a13,13,0,0,1-4.84-.72,4.73,4.73,0,0,1-2.39-1.87,4.84,4.84,0,0,1-.67-2.46,4,4,0,0,1,1.81-3.52,9.81,9.81,0,0,1,5.51-1.24l1.68,0,2.47,0,2.23,0Z"/><path d="M216.5,178.5a6,6,0,0,1-1.14-.09,1.8,1.8,0,0,1-.73-.28.57.57,0,0,1-.15-.16.42.42,0,0,1,0-.22.36.36,0,0,1,.08-.25.3.3,0,0,1,.2-.1,2.85,2.85,0,0,0,1.37-.41,6.14,6.14,0,0,0,1.52-1.29,15.21,15.21,0,0,0,1.59-2.19,14.18,14.18,0,0,1,2-2.64,4.58,4.58,0,0,1,2.27-1.43c.08,0,.1-.05.07-.09s-.13-.07-.3-.09a4.34,4.34,0,0,1-2.3-.86,5.37,5.37,0,0,1-1.54-1.82,4.52,4.52,0,0,1-.55-2.11,4.84,4.84,0,0,1,1-3.17,5.41,5.41,0,0,1,2.63-1.7,11.84,11.84,0,0,1,3.61-.52c.42,0,.8,0,1.14,0l1,.1a9,9,0,0,0,1.07.06l1,0,.87,0c.3,0,.72,0,1.24,0a2.35,2.35,0,0,1,.6.07c.16.05.23.13.23.25,0,.27-.31.46-1,.58a3.25,3.25,0,0,0-1.56.63,1.88,1.88,0,0,0-.49,1.45v13a1.74,1.74,0,0,0,.61,1.47,4,4,0,0,0,1.67.67c.64.11,1,.28,1,.52s-.08.19-.24.24a2,2,0,0,1-.6.07c-.52,0-1,0-1.29,0l-1-.07c-.31,0-.69,0-1.13,0s-.9,0-1.25,0l-1.1.07c-.38,0-.82,0-1.34,0a2,2,0,0,1-.61-.07c-.15-.05-.23-.13-.23-.24a.36.36,0,0,1,.23-.32,2.46,2.46,0,0,1,.72-.2,4.67,4.67,0,0,0,1.23-.41,1.77,1.77,0,0,0,.76-.69,1.94,1.94,0,0,0,.26-1v-4.88q0-.72-.21-.81a3.58,3.58,0,0,0-.94-.08,1.49,1.49,0,0,0-.82.26c-.28.17-.59.34-.91.52a5.54,5.54,0,0,0-2,1.9c-.62.91-1.24,1.82-1.88,2.74a17.6,17.6,0,0,1-1.34,1.78,7,7,0,0,1-1.52,1.34A3.2,3.2,0,0,1,216.5,178.5Zm9.24-10.07a5.16,5.16,0,0,0,1.57-.19.86.86,0,0,0,.59-.94v-5.13a2,2,0,0,0-.65-1.68,2.49,2.49,0,0,0-1.63-.52,4.49,4.49,0,0,0-2.12.52,4.35,4.35,0,0,0-1.6,1.4,3.56,3.56,0,0,0-.61,2,4.52,4.52,0,0,0,1.14,3.43A4.69,4.69,0,0,0,225.74,168.43Z"/><path d="M249.23,178h-8.74v-1.1a9,9,0,0,1,1.14-.49,8.4,8.4,0,0,1,1.22-.34V159.77a7.11,7.11,0,0,1-1.32-.35,4.61,4.61,0,0,1-1-.49v-1.09h8.74v1.09a5.49,5.49,0,0,1-1,.52,4.37,4.37,0,0,1-1.09.32v7h7.65v-7a4.76,4.76,0,0,1-1.14-.35,6,6,0,0,1-.91-.49v-1.09h8.75v1.09a4.52,4.52,0,0,1-1.13.52,9.84,9.84,0,0,1-1.24.32v16.34a7.21,7.21,0,0,1,1.29.34,9.28,9.28,0,0,1,1.08.49V178h-8.75v-1.1a10.7,10.7,0,0,1,1-.49,4.94,4.94,0,0,1,1.09-.34v-7.48h-7.65v7.48a5.58,5.58,0,0,1,1.07.31,6.18,6.18,0,0,1,1,.52Z"/><path d="M272.55,158.58v8.63h.78l6.67-8.63h3l-7.36,8.92c3.21.43,4.45,2.4,5.46,5a49.8,49.8,0,0,0,2.14,5.51h-2.72a35,35,0,0,1-1.76-4.59c-.89-2.57-2.14-4.33-5.43-4.33h-.81V178h-2.48V158.58Z"/><path d="M124,206.4h-.64l-1.09,0-1.28-.06-1.22,0-1.39,0-1.74,0-1.54,0h-.83a.71.71,0,0,1-.3-.16c-.15-.1-.23-.2-.23-.29a.32.32,0,0,1,.08-.23l.19-.19,4.28-4.55a12.23,12.23,0,0,0,2.15-3.06,7.66,7.66,0,0,0,.81-3.44,2.9,2.9,0,0,0-.74-2.07,2.44,2.44,0,0,0-1.85-.78,3.48,3.48,0,0,0-1.92.57,4.73,4.73,0,0,0-1.44,1.41,1.75,1.75,0,0,1-.26.29.53.53,0,0,1-.35.13c-.08,0-.17-.07-.25-.21a1.07,1.07,0,0,1-.12-.53,2,2,0,0,1,.4-.94,6.68,6.68,0,0,1,1.11-1.2,6.87,6.87,0,0,1,1.69-1,5.31,5.31,0,0,1,2.12-.42,4.32,4.32,0,0,1,2.27.57,3.62,3.62,0,0,1,1.45,1.55,4.91,4.91,0,0,1,.51,2.26,5.15,5.15,0,0,1-.28,1.56,9.22,9.22,0,0,1-.73,1.64,9.63,9.63,0,0,1-1,1.46q-.34.42-1,1.08l-1.38,1.39-1.39,1.37L117,203.62a2.52,2.52,0,0,0-.41.48c0,.07.13.12.37.16l1.07.08c.4,0,.83,0,1.29,0s.94,0,1.41,0l1.36-.08a7.57,7.57,0,0,0,1.14-.16,1.59,1.59,0,0,0,.73-.4,3.16,3.16,0,0,0,.59-.82c.07-.1.17-.22.29-.37a.53.53,0,0,1,.4-.21.22.22,0,0,1,.21.13.63.63,0,0,1,0,.27q-.09.31-.27.84c-.12.36-.25.73-.37,1.13s-.22.77-.29,1.12a.63.63,0,0,1-.25.49A.67.67,0,0,1,124,206.4Z"/><path d="M144.63,197.16a20.47,20.47,0,0,1-.33,3.83,8.55,8.55,0,0,1-1.1,3,5.28,5.28,0,0,1-2,1.93,7.11,7.11,0,0,1-6,.07,4.73,4.73,0,0,1-1.89-1.8,8.56,8.56,0,0,1-1-2.93,23.72,23.72,0,0,1-.3-4,19.67,19.67,0,0,1,.34-3.82,9,9,0,0,1,1.1-3,5.36,5.36,0,0,1,2-1.93,7.19,7.19,0,0,1,5.95-.07,4.76,4.76,0,0,1,1.9,1.8,8.41,8.41,0,0,1,1,2.94A23.68,23.68,0,0,1,144.63,197.16Zm-2.48.17c0-.91,0-1.73-.09-2.45a16.41,16.41,0,0,0-.29-1.92,6.12,6.12,0,0,0-.5-1.43,3.42,3.42,0,0,0-.72-1,2.77,2.77,0,0,0-1-.56,3.86,3.86,0,0,0-1.22-.18,3.11,3.11,0,0,0-1.94.57,3.75,3.75,0,0,0-1.18,1.55,8.31,8.31,0,0,0-.58,2.31,23.07,23.07,0,0,0-.16,2.85,24.33,24.33,0,0,0,.21,3.47,7.81,7.81,0,0,0,.67,2.33,3.09,3.09,0,0,0,1.17,1.31,3.46,3.46,0,0,0,1.73.41,3.55,3.55,0,0,0,1.39-.25,2.89,2.89,0,0,0,1-.73,4.11,4.11,0,0,0,.71-1.13,7.46,7.46,0,0,0,.45-1.47,12.44,12.44,0,0,0,.23-1.74Q142.15,198.35,142.15,197.33Z"/><path d="M165,197.16a20.43,20.43,0,0,1-.34,3.83,8.55,8.55,0,0,1-1.1,3,5.28,5.28,0,0,1-2,1.93,7.11,7.11,0,0,1-6,.07,4.73,4.73,0,0,1-1.89-1.8,8.35,8.35,0,0,1-1-2.93,22.65,22.65,0,0,1-.31-4,20.48,20.48,0,0,1,.34-3.82,9,9,0,0,1,1.1-3,5.36,5.36,0,0,1,2-1.93,6.2,6.2,0,0,1,3-.68,6.26,6.26,0,0,1,2.91.61,4.8,4.8,0,0,1,1.89,1.8,8.41,8.41,0,0,1,1,2.94A23.61,23.61,0,0,1,165,197.16Zm-2.48.17c0-.91,0-1.73-.1-2.45a16.41,16.41,0,0,0-.29-1.92,6.12,6.12,0,0,0-.5-1.43,3.42,3.42,0,0,0-.72-1,2.77,2.77,0,0,0-1-.56,3.82,3.82,0,0,0-1.22-.18,3.13,3.13,0,0,0-1.94.57,3.75,3.75,0,0,0-1.18,1.55,8.31,8.31,0,0,0-.58,2.31,23.07,23.07,0,0,0-.16,2.85,24.33,24.33,0,0,0,.21,3.47,7.81,7.81,0,0,0,.67,2.33,3.09,3.09,0,0,0,1.17,1.31,3.46,3.46,0,0,0,1.73.41,3.52,3.52,0,0,0,1.39-.25,2.89,2.89,0,0,0,1-.73,4.11,4.11,0,0,0,.71-1.13,7.46,7.46,0,0,0,.45-1.47,12.44,12.44,0,0,0,.23-1.74C162.53,198.66,162.56,198,162.56,197.33Z"/><path d="M184.68,200.46c0-3-2.68-4-6-4h-.43v-2.4h.34c3.67,0,5.58-1,5.58-3.46,0-2.23-1.85-3.41-4.07-3.41a4.22,4.22,0,0,0-4.57,4.07h-2.71c.32-3.7,2.94-6.27,7.33-6.27,3.61,0,6.79,1.48,6.79,5.32a5.13,5.13,0,0,1-3.41,4.85c3.12,1,4,3,4,5.25,0,4.22-3.55,6.27-7.56,6.27-5,0-7.13-3.06-7.45-6.56h2.72c.31,2.57,1.79,4.36,4.76,4.36C182.72,204.5,184.68,203.09,184.68,200.46Z"/><path d="M195.45,201.83a.14.14,0,0,1-.16-.16,3.83,3.83,0,0,1,.12-.93c.08-.31.18-.48.3-.5l2.54-.36c.85-.11,1.69-.21,2.54-.3a.23.23,0,0,1,.14,0,.13.13,0,0,1,.07.12,3.56,3.56,0,0,1-.12.94c-.08.29-.22.45-.44.49l-2.41.35C197.21,201.64,196.35,201.74,195.45,201.83Z"/><path d="M218.42,206.4h-.64l-1.09,0-1.29-.06-1.21,0-1.39,0-1.74,0-1.54,0h-.83a.71.71,0,0,1-.3-.16c-.15-.1-.23-.2-.23-.29a.32.32,0,0,1,.08-.23c0-.06.12-.12.19-.19l4.28-4.55a12.23,12.23,0,0,0,2.15-3.06,7.66,7.66,0,0,0,.81-3.44,2.9,2.9,0,0,0-.74-2.07,2.44,2.44,0,0,0-1.85-.78,3.48,3.48,0,0,0-1.92.57,4.73,4.73,0,0,0-1.44,1.41,1.75,1.75,0,0,1-.26.29.53.53,0,0,1-.35.13c-.08,0-.17-.07-.25-.21a1.07,1.07,0,0,1-.12-.53,2,2,0,0,1,.4-.94,6,6,0,0,1,1.11-1.2,6.87,6.87,0,0,1,1.69-1,5.31,5.31,0,0,1,2.12-.42,4.32,4.32,0,0,1,2.27.57,3.68,3.68,0,0,1,1.45,1.55,4.91,4.91,0,0,1,.51,2.26,5.15,5.15,0,0,1-.28,1.56,9.22,9.22,0,0,1-.73,1.64,9.63,9.63,0,0,1-1,1.46q-.34.42-1,1.08l-1.38,1.39-1.39,1.37-1.07,1.07a2.52,2.52,0,0,0-.41.48c0,.07.13.12.37.16l1.07.08c.4,0,.83,0,1.29,0s.94,0,1.41,0l1.36-.08a7.57,7.57,0,0,0,1.14-.16,1.51,1.51,0,0,0,.72-.4,3,3,0,0,0,.6-.82c.07-.1.17-.22.29-.37a.53.53,0,0,1,.4-.21.22.22,0,0,1,.21.13.5.5,0,0,1,0,.27c0,.21-.14.49-.26.84s-.25.73-.37,1.13-.22.77-.29,1.12a.66.66,0,0,1-.25.49A.67.67,0,0,1,218.42,206.4Z"/><path d="M239.1,197.16a20.47,20.47,0,0,1-.33,3.83,8.55,8.55,0,0,1-1.1,3,5.28,5.28,0,0,1-2,1.93,7.11,7.11,0,0,1-6,.07,4.67,4.67,0,0,1-1.89-1.8,8.56,8.56,0,0,1-1-2.93,23.72,23.72,0,0,1-.3-4,19.67,19.67,0,0,1,.34-3.82,8.81,8.81,0,0,1,1.1-3,5.36,5.36,0,0,1,2-1.93,7.19,7.19,0,0,1,5.95-.07,4.76,4.76,0,0,1,1.9,1.8,8.41,8.41,0,0,1,1,2.94A23.68,23.68,0,0,1,239.1,197.16Zm-2.48.17c0-.91,0-1.73-.1-2.45a14.66,14.66,0,0,0-.28-1.92,6.62,6.62,0,0,0-.5-1.43,3.42,3.42,0,0,0-.72-1,2.77,2.77,0,0,0-1-.56,3.86,3.86,0,0,0-1.22-.18,3.11,3.11,0,0,0-1.94.57,3.75,3.75,0,0,0-1.18,1.55,8,8,0,0,0-.58,2.31,23.07,23.07,0,0,0-.16,2.85,24.33,24.33,0,0,0,.21,3.47,7.81,7.81,0,0,0,.67,2.33,3.09,3.09,0,0,0,1.17,1.31,3.46,3.46,0,0,0,1.73.41,3.55,3.55,0,0,0,1.39-.25,2.89,2.89,0,0,0,1-.73,4.11,4.11,0,0,0,.71-1.13,9.1,9.1,0,0,0,.45-1.47,12.44,12.44,0,0,0,.23-1.74Q236.62,198.35,236.62,197.33Z"/><path d="M247.65,207.14a.42.42,0,0,1-.29-.07.16.16,0,0,1-.08-.14.21.21,0,0,1,.12-.2.55.55,0,0,1,.25-.07,4.32,4.32,0,0,0,1.84-.51,11.33,11.33,0,0,0,2.11-1.4,13.24,13.24,0,0,0,1.92-2,13.5,13.5,0,0,0,1.36-2.17,9.54,9.54,0,0,0,.75-2.18,11.46,11.46,0,0,0,.24-2.39,6.06,6.06,0,0,0-.31-1.91,7.29,7.29,0,0,0-.81-1.74,4.7,4.7,0,0,0-1.19-1.27,2.37,2.37,0,0,0-1.39-.47,2.21,2.21,0,0,0-1.43.46,2.83,2.83,0,0,0-.87,1.13,3.27,3.27,0,0,0-.29,1.34,3.52,3.52,0,0,0,.38,1.56,3.6,3.6,0,0,0,1,1.25,2.1,2.1,0,0,0,1.32.49,2.58,2.58,0,0,0,1.22-.22,9.33,9.33,0,0,1,.9-.46c.07,0,.12,0,.17.08a.2.2,0,0,1,0,.21,2,2,0,0,1-.4.51,3.91,3.91,0,0,1-.47.41,6.14,6.14,0,0,1-.58.35,6.46,6.46,0,0,1-.88.37,3.17,3.17,0,0,1-1,.15,4,4,0,0,1-3.16-1.62,2.85,2.85,0,0,1-.54-1.71,4.66,4.66,0,0,1,.39-1.82,6,6,0,0,1,1.13-1.71,5.77,5.77,0,0,1,1.73-1.25,5,5,0,0,1,2.19-.48,3.77,3.77,0,0,1,1.86.52,5.9,5.9,0,0,1,1.64,1.37,6.69,6.69,0,0,1,1.15,1.95,6.09,6.09,0,0,1,.43,2.22,9.71,9.71,0,0,1-.45,3,10.57,10.57,0,0,1-1.3,2.66,20.63,20.63,0,0,1-2.06,2.59,8.66,8.66,0,0,1-1.59,1.38,11.84,11.84,0,0,1-1.77,1,9.11,9.11,0,0,1-1.76.59A7.52,7.52,0,0,1,247.65,207.14Z"/><path d="M265.62,207.14a.42.42,0,0,1-.29-.07.19.19,0,0,1-.08-.14.21.21,0,0,1,.12-.2.55.55,0,0,1,.25-.07,4.32,4.32,0,0,0,1.84-.51,11,11,0,0,0,2.11-1.4,12.32,12.32,0,0,0,1.92-2,12.83,12.83,0,0,0,1.36-2.17,9.11,9.11,0,0,0,.76-2.18,12.19,12.19,0,0,0,.23-2.39,6.34,6.34,0,0,0-.3-1.91,7.32,7.32,0,0,0-.82-1.74,4.55,4.55,0,0,0-1.19-1.27,2.35,2.35,0,0,0-1.39-.47,2.18,2.18,0,0,0-1.42.46,2.94,2.94,0,0,0-.88,1.13,3.44,3.44,0,0,0-.29,1.34,3.4,3.4,0,0,0,.39,1.56,3.47,3.47,0,0,0,1,1.25,2.14,2.14,0,0,0,1.32.49,2.55,2.55,0,0,0,1.22-.22c.27-.15.56-.31.9-.46.07,0,.13,0,.17.08a.18.18,0,0,1,0,.21,1.93,1.93,0,0,1-.39.51,4.84,4.84,0,0,1-.48.41,4.29,4.29,0,0,1-.58.35,5.83,5.83,0,0,1-.87.37,3.28,3.28,0,0,1-1,.15,4,4,0,0,1-3.16-1.62,2.85,2.85,0,0,1-.54-1.71,4.51,4.51,0,0,1,.4-1.82,5.75,5.75,0,0,1,2.85-3,5,5,0,0,1,2.2-.48,3.8,3.8,0,0,1,1.86.52,6.05,6.05,0,0,1,1.64,1.37,6.92,6.92,0,0,1,1.15,1.95,6.08,6.08,0,0,1,.42,2.22,9.71,9.71,0,0,1-.45,3,10.89,10.89,0,0,1-1.29,2.66,21.71,21.71,0,0,1-2.07,2.59,8.28,8.28,0,0,1-1.58,1.38,11.84,11.84,0,0,1-1.77,1,9.34,9.34,0,0,1-1.76.59A7.61,7.61,0,0,1,265.62,207.14Z"/></svg>