<svg id="Слой_1" data-name="Слой 1" xmlns="http://www.w3.org/2000/svg" viewBox="0 0 400 400"><defs><style>.cls-1,.cls-2{fill:#fff;stroke:#000;stroke-width:3px;}.cls-1{stroke-miterlimit:10;}.cls-2{stroke-linecap:round;stroke-linejoin:round;}.cls-3{fill:#608b70;}</style></defs><title>g54</title><path class="cls-1" d="M348,66.3c70.63,14.62-10,323.81-10,323.81H59C30.77,165.42,33.18,93.48,52.64,82.22c21.26-12.29,56.63,47,87.53,23.89,18.72-14,17.68-44.67,32.82-47.78,23.53-4.83,39.59,66.55,62,61.05,15.53-3.81,16.09-40.1,34.65-47.78,15.32-6.33,32.19,11.25,43.76,26.55C313.39,98.15,326.18,61.77,348,66.3Z"/><path class="cls-1" d="M140.52,216.61c8.9-3.52,13.35-5.29,18.68-4.85,16.91,1.38,20,18.5,39.82,23.31,4.26,1,10.88.52,24.13-.5,22.36-1.73,24.88-4.76,36.56-4.34,8.93.33,28.24,1,36,12.67,9.88,14.76-8.53,32.56,1.93,50,7.26,12.14,21,11.63,21,19.23-.05,7.78-14.46,16.94-27.39,15.77-10.85-1-13.42-8.58-23.46-10.24-7-1.17-17.72.6-32.77,15,8.56,22.61,8.46,29.68,6,31.16-5.73,3.48-21-25.73-50.69-30.24-15.3-2.32-28.64,2.81-33.86,5.17-23.4,10.59-30.23,31.72-36,29.36-6-2.42-4.48-27-.91-43.79,2.64-12.42,7.17-24.15,1.14-31.31-2.58-3.06-5.23-3.07-7.3-7-3.68-7,2-12.25-.37-17.87-4.09-9.87-26.68-6.12-28-11.94-.71-3.2,5.73-6.13,18.47-14.68C124.78,227.21,126.38,222.22,140.52,216.61Z"/><path class="cls-2" d="M139.58,304.13c-.65-13,2.93-18.08,5.95-20.4,10-7.71,27.63,4.63,36.55-3.4,4.06-3.66,4.4-9.79,4.25-13.61"/><path class="cls-2" d="M137,259.92c1.95,4.19,5.53,10.1,11.9,12.75,10.36,4.32,18.76-3.85,27.2-.84,5.56,2,12,9.1,14.45,33.15"/><path class="cls-2" d="M155.73,306.68c7.31-3.73,10-7.94,11.05-11.05,4.33-12.46-10.74-23.73-6.8-37.41,1.66-5.77,6-9.6,9.35-11.9"/><line class="cls-2" x1="259.21" y1="261.89" x2="218.07" y2="303.01"/><line class="cls-2" x1="232.47" y1="266.67" x2="253.8" y2="288"/><path class="cls-3" d="M179.84,256.7a5.68,5.68,0,1,1-7.88-1.54,5.68,5.68,0,0,1,7.88,1.54"/><path d="M97.84,165.75a1.13,1.13,0,0,1-.44-1c0-.78.48-1.17,1.42-1.17h.67c1.18,0,2.2-.75,3.05-2.25a18.18,18.18,0,0,0,1.93-5.6,34,34,0,0,0,.65-6.58,3.16,3.16,0,0,0-.62-2.2,3.33,3.33,0,0,0-2.48-.68c-.06,0-.09-.07-.09-.19s0-.19.09-.19h15.41s.06.06.06.19,0,.19-.06.19a6.48,6.48,0,0,0-1.72.17,1.15,1.15,0,0,0-.76.62,3.42,3.42,0,0,0-.21,1.39v14.65a3.6,3.6,0,0,0,.21,1.41,1.1,1.1,0,0,0,.76.62,7,7,0,0,0,1.72.16s.06.06.06.19,0,.19-.06.19c-.67,0-1.21,0-1.61,0l-2.25,0-2.34,0c-.38,0-.93,0-1.65,0,0,0-.06-.07-.06-.19s0-.19.06-.19a7.06,7.06,0,0,0,1.74-.16,1.1,1.1,0,0,0,.73-.6,3.85,3.85,0,0,0,.19-1.43V148.71a6,6,0,0,0-.11-1.42.63.63,0,0,0-.51-.44,7.66,7.66,0,0,0-1.59-.1h-1.74a4.67,4.67,0,0,0-1.43.16,1.12,1.12,0,0,0-.69.66,4.27,4.27,0,0,0-.23,1.62,46.11,46.11,0,0,1-.61,7.15,21.86,21.86,0,0,1-2.17,6.82c-1,2-2.41,2.92-4.11,2.92A2,2,0,0,1,97.84,165.75Z"/><path d="M125.59,165.85a1.44,1.44,0,0,1-.58-.1.34.34,0,0,1-.23-.31.43.43,0,0,1,.23-.37,3.59,3.59,0,0,1,.64-.29,4.82,4.82,0,0,0,1.42-.7,3.31,3.31,0,0,0,1-1.42c.52-1.18,1-2.3,1.45-3.37s.87-2.13,1.28-3.18.82-2.12,1.24-3.23.86-2.29,1.31-3.55a9,9,0,0,0,.37-1.12,4.5,4.5,0,0,0,.15-.79c.25-.06.48-.12.69-.19a4.46,4.46,0,0,0,.7-.3,1.33,1.33,0,0,0,.54-.51,3.51,3.51,0,0,1,.3-.48l.13,0s.09,0,.13.1a1,1,0,0,1,.13.32c0,.11.06.24.1.37L138,151c.47,1.46.94,2.88,1.41,4.27s.89,2.68,1.3,3.87.75,2.23,1,3.12a4.6,4.6,0,0,0,.76,1.46,3,3,0,0,0,.92.75,4.17,4.17,0,0,0,1.08.37,1.4,1.4,0,0,1,.65.26.51.51,0,0,1,.22.4c0,.12-.08.2-.22.25a1.73,1.73,0,0,1-.54.07c-.31,0-.71,0-1.21,0s-1-.06-1.57-.07l-1.48,0h-1.22q-.66,0-1.26,0l-1,0a1.32,1.32,0,0,1-.57-.1.31.31,0,0,1-.22-.27.44.44,0,0,1,.26-.38,1.9,1.9,0,0,1,.61-.2,3.43,3.43,0,0,0,1.44-.52.92.92,0,0,0,.36-.93,8.12,8.12,0,0,0-.2-1.23c-.12-.5-.26-1-.41-1.57s-.3-1.06-.43-1.52a.39.39,0,0,0-.21-.29,1.38,1.38,0,0,0-.49-.06h-5.36a.4.4,0,0,0-.26.1,1,1,0,0,0-.23.4c-.06.23-.15.52-.28.88s-.25.73-.36,1.13-.22.76-.31,1.1-.14.59-.16.74a1.27,1.27,0,0,0,.37,1.14,3.17,3.17,0,0,0,1.34.66c.58.15.87.34.87.58a.27.27,0,0,1-.21.27,1.85,1.85,0,0,1-.57.07l-1.27,0c-.49,0-1,0-1.54,0s-1.22,0-1.8.08A16.07,16.07,0,0,1,125.59,165.85Zm6.87-8.38h4.23c.27,0,.41,0,.41-.14a.61.61,0,0,0,0-.15s0-.09,0-.17l-2.15-6.87c-.09-.31-.17-.46-.23-.46s-.1.14-.2.43l-2.52,6.9a.94.94,0,0,0-.06.23.18.18,0,0,0,.16.19A1.66,1.66,0,0,0,132.46,157.47Z"/><path d="M170,145.19v.58a2.09,2.09,0,0,0-1.1.71,8.49,8.49,0,0,0-1.22,1.87L161,161.79h-.49l-7.83-14.37a4.2,4.2,0,0,0-1-1.35,1.31,1.31,0,0,0-.71-.28v-.6l.78,0,.84,0h2.26l1.41,0,1.32-.05v.6a3.16,3.16,0,0,0-1.73.43c-.43.28-.44.84,0,1.69l6,11.25-.32.17,4.75-9.54a5.83,5.83,0,0,0,.8-2.46,1.25,1.25,0,0,0-.68-1.2,4.66,4.66,0,0,0-1.89-.36v-.58l1.71.05,1.63,0c.5,0,.91,0,1.24,0Zm-9,15.18.52.21-1.37,2.75a12.34,12.34,0,0,1-.66,1.19,5.35,5.35,0,0,1-.61.75,2.5,2.5,0,0,1-1.06.65,3.55,3.55,0,0,1-1.11.19,2.28,2.28,0,0,1-1.45-.45,1.53,1.53,0,0,1-.58-1.29,1.45,1.45,0,0,1,.45-1.11,1.53,1.53,0,0,1,1.08-.42,1.63,1.63,0,0,1,1.05.34,1.23,1.23,0,0,1,.43,1,1.42,1.42,0,0,1-.23.8,1.62,1.62,0,0,1-.55.5.37.37,0,0,0,.17,0,1.92,1.92,0,0,0,1.38-.58,5.84,5.84,0,0,0,1.12-1.65Z"/><path d="M176.54,145.19c.48,0,1.13,0,2,.05l2.44,0q1.4,0,2.7,0l1.85,0q4,0,6,1.59a5,5,0,0,1,2,4.11,6.52,6.52,0,0,1-.4,2.19,5.62,5.62,0,0,1-1.38,2.12,7.15,7.15,0,0,1-2.65,1.58,12.71,12.71,0,0,1-4.23.61h-3v-.58h2.67a3.75,3.75,0,0,0,2.59-.79,4,4,0,0,0,1.22-2.05,11,11,0,0,0,.33-2.76,8.23,8.23,0,0,0-.81-4.11,3,3,0,0,0-2.78-1.36c-.76,0-1.24.16-1.47.49a4,4,0,0,0-.33,2v14.2a4.71,4.71,0,0,0,.23,1.68,1.24,1.24,0,0,0,.9.72,8.9,8.9,0,0,0,2,.21v.64l-2.32-.06c-.94,0-1.94,0-3,0-.83,0-1.64,0-2.44,0l-2.14.06v-.58a5,5,0,0,0,1.39-.24,1,1,0,0,0,.62-.69,5.61,5.61,0,0,0,.16-1.57V148.26a5.55,5.55,0,0,0-.16-1.58,1.05,1.05,0,0,0-.63-.7,4.54,4.54,0,0,0-1.38-.21Z"/><path d="M209.29,145l7.07,18.23a3.1,3.1,0,0,0,1,1.46,2.1,2.1,0,0,0,1,.4v.58c-.39,0-.86-.07-1.42-.08h-3.8c-.65,0-1.19,0-1.59.08v-.58a2.82,2.82,0,0,0,1.88-.51c.27-.3.21-.94-.17-1.93l-5.39-14.4.46-.38-5,13.1a6.6,6.6,0,0,0-.58,2.45,1.4,1.4,0,0,0,.67,1.26,3.87,3.87,0,0,0,1.85.41v.58c-.54,0-1.11-.07-1.69-.08h-2.87a8.88,8.88,0,0,0-.95.08v-.58a2.89,2.89,0,0,0,1.19-.69,4.54,4.54,0,0,0,1.1-1.84L208.82,145h.47Zm3.53,12.32v.58h-8.63l.29-.58Z"/><path d="M258.54,142.76v23h-3.22V155.29H243.26v10.42H240v-23h3.23v9.75h12.06v-9.75Z"/><path d="M279.84,166.15a10.79,10.79,0,0,1-4-.75,10.19,10.19,0,0,1-5.66-5.41,10.28,10.28,0,0,1-.86-4.25,12.19,12.19,0,0,1,.7-4.13,10.66,10.66,0,0,1,2.05-3.53,9.91,9.91,0,0,1,3.39-2.47,11.19,11.19,0,0,1,4.65-.92,10.79,10.79,0,0,1,4,.75,10.19,10.19,0,0,1,5.66,5.41,10.31,10.31,0,0,1,.86,4.25,12.26,12.26,0,0,1-.7,4.12,10.6,10.6,0,0,1-2.05,3.54,9.78,9.78,0,0,1-3.39,2.47A11.19,11.19,0,0,1,279.84,166.15Zm.47-1.27a7.34,7.34,0,0,0,4.05-1,6.18,6.18,0,0,0,2.42-2.88,10.66,10.66,0,0,0,.81-4.31,16.09,16.09,0,0,0-.51-4.12,10.63,10.63,0,0,0-1.5-3.4,6.87,6.87,0,0,0-6-3.12,7.32,7.32,0,0,0-4,1,6.26,6.26,0,0,0-2.44,2.83,10.29,10.29,0,0,0-.82,4.29,16.66,16.66,0,0,0,.49,4.14,10.82,10.82,0,0,0,1.49,3.42,7.13,7.13,0,0,0,2.48,2.32A7,7,0,0,0,280.31,164.88Z"/><path d="M311,143.55h8.48v1.21a5.69,5.69,0,0,1-1.24.58,7.38,7.38,0,0,1-1.26.33l-6,7.63c.49.68,1.06,1.44,1.71,2.29s1.35,1.74,2.09,2.66,1.5,1.85,2.28,2.79,1.54,1.83,2.28,2.67l1.52.92v1.08h-5.51l-1.26-.89c-.51-.63-1-1.33-1.6-2.11s-1.12-1.57-1.66-2.4-1.09-1.67-1.62-2.52-1-1.66-1.49-2.46h-1.36v8.25a6.32,6.32,0,0,1,1.27.38,5.9,5.9,0,0,1,1,.54v1.21H299V164.5a12.35,12.35,0,0,1,1.3-.55,9.85,9.85,0,0,1,1.3-.37V145.67a6.05,6.05,0,0,1-1.41-.34,6.94,6.94,0,0,1-1.19-.57v-1.21h9.59v1.21a7.73,7.73,0,0,1-1,.5,6.78,6.78,0,0,1-1.25.41v8l1.87-.44,5.1-7.6a5.65,5.65,0,0,1-1.25-.39,9.58,9.58,0,0,1-1.06-.52Z"/><path d="M127.51,193.88v-15.7H123v-2.72c3-.09,4.49-.29,5.48-2.58h3v21Z"/><path d="M141.42,194.78a.52.52,0,0,1-.32-.07.23.23,0,0,1-.08-.16.23.23,0,0,1,.13-.22.52.52,0,0,1,.27-.07,4.8,4.8,0,0,0,2-.56,12.42,12.42,0,0,0,2.32-1.54,14.29,14.29,0,0,0,2.1-2.16,14.69,14.69,0,0,0,1.49-2.38,10.43,10.43,0,0,0,.83-2.39,12.86,12.86,0,0,0,.26-2.62,6.67,6.67,0,0,0-.34-2.09,7.79,7.79,0,0,0-.9-1.91,5,5,0,0,0-1.3-1.39,2.58,2.58,0,0,0-1.52-.52,2.45,2.45,0,0,0-1.57.51,3.13,3.13,0,0,0-.95,1.24,3.55,3.55,0,0,0-.32,1.47,3.82,3.82,0,0,0,.42,1.71,3.86,3.86,0,0,0,1.12,1.37,2.31,2.31,0,0,0,1.44.54,2.75,2.75,0,0,0,1.34-.25c.29-.16.61-.33,1-.51.08,0,.14,0,.19.09a.21.21,0,0,1,0,.23,2,2,0,0,1-.43.57c-.19.18-.37.33-.52.45s-.35.22-.64.37a6.32,6.32,0,0,1-.95.41,3.3,3.3,0,0,1-1.08.17,4.34,4.34,0,0,1-3.46-1.78,3.08,3.08,0,0,1-.59-1.87,5.08,5.08,0,0,1,.43-2,6.58,6.58,0,0,1,1.23-1.87,6.08,6.08,0,0,1,1.9-1.37,5.51,5.51,0,0,1,2.4-.52,4.09,4.09,0,0,1,2,.56,6.7,6.7,0,0,1,1.79,1.51,7.39,7.39,0,0,1,1.27,2.13,6.59,6.59,0,0,1,.46,2.43,10.66,10.66,0,0,1-.49,3.32,12.24,12.24,0,0,1-1.42,2.91,22.8,22.8,0,0,1-2.26,2.84,9.25,9.25,0,0,1-1.74,1.51,13.81,13.81,0,0,1-1.94,1.07,10.38,10.38,0,0,1-1.93.64A8.48,8.48,0,0,1,141.42,194.78Z"/><path d="M161.13,194.78a.52.52,0,0,1-.32-.07.21.21,0,0,1-.09-.16.25.25,0,0,1,.13-.22.55.55,0,0,1,.28-.07,4.72,4.72,0,0,0,2-.56,11.8,11.8,0,0,0,2.32-1.54,13.39,13.39,0,0,0,2.1-2.16,14.12,14.12,0,0,0,1.5-2.38,10.4,10.4,0,0,0,.82-2.39,12.19,12.19,0,0,0,.26-2.62,7,7,0,0,0-.33-2.09,7.79,7.79,0,0,0-.9-1.91,5,5,0,0,0-1.3-1.39,2.61,2.61,0,0,0-1.52-.52,2.45,2.45,0,0,0-1.57.51,3.25,3.25,0,0,0-1,1.24,3.7,3.7,0,0,0-.31,1.47,3.82,3.82,0,0,0,.42,1.71,4,4,0,0,0,1.11,1.37,2.35,2.35,0,0,0,1.45.54,2.7,2.7,0,0,0,1.33-.25q.44-.24,1-.51c.08,0,.14,0,.19.09a.21.21,0,0,1,0,.23,2,2,0,0,1-.43.57l-.52.45c-.14.09-.35.22-.64.37a6,6,0,0,1-1,.41,3.24,3.24,0,0,1-1.07.17,4.32,4.32,0,0,1-1.93-.47,4.15,4.15,0,0,1-1.53-1.31,3.09,3.09,0,0,1-.6-1.87,5.1,5.1,0,0,1,.44-2,6.58,6.58,0,0,1,1.23-1.87,6,6,0,0,1,1.9-1.37,5.48,5.48,0,0,1,2.4-.52,4,4,0,0,1,2,.56,6.59,6.59,0,0,1,1.8,1.51,7.59,7.59,0,0,1,1.26,2.13,6.6,6.6,0,0,1,.47,2.43,10.65,10.65,0,0,1-.5,3.32,11.52,11.52,0,0,1-1.42,2.91,21.91,21.91,0,0,1-2.26,2.84,9.25,9.25,0,0,1-1.74,1.51,12.77,12.77,0,0,1-1.94,1.07,10.3,10.3,0,0,1-1.92.64A8.56,8.56,0,0,1,161.13,194.78Z"/><path d="M193.29,170h1.08c0,.32,0,.73,0,1.24s-.07,1-.13,1.55-.14,1-.22,1.5a8.31,8.31,0,0,1-.25,1.09h-8.67l-.57,4.53h2.62a9.75,9.75,0,0,1,3.1.46,6.65,6.65,0,0,1,2.38,1.33,5.93,5.93,0,0,1,1.52,2.12,7.29,7.29,0,0,1,.53,2.86,7.21,7.21,0,0,1-.68,3.21,6.86,6.86,0,0,1-1.85,2.37,8.38,8.38,0,0,1-2.75,1.49,10.84,10.84,0,0,1-3.42.52,9.24,9.24,0,0,1-3.35-.58,9.34,9.34,0,0,1-2.44-1.31l1.33-3.14h.92c.15.15.31.34.5.57s.39.48.61.73.41.51.6.76l.5.66a3.33,3.33,0,0,0,.59.19,2.78,2.78,0,0,0,.71.07,4.54,4.54,0,0,0,1.77-.34,4,4,0,0,0,1.41-.93,4.47,4.47,0,0,0,.93-1.44,4.62,4.62,0,0,0,.35-1.85,4.31,4.31,0,0,0-.42-2,4,4,0,0,0-1.16-1.37,5.11,5.11,0,0,0-1.71-.81,7.7,7.7,0,0,0-2.06-.27l-2.75,0,1.27-11.55h8.26Z"/><path d="M204.12,189a.16.16,0,0,1-.18-.18,4.59,4.59,0,0,1,.13-1c.09-.35.2-.53.34-.55.92-.14,1.85-.27,2.78-.39s1.85-.24,2.78-.34a.3.3,0,0,1,.16,0,.14.14,0,0,1,.07.13,3.77,3.77,0,0,1-.13,1c-.08.32-.24.49-.48.53-.87.14-1.75.27-2.65.39S205.1,188.86,204.12,189Z"/><path d="M229.3,194h-.69l-1.21-.05-1.4-.06-1.34,0-1.52,0-1.91.05-1.68,0h-.91a.91.91,0,0,1-.34-.17c-.16-.12-.24-.22-.24-.32a.34.34,0,0,1,.08-.26l.21-.2,4.69-5a13.48,13.48,0,0,0,2.36-3.36,8.42,8.42,0,0,0,.89-3.77,3.15,3.15,0,0,0-.81-2.27,2.7,2.7,0,0,0-2-.86,3.82,3.82,0,0,0-2.1.62,5.23,5.23,0,0,0-1.58,1.56,1.7,1.7,0,0,1-.29.31.59.59,0,0,1-.38.15c-.1,0-.19-.08-.28-.23a1.27,1.27,0,0,1-.13-.58,2.1,2.1,0,0,1,.44-1,6.12,6.12,0,0,1,1.22-1.32,7.49,7.49,0,0,1,1.85-1.13,5.79,5.79,0,0,1,2.32-.46,4.72,4.72,0,0,1,2.49.62,4.12,4.12,0,0,1,1.6,1.71,5.49,5.49,0,0,1,.55,2.48,5.64,5.64,0,0,1-.31,1.71,9.81,9.81,0,0,1-.8,1.79,10.06,10.06,0,0,1-1.1,1.6c-.25.31-.61.7-1.08,1.19l-1.51,1.52-1.52,1.5c-.49.48-.88.87-1.18,1.18a2.56,2.56,0,0,0-.45.52c0,.08.14.13.41.17s.74.07,1.17.09.91,0,1.41,0,1,0,1.55,0,1-.05,1.49-.09a7.71,7.71,0,0,0,1.25-.17,1.75,1.75,0,0,0,.8-.44,3.73,3.73,0,0,0,.65-.89,3.94,3.94,0,0,1,.32-.41.58.58,0,0,1,.43-.23.23.23,0,0,1,.23.14.49.49,0,0,1,0,.29c-.06.24-.15.54-.29.93s-.27.8-.4,1.23a12.52,12.52,0,0,0-.32,1.23.68.68,0,0,1-.64.67Z"/><path d="M252,183.84a22.52,22.52,0,0,1-.36,4.2,9.8,9.8,0,0,1-1.21,3.27,5.88,5.88,0,0,1-2.2,2.12,6.88,6.88,0,0,1-3.35.75,6.8,6.8,0,0,1-3.18-.68,5.17,5.17,0,0,1-2.08-2,9.31,9.31,0,0,1-1.12-3.22,25.89,25.89,0,0,1-.33-4.38,21.78,21.78,0,0,1,.37-4.19,9.86,9.86,0,0,1,1.21-3.28,5.76,5.76,0,0,1,2.19-2.11,7.87,7.87,0,0,1,6.53-.08,5.27,5.27,0,0,1,2.08,2,9.33,9.33,0,0,1,1.12,3.21A25.89,25.89,0,0,1,252,183.84Zm-2.72.19c0-1,0-1.9-.11-2.69a15.1,15.1,0,0,0-.32-2.1,6.14,6.14,0,0,0-.54-1.57,3.6,3.6,0,0,0-.79-1.08,2.77,2.77,0,0,0-1.06-.62,4.3,4.3,0,0,0-1.34-.19,3.47,3.47,0,0,0-2.13.61,4.23,4.23,0,0,0-1.29,1.7,9,9,0,0,0-.64,2.54,27.7,27.7,0,0,0-.17,3.12,27.39,27.39,0,0,0,.23,3.81,8.33,8.33,0,0,0,.74,2.55,3.31,3.31,0,0,0,1.28,1.44A3.72,3.72,0,0,0,245,192a3.78,3.78,0,0,0,1.52-.28,3,3,0,0,0,1.13-.8,4.37,4.37,0,0,0,.78-1.24,8.7,8.7,0,0,0,.5-1.61,14.84,14.84,0,0,0,.25-1.9C249.24,185.48,249.26,184.77,249.26,184Z"/><path d="M273.52,187.46c0-3.29-2.94-4.37-6.61-4.37h-.48v-2.62h.38c4,0,6.11-1.11,6.11-3.8,0-2.44-2-3.74-4.46-3.74a4.62,4.62,0,0,0-5,4.47h-3c.35-4.06,3.23-6.87,8-6.87,4,0,7.44,1.61,7.44,5.82a5.6,5.6,0,0,1-3.74,5.32c3.42,1.11,4.37,3.32,4.37,5.76,0,4.62-3.89,6.86-8.29,6.86-5.45,0-7.82-3.35-8.17-7.18h3c.35,2.82,2,4.78,5.22,4.78C271.37,191.89,273.52,190.34,273.52,187.46Z"/><path d="M288.83,193.88v-15.7h-4.52v-2.72c3-.09,4.49-.29,5.48-2.58h3v21Z"/></svg>