<svg id="Слой_1" data-name="Слой 1" xmlns="http://www.w3.org/2000/svg" viewBox="0 0 400 400"><defs><style>.cls-1,.cls-2{fill:#fff;stroke:#000;stroke-width:3px;}.cls-1{stroke-miterlimit:10;}.cls-2{stroke-linecap:round;stroke-linejoin:round;}.cls-3{fill:#c1362d;}.cls-4{fill:#608b70;}.cls-5{fill:#b8ad99;}.cls-6{font-size:28.66px;font-family:SuisseIntl-Regular, Suisse Intl;letter-spacing:0.2em;}.cls-7{font-family:PTSerif-Bold, PT Serif;font-weight:700;}.cls-8,.cls-9{font-size:26.24px;}.cls-8{font-family:PTSerif-Regular, PT Serif;letter-spacing:0.2em;}.cls-9{font-family:Cormorant-Regular, Cormorant;letter-spacing:0.2em;}</style></defs><title>g6</title><path class="cls-1" d="M370.47,385.45H37.91V38s117.72,98.26,167.68,98.26S370.47,38,370.47,38Z"/><path class="cls-1" d="M141.47,212.29c9.69-3.84,14.53-5.76,20.33-5.28,18.41,1.51,21.75,20.14,43.34,25.37,4.64,1.13,11.84.57,26.26-.54,24.34-1.88,27.08-5.18,39.8-4.72,9.72.35,30.73,1.11,39.21,13.78,10.75,16.07-9.28,35.44,2.1,54.44,7.91,13.22,22.86,12.66,22.81,20.94-.05,8.46-15.73,18.43-29.81,17.16-11.81-1.07-14.6-9.34-25.53-11.15-7.67-1.27-19.28.65-35.66,16.31,9.31,24.61,9.2,32.3,6.54,33.91-6.24,3.79-22.9-28-55.17-32.91-16.66-2.53-31.18,3.06-36.86,5.63-25.47,11.52-32.9,34.52-39.24,31.95-6.5-2.63-4.87-29.39-1-47.66,2.88-13.51,7.81-26.29,1.24-34.07-2.8-3.34-5.69-3.35-7.94-7.62-4-7.62,2.13-13.34-.4-19.45-4.45-10.75-29-6.66-30.44-13-.76-3.48,6.25-6.67,20.11-16C124.34,223.83,126.09,218.4,141.47,212.29Z"/><path class="cls-2" d="M276.11,294.23c-3.81,10.15-32,9-63-2.67s-53-29.28-49.19-39.43,32-8.95,63,2.67S279.92,284.08,276.11,294.23Z"/><polygon class="cls-3" points="143.56 234.77 151.36 248.26 143.56 261.76 127.98 261.76 120.19 248.26 127.98 234.77 143.56 234.77"/><polygon class="cls-4" points="218.73 271.08 223.35 268.24 221.26 273.24 226.62 274.04 221.81 276.52 225.4 280.58 220.11 279.39 220.26 284.8 216.98 280.49 213.61 284.74 213.86 279.32 208.56 280.41 212.23 276.43 207.47 273.85 212.84 273.16 210.85 268.12 215.41 271.05 217.12 265.91 218.73 271.08"/><polygon class="cls-3" points="193.91 261.76 198.53 258.93 196.44 263.93 201.8 264.72 196.98 267.21 200.58 271.26 195.29 270.07 195.44 275.49 192.16 271.18 188.79 275.42 189.04 270.01 183.74 271.09 187.41 267.11 182.65 264.53 188.02 263.84 186.03 258.8 190.59 261.73 192.3 256.59 193.91 261.76"/><polygon class="cls-5" points="249.15 275.28 256.38 270.84 253.11 278.67 261.5 279.92 253.96 283.82 259.59 290.17 251.31 288.31 251.54 296.79 246.39 290.04 241.11 296.69 241.51 288.21 233.19 289.91 238.95 283.67 231.48 279.62 239.91 278.54 236.79 270.64 243.93 275.23 246.62 267.18 249.15 275.28"/><text class="cls-6" transform="translate(170.12 170.39)">Л<tspan class="cls-7" x="26.65" y="0">Е</tspan><tspan class="cls-8" x="49.69" y="0">Н</tspan><tspan class="cls-9" x="74.04" y="0">А </tspan></text><path d="M144.83,196.29h-.63l-1.09,0-1.28-.06-1.2,0-1.38,0-1.73,0-1.53,0h-.82a.66.66,0,0,1-.3-.15c-.15-.11-.23-.2-.23-.29a.33.33,0,0,1,.08-.24l.18-.18,4.26-4.52a12.31,12.31,0,0,0,2.13-3,7.57,7.57,0,0,0,.81-3.41,2.86,2.86,0,0,0-.74-2.06,2.42,2.42,0,0,0-1.84-.78,3.44,3.44,0,0,0-1.9.57,4.66,4.66,0,0,0-1.43,1.4,1.42,1.42,0,0,1-.26.29.52.52,0,0,1-.34.13c-.09,0-.17-.07-.25-.21a1,1,0,0,1-.12-.52,1.94,1.94,0,0,1,.39-.94,6,6,0,0,1,1.11-1.19,6.6,6.6,0,0,1,1.68-1,5.18,5.18,0,0,1,2.1-.42,4.37,4.37,0,0,1,2.25.56,3.8,3.8,0,0,1,1.45,1.55,4.92,4.92,0,0,1,.49,2.24,5.06,5.06,0,0,1-.27,1.55,10.24,10.24,0,0,1-.72,1.63,9.43,9.43,0,0,1-1,1.44q-.34.42-1,1.08c-.42.44-.88.9-1.36,1.38L139,192.47l-1.06,1.06a2.22,2.22,0,0,0-.41.48c0,.07.13.12.37.15s.67.07,1.06.08.82,0,1.28,0,.94,0,1.4,0,.91,0,1.35-.08a6.61,6.61,0,0,0,1.13-.15,1.51,1.51,0,0,0,.72-.4,3.26,3.26,0,0,0,.59-.81,3.51,3.51,0,0,1,.29-.37.51.51,0,0,1,.39-.21.2.2,0,0,1,.21.13.42.42,0,0,1,0,.27c0,.21-.14.49-.26.84s-.25.72-.37,1.11-.22.77-.29,1.12a.62.62,0,0,1-.25.48A.67.67,0,0,1,144.83,196.29Z"/><path d="M165.36,187.12a20.22,20.22,0,0,1-.33,3.8,8.64,8.64,0,0,1-1.09,3,5.31,5.31,0,0,1-2,1.92,7.1,7.1,0,0,1-5.91.07,4.77,4.77,0,0,1-1.89-1.79,8.52,8.52,0,0,1-1-2.91,23.52,23.52,0,0,1-.3-4,20.3,20.3,0,0,1,.33-3.8,9,9,0,0,1,1.1-3,5.26,5.26,0,0,1,2-1.91,7.12,7.12,0,0,1,5.92-.07,4.75,4.75,0,0,1,1.88,1.79,8.52,8.52,0,0,1,1,2.91A23.35,23.35,0,0,1,165.36,187.12Zm-2.46.16c0-.9,0-1.71-.1-2.43a13,13,0,0,0-.29-1.9,5.9,5.9,0,0,0-.48-1.42,3.43,3.43,0,0,0-.73-1,2.42,2.42,0,0,0-1-.56,3.84,3.84,0,0,0-1.21-.18,3.12,3.12,0,0,0-1.93.56,3.74,3.74,0,0,0-1.17,1.54,7.82,7.82,0,0,0-.58,2.3,22.58,22.58,0,0,0-.16,2.82,24.13,24.13,0,0,0,.21,3.45,7.45,7.45,0,0,0,.67,2.32,3,3,0,0,0,1.16,1.3,3.38,3.38,0,0,0,1.71.4,3.5,3.5,0,0,0,1.38-.25,2.86,2.86,0,0,0,1-.72,4,4,0,0,0,.71-1.12,9.28,9.28,0,0,0,.45-1.46,14.23,14.23,0,0,0,.23-1.73C162.88,188.6,162.9,188,162.9,187.28Z"/><path d="M185.62,187.12a20.22,20.22,0,0,1-.33,3.8,8.64,8.64,0,0,1-1.09,3,5.33,5.33,0,0,1-2,1.92,7.1,7.1,0,0,1-5.91.07,4.75,4.75,0,0,1-1.88-1.79,8.31,8.31,0,0,1-1-2.91,22.45,22.45,0,0,1-.31-4,20.26,20.26,0,0,1,.34-3.8,9,9,0,0,1,1.09-3,5.36,5.36,0,0,1,2-1.91,6.21,6.21,0,0,1,3-.68,6.15,6.15,0,0,1,2.89.61,4.62,4.62,0,0,1,1.88,1.79,8.31,8.31,0,0,1,1,2.91A23.35,23.35,0,0,1,185.62,187.12Zm-2.47.16q0-1.35-.09-2.43a14.45,14.45,0,0,0-.29-1.9,6.35,6.35,0,0,0-.49-1.42,3.24,3.24,0,0,0-.72-1,2.46,2.46,0,0,0-1-.56,3.8,3.8,0,0,0-1.21-.18,3.14,3.14,0,0,0-1.93.56,3.83,3.83,0,0,0-1.17,1.54,8.14,8.14,0,0,0-.58,2.3,24.76,24.76,0,0,0-.15,2.82,24.13,24.13,0,0,0,.21,3.45,7.75,7.75,0,0,0,.66,2.32,3,3,0,0,0,1.16,1.3,3.89,3.89,0,0,0,3.09.15,3,3,0,0,0,1-.72,3.94,3.94,0,0,0,.7-1.12,7.57,7.57,0,0,0,.45-1.46,12.5,12.5,0,0,0,.23-1.73C183.13,188.6,183.15,188,183.15,187.28Z"/><path d="M205.87,187.12a20.22,20.22,0,0,1-.33,3.8,8.64,8.64,0,0,1-1.09,3,5.31,5.31,0,0,1-2,1.92,7.1,7.1,0,0,1-5.91.07,4.77,4.77,0,0,1-1.89-1.79,8.52,8.52,0,0,1-1-2.91,23.52,23.52,0,0,1-.3-4,20.3,20.3,0,0,1,.33-3.8,9,9,0,0,1,1.1-3,5.26,5.26,0,0,1,2-1.91,6.23,6.23,0,0,1,3-.68,6.11,6.11,0,0,1,2.88.61,4.71,4.71,0,0,1,1.89,1.79,8.52,8.52,0,0,1,1,2.91A23.35,23.35,0,0,1,205.87,187.12Zm-2.46.16c0-.9,0-1.71-.1-2.43A13,13,0,0,0,203,183a5.9,5.9,0,0,0-.48-1.42,3.43,3.43,0,0,0-.73-1,2.49,2.49,0,0,0-.95-.56,3.84,3.84,0,0,0-1.21-.18,3.17,3.17,0,0,0-1.94.56,3.81,3.81,0,0,0-1.16,1.54,7.82,7.82,0,0,0-.58,2.3,22.58,22.58,0,0,0-.16,2.82,24.13,24.13,0,0,0,.21,3.45,7.45,7.45,0,0,0,.67,2.32,3,3,0,0,0,1.16,1.3,3.38,3.38,0,0,0,1.71.4,3.5,3.5,0,0,0,1.38-.25,2.86,2.86,0,0,0,1-.72,4,4,0,0,0,.71-1.12,9.28,9.28,0,0,0,.45-1.46,14.23,14.23,0,0,0,.23-1.73C203.39,188.6,203.41,188,203.41,187.28Z"/><path d="M213.52,191.75a.14.14,0,0,1-.16-.16,3.75,3.75,0,0,1,.12-.92c.07-.31.18-.48.3-.5l2.52-.35,2.52-.3a.23.23,0,0,1,.14,0,.13.13,0,0,1,.07.12,3.48,3.48,0,0,1-.12.93c-.08.29-.22.45-.43.48-.79.13-1.59.24-2.41.36S214.41,191.66,213.52,191.75Z"/><path d="M236.32,196.29h-.63l-1.09,0-1.27-.06-1.21,0-1.38,0-1.73,0-1.52,0h-.83a.77.77,0,0,1-.3-.15c-.15-.11-.22-.2-.22-.29a.33.33,0,0,1,.08-.24l.18-.18,4.25-4.52a12.35,12.35,0,0,0,2.14-3,7.56,7.56,0,0,0,.8-3.41,2.85,2.85,0,0,0-.73-2.06,2.43,2.43,0,0,0-1.84-.78,3.41,3.41,0,0,0-1.9.57,4.55,4.55,0,0,0-1.43,1.4,1.23,1.23,0,0,1-.27.29.48.48,0,0,1-.34.13c-.08,0-.17-.07-.25-.21a1,1,0,0,1-.11-.52,1.94,1.94,0,0,1,.39-.94,5.94,5.94,0,0,1,1.1-1.19,6.6,6.6,0,0,1,1.68-1,5.25,5.25,0,0,1,2.1-.42,4.38,4.38,0,0,1,2.26.56,3.71,3.71,0,0,1,1.44,1.55,4.92,4.92,0,0,1,.5,2.24,4.81,4.81,0,0,1-.28,1.55,8.71,8.71,0,0,1-.72,1.63,10.15,10.15,0,0,1-1,1.44q-.34.42-1,1.08l-1.36,1.38-1.38,1.36-1.06,1.06a1.91,1.91,0,0,0-.41.48c0,.07.12.12.37.15a10.46,10.46,0,0,0,1.06.08c.39,0,.82,0,1.27,0l1.41,0c.46,0,.91,0,1.35-.08a6.61,6.61,0,0,0,1.13-.15,1.51,1.51,0,0,0,.72-.4,3.26,3.26,0,0,0,.59-.81,2.55,2.55,0,0,1,.29-.37.51.51,0,0,1,.39-.21.2.2,0,0,1,.21.13.5.5,0,0,1,0,.27c-.06.21-.14.49-.27.84s-.24.72-.36,1.11a9.28,9.28,0,0,0-.29,1.12.65.65,0,0,1-.25.48A.67.67,0,0,1,236.32,196.29Z"/><path d="M256.86,187.12a20.22,20.22,0,0,1-.33,3.8,8.64,8.64,0,0,1-1.09,3,5.33,5.33,0,0,1-2,1.92,7.1,7.1,0,0,1-5.91.07,4.75,4.75,0,0,1-1.88-1.79,8.31,8.31,0,0,1-1-2.91,23.52,23.52,0,0,1-.3-4,20.3,20.3,0,0,1,.33-3.8,9.22,9.22,0,0,1,1.09-3,5.36,5.36,0,0,1,2-1.91,6.21,6.21,0,0,1,3-.68,6.15,6.15,0,0,1,2.89.61,4.62,4.62,0,0,1,1.88,1.79,8.31,8.31,0,0,1,1,2.91A23.35,23.35,0,0,1,256.86,187.12Zm-2.46.16c0-.9,0-1.71-.1-2.43A14.45,14.45,0,0,0,254,183a6.35,6.35,0,0,0-.49-1.42,3.24,3.24,0,0,0-.72-1,2.46,2.46,0,0,0-1-.56,3.8,3.8,0,0,0-1.21-.18,3.16,3.16,0,0,0-1.93.56,3.92,3.92,0,0,0-1.17,1.54,8.14,8.14,0,0,0-.58,2.3,24.76,24.76,0,0,0-.15,2.82,24.13,24.13,0,0,0,.21,3.45,7.75,7.75,0,0,0,.66,2.32,3.1,3.1,0,0,0,1.16,1.3,3.42,3.42,0,0,0,1.72.4,3.5,3.5,0,0,0,1.38-.25,3.05,3.05,0,0,0,1-.72,3.94,3.94,0,0,0,.7-1.12,7.57,7.57,0,0,0,.45-1.46,12.5,12.5,0,0,0,.23-1.73C254.38,188.6,254.4,188,254.4,187.28Z"/><path d="M275.5,179.36a8.73,8.73,0,0,0-1.89.12,7.56,7.56,0,0,0-6.47,6.62h.08a5.55,5.55,0,0,1,4.5-2.15c3.3,0,5.62,2.37,5.62,6,0,3.41-2.32,6.57-6.19,6.57s-6.59-3.1-6.59-7.94a11.74,11.74,0,0,1,3.15-8.4,10.16,10.16,0,0,1,6-2.75,12.75,12.75,0,0,1,1.83-.14Zm-.71,10.75c0-2.67-1.52-4.27-3.84-4.27a4.13,4.13,0,0,0-3.61,2.29,2.18,2.18,0,0,0-.29,1.12c.06,3.06,1.46,5.33,4.1,5.33C273.33,194.58,274.79,192.77,274.79,190.11Z"/><path d="M295.93,179.36a8.73,8.73,0,0,0-1.89.12,7.56,7.56,0,0,0-6.47,6.62h.08a5.55,5.55,0,0,1,4.5-2.15c3.3,0,5.62,2.37,5.62,6,0,3.41-2.32,6.57-6.19,6.57s-6.59-3.1-6.59-7.94a11.74,11.74,0,0,1,3.15-8.4,10.16,10.16,0,0,1,6-2.75,12.75,12.75,0,0,1,1.83-.14Zm-.71,10.75c0-2.67-1.52-4.27-3.84-4.27a4.14,4.14,0,0,0-3.61,2.29,2.18,2.18,0,0,0-.29,1.12c.06,3.06,1.46,5.33,4.1,5.33C293.76,194.58,295.22,192.77,295.22,190.11Z"/></svg>