<svg id="Слой_1" data-name="Слой 1" xmlns="http://www.w3.org/2000/svg" viewBox="0 0 400 400"><defs><style>.cls-1,.cls-2{fill:#fff;stroke:#000;stroke-width:3px;}.cls-1{stroke-miterlimit:10;}.cls-2{stroke-linecap:round;stroke-linejoin:round;}.cls-3{fill:#608b70;}.cls-4{fill:#b8ad99;}</style></defs><title>g64</title><path class="cls-1" d="M341.51,47c70.63,15.28-10,338.48-10,338.48H52.5C24.25,150.58,26.66,75.38,46.12,63.61c21.26-12.85,56.63,49.09,87.53,25C152.37,74,151.33,41.89,166.47,38.64c23.53-5,39.59,69.56,62,63.82,15.53-4,16.08-41.92,34.65-49.94,15.32-6.63,32.19,11.76,43.76,27.74C306.87,80.26,319.66,42.24,341.51,47Z"/><path class="cls-1" d="M278.29,185.35c-4.1-12.52-27.41-20.31-46-15.9-18.37,4.36-16.26,16.86-37.63,26.77-25.33,11.73-42.08.58-54.37,15.06-.83,1-10.17,12.28-5.86,22.58,2.21,5.28,10.11,4.51,11.71,10,1.12,3.88-2,5.34-1.67,10,.53,7.19,8.23,8.48,11.71,15.9s1.6,18.4-4.18,23.42c-9.32,8.09-30,1.57-40.15-10-8.34-9.5-4.86-16.91-14.22-25.09-9.7-8.49-24.16-9.9-25.93-6.69-1.37,2.47,5.61,6.21,11.71,16.72,5.81,10,4,14.5,8.36,30.12,5.07,18.24,7.7,27.69,15.9,33.45,11.49,8.09,21.32,0,30.94,9.21,7.3,7,4.73,14.55,12.55,19.23,5.81,3.48,12.29,2.33,20.07.84,11.9-2.28,27.34-4.07,33.46-15.06,4.33-7.76,1.42-15.14,4.19-15.89,3.34-.9,11.76,8.77,10.87,18.4-1.05,11.28-14.28,16.37-12.55,20.91,1.22,3.2,8.68,3.1,20.91,2.51,26-1.25,39-1.88,45.17-4.18,4.33-1.63,21.79-8.19,32.62-24.26C327.94,310.74,313,252.8,287.49,233c-3.82-3-10.81-7.33-13.38-15.89C270.07,203.68,281.68,195.71,278.29,185.35Z"/><path class="cls-2" d="M225.42,261.88A10.59,10.59,0,0,1,204.65,258"/><path class="cls-2" d="M262.76,261.54c-2.53,12.45-25.35,18.33-51,13.13s-44.34-19.51-41.82-32,25.35-18.33,51-13.13S265.28,249.09,262.76,261.54Z"/><path class="cls-3" d="M236.9,251.32a8.79,8.79,0,1,1-7-10.28,8.79,8.79,0,0,1,7,10.28"/><polygon class="cls-4" points="206.3 240.4 210.78 236.46 209.45 242.28 215.42 242.13 210.66 245.73 215.33 249.46 209.37 249.16 210.55 255.01 206.17 250.96 203.32 256.2 202.57 250.28 197.01 252.45 200.25 247.44 194.59 245.54 200.29 243.78 197.18 238.68 202.68 241 203.57 235.09 206.3 240.4"/><path d="M225.37,261.86a.07.07,0,0,1,.06,0s0,0,0,.06a0,0,0,0,1-.06,0,.06.06,0,0,1,0-.06"/><path d="M204.7,258a0,0,0,1,0-.09,0s0,.05,0,.05a.07.07,0,0,0,0,0"/><path d="M174.45,109.86v8.42h.76l6.51-8.42h2.95l-7.17,8.7c3.12.42,4.33,2.34,5.32,4.9a47.3,47.3,0,0,0,2.08,5.37h-2.65a33.19,33.19,0,0,1-1.71-4.47c-.88-2.51-2.09-4.22-5.3-4.22h-.79v8.69H172v-19Z"/><path d="M199.49,110.48l6.3,16.19a2.66,2.66,0,0,0,.83,1.29,1.86,1.86,0,0,0,.89.36v.51c-.41,0-.9-.05-1.45-.06h-3.7q-.93,0-1.5.06v-.51a2.44,2.44,0,0,0,1.66-.45c.24-.27.18-.84-.16-1.72l-4.64-12.53.41-.46-4.28,11.19a6.76,6.76,0,0,0-.6,2.4,1.36,1.36,0,0,0,.61,1.2,3.49,3.49,0,0,0,1.66.37v.51q-.77,0-1.56-.06h-2.57q-.48,0-.87.06v-.51a2.48,2.48,0,0,0,1.09-.65,5,5,0,0,0,1-1.75l6-15.44h.87Zm2.71,10.93v.52h-7.68l.26-.52Z"/><path d="M218,129a2,2,0,0,1-.55-.06c-.13,0-.2-.12-.2-.22a.32.32,0,0,1,.2-.28,2.51,2.51,0,0,1,.65-.18,3,3,0,0,0,1.49-.64,1.71,1.71,0,0,0,.52-1.37v-10c0-.79,0-1.39-.05-1.82a3,3,0,0,0-.17-.88.42.42,0,0,0-.32-.29,4.65,4.65,0,0,0-.76-.09h-2.28a3.28,3.28,0,0,0-1.23.24,1.77,1.77,0,0,0-.89.76c0,.09-.14.21-.26.38a2.57,2.57,0,0,1-.38.42.65.65,0,0,1-.41.18.15.15,0,0,1-.15-.1.85.85,0,0,1,0-.23,1.29,1.29,0,0,1,.13-.52,8.83,8.83,0,0,0,.53-1.32,9.93,9.93,0,0,0,.27-1.38c0-.3.1-.47.2-.52a.52.52,0,0,1,.24-.08c.07,0,.18.11.32.31a4.15,4.15,0,0,1,.33.52,1,1,0,0,0,.7.38,4.65,4.65,0,0,0,1.1.13h9.08a8.25,8.25,0,0,0,1.46-.1,4.42,4.42,0,0,0,1-.28,2.37,2.37,0,0,0,.51-.34.7.7,0,0,1,.5-.18c.05,0,.09.07.13.19a1.83,1.83,0,0,1,.05.4,1.86,1.86,0,0,1,0,.36c0,.16,0,.28-.06.37a4.37,4.37,0,0,1-.15.67,1.82,1.82,0,0,0-.08.36,2.77,2.77,0,0,0,0,.49v.31a1.82,1.82,0,0,1-.1.52c-.07.2-.18.3-.31.3s-.22-.09-.29-.28a6.12,6.12,0,0,1-.2-.78,1.3,1.3,0,0,0-.62-.86,3.57,3.57,0,0,0-1.75-.32h-2.61a1.87,1.87,0,0,0-.85.15c-.19.11-.31.36-.36.78a18.7,18.7,0,0,0-.08,2v10.14a1.69,1.69,0,0,0,.54,1.37,3.15,3.15,0,0,0,1.5.64,2.3,2.3,0,0,1,.64.18.31.31,0,0,1,.21.28c0,.1-.07.18-.21.22a2,2,0,0,1-.54.06c-.46,0-.85,0-1.15,0l-.86-.06c-.27,0-.61,0-1,0s-.81,0-1.13,0l-1,.06C218.87,129,218.47,129,218,129Z"/><path d="M250.68,128.67c0,.11,0,.16-.05.16-.61,0-1.07,0-1.41,0l-1.94,0-2,0c-.34,0-.8,0-1.38,0,0,0-.06-.05-.06-.16s0-.17.06-.17a6.59,6.59,0,0,0,1.57-.14,1,1,0,0,0,.68-.55,3.54,3.54,0,0,0,.17-1.26v-6.84a4.2,4.2,0,0,0-1.62.41,4.89,4.89,0,0,0-1.44,1.27,22.07,22.07,0,0,0-1.79,2.72c-.92,1.57-1.61,2.7-2.09,3.37a5,5,0,0,1-1,1.19,1.55,1.55,0,0,1-.77.16h-2.9c-.05,0-.08-.05-.08-.16s0-.17.08-.17a3.49,3.49,0,0,0,2.53-1.14,19.51,19.51,0,0,0,2.59-3.82,12.08,12.08,0,0,1,2-2.7,4.65,4.65,0,0,1,2.09-1.13,6.46,6.46,0,0,1-3.73-1.33,3.63,3.63,0,0,1-1.28-2.89,4,4,0,0,1,.66-2.25,4.31,4.31,0,0,1,1.83-1.53,6,6,0,0,1,2.63-.55,14,14,0,0,1,1.49.08l.79.06q.45,0,1,0c.48,0,1.12,0,1.91-.06l1.44,0s.05.06.05.17,0,.17-.05.17a6.2,6.2,0,0,0-1.61.15,1,1,0,0,0-.67.55,3.24,3.24,0,0,0-.17,1.24v13a3.29,3.29,0,0,0,.18,1.26,1,1,0,0,0,.68.55,6.49,6.49,0,0,0,1.59.14S250.68,128.55,250.68,128.67ZM242,118.08a4.32,4.32,0,0,0,3.35,1.24c.24,0,.59,0,1-.06v-5.68a1.79,1.79,0,0,0-.68-1.59,2.9,2.9,0,0,0-1.69-.47q-3.18,0-3.18,3.27A4.62,4.62,0,0,0,242,118.08Z"/><path d="M146.83,159.91h-.62l-1.07,0-1.25-.05-1.18,0-1.36,0-1.7,0-1.49,0h-.82a.7.7,0,0,1-.29-.15c-.15-.1-.22-.2-.22-.29a.28.28,0,0,1,.08-.23l.18-.18,4.17-4.43a12.11,12.11,0,0,0,2.1-3,7.47,7.47,0,0,0,.79-3.36,2.82,2.82,0,0,0-.72-2,2.39,2.39,0,0,0-1.81-.76,3.41,3.41,0,0,0-1.87.56,4.69,4.69,0,0,0-1.4,1.37,1.42,1.42,0,0,1-.26.29.53.53,0,0,1-.33.13c-.09,0-.17-.07-.25-.21a1,1,0,0,1-.11-.52,1.82,1.82,0,0,1,.38-.91,5.75,5.75,0,0,1,1.08-1.17,6.74,6.74,0,0,1,1.65-1,5.27,5.27,0,0,1,2.07-.41,4.19,4.19,0,0,1,2.21.55,3.65,3.65,0,0,1,1.42,1.52,4.79,4.79,0,0,1,.49,2.21,4.93,4.93,0,0,1-.27,1.52,9.08,9.08,0,0,1-.71,1.6,9.65,9.65,0,0,1-1,1.42q-.33.41-1,1.05l-1.34,1.36-1.36,1.34-1,1a2.07,2.07,0,0,0-.4.47c0,.06.12.12.36.15l1,.08c.39,0,.81,0,1.25,0s.93,0,1.38,0l1.33-.08a7.67,7.67,0,0,0,1.11-.15,1.6,1.6,0,0,0,.71-.39,3.38,3.38,0,0,0,.58-.8c.07-.1.16-.22.28-.36a.51.51,0,0,1,.39-.21.2.2,0,0,1,.2.13.39.39,0,0,1,0,.26c-.05.2-.14.48-.26.82s-.24.71-.36,1.1a11.12,11.12,0,0,0-.28,1.1.63.63,0,0,1-.25.47A.64.64,0,0,1,146.83,159.91Z"/><path d="M167,150.9a19.64,19.64,0,0,1-.33,3.74,8.45,8.45,0,0,1-1.07,2.9,5.3,5.3,0,0,1-2,1.89,6.14,6.14,0,0,1-3,.66,6,6,0,0,1-2.82-.6,4.51,4.51,0,0,1-1.85-1.75,8.3,8.3,0,0,1-1-2.86,22.66,22.66,0,0,1-.3-3.9,19.53,19.53,0,0,1,.33-3.73,8.7,8.7,0,0,1,1.08-2.92,5.17,5.17,0,0,1,1.95-1.88,7,7,0,0,1,5.81-.07,4.64,4.64,0,0,1,1.84,1.76,8.3,8.3,0,0,1,1,2.86A22.57,22.57,0,0,1,167,150.9Zm-2.42.16c0-.89,0-1.68-.1-2.39a14.06,14.06,0,0,0-.28-1.87,6.08,6.08,0,0,0-.48-1.39,3.63,3.63,0,0,0-.71-1,2.62,2.62,0,0,0-.94-.55,4,4,0,0,0-1.19-.17,3.12,3.12,0,0,0-1.9.55,3.76,3.76,0,0,0-1.14,1.51,8.29,8.29,0,0,0-.58,2.26,24,24,0,0,0-.15,2.77,23.24,23.24,0,0,0,.21,3.39,7.57,7.57,0,0,0,.65,2.28,3.06,3.06,0,0,0,1.14,1.28,3.43,3.43,0,0,0,1.69.39,3.54,3.54,0,0,0,1.35-.24,2.85,2.85,0,0,0,1-.71,4.12,4.12,0,0,0,.7-1.11,7.75,7.75,0,0,0,.44-1.43,13.54,13.54,0,0,0,.23-1.69C164.57,152.36,164.59,151.72,164.59,151.06Z"/><path d="M186.9,150.9a20.53,20.53,0,0,1-.32,3.74,8.66,8.66,0,0,1-1.07,2.9,5.3,5.3,0,0,1-2,1.89,6.16,6.16,0,0,1-3,.66,6.07,6.07,0,0,1-2.83-.6,4.64,4.64,0,0,1-1.85-1.75,8.3,8.3,0,0,1-1-2.86,22.66,22.66,0,0,1-.3-3.9,19.53,19.53,0,0,1,.33-3.73,8.91,8.91,0,0,1,1.07-2.92,5.27,5.27,0,0,1,2-1.88,6.94,6.94,0,0,1,5.8-.07,4.67,4.67,0,0,1,1.85,1.76,8.3,8.3,0,0,1,1,2.86A23.69,23.69,0,0,1,186.9,150.9Zm-2.42.16c0-.89,0-1.68-.09-2.39a15.92,15.92,0,0,0-.28-1.87,6.61,6.61,0,0,0-.48-1.39,3.63,3.63,0,0,0-.71-1,2.71,2.71,0,0,0-.94-.55,4,4,0,0,0-1.19-.17,3.12,3.12,0,0,0-1.9.55,3.69,3.69,0,0,0-1.15,1.51,8,8,0,0,0-.57,2.26,24,24,0,0,0-.15,2.77,23.24,23.24,0,0,0,.21,3.39,7.29,7.29,0,0,0,.65,2.28,3.06,3.06,0,0,0,1.14,1.28,3.37,3.37,0,0,0,1.68.39,3.55,3.55,0,0,0,1.36-.24,2.85,2.85,0,0,0,1-.71,3.86,3.86,0,0,0,.69-1.11,7.75,7.75,0,0,0,.45-1.43,13.61,13.61,0,0,0,.22-1.69C184.46,152.36,184.48,151.72,184.48,151.06Z"/><path d="M206.21,158.81a1.89,1.89,0,0,1,0,.44,1.31,1.31,0,0,1-.09.33.45.45,0,0,1-.17.19.43.43,0,0,1-.22.06h-9.83a.9.9,0,0,1-.34-.05.55.55,0,0,1-.24-.15.8.8,0,0,1-.16-.32,2.51,2.51,0,0,1,0-.51,3.54,3.54,0,0,1,0-.48,1,1,0,0,1,.09-.36,1.45,1.45,0,0,1,.18-.32,2.5,2.5,0,0,1,.27-.34l3.56-3.65a22.79,22.79,0,0,0,2-2.27,11.85,11.85,0,0,0,1.15-1.83,5.78,5.78,0,0,0,.53-1.5,6.42,6.42,0,0,0,.13-1.26,3.18,3.18,0,0,0-.2-1.12,2.59,2.59,0,0,0-.57-.93,2.55,2.55,0,0,0-1-.63,3.31,3.31,0,0,0-1.3-.24,4.63,4.63,0,0,0-1.55.24,6.88,6.88,0,0,0-1.21.51c-.35.18-.63.35-.87.5a1.09,1.09,0,0,1-.51.24.28.28,0,0,1-.18-.06.33.33,0,0,1-.13-.18,1.59,1.59,0,0,1-.08-.33c0-.13,0-.3,0-.49s0-.26,0-.36a.92.92,0,0,1,.05-.26,1,1,0,0,1,.09-.21,1.07,1.07,0,0,1,.22-.24,6.3,6.3,0,0,1,.57-.39,7.37,7.37,0,0,1,1-.49,9.35,9.35,0,0,1,1.35-.4,7.08,7.08,0,0,1,1.55-.17,6.49,6.49,0,0,1,2.26.37,4.48,4.48,0,0,1,1.61,1,4.22,4.22,0,0,1,1,1.48,5,5,0,0,1,.32,1.78,9.68,9.68,0,0,1-.15,1.7,7.18,7.18,0,0,1-.64,1.83,14.56,14.56,0,0,1-1.41,2.18,30.74,30.74,0,0,1-2.45,2.77l-2.82,2.94h7.74a.36.36,0,0,1,.22.07.49.49,0,0,1,.17.18.71.71,0,0,1,.11.31A1.85,1.85,0,0,1,206.21,158.81Z"/><path d="M214.31,155.45a.14.14,0,0,1-.16-.16,3.6,3.6,0,0,1,.12-.9c.08-.31.18-.47.3-.49l2.47-.35c.83-.11,1.65-.21,2.48-.29a.23.23,0,0,1,.14,0,.11.11,0,0,1,.06.11,3.87,3.87,0,0,1-.11.92c-.08.28-.22.44-.43.47l-2.36.35C216,155.26,215.19,155.36,214.31,155.45Z"/><path d="M236.71,159.91h-.62l-1.07,0-1.25-.05-1.18,0-1.36,0-1.7,0-1.49,0h-.82a.7.7,0,0,1-.29-.15c-.15-.1-.22-.2-.22-.29a.28.28,0,0,1,.08-.23L227,159l4.17-4.43a12.11,12.11,0,0,0,2.1-3,7.47,7.47,0,0,0,.79-3.36,2.82,2.82,0,0,0-.72-2,2.37,2.37,0,0,0-1.81-.76,3.41,3.41,0,0,0-1.87.56,4.69,4.69,0,0,0-1.4,1.37,1.18,1.18,0,0,1-.26.29.53.53,0,0,1-.33.13c-.09,0-.17-.07-.25-.21a1,1,0,0,1-.11-.52,1.92,1.92,0,0,1,.38-.91,5.55,5.55,0,0,1,1.09-1.17,6.38,6.38,0,0,1,1.65-1,5.19,5.19,0,0,1,2.06-.41,4.19,4.19,0,0,1,2.21.55,3.65,3.65,0,0,1,1.42,1.52,4.79,4.79,0,0,1,.49,2.21,4.93,4.93,0,0,1-.27,1.52,8.4,8.4,0,0,1-.71,1.6,9.65,9.65,0,0,1-1,1.42q-.33.41-1,1.05l-1.34,1.36L231,156.16l-1,1a2.07,2.07,0,0,0-.4.47c0,.06.12.12.36.15l1,.08c.39,0,.81,0,1.25,0s.93,0,1.38,0l1.33-.08a7.47,7.47,0,0,0,1.11-.15,1.6,1.6,0,0,0,.71-.39,3.38,3.38,0,0,0,.58-.8c.07-.1.16-.22.28-.36a.51.51,0,0,1,.39-.21.22.22,0,0,1,.21.13.46.46,0,0,1,0,.26c-.05.2-.14.48-.26.82s-.24.71-.36,1.1a11.12,11.12,0,0,0-.28,1.1.63.63,0,0,1-.25.47A.61.61,0,0,1,236.71,159.91Z"/><path d="M256.89,150.9a19.64,19.64,0,0,1-.33,3.74,8.45,8.45,0,0,1-1.07,2.9,5.3,5.3,0,0,1-2,1.89,6.14,6.14,0,0,1-3,.66,6,6,0,0,1-2.82-.6,4.51,4.51,0,0,1-1.85-1.75,8.3,8.3,0,0,1-1-2.86,22.66,22.66,0,0,1-.3-3.9,19.5,19.5,0,0,1,.34-3.73,8.48,8.48,0,0,1,1.07-2.92,5.17,5.17,0,0,1,1.95-1.88,7,7,0,0,1,5.81-.07,4.64,4.64,0,0,1,1.84,1.76,8.3,8.3,0,0,1,1,2.86A22.57,22.57,0,0,1,256.89,150.9Zm-2.42.16c0-.89,0-1.68-.1-2.39a14.06,14.06,0,0,0-.28-1.87,5.64,5.64,0,0,0-.48-1.39,3.43,3.43,0,0,0-.71-1,2.62,2.62,0,0,0-.94-.55,4,4,0,0,0-1.19-.17,3.12,3.12,0,0,0-1.9.55,3.76,3.76,0,0,0-1.14,1.51,8,8,0,0,0-.57,2.26,21.87,21.87,0,0,0-.16,2.77,23.24,23.24,0,0,0,.21,3.39,7.87,7.87,0,0,0,.65,2.28,3.06,3.06,0,0,0,1.14,1.28,3.43,3.43,0,0,0,1.69.39,3.54,3.54,0,0,0,1.35-.24,2.76,2.76,0,0,0,1-.71,3.68,3.68,0,0,0,.7-1.11,7.75,7.75,0,0,0,.44-1.43,11.9,11.9,0,0,0,.23-1.69C254.45,152.36,254.47,151.72,254.47,151.06Z"/><path d="M275.2,143.28a8.91,8.91,0,0,0-1.85.11,7.45,7.45,0,0,0-6.37,6.5h.09a5.46,5.46,0,0,1,4.42-2.11c3.23,0,5.51,2.34,5.51,5.91,0,3.35-2.28,6.45-6.08,6.45s-6.47-3-6.47-7.8a11.5,11.5,0,0,1,3.1-8.25,9.94,9.94,0,0,1,5.85-2.7,12.19,12.19,0,0,1,1.8-.14Zm-.7,10.55c0-2.61-1.49-4.19-3.77-4.19a4.09,4.09,0,0,0-3.55,2.25,2.1,2.1,0,0,0-.28,1.1c.06,3,1.43,5.24,4,5.24C273.06,158.23,274.5,156.45,274.5,153.83Z"/><path d="M295.27,143.28a8.91,8.91,0,0,0-1.85.11,7.45,7.45,0,0,0-6.37,6.5h.09a5.46,5.46,0,0,1,4.42-2.11c3.23,0,5.52,2.34,5.52,5.91,0,3.35-2.29,6.45-6.08,6.45s-6.48-3-6.48-7.8a11.5,11.5,0,0,1,3.1-8.25,9.94,9.94,0,0,1,5.85-2.7,12.19,12.19,0,0,1,1.8-.14Zm-.7,10.55c0-2.61-1.49-4.19-3.77-4.19a4.09,4.09,0,0,0-3.55,2.25A2.1,2.1,0,0,0,287,153c.06,3,1.43,5.24,4,5.24C293.13,158.23,294.57,156.45,294.57,153.83Z"/></svg>