<svg id="Слой_1" data-name="Слой 1" xmlns="http://www.w3.org/2000/svg" viewBox="0 0 400 400"><defs><style>.cls-1,.cls-2{fill:#fff;stroke:#000;stroke-width:3px;}.cls-1{stroke-miterlimit:10;}.cls-2{stroke-linecap:round;stroke-linejoin:round;}.cls-3{fill:#c1362d;}.cls-4{fill:#608b70;}</style></defs><title>g65</title><path class="cls-1" d="M373.22,385.45H30.63V38s121.27,98.26,172.74,98.26S373.22,38,373.22,38Z"/><path class="cls-1" d="M141.07,210.38c9.68-3.84,14.53-5.76,20.32-5.28,18.42,1.5,21.75,20.13,43.34,25.37,4.64,1.12,11.85.57,26.27-.55,24.34-1.87,27.08-5.17,39.79-4.71,9.72.35,30.74,1.11,39.21,13.78,10.75,16.07-9.28,35.44,2.1,54.44,7.91,13.21,22.87,12.66,22.82,20.93-.05,8.47-15.73,18.44-29.81,17.16-11.81-1.06-14.61-9.33-25.53-11.14-7.67-1.27-19.29.65-35.67,16.3,9.32,24.61,9.2,32.31,6.54,33.92-6.24,3.79-22.89-28-55.17-32.91-16.66-2.53-31.17,3.06-36.86,5.63-25.47,11.52-32.9,34.51-39.23,31.95-6.51-2.64-4.87-29.39-1-47.66,2.87-13.52,7.8-26.29,1.24-34.08-2.81-3.33-5.7-3.34-7.94-7.62-4-7.62,2.13-13.33-.41-19.45-4.45-10.74-29-6.66-30.43-13-.77-3.48,6.24-6.67,20.1-16C123.93,221.92,125.68,216.49,141.07,210.38Z"/><path class="cls-2" d="M137.66,226.4a13.37,13.37,0,0,1,14.07-.5c5.94,3.55,6.31,10.39,6.33,11,0,.84.15,7.46-4.47,10.44a45,45,0,0,1-6.52,2.82c-6.95,2.71-11.31,4.54-13.78,9.13a14,14,0,0,0-1.07,9.52,13.81,13.81,0,0,0,3.79,6.87,14,14,0,0,0,6.75,3.58,12.54,12.54,0,0,0,7-.47c6.5-2.39,8.14-9,8.27-9.6.19-.83,1.35-6.35-2.16-10.68a11.4,11.4,0,0,0-3.32-2.76"/><path class="cls-1" d="M232.82,270.08c0,12.3-4,22.28-8.86,22.28s-8.87-10-8.87-22.28,4-22.28,8.87-22.28S232.82,257.78,232.82,270.08Z"/><path class="cls-2" d="M188.58,298.83c.23-2.21,1.73-14.13,12.33-22.32a32.7,32.7,0,0,1,20.67-6.66"/><line class="cls-2" x1="251.4" y1="257.75" x2="277.21" y2="257.75"/><polygon class="cls-3" points="145.03 233.5 142.95 231.39 145.87 231.89 145.63 228.94 147.55 231.19 149.27 228.78 149.29 231.74 152.15 230.99 150.26 233.27 152.94 234.54 150.03 235.08 151.26 237.77 148.69 236.31 147.9 239.16 146.87 236.38 144.43 238.07 145.43 235.28 142.48 235 145.03 233.5"/><polygon class="cls-3" points="137.69 238.69 142.28 239.62 143.77 244.06 140.67 247.56 136.09 246.63 134.59 242.2 137.69 238.69"/><path class="cls-4" d="M193.22,297.58a4.82,4.82,0,1,1-6.69-1.31,4.81,4.81,0,0,1,6.69,1.31"/><path d="M158.77,157.08v.44a3.35,3.35,0,0,0-1.07.17.8.8,0,0,0-.5.53,3.93,3.93,0,0,0-.13,1.2v11a3.94,3.94,0,0,0,.13,1.19.78.78,0,0,0,.5.53,4,4,0,0,0,1.07.18v.44c-.34,0-.81-.05-1.39-.05l-1.88,0-1.71,0c-.59,0-1.07,0-1.45.05v-.44a4,4,0,0,0,1.09-.18.75.75,0,0,0,.49-.53,4.37,4.37,0,0,0,.12-1.19v-11a2.45,2.45,0,0,0-.33-1.56,2.19,2.19,0,0,0-1.46-.34h-2.72a2.15,2.15,0,0,0-1.45.34,2.37,2.37,0,0,0-.34,1.56v11a3.88,3.88,0,0,0,.14,1.19.77.77,0,0,0,.49.53,4,4,0,0,0,1.08.18v.44c-.37,0-.84-.05-1.42-.05l-1.74,0-1.86,0c-.57,0-1.05,0-1.41.05v-.44a4.06,4.06,0,0,0,1.09-.18.79.79,0,0,0,.49-.53,4.37,4.37,0,0,0,.12-1.19v-11a4.36,4.36,0,0,0-.12-1.2.81.81,0,0,0-.49-.53,3.44,3.44,0,0,0-1.09-.17v-.44l1.41,0q.85,0,1.86,0c.86,0,1.73,0,2.58,0l2,0,2,0c.84,0,1.68,0,2.54,0,.66,0,1.29,0,1.88,0Z"/><path d="M176.62,164.92a11.47,11.47,0,0,1-.49,3.58,7.49,7.49,0,0,1-1.32,2.5,5.27,5.27,0,0,1-1.94,1.46,6,6,0,0,1-2.35.47,6,6,0,0,1-2.59-.53,4.86,4.86,0,0,1-1.82-1.55,6.89,6.89,0,0,1-1.08-2.47,13.67,13.67,0,0,1-.36-3.28,11.78,11.78,0,0,1,.49-3.56,7.34,7.34,0,0,1,1.31-2.49,5.35,5.35,0,0,1,1.94-1.46,5.83,5.83,0,0,1,2.34-.48,5.71,5.71,0,0,1,2.59.55,4.88,4.88,0,0,1,1.83,1.55,7,7,0,0,1,1.09,2.45A13.55,13.55,0,0,1,176.62,164.92Zm-2.18.16a13.5,13.5,0,0,0-.21-2.48,6.15,6.15,0,0,0-.66-1.94,3.44,3.44,0,0,0-1.19-1.26,3.23,3.23,0,0,0-1.75-.45,3,3,0,0,0-1.7.48,3.84,3.84,0,0,0-1.17,1.29,6.89,6.89,0,0,0-.68,1.92,11.75,11.75,0,0,0-.23,2.34,12.75,12.75,0,0,0,.22,2.49,6.41,6.41,0,0,0,.66,1.94,3.44,3.44,0,0,0,1.17,1.25,3.21,3.21,0,0,0,1.73.45,3,3,0,0,0,1.71-.48,3.74,3.74,0,0,0,1.19-1.3,6.42,6.42,0,0,0,.69-1.91A11.62,11.62,0,0,0,174.44,165.08Z"/><path d="M183,172.72v-1.5h.34c2.24,0,3.13-3.52,3.59-11.36l.27-4.63h10v17.49h-1.62v-16H188.7l-.22,4c-.5,8.76-1.95,12-4.92,12Z"/><path d="M209.52,167.61l8.73-12h2.53v17.13h-3.3V161l-8.61,11.75h-2.66V155.59h3.31Z"/><path d="M229.06,172.84a1.43,1.43,0,0,1-.51-.08c-.13-.06-.19-.14-.19-.23s.25-.29.77-.39a1.86,1.86,0,0,0,1.19-.55,2.17,2.17,0,0,0,.28-1.26v-10.9a2.8,2.8,0,0,0-.18-1.19c-.12-.24-.49-.41-1.1-.52s-.79-.24-.79-.44a.26.26,0,0,1,.16-.23,1.4,1.4,0,0,1,.53-.08l1,0,.67,0h1.63l.7,0,1,0c.46,0,.7.1.7.31s-.07.2-.2.27a2.65,2.65,0,0,1-.6.17,2.19,2.19,0,0,0-1.27.59,1.61,1.61,0,0,0-.37,1.12v4.75a.16.16,0,0,0,.12.18.6.6,0,0,0,.22,0h8.95c.11,0,.17-.1.17-.29v-4.7a1.75,1.75,0,0,0-.34-1.09,2,2,0,0,0-1.26-.6,2.65,2.65,0,0,1-.6-.17.29.29,0,0,1-.19-.27c0-.21.23-.31.7-.31l1.07,0,.81,0h1.59l.56,0,1,0a1.38,1.38,0,0,1,.52.08.27.27,0,0,1,.18.23c0,.2-.27.34-.8.44s-.95.3-1.08.58a2.61,2.61,0,0,0-.19,1.11v10.9a2.72,2.72,0,0,0,.22,1.28,1.65,1.65,0,0,0,1.13.55c.51.1.77.23.77.39s-.07.17-.2.23a1.34,1.34,0,0,1-.5.08,8.8,8.8,0,0,1-1,0l-.68-.05c-.21,0-.48,0-.82,0s-.62,0-.83,0l-.71.05a9.75,9.75,0,0,1-1,0,1.43,1.43,0,0,1-.51-.08c-.13-.06-.19-.14-.19-.23a.24.24,0,0,1,.18-.24,3.24,3.24,0,0,1,.59-.15,2.43,2.43,0,0,0,1.22-.56,1.58,1.58,0,0,0,.45-1.2v-4.94a.11.11,0,0,0-.12-.12h-9.22c-.08,0-.12.08-.12.26v4.58a1.73,1.73,0,0,0,.55,1.29,2.52,2.52,0,0,0,1.38.69,3.24,3.24,0,0,1,.59.15.24.24,0,0,1,.18.24c0,.09-.06.17-.19.23a1.43,1.43,0,0,1-.51.08,10.63,10.63,0,0,1-1.07,0l-.81-.05c-.26,0-.57,0-.94,0s-.62,0-.86,0l-.74.05A10.08,10.08,0,0,1,229.06,172.84Z"/><path d="M258.44,155.23h2.84l6.59,17.49h-2.65l-1.38-3.79h-8l-1.35,3.79H252Zm-1.88,11.6h6.51l-3.28-9.11Z"/><path d="M143,198.82v-12h-3.45v-2.08c2.3-.06,3.43-.22,4.18-2H146v16Z"/><path d="M153.59,199.5a.45.45,0,0,1-.24-.05.17.17,0,0,1,0-.29.42.42,0,0,1,.21-.06,3.5,3.5,0,0,0,1.54-.43,8.71,8.71,0,0,0,1.77-1.17,10.79,10.79,0,0,0,1.6-1.64,11.26,11.26,0,0,0,1.14-1.82,8.35,8.35,0,0,0,.63-1.82,9.77,9.77,0,0,0,.19-2,5.17,5.17,0,0,0-.25-1.59,6.5,6.5,0,0,0-.68-1.46,3.92,3.92,0,0,0-1-1.06,2,2,0,0,0-1.16-.39,1.83,1.83,0,0,0-1.19.38,2.41,2.41,0,0,0-.73,1,2.86,2.86,0,0,0-.24,1.12,2.8,2.8,0,0,0,.32,1.3,2.84,2.84,0,0,0,.85,1.05,1.79,1.79,0,0,0,1.1.41,2.07,2.07,0,0,0,1-.19c.22-.12.47-.25.75-.38.06,0,.11,0,.14.06a.17.17,0,0,1,0,.18,1.42,1.42,0,0,1-.33.43,4.89,4.89,0,0,1-.4.34,3.67,3.67,0,0,1-.48.29,4.85,4.85,0,0,1-.73.31,2.56,2.56,0,0,1-.82.13,3.3,3.3,0,0,1-2.64-1.36,2.38,2.38,0,0,1-.45-1.42,3.91,3.91,0,0,1,.33-1.53,4.81,4.81,0,0,1,.94-1.42,4.5,4.5,0,0,1,1.45-1.05,4.15,4.15,0,0,1,1.83-.4,3.12,3.12,0,0,1,1.56.43A5.12,5.12,0,0,1,161,186.5a6,6,0,0,1,1,1.62,5.24,5.24,0,0,1,.35,1.86,8.19,8.19,0,0,1-.37,2.53,8.8,8.8,0,0,1-1.09,2.22,16.74,16.74,0,0,1-1.72,2.16,6.58,6.58,0,0,1-1.33,1.15,8.94,8.94,0,0,1-1.47.82,8.73,8.73,0,0,1-1.47.49A6.41,6.41,0,0,1,153.59,199.5Z"/><path d="M168.62,199.5a.49.49,0,0,1-.25-.05.18.18,0,0,1-.06-.13.17.17,0,0,1,.1-.16.37.37,0,0,1,.21-.06,3.5,3.5,0,0,0,1.53-.43,8.71,8.71,0,0,0,1.77-1.17,10.33,10.33,0,0,0,1.6-1.64,11.26,11.26,0,0,0,1.14-1.82,7.41,7.41,0,0,0,.63-1.82,9.75,9.75,0,0,0,.2-2,5.19,5.19,0,0,0-.26-1.59,6.5,6.5,0,0,0-.68-1.46,3.92,3.92,0,0,0-1-1.06,2,2,0,0,0-1.16-.39,1.83,1.83,0,0,0-1.19.38,2.5,2.5,0,0,0-.73,1,2.86,2.86,0,0,0-.24,1.12,2.8,2.8,0,0,0,.32,1.3,2.94,2.94,0,0,0,.85,1.05,1.79,1.79,0,0,0,1.1.41,2.07,2.07,0,0,0,1-.19c.22-.12.47-.25.75-.38q.09,0,.15.06c0,.08,0,.13,0,.18a1.65,1.65,0,0,1-.34.43,3,3,0,0,1-.88.63,4.45,4.45,0,0,1-.73.31,2.5,2.5,0,0,1-.81.13,3.19,3.19,0,0,1-1.47-.36,3.37,3.37,0,0,1-1.18-1,2.38,2.38,0,0,1-.45-1.42,3.91,3.91,0,0,1,.33-1.53,5,5,0,0,1,.94-1.42,4.61,4.61,0,0,1,1.45-1.05,4.15,4.15,0,0,1,1.83-.4,3.12,3.12,0,0,1,1.56.43,5.12,5.12,0,0,1,1.37,1.15,5.51,5.51,0,0,1,1,1.62,5,5,0,0,1,.35,1.86,8.19,8.19,0,0,1-.37,2.53,9.11,9.11,0,0,1-1.08,2.22,17.78,17.78,0,0,1-1.73,2.16,6.53,6.53,0,0,1-1.32,1.15,9.46,9.46,0,0,1-1.48.82,8.18,8.18,0,0,1-1.47.49A6.39,6.39,0,0,1,168.62,199.5Z"/><path d="M183.64,199.5a.43.43,0,0,1-.24-.05.16.16,0,0,1-.07-.13.17.17,0,0,1,.1-.16.39.39,0,0,1,.21-.06,3.5,3.5,0,0,0,1.53-.43,8.45,8.45,0,0,0,1.77-1.17,10.33,10.33,0,0,0,1.6-1.64,11.26,11.26,0,0,0,1.14-1.82,7.41,7.41,0,0,0,.63-1.82,9.75,9.75,0,0,0,.2-2,5.19,5.19,0,0,0-.26-1.59,5.73,5.73,0,0,0-.68-1.46,4,4,0,0,0-1-1.06,2,2,0,0,0-1.16-.39,1.85,1.85,0,0,0-1.2.38,2.61,2.61,0,0,0-.73,1,2.86,2.86,0,0,0-.24,1.12,2.93,2.93,0,0,0,.32,1.3,3.05,3.05,0,0,0,.85,1.05,1.82,1.82,0,0,0,1.11.41,2.06,2.06,0,0,0,1-.19c.22-.12.47-.25.75-.38q.09,0,.15.06c0,.08,0,.13,0,.18a1.6,1.6,0,0,1-.33.43,4.89,4.89,0,0,1-.4.34,4,4,0,0,1-.49.29,4.45,4.45,0,0,1-.73.31,2.45,2.45,0,0,1-.81.13,3.3,3.3,0,0,1-2.64-1.36,2.39,2.39,0,0,1-.46-1.42,3.93,3.93,0,0,1,.34-1.53,5,5,0,0,1,.93-1.42,4.61,4.61,0,0,1,1.45-1.05,4.17,4.17,0,0,1,1.84-.4,3.08,3.08,0,0,1,1.55.43,5,5,0,0,1,1.37,1.15,5.51,5.51,0,0,1,1,1.62,5,5,0,0,1,.36,1.86,8.18,8.18,0,0,1-.38,2.53,9.11,9.11,0,0,1-1.08,2.22,17.65,17.65,0,0,1-1.72,2.16,6.58,6.58,0,0,1-1.33,1.15,9.46,9.46,0,0,1-1.48.82,8.18,8.18,0,0,1-1.47.49A6.39,6.39,0,0,1,183.64,199.5Z"/><path d="M198,195.06c-.09,0-.14,0-.14-.13a3.46,3.46,0,0,1,.1-.77c.07-.27.15-.41.26-.42.7-.11,1.41-.21,2.12-.3s1.41-.18,2.12-.26a.19.19,0,0,1,.12,0s.05.05.05.1a3.21,3.21,0,0,1-.09.78c-.07.24-.19.38-.37.41l-2,.3C199.42,194.9,198.71,195,198,195.06Z"/><path d="M217.15,198.88h-.53l-.91,0-1.08-.05-1,0-1.16,0-1.46,0-1.28,0H209a.57.57,0,0,1-.25-.13c-.13-.09-.19-.17-.19-.24a.24.24,0,0,1,.07-.2l.15-.16,3.58-3.8a10.44,10.44,0,0,0,1.8-2.56,6.41,6.41,0,0,0,.68-2.87,2.45,2.45,0,0,0-.62-1.74,2.08,2.08,0,0,0-1.55-.65,2.88,2.88,0,0,0-1.6.48,3.9,3.9,0,0,0-1.21,1.18.83.83,0,0,1-.22.24.43.43,0,0,1-.28.11q-.12,0-.21-.18a.82.82,0,0,1-.1-.44,1.59,1.59,0,0,1,.33-.78,5,5,0,0,1,.93-1,5.59,5.59,0,0,1,1.41-.86,4.51,4.51,0,0,1,1.77-.35,3.72,3.72,0,0,1,1.9.47,3.12,3.12,0,0,1,1.21,1.31,4.11,4.11,0,0,1,.42,1.89,4.35,4.35,0,0,1-.23,1.3,7.26,7.26,0,0,1-.61,1.37,7.64,7.64,0,0,1-.84,1.21c-.19.24-.46.54-.82.91l-1.15,1.16-1.16,1.15-.9.89a1.9,1.9,0,0,0-.34.4c0,.06.1.1.31.13l.89.07,1.07,0,1.19,0,1.13-.07a5.72,5.72,0,0,0,.95-.13,1.34,1.34,0,0,0,.61-.33,2.68,2.68,0,0,0,.5-.69l.24-.31a.48.48,0,0,1,.33-.17.18.18,0,0,1,.18.11.34.34,0,0,1,0,.22c0,.18-.12.41-.22.71s-.2.6-.31.94-.18.64-.24.94a.52.52,0,0,1-.21.4A.53.53,0,0,1,217.15,198.88Z"/><path d="M226.5,198.82v-12h-3.45v-2.08c2.3-.06,3.43-.22,4.18-2h2.32v16Z"/><path d="M247,191.16a16.57,16.57,0,0,1-.28,3.2,7.46,7.46,0,0,1-.91,2.5,4.55,4.55,0,0,1-1.68,1.61,6,6,0,0,1-5,.06,4,4,0,0,1-1.58-1.51,7.06,7.06,0,0,1-.86-2.45,19.52,19.52,0,0,1-.25-3.34,16.72,16.72,0,0,1,.28-3.2,7.55,7.55,0,0,1,.92-2.49,4.4,4.4,0,0,1,1.67-1.62,6,6,0,0,1,5-.06,4.09,4.09,0,0,1,1.58,1.51,7.14,7.14,0,0,1,.86,2.45A19.52,19.52,0,0,1,247,191.16Zm-2.07.14c0-.76,0-1.44-.08-2.05a12.28,12.28,0,0,0-.25-1.6,4.87,4.87,0,0,0-.41-1.19,2.79,2.79,0,0,0-.61-.83,2.23,2.23,0,0,0-.8-.47,3.22,3.22,0,0,0-1-.15,2.67,2.67,0,0,0-1.63.47,3.27,3.27,0,0,0-1,1.3,6.89,6.89,0,0,0-.49,1.93,22.7,22.7,0,0,0,.05,5.28,6.3,6.3,0,0,0,.56,1.95,2.47,2.47,0,0,0,1,1.1,2.79,2.79,0,0,0,1.44.34,3,3,0,0,0,1.16-.21,2.5,2.5,0,0,0,.86-.61,3.12,3.12,0,0,0,.59-.95,6.22,6.22,0,0,0,.38-1.22,9.07,9.07,0,0,0,.19-1.46C244.92,192.41,244.94,191.87,244.94,191.3Z"/><path d="M264.06,191.16a17.45,17.45,0,0,1-.27,3.2,7.69,7.69,0,0,1-.92,2.5,4.55,4.55,0,0,1-1.68,1.61,6,6,0,0,1-5,.06,4,4,0,0,1-1.58-1.51,7.06,7.06,0,0,1-.86-2.45,19.52,19.52,0,0,1-.25-3.34,16.72,16.72,0,0,1,.28-3.2,7.55,7.55,0,0,1,.92-2.49,4.47,4.47,0,0,1,1.67-1.62,6,6,0,0,1,5-.06,4,4,0,0,1,1.58,1.51,7.14,7.14,0,0,1,.86,2.45A19.52,19.52,0,0,1,264.06,191.16Zm-2.07.14c0-.76,0-1.44-.08-2.05a14.42,14.42,0,0,0-.24-1.6,5.32,5.32,0,0,0-.42-1.19,3,3,0,0,0-.6-.83,2.36,2.36,0,0,0-.81-.47,3.22,3.22,0,0,0-1-.15,2.67,2.67,0,0,0-1.63.47,3.27,3.27,0,0,0-1,1.3,6.89,6.89,0,0,0-.49,1.93,22,22,0,0,0-.13,2.38,19.77,19.77,0,0,0,.18,2.9,6.3,6.3,0,0,0,.56,1.95,2.47,2.47,0,0,0,1,1.1,2.79,2.79,0,0,0,1.44.34,3,3,0,0,0,1.16-.21,2.5,2.5,0,0,0,.86-.61,3.12,3.12,0,0,0,.59-.95,6.22,6.22,0,0,0,.38-1.22,10.3,10.3,0,0,0,.2-1.46C262,192.41,262,191.87,262,191.3Z"/></svg>