<svg id="Слой_1" data-name="Слой 1" xmlns="http://www.w3.org/2000/svg" viewBox="0 0 400 400"><defs><style>.cls-1{fill:#fff;stroke:#000;stroke-miterlimit:10;stroke-width:3px;}.cls-2{fill:#b8ad99;}.cls-3{fill:#c1362d;}.cls-4{font-size:27.71px;font-family:TimesNewRomanPSMT, Times New Roman;letter-spacing:0.2em;}.cls-5{font-family:Calibri, Calibri;letter-spacing:0.2em;}</style></defs><title>g66</title><path class="cls-1" d="M349.63,385.45H57s-51.73-251,0-305,246.63-59.3,292.6,0S349.63,385.45,349.63,385.45Z"/><path class="cls-1" d="M300.2,290.14c9.6-6.21,11.16-26.18,4.43-31-3.25-2.35-6.08.55-10.53-1.67-7.38-3.68-11.4-17.57-6.64-25.48,4.27-7.11,12.06-3.46,22.71-11.63.69-.54,15.52-12.17,13.3-23.27-1.93-9.62-14.61-8.58-21.61-23.27-2.93-6.15-2.82-10.77-6.09-11.63-3.94-1-10.14,4-11.64,10-2.06,8.18,6.44,11.59,6.65,20.5.27,11.86-14.47,21.19-28.25,29.91-12.25,7.75-18.9,12-27.7,11.08-11.74-1.17-13.44-10-27.15-17.17-15.87-8.31-32.08-6.16-49.31-3.88C140.22,215,126,216.87,113.5,228.09,94.6,245,93.11,271.12,93,273.52c-.81,19,7.63,27.5,1.11,37.67-7,10.94-23.26,11.18-22.71,15,.39,2.7,8.9,3.93,14.95,3.32,2.19-.22,11.88-1.47,17.18-8.86,1.3-1.81.88-2,3.88-8.87,3.41-7.86,4.29-8.42,6.09-12.74,5.15-12.34,2.39-18.27,6.65-20.49,3.72-1.95,9,.93,11.63,3.32,6.4,5.82,6.15,17,1.66,21.05-3.07,2.76-7.24,1.3-8.86,4.43-1.51,2.92.81,6.72,1.11,7.2,2.53,4.05,8,6,12.74,5.54,8.09-.83,9.94-8.51,16.07-8.31,4.25.15,6.74,4,10.52,8.31,4.95,5.71,17.45,20.12,29.92,21.61s17.32-10.87,29.91-8.86c8.78,1.4,11.28,12.93,16.62,11.63,3.61-.88,3.17-5.69,8.31-8.31,3.74-1.9,7.54-1.18,13.3,0,11.84,2.42,12.58,6.2,18.28,5.54,7.16-.83,12.73-7.56,15-13.3,1-2.47,3.24-8.32.55-12.74-3.33-5.48-11-3.28-13.29-8.31-1.71-3.72.68-8.83,3.32-11.63C291.11,291.22,295.37,293.26,300.2,290.14Z"/><polygon class="cls-1" points="143.3 273.86 171.16 224.22 197.9 273.86 143.3 273.86"/><polygon class="cls-1" points="249.9 274.42 260.06 263.16 259.29 278.31 274.44 277.53 263.18 287.7 274.44 297.86 259.29 297.09 260.06 312.23 249.9 300.98 239.74 312.23 240.51 297.09 225.36 297.86 236.62 287.7 225.36 277.53 240.51 278.31 239.74 263.16 249.9 274.42"/><polygon class="cls-2" points="170.73 252.71 174.42 247.96 174.2 253.97 180.08 252.71 176.05 257.17 181.37 259.99 175.41 260.81 177.67 266.38 172.58 263.18 170.73 268.91 168.88 263.18 163.79 266.38 166.05 260.81 160.09 259.99 165.41 257.17 161.38 252.71 167.26 253.97 167.04 247.96 170.73 252.71"/><polygon class="cls-3" points="253.67 281.32 257.42 287.82 253.67 294.32 246.16 294.32 242.41 287.82 246.16 281.32 253.67 281.32"/><text class="cls-4" transform="translate(175.45 100.37)">Н<tspan class="cls-5" x="25.55" y="0">Я</tspan></text><path d="M126.14,128V114.28h-4v-2.39c2.64-.08,3.94-.25,4.8-2.26h2.67V128Z"/><path d="M138.33,128.82a.45.45,0,0,1-.28-.07.19.19,0,0,1-.08-.14.21.21,0,0,1,.11-.19.54.54,0,0,1,.25-.06,4.13,4.13,0,0,0,1.76-.5,10.43,10.43,0,0,0,2-1.34,12.64,12.64,0,0,0,1.84-1.89,12.88,12.88,0,0,0,1.31-2.08,9,9,0,0,0,.72-2.1,11.18,11.18,0,0,0,.23-2.29,6.13,6.13,0,0,0-.29-1.83,7.2,7.2,0,0,0-.79-1.68,4.42,4.42,0,0,0-1.14-1.21,2.26,2.26,0,0,0-1.33-.46,2.19,2.19,0,0,0-1.38.44,2.76,2.76,0,0,0-.83,1.09,3.2,3.2,0,0,0-.28,1.29,3.25,3.25,0,0,0,.37,1.49,3.33,3.33,0,0,0,1,1.21,2.08,2.08,0,0,0,1.27.47,2.35,2.35,0,0,0,1.17-.22c.25-.14.54-.29.86-.44a.12.12,0,0,1,.17.07.22.22,0,0,1,0,.21,1.67,1.67,0,0,1-.38.49,4.82,4.82,0,0,1-.46.4c-.12.08-.3.19-.56.33a5.75,5.75,0,0,1-.83.35,3,3,0,0,1-.94.15,3.79,3.79,0,0,1-1.69-.41,3.67,3.67,0,0,1-1.35-1.15,2.75,2.75,0,0,1-.52-1.63,4.3,4.3,0,0,1,.39-1.75,5.59,5.59,0,0,1,1.07-1.64,5.51,5.51,0,0,1,1.67-1.21,4.89,4.89,0,0,1,2.1-.45,3.58,3.58,0,0,1,1.79.49,5.79,5.79,0,0,1,1.58,1.32,6.59,6.59,0,0,1,1.1,1.87,5.8,5.8,0,0,1,.41,2.13,9.23,9.23,0,0,1-.44,2.9,10,10,0,0,1-1.24,2.55,19.24,19.24,0,0,1-2,2.49,7.92,7.92,0,0,1-1.52,1.32,11.47,11.47,0,0,1-1.7.94,9.28,9.28,0,0,1-1.69.56A7,7,0,0,1,138.33,128.82Z"/><path d="M155.58,128.82a.5.5,0,0,1-.28-.07.17.17,0,0,1-.07-.14.21.21,0,0,1,.11-.19.53.53,0,0,1,.24-.06,4.13,4.13,0,0,0,1.77-.5,10.43,10.43,0,0,0,2-1.34,12.64,12.64,0,0,0,1.84-1.89,12.13,12.13,0,0,0,1.3-2.08,9,9,0,0,0,.73-2.1,11.18,11.18,0,0,0,.23-2.29,6.13,6.13,0,0,0-.29-1.83,7.2,7.2,0,0,0-.79-1.68,4.42,4.42,0,0,0-1.14-1.21,2.28,2.28,0,0,0-1.34-.46,2.18,2.18,0,0,0-1.37.44,2.76,2.76,0,0,0-.83,1.09,3.2,3.2,0,0,0-.28,1.29,3.37,3.37,0,0,0,.36,1.49,3.46,3.46,0,0,0,1,1.21,2.08,2.08,0,0,0,1.27.47,2.41,2.41,0,0,0,1.17-.22c.25-.14.54-.29.86-.44.07,0,.12,0,.17.07a.22.22,0,0,1,0,.21,1.86,1.86,0,0,1-.38.49,4.82,4.82,0,0,1-.46.4c-.12.08-.3.19-.56.33a5.44,5.44,0,0,1-.84.35,2.92,2.92,0,0,1-.93.15,3.79,3.79,0,0,1-1.69-.41,3.67,3.67,0,0,1-1.35-1.15,2.75,2.75,0,0,1-.52-1.63,4.46,4.46,0,0,1,.38-1.75,5.83,5.83,0,0,1,1.08-1.64,5.59,5.59,0,0,1,1.66-1.21,5,5,0,0,1,2.11-.45,3.58,3.58,0,0,1,1.79.49,5.75,5.75,0,0,1,1.57,1.32,6.39,6.39,0,0,1,1.11,1.87,5.79,5.79,0,0,1,.4,2.13,9.24,9.24,0,0,1-.43,2.9,10.36,10.36,0,0,1-1.24,2.55,19.24,19.24,0,0,1-2,2.49,7.92,7.92,0,0,1-1.52,1.32,11.47,11.47,0,0,1-1.7.94,9.28,9.28,0,0,1-1.69.56A7.08,7.08,0,0,1,155.58,128.82Z"/><path d="M182.67,111.74a8.7,8.7,0,0,0-1.83.11,7.3,7.3,0,0,0-6.26,6.4h.08a5.37,5.37,0,0,1,4.35-2.08c3.19,0,5.43,2.3,5.43,5.82,0,3.3-2.24,6.34-6,6.34s-6.38-3-6.38-7.67a11.33,11.33,0,0,1,3-8.12,9.82,9.82,0,0,1,5.77-2.66,11.84,11.84,0,0,1,1.77-.14ZM182,122.13c0-2.58-1.47-4.13-3.72-4.13a4,4,0,0,0-3.49,2.21,2.07,2.07,0,0,0-.28,1.09c.06,3,1.42,5.15,4,5.15C180.56,126.45,182,124.7,182,122.13Z"/><path d="M191.79,123.71a.14.14,0,0,1-.16-.15,3.58,3.58,0,0,1,.12-.89c.08-.3.17-.46.29-.48l2.44-.34c.81-.11,1.62-.21,2.43-.29a.23.23,0,0,1,.14,0,.11.11,0,0,1,.07.11,3.26,3.26,0,0,1-.12.9c-.07.28-.21.44-.42.47l-2.32.34C193.48,123.53,192.65,123.63,191.79,123.71Z"/><path d="M213.84,128.11l-.61,0-1,0L211,128l-1.17,0-1.33,0-1.68,0-1.47,0h-.8a.7.7,0,0,1-.29-.15c-.14-.1-.22-.2-.22-.28a.32.32,0,0,1,.08-.23l.18-.18,4.11-4.36a12.33,12.33,0,0,0,2.07-2.95,7.44,7.44,0,0,0,.77-3.3,2.78,2.78,0,0,0-.71-2,2.33,2.33,0,0,0-1.78-.75,3.39,3.39,0,0,0-1.84.55,4.59,4.59,0,0,0-1.38,1.36,1.62,1.62,0,0,1-.25.28.52.52,0,0,1-.33.12c-.09,0-.17-.07-.24-.2a1,1,0,0,1-.12-.51,1.86,1.86,0,0,1,.38-.9,5.89,5.89,0,0,1,1.07-1.15,6.5,6.5,0,0,1,1.62-1,5.11,5.11,0,0,1,2-.41,4.14,4.14,0,0,1,2.19.55,3.57,3.57,0,0,1,1.39,1.49,4.84,4.84,0,0,1,.22,3.67,8.46,8.46,0,0,1-.7,1.57,9.58,9.58,0,0,1-1,1.4c-.22.27-.54.62-1,1s-.85.87-1.32,1.33-.91.91-1.33,1.32l-1,1a2,2,0,0,0-.39.46c0,.06.12.12.36.15l1,.08,1.23,0,1.36,0,1.31-.08a7.15,7.15,0,0,0,1.09-.15,1.65,1.65,0,0,0,.7-.38,3.59,3.59,0,0,0,.57-.79,3.27,3.27,0,0,1,.28-.35.5.5,0,0,1,.38-.21.19.19,0,0,1,.2.13.43.43,0,0,1,0,.25c0,.2-.14.48-.26.81l-.35,1.08a10.81,10.81,0,0,0-.28,1.08.58.58,0,0,1-.24.47A.64.64,0,0,1,213.84,128.11Z"/><path d="M233.7,119.23a19.14,19.14,0,0,1-.32,3.69,8.5,8.5,0,0,1-1,2.86,5.18,5.18,0,0,1-1.93,1.85,6.86,6.86,0,0,1-5.72.07,4.58,4.58,0,0,1-1.82-1.73,8.28,8.28,0,0,1-1-2.82,22.89,22.89,0,0,1-.29-3.83,19.07,19.07,0,0,1,.33-3.68,8.48,8.48,0,0,1,1.05-2.87,5.16,5.16,0,0,1,1.92-1.85,6.86,6.86,0,0,1,5.72-.07,4.58,4.58,0,0,1,1.82,1.73,8.07,8.07,0,0,1,1,2.82A22.89,22.89,0,0,1,233.7,119.23Zm-2.38.17c0-.88,0-1.66-.09-2.36a15.67,15.67,0,0,0-.28-1.84,6.09,6.09,0,0,0-.47-1.37,3.5,3.5,0,0,0-.7-1,2.42,2.42,0,0,0-.93-.54,3.89,3.89,0,0,0-1.17-.17,3,3,0,0,0-1.87.54,3.76,3.76,0,0,0-1.13,1.49,8,8,0,0,0-.56,2.22,23.41,23.41,0,0,0-.15,2.73,22.6,22.6,0,0,0,.21,3.34,7.39,7.39,0,0,0,.64,2.24,3,3,0,0,0,1.12,1.26,3.31,3.31,0,0,0,1.66.39,3.25,3.25,0,0,0,1.33-.25,2.68,2.68,0,0,0,1-.69,3.73,3.73,0,0,0,.68-1.09,7.78,7.78,0,0,0,.44-1.41,13.27,13.27,0,0,0,.22-1.67C231.3,120.67,231.32,120.05,231.32,119.4Z"/><path d="M241.91,128.82a.45.45,0,0,1-.28-.07.19.19,0,0,1-.08-.14.21.21,0,0,1,.11-.19.54.54,0,0,1,.25-.06,4.13,4.13,0,0,0,1.76-.5,10.43,10.43,0,0,0,2-1.34,12.64,12.64,0,0,0,1.84-1.89,12.88,12.88,0,0,0,1.31-2.08,9,9,0,0,0,.72-2.1,11.18,11.18,0,0,0,.23-2.29,6.13,6.13,0,0,0-.29-1.83,7.2,7.2,0,0,0-.79-1.68,4.42,4.42,0,0,0-1.14-1.21,2.26,2.26,0,0,0-1.33-.46,2.14,2.14,0,0,0-1.37.44,2.7,2.7,0,0,0-.84,1.09,3.2,3.2,0,0,0-.28,1.29,3.25,3.25,0,0,0,.37,1.49,3.33,3.33,0,0,0,1,1.21,2.08,2.08,0,0,0,1.27.47,2.35,2.35,0,0,0,1.17-.22c.25-.14.54-.29.86-.44a.12.12,0,0,1,.17.07.22.22,0,0,1,0,.21,1.67,1.67,0,0,1-.38.49,4.82,4.82,0,0,1-.46.4c-.12.08-.3.19-.56.33a5.75,5.75,0,0,1-.83.35,3,3,0,0,1-.94.15,3.79,3.79,0,0,1-1.69-.41,3.57,3.57,0,0,1-1.34-1.15,2.69,2.69,0,0,1-.53-1.63,4.3,4.3,0,0,1,.39-1.75,5.59,5.59,0,0,1,1.07-1.64,5.51,5.51,0,0,1,1.67-1.21,4.89,4.89,0,0,1,2.1-.45,3.58,3.58,0,0,1,1.79.49,5.79,5.79,0,0,1,1.58,1.32,6.59,6.59,0,0,1,1.1,1.87,5.8,5.8,0,0,1,.41,2.13,9.23,9.23,0,0,1-.44,2.9,10,10,0,0,1-1.24,2.55,19.24,19.24,0,0,1-2,2.49,7.92,7.92,0,0,1-1.52,1.32,11.47,11.47,0,0,1-1.7.94,9.28,9.28,0,0,1-1.69.56A7,7,0,0,1,241.91,128.82Z"/><path d="M259.16,128.82a.5.5,0,0,1-.28-.07.17.17,0,0,1-.07-.14.21.21,0,0,1,.11-.19.53.53,0,0,1,.24-.06,4.13,4.13,0,0,0,1.77-.5,10.43,10.43,0,0,0,2-1.34,12.64,12.64,0,0,0,1.84-1.89,12.79,12.79,0,0,0,1.3-2.08,9,9,0,0,0,.73-2.1,11.18,11.18,0,0,0,.23-2.29,5.84,5.84,0,0,0-.3-1.83,6.79,6.79,0,0,0-.78-1.68,4.42,4.42,0,0,0-1.14-1.21,2.28,2.28,0,0,0-1.34-.46,2.16,2.16,0,0,0-1.37.44,2.76,2.76,0,0,0-.83,1.09,3.2,3.2,0,0,0-.28,1.29,3.37,3.37,0,0,0,.36,1.49,3.46,3.46,0,0,0,1,1.21,2.08,2.08,0,0,0,1.27.47,2.41,2.41,0,0,0,1.17-.22c.25-.14.54-.29.86-.44.07,0,.12,0,.17.07a.22.22,0,0,1,0,.21,1.86,1.86,0,0,1-.38.49,4.82,4.82,0,0,1-.46.4c-.12.08-.3.19-.56.33a5.44,5.44,0,0,1-.84.35,2.92,2.92,0,0,1-.93.15,3.79,3.79,0,0,1-1.69-.41,3.67,3.67,0,0,1-1.35-1.15,2.75,2.75,0,0,1-.52-1.63,4.46,4.46,0,0,1,.38-1.75,5.83,5.83,0,0,1,1.08-1.64,5.59,5.59,0,0,1,1.66-1.21,5,5,0,0,1,2.11-.45,3.58,3.58,0,0,1,1.79.49,5.75,5.75,0,0,1,1.57,1.32,6.39,6.39,0,0,1,1.11,1.87,5.79,5.79,0,0,1,.4,2.13,9.24,9.24,0,0,1-.43,2.9,10.36,10.36,0,0,1-1.24,2.55,19.24,19.24,0,0,1-2,2.49,8.23,8.23,0,0,1-1.52,1.32,11.47,11.47,0,0,1-1.7.94,9.28,9.28,0,0,1-1.69.56A7.08,7.08,0,0,1,259.16,128.82Z"/></svg>