<svg id="Слой_1" data-name="Слой 1" xmlns="http://www.w3.org/2000/svg" viewBox="0 0 400 400"><defs><style>.cls-1,.cls-2{fill:#fff;stroke:#000;stroke-width:3px;}.cls-1{stroke-miterlimit:10;}.cls-2{stroke-linecap:round;stroke-linejoin:round;}.cls-3{fill:#608b70;}.cls-4{fill:#b8ad99;}.cls-5{fill:#c1362d;}</style></defs><title>g67</title><path class="cls-1" d="M351.15,381.45H57.83S6,139.35,57.83,87.36s247.23-57.19,293.32,0S351.15,381.45,351.15,381.45Z"/><path class="cls-1" d="M214.24,164.5c-5.64-4.28-15.16-4.19-21.47-2.28-9.06,2.75-8.52,8.32-19.69,15.89-10.42,7.08-14.15,4.44-23.26,10.6-10.62,7.18-10.66,14.21-17.9,23.46-3.6,4.59-16.66,18.42-36.69,22.7-11.91,2.55-15.25-.74-22.37,3-10.81,5.73-16.44,20.43-11.63,31,3.83,8.42,11.3,7.76,28.64,19.67,13.72,9.42,26.7,18.34,29.52,31,3.82,17.13-9.89,20.63-4.47,25.1,4.89,4,19.24,6,31.32-2.4,13.13-9.13,11.47-14.44,22.37-19.68,18-8.62,38.41-1.84,39.37-1.51,13,4.51,19.79,13.32,24.16,18.92,10.16,13,5.81,18.09,13.42,23.46,13.22,9.33,39.86,3.59,56.37-6.06,3.95-2.3,13.27-7.88,19.69-18.16,16-25.62-10.33-41.49-10.74-93.08-.14-17.87,2.89-32.11-8.05-39.35-9.19-6.07-18.81-1-27.74-7.57-14.51-10.66-4.35-35.29-10.74-37.08-2.93-.82-6.91,8.44-21.47,22.71-3.52,3.44-7,6.56-10.74,6-2.12-.29-4.08-1.72-8-8.32C217.05,171,218.6,167.79,214.24,164.5Z"/><path class="cls-2" d="M286.74,323.79a6.94,6.94,0,0,1-11.46,7.81"/><path class="cls-2" d="M263.5,251.63a7.77,7.77,0,0,1-14.89-2.7"/><path class="cls-2" d="M248.61,230.41a7.78,7.78,0,0,1,14.9-2.74"/><path class="cls-2" d="M157.29,228.48a20.69,20.69,0,0,1,19-9.15c10.17,1,15.24,9.4,15.74,10.25"/><path class="cls-2" d="M191.7,234.61a20.66,20.66,0,0,1-19,9.15c-10.17-1-15.25-9.4-15.74-10.25"/><path class="cls-1" d="M198.41,231.19a23.78,23.78,0,1,1-23.78-23.78A23.78,23.78,0,0,1,198.41,231.19Z"/><path class="cls-1" d="M149.11,267a20,20,0,0,1,13.78,6.14c1.34,1.35,6.08,6.14,6.08,13.71A21,21,0,0,1,164,300"/><path class="cls-1" d="M149.11,306.72c-9.79-.24-15.39-7.55-16.08-8.51a19.41,19.41,0,0,1,.56-23.72"/><rect class="cls-1" x="235.4" y="218.24" width="43.07" height="43.07"/><path class="cls-2" d="M303.89,306.32c4.61,6.95-3.25,20.26-17.54,29.73s-29.62,11.52-34.22,4.57,3.26-20.25,17.55-29.72S299.29,299.38,303.89,306.32Z"/><line class="cls-2" x1="219.81" y1="207.41" x2="208.71" y2="311.94"/><path d="M117.83,83.68h-7.94V98.13h-2.31V81.68h10.25Z"/><path d="M123.26,90.19a10.49,10.49,0,0,1,.49-3.28,7.61,7.61,0,0,1,1.48-2.61,6.69,6.69,0,0,1,2.41-1.71,9.18,9.18,0,0,1,6.58,0,6.61,6.61,0,0,1,2.39,1.71,7.57,7.57,0,0,1,1.46,2.61,11,11,0,0,1,0,6.56,7.39,7.39,0,0,1-1.46,2.61,6.39,6.39,0,0,1-2.39,1.71,9,9,0,0,1-6.58,0,6.46,6.46,0,0,1-2.41-1.71,7.43,7.43,0,0,1-1.48-2.61A10.44,10.44,0,0,1,123.26,90.19Zm3.85,0a15,15,0,0,0,.23,2.69,6.84,6.84,0,0,0,.72,2.13,3.88,3.88,0,0,0,1.24,1.41,3.22,3.22,0,0,0,1.83.51,2.71,2.71,0,0,0,1.66-.51A3.79,3.79,0,0,0,133.9,95a7.45,7.45,0,0,0,.62-2.13,17.23,17.23,0,0,0,.2-2.69,16.09,16.09,0,0,0-.22-2.69,7.3,7.3,0,0,0-.68-2.13A3.69,3.69,0,0,0,132.59,84a3.22,3.22,0,0,0-1.85-.51A2.89,2.89,0,0,0,129,84a3.56,3.56,0,0,0-1.13,1.41,7.66,7.66,0,0,0-.59,2.13A20.41,20.41,0,0,0,127.11,90.19Z"/><path d="M147.69,82.84V96.48h5V82.84h2V96.48h4.95V82.84h2V98.13h-15.8V82.84Z"/><path d="M172.39,98.13h-4.61v-.6a7.91,7.91,0,0,1,1.49-.5l5.26-13.69h.6L180.39,97l.82.19a2.82,2.82,0,0,1,.76.31v.6h-5.36v-.6a8.51,8.51,0,0,1,.85-.29l.85-.21-1.4-3.8H172L170.6,97a7.76,7.76,0,0,1,1.79.5Zm0-6h4.18l-1.64-4.41L174.53,86h0L174,87.79Z"/><path d="M198.73,82.84v6.45c0,2.42,0,4.42-.18,6.46l0,0c.77-1.59,1.72-3.25,2.83-5.07l4.95-7.87h2V98.13h-1.86V91.62c0-2.47,0-4.29.18-6.21l-.06,0a47.22,47.22,0,0,1-2.84,5.15L199,98.13h-2.11V82.84Z"/><path d="M215.62,98.24a1.72,1.72,0,0,1-.44,0c-.11,0-.17-.1-.17-.18s.23-.29.69-.37a2.73,2.73,0,0,0,1.2-.48,1.29,1.29,0,0,0,.42-1.08V86.72a1.64,1.64,0,0,0-.31-1.1,1.59,1.59,0,0,0-1.08-.41,1.14,1.14,0,0,1-.52-.16.31.31,0,0,1-.17-.26c0-.08.06-.14.17-.17a1.27,1.27,0,0,1,.43-.06H218a6.66,6.66,0,0,0,.68,0l.66,0,1,0a7.35,7.35,0,0,1,3.63.7,2.53,2.53,0,0,1,1.19,2.4,2.93,2.93,0,0,1-.24,1.23,2.38,2.38,0,0,1-.46.76,4.1,4.1,0,0,1-.61.51,4.44,4.44,0,0,1-.79.39.09.09,0,0,0-.08.09.12.12,0,0,0,.08.11,9.49,9.49,0,0,1,1,.38,4.35,4.35,0,0,1,1,.59,2.66,2.66,0,0,1,.73,1,3.58,3.58,0,0,1,.28,1.5,3.79,3.79,0,0,1-.37,1.81,3,3,0,0,1-.86,1,6.68,6.68,0,0,1-.94.58,5.78,5.78,0,0,1-1.49.52,9.31,9.31,0,0,1-2,.19l-.81,0c-.36,0-.75-.05-1.16-.05s-.67,0-.92,0l-.78,0C216.35,98.23,216,98.24,215.62,98.24Zm4.28-7.82a6.69,6.69,0,0,0,1.21-.12,4.19,4.19,0,0,0,1.3-.48,2.06,2.06,0,0,0,.58-.6,2.26,2.26,0,0,0,.36-1.37,3.71,3.71,0,0,0-.23-1.24,2.23,2.23,0,0,0-.87-1.07,3.5,3.5,0,0,0-1.94-.44,1.82,1.82,0,0,0-1.11.23.92.92,0,0,0-.26.71v3.62c0,.36.12.57.35.65A1.92,1.92,0,0,0,219.9,90.42Zm.68,7a3.61,3.61,0,0,0,1.71-.42,3.36,3.36,0,0,0,1.26-1.13,2.85,2.85,0,0,0,.48-1.61,2.93,2.93,0,0,0-.27-1.34,3.29,3.29,0,0,0-.62-.87,2.61,2.61,0,0,0-.65-.47,3.89,3.89,0,0,0-.85-.35,5.66,5.66,0,0,0-1.51-.17,1.26,1.26,0,0,0-.93.27.77.77,0,0,0-.26.47v4.14a1.33,1.33,0,0,0,.43,1.17A2,2,0,0,0,220.58,97.37Z"/><path d="M246.93,98c0,.09,0,.13-.1.13-.28,0-.73,0-1.33,0s-1.05,0-1.32,0-.76,0-1.27,0-.86,0-1.11,0c-.06,0-.09,0-.09-.13s0-.14.09-.14A3.3,3.3,0,0,0,243,97.7a.54.54,0,0,0,.39-.54,2.73,2.73,0,0,0-.3-1l-2.61-5.56h-4.29l-2,4.63a3.55,3.55,0,0,0-.31,1.27c0,.9.74,1.34,2.22,1.34.08,0,.11,0,.11.14s0,.13-.11.13c-.27,0-.67,0-1.18,0s-1.07,0-1.5,0-.85,0-1.36,0-.83,0-1.13,0c-.08,0-.12,0-.12-.13s0-.14.12-.14a2.2,2.2,0,0,0,1.07-.24,2.24,2.24,0,0,0,.84-.84,10.42,10.42,0,0,0,.88-1.73l4.79-11.3s.08-.07.15-.07.12,0,.14.07L244.23,95a9,9,0,0,0,1.31,2.25,1.71,1.71,0,0,0,1.29.58C246.9,97.86,246.93,97.91,246.93,98Zm-10.51-7.85h3.86l-2.05-4.31Z"/><path d="M267,83.42v.42a3.07,3.07,0,0,0-1,.15.8.8,0,0,0-.47.5,3.89,3.89,0,0,0-.12,1.13V95.93a3.9,3.9,0,0,0,.12,1.12.76.76,0,0,0,.47.5,3.59,3.59,0,0,0,1,.17v.41c-.32,0-.76,0-1.31,0h-3.38c-.55,0-1,0-1.36,0v-.41a3.69,3.69,0,0,0,1-.17.72.72,0,0,0,.46-.5,4.39,4.39,0,0,0,.11-1.12V85.62a2.25,2.25,0,0,0-.31-1.46,2,2,0,0,0-1.37-.32h-2.56a2,2,0,0,0-1.37.32,2.25,2.25,0,0,0-.31,1.46V95.93a3.9,3.9,0,0,0,.12,1.12.74.74,0,0,0,.47.5,3.59,3.59,0,0,0,1,.17v.41c-.35,0-.79,0-1.33,0h-3.39c-.54,0-1,0-1.33,0v-.41a3.69,3.69,0,0,0,1-.17.72.72,0,0,0,.46-.5,4.39,4.39,0,0,0,.11-1.12V85.62a4.37,4.37,0,0,0-.11-1.13.77.77,0,0,0-.46-.5,3.16,3.16,0,0,0-1-.15v-.42l1.33,0c.54,0,1.12,0,1.75,0q1.21,0,2.43,0l1.93,0,1.91,0c.79,0,1.59,0,2.39,0,.63,0,1.21,0,1.77,0Z"/><path d="M282.65,88a5,5,0,0,1-.36,1.94,4.07,4.07,0,0,1-1,1.47,4.46,4.46,0,0,1-1.62.94,7.05,7.05,0,0,1-2.29.33h-1.63v5.17a.2.2,0,0,1-.05.15.3.3,0,0,1-.15.11,1.45,1.45,0,0,1-.29.06,2.86,2.86,0,0,1-.46,0,3,3,0,0,1-.46,0,1.45,1.45,0,0,1-.29-.06.29.29,0,0,1-.16-.11.24.24,0,0,1,0-.15V84.62a.77.77,0,0,1,.23-.63.8.8,0,0,1,.52-.19h3.07a8.45,8.45,0,0,1,.89,0,8,8,0,0,1,1,.16,4.5,4.5,0,0,1,1.19.48,3.7,3.7,0,0,1,1,.86,3.65,3.65,0,0,1,.65,1.18A4.6,4.6,0,0,1,282.65,88Zm-2,.15a3.06,3.06,0,0,0-.32-1.46,2.39,2.39,0,0,0-.81-.88,2.74,2.74,0,0,0-1-.36,7,7,0,0,0-1-.08h-1.77v5.75h1.72a4,4,0,0,0,1.44-.22,2.65,2.65,0,0,0,1-.62,2.57,2.57,0,0,0,.58-.94A3.27,3.27,0,0,0,280.64,88.15Z"/><path d="M300.06,90.8a10.9,10.9,0,0,1-.46,3.37,6.84,6.84,0,0,1-1.24,2.34,4.88,4.88,0,0,1-1.83,1.38,5.7,5.7,0,0,1-2.21.44,5.44,5.44,0,0,1-2.43-.5,4.56,4.56,0,0,1-1.72-1.46,6.66,6.66,0,0,1-1-2.32,13.16,13.16,0,0,1-.33-3.08,11.13,11.13,0,0,1,.45-3.35,6.66,6.66,0,0,1,1.24-2.34,4.85,4.85,0,0,1,1.82-1.38A5.85,5.85,0,0,1,297,84a4.66,4.66,0,0,1,1.72,1.46,6.44,6.44,0,0,1,1,2.31A12.54,12.54,0,0,1,300.06,90.8Zm-2.05.14a12.93,12.93,0,0,0-.19-2.33,5.82,5.82,0,0,0-.63-1.82,3.27,3.27,0,0,0-1.11-1.19,3.09,3.09,0,0,0-1.65-.42,2.81,2.81,0,0,0-1.6.45,3.51,3.51,0,0,0-1.1,1.22,6,6,0,0,0-.64,1.81,11,11,0,0,0-.21,2.2,12.15,12.15,0,0,0,.2,2.34A6.09,6.09,0,0,0,291.7,95a3.3,3.3,0,0,0,1.1,1.18,3,3,0,0,0,1.63.42,2.84,2.84,0,0,0,1.61-.45A3.54,3.54,0,0,0,297.15,95a6.06,6.06,0,0,0,.65-1.8A11.06,11.06,0,0,0,298,90.94Z"/><path class="cls-3" d="M287.16,313.57a5.76,5.76,0,1,1-8-1.51,5.77,5.77,0,0,1,8,1.51"/><polygon class="cls-4" points="267.91 322.7 268.16 318.79 270.24 322.11 272.94 319.27 272.41 323.15 276.3 322.71 273.4 325.34 276.66 327.5 272.75 327.65 273.85 331.41 270.76 329.01 269.19 332.6 268.37 328.77 264.86 330.51 266.69 327.05 262.89 326.13 266.51 324.65 264.19 321.5 267.91 322.7"/><path d="M286.71,323.81s0,0,0,0,0,0,0,0,0,0,0,0,0,0,0,0"/><path d="M275.31,331.58h0a0,0,0,0,0,0,0s0,0,.05,0a0,0,0,0,0,0-.05"/><path class="cls-3" d="M271.07,239.7a6.49,6.49,0,1,1-6.48-6.48,6.49,6.49,0,0,1,6.48,6.48"/><polygon class="cls-4" points="247.41 235.99 250.11 232.51 249.95 236.91 254.25 235.99 251.3 239.25 255.19 241.31 250.83 241.91 252.49 245.99 248.76 243.65 247.41 247.84 246.06 243.65 242.33 245.99 243.99 241.91 239.63 241.31 243.52 239.25 240.57 235.99 244.87 236.91 244.71 232.51 247.41 235.99"/><path d="M260.56,251a3,3,0,1,1,2.11,3.64,3,3,0,0,1-2.11-3.64"/><path d="M248.64,248.92a0,0,0,0,0,0,0s0,0,0,0,0,0,0,0,0,0,0,0"/><path d="M260.57,228.29a3,3,0,1,0,2.12-3.62,3,3,0,0,0-2.12,3.62"/><polygon class="cls-4" points="174.7 226.4 178.08 222.05 177.88 227.55 183.26 226.4 179.57 230.48 184.44 233.06 178.98 233.82 181.06 238.92 176.39 235.99 174.7 241.24 173 235.99 168.34 238.92 170.41 233.82 164.95 233.06 169.82 230.48 166.13 226.4 171.52 227.55 171.31 222.05 174.7 226.4"/><path d="M164.7,293.45a.38.38,0,0,1,.33.45l-.94,6,5.81-1.67a.4.4,0,0,1,.49.27.4.4,0,0,1-.27.49l-6.4,1.84a.38.38,0,0,1-.37-.08.38.38,0,0,1-.13-.36l1-6.58a.42.42,0,0,1,.1-.2.37.37,0,0,1,.35-.12"/><polygon points="149.08 306.69 149.08 306.69 149.1 306.72 149.07 306.75 149.08 306.75 149.12 306.72 149.08 306.69"/><path d="M133.09,281.07a.39.39,0,0,1-.34-.44l.73-6-5.74,1.87a.4.4,0,0,1-.25-.75l6.34-2.06a.41.41,0,0,1,.37.07.38.38,0,0,1,.14.36l-.81,6.61a.4.4,0,0,1-.09.2.38.38,0,0,1-.35.14"/><polygon class="cls-4" points="142.39 283.58 144.67 280.66 144.53 284.36 148.16 283.58 145.67 286.33 148.95 288.07 145.28 288.58 146.67 292.01 143.53 290.04 142.39 293.57 141.25 290.04 138.12 292.01 139.51 288.58 135.84 288.07 139.12 286.33 136.63 283.58 140.25 284.36 140.12 280.66 142.39 283.58"/><polygon class="cls-5" points="159.32 281.77 162.28 286.89 159.32 292.01 153.41 292.01 150.46 286.89 153.41 281.77 159.32 281.77"/><path d="M143.45,127.88V116.62h-3.24v-2c2.16-.06,3.22-.21,3.93-1.85h2.18v15.07Z"/><path d="M153.43,128.52a.34.34,0,0,1-.23-.05.14.14,0,0,1-.06-.11.18.18,0,0,1,.09-.16.46.46,0,0,1,.2,0,3.46,3.46,0,0,0,1.44-.4,9.12,9.12,0,0,0,1.67-1.11,10.07,10.07,0,0,0,2.57-3.25,7.56,7.56,0,0,0,.6-1.71,9.47,9.47,0,0,0,.18-1.89,4.88,4.88,0,0,0-.24-1.49,5.56,5.56,0,0,0-.64-1.37,3.48,3.48,0,0,0-.94-1,1.84,1.84,0,0,0-1.09-.37,1.75,1.75,0,0,0-1.12.36,2.41,2.41,0,0,0-.69.89,2.65,2.65,0,0,0,.08,2.28,2.78,2.78,0,0,0,.8,1,1.71,1.71,0,0,0,1,.38,2,2,0,0,0,.95-.18c.21-.11.45-.24.71-.36.05,0,.1,0,.13.06a.15.15,0,0,1,0,.17,1.24,1.24,0,0,1-.31.4,4.69,4.69,0,0,1-.37.33,4.36,4.36,0,0,1-.46.27,6,6,0,0,1-.68.29,2.53,2.53,0,0,1-.77.12,3.11,3.11,0,0,1-2.49-1.28,2.25,2.25,0,0,1-.42-1.34,3.55,3.55,0,0,1,.31-1.43,4.64,4.64,0,0,1,.88-1.34,4.49,4.49,0,0,1,1.36-1,4,4,0,0,1,1.73-.37,2.9,2.9,0,0,1,1.46.4,4.7,4.7,0,0,1,1.29,1.08,5.59,5.59,0,0,1,.91,1.53,4.81,4.81,0,0,1,.33,1.75,7.87,7.87,0,0,1-.35,2.38,9,9,0,0,1-1,2.09,18.43,18.43,0,0,1-1.62,2,6.38,6.38,0,0,1-1.25,1.08,9.13,9.13,0,0,1-1.39.77,7.29,7.29,0,0,1-1.39.46A5.55,5.55,0,0,1,153.43,128.52Z"/><path d="M167.56,128.52a.34.34,0,0,1-.23-.05.14.14,0,0,1-.06-.11.18.18,0,0,1,.09-.16.49.49,0,0,1,.2,0,3.5,3.5,0,0,0,1.45-.4,9.06,9.06,0,0,0,1.66-1.11,9.56,9.56,0,0,0,1.5-1.55,10.19,10.19,0,0,0,1.08-1.7,7.53,7.53,0,0,0,.59-1.71,9.47,9.47,0,0,0,.18-1.89,5.19,5.19,0,0,0-.23-1.49,5.58,5.58,0,0,0-.65-1.37,3.59,3.59,0,0,0-.93-1,1.89,1.89,0,0,0-1.1-.37,1.77,1.77,0,0,0-1.12.36,2.28,2.28,0,0,0-.68.89,2.56,2.56,0,0,0-.23,1,2.72,2.72,0,0,0,.3,1.23,2.89,2.89,0,0,0,.8,1,1.71,1.71,0,0,0,1,.38,1.92,1.92,0,0,0,.95-.18c.21-.11.45-.24.71-.36.06,0,.1,0,.14.06a.21.21,0,0,1,0,.17,1.44,1.44,0,0,1-.32.4,3.4,3.4,0,0,1-.37.33,4.36,4.36,0,0,1-.46.27,4.79,4.79,0,0,1-.68.29,2.53,2.53,0,0,1-.77.12,3,3,0,0,1-1.38-.34,3,3,0,0,1-1.1-.94,2.19,2.19,0,0,1-.43-1.34,3.55,3.55,0,0,1,.31-1.43,4.64,4.64,0,0,1,.88-1.34,4.54,4.54,0,0,1,1.37-1,3.94,3.94,0,0,1,1.72-.37,3,3,0,0,1,1.47.4,4.81,4.81,0,0,1,1.28,1.08,5.13,5.13,0,0,1,.91,1.53,4.81,4.81,0,0,1,.33,1.75,7.87,7.87,0,0,1-.35,2.38,9,9,0,0,1-1,2.09,16.33,16.33,0,0,1-1.62,2,6.38,6.38,0,0,1-1.25,1.08,9.13,9.13,0,0,1-1.39.77,7.21,7.21,0,0,1-1.38.46A5.64,5.64,0,0,1,167.56,128.52Z"/><path d="M181.14,124.14a4.21,4.21,0,0,1,2.93-4l0-.07a3.65,3.65,0,0,1-2.33-3.31c0-2.34,2-3.93,4.56-3.93,2.86,0,4.29,1.79,4.29,3.63a3.75,3.75,0,0,1-2.43,3.45V120a4.08,4.08,0,0,1,3,3.81c0,2.57-2.2,4.29-5,4.29C183,128.13,181.14,126.29,181.14,124.14Zm7.94-.1c0-1.79-1.25-2.65-3.24-3.22a3.21,3.21,0,0,0-2.66,3,2.73,2.73,0,0,0,2.95,2.82A2.67,2.67,0,0,0,189.08,124Zm-5.49-7.37c0,1.48,1.11,2.27,2.81,2.72a2.9,2.9,0,0,0,2.25-2.67,2.3,2.3,0,0,0-2.5-2.41A2.35,2.35,0,0,0,183.59,116.67Z"/><path d="M197.21,124.35c-.09,0-.13,0-.13-.13a2.6,2.6,0,0,1,.1-.72c.06-.25.14-.39.23-.4l2-.28c.66-.09,1.33-.17,2-.24a.24.24,0,0,1,.12,0,.11.11,0,0,1,0,.1,2.86,2.86,0,0,1-.09.73.46.46,0,0,1-.35.39l-1.9.28C198.59,124.2,197.91,124.28,197.21,124.35Z"/><path d="M215.27,127.94h-.5l-.86,0-1,0-1,0-1.09,0-1.37,0-1.21,0h-.65a.62.62,0,0,1-.24-.12c-.12-.09-.18-.16-.18-.23a.24.24,0,0,1,.07-.19l.14-.14,3.37-3.58a9.93,9.93,0,0,0,1.69-2.41,6.09,6.09,0,0,0,.64-2.7,2.26,2.26,0,0,0-.59-1.63,1.9,1.9,0,0,0-1.45-.62,2.75,2.75,0,0,0-1.51.45,3.86,3.86,0,0,0-1.13,1.11,1.15,1.15,0,0,1-.21.23.4.4,0,0,1-.27.11c-.07,0-.13-.06-.2-.17a.87.87,0,0,1-.09-.42,1.45,1.45,0,0,1,.31-.73,4.49,4.49,0,0,1,.88-.95,5,5,0,0,1,1.33-.81,4.13,4.13,0,0,1,1.66-.33,3.52,3.52,0,0,1,1.79.44,3.07,3.07,0,0,1,1.14,1.23,3.92,3.92,0,0,1,.39,1.78,3.8,3.8,0,0,1-.22,1.22,6.18,6.18,0,0,1-.57,1.29,6.77,6.77,0,0,1-.79,1.14c-.18.23-.44.51-.78.86l-1.08,1.09-1.09,1.08-.84.84a2.3,2.3,0,0,0-.32.37c0,.06.1.1.29.13s.53,0,.84.06l1,0,1.11,0c.37,0,.73,0,1.07-.06a5.32,5.32,0,0,0,.9-.13,1.23,1.23,0,0,0,.57-.31,2.46,2.46,0,0,0,.46-.64c.06-.09.14-.18.23-.29a.43.43,0,0,1,.31-.17.17.17,0,0,1,.17.11.27.27,0,0,1,0,.2,6.64,6.64,0,0,1-.21.67l-.29.88c-.09.31-.17.61-.23.88a.49.49,0,0,1-.19.39A.57.57,0,0,1,215.27,127.94Z"/><path d="M231.53,120.68a16.39,16.39,0,0,1-.26,3,7,7,0,0,1-.86,2.35,4.31,4.31,0,0,1-1.58,1.51,4.91,4.91,0,0,1-2.41.54,4.86,4.86,0,0,1-2.27-.48,3.7,3.7,0,0,1-1.49-1.42,6.56,6.56,0,0,1-.81-2.3,18.44,18.44,0,0,1-.24-3.15,15.49,15.49,0,0,1,.27-3,7.23,7.23,0,0,1,.86-2.35,4.19,4.19,0,0,1,1.58-1.52,4.88,4.88,0,0,1,2.39-.54,4.94,4.94,0,0,1,2.29.48,3.76,3.76,0,0,1,1.49,1.42,6.61,6.61,0,0,1,.8,2.31A18.32,18.32,0,0,1,231.53,120.68Zm-1.95.13c0-.72,0-1.36-.08-1.93a11,11,0,0,0-.22-1.5,5,5,0,0,0-.39-1.13,2.71,2.71,0,0,0-.57-.77,2.1,2.1,0,0,0-.76-.45,3.22,3.22,0,0,0-1-.14,2.44,2.44,0,0,0-1.53.45,2.89,2.89,0,0,0-.92,1.22,6.15,6.15,0,0,0-.46,1.81,17.55,17.55,0,0,0-.13,2.24,19.12,19.12,0,0,0,.17,2.73,6.11,6.11,0,0,0,.53,1.84,2.39,2.39,0,0,0,.92,1,2.7,2.7,0,0,0,1.35.32,2.79,2.79,0,0,0,1.09-.2,2.13,2.13,0,0,0,.81-.57,3,3,0,0,0,.56-.89,6.31,6.31,0,0,0,.36-1.16,9.14,9.14,0,0,0,.18-1.36C229.56,121.85,229.58,121.34,229.58,120.81Z"/><path d="M237.69,124.14a4.22,4.22,0,0,1,2.93-4l0-.07a3.66,3.66,0,0,1-2.34-3.31c0-2.34,2-3.93,4.56-3.93,2.86,0,4.29,1.79,4.29,3.63a3.74,3.74,0,0,1-2.43,3.45V120c1.84.72,3,2,3,3.81,0,2.57-2.2,4.29-5,4.29C239.56,128.13,237.69,126.29,237.69,124.14Zm7.95-.1c0-1.79-1.25-2.65-3.25-3.22a3.21,3.21,0,0,0-2.65,3,2.73,2.73,0,0,0,2.95,2.82A2.67,2.67,0,0,0,245.64,124Zm-5.49-7.37c0,1.48,1.11,2.27,2.81,2.72a2.9,2.9,0,0,0,2.25-2.67,2.3,2.3,0,0,0-2.5-2.41A2.34,2.34,0,0,0,240.15,116.67Z"/><path d="M263.36,110.75h.77c0,.22,0,.52,0,.88s-.05.74-.09,1.11-.1.74-.16,1.08a5.82,5.82,0,0,1-.18.78h-6.22l-.41,3.25h1.88a7.1,7.1,0,0,1,2.23.33,4.93,4.93,0,0,1,1.7.95,4.28,4.28,0,0,1,1.09,1.52,5.11,5.11,0,0,1,.39,2.06,5.29,5.29,0,0,1-.49,2.3,5.06,5.06,0,0,1-1.33,1.7,6.14,6.14,0,0,1-2,1.07,7.81,7.81,0,0,1-2.45.37,6.95,6.95,0,0,1-4.16-1.36l1-2.25h.65c.11.11.23.25.37.41s.28.34.43.52l.43.55.36.48a2.83,2.83,0,0,0,.42.13,2.3,2.3,0,0,0,.51.05,3.3,3.3,0,0,0,1.27-.24,2.84,2.84,0,0,0,1-.67,3.16,3.16,0,0,0,.67-1,3.39,3.39,0,0,0,.25-1.33,3.13,3.13,0,0,0-.3-1.4,2.74,2.74,0,0,0-.83-1,3.68,3.68,0,0,0-1.23-.58,5.49,5.49,0,0,0-1.47-.2l-2,0,.91-8.28h5.92Z"/></svg>