<svg id="Слой_1" data-name="Слой 1" xmlns="http://www.w3.org/2000/svg" viewBox="0 0 400 400"><defs><style>.cls-1,.cls-2{fill:#fff;stroke:#000;stroke-width:3px;}.cls-1{stroke-miterlimit:10;}.cls-2{stroke-linecap:round;stroke-linejoin:round;}.cls-3{fill:#b8ad99;}</style></defs><title>g68</title><path class="cls-1" d="M349.24,381.45H45.29s-53.73-242.1,0-294.09,256.19-57.19,304,0S349.24,381.45,349.24,381.45Z"/><path class="cls-1" d="M293.24,286.59c9.61-6.21,11.16-26.18,4.43-31-3.25-2.34-6.07.56-10.52-1.66-7.39-3.69-11.4-17.58-6.65-25.49,4.27-7.1,12.06-3.46,22.71-11.63.7-.53,15.53-12.17,13.3-23.27-1.93-9.62-14.61-8.58-21.61-23.27-2.93-6.15-2.82-10.76-6.09-11.63-3.94-1-10.14,4-11.63,10-2.06,8.18,6.44,11.6,6.64,20.5.28,11.86-14.47,21.19-28.25,29.91-12.25,7.76-18.9,12-27.7,11.08-11.73-1.17-13.43-10-27.15-17.17-15.87-8.31-32.07-6.16-49.3-3.88-18.16,2.41-32.36,4.29-44.87,15.51-18.91,17-20.4,43-20.5,45.43-.82,18.95,7.63,27.5,1.11,37.67-7,10.95-23.27,11.18-22.72,15,.4,2.71,8.91,3.94,15,3.33,2.18-.22,11.87-1.47,17.17-8.87,1.3-1.81.88-2,3.88-8.86,3.42-7.86,4.29-8.42,6.1-12.74,5.15-12.35,2.39-18.28,6.64-20.5,3.73-1.95,9,.94,11.64,3.32,6.4,5.82,6.14,17,1.66,21.05-3.08,2.76-7.25,1.31-8.86,4.44-1.51,2.91.8,6.71,1.1,7.2,2.54,4,8,6,12.75,5.54,8.09-.84,9.93-8.52,16.06-8.31,4.25.14,6.75,3.95,10.53,8.31,5,5.7,17.45,20.11,29.91,21.6s17.33-10.87,29.92-8.86c8.78,1.4,11.27,12.93,16.62,11.63,3.6-.87,3.17-5.69,8.31-8.31,3.73-1.9,7.53-1.17,13.29,0,11.85,2.42,12.58,6.2,18.29,5.54,7.16-.82,12.72-7.56,14.95-13.29,1-2.48,3.25-8.33.56-12.74-3.34-5.49-11-3.28-13.3-8.31-1.7-3.72.69-8.84,3.33-11.64C284.15,287.67,288.41,289.71,293.24,286.59Z"/><line class="cls-2" x1="163.92" y1="286.29" x2="173.2" y2="276.23"/><rect class="cls-2" x="249.12" y="259.47" width="25.75" height="25.75" transform="translate(-115.84 265.03) rotate(-45)"/><path class="cls-1" d="M141,300.74c-1.52-16.43,15.43-31.41,37.89-33.49"/><path class="cls-2" d="M179,304.41c11,7.12,15.64,6.57,17.91,5.08,6.38-4.22-1.22-19.41,6.86-26.86,4.6-4.25,13-4.21,17.31-.6,7.4,6.24-1.84,21.88,5.08,27.75,2.59,2.21,7.7,3.09,18.5-1.49"/><line class="cls-2" x1="211.78" y1="279.34" x2="211.78" y2="311.58"/><path d="M161.66,109.51a2,2,0,0,1-.55-.06c-.14,0-.21-.12-.21-.22a.31.31,0,0,1,.21-.29,2.9,2.9,0,0,1,.65-.19,3.09,3.09,0,0,0,1.53-.64,1.78,1.78,0,0,0,.52-1.4V96.54c0-.81,0-1.42-.05-1.85a3.08,3.08,0,0,0-.17-.9c-.08-.18-.19-.28-.33-.29a3.25,3.25,0,0,0-.77-.09l-1.09,0h-1.23a3.24,3.24,0,0,0-1.25.25,1.72,1.72,0,0,0-.9.77,4.28,4.28,0,0,1-.27.38,2.78,2.78,0,0,1-.39.44.65.65,0,0,1-.42.18.13.13,0,0,1-.14-.1.61.61,0,0,1,0-.24,1.15,1.15,0,0,1,.13-.53,9.87,9.87,0,0,0,.54-1.34,10.43,10.43,0,0,0,.27-1.41c0-.29.1-.47.2-.52a.56.56,0,0,1,.25-.08c.07,0,.18.1.32.31a4.15,4.15,0,0,1,.33.53,1.15,1.15,0,0,0,.72.39,4.82,4.82,0,0,0,1.12.13h9.23a8.7,8.7,0,0,0,1.49-.1,4.76,4.76,0,0,0,1-.29,2.37,2.37,0,0,0,.51-.34.72.72,0,0,1,.51-.18c.05,0,.09.06.13.19a1.84,1.84,0,0,1,.05.41,2,2,0,0,1,0,.37c0,.15-.05.27-.06.36a5.37,5.37,0,0,1-.15.68c0,.14-.07.27-.09.37a3,3,0,0,0,0,.5v.31a1.64,1.64,0,0,1-.1.54c-.07.2-.17.3-.31.3s-.22-.09-.29-.29a5.89,5.89,0,0,1-.21-.78,1.3,1.3,0,0,0-.63-.88,3.54,3.54,0,0,0-1.78-.33h-2.65a1.79,1.79,0,0,0-.87.16c-.19.1-.31.37-.36.79a16.94,16.94,0,0,0-.08,2.07v10.3a1.7,1.7,0,0,0,.55,1.4,3.18,3.18,0,0,0,1.52.64,2.9,2.9,0,0,1,.65.19.31.31,0,0,1,.21.29c0,.1-.07.17-.21.22a2,2,0,0,1-.55.06c-.47,0-.86,0-1.16,0l-.88-.06q-.42,0-1,0t-1.14,0l-1,.06C162.54,109.5,162.13,109.51,161.66,109.51Z"/><path d="M189,90.46a9.49,9.49,0,0,1,4.69,1.12,7.71,7.71,0,0,1,3.13,3.24A10.8,10.8,0,0,1,198,100a11,11,0,0,1-1.14,5.13,8.46,8.46,0,0,1-3.18,3.44,8.78,8.78,0,0,1-4.65,1.23,9.46,9.46,0,0,1-4.69-1.13,7.67,7.67,0,0,1-3.13-3.25,10.77,10.77,0,0,1-1.12-5.11,10.92,10.92,0,0,1,1.16-5.14,8.48,8.48,0,0,1,3.17-3.43A8.72,8.72,0,0,1,189,90.46Zm-.11.47a3.59,3.59,0,0,0-2.68,1.18,7.86,7.86,0,0,0-1.77,3.25,16.52,16.52,0,0,0-.63,4.8,14.91,14.91,0,0,0,.7,4.83,7.6,7.6,0,0,0,1.92,3.17,3.8,3.8,0,0,0,2.65,1.12,3.63,3.63,0,0,0,2.68-1.18,8,8,0,0,0,1.77-3.27,16.48,16.48,0,0,0,.63-4.78,14.63,14.63,0,0,0-.71-4.85,7.66,7.66,0,0,0-1.9-3.16A3.8,3.8,0,0,0,188.92,90.93Z"/><path d="M219.85,109a.31.31,0,0,1-.06.19.34.34,0,0,1-.2.14,1.92,1.92,0,0,1-.37.08,3,3,0,0,1-.56,0,3.2,3.2,0,0,1-.59,0,2,2,0,0,1-.36-.08.34.34,0,0,1-.2-.14.3.3,0,0,1,0-.19v-8h-8.24v8a.3.3,0,0,1-.05.19.34.34,0,0,1-.2.14,1.92,1.92,0,0,1-.37.08,4.15,4.15,0,0,1-1.15,0,2,2,0,0,1-.38-.08.32.32,0,0,1-.19-.14.31.31,0,0,1-.06-.19V91.66a.36.36,0,0,1,.06-.2.42.42,0,0,1,.19-.13,2,2,0,0,1,.38-.08,4.48,4.48,0,0,1,.57,0,4.39,4.39,0,0,1,.58,0,1.92,1.92,0,0,1,.37.08.46.46,0,0,1,.2.13.35.35,0,0,1,.05.2V98.9h8.24V91.66a.35.35,0,0,1,0-.2.46.46,0,0,1,.2-.13,2,2,0,0,1,.36-.08,4.42,4.42,0,0,1,.59,0,4.18,4.18,0,0,1,.56,0,1.92,1.92,0,0,1,.37.08.46.46,0,0,1,.2.13.36.36,0,0,1,.06.2Z"/><path d="M229.35,109.38l6.1-8.64c-3-.78-4.84-2.75-4.84-5.87,0-4.81,3.55-6.24,8.59-6.24h5.26v20.75h-1.92V101.2h-5.09l-5.73,8.18Zm13.19-10v-9H239c-3.63,0-6.44.83-6.44,4.5,0,3.43,3,4.52,6.36,4.52Z"/><polygon class="cls-3" points="158.81 287.93 161.32 284.71 161.17 288.79 165.16 287.93 162.42 290.96 166.03 292.87 161.99 293.43 163.52 297.21 160.07 295.04 158.81 298.92 157.56 295.04 154.11 297.21 155.64 293.43 151.6 292.87 155.21 290.96 152.47 287.93 156.46 288.79 156.31 284.71 158.81 287.93"/><polygon points="173.72 279.82 173.03 279.83 173.02 276.43 169.63 276.69 169.58 276 173.71 275.69 173.72 279.82"/><polygon class="cls-3" points="255.4 269.38 257.56 266.59 257.43 270.12 260.88 269.38 258.51 271.99 261.63 273.64 258.14 274.12 259.46 277.38 256.48 275.51 255.4 278.86 254.32 275.51 251.33 277.38 252.66 274.12 249.17 273.64 252.28 271.99 249.92 269.38 253.37 270.12 253.24 266.59 255.4 269.38"/><polygon class="cls-3" points="269.15 269.38 271.31 266.59 271.18 270.12 274.63 269.38 272.26 271.99 275.38 273.64 271.89 274.12 273.21 277.38 270.23 275.51 269.15 278.86 268.06 275.51 265.08 277.38 266.41 274.12 262.92 273.64 266.03 271.99 263.67 269.38 267.11 270.12 266.98 266.59 269.15 269.38"/><polygon class="cls-3" points="133.83 237.88 136.68 234.22 136.51 238.86 141.05 237.88 137.94 241.33 142.04 243.5 137.44 244.13 139.19 248.44 135.26 245.97 133.83 250.39 132.41 245.97 128.47 248.44 130.22 244.13 125.62 243.5 129.73 241.33 126.61 237.88 131.15 238.86 130.98 234.22 133.83 237.88"/><path d="M131.46,134.74l-.63,0-1.08,0-1.28-.05-1.2,0-1.38,0-1.73,0-1.52,0h-.83a.71.71,0,0,1-.3-.16c-.15-.1-.22-.2-.22-.29a.32.32,0,0,1,.08-.23l.18-.19,4.25-4.5a12.68,12.68,0,0,0,2.14-3,7.62,7.62,0,0,0,.8-3.4,2.86,2.86,0,0,0-.74-2.06,2.4,2.4,0,0,0-1.83-.77,3.4,3.4,0,0,0-1.9.56,4.66,4.66,0,0,0-1.43,1.4,1.42,1.42,0,0,1-.26.29.53.53,0,0,1-.35.13c-.08,0-.17-.07-.24-.21a1,1,0,0,1-.12-.52,1.88,1.88,0,0,1,.39-.93,6,6,0,0,1,1.1-1.2,6.6,6.6,0,0,1,1.68-1,5.22,5.22,0,0,1,2.1-.42,4.27,4.27,0,0,1,2.25.57,3.69,3.69,0,0,1,1.44,1.54,4.92,4.92,0,0,1,.5,2.24,5.06,5.06,0,0,1-.27,1.55,9.46,9.46,0,0,1-.73,1.63,9.17,9.17,0,0,1-1,1.44c-.23.28-.56.64-1,1.07L127,129.56l-1.37,1.36L124.55,132a2,2,0,0,0-.4.48q0,.1.36.15c.32,0,.67.06,1.07.08s.81,0,1.27,0,.94,0,1.4,0,.91,0,1.35-.08a6.61,6.61,0,0,0,1.13-.15,1.6,1.6,0,0,0,.72-.4,3.26,3.26,0,0,0,.59-.81,2.55,2.55,0,0,1,.29-.37.51.51,0,0,1,.39-.21.21.21,0,0,1,.21.13.63.63,0,0,1,0,.27c-.06.21-.14.49-.27.83s-.24.73-.36,1.12a9.15,9.15,0,0,0-.29,1.11.66.66,0,0,1-.25.49A.67.67,0,0,1,131.46,134.74Z"/><path d="M152,125.57a20.14,20.14,0,0,1-.33,3.8,8.64,8.64,0,0,1-1.09,3,5.46,5.46,0,0,1-2,1.92,6.24,6.24,0,0,1-3,.67,6.12,6.12,0,0,1-2.87-.61,4.72,4.72,0,0,1-1.88-1.78,8.52,8.52,0,0,1-1-2.91,23.31,23.31,0,0,1-.3-4,20.3,20.3,0,0,1,.33-3.8,9.07,9.07,0,0,1,1.09-3,5.38,5.38,0,0,1,2-1.92,6.19,6.19,0,0,1,3-.67,6.26,6.26,0,0,1,2.88.6,4.75,4.75,0,0,1,1.88,1.79,8.52,8.52,0,0,1,1,2.91A23.31,23.31,0,0,1,152,125.57Zm-2.46.17c0-.9,0-1.71-.1-2.43a14.45,14.45,0,0,0-.29-1.9,6,6,0,0,0-.49-1.42,3.37,3.37,0,0,0-.72-1,2.63,2.63,0,0,0-.95-.56,3.85,3.85,0,0,0-1.21-.17,3.05,3.05,0,0,0-1.93.56,3.73,3.73,0,0,0-1.17,1.53,8.23,8.23,0,0,0-.58,2.3,24.76,24.76,0,0,0-.15,2.82,23.88,23.88,0,0,0,.21,3.44,7.75,7.75,0,0,0,.66,2.32,3,3,0,0,0,1.16,1.3,3.38,3.38,0,0,0,1.71.4,3.5,3.5,0,0,0,1.38-.25,2.86,2.86,0,0,0,1-.72,4.2,4.2,0,0,0,.71-1.12,8.34,8.34,0,0,0,.44-1.46,12.35,12.35,0,0,0,.23-1.72C149.5,127.06,149.52,126.41,149.52,125.74Z"/><path d="M172.21,125.57a20.14,20.14,0,0,1-.33,3.8,8.64,8.64,0,0,1-1.09,3,5.46,5.46,0,0,1-2,1.92,6.23,6.23,0,0,1-3,.67,6.13,6.13,0,0,1-2.88-.61,4.79,4.79,0,0,1-1.88-1.78,8.52,8.52,0,0,1-1-2.91,23.31,23.31,0,0,1-.3-4,19.45,19.45,0,0,1,.34-3.8,8.64,8.64,0,0,1,1.09-3,5.28,5.28,0,0,1,2-1.92,7.18,7.18,0,0,1,5.9-.07,4.75,4.75,0,0,1,1.88,1.79,8.31,8.31,0,0,1,1,2.91A23.31,23.31,0,0,1,172.21,125.57Zm-2.46.17c0-.9,0-1.71-.1-2.43a13,13,0,0,0-.29-1.9,6.05,6.05,0,0,0-.48-1.42,3.77,3.77,0,0,0-.72-1,2.58,2.58,0,0,0-1-.56,3.81,3.81,0,0,0-1.21-.17,3.07,3.07,0,0,0-1.93.56,3.82,3.82,0,0,0-1.17,1.53,8.59,8.59,0,0,0-.58,2.3,24.76,24.76,0,0,0-.15,2.82,23.88,23.88,0,0,0,.21,3.44,7.75,7.75,0,0,0,.66,2.32,3.1,3.1,0,0,0,1.16,1.3,3.89,3.89,0,0,0,3.09.15,2.86,2.86,0,0,0,1-.72,4,4,0,0,0,.71-1.12,9.28,9.28,0,0,0,.45-1.46,14.05,14.05,0,0,0,.23-1.72C169.73,127.06,169.75,126.41,169.75,125.74Z"/><path d="M191.84,133.62a2,2,0,0,1,0,.45,1.31,1.31,0,0,1-.09.33.46.46,0,0,1-.17.19.39.39,0,0,1-.23.07h-10a1.16,1.16,0,0,1-.34,0,.6.6,0,0,1-.25-.16.68.68,0,0,1-.15-.32,2,2,0,0,1,0-.52c0-.19,0-.35,0-.49a1.06,1.06,0,0,1,.09-.37,2.58,2.58,0,0,1,.18-.32,3.84,3.84,0,0,1,.28-.34l3.62-3.72a25.2,25.2,0,0,0,2-2.31,12.12,12.12,0,0,0,1.16-1.86,5.59,5.59,0,0,0,.54-1.52,6.71,6.71,0,0,0,.13-1.29,3.11,3.11,0,0,0-.2-1.14,2.65,2.65,0,0,0-1.54-1.58,3.47,3.47,0,0,0-1.33-.24,4.9,4.9,0,0,0-1.58.24,8.28,8.28,0,0,0-1.22.52,8,8,0,0,0-.88.51,1.13,1.13,0,0,1-.53.24.28.28,0,0,1-.18-.06.38.38,0,0,1-.13-.18,1.59,1.59,0,0,1-.08-.33,3.68,3.68,0,0,1,0-.51,3.53,3.53,0,0,1,0-.36.92.92,0,0,1,0-.26A.67.67,0,0,1,181,118a.9.9,0,0,1,.22-.25,4.82,4.82,0,0,1,.58-.4,6.66,6.66,0,0,1,1-.49,10,10,0,0,1,1.37-.42,7.36,7.36,0,0,1,1.58-.16,6.49,6.49,0,0,1,2.3.37,4.47,4.47,0,0,1,1.63,1,4.13,4.13,0,0,1,1,1.5A4.93,4.93,0,0,1,191,121a10,10,0,0,1-.15,1.73,7,7,0,0,1-.65,1.86,14.72,14.72,0,0,1-1.43,2.22,34.85,34.85,0,0,1-2.49,2.82l-2.87,3h7.87a.43.43,0,0,1,.22.06.47.47,0,0,1,.18.19.87.87,0,0,1,.11.31A2,2,0,0,1,191.84,133.62Z"/><path d="M200.08,130.2a.14.14,0,0,1-.16-.16,3.67,3.67,0,0,1,.12-.91c.07-.32.17-.48.3-.5l2.51-.36q1.26-.17,2.52-.3a.33.33,0,0,1,.14,0,.13.13,0,0,1,.07.12,3.48,3.48,0,0,1-.12.93c-.08.29-.22.45-.43.48q-1.18.19-2.4.36T200.08,130.2Z"/><path d="M222.86,134.74l-.63,0-1.09,0-1.27-.05-1.21,0-1.37,0-1.74,0-1.52,0h-.82a.66.66,0,0,1-.3-.16c-.15-.1-.23-.2-.23-.29a.32.32,0,0,1,.08-.23l.19-.19,4.24-4.5a12.4,12.4,0,0,0,2.14-3,7.62,7.62,0,0,0,.8-3.4,2.89,2.89,0,0,0-.73-2.06,2.42,2.42,0,0,0-1.84-.77,3.43,3.43,0,0,0-1.9.56,4.78,4.78,0,0,0-1.43,1.4,1.42,1.42,0,0,1-.26.29.52.52,0,0,1-.34.13c-.09,0-.17-.07-.25-.21a1,1,0,0,1-.12-.52,1.88,1.88,0,0,1,.39-.93,6.28,6.28,0,0,1,1.1-1.2,7,7,0,0,1,1.68-1,5.25,5.25,0,0,1,2.1-.42,4.25,4.25,0,0,1,2.25.57,3.78,3.78,0,0,1,1.45,1.54,4.92,4.92,0,0,1,.49,2.24,5.06,5.06,0,0,1-.27,1.55,8.71,8.71,0,0,1-.72,1.63,10,10,0,0,1-1,1.44c-.23.28-.55.64-1,1.07l-1.36,1.38L217,130.92,216,132a2.22,2.22,0,0,0-.41.48c0,.07.12.12.37.15s.67.06,1.06.08.82,0,1.27,0,.94,0,1.4,0,.92,0,1.35-.08a6.47,6.47,0,0,0,1.13-.15,1.6,1.6,0,0,0,.72-.4,3.26,3.26,0,0,0,.59-.81,3.51,3.51,0,0,1,.29-.37.51.51,0,0,1,.39-.21.2.2,0,0,1,.21.13.42.42,0,0,1,0,.27c0,.21-.14.49-.26.83s-.25.73-.37,1.12a11.46,11.46,0,0,0-.29,1.11.63.63,0,0,1-.25.49A.67.67,0,0,1,222.86,134.74Z"/><path d="M243.37,125.57a20.14,20.14,0,0,1-.33,3.8,8.64,8.64,0,0,1-1.09,3,5.46,5.46,0,0,1-2,1.92,6.23,6.23,0,0,1-3,.67,6.13,6.13,0,0,1-2.88-.61,4.79,4.79,0,0,1-1.88-1.78,8.52,8.52,0,0,1-1-2.91,23.31,23.31,0,0,1-.3-4,19.45,19.45,0,0,1,.34-3.8,8.64,8.64,0,0,1,1.09-3,5.28,5.28,0,0,1,2-1.92,6.21,6.21,0,0,1,3-.67,6.28,6.28,0,0,1,2.89.6,4.89,4.89,0,0,1,1.88,1.79,8.52,8.52,0,0,1,1,2.91A23.31,23.31,0,0,1,243.37,125.57Zm-2.46.17c0-.9,0-1.71-.1-2.43a14.57,14.57,0,0,0-.28-1.9A6.53,6.53,0,0,0,240,120a3.37,3.37,0,0,0-.72-1,2.58,2.58,0,0,0-1-.56,3.81,3.81,0,0,0-1.21-.17,3.07,3.07,0,0,0-1.93.56,3.82,3.82,0,0,0-1.17,1.53,8.59,8.59,0,0,0-.58,2.3,24.76,24.76,0,0,0-.15,2.82,23.88,23.88,0,0,0,.21,3.44,7.75,7.75,0,0,0,.66,2.32,3.1,3.1,0,0,0,1.16,1.3,3.89,3.89,0,0,0,3.09.15,2.86,2.86,0,0,0,1-.72,4,4,0,0,0,.71-1.12,8.34,8.34,0,0,0,.45-1.46,14.05,14.05,0,0,0,.23-1.72C240.89,127.06,240.91,126.41,240.91,125.74Z"/><path d="M261.36,134.74l-.63,0-1.09,0-1.27-.05-1.21,0-1.37,0-1.73,0-1.52,0h-.83a.71.71,0,0,1-.3-.16c-.15-.1-.22-.2-.22-.29a.28.28,0,0,1,.08-.23l.18-.19,4.25-4.5a12.36,12.36,0,0,0,2.13-3,7.49,7.49,0,0,0,.8-3.4,2.85,2.85,0,0,0-.73-2.06,2.41,2.41,0,0,0-1.84-.77,3.43,3.43,0,0,0-1.9.56,4.9,4.9,0,0,0-1.43,1.4,1.18,1.18,0,0,1-.26.29.5.5,0,0,1-.34.13c-.09,0-.17-.07-.25-.21a1,1,0,0,1-.12-.52,1.82,1.82,0,0,1,.4-.93,6,6,0,0,1,1.1-1.2,6.6,6.6,0,0,1,1.68-1,5.17,5.17,0,0,1,2.09-.42,4.29,4.29,0,0,1,2.26.57,3.69,3.69,0,0,1,1.44,1.54,4.92,4.92,0,0,1,.5,2.24A4.81,4.81,0,0,1,261,124a8.71,8.71,0,0,1-.72,1.63,10.76,10.76,0,0,1-1,1.44c-.23.28-.56.64-1,1.07l-1.36,1.38-1.38,1.36L254.45,132a2.22,2.22,0,0,0-.41.48c0,.07.13.12.37.15s.67.06,1.06.08.82,0,1.27,0,.94,0,1.41,0,.91,0,1.35-.08a6.48,6.48,0,0,0,1.12-.15,1.69,1.69,0,0,0,.73-.4,3.54,3.54,0,0,0,.59-.81,2.4,2.4,0,0,1,.28-.37.55.55,0,0,1,.4-.21.22.22,0,0,1,.21.13.5.5,0,0,1,0,.27c-.05.21-.14.49-.26.83s-.24.73-.37,1.12a9,9,0,0,0-.28,1.11.66.66,0,0,1-.25.49A.7.7,0,0,1,261.36,134.74Z"/><path d="M280.27,117.83a9.25,9.25,0,0,0-1.89.11,7.57,7.57,0,0,0-6.47,6.61H272a5.57,5.57,0,0,1,4.5-2.14c3.29,0,5.61,2.37,5.61,6,0,3.4-2.32,6.55-6.18,6.55s-6.59-3.09-6.59-7.93a11.69,11.69,0,0,1,3.15-8.38,10.1,10.1,0,0,1,5.95-2.75,11.67,11.67,0,0,1,1.84-.15Zm-.72,10.73c0-2.66-1.52-4.27-3.84-4.27a4.15,4.15,0,0,0-3.6,2.29,2.18,2.18,0,0,0-.29,1.12c.06,3.06,1.46,5.33,4.1,5.33C278.09,133,279.55,131.22,279.55,128.56Z"/></svg>