<svg id="Слой_1" data-name="Слой 1" xmlns="http://www.w3.org/2000/svg" viewBox="0 0 400 400"><defs><style>.cls-1{fill:#fff;stroke:#000;stroke-miterlimit:10;stroke-width:3px;}.cls-2{fill:#b8ad99;}.cls-3{fill:#c1362d;}</style></defs><title>g69</title><path class="cls-1" d="M349,381.45H53.8s-52.18-242.1,0-294.09,248.84-57.19,295.23,0S349,381.45,349,381.45Z"/><path class="cls-1" d="M307,297.21c9.6-6.21,11.16-26.18,4.43-31-3.25-2.35-6.08.55-10.53-1.67-7.38-3.68-11.4-17.57-6.64-25.48,4.27-7.11,12.06-3.46,22.71-11.63.7-.54,15.52-12.17,13.3-23.27-1.93-9.62-14.61-8.58-21.61-23.27-2.93-6.15-2.82-10.77-6.09-11.63-3.94-1.05-10.14,4-11.64,10-2.06,8.18,6.45,11.59,6.65,20.5.27,11.86-14.47,21.19-28.25,29.91-12.25,7.75-18.9,12-27.7,11.08-11.74-1.17-13.44-10-27.15-17.17-15.87-8.31-32.08-6.16-49.3-3.88-18.16,2.41-32.36,4.29-44.88,15.51-18.9,17-20.39,43-20.5,45.43-.81,19,7.63,27.5,1.11,37.67-7,10.94-23.26,11.18-22.71,15,.39,2.7,8.9,3.93,15,3.32,2.18-.22,11.87-1.47,17.17-8.86,1.3-1.81.88-2,3.88-8.86,3.41-7.87,4.29-8.43,6.09-12.75,5.15-12.34,2.4-18.27,6.65-20.49,3.72-1.95,9,.93,11.63,3.32,6.41,5.82,6.15,17,1.67,21.05-3.08,2.76-7.25,1.3-8.87,4.43-1.51,2.92.81,6.72,1.11,7.2,2.53,4.05,8,6,12.74,5.54,8.1-.83,9.94-8.51,16.07-8.3,4.25.14,6.74,3.95,10.52,8.3,4.95,5.71,17.45,20.12,29.92,21.61s17.32-10.87,29.92-8.86c8.77,1.4,11.27,12.93,16.62,11.63,3.6-.88,3.16-5.69,8.31-8.31,3.73-1.9,7.53-1.18,13.29,0,11.85,2.42,12.58,6.2,18.28,5.54,7.16-.83,12.73-7.56,15-13.3,1-2.47,3.24-8.32.55-12.74-3.33-5.48-11-3.28-13.29-8.31-1.71-3.72.68-8.83,3.32-11.63C297.86,298.29,302.12,300.33,307,297.21Z"/><polygon class="cls-1" points="150.05 280.93 177.91 231.29 204.65 280.93 150.05 280.93"/><polygon class="cls-1" points="256.65 281.49 266.81 270.23 266.04 285.38 281.19 284.6 269.93 294.77 281.19 304.93 266.04 304.16 266.81 319.3 256.65 308.05 246.49 319.3 247.26 304.16 232.11 304.93 243.37 294.77 232.11 284.6 247.26 285.38 246.49 270.23 256.65 281.49"/><path d="M81.62,119.47c-.1-2-.23-4.49-.21-6.31h-.07c-.5,1.72-1.1,3.54-1.84,5.55l-2.58,7.09H75.49l-2.36-7c-.69-2.06-1.28-3.94-1.69-5.68h0c-.05,1.82-.15,4.27-.28,6.46l-.4,6.26H68.93l1-14.6h2.4l2.49,7.06c.61,1.8,1.11,3.4,1.48,4.92h.06c.37-1.47.89-3.08,1.54-4.92l2.6-7.06h2.4l.91,14.6H82Z"/><path d="M96.13,111.75,101,124.22a2.07,2.07,0,0,0,.65,1,1.43,1.43,0,0,0,.68.28v.39l-1.12,0H98.33c-.47,0-.86,0-1.15,0v-.39a1.93,1.93,0,0,0,1.28-.35c.18-.21.14-.65-.13-1.32l-3.57-9.65.32-.35-3.3,8.61a5,5,0,0,0-.45,1.85,1,1,0,0,0,.46.92,2.72,2.72,0,0,0,1.28.29v.39l-1.2,0h-2l-.67,0v-.39a2,2,0,0,0,.84-.5,3.7,3.7,0,0,0,.79-1.35l4.61-11.89h.67Zm2.08,8.42v.39H92.3l.2-.39Z"/><path d="M107.18,126a1.47,1.47,0,0,1-.41,0c-.11,0-.16-.09-.16-.17s.22-.27.65-.35a2.31,2.31,0,0,0,1.1-.46,1.37,1.37,0,0,0,.35-1v-8.38a3.24,3.24,0,0,0-.23-1.36,1.23,1.23,0,0,0-1-.62,1.46,1.46,0,0,1-.5-.16.27.27,0,0,1-.15-.24c0-.08.05-.13.15-.17a1.61,1.61,0,0,1,.42,0h1.31l.64,0,.8,0,.76-.06.64,0a6.4,6.4,0,0,1,3.64.93,3,3,0,0,1,1.38,2.6,5.16,5.16,0,0,1-.48,2.23,3.79,3.79,0,0,1-1.46,1.64,4.64,4.64,0,0,1-2.51.61,1.31,1.31,0,0,1-.66-.13c-.15-.08-.23-.17-.23-.24a.26.26,0,0,1,.11-.18.29.29,0,0,1,.21-.1,2.09,2.09,0,0,1,.31,0l.6,0a2,2,0,0,0,1.8-1,5.33,5.33,0,0,0,.6-2.74,2.85,2.85,0,0,0-.93-2.35,3.64,3.64,0,0,0-2.38-.77,1.86,1.86,0,0,0-.91.19.67.67,0,0,0-.36.64v9.47a2,2,0,0,0,.3,1.15,1.53,1.53,0,0,0,1,.58,1.63,1.63,0,0,1,.49.14.23.23,0,0,1,.16.21c0,.08,0,.14-.16.17a1.47,1.47,0,0,1-.41,0,6,6,0,0,1-.83,0l-.51-.07a5,5,0,0,0-.61,0c-.33,0-.62,0-.88,0l-.77.07A8.38,8.38,0,0,1,107.18,126Z"/><path d="M136.5,125.75c0,.09,0,.13,0,.13-.46,0-.83,0-1.09,0l-1.49,0-1.58,0c-.26,0-.61,0-1,0,0,0,0,0,0-.13s0-.13,0-.13a4.65,4.65,0,0,0,1.23-.11.75.75,0,0,0,.53-.42,2.37,2.37,0,0,0,.14-1v-8.95l-8.06,8.62v.33a2.34,2.34,0,0,0,.15,1,.75.75,0,0,0,.53.42,4.65,4.65,0,0,0,1.23.11s0,0,0,.13,0,.13,0,.13c-.45,0-.8,0-1.06,0l-1.56,0-1.5,0c-.26,0-.62,0-1.08,0,0,0,0,0,0-.13s0-.13,0-.13a4.75,4.75,0,0,0,1.23-.11.79.79,0,0,0,.54-.42,2.56,2.56,0,0,0,.14-1v-10a2.52,2.52,0,0,0-.14-1,.82.82,0,0,0-.53-.42,4.52,4.52,0,0,0-1.22-.12s0,0,0-.13,0-.13,0-.13l1.11,0c.6,0,1.09,0,1.45,0s.94,0,1.58,0l1,0s0,0,0,.13,0,.13,0,.13a4.08,4.08,0,0,0-1.22.13.83.83,0,0,0-.54.45,2.31,2.31,0,0,0-.15,1v8.93l8.06-8.58v-.35a2.34,2.34,0,0,0-.14-1,.84.84,0,0,0-.53-.45,4.11,4.11,0,0,0-1.23-.13s0,0,0-.13,0-.13,0-.13l1,0c.63,0,1.16,0,1.58,0s.86,0,1.49,0l1.09,0s0,0,0,.13,0,.13,0,.13a4.52,4.52,0,0,0-1.22.12.82.82,0,0,0-.53.42,2.52,2.52,0,0,0-.14,1v10a2.56,2.56,0,0,0,.14,1,.77.77,0,0,0,.53.42,4.61,4.61,0,0,0,1.22.11S136.5,125.67,136.5,125.75Z"/><path d="M142.29,125.88v-.39a3.88,3.88,0,0,0,1-.16.67.67,0,0,0,.43-.48,3.63,3.63,0,0,0,.11-1.07v-9.84a3.62,3.62,0,0,0-.11-1.08.69.69,0,0,0-.43-.48,2.91,2.91,0,0,0-1-.15v-.4l1.27,0c.51,0,1.07,0,1.66,0s1.05,0,1.57,0l1.27,0v.4a2.83,2.83,0,0,0-1,.15.74.74,0,0,0-.45.48,3.55,3.55,0,0,0-.12,1.08v9.84a3.56,3.56,0,0,0,.12,1.07.72.72,0,0,0,.45.48,3.78,3.78,0,0,0,1,.16v.39c-.33,0-.75,0-1.27,0h-3.23C143,125.84,142.62,125.86,142.29,125.88Zm3.15-6.86v-.4h7.84v.4Zm5.22,6.86v-.39a3.8,3.8,0,0,0,1-.16.69.69,0,0,0,.44-.48,4,4,0,0,0,.11-1.07v-9.84a4,4,0,0,0-.11-1.08.71.71,0,0,0-.44-.48,2.87,2.87,0,0,0-1-.15v-.4l1.33,0c.53,0,1.06,0,1.59,0s1.12,0,1.63,0,.92,0,1.22,0v.4a2.83,2.83,0,0,0-1,.15.71.71,0,0,0-.44.48,3.55,3.55,0,0,0-.12,1.08v9.84a3.56,3.56,0,0,0,.12,1.07.69.69,0,0,0,.44.48,3.78,3.78,0,0,0,1,.16v.39c-.3,0-.71,0-1.22,0H152Z"/><path d="M173.21,125.24a1.93,1.93,0,0,1,.09.37.29.29,0,0,1-.08.22.49.49,0,0,1-.28.09,3.7,3.7,0,0,1-.53,0l-.52,0a1.54,1.54,0,0,1-.3-.05.39.39,0,0,1-.14-.1.83.83,0,0,1-.09-.16l-1.18-3.33h-5.69l-1.12,3.29a.51.51,0,0,1-.09.16.38.38,0,0,1-.15.12.9.9,0,0,1-.28.06,3.28,3.28,0,0,1-.49,0,3.43,3.43,0,0,1-.5,0,.49.49,0,0,1-.27-.1.26.26,0,0,1-.08-.22,1.93,1.93,0,0,1,.09-.37l4.59-12.72a.68.68,0,0,1,.11-.19.53.53,0,0,1,.21-.12l.33,0a4.11,4.11,0,0,1,.53,0,4.62,4.62,0,0,1,.56,0,2.39,2.39,0,0,1,.36,0,.44.44,0,0,1,.21.13.52.52,0,0,1,.12.19ZM167.32,114h0L165,120.84h4.76Z"/><path d="M187.61,123.26h.54a1.89,1.89,0,0,0,1.1-.37,2.81,2.81,0,0,0,.85-1.28,14,14,0,0,0,.65-2.56c.19-1.09.36-2.5.52-4.22l.39-4.33H201v12.76h2.28v6.46h-2.79v-3.84h-10v3.84h-2.81Zm10.38,0V113.12h-3.62l-.22,2.34a32.51,32.51,0,0,1-.73,4.9,8.52,8.52,0,0,1-1.2,2.9Z"/><path d="M213.91,110.17h2.56l5.91,15.71H220l-1.24-3.4h-7.21l-1.22,3.4h-2.25Zm-1.69,10.43h5.85l-2.95-8.19Z"/><path d="M233.41,111.3a.1.1,0,0,1,.11.11V112a.1.1,0,0,1-.11.11l-1.73.18c-.07,0-.11,0-.11.1v9.69l7.19-8.78a.14.14,0,0,0,.05-.1v-.81c0-.07,0-.1-.12-.1l-1.73-.18a.1.1,0,0,1-.11-.11v-.56a.1.1,0,0,1,.11-.11h5.68a.1.1,0,0,1,.11.11V112a.1.1,0,0,1-.11.11l-1.84.18c-.07,0-.11,0-.11.1v12.47c0,.07,0,.1.11.1l1.84.17c.07,0,.11,0,.11.12v.56c0,.07,0,.1-.11.1H237c-.07,0-.11,0-.11-.1v-.56c0-.08,0-.12.11-.12l1.73-.17c.08,0,.12,0,.12-.1v-10l-7.19,8.77a.14.14,0,0,0-.05.11v1.09c0,.07,0,.1.11.1l1.73.17c.07,0,.11,0,.11.12v.56c0,.07,0,.1-.11.1h-5.68c-.07,0-.1,0-.1-.1v-.56c0-.08,0-.12.1-.12l1.84-.17c.07,0,.11,0,.11-.1V112.36c0-.07,0-.1-.11-.1l-1.84-.18c-.07,0-.1,0-.1-.11v-.56c0-.07,0-.11.1-.11Zm1.78-2,.71,0a2.73,2.73,0,0,0,.56-.09.81.81,0,0,0,.35-.22.55.55,0,0,0,.13-.36,1.41,1.41,0,0,0-.06-.37,2.3,2.3,0,0,1,0-.45.7.7,0,0,1,.26-.56,1,1,0,0,1,.63-.2,1,1,0,0,1,.38.08,1.08,1.08,0,0,1,.32.24,1.11,1.11,0,0,1,.23.36,1.16,1.16,0,0,1,.09.47,1.4,1.4,0,0,1-.26.82,2.59,2.59,0,0,1-.73.65,3.48,3.48,0,0,1-1.11.43,7.08,7.08,0,0,1-2.9,0,3.44,3.44,0,0,1-1.12-.43,2.41,2.41,0,0,1-.72-.65,1.34,1.34,0,0,1-.26-.82,1.39,1.39,0,0,1,.08-.46,1.18,1.18,0,0,1,.24-.37,1.16,1.16,0,0,1,.34-.24,1,1,0,0,1,.4-.08,1,1,0,0,1,.6.2.67.67,0,0,1,.26.56,1.31,1.31,0,0,1-.07.44,1.08,1.08,0,0,0-.08.38.51.51,0,0,0,.14.36.93.93,0,0,0,.38.22,2.73,2.73,0,0,0,.56.09Z"/><path d="M261.84,119.47c-.11-2-.24-4.49-.22-6.31h-.07c-.49,1.72-1.1,3.54-1.84,5.55l-2.58,7.09h-1.42l-2.37-7c-.69-2.06-1.28-3.94-1.69-5.68h0c0,1.82-.15,4.27-.28,6.46l-.39,6.26h-1.8l1-14.6h2.4l2.49,7.06c.61,1.8,1.11,3.4,1.48,4.92h.06c.37-1.47.89-3.08,1.54-4.92l2.6-7.06h2.41l.91,14.6h-1.84Z"/><path d="M277.78,126a6.5,6.5,0,0,1-2.93-.66,7.47,7.47,0,0,1-2.29-1.75,7.79,7.79,0,0,1-1.47-2.51,8.19,8.19,0,0,1-.52-2.88,8,8,0,0,1,.55-3,8.36,8.36,0,0,1,1.53-2.49,7.46,7.46,0,0,1,2.29-1.72,6.7,6.7,0,0,1,5.8,0,7.27,7.27,0,0,1,2.27,1.79,8.3,8.3,0,0,1,2,5.35,8.13,8.13,0,0,1-2.07,5.43,7.16,7.16,0,0,1-2.29,1.71A6.41,6.41,0,0,1,277.78,126Zm-5.7-7.8a7.08,7.08,0,0,0,.42,2.42,6.45,6.45,0,0,0,1.17,2.06,5.92,5.92,0,0,0,1.79,1.43,5.11,5.11,0,0,0,2.32.53,4.87,4.87,0,0,0,2.36-.57,5.6,5.6,0,0,0,1.8-1.47,7.07,7.07,0,0,0,1.54-4.4,7,7,0,0,0-.42-2.41,6.58,6.58,0,0,0-1.18-2,5.9,5.9,0,0,0-1.8-1.42,5.3,5.3,0,0,0-4.66,0,5.7,5.7,0,0,0-1.8,1.46,6.77,6.77,0,0,0-1.13,2.06A7,7,0,0,0,272.08,118.19Z"/><path d="M291.08,126a.63.63,0,0,1-.29-.08.24.24,0,0,1-.14-.23c0-.23.15-.38.46-.45a2.27,2.27,0,0,0,1-.44,1.39,1.39,0,0,0,.27-1v-9.84a1.55,1.55,0,0,0-.25-1,2,2,0,0,0-1-.48q-.48-.1-.48-.45a.28.28,0,0,1,.14-.24.58.58,0,0,1,.3-.09l1,0,1,.06.94,0,1,0,1.13,0,1.05,0q.39,0,.39.33a.32.32,0,0,1-.12.28,1,1,0,0,1-.34.15A2.55,2.55,0,0,0,296,113a1.36,1.36,0,0,0-.29,1v3.9a.27.27,0,0,0,.1.23.41.41,0,0,0,.25.07h5.72c.19,0,.28-.1.28-.3V114a1.41,1.41,0,0,0-.27-1,2.49,2.49,0,0,0-1.14-.54,1,1,0,0,1-.35-.15.32.32,0,0,1-.12-.28c0-.22.13-.33.41-.33l1.06,0,1.15,0,1,0,.89,0,1-.06,1,0a.51.51,0,0,1,.3.09.27.27,0,0,1,.13.24q0,.35-.45.45a2,2,0,0,0-1,.49,1.48,1.48,0,0,0-.25,1v9.82a1.41,1.41,0,0,0,.27,1,2.23,2.23,0,0,0,1,.44q.45.11.45.45a.24.24,0,0,1-.13.23.54.54,0,0,1-.28.08l-1,0-1-.06-1,0-1,0-1.14.06-1.06,0a.41.41,0,0,1-.28-.09.28.28,0,0,1-.11-.24.32.32,0,0,1,.12-.29,1.3,1.3,0,0,1,.33-.14,2.65,2.65,0,0,0,1.13-.51,1.23,1.23,0,0,0,.3-.92v-4.05a.62.62,0,0,0,0-.27.22.22,0,0,0-.21-.1h-5.78c-.21,0-.31.12-.31.35v4a1.22,1.22,0,0,0,.33.92,2.74,2.74,0,0,0,1.15.53,1.3,1.3,0,0,1,.33.14.32.32,0,0,1,.12.29.3.3,0,0,1-.1.24.4.4,0,0,1-.29.09l-1.06,0-1.15-.06-1,0-1,0c-.35,0-.71,0-1.06.06Z"/><path d="M325.41,129.22a.25.25,0,0,1,0,.13.25.25,0,0,1-.13.09l-.23.05-.41,0-.36,0-.23-.05a.22.22,0,0,1-.13-.09.18.18,0,0,1,0-.13v-3.34h-10.3v3.34a.18.18,0,0,1,0,.13.22.22,0,0,1-.13.09l-.23.05-.37,0-.4,0-.23-.05a.22.22,0,0,1-.13-.09.18.18,0,0,1,0-.13v-4.35a.6.6,0,0,1,.09-.41.41.41,0,0,1,.32-.12h.8c.19-.26.38-.51.55-.78a5.86,5.86,0,0,0,.48-.94,10.24,10.24,0,0,0,.46-1.31c.15-.51.29-1.15.44-1.91s.29-1.66.44-2.71.3-2.3.46-3.75a1.28,1.28,0,0,1,.22-.56.52.52,0,0,1,.44-.19H323a.59.59,0,0,1,.46.19.8.8,0,0,1,.17.55v11.41H325a.36.36,0,0,1,.32.13.65.65,0,0,1,.1.41Zm-3.6-15.47h-4.06c-.15,1.3-.3,2.44-.44,3.42s-.29,1.82-.43,2.53-.27,1.33-.41,1.83a12.39,12.39,0,0,1-.43,1.27,6.16,6.16,0,0,1-.92,1.54h6.69Z"/><polygon class="cls-2" points="177.48 259.78 181.17 255.03 180.95 261.04 186.83 259.78 182.8 264.24 188.12 267.06 182.16 267.88 184.42 273.45 179.33 270.25 177.48 275.98 175.63 270.25 170.54 273.45 172.8 267.88 166.84 267.06 172.16 264.24 168.13 259.78 174.01 261.04 173.79 255.03 177.48 259.78"/><polygon class="cls-3" points="260.42 288.39 264.17 294.89 260.42 301.39 252.91 301.39 249.16 294.89 252.91 288.39 260.42 288.39"/><path d="M140.93,153.61V142.86h-3.09V141c2.06-.06,3.07-.2,3.75-1.77h2.08v14.39Z"/><path d="M150.46,154.22c-.11,0-.18,0-.22-.05a.14.14,0,0,1-.06-.11.18.18,0,0,1,.09-.15.41.41,0,0,1,.19,0,3.2,3.2,0,0,0,1.38-.38,8.32,8.32,0,0,0,1.58-1,9.58,9.58,0,0,0,1.44-1.48,9,9,0,0,0,1-1.63,6.94,6.94,0,0,0,.57-1.64,8.55,8.55,0,0,0,.18-1.79,4.7,4.7,0,0,0-.23-1.43,5.62,5.62,0,0,0-.61-1.31,3.29,3.29,0,0,0-.9-1,1.77,1.77,0,0,0-1-.36,1.68,1.68,0,0,0-1.07.35,2.2,2.2,0,0,0-.66.85,2.54,2.54,0,0,0,.07,2.17,2.78,2.78,0,0,0,.77.95,1.63,1.63,0,0,0,1,.36,1.82,1.82,0,0,0,.91-.17l.68-.34c.05,0,.09,0,.13.06a.16.16,0,0,1,0,.15,1.36,1.36,0,0,1-.3.39,3,3,0,0,1-.36.31,3.93,3.93,0,0,1-.44.26,4.38,4.38,0,0,1-.65.28,2.58,2.58,0,0,1-.73.11,3,3,0,0,1-2.38-1.22,2.12,2.12,0,0,1-.4-1.28,3.46,3.46,0,0,1,.3-1.37,4.33,4.33,0,0,1,2.14-2.22,3.76,3.76,0,0,1,1.65-.35,2.75,2.75,0,0,1,1.39.38,4.45,4.45,0,0,1,1.23,1A5,5,0,0,1,158,144a4.59,4.59,0,0,1,.32,1.67,7.45,7.45,0,0,1-.34,2.27,8.39,8.39,0,0,1-1,2,16.86,16.86,0,0,1-1.55,1.94,6.43,6.43,0,0,1-1.19,1,9.26,9.26,0,0,1-1.33.74,7.24,7.24,0,0,1-1.32.43A5.78,5.78,0,0,1,150.46,154.22Z"/><path d="M164,154.22c-.11,0-.18,0-.22-.05a.14.14,0,0,1-.06-.11.18.18,0,0,1,.09-.15.41.41,0,0,1,.19,0,3.13,3.13,0,0,0,1.38-.38,8.7,8.7,0,0,0,1.59-1,10.6,10.6,0,0,0,1.44-1.48,10.3,10.3,0,0,0,1-1.63,6.91,6.91,0,0,0,.56-1.64,8.55,8.55,0,0,0,.18-1.79,4.41,4.41,0,0,0-.23-1.43,5.24,5.24,0,0,0-.61-1.31,3.4,3.4,0,0,0-.89-1,1.8,1.8,0,0,0-1-.36,1.68,1.68,0,0,0-1.07.35,2.09,2.09,0,0,0-.65.85,2.45,2.45,0,0,0-.22,1,2.59,2.59,0,0,0,.29,1.17,2.65,2.65,0,0,0,.76.95,1.63,1.63,0,0,0,1,.36,1.86,1.86,0,0,0,.92-.17c.19-.11.42-.22.67-.34.05,0,.1,0,.13.06s0,.11,0,.15a1.36,1.36,0,0,1-.3.39,3,3,0,0,1-.36.31,3.61,3.61,0,0,1-.43.26,5,5,0,0,1-.66.28,2.53,2.53,0,0,1-.73.11,3,3,0,0,1-1.32-.32,2.87,2.87,0,0,1-1.05-.9,2.13,2.13,0,0,1-.41-1.28,3.46,3.46,0,0,1,.3-1.37,4.72,4.72,0,0,1,.84-1.28,4.38,4.38,0,0,1,1.3-.94,3.76,3.76,0,0,1,1.65-.35,2.81,2.81,0,0,1,1.4.38,4.75,4.75,0,0,1,1.23,1,5.21,5.21,0,0,1,.86,1.46,4.59,4.59,0,0,1,.32,1.67,7.16,7.16,0,0,1-.34,2.27,8,8,0,0,1-1,2,15.84,15.84,0,0,1-1.55,1.94,6.12,6.12,0,0,1-1.19,1,9.26,9.26,0,0,1-1.33.74,7.24,7.24,0,0,1-1.32.43A5.78,5.78,0,0,1,164,154.22Z"/><path d="M177.44,154.22a.3.3,0,0,1-.21-.05.14.14,0,0,1-.06-.11.19.19,0,0,1,.08-.15.45.45,0,0,1,.19,0,3.13,3.13,0,0,0,1.38-.38,8.07,8.07,0,0,0,1.59-1,9.58,9.58,0,0,0,1.44-1.48,10.3,10.3,0,0,0,1-1.63,6.94,6.94,0,0,0,.57-1.64,8.55,8.55,0,0,0,.18-1.79,4.7,4.7,0,0,0-.23-1.43,5.64,5.64,0,0,0-.62-1.31,3.26,3.26,0,0,0-.89-1,1.79,1.79,0,0,0-1-.36,1.66,1.66,0,0,0-1.07.35,2.11,2.11,0,0,0-.66.85,2.45,2.45,0,0,0-.22,1,2.59,2.59,0,0,0,.29,1.17,2.76,2.76,0,0,0,.76.95,1.64,1.64,0,0,0,1,.36,1.82,1.82,0,0,0,.91-.17l.67-.34c.06,0,.1,0,.13.06a.12.12,0,0,1,0,.15,1.17,1.17,0,0,1-.29.39l-.36.31a3.93,3.93,0,0,1-.44.26,5.53,5.53,0,0,1-.65.28,2.65,2.65,0,0,1-.74.11,3,3,0,0,1-1.32-.32,2.87,2.87,0,0,1-1.05-.9,2.13,2.13,0,0,1-.41-1.28,3.46,3.46,0,0,1,.3-1.37,4.72,4.72,0,0,1,.84-1.28,4.38,4.38,0,0,1,1.3-.94,3.82,3.82,0,0,1,1.65-.35,2.78,2.78,0,0,1,1.4.38,4.45,4.45,0,0,1,1.23,1A5.21,5.21,0,0,1,185,144a4.39,4.39,0,0,1,.32,1.67,7.16,7.16,0,0,1-.34,2.27,7.69,7.69,0,0,1-1,2,15.84,15.84,0,0,1-1.55,1.94,5.84,5.84,0,0,1-1.19,1,8.75,8.75,0,0,1-1.33.74,7.24,7.24,0,0,1-1.32.43A5.7,5.7,0,0,1,177.44,154.22Z"/><path d="M190.3,150.23a.11.11,0,0,1-.12-.12,2.84,2.84,0,0,1,.09-.69c.06-.24.14-.36.23-.38l1.91-.27c.63-.08,1.27-.16,1.9-.22a.2.2,0,0,1,.11,0,.11.11,0,0,1,.05.09,2.63,2.63,0,0,1-.09.7c-.06.22-.17.34-.33.37l-1.81.26C191.62,150.09,191,150.17,190.3,150.23Z"/><path d="M207.55,153.67h-.48l-.82,0-1,0c-.33,0-.63,0-.91,0s-.61,0-1,0l-1.31,0-1.15,0h-.63a.53.53,0,0,1-.22-.12c-.12-.08-.17-.15-.17-.22a.24.24,0,0,1,.06-.18,1.84,1.84,0,0,1,.14-.14l3.21-3.41a9.81,9.81,0,0,0,1.62-2.3,5.81,5.81,0,0,0,.6-2.58,2.17,2.17,0,0,0-.55-1.56,1.85,1.85,0,0,0-1.39-.59,2.64,2.64,0,0,0-1.44.43A3.64,3.64,0,0,0,201,144a1.37,1.37,0,0,1-.2.22.39.39,0,0,1-.26.1c-.06,0-.13-.05-.19-.16a.82.82,0,0,1-.09-.4,1.43,1.43,0,0,1,.3-.7,4.32,4.32,0,0,1,.84-.9,4.79,4.79,0,0,1,1.26-.78,4,4,0,0,1,1.59-.31,3.33,3.33,0,0,1,1.71.42,2.86,2.86,0,0,1,1.09,1.17,3.71,3.71,0,0,1,.17,2.87,6.72,6.72,0,0,1-.55,1.23,6.56,6.56,0,0,1-.75,1.09c-.17.21-.42.49-.74.82l-1,1-1,1c-.33.32-.6.59-.8.8a1.48,1.48,0,0,0-.31.36c0,.05.09.09.28.12s.5.05.8.06l1,0,1.07,0c.35,0,.69,0,1-.06a5.93,5.93,0,0,0,.85-.12,1.19,1.19,0,0,0,.55-.3A2.4,2.4,0,0,0,208,151l.22-.28a.38.38,0,0,1,.3-.16.15.15,0,0,1,.16.1.46.46,0,0,1,0,.2c0,.16-.11.37-.2.63s-.19.55-.28.85-.16.58-.22.84a.47.47,0,0,1-.43.46Z"/><path d="M223.08,146.73a15.92,15.92,0,0,1-.25,2.88,6.55,6.55,0,0,1-.83,2.23,4,4,0,0,1-1.51,1.45,4.59,4.59,0,0,1-2.29.52,4.78,4.78,0,0,1-2.18-.46A3.57,3.57,0,0,1,214.6,152a6.47,6.47,0,0,1-.77-2.2,17.85,17.85,0,0,1-.22-3,15,15,0,0,1,.25-2.87,6.53,6.53,0,0,1,.83-2.24,3.94,3.94,0,0,1,1.5-1.45,5.4,5.4,0,0,1,4.47,0,3.47,3.47,0,0,1,1.42,1.35,6.33,6.33,0,0,1,.77,2.2A17.77,17.77,0,0,1,223.08,146.73Zm-1.87.13c0-.69,0-1.3-.07-1.84a10,10,0,0,0-.22-1.44,4.54,4.54,0,0,0-.37-1.08,2.62,2.62,0,0,0-.54-.74,2,2,0,0,0-.73-.42,2.86,2.86,0,0,0-.91-.13,2.36,2.36,0,0,0-1.46.42,2.84,2.84,0,0,0-.89,1.16,6.51,6.51,0,0,0-.44,1.74,20.24,20.24,0,0,0-.11,2.14,17.45,17.45,0,0,0,.16,2.6,5.68,5.68,0,0,0,.5,1.76,2.29,2.29,0,0,0,.88,1,2.59,2.59,0,0,0,1.29.31,2.81,2.81,0,0,0,1-.19,2.22,2.22,0,0,0,.77-.55,3.14,3.14,0,0,0,.53-.85,5.67,5.67,0,0,0,.34-1.1,9.87,9.87,0,0,0,.18-1.31C221.2,147.85,221.21,147.36,221.21,146.86Z"/><path d="M238,137.25h.73c0,.21,0,.5,0,.84s0,.7-.08,1.06-.1.71-.16,1a4.28,4.28,0,0,1-.17.75h-5.94L232,144h1.8a6.81,6.81,0,0,1,2.13.31,4.74,4.74,0,0,1,1.62.91,4.06,4.06,0,0,1,1,1.46,4.83,4.83,0,0,1,.37,2,5,5,0,0,1-.47,2.2,4.79,4.79,0,0,1-1.26,1.62,5.93,5.93,0,0,1-1.89,1,7.36,7.36,0,0,1-2.34.36,6.53,6.53,0,0,1-2.3-.4,6.37,6.37,0,0,1-1.66-.9l.91-2.15h.62a3.61,3.61,0,0,1,.35.39l.41.5c.15.17.28.35.41.52l.35.46.4.13a3,3,0,0,0,.49,0,3.22,3.22,0,0,0,1.21-.23,2.69,2.69,0,0,0,1-.64,3.2,3.2,0,0,0,.64-1,3.5,3.5,0,0,0,.23-1.27,2.8,2.8,0,0,0-.29-1.33,2.62,2.62,0,0,0-.79-.95,3.52,3.52,0,0,0-1.17-.55,5.45,5.45,0,0,0-1.41-.18l-1.88,0,.86-7.91H237Z"/><path d="M255,146.73a16,16,0,0,1-.24,2.88,6.55,6.55,0,0,1-.83,2.23,4,4,0,0,1-1.51,1.45,4.59,4.59,0,0,1-2.29.52,4.78,4.78,0,0,1-2.18-.46,3.57,3.57,0,0,1-1.42-1.36,6.47,6.47,0,0,1-.77-2.2,17.85,17.85,0,0,1-.22-3,15,15,0,0,1,.25-2.87,6.53,6.53,0,0,1,.83-2.24,3.94,3.94,0,0,1,1.5-1.45,5.4,5.4,0,0,1,4.47,0,3.47,3.47,0,0,1,1.42,1.35,6.33,6.33,0,0,1,.77,2.2A17.85,17.85,0,0,1,255,146.73Zm-1.86.13c0-.69,0-1.3-.07-1.84a10,10,0,0,0-.22-1.44,4.54,4.54,0,0,0-.37-1.08,2.62,2.62,0,0,0-.54-.74,2,2,0,0,0-.73-.42,2.86,2.86,0,0,0-.91-.13,2.36,2.36,0,0,0-1.46.42,2.84,2.84,0,0,0-.89,1.16,6.51,6.51,0,0,0-.44,1.74,20.24,20.24,0,0,0-.11,2.14,17.45,17.45,0,0,0,.16,2.6A5.68,5.68,0,0,0,248,151a2.29,2.29,0,0,0,.88,1,2.59,2.59,0,0,0,1.29.31,2.81,2.81,0,0,0,1.05-.19,2.22,2.22,0,0,0,.77-.55,3.14,3.14,0,0,0,.53-.85,5.67,5.67,0,0,0,.34-1.1,9.93,9.93,0,0,0,.17-1.31C253.09,147.85,253.1,147.36,253.1,146.86Z"/></svg>