<svg id="Слой_1" data-name="Слой 1" xmlns="http://www.w3.org/2000/svg" viewBox="0 0 400 400"><defs><style>.cls-1,.cls-2{fill:#fff;stroke:#000;stroke-width:3px;}.cls-1{stroke-miterlimit:10;}.cls-2{stroke-linecap:round;stroke-linejoin:round;}.cls-3{fill:#b8ad99;}.cls-4{fill:#608b70;}.cls-5{fill:#c1362d;}</style></defs><title>g7</title><path class="cls-1" d="M371.64,385.45H32.07V38s120.2,98.26,171.22,98.26S371.64,38,371.64,38Z"/><path class="cls-1" d="M215.48,206.72c-4.76-3.51-12.78-3.44-18.11-1.86-7.64,2.25-7.19,6.83-16.61,13-8.79,5.82-11.94,3.65-19.63,8.71-8.95,5.9-9,11.68-15.09,19.28-3,3.78-14.06,15.14-30.95,18.66-10,2.09-12.87-.61-18.88,2.49-9.12,4.71-13.87,16.78-9.81,25.49,3.23,6.93,9.53,6.39,24.16,16.17,11.57,7.75,22.52,15.07,24.91,25.5,3.22,14.08-8.34,17-3.77,20.63,4.12,3.33,16.22,4.93,26.41-2,11.08-7.5,9.68-11.87,18.88-16.17,15.15-7.09,32.4-1.52,33.21-1.24,11,3.7,16.7,10.94,20.38,15.54,8.58,10.71,4.91,14.87,11.33,19.28,11.15,7.67,33.62,3,47.55-5,3.33-1.9,11.19-6.48,16.61-14.93,13.5-21.06-8.71-34.1-9.06-76.49-.12-14.69,2.44-26.39-6.79-32.34-7.75-5-15.87-.83-23.4-6.22-12.25-8.77-3.67-29-9.06-30.47-2.47-.68-5.83,6.93-18.12,18.65-3,2.83-5.91,5.4-9.06,5-1.79-.24-3.44-1.42-6.79-6.84C217.86,212,219.16,209.43,215.48,206.72Z"/><polygon class="cls-1" points="233.93 274.9 252.62 241.6 270.56 274.9 233.93 274.9"/><path class="cls-2" d="M150.06,268.14c3.64,5.62,8.34,11.09,12.94,10.45,7.26-1,7.44-16.38,16-18.5,8.21-2,14.44,10.49,21.93,8.48,3.32-.89,7.54-4.8,10-19.71"/><path class="cls-1" d="M227,302.54a13.88,13.88,0,1,1-13.88-13.88A13.89,13.89,0,0,1,227,302.54Z"/><rect class="cls-1" x="150.73" y="297.38" width="29.44" height="29.44"/><polygon class="cls-1" points="268.65 314.49 275.91 306.44 275.36 317.26 286.17 316.71 278.13 323.97 286.17 331.23 275.36 330.68 275.91 341.49 268.65 333.45 261.39 341.49 261.94 330.68 251.13 331.23 259.17 323.97 251.13 316.71 261.94 317.26 261.39 306.44 268.65 314.49"/><polyline class="cls-1" points="217.96 314.14 213.28 297.05 208.61 314.14"/><path d="M143.07,160.66a12,12,0,0,1-.5,3.66,7.38,7.38,0,0,1-1.35,2.54,5.19,5.19,0,0,1-2,1.49,6.37,6.37,0,0,1-5-.06,4.91,4.91,0,0,1-1.87-1.58,7.27,7.27,0,0,1-1.1-2.52,14.28,14.28,0,0,1-.36-3.35,11.88,11.88,0,0,1,.5-3.63,7.17,7.17,0,0,1,1.34-2.55,5.3,5.3,0,0,1,2-1.49,6,6,0,0,1,2.39-.49,5.9,5.9,0,0,1,2.64.56,5,5,0,0,1,1.87,1.58,7,7,0,0,1,1.11,2.51A13.57,13.57,0,0,1,143.07,160.66Zm-2.22.16a14,14,0,0,0-.22-2.53,6.07,6.07,0,0,0-.68-2,3.41,3.41,0,0,0-1.2-1.29,3.31,3.31,0,0,0-1.79-.46,3,3,0,0,0-1.74.49,3.84,3.84,0,0,0-1.2,1.32,6.75,6.75,0,0,0-.69,2,11.47,11.47,0,0,0-.23,2.39,14.3,14.3,0,0,0,.21,2.55,6.9,6.9,0,0,0,.68,2,3.53,3.53,0,0,0,1.2,1.28A3.33,3.33,0,0,0,137,167a3.12,3.12,0,0,0,1.74-.49,3.76,3.76,0,0,0,1.21-1.32,6.76,6.76,0,0,0,.71-2A12,12,0,0,0,140.85,160.82Z"/><path d="M149.6,168.63V167.1h.34c2.29,0,3.21-3.6,3.67-11.61l.27-4.73h10.26v17.87h-1.66V152.29h-7.07l-.22,4c-.52,8.94-2,12.3-5,12.3Z"/><path d="M185.44,165.64v3H173.3v-17.5h11.92v3H176.7v4.22h7.36v2.76H176.7v4.55Z"/><path d="M192.39,168.75a1.78,1.78,0,0,1-.51-.06c-.14,0-.2-.11-.2-.21s.27-.35.81-.45a3.17,3.17,0,0,0,1.43-.56,1.52,1.52,0,0,0,.49-1.26V155.07a1.79,1.79,0,0,0-.35-1.23,2.52,2.52,0,0,0-1.3-.54,1.6,1.6,0,0,1-.61-.2.33.33,0,0,1-.2-.29c0-.1.06-.17.2-.21a1.78,1.78,0,0,1,.51-.06c.45,0,.81,0,1.1,0l.84,0h8.12a2.26,2.26,0,0,0,.35,0l.29,0a.79.79,0,0,1,.28.05c.11,0,.16.09.16.17,0,.51,0,1,.06,1.61s0,1.07,0,1.49a.42.42,0,0,1-.08.22.2.2,0,0,1-.19.13.26.26,0,0,1-.21-.14,1.65,1.65,0,0,1-.14-.26c-.11-.37-.22-.73-.33-1.06a1.74,1.74,0,0,0-.53-.81,1.81,1.81,0,0,0-.69-.41,3.52,3.52,0,0,0-1.06-.13h-3.25a.86.86,0,0,0-.8.37,2.16,2.16,0,0,0-.24,1.16v11.28a1.5,1.5,0,0,0,.52,1.26,3.37,3.37,0,0,0,1.43.56,2.34,2.34,0,0,1,.62.18.28.28,0,0,1,.19.27c0,.1-.06.17-.19.21a1.9,1.9,0,0,1-.52.06c-.44,0-.81,0-1.1,0l-.82-.06c-.27,0-.59,0-1,0s-.77,0-1.08,0l-.93.06C193.22,168.74,192.84,168.75,192.39,168.75Z"/><path d="M233.42,168.63H230.9v-6.71h-2.61c-.37,0-.93,0-1.13,0l-4.44,6.76h-2.91l4.83-7.35a5.07,5.07,0,0,1-3.84-5c0-4.21,3.2-5.49,7.64-5.49h5Zm-5.15-15.7c-2.89,0-4.91.61-4.91,3.4s2.15,3.42,4.91,3.42h2.63v-6.82Z"/><path d="M245.27,163.4l-1.73,5.23h-2.22L247,152h2.58l5.67,16.61h-2.29l-1.77-5.23Zm5.44-1.68-1.62-4.78c-.37-1.08-.62-2.07-.87-3h-.05c-.24,1-.51,2-.83,3l-1.63,4.8Z"/><path d="M264.66,158.89h2.66l5.71-7.76h2l-6.13,8.43,6.77,9.07h-2l-6.21-8.21h-2.8v8.21H263v-17.5h1.7Z"/><path d="M281.06,168.75a1,1,0,0,1-.45-.09.32.32,0,0,1-.19-.31.41.41,0,0,1,.16-.35,1.29,1.29,0,0,1,.44-.19,3.43,3.43,0,0,0,1.24-.61,2.72,2.72,0,0,0,.8-1c.41-.92.8-1.83,1.16-2.72l1.06-2.66c.34-.88.69-1.78,1-2.69s.69-1.83,1-2.77a14.64,14.64,0,0,0,.47-1.47,2.55,2.55,0,0,1,.14-.53l.84-.22a5.78,5.78,0,0,0,.84-.27,2.52,2.52,0,0,0,.75-.44c.21-.18.36-.32.46-.42a.41.41,0,0,1,.19-.09c.07,0,.13.05.2.16s.09.21.14.31.07.23.11.36c.34,1.1.69,2.22,1.06,3.36s.72,2.28,1.09,3.41l1.1,3.37c.36,1.11.71,2.19,1.06,3.24a2.14,2.14,0,0,0,.45.83,2.2,2.2,0,0,0,.71.55,5.57,5.57,0,0,0,.88.34,1.23,1.23,0,0,1,.43.19.36.36,0,0,1,.16.33.3.3,0,0,1-.14.27.6.6,0,0,1-.35.1c-.33,0-.73,0-1.22,0l-1.46-.06c-.5,0-.93,0-1.31,0s-.69,0-1.15,0l-1.36.05c-.46,0-.86,0-1.19,0a.79.79,0,0,1-.38-.08.3.3,0,0,1-.16-.26.43.43,0,0,1,.17-.35,1.13,1.13,0,0,1,.42-.17,3.3,3.3,0,0,0,1.33-.52.87.87,0,0,0,.28-1c-.07-.31-.15-.64-.25-1s-.19-.7-.28-1-.19-.69-.29-1a.85.85,0,0,0-.12-.3.38.38,0,0,0-.3-.1h-4.36a.41.41,0,0,0-.27.1.87.87,0,0,0-.15.32c-.06.23-.14.46-.22.69s-.16.46-.23.69-.15.46-.21.69-.13.45-.2.67a1.29,1.29,0,0,0,.15,1.13,2.52,2.52,0,0,0,1.38.64c.39.08.59.26.59.52a.3.3,0,0,1-.14.26.8.8,0,0,1-.43.08c-.47,0-.92,0-1.33,0s-.86,0-1.35,0-1,0-1.41.07A12.7,12.7,0,0,1,281.06,168.75Zm5.94-7.2h3.21c.24,0,.36-.05.36-.17a.41.41,0,0,0,0-.12,1.3,1.3,0,0,1,0-.13l-1.65-5.56q-.08-.27-.15-.27s-.09.09-.18.27l-1.94,5.56a.53.53,0,0,0-.05.2.17.17,0,0,0,.13.17A.78.78,0,0,0,287,161.55Z"/><polygon class="cls-3" points="252.34 259.91 254.81 256.72 254.66 260.76 258.61 259.91 255.9 262.9 259.47 264.79 255.47 265.34 256.99 269.08 253.57 266.94 252.34 270.78 251.1 266.94 247.68 269.08 249.2 265.34 245.2 264.79 248.77 262.9 246.06 259.91 250.01 260.76 249.86 256.72 252.34 259.91"/><path class="cls-4" d="M160.61,304.2a3.51,3.51,0,1,1-3.5-3.5,3.51,3.51,0,0,1,3.5,3.5"/><path class="cls-4" d="M168.73,304.2a3.51,3.51,0,1,1-3.51-3.5,3.51,3.51,0,0,1,3.51,3.5"/><path class="cls-4" d="M176.84,304.2a3.5,3.5,0,1,1-3.5-3.5,3.5,3.5,0,0,1,3.5,3.5"/><path class="cls-4" d="M160.61,320.44a3.51,3.51,0,1,1-3.5-3.51,3.5,3.5,0,0,1,3.5,3.51"/><path class="cls-4" d="M168.73,320.44a3.51,3.51,0,1,1-3.51-3.51,3.51,3.51,0,0,1,3.51,3.51"/><path class="cls-4" d="M176.84,320.44a3.5,3.5,0,1,1-3.5-3.51,3.5,3.5,0,0,1,3.5,3.51"/><path class="cls-4" d="M160.61,312.32a3.51,3.51,0,1,1-3.5-3.5,3.5,3.5,0,0,1,3.5,3.5"/><path class="cls-4" d="M176.84,312.32a3.5,3.5,0,1,1-3.5-3.5,3.49,3.49,0,0,1,3.5,3.5"/><polygon class="cls-3" points="165.34 310.06 166.77 308.23 166.68 310.55 168.96 310.06 167.4 311.79 169.46 312.88 167.15 313.2 168.03 315.36 166.05 314.12 165.34 316.34 164.62 314.12 162.65 315.36 163.53 313.2 161.22 312.88 163.28 311.79 161.71 310.06 163.99 310.55 163.91 308.23 165.34 310.06"/><polygon class="cls-5" points="271.34 319.41 274.02 324.06 271.34 328.7 265.98 328.7 263.3 324.06 265.98 319.41 271.34 319.41"/><polygon class="cls-3" points="212.8 293.51 213.38 291.72 213.96 293.51 215.55 292.51 214.84 294.25 216.71 294.51 215.04 295.39 216.3 296.79 214.46 296.4 214.53 298.28 213.37 296.79 212.21 298.28 212.29 296.39 210.44 296.79 211.71 295.39 210.04 294.51 211.91 294.25 211.2 292.5 212.8 293.51"/><path d="M151.71,194.73h-.54l-.94,0-1.09-.05-1,0-1.18,0-1.49,0-1.31,0h-.71a.65.65,0,0,1-.26-.14c-.13-.09-.19-.17-.19-.24a.33.33,0,0,1,.06-.21l.16-.16,3.66-3.88a10.87,10.87,0,0,0,1.84-2.61,6.7,6.7,0,0,0,.68-2.94,2.49,2.49,0,0,0-.63-1.77,2.08,2.08,0,0,0-1.58-.66,3,3,0,0,0-1.63.48,4,4,0,0,0-1.23,1.21,1.34,1.34,0,0,1-.23.25.48.48,0,0,1-.29.11c-.08,0-.15-.06-.22-.18a1,1,0,0,1-.1-.45,1.64,1.64,0,0,1,.34-.8,5.21,5.21,0,0,1,1-1,5.72,5.72,0,0,1,1.44-.88,4.53,4.53,0,0,1,1.81-.36,3.75,3.75,0,0,1,1.94.48,3.31,3.31,0,0,1,1.24,1.33,4.18,4.18,0,0,1,.43,1.93,4.32,4.32,0,0,1-.24,1.34,7.48,7.48,0,0,1-.62,1.39,8.11,8.11,0,0,1-.86,1.25c-.19.24-.47.54-.84.92l-1.18,1.19-1.18,1.17c-.38.37-.68.67-.91.91a1.71,1.71,0,0,0-.35.41c0,.06.1.1.31.13s.58.06.92.07.7,0,1.09,0,.81,0,1.21,0,.78,0,1.16-.07a6,6,0,0,0,1-.13,1.31,1.31,0,0,0,.62-.34,3.25,3.25,0,0,0,.51-.7,2.61,2.61,0,0,1,.25-.31.41.41,0,0,1,.33-.19.2.2,0,0,1,.19.12.55.55,0,0,1,0,.22c-.05.18-.12.42-.23.72s-.21.63-.31,1a8.56,8.56,0,0,0-.25,1,.54.54,0,0,1-.22.42A.53.53,0,0,1,151.71,194.73Z"/><path d="M169.37,186.84a18.32,18.32,0,0,1-.28,3.28,7.71,7.71,0,0,1-.94,2.54,4.61,4.61,0,0,1-1.72,1.65,6.14,6.14,0,0,1-5.08.06,4.06,4.06,0,0,1-1.62-1.54,7.14,7.14,0,0,1-.87-2.5,20.31,20.31,0,0,1-.26-3.41,17.37,17.37,0,0,1,.29-3.27,7.69,7.69,0,0,1,.94-2.55,4.51,4.51,0,0,1,1.71-1.65,6.14,6.14,0,0,1,5.08-.06,4.06,4.06,0,0,1,1.62,1.54,7.14,7.14,0,0,1,.87,2.5A20.31,20.31,0,0,1,169.37,186.84Zm-2.12.15c0-.78,0-1.48-.08-2.09a12.7,12.7,0,0,0-.25-1.64,5.6,5.6,0,0,0-.42-1.22,2.87,2.87,0,0,0-.62-.84,2.36,2.36,0,0,0-.82-.49,3.39,3.39,0,0,0-1-.15,2.6,2.6,0,0,0-1.66.49,3.24,3.24,0,0,0-1,1.32,7.18,7.18,0,0,0-.5,2,23.74,23.74,0,0,0,.05,5.4,6.56,6.56,0,0,0,.57,2,2.57,2.57,0,0,0,1,1.12,2.93,2.93,0,0,0,1.47.35,3.12,3.12,0,0,0,1.19-.22,2.6,2.6,0,0,0,.88-.62,3.46,3.46,0,0,0,.6-1,7.05,7.05,0,0,0,.39-1.25,10.8,10.8,0,0,0,.2-1.48C167.23,188.12,167.25,187.57,167.25,187Z"/><path d="M186.78,186.84a17.44,17.44,0,0,1-.28,3.28,7.5,7.5,0,0,1-.94,2.54,4.51,4.51,0,0,1-1.71,1.65,5.36,5.36,0,0,1-2.61.58,5.28,5.28,0,0,1-2.47-.52,4.06,4.06,0,0,1-1.62-1.54,7.14,7.14,0,0,1-.87-2.5,19.31,19.31,0,0,1-.26-3.41,16.58,16.58,0,0,1,.29-3.27,7.68,7.68,0,0,1,.93-2.55,4.66,4.66,0,0,1,1.71-1.65,6.17,6.17,0,0,1,5.09-.06,4,4,0,0,1,1.61,1.54,7.35,7.35,0,0,1,.88,2.5A20.39,20.39,0,0,1,186.78,186.84Zm-2.11.15c0-.78,0-1.48-.09-2.09a12.82,12.82,0,0,0-.24-1.64,5.6,5.6,0,0,0-.42-1.22,3.06,3.06,0,0,0-.62-.84,2.4,2.4,0,0,0-.83-.49,3.35,3.35,0,0,0-1-.15,2.64,2.64,0,0,0-1.66.49,3.22,3.22,0,0,0-1,1.32,6.84,6.84,0,0,0-.5,2,20.66,20.66,0,0,0-.14,2.43,19.3,19.3,0,0,0,.19,3,6.56,6.56,0,0,0,.57,2,2.57,2.57,0,0,0,1,1.12,2.91,2.91,0,0,0,1.47.35,3.07,3.07,0,0,0,1.18-.22,2.51,2.51,0,0,0,.88-.62,3.27,3.27,0,0,0,.61-1,6.32,6.32,0,0,0,.38-1.25,9.45,9.45,0,0,0,.2-1.48C184.65,188.12,184.67,187.57,184.67,187Z"/><path d="M204.2,186.84a17.44,17.44,0,0,1-.28,3.28,7.5,7.5,0,0,1-.94,2.54,4.61,4.61,0,0,1-1.72,1.65,6.14,6.14,0,0,1-5.08.06,4.06,4.06,0,0,1-1.62-1.54,7.14,7.14,0,0,1-.87-2.5,20.31,20.31,0,0,1-.26-3.41,17.37,17.37,0,0,1,.29-3.27,7.69,7.69,0,0,1,.94-2.55,4.51,4.51,0,0,1,1.71-1.65,6.14,6.14,0,0,1,5.08-.06,4.06,4.06,0,0,1,1.62,1.54,7.14,7.14,0,0,1,.87,2.5A20.31,20.31,0,0,1,204.2,186.84Zm-2.12.15c0-.78,0-1.48-.08-2.09a12.7,12.7,0,0,0-.25-1.64,5.6,5.6,0,0,0-.42-1.22,2.87,2.87,0,0,0-.62-.84,2.36,2.36,0,0,0-.82-.49,3.39,3.39,0,0,0-1-.15,2.6,2.6,0,0,0-1.66.49,3.24,3.24,0,0,0-1,1.32,7.18,7.18,0,0,0-.5,2,23.74,23.74,0,0,0,0,5.4,6.56,6.56,0,0,0,.57,2,2.63,2.63,0,0,0,1,1.12,3,3,0,0,0,1.47.35A3.12,3.12,0,0,0,200,193a2.6,2.6,0,0,0,.88-.62,3.46,3.46,0,0,0,.6-1,7.05,7.05,0,0,0,.39-1.25,10.8,10.8,0,0,0,.2-1.48C202.06,188.12,202.08,187.57,202.08,187Z"/><path d="M210.77,190.83c-.09,0-.13-.05-.13-.14a3.17,3.17,0,0,1,.1-.79c.07-.27.15-.41.26-.43l2.16-.3c.73-.1,1.45-.18,2.17-.26a.24.24,0,0,1,.12,0,.12.12,0,0,1,.06.1,3,3,0,0,1-.1.81c-.07.24-.19.38-.37.41l-2.07.31C212.27,190.67,211.54,190.75,210.77,190.83Z"/><path d="M230.38,194.73h-.54l-.94,0-1.09-.05-1,0-1.19,0-1.48,0-1.31,0h-.71a.6.6,0,0,1-.26-.14c-.13-.09-.19-.17-.19-.24a.33.33,0,0,1,.06-.21c.05,0,.1-.1.16-.16l3.66-3.88a10.87,10.87,0,0,0,1.84-2.61,6.7,6.7,0,0,0,.68-2.94,2.49,2.49,0,0,0-.63-1.77,2.1,2.1,0,0,0-1.58-.66,3,3,0,0,0-1.63.48,4,4,0,0,0-1.23,1.21,1.34,1.34,0,0,1-.23.25.48.48,0,0,1-.29.11c-.08,0-.15-.06-.22-.18a1,1,0,0,1-.1-.45,1.55,1.55,0,0,1,.34-.8,5.21,5.21,0,0,1,.95-1,5.38,5.38,0,0,1,1.44-.88,4.53,4.53,0,0,1,1.81-.36,3.75,3.75,0,0,1,1.94.48,3.31,3.31,0,0,1,1.24,1.33,4.24,4.24,0,0,1,.19,3.27,7.48,7.48,0,0,1-.62,1.39,8.11,8.11,0,0,1-.86,1.25c-.19.24-.48.54-.84.92l-1.18,1.19-1.18,1.17-.92.91a2.06,2.06,0,0,0-.35.41c0,.06.11.1.32.13s.58.06.91.07.71,0,1.1,0,.81,0,1.21,0,.78,0,1.16-.07a6.18,6.18,0,0,0,1-.13,1.31,1.31,0,0,0,.62-.34,3.25,3.25,0,0,0,.51-.7,2.61,2.61,0,0,1,.25-.31.41.41,0,0,1,.33-.19.17.17,0,0,1,.18.12.42.42,0,0,1,0,.22c0,.18-.12.42-.23.72s-.21.63-.31,1a8.56,8.56,0,0,0-.25,1,.57.57,0,0,1-.22.42A.53.53,0,0,1,230.38,194.73Z"/><path d="M248,186.84a18.32,18.32,0,0,1-.28,3.28,7.71,7.71,0,0,1-.94,2.54,4.61,4.61,0,0,1-1.72,1.65,6.14,6.14,0,0,1-5.08.06,4.06,4.06,0,0,1-1.62-1.54,7.14,7.14,0,0,1-.87-2.5,20.31,20.31,0,0,1-.26-3.41,17.37,17.37,0,0,1,.29-3.27,7.47,7.47,0,0,1,.94-2.55,4.51,4.51,0,0,1,1.71-1.65,6.14,6.14,0,0,1,5.08-.06,4.06,4.06,0,0,1,1.62,1.54,7.14,7.14,0,0,1,.87,2.5A20.31,20.31,0,0,1,248,186.84Zm-2.12.15c0-.78,0-1.48-.08-2.09a12.7,12.7,0,0,0-.25-1.64,5.6,5.6,0,0,0-.42-1.22,2.87,2.87,0,0,0-.62-.84,2.45,2.45,0,0,0-.82-.49,3.41,3.41,0,0,0-1-.15,2.64,2.64,0,0,0-1.66.49,3.22,3.22,0,0,0-1,1.32,7.18,7.18,0,0,0-.5,2,23.74,23.74,0,0,0,0,5.4,6.56,6.56,0,0,0,.57,2,2.57,2.57,0,0,0,1,1.12,2.93,2.93,0,0,0,1.47.35,3.12,3.12,0,0,0,1.19-.22,2.6,2.6,0,0,0,.88-.62,3.46,3.46,0,0,0,.6-1,7.05,7.05,0,0,0,.39-1.25,12.62,12.62,0,0,0,.2-1.48C245.9,188.12,245.92,187.57,245.92,187Z"/><path d="M264.07,180.17a8,8,0,0,0-1.62.1,6.51,6.51,0,0,0-5.57,5.69H257a4.79,4.79,0,0,1,3.87-1.84c2.83,0,4.83,2,4.83,5.17a5.37,5.37,0,0,1-5.32,5.65c-3.43,0-5.67-2.67-5.67-6.83a10.07,10.07,0,0,1,2.71-7.22,8.71,8.71,0,0,1,5.12-2.37,10.31,10.31,0,0,1,1.58-.12Zm-.61,9.25c0-2.3-1.31-3.68-3.31-3.68a3.58,3.58,0,0,0-3.1,2,1.85,1.85,0,0,0-.25,1c.05,2.63,1.26,4.58,3.53,4.58C262.2,193.26,263.46,191.71,263.46,189.42Z"/><path d="M281.64,180.17a8.1,8.1,0,0,0-1.63.1,6.52,6.52,0,0,0-5.57,5.69h.08a4.79,4.79,0,0,1,3.87-1.84c2.83,0,4.83,2,4.83,5.17a5.37,5.37,0,0,1-5.33,5.65c-3.42,0-5.67-2.67-5.67-6.83a10.07,10.07,0,0,1,2.72-7.22,8.71,8.71,0,0,1,5.12-2.37,10.14,10.14,0,0,1,1.58-.12Zm-.62,9.25c0-2.3-1.3-3.68-3.3-3.68a3.6,3.6,0,0,0-3.11,2,2,2,0,0,0-.24,1c.05,2.63,1.26,4.58,3.52,4.58C279.77,193.26,281,191.71,281,189.42Z"/></svg>