<svg id="Слой_1" data-name="Слой 1" xmlns="http://www.w3.org/2000/svg" viewBox="0 0 400 400"><defs><style>.cls-1{fill:#fff;stroke:#000;stroke-miterlimit:10;stroke-width:3px;}.cls-2{fill:#b8ad99;}</style></defs><title>g70</title><path class="cls-1" d="M345.57,381.45H34.78V206.59S273.11,2.91,345.57,51.74C411.16,95.93,345.57,381.45,345.57,381.45Z"/><path class="cls-1" d="M281.5,304c12.72-13.91,41.76,1.39,48.46-10,4-6.8-5.67-13.48-1.83-28.18,2.28-8.71,7.09-11.81,5.16-16.88s-7.6-4.28-15.47-10.39c-10.21-7.93-6.81-14-14.22-18.2-10.63-6-19.93,5.18-35-.78-5.75-2.27-4.53-4-13.6-8.8-7.8-4.17-16.1-8.61-24.74-7.93-13.58,1.09-25.75,14.67-28.94,28.26-3.64,15.47,5.39,26.5-.27,31-5.37,4.29-17.65-2.29-21.26-4.23-11.53-6.17-13.18-12.6-24.6-22.78-8.81-7.86-16.59-14.79-28-17.36-15.11-3.4-19.41,4.7-42.43,2-7.14-.84-10.17-2-12.73.08-6.27,5.13-3,24.33,7.47,36.87C88.59,267.6,97.62,266.87,103,279c2.47,5.53,2.12,9.14,6.21,12.87,4.73,4.3,9.28,3.21,17.29,5.47,12,3.37,19.79,10.89,23.47,14.42,10.32,9.93,5.85,13.55,15.59,23.44,10.82,11,19.68,9.87,24,19.9,3.3,7.59,1,14.62,2.52,14.9,1.89.36,3.23-11.25,11.2-23.56,2.58-4,8.69-13.18,20.27-19,3.8-1.91,17-8.54,24.37-3.29,4.74,3.37,4.08,9.49,8.59,10.82.91.26,4.16,1,10-4C277.86,321.35,274.71,311.41,281.5,304Z"/><path d="M211.05,114.06a10.4,10.4,0,0,1,.63-3.53,9.67,9.67,0,0,1,1.81-3.15,9.46,9.46,0,0,1,2.94-2.26,8.74,8.74,0,0,1,4-.87,8.26,8.26,0,0,1,4.51,1.19,7.32,7.32,0,0,1,2.75,3.1l-1.52.95a5.93,5.93,0,0,0-1.15-1.64,6.72,6.72,0,0,0-1.46-1.08,6.33,6.33,0,0,0-1.6-.6,8.46,8.46,0,0,0-1.64-.17,6.57,6.57,0,0,0-3.13.72,7.11,7.11,0,0,0-2.29,1.88,8.37,8.37,0,0,0-1.4,2.62,9.63,9.63,0,0,0-.47,3,8.72,8.72,0,0,0,.57,3.13,9.06,9.06,0,0,0,1.55,2.65,7.69,7.69,0,0,0,2.33,1.83,6.43,6.43,0,0,0,2.92.68,7.27,7.27,0,0,0,1.71-.21,6.55,6.55,0,0,0,1.69-.67,7.09,7.09,0,0,0,1.51-1.13,6,6,0,0,0,1.16-1.65l1.61.83a5.93,5.93,0,0,1-1.33,2A8.59,8.59,0,0,1,224.8,123a9.8,9.8,0,0,1-2.23.89,9.41,9.41,0,0,1-2.32.3,7.76,7.76,0,0,1-3.71-.89,9.66,9.66,0,0,1-2.91-2.31,10.72,10.72,0,0,1-1.9-3.24A10.53,10.53,0,0,1,211.05,114.06Z"/><path d="M244.83,124.42a10.12,10.12,0,0,1-3.64-.65,9.62,9.62,0,0,1-3.08-1.85A8.64,8.64,0,0,1,236,119a8.84,8.84,0,0,1-.77-3.72,10.48,10.48,0,0,1,.63-3.62,8.93,8.93,0,0,1,5-5.25,10.46,10.46,0,0,1,4.25-.81,10.17,10.17,0,0,1,3.67.66,9.47,9.47,0,0,1,3.07,1.85,9.14,9.14,0,0,1,2.1,2.88,8.74,8.74,0,0,1,.78,3.73,10.27,10.27,0,0,1-.64,3.6,9.16,9.16,0,0,1-1.88,3.11,9.33,9.33,0,0,1-3.09,2.16A10.51,10.51,0,0,1,244.83,124.42Zm.5-1.27a4,4,0,0,0,2.65-.89,5.25,5.25,0,0,0,1.59-2.47,11.45,11.45,0,0,0,.53-3.62,17.75,17.75,0,0,0-.32-3.34,11.11,11.11,0,0,0-1-3,5.91,5.91,0,0,0-1.73-2.12,4,4,0,0,0-2.49-.79,4,4,0,0,0-2.62.88,5.38,5.38,0,0,0-1.6,2.44,11.31,11.31,0,0,0-.52,3.61,17.09,17.09,0,0,0,.33,3.36,11.6,11.6,0,0,0,1,3,6,6,0,0,0,1.7,2.13A3.91,3.91,0,0,0,245.33,123.15Z"/><path d="M266.74,114.2h8.53V109a6.06,6.06,0,0,0-.18-1.86,1.22,1.22,0,0,0-.57-.58,2.56,2.56,0,0,0-1.23-.32h-.65v-.5h7.85v.5h-.65a2.53,2.53,0,0,0-1.23.31,1.1,1.1,0,0,0-.59.66,6.2,6.2,0,0,0-.16,1.79v11.84a6,6,0,0,0,.18,1.84,1.21,1.21,0,0,0,.55.58,2.56,2.56,0,0,0,1.25.32h.65V124h-7.85v-.51h.65a2,2,0,0,0,1.64-.66,4,4,0,0,0,.34-2.08V115.2h-8.53v5.59a6,6,0,0,0,.18,1.84,1.24,1.24,0,0,0,.56.58,2.47,2.47,0,0,0,1.24.32h.66V124h-7.86v-.51h.65a2,2,0,0,0,1.65-.66,4.2,4.2,0,0,0,.32-2.08V109a6.53,6.53,0,0,0-.17-1.86,1.24,1.24,0,0,0-.56-.58,2.63,2.63,0,0,0-1.24-.32h-.65v-.5h7.86v.5h-.66a2.56,2.56,0,0,0-1.24.31,1.18,1.18,0,0,0-.58.66,6.2,6.2,0,0,0-.16,1.79Z"/><path d="M299.66,123.7a.28.28,0,0,1-.06.18.48.48,0,0,1-.19.13,2,2,0,0,1-.36.08,4.28,4.28,0,0,1-.56,0,4.39,4.39,0,0,1-.56,0,1.67,1.67,0,0,1-.35-.08.48.48,0,0,1-.19-.13.28.28,0,0,1-.06-.18v-7.31h-1.75a4.5,4.5,0,0,0-1.61.22,2.67,2.67,0,0,0-1,.63,3.66,3.66,0,0,0-.7,1,12.36,12.36,0,0,0-.56,1.3l-1.51,4a1.13,1.13,0,0,1-.14.27.48.48,0,0,1-.22.17,1.54,1.54,0,0,1-.37.09,4.51,4.51,0,0,1-.58,0,4.68,4.68,0,0,1-.62,0,1.34,1.34,0,0,1-.36-.09.32.32,0,0,1-.17-.12.36.36,0,0,1,0-.19,1.25,1.25,0,0,1,0-.31,5.85,5.85,0,0,1,.2-.59l1.44-3.72a10.09,10.09,0,0,1,.54-1.22,6.33,6.33,0,0,1,.61-1,4.63,4.63,0,0,1,.7-.7,3.85,3.85,0,0,1,.84-.47,5.76,5.76,0,0,1-1.46-.56,3.84,3.84,0,0,1-1.1-.89,4.09,4.09,0,0,1-.68-1.23,4.57,4.57,0,0,1-.24-1.52,5.39,5.39,0,0,1,.37-2,4.14,4.14,0,0,1,1.11-1.58,5.25,5.25,0,0,1,1.87-1,10.68,10.68,0,0,1,3.2-.37h3.63a.93.93,0,0,1,.59.21.87.87,0,0,1,.28.73Zm-2.33-15.25h-2.22a7.24,7.24,0,0,0-2.08.22,3.14,3.14,0,0,0-1.15.62,2.4,2.4,0,0,0-.63.95,3.52,3.52,0,0,0-.2,1.18,3.36,3.36,0,0,0,.21,1.2,2.54,2.54,0,0,0,.66,1,3.05,3.05,0,0,0,1.15.66,6.8,6.8,0,0,0,2,.23h2.29Z"/><polygon class="cls-2" points="236.77 227.51 238.64 218.71 242.27 226.95 249.36 221.41 246.84 230.05 255.84 230.36 248.35 235.36 255.04 241.39 246.1 240.41 247.35 249.32 241.12 242.82 236.35 250.45 235.76 241.47 227.2 244.25 232.53 236.99 224.18 233.62 232.92 231.48 228.7 223.53 236.77 227.51"/><polygon class="cls-2" points="182.19 298.09 184.07 289.28 187.69 297.52 194.79 291.98 192.27 300.62 201.26 300.94 193.78 305.94 200.47 311.96 191.52 310.98 192.77 319.9 186.55 313.39 181.78 321.03 181.19 312.05 172.63 314.83 177.95 307.57 169.6 304.19 178.35 302.06 174.12 294.11 182.19 298.09"/><path d="M186.16,151.69V137.94h-3.95v-2.39c2.63-.08,3.93-.25,4.79-2.26h2.67v18.4Z"/><path d="M198.35,152.48a.39.39,0,0,1-.28-.07.19.19,0,0,1-.08-.14.22.22,0,0,1,.12-.19.48.48,0,0,1,.24-.06,4.13,4.13,0,0,0,1.76-.5,10.14,10.14,0,0,0,2-1.34,12.17,12.17,0,0,0,1.84-1.89,12.88,12.88,0,0,0,1.31-2.08,9,9,0,0,0,.72-2.1,11.18,11.18,0,0,0,.23-2.29A6.13,6.13,0,0,0,206,140a7.2,7.2,0,0,0-.79-1.68A4.42,4.42,0,0,0,204,137.1a2.26,2.26,0,0,0-1.33-.46,2.14,2.14,0,0,0-1.37.44,2.7,2.7,0,0,0-.84,1.09,3.2,3.2,0,0,0-.28,1.29,3.25,3.25,0,0,0,.37,1.49,3.33,3.33,0,0,0,1,1.21,2.08,2.08,0,0,0,1.27.47,2.35,2.35,0,0,0,1.17-.22c.25-.14.54-.29.86-.44a.12.12,0,0,1,.17.07c0,.09.05.16,0,.21a1.67,1.67,0,0,1-.38.49,4.82,4.82,0,0,1-.46.4c-.12.08-.3.19-.55.33a6.41,6.41,0,0,1-.84.35,3,3,0,0,1-.94.15,3.79,3.79,0,0,1-1.69-.41,3.57,3.57,0,0,1-1.34-1.15,2.69,2.69,0,0,1-.52-1.63,4.29,4.29,0,0,1,.38-1.75,5.59,5.59,0,0,1,1.07-1.64,5.51,5.51,0,0,1,1.67-1.21,4.89,4.89,0,0,1,2.1-.45,3.58,3.58,0,0,1,1.79.49,5.79,5.79,0,0,1,1.58,1.32,6.59,6.59,0,0,1,1.1,1.87,5.8,5.8,0,0,1,.41,2.13,9.54,9.54,0,0,1-.43,2.9,10.4,10.4,0,0,1-1.25,2.55,19.24,19.24,0,0,1-2,2.49,7.63,7.63,0,0,1-1.52,1.32,11.47,11.47,0,0,1-1.7.94,9.28,9.28,0,0,1-1.69.56A7,7,0,0,1,198.35,152.48Z"/><path d="M215.6,152.48a.38.38,0,0,1-.27-.07.16.16,0,0,1-.08-.14.23.23,0,0,1,.11-.19.53.53,0,0,1,.24-.06,4.13,4.13,0,0,0,1.77-.5,10.43,10.43,0,0,0,2-1.34,12.64,12.64,0,0,0,1.84-1.89,12.88,12.88,0,0,0,1.31-2.08,9,9,0,0,0,.72-2.1,11.18,11.18,0,0,0,.23-2.29,6.13,6.13,0,0,0-.29-1.83,7.2,7.2,0,0,0-.79-1.68,4.42,4.42,0,0,0-1.14-1.21,2.26,2.26,0,0,0-1.34-.46,2.18,2.18,0,0,0-1.37.44,2.76,2.76,0,0,0-.83,1.09,3.2,3.2,0,0,0-.28,1.29,3.25,3.25,0,0,0,.37,1.49,3.33,3.33,0,0,0,1,1.21,2.08,2.08,0,0,0,1.27.47,2.35,2.35,0,0,0,1.17-.22c.25-.14.54-.29.86-.44.07,0,.12,0,.17.07a.22.22,0,0,1,0,.21,1.86,1.86,0,0,1-.38.49,4.82,4.82,0,0,1-.46.4c-.12.08-.3.19-.56.33a5.75,5.75,0,0,1-.83.35,3,3,0,0,1-.94.15,3.79,3.79,0,0,1-1.69-.41,3.67,3.67,0,0,1-1.35-1.15,2.75,2.75,0,0,1-.52-1.63,4.46,4.46,0,0,1,.38-1.75,5.83,5.83,0,0,1,1.08-1.64,5.51,5.51,0,0,1,1.67-1.21,4.89,4.89,0,0,1,2.1-.45,3.58,3.58,0,0,1,1.79.49,5.79,5.79,0,0,1,1.58,1.32,6.59,6.59,0,0,1,1.1,1.87,5.79,5.79,0,0,1,.4,2.13,9.24,9.24,0,0,1-.43,2.9A10,10,0,0,1,224,147a19.24,19.24,0,0,1-2,2.49,7.92,7.92,0,0,1-1.52,1.32,11.47,11.47,0,0,1-1.7.94,9.28,9.28,0,0,1-1.69.56A7.08,7.08,0,0,1,215.6,152.48Z"/><path d="M242.69,135.4a8.7,8.7,0,0,0-1.83.11,7.3,7.3,0,0,0-6.26,6.4h.08a5.37,5.37,0,0,1,4.35-2.08c3.19,0,5.43,2.3,5.43,5.82,0,3.3-2.24,6.34-6,6.34s-6.38-3-6.38-7.67a11.33,11.33,0,0,1,3.05-8.12,9.82,9.82,0,0,1,5.77-2.66,11.84,11.84,0,0,1,1.77-.14ZM242,145.79c0-2.58-1.47-4.13-3.72-4.13a4,4,0,0,0-3.49,2.22,2.1,2.1,0,0,0-.27,1.08c0,3,1.41,5.15,4,5.15C240.58,150.11,242,148.36,242,145.79Z"/><path d="M251.81,147.38a.14.14,0,0,1-.15-.16,3.55,3.55,0,0,1,.11-.89c.08-.3.17-.46.29-.48l2.44-.34c.81-.11,1.62-.21,2.44-.29a.2.2,0,0,1,.13,0,.11.11,0,0,1,.07.11,3.26,3.26,0,0,1-.12.9c-.07.28-.21.44-.42.47l-2.32.34C253.5,147.19,252.67,147.29,251.81,147.38Z"/><path d="M273.86,151.77l-.61,0-1.05,0-1.23-.05-1.17,0-1.33,0-1.68,0-1.47,0h-.8a.7.7,0,0,1-.29-.15c-.14-.1-.21-.2-.21-.28a.32.32,0,0,1,.07-.23l.18-.18,4.11-4.36a12.33,12.33,0,0,0,2.07-2.95,7.44,7.44,0,0,0,.77-3.3,2.74,2.74,0,0,0-.71-2,2.33,2.33,0,0,0-1.77-.75,3.36,3.36,0,0,0-1.84.55,4.63,4.63,0,0,0-1.39,1.36,1.62,1.62,0,0,1-.25.28.52.52,0,0,1-.33.12c-.09,0-.17-.07-.24-.2a1,1,0,0,1-.12-.51,1.86,1.86,0,0,1,.38-.9A5.89,5.89,0,0,1,266,137.1a6.5,6.5,0,0,1,1.62-1,5.11,5.11,0,0,1,2-.41,4.14,4.14,0,0,1,2.19.55,3.57,3.57,0,0,1,1.39,1.49,4.72,4.72,0,0,1,.22,3.67,8.46,8.46,0,0,1-.7,1.57,9.58,9.58,0,0,1-1,1.4c-.22.27-.54.62-1,1l-1.31,1.33c-.47.47-.91.91-1.34,1.32l-1,1a2,2,0,0,0-.39.46q0,.1.36.15l1,.08,1.24,0,1.35,0,1.31-.08a6.08,6.08,0,0,0,1.09-.15,1.65,1.65,0,0,0,.7-.38,3.59,3.59,0,0,0,.57-.79,3.27,3.27,0,0,1,.28-.35.5.5,0,0,1,.38-.21.19.19,0,0,1,.2.13.37.37,0,0,1,0,.25c-.05.21-.14.48-.25.81s-.24.7-.36,1.08a10.81,10.81,0,0,0-.28,1.08.58.58,0,0,1-.24.47A.64.64,0,0,1,273.86,151.77Z"/><path d="M293.72,142.89a20,20,0,0,1-.31,3.69,8.72,8.72,0,0,1-1.06,2.86,5.11,5.11,0,0,1-1.93,1.85,6,6,0,0,1-2.93.66,6,6,0,0,1-2.79-.59,4.58,4.58,0,0,1-1.82-1.73,8.28,8.28,0,0,1-1-2.82,22.89,22.89,0,0,1-.29-3.83,19.07,19.07,0,0,1,.33-3.68,8.69,8.69,0,0,1,1.05-2.87,5.16,5.16,0,0,1,1.92-1.85,6.86,6.86,0,0,1,5.72-.07,4.58,4.58,0,0,1,1.82,1.73,8.07,8.07,0,0,1,1,2.82A21.88,21.88,0,0,1,293.72,142.89Zm-2.38.17c0-.88,0-1.66-.09-2.36a15.67,15.67,0,0,0-.28-1.84,6.09,6.09,0,0,0-.47-1.37,3.5,3.5,0,0,0-.7-1,2.42,2.42,0,0,0-.93-.54,3.89,3.89,0,0,0-1.17-.17,3,3,0,0,0-1.87.54,3.76,3.76,0,0,0-1.13,1.49,8,8,0,0,0-.56,2.22,23.41,23.41,0,0,0-.15,2.73,22.6,22.6,0,0,0,.21,3.34,7.39,7.39,0,0,0,.64,2.24,3,3,0,0,0,1.12,1.26,3.31,3.31,0,0,0,1.66.39,3.22,3.22,0,0,0,1.33-.25,2.68,2.68,0,0,0,1-.69,3.73,3.73,0,0,0,.68-1.09,7.78,7.78,0,0,0,.44-1.41,11.65,11.65,0,0,0,.22-1.67C291.32,144.33,291.34,143.71,291.34,143.06Z"/><path d="M301.93,152.48a.39.39,0,0,1-.28-.07.19.19,0,0,1-.08-.14.22.22,0,0,1,.12-.19.48.48,0,0,1,.24-.06,4.13,4.13,0,0,0,1.76-.5,10.14,10.14,0,0,0,2-1.34,12.17,12.17,0,0,0,1.84-1.89,12.88,12.88,0,0,0,1.31-2.08,9,9,0,0,0,.72-2.1,11.18,11.18,0,0,0,.23-2.29,6.13,6.13,0,0,0-.29-1.83,7.2,7.2,0,0,0-.79-1.68,4.42,4.42,0,0,0-1.14-1.21,2.26,2.26,0,0,0-1.33-.46,2.14,2.14,0,0,0-1.37.44,2.7,2.7,0,0,0-.84,1.09,3.2,3.2,0,0,0-.28,1.29,3.25,3.25,0,0,0,.37,1.49,3.33,3.33,0,0,0,1,1.21,2.08,2.08,0,0,0,1.27.47,2.35,2.35,0,0,0,1.17-.22c.25-.14.54-.29.86-.44a.12.12,0,0,1,.17.07c0,.09.05.16,0,.21a1.67,1.67,0,0,1-.38.49,4.82,4.82,0,0,1-.46.4c-.11.08-.3.19-.55.33a6.41,6.41,0,0,1-.84.35,3,3,0,0,1-.94.15,3.79,3.79,0,0,1-1.69-.41,3.57,3.57,0,0,1-1.34-1.15,2.69,2.69,0,0,1-.52-1.63,4.29,4.29,0,0,1,.38-1.75,5.59,5.59,0,0,1,1.07-1.64,5.51,5.51,0,0,1,1.67-1.21,4.89,4.89,0,0,1,2.1-.45,3.58,3.58,0,0,1,1.79.49,5.79,5.79,0,0,1,1.58,1.32,6.59,6.59,0,0,1,1.1,1.87,5.8,5.8,0,0,1,.41,2.13,9.54,9.54,0,0,1-.43,2.9A10.4,10.4,0,0,1,310.3,147a19.24,19.24,0,0,1-2,2.49,7.63,7.63,0,0,1-1.52,1.32,11.47,11.47,0,0,1-1.7.94,9.28,9.28,0,0,1-1.69.56A7,7,0,0,1,301.93,152.48Z"/><path d="M319.18,152.48a.38.38,0,0,1-.27-.07.16.16,0,0,1-.08-.14.23.23,0,0,1,.11-.19.53.53,0,0,1,.24-.06,4.13,4.13,0,0,0,1.77-.5,10.43,10.43,0,0,0,2-1.34,12.64,12.64,0,0,0,1.84-1.89,12.88,12.88,0,0,0,1.31-2.08,9,9,0,0,0,.72-2.1,11.18,11.18,0,0,0,.23-2.29,6.13,6.13,0,0,0-.29-1.83,7.2,7.2,0,0,0-.79-1.68,4.42,4.42,0,0,0-1.14-1.21,2.26,2.26,0,0,0-1.34-.46,2.18,2.18,0,0,0-1.37.44,2.76,2.76,0,0,0-.83,1.09,3.2,3.2,0,0,0-.28,1.29,3.37,3.37,0,0,0,.36,1.49,3.46,3.46,0,0,0,1,1.21,2.08,2.08,0,0,0,1.27.47,2.38,2.38,0,0,0,1.17-.22c.25-.14.54-.29.86-.44.07,0,.12,0,.17.07a.22.22,0,0,1,0,.21,1.86,1.86,0,0,1-.38.49,4.82,4.82,0,0,1-.46.4c-.12.08-.3.19-.56.33a5.75,5.75,0,0,1-.83.35,3,3,0,0,1-.94.15,3.79,3.79,0,0,1-1.69-.41,3.67,3.67,0,0,1-1.35-1.15,2.75,2.75,0,0,1-.52-1.63,4.46,4.46,0,0,1,.38-1.75,5.83,5.83,0,0,1,1.08-1.64,5.51,5.51,0,0,1,1.67-1.21,4.89,4.89,0,0,1,2.1-.45,3.58,3.58,0,0,1,1.79.49,5.75,5.75,0,0,1,1.57,1.32,6.39,6.39,0,0,1,1.11,1.87,5.79,5.79,0,0,1,.4,2.13,9.24,9.24,0,0,1-.43,2.9,10,10,0,0,1-1.24,2.55,19.24,19.24,0,0,1-2,2.49,7.92,7.92,0,0,1-1.52,1.32,11.47,11.47,0,0,1-1.7.94,9.28,9.28,0,0,1-1.69.56A7.08,7.08,0,0,1,319.18,152.48Z"/></svg>